ISO-10303-21;
HEADER;
/* Generated by software containing ST-Developer
 * from STEP Tools, Inc. (www.steptools.com) 
 */

FILE_DESCRIPTION(
/* description */ (''),
/* implementation_level */ '2;1');

FILE_NAME(
/* name */ 'Cable-Clamp.step',
/* time_stamp */ '2026-04-07T14:05:50+02:00',
/* author */ (''),
/* organization */ (''),
/* preprocessor_version */ 'ST-DEVELOPER v20.1',
/* originating_system */ 'Autodesk Translation Framework v14.24.0.0',
/* authorisation */ '');

FILE_SCHEMA (('AUTOMOTIVE_DESIGN { 1 0 10303 214 3 1 1 }'));
ENDSEC;

DATA;
#10=MECHANICAL_DESIGN_GEOMETRIC_PRESENTATION_REPRESENTATION('',(#13),#1082);
#11=SHAPE_REPRESENTATION_RELATIONSHIP('SRR','None',#1088,#12);
#12=ADVANCED_BREP_SHAPE_REPRESENTATION('',(#14),#1081);
#13=STYLED_ITEM('',(#1103),#14);
#14=MANIFOLD_SOLID_BREP('Cable-Clamp-03',#654);
#15=CYLINDRICAL_SURFACE('',#669,6.);
#16=CYLINDRICAL_SURFACE('',#683,4.1);
#17=CYLINDRICAL_SURFACE('',#685,4.1);
#18=CYLINDRICAL_SURFACE('',#687,2.);
#19=CYLINDRICAL_SURFACE('',#689,2.);
#20=CYLINDRICAL_SURFACE('',#695,6.);
#21=CYLINDRICAL_SURFACE('',#702,3.);
#22=CYLINDRICAL_SURFACE('',#703,3.);
#23=CYLINDRICAL_SURFACE('',#705,3.75);
#24=CYLINDRICAL_SURFACE('',#706,3.75);
#25=CIRCLE('',#659,4.1);
#26=CIRCLE('',#660,3.);
#27=CIRCLE('',#661,3.);
#28=CIRCLE('',#662,3.75);
#29=CIRCLE('',#663,3.75);
#30=CIRCLE('',#664,4.1);
#31=CIRCLE('',#665,6.);
#32=CIRCLE('',#666,2.);
#33=CIRCLE('',#667,2.);
#34=CIRCLE('',#668,6.);
#35=CIRCLE('',#670,6.);
#36=CIRCLE('',#673,6.);
#37=CIRCLE('',#674,2.);
#38=CIRCLE('',#675,2.);
#39=CIRCLE('',#676,4.1);
#40=CIRCLE('',#677,3.75);
#41=CIRCLE('',#678,3.75);
#42=CIRCLE('',#679,3.);
#43=CIRCLE('',#680,3.);
#44=CIRCLE('',#681,4.1);
#45=FACE_OUTER_BOUND('',#78,.T.);
#46=FACE_OUTER_BOUND('',#79,.T.);
#47=FACE_OUTER_BOUND('',#80,.T.);
#48=FACE_OUTER_BOUND('',#81,.T.);
#49=FACE_OUTER_BOUND('',#82,.T.);
#50=FACE_OUTER_BOUND('',#83,.T.);
#51=FACE_OUTER_BOUND('',#84,.T.);
#52=FACE_OUTER_BOUND('',#85,.T.);
#53=FACE_OUTER_BOUND('',#86,.T.);
#54=FACE_OUTER_BOUND('',#87,.T.);
#55=FACE_OUTER_BOUND('',#88,.T.);
#56=FACE_OUTER_BOUND('',#89,.T.);
#57=FACE_OUTER_BOUND('',#90,.T.);
#58=FACE_OUTER_BOUND('',#91,.T.);
#59=FACE_OUTER_BOUND('',#92,.T.);
#60=FACE_OUTER_BOUND('',#93,.T.);
#61=FACE_OUTER_BOUND('',#94,.T.);
#62=FACE_OUTER_BOUND('',#95,.T.);
#63=FACE_OUTER_BOUND('',#96,.T.);
#64=FACE_OUTER_BOUND('',#97,.T.);
#65=FACE_OUTER_BOUND('',#98,.T.);
#66=FACE_OUTER_BOUND('',#99,.T.);
#67=FACE_OUTER_BOUND('',#100,.T.);
#68=FACE_OUTER_BOUND('',#101,.T.);
#69=FACE_OUTER_BOUND('',#102,.T.);
#70=FACE_OUTER_BOUND('',#103,.T.);
#71=FACE_OUTER_BOUND('',#104,.T.);
#72=FACE_OUTER_BOUND('',#105,.T.);
#73=FACE_OUTER_BOUND('',#106,.T.);
#74=FACE_OUTER_BOUND('',#107,.T.);
#75=FACE_OUTER_BOUND('',#108,.T.);
#76=FACE_OUTER_BOUND('',#109,.T.);
#77=FACE_OUTER_BOUND('',#110,.T.);
#78=EDGE_LOOP('',(#412,#413,#414,#415));
#79=EDGE_LOOP('',(#416,#417,#418,#419));
#80=EDGE_LOOP('',(#420,#421,#422,#423,#424,#425,#426,#427,#428,#429,#430,
#431,#432,#433,#434,#435,#436,#437,#438,#439,#440,#441,#442,#443,#444,#445,
#446,#447,#448,#449,#450));
#81=EDGE_LOOP('',(#451,#452,#453,#454));
#82=EDGE_LOOP('',(#455,#456,#457,#458));
#83=EDGE_LOOP('',(#459,#460,#461,#462,#463,#464,#465,#466,#467,#468,#469,
#470,#471,#472,#473,#474,#475,#476,#477,#478,#479,#480,#481,#482,#483,#484,
#485,#486,#487,#488,#489));
#84=EDGE_LOOP('',(#490,#491,#492,#493));
#85=EDGE_LOOP('',(#494,#495,#496,#497));
#86=EDGE_LOOP('',(#498,#499,#500,#501));
#87=EDGE_LOOP('',(#502,#503,#504,#505));
#88=EDGE_LOOP('',(#506,#507,#508,#509));
#89=EDGE_LOOP('',(#510,#511,#512,#513));
#90=EDGE_LOOP('',(#514,#515,#516,#517));
#91=EDGE_LOOP('',(#518,#519,#520,#521));
#92=EDGE_LOOP('',(#522,#523,#524,#525));
#93=EDGE_LOOP('',(#526,#527,#528,#529));
#94=EDGE_LOOP('',(#530,#531,#532,#533));
#95=EDGE_LOOP('',(#534,#535,#536,#537));
#96=EDGE_LOOP('',(#538,#539,#540,#541));
#97=EDGE_LOOP('',(#542,#543,#544,#545));
#98=EDGE_LOOP('',(#546,#547,#548,#549));
#99=EDGE_LOOP('',(#550,#551,#552,#553));
#100=EDGE_LOOP('',(#554,#555,#556,#557));
#101=EDGE_LOOP('',(#558,#559,#560,#561));
#102=EDGE_LOOP('',(#562,#563,#564,#565));
#103=EDGE_LOOP('',(#566,#567,#568,#569));
#104=EDGE_LOOP('',(#570,#571,#572,#573));
#105=EDGE_LOOP('',(#574,#575,#576,#577));
#106=EDGE_LOOP('',(#578,#579,#580,#581));
#107=EDGE_LOOP('',(#582,#583,#584,#585));
#108=EDGE_LOOP('',(#586,#587,#588,#589));
#109=EDGE_LOOP('',(#590,#591,#592,#593));
#110=EDGE_LOOP('',(#594,#595,#596,#597));
#111=LINE('',#894,#184);
#112=LINE('',#896,#185);
#113=LINE('',#898,#186);
#114=LINE('',#899,#187);
#115=LINE('',#903,#188);
#116=LINE('',#905,#189);
#117=LINE('',#907,#190);
#118=LINE('',#908,#191);
#119=LINE('',#913,#192);
#120=LINE('',#915,#193);
#121=LINE('',#917,#194);
#122=LINE('',#921,#195);
#123=LINE('',#925,#196);
#124=LINE('',#929,#197);
#125=LINE('',#933,#198);
#126=LINE('',#935,#199);
#127=LINE('',#937,#200);
#128=LINE('',#939,#201);
#129=LINE('',#944,#202);
#130=LINE('',#948,#203);
#131=LINE('',#950,#204);
#132=LINE('',#952,#205);
#133=LINE('',#954,#206);
#134=LINE('',#956,#207);
#135=LINE('',#958,#208);
#136=LINE('',#960,#209);
#137=LINE('',#964,#210);
#138=LINE('',#969,#211);
#139=LINE('',#972,#212);
#140=LINE('',#974,#213);
#141=LINE('',#975,#214);
#142=LINE('',#980,#215);
#143=LINE('',#984,#216);
#144=LINE('',#986,#217);
#145=LINE('',#988,#218);
#146=LINE('',#990,#219);
#147=LINE('',#992,#220);
#148=LINE('',#994,#221);
#149=LINE('',#996,#222);
#150=LINE('',#999,#223);
#151=LINE('',#1002,#224);
#152=LINE('',#1004,#225);
#153=LINE('',#1006,#226);
#154=LINE('',#1010,#227);
#155=LINE('',#1014,#228);
#156=LINE('',#1018,#229);
#157=LINE('',#1022,#230);
#158=LINE('',#1024,#231);
#159=LINE('',#1026,#232);
#160=LINE('',#1029,#233);
#161=LINE('',#1031,#234);
#162=LINE('',#1033,#235);
#163=LINE('',#1036,#236);
#164=LINE('',#1037,#237);
#165=LINE('',#1039,#238);
#166=LINE('',#1040,#239);
#167=LINE('',#1042,#240);
#168=LINE('',#1044,#241);
#169=LINE('',#1045,#242);
#170=LINE('',#1047,#243);
#171=LINE('',#1049,#244);
#172=LINE('',#1052,#245);
#173=LINE('',#1055,#246);
#174=LINE('',#1057,#247);
#175=LINE('',#1058,#248);
#176=LINE('',#1060,#249);
#177=LINE('',#1061,#250);
#178=LINE('',#1063,#251);
#179=LINE('',#1064,#252);
#180=LINE('',#1066,#253);
#181=LINE('',#1067,#254);
#182=LINE('',#1070,#255);
#183=LINE('',#1071,#256);
#184=VECTOR('',#713,10.);
#185=VECTOR('',#714,10.);
#186=VECTOR('',#715,10.);
#187=VECTOR('',#716,10.);
#188=VECTOR('',#719,10.);
#189=VECTOR('',#720,10.);
#190=VECTOR('',#721,10.);
#191=VECTOR('',#722,10.);
#192=VECTOR('',#727,10.);
#193=VECTOR('',#728,10.);
#194=VECTOR('',#729,10.);
#195=VECTOR('',#732,10.);
#196=VECTOR('',#735,10.);
#197=VECTOR('',#738,10.);
#198=VECTOR('',#741,10.);
#199=VECTOR('',#742,10.);
#200=VECTOR('',#743,10.);
#201=VECTOR('',#744,10.);
#202=VECTOR('',#749,10.);
#203=VECTOR('',#752,10.);
#204=VECTOR('',#753,10.);
#205=VECTOR('',#754,10.);
#206=VECTOR('',#755,10.);
#207=VECTOR('',#756,10.);
#208=VECTOR('',#757,10.);
#209=VECTOR('',#758,10.);
#210=VECTOR('',#761,10.);
#211=VECTOR('',#768,10.);
#212=VECTOR('',#771,10.);
#213=VECTOR('',#772,10.);
#214=VECTOR('',#773,10.);
#215=VECTOR('',#778,10.);
#216=VECTOR('',#781,10.);
#217=VECTOR('',#782,10.);
#218=VECTOR('',#783,10.);
#219=VECTOR('',#784,10.);
#220=VECTOR('',#785,10.);
#221=VECTOR('',#786,10.);
#222=VECTOR('',#787,10.);
#223=VECTOR('',#790,10.);
#224=VECTOR('',#793,10.);
#225=VECTOR('',#794,10.);
#226=VECTOR('',#795,10.);
#227=VECTOR('',#798,10.);
#228=VECTOR('',#801,10.);
#229=VECTOR('',#804,10.);
#230=VECTOR('',#807,10.);
#231=VECTOR('',#808,10.);
#232=VECTOR('',#809,10.);
#233=VECTOR('',#814,10.);
#234=VECTOR('',#817,10.);
#235=VECTOR('',#820,10.);
#236=VECTOR('',#825,10.);
#237=VECTOR('',#826,10.);
#238=VECTOR('',#829,10.);
#239=VECTOR('',#830,10.);
#240=VECTOR('',#833,10.);
#241=VECTOR('',#836,10.);
#242=VECTOR('',#837,10.);
#243=VECTOR('',#840,10.);
#244=VECTOR('',#843,10.);
#245=VECTOR('',#848,10.);
#246=VECTOR('',#853,10.);
#247=VECTOR('',#856,10.);
#248=VECTOR('',#857,10.);
#249=VECTOR('',#860,10.);
#250=VECTOR('',#861,10.);
#251=VECTOR('',#864,10.);
#252=VECTOR('',#865,10.);
#253=VECTOR('',#868,10.);
#254=VECTOR('',#869,10.);
#255=VECTOR('',#874,10.);
#256=VECTOR('',#875,10.);
#257=VERTEX_POINT('',#892);
#258=VERTEX_POINT('',#893);
#259=VERTEX_POINT('',#895);
#260=VERTEX_POINT('',#897);
#261=VERTEX_POINT('',#901);
#262=VERTEX_POINT('',#902);
#263=VERTEX_POINT('',#904);
#264=VERTEX_POINT('',#906);
#265=VERTEX_POINT('',#910);
#266=VERTEX_POINT('',#912);
#267=VERTEX_POINT('',#914);
#268=VERTEX_POINT('',#916);
#269=VERTEX_POINT('',#918);
#270=VERTEX_POINT('',#920);
#271=VERTEX_POINT('',#922);
#272=VERTEX_POINT('',#924);
#273=VERTEX_POINT('',#926);
#274=VERTEX_POINT('',#928);
#275=VERTEX_POINT('',#930);
#276=VERTEX_POINT('',#932);
#277=VERTEX_POINT('',#934);
#278=VERTEX_POINT('',#936);
#279=VERTEX_POINT('',#938);
#280=VERTEX_POINT('',#941);
#281=VERTEX_POINT('',#943);
#282=VERTEX_POINT('',#945);
#283=VERTEX_POINT('',#947);
#284=VERTEX_POINT('',#949);
#285=VERTEX_POINT('',#951);
#286=VERTEX_POINT('',#953);
#287=VERTEX_POINT('',#955);
#288=VERTEX_POINT('',#957);
#289=VERTEX_POINT('',#959);
#290=VERTEX_POINT('',#961);
#291=VERTEX_POINT('',#963);
#292=VERTEX_POINT('',#967);
#293=VERTEX_POINT('',#971);
#294=VERTEX_POINT('',#973);
#295=VERTEX_POINT('',#977);
#296=VERTEX_POINT('',#979);
#297=VERTEX_POINT('',#981);
#298=VERTEX_POINT('',#983);
#299=VERTEX_POINT('',#985);
#300=VERTEX_POINT('',#987);
#301=VERTEX_POINT('',#989);
#302=VERTEX_POINT('',#991);
#303=VERTEX_POINT('',#993);
#304=VERTEX_POINT('',#995);
#305=VERTEX_POINT('',#997);
#306=VERTEX_POINT('',#1001);
#307=VERTEX_POINT('',#1003);
#308=VERTEX_POINT('',#1005);
#309=VERTEX_POINT('',#1007);
#310=VERTEX_POINT('',#1009);
#311=VERTEX_POINT('',#1011);
#312=VERTEX_POINT('',#1013);
#313=VERTEX_POINT('',#1015);
#314=VERTEX_POINT('',#1017);
#315=VERTEX_POINT('',#1019);
#316=VERTEX_POINT('',#1021);
#317=VERTEX_POINT('',#1023);
#318=VERTEX_POINT('',#1025);
#319=EDGE_CURVE('',#257,#258,#111,.T.);
#320=EDGE_CURVE('',#259,#257,#112,.T.);
#321=EDGE_CURVE('',#260,#259,#113,.T.);
#322=EDGE_CURVE('',#258,#260,#114,.T.);
#323=EDGE_CURVE('',#261,#262,#115,.T.);
#324=EDGE_CURVE('',#263,#261,#116,.T.);
#325=EDGE_CURVE('',#264,#263,#117,.T.);
#326=EDGE_CURVE('',#262,#264,#118,.T.);
#327=EDGE_CURVE('',#265,#264,#25,.T.);
#328=EDGE_CURVE('',#265,#266,#119,.F.);
#329=EDGE_CURVE('',#266,#267,#120,.F.);
#330=EDGE_CURVE('',#267,#268,#121,.T.);
#331=EDGE_CURVE('',#268,#269,#26,.T.);
#332=EDGE_CURVE('',#269,#270,#122,.T.);
#333=EDGE_CURVE('',#270,#271,#27,.T.);
#334=EDGE_CURVE('',#271,#272,#123,.T.);
#335=EDGE_CURVE('',#272,#273,#28,.T.);
#336=EDGE_CURVE('',#273,#274,#124,.T.);
#337=EDGE_CURVE('',#274,#275,#29,.T.);
#338=EDGE_CURVE('',#275,#276,#125,.T.);
#339=EDGE_CURVE('',#276,#277,#126,.T.);
#340=EDGE_CURVE('',#277,#278,#127,.F.);
#341=EDGE_CURVE('',#278,#279,#128,.F.);
#342=EDGE_CURVE('',#259,#279,#30,.F.);
#343=EDGE_CURVE('',#280,#257,#31,.T.);
#344=EDGE_CURVE('',#281,#280,#129,.T.);
#345=EDGE_CURVE('',#282,#281,#32,.T.);
#346=EDGE_CURVE('',#283,#282,#130,.F.);
#347=EDGE_CURVE('',#284,#283,#131,.F.);
#348=EDGE_CURVE('',#285,#284,#132,.F.);
#349=EDGE_CURVE('',#285,#286,#133,.F.);
#350=EDGE_CURVE('',#286,#287,#134,.F.);
#351=EDGE_CURVE('',#287,#288,#135,.F.);
#352=EDGE_CURVE('',#289,#288,#136,.F.);
#353=EDGE_CURVE('',#290,#289,#33,.T.);
#354=EDGE_CURVE('',#290,#291,#137,.T.);
#355=EDGE_CURVE('',#262,#291,#34,.T.);
#356=EDGE_CURVE('',#258,#292,#35,.T.);
#357=EDGE_CURVE('',#292,#280,#138,.T.);
#358=EDGE_CURVE('',#278,#293,#139,.T.);
#359=EDGE_CURVE('',#294,#293,#140,.F.);
#360=EDGE_CURVE('',#279,#294,#141,.T.);
#361=EDGE_CURVE('',#295,#261,#36,.T.);
#362=EDGE_CURVE('',#296,#295,#142,.T.);
#363=EDGE_CURVE('',#297,#296,#37,.T.);
#364=EDGE_CURVE('',#298,#297,#143,.F.);
#365=EDGE_CURVE('',#298,#299,#144,.F.);
#366=EDGE_CURVE('',#299,#300,#145,.F.);
#367=EDGE_CURVE('',#300,#301,#146,.F.);
#368=EDGE_CURVE('',#302,#301,#147,.T.);
#369=EDGE_CURVE('',#303,#302,#148,.T.);
#370=EDGE_CURVE('',#303,#304,#149,.F.);
#371=EDGE_CURVE('',#305,#304,#38,.T.);
#372=EDGE_CURVE('',#305,#292,#150,.T.);
#373=EDGE_CURVE('',#294,#260,#39,.F.);
#374=EDGE_CURVE('',#293,#306,#151,.F.);
#375=EDGE_CURVE('',#306,#307,#152,.T.);
#376=EDGE_CURVE('',#307,#308,#153,.T.);
#377=EDGE_CURVE('',#308,#309,#40,.T.);
#378=EDGE_CURVE('',#309,#310,#154,.T.);
#379=EDGE_CURVE('',#310,#311,#41,.T.);
#380=EDGE_CURVE('',#311,#312,#155,.T.);
#381=EDGE_CURVE('',#312,#313,#42,.T.);
#382=EDGE_CURVE('',#313,#314,#156,.T.);
#383=EDGE_CURVE('',#314,#315,#43,.T.);
#384=EDGE_CURVE('',#315,#316,#157,.T.);
#385=EDGE_CURVE('',#316,#317,#158,.F.);
#386=EDGE_CURVE('',#317,#318,#159,.F.);
#387=EDGE_CURVE('',#263,#318,#44,.T.);
#388=EDGE_CURVE('',#277,#306,#160,.F.);
#389=EDGE_CURVE('',#318,#265,#161,.T.);
#390=EDGE_CURVE('',#317,#266,#162,.F.);
#391=EDGE_CURVE('',#300,#286,#163,.T.);
#392=EDGE_CURVE('',#285,#301,#164,.T.);
#393=EDGE_CURVE('',#289,#297,#165,.T.);
#394=EDGE_CURVE('',#296,#290,#166,.T.);
#395=EDGE_CURVE('',#288,#298,#167,.T.);
#396=EDGE_CURVE('',#304,#282,#168,.T.);
#397=EDGE_CURVE('',#281,#305,#169,.T.);
#398=EDGE_CURVE('',#283,#303,#170,.F.);
#399=EDGE_CURVE('',#302,#284,#171,.T.);
#400=EDGE_CURVE('',#299,#287,#172,.F.);
#401=EDGE_CURVE('',#291,#295,#173,.T.);
#402=EDGE_CURVE('',#308,#275,#174,.T.);
#403=EDGE_CURVE('',#307,#276,#175,.T.);
#404=EDGE_CURVE('',#270,#313,#176,.T.);
#405=EDGE_CURVE('',#314,#269,#177,.T.);
#406=EDGE_CURVE('',#310,#273,#178,.T.);
#407=EDGE_CURVE('',#274,#309,#179,.T.);
#408=EDGE_CURVE('',#316,#267,#180,.F.);
#409=EDGE_CURVE('',#268,#315,#181,.T.);
#410=EDGE_CURVE('',#272,#311,#182,.T.);
#411=EDGE_CURVE('',#312,#271,#183,.T.);
#412=ORIENTED_EDGE('',*,*,#319,.F.);
#413=ORIENTED_EDGE('',*,*,#320,.F.);
#414=ORIENTED_EDGE('',*,*,#321,.F.);
#415=ORIENTED_EDGE('',*,*,#322,.F.);
#416=ORIENTED_EDGE('',*,*,#323,.F.);
#417=ORIENTED_EDGE('',*,*,#324,.F.);
#418=ORIENTED_EDGE('',*,*,#325,.F.);
#419=ORIENTED_EDGE('',*,*,#326,.F.);
#420=ORIENTED_EDGE('',*,*,#326,.T.);
#421=ORIENTED_EDGE('',*,*,#327,.F.);
#422=ORIENTED_EDGE('',*,*,#328,.T.);
#423=ORIENTED_EDGE('',*,*,#329,.T.);
#424=ORIENTED_EDGE('',*,*,#330,.T.);
#425=ORIENTED_EDGE('',*,*,#331,.T.);
#426=ORIENTED_EDGE('',*,*,#332,.T.);
#427=ORIENTED_EDGE('',*,*,#333,.T.);
#428=ORIENTED_EDGE('',*,*,#334,.T.);
#429=ORIENTED_EDGE('',*,*,#335,.T.);
#430=ORIENTED_EDGE('',*,*,#336,.T.);
#431=ORIENTED_EDGE('',*,*,#337,.T.);
#432=ORIENTED_EDGE('',*,*,#338,.T.);
#433=ORIENTED_EDGE('',*,*,#339,.T.);
#434=ORIENTED_EDGE('',*,*,#340,.T.);
#435=ORIENTED_EDGE('',*,*,#341,.T.);
#436=ORIENTED_EDGE('',*,*,#342,.F.);
#437=ORIENTED_EDGE('',*,*,#320,.T.);
#438=ORIENTED_EDGE('',*,*,#343,.F.);
#439=ORIENTED_EDGE('',*,*,#344,.F.);
#440=ORIENTED_EDGE('',*,*,#345,.F.);
#441=ORIENTED_EDGE('',*,*,#346,.F.);
#442=ORIENTED_EDGE('',*,*,#347,.F.);
#443=ORIENTED_EDGE('',*,*,#348,.F.);
#444=ORIENTED_EDGE('',*,*,#349,.T.);
#445=ORIENTED_EDGE('',*,*,#350,.T.);
#446=ORIENTED_EDGE('',*,*,#351,.T.);
#447=ORIENTED_EDGE('',*,*,#352,.F.);
#448=ORIENTED_EDGE('',*,*,#353,.F.);
#449=ORIENTED_EDGE('',*,*,#354,.T.);
#450=ORIENTED_EDGE('',*,*,#355,.F.);
#451=ORIENTED_EDGE('',*,*,#319,.T.);
#452=ORIENTED_EDGE('',*,*,#356,.T.);
#453=ORIENTED_EDGE('',*,*,#357,.T.);
#454=ORIENTED_EDGE('',*,*,#343,.T.);
#455=ORIENTED_EDGE('',*,*,#358,.T.);
#456=ORIENTED_EDGE('',*,*,#359,.F.);
#457=ORIENTED_EDGE('',*,*,#360,.F.);
#458=ORIENTED_EDGE('',*,*,#341,.F.);
#459=ORIENTED_EDGE('',*,*,#324,.T.);
#460=ORIENTED_EDGE('',*,*,#361,.F.);
#461=ORIENTED_EDGE('',*,*,#362,.F.);
#462=ORIENTED_EDGE('',*,*,#363,.F.);
#463=ORIENTED_EDGE('',*,*,#364,.F.);
#464=ORIENTED_EDGE('',*,*,#365,.T.);
#465=ORIENTED_EDGE('',*,*,#366,.T.);
#466=ORIENTED_EDGE('',*,*,#367,.T.);
#467=ORIENTED_EDGE('',*,*,#368,.F.);
#468=ORIENTED_EDGE('',*,*,#369,.F.);
#469=ORIENTED_EDGE('',*,*,#370,.T.);
#470=ORIENTED_EDGE('',*,*,#371,.F.);
#471=ORIENTED_EDGE('',*,*,#372,.T.);
#472=ORIENTED_EDGE('',*,*,#356,.F.);
#473=ORIENTED_EDGE('',*,*,#322,.T.);
#474=ORIENTED_EDGE('',*,*,#373,.F.);
#475=ORIENTED_EDGE('',*,*,#359,.T.);
#476=ORIENTED_EDGE('',*,*,#374,.T.);
#477=ORIENTED_EDGE('',*,*,#375,.T.);
#478=ORIENTED_EDGE('',*,*,#376,.T.);
#479=ORIENTED_EDGE('',*,*,#377,.T.);
#480=ORIENTED_EDGE('',*,*,#378,.T.);
#481=ORIENTED_EDGE('',*,*,#379,.T.);
#482=ORIENTED_EDGE('',*,*,#380,.T.);
#483=ORIENTED_EDGE('',*,*,#381,.T.);
#484=ORIENTED_EDGE('',*,*,#382,.T.);
#485=ORIENTED_EDGE('',*,*,#383,.T.);
#486=ORIENTED_EDGE('',*,*,#384,.T.);
#487=ORIENTED_EDGE('',*,*,#385,.T.);
#488=ORIENTED_EDGE('',*,*,#386,.T.);
#489=ORIENTED_EDGE('',*,*,#387,.F.);
#490=ORIENTED_EDGE('',*,*,#358,.F.);
#491=ORIENTED_EDGE('',*,*,#340,.F.);
#492=ORIENTED_EDGE('',*,*,#388,.T.);
#493=ORIENTED_EDGE('',*,*,#374,.F.);
#494=ORIENTED_EDGE('',*,*,#327,.T.);
#495=ORIENTED_EDGE('',*,*,#325,.T.);
#496=ORIENTED_EDGE('',*,*,#387,.T.);
#497=ORIENTED_EDGE('',*,*,#389,.T.);
#498=ORIENTED_EDGE('',*,*,#389,.F.);
#499=ORIENTED_EDGE('',*,*,#386,.F.);
#500=ORIENTED_EDGE('',*,*,#390,.T.);
#501=ORIENTED_EDGE('',*,*,#328,.F.);
#502=ORIENTED_EDGE('',*,*,#373,.T.);
#503=ORIENTED_EDGE('',*,*,#321,.T.);
#504=ORIENTED_EDGE('',*,*,#342,.T.);
#505=ORIENTED_EDGE('',*,*,#360,.T.);
#506=ORIENTED_EDGE('',*,*,#391,.T.);
#507=ORIENTED_EDGE('',*,*,#349,.F.);
#508=ORIENTED_EDGE('',*,*,#392,.T.);
#509=ORIENTED_EDGE('',*,*,#367,.F.);
#510=ORIENTED_EDGE('',*,*,#353,.T.);
#511=ORIENTED_EDGE('',*,*,#393,.T.);
#512=ORIENTED_EDGE('',*,*,#363,.T.);
#513=ORIENTED_EDGE('',*,*,#394,.T.);
#514=ORIENTED_EDGE('',*,*,#393,.F.);
#515=ORIENTED_EDGE('',*,*,#352,.T.);
#516=ORIENTED_EDGE('',*,*,#395,.T.);
#517=ORIENTED_EDGE('',*,*,#364,.T.);
#518=ORIENTED_EDGE('',*,*,#371,.T.);
#519=ORIENTED_EDGE('',*,*,#396,.T.);
#520=ORIENTED_EDGE('',*,*,#345,.T.);
#521=ORIENTED_EDGE('',*,*,#397,.T.);
#522=ORIENTED_EDGE('',*,*,#396,.F.);
#523=ORIENTED_EDGE('',*,*,#370,.F.);
#524=ORIENTED_EDGE('',*,*,#398,.F.);
#525=ORIENTED_EDGE('',*,*,#346,.T.);
#526=ORIENTED_EDGE('',*,*,#368,.T.);
#527=ORIENTED_EDGE('',*,*,#392,.F.);
#528=ORIENTED_EDGE('',*,*,#348,.T.);
#529=ORIENTED_EDGE('',*,*,#399,.F.);
#530=ORIENTED_EDGE('',*,*,#369,.T.);
#531=ORIENTED_EDGE('',*,*,#399,.T.);
#532=ORIENTED_EDGE('',*,*,#347,.T.);
#533=ORIENTED_EDGE('',*,*,#398,.T.);
#534=ORIENTED_EDGE('',*,*,#366,.F.);
#535=ORIENTED_EDGE('',*,*,#400,.T.);
#536=ORIENTED_EDGE('',*,*,#350,.F.);
#537=ORIENTED_EDGE('',*,*,#391,.F.);
#538=ORIENTED_EDGE('',*,*,#365,.F.);
#539=ORIENTED_EDGE('',*,*,#395,.F.);
#540=ORIENTED_EDGE('',*,*,#351,.F.);
#541=ORIENTED_EDGE('',*,*,#400,.F.);
#542=ORIENTED_EDGE('',*,*,#323,.T.);
#543=ORIENTED_EDGE('',*,*,#355,.T.);
#544=ORIENTED_EDGE('',*,*,#401,.T.);
#545=ORIENTED_EDGE('',*,*,#361,.T.);
#546=ORIENTED_EDGE('',*,*,#402,.F.);
#547=ORIENTED_EDGE('',*,*,#376,.F.);
#548=ORIENTED_EDGE('',*,*,#403,.T.);
#549=ORIENTED_EDGE('',*,*,#338,.F.);
#550=ORIENTED_EDGE('',*,*,#404,.F.);
#551=ORIENTED_EDGE('',*,*,#332,.F.);
#552=ORIENTED_EDGE('',*,*,#405,.F.);
#553=ORIENTED_EDGE('',*,*,#382,.F.);
#554=ORIENTED_EDGE('',*,*,#406,.F.);
#555=ORIENTED_EDGE('',*,*,#378,.F.);
#556=ORIENTED_EDGE('',*,*,#407,.F.);
#557=ORIENTED_EDGE('',*,*,#336,.F.);
#558=ORIENTED_EDGE('',*,*,#408,.F.);
#559=ORIENTED_EDGE('',*,*,#384,.F.);
#560=ORIENTED_EDGE('',*,*,#409,.F.);
#561=ORIENTED_EDGE('',*,*,#330,.F.);
#562=ORIENTED_EDGE('',*,*,#388,.F.);
#563=ORIENTED_EDGE('',*,*,#339,.F.);
#564=ORIENTED_EDGE('',*,*,#403,.F.);
#565=ORIENTED_EDGE('',*,*,#375,.F.);
#566=ORIENTED_EDGE('',*,*,#410,.F.);
#567=ORIENTED_EDGE('',*,*,#334,.F.);
#568=ORIENTED_EDGE('',*,*,#411,.F.);
#569=ORIENTED_EDGE('',*,*,#380,.F.);
#570=ORIENTED_EDGE('',*,*,#411,.T.);
#571=ORIENTED_EDGE('',*,*,#333,.F.);
#572=ORIENTED_EDGE('',*,*,#404,.T.);
#573=ORIENTED_EDGE('',*,*,#381,.F.);
#574=ORIENTED_EDGE('',*,*,#405,.T.);
#575=ORIENTED_EDGE('',*,*,#331,.F.);
#576=ORIENTED_EDGE('',*,*,#409,.T.);
#577=ORIENTED_EDGE('',*,*,#383,.F.);
#578=ORIENTED_EDGE('',*,*,#408,.T.);
#579=ORIENTED_EDGE('',*,*,#329,.F.);
#580=ORIENTED_EDGE('',*,*,#390,.F.);
#581=ORIENTED_EDGE('',*,*,#385,.F.);
#582=ORIENTED_EDGE('',*,*,#407,.T.);
#583=ORIENTED_EDGE('',*,*,#377,.F.);
#584=ORIENTED_EDGE('',*,*,#402,.T.);
#585=ORIENTED_EDGE('',*,*,#337,.F.);
#586=ORIENTED_EDGE('',*,*,#410,.T.);
#587=ORIENTED_EDGE('',*,*,#379,.F.);
#588=ORIENTED_EDGE('',*,*,#406,.T.);
#589=ORIENTED_EDGE('',*,*,#335,.F.);
#590=ORIENTED_EDGE('',*,*,#397,.F.);
#591=ORIENTED_EDGE('',*,*,#344,.T.);
#592=ORIENTED_EDGE('',*,*,#357,.F.);
#593=ORIENTED_EDGE('',*,*,#372,.F.);
#594=ORIENTED_EDGE('',*,*,#394,.F.);
#595=ORIENTED_EDGE('',*,*,#362,.T.);
#596=ORIENTED_EDGE('',*,*,#401,.F.);
#597=ORIENTED_EDGE('',*,*,#354,.F.);
#598=PLANE('',#656);
#599=PLANE('',#657);
#600=PLANE('',#658);
#601=PLANE('',#671);
#602=PLANE('',#672);
#603=PLANE('',#682);
#604=PLANE('',#684);
#605=PLANE('',#686);
#606=PLANE('',#688);
#607=PLANE('',#690);
#608=PLANE('',#691);
#609=PLANE('',#692);
#610=PLANE('',#693);
#611=PLANE('',#694);
#612=PLANE('',#696);
#613=PLANE('',#697);
#614=PLANE('',#698);
#615=PLANE('',#699);
#616=PLANE('',#700);
#617=PLANE('',#701);
#618=PLANE('',#704);
#619=PLANE('',#707);
#620=PLANE('',#708);
#621=ADVANCED_FACE('',(#45),#598,.F.);
#622=ADVANCED_FACE('',(#46),#599,.F.);
#623=ADVANCED_FACE('',(#47),#600,.F.);
#624=ADVANCED_FACE('',(#48),#15,.T.);
#625=ADVANCED_FACE('',(#49),#601,.F.);
#626=ADVANCED_FACE('',(#50),#602,.F.);
#627=ADVANCED_FACE('',(#51),#603,.F.);
#628=ADVANCED_FACE('',(#52),#16,.F.);
#629=ADVANCED_FACE('',(#53),#604,.F.);
#630=ADVANCED_FACE('',(#54),#17,.F.);
#631=ADVANCED_FACE('',(#55),#605,.F.);
#632=ADVANCED_FACE('',(#56),#18,.T.);
#633=ADVANCED_FACE('',(#57),#606,.T.);
#634=ADVANCED_FACE('',(#58),#19,.T.);
#635=ADVANCED_FACE('',(#59),#607,.T.);
#636=ADVANCED_FACE('',(#60),#608,.T.);
#637=ADVANCED_FACE('',(#61),#609,.T.);
#638=ADVANCED_FACE('',(#62),#610,.F.);
#639=ADVANCED_FACE('',(#63),#611,.F.);
#640=ADVANCED_FACE('',(#64),#20,.T.);
#641=ADVANCED_FACE('',(#65),#612,.T.);
#642=ADVANCED_FACE('',(#66),#613,.T.);
#643=ADVANCED_FACE('',(#67),#614,.T.);
#644=ADVANCED_FACE('',(#68),#615,.T.);
#645=ADVANCED_FACE('',(#69),#616,.T.);
#646=ADVANCED_FACE('',(#70),#617,.T.);
#647=ADVANCED_FACE('',(#71),#21,.F.);
#648=ADVANCED_FACE('',(#72),#22,.F.);
#649=ADVANCED_FACE('',(#73),#618,.F.);
#650=ADVANCED_FACE('',(#74),#23,.F.);
#651=ADVANCED_FACE('',(#75),#24,.F.);
#652=ADVANCED_FACE('',(#76),#619,.F.);
#653=ADVANCED_FACE('',(#77),#620,.F.);
#654=CLOSED_SHELL('',(#621,#622,#623,#624,#625,#626,#627,#628,#629,#630,
#631,#632,#633,#634,#635,#636,#637,#638,#639,#640,#641,#642,#643,#644,#645,
#646,#647,#648,#649,#650,#651,#652,#653));
#655=AXIS2_PLACEMENT_3D('',#890,#709,#710);
#656=AXIS2_PLACEMENT_3D('',#891,#711,#712);
#657=AXIS2_PLACEMENT_3D('',#900,#717,#718);
#658=AXIS2_PLACEMENT_3D('',#909,#723,#724);
#659=AXIS2_PLACEMENT_3D('',#911,#725,#726);
#660=AXIS2_PLACEMENT_3D('',#919,#730,#731);
#661=AXIS2_PLACEMENT_3D('',#923,#733,#734);
#662=AXIS2_PLACEMENT_3D('',#927,#736,#737);
#663=AXIS2_PLACEMENT_3D('',#931,#739,#740);
#664=AXIS2_PLACEMENT_3D('',#940,#745,#746);
#665=AXIS2_PLACEMENT_3D('',#942,#747,#748);
#666=AXIS2_PLACEMENT_3D('',#946,#750,#751);
#667=AXIS2_PLACEMENT_3D('',#962,#759,#760);
#668=AXIS2_PLACEMENT_3D('',#965,#762,#763);
#669=AXIS2_PLACEMENT_3D('',#966,#764,#765);
#670=AXIS2_PLACEMENT_3D('',#968,#766,#767);
#671=AXIS2_PLACEMENT_3D('',#970,#769,#770);
#672=AXIS2_PLACEMENT_3D('',#976,#774,#775);
#673=AXIS2_PLACEMENT_3D('',#978,#776,#777);
#674=AXIS2_PLACEMENT_3D('',#982,#779,#780);
#675=AXIS2_PLACEMENT_3D('',#998,#788,#789);
#676=AXIS2_PLACEMENT_3D('',#1000,#791,#792);
#677=AXIS2_PLACEMENT_3D('',#1008,#796,#797);
#678=AXIS2_PLACEMENT_3D('',#1012,#799,#800);
#679=AXIS2_PLACEMENT_3D('',#1016,#802,#803);
#680=AXIS2_PLACEMENT_3D('',#1020,#805,#806);
#681=AXIS2_PLACEMENT_3D('',#1027,#810,#811);
#682=AXIS2_PLACEMENT_3D('',#1028,#812,#813);
#683=AXIS2_PLACEMENT_3D('',#1030,#815,#816);
#684=AXIS2_PLACEMENT_3D('',#1032,#818,#819);
#685=AXIS2_PLACEMENT_3D('',#1034,#821,#822);
#686=AXIS2_PLACEMENT_3D('',#1035,#823,#824);
#687=AXIS2_PLACEMENT_3D('',#1038,#827,#828);
#688=AXIS2_PLACEMENT_3D('',#1041,#831,#832);
#689=AXIS2_PLACEMENT_3D('',#1043,#834,#835);
#690=AXIS2_PLACEMENT_3D('',#1046,#838,#839);
#691=AXIS2_PLACEMENT_3D('',#1048,#841,#842);
#692=AXIS2_PLACEMENT_3D('',#1050,#844,#845);
#693=AXIS2_PLACEMENT_3D('',#1051,#846,#847);
#694=AXIS2_PLACEMENT_3D('',#1053,#849,#850);
#695=AXIS2_PLACEMENT_3D('',#1054,#851,#852);
#696=AXIS2_PLACEMENT_3D('',#1056,#854,#855);
#697=AXIS2_PLACEMENT_3D('',#1059,#858,#859);
#698=AXIS2_PLACEMENT_3D('',#1062,#862,#863);
#699=AXIS2_PLACEMENT_3D('',#1065,#866,#867);
#700=AXIS2_PLACEMENT_3D('',#1068,#870,#871);
#701=AXIS2_PLACEMENT_3D('',#1069,#872,#873);
#702=AXIS2_PLACEMENT_3D('',#1072,#876,#877);
#703=AXIS2_PLACEMENT_3D('',#1073,#878,#879);
#704=AXIS2_PLACEMENT_3D('',#1074,#880,#881);
#705=AXIS2_PLACEMENT_3D('',#1075,#882,#883);
#706=AXIS2_PLACEMENT_3D('',#1076,#884,#885);
#707=AXIS2_PLACEMENT_3D('',#1077,#886,#887);
#708=AXIS2_PLACEMENT_3D('',#1078,#888,#889);
#709=DIRECTION('axis',(0.,0.,1.));
#710=DIRECTION('refdir',(1.,0.,0.));
#711=DIRECTION('center_axis',(0.,0.,1.));
#712=DIRECTION('ref_axis',(0.,1.,0.));
#713=DIRECTION('',(0.,-1.,0.));
#714=DIRECTION('',(-1.,0.,0.));
#715=DIRECTION('',(0.,1.,0.));
#716=DIRECTION('',(1.,0.,0.));
#717=DIRECTION('center_axis',(0.,0.,-1.));
#718=DIRECTION('ref_axis',(0.,-1.,0.));
#719=DIRECTION('',(0.,1.,0.));
#720=DIRECTION('',(-1.,0.,0.));
#721=DIRECTION('',(0.,-1.,0.));
#722=DIRECTION('',(1.,0.,0.));
#723=DIRECTION('center_axis',(0.,-1.,0.));
#724=DIRECTION('ref_axis',(-1.,0.,0.));
#725=DIRECTION('center_axis',(0.,1.,0.));
#726=DIRECTION('ref_axis',(-0.707106781186551,0.,-0.707106781186544));
#727=DIRECTION('',(-1.,0.,0.));
#728=DIRECTION('',(-6.72417793667096E-17,0.,-1.));
#729=DIRECTION('',(1.,0.,0.));
#730=DIRECTION('center_axis',(0.,-1.,0.));
#731=DIRECTION('ref_axis',(1.,0.,0.));
#732=DIRECTION('',(0.,0.,1.));
#733=DIRECTION('center_axis',(0.,-1.,0.));
#734=DIRECTION('ref_axis',(1.,0.,0.));
#735=DIRECTION('',(0.,0.,1.));
#736=DIRECTION('center_axis',(0.,-1.,0.));
#737=DIRECTION('ref_axis',(1.,0.,0.));
#738=DIRECTION('',(0.,0.,1.));
#739=DIRECTION('center_axis',(0.,-1.,0.));
#740=DIRECTION('ref_axis',(1.,0.,0.));
#741=DIRECTION('',(0.,0.,1.));
#742=DIRECTION('',(-1.,0.,0.));
#743=DIRECTION('',(-6.72417793667096E-17,0.,-1.));
#744=DIRECTION('',(1.,0.,0.));
#745=DIRECTION('center_axis',(0.,-1.,0.));
#746=DIRECTION('ref_axis',(-0.707106781186544,0.,0.707106781186551));
#747=DIRECTION('center_axis',(0.,-1.,0.));
#748=DIRECTION('ref_axis',(-0.707106781186541,0.,0.707106781186554));
#749=DIRECTION('',(-1.,0.,0.));
#750=DIRECTION('center_axis',(0.,-1.,0.));
#751=DIRECTION('ref_axis',(0.707106781186541,0.,0.707106781186554));
#752=DIRECTION('',(0.,0.,-1.));
#753=DIRECTION('',(-1.,0.,0.));
#754=DIRECTION('',(0.316227766016858,0.,0.948683298050507));
#755=DIRECTION('',(1.,0.,0.));
#756=DIRECTION('',(0.316227766016858,0.,0.948683298050507));
#757=DIRECTION('',(-1.,0.,0.));
#758=DIRECTION('',(0.,0.,-1.));
#759=DIRECTION('center_axis',(0.,-1.,0.));
#760=DIRECTION('ref_axis',(0.707106781186541,0.,-0.707106781186554));
#761=DIRECTION('',(-1.,0.,0.));
#762=DIRECTION('center_axis',(0.,-1.,0.));
#763=DIRECTION('ref_axis',(-0.707106781186541,0.,-0.707106781186554));
#764=DIRECTION('center_axis',(0.,1.,0.));
#765=DIRECTION('ref_axis',(-0.707106781186541,0.,0.707106781186554));
#766=DIRECTION('center_axis',(0.,1.,0.));
#767=DIRECTION('ref_axis',(-0.707106781186541,0.,0.707106781186554));
#768=DIRECTION('',(0.,1.,0.));
#769=DIRECTION('center_axis',(0.,0.,1.));
#770=DIRECTION('ref_axis',(1.,0.,0.));
#771=DIRECTION('',(0.,-1.,0.));
#772=DIRECTION('',(-1.,0.,0.));
#773=DIRECTION('',(0.,-1.,0.));
#774=DIRECTION('center_axis',(0.,1.,0.));
#775=DIRECTION('ref_axis',(1.,0.,0.));
#776=DIRECTION('center_axis',(0.,1.,0.));
#777=DIRECTION('ref_axis',(-0.707106781186541,0.,-0.707106781186554));
#778=DIRECTION('',(-1.,0.,0.));
#779=DIRECTION('center_axis',(0.,1.,0.));
#780=DIRECTION('ref_axis',(0.707106781186541,0.,-0.707106781186554));
#781=DIRECTION('',(0.,0.,1.));
#782=DIRECTION('',(1.,0.,0.));
#783=DIRECTION('',(-0.316227766016858,0.,-0.948683298050507));
#784=DIRECTION('',(-1.,0.,0.));
#785=DIRECTION('',(0.316227766016858,0.,0.948683298050507));
#786=DIRECTION('',(-1.,0.,0.));
#787=DIRECTION('',(0.,0.,-1.));
#788=DIRECTION('center_axis',(0.,1.,0.));
#789=DIRECTION('ref_axis',(0.707106781186541,0.,0.707106781186554));
#790=DIRECTION('',(-1.,0.,0.));
#791=DIRECTION('center_axis',(0.,1.,0.));
#792=DIRECTION('ref_axis',(-0.707106781186544,0.,0.707106781186551));
#793=DIRECTION('',(6.72417793667096E-17,0.,1.));
#794=DIRECTION('',(1.,0.,0.));
#795=DIRECTION('',(0.,0.,-1.));
#796=DIRECTION('center_axis',(0.,1.,0.));
#797=DIRECTION('ref_axis',(1.,0.,0.));
#798=DIRECTION('',(0.,0.,-1.));
#799=DIRECTION('center_axis',(0.,1.,0.));
#800=DIRECTION('ref_axis',(1.,0.,0.));
#801=DIRECTION('',(0.,0.,-1.));
#802=DIRECTION('center_axis',(0.,1.,0.));
#803=DIRECTION('ref_axis',(1.,0.,0.));
#804=DIRECTION('',(0.,0.,-1.));
#805=DIRECTION('center_axis',(0.,1.,0.));
#806=DIRECTION('ref_axis',(1.,0.,0.));
#807=DIRECTION('',(-1.,0.,0.));
#808=DIRECTION('',(6.72417793667096E-17,0.,1.));
#809=DIRECTION('',(1.,0.,0.));
#810=DIRECTION('center_axis',(0.,-1.,0.));
#811=DIRECTION('ref_axis',(-0.707106781186551,0.,-0.707106781186544));
#812=DIRECTION('center_axis',(1.,0.,-6.72417793667096E-17));
#813=DIRECTION('ref_axis',(-6.72417793667096E-17,0.,-1.));
#814=DIRECTION('',(0.,1.,0.));
#815=DIRECTION('center_axis',(0.,-1.,0.));
#816=DIRECTION('ref_axis',(-0.707106781186551,0.,-0.707106781186544));
#817=DIRECTION('',(0.,1.,0.));
#818=DIRECTION('center_axis',(0.,0.,-1.));
#819=DIRECTION('ref_axis',(-1.,0.,0.));
#820=DIRECTION('',(0.,-1.,0.));
#821=DIRECTION('center_axis',(0.,1.,0.));
#822=DIRECTION('ref_axis',(-0.707106781186544,0.,0.707106781186551));
#823=DIRECTION('center_axis',(0.,0.,1.));
#824=DIRECTION('ref_axis',(1.,0.,0.));
#825=DIRECTION('',(0.,1.,0.));
#826=DIRECTION('',(0.,-1.,0.));
#827=DIRECTION('center_axis',(0.,1.,0.));
#828=DIRECTION('ref_axis',(0.707106781186541,0.,-0.707106781186554));
#829=DIRECTION('',(0.,-1.,0.));
#830=DIRECTION('',(0.,1.,0.));
#831=DIRECTION('center_axis',(1.,0.,0.));
#832=DIRECTION('ref_axis',(0.,0.,-1.));
#833=DIRECTION('',(0.,-1.,0.));
#834=DIRECTION('center_axis',(0.,-1.,0.));
#835=DIRECTION('ref_axis',(0.707106781186541,0.,0.707106781186554));
#836=DIRECTION('',(0.,1.,0.));
#837=DIRECTION('',(0.,-1.,0.));
#838=DIRECTION('center_axis',(1.,0.,0.));
#839=DIRECTION('ref_axis',(0.,0.,-1.));
#840=DIRECTION('',(0.,1.,0.));
#841=DIRECTION('center_axis',(-0.948683298050507,0.,0.316227766016858));
#842=DIRECTION('ref_axis',(0.316227766016858,0.,0.948683298050507));
#843=DIRECTION('',(0.,1.,0.));
#844=DIRECTION('center_axis',(0.,0.,-1.));
#845=DIRECTION('ref_axis',(0.,-1.,0.));
#846=DIRECTION('center_axis',(-0.948683298050507,0.,0.316227766016858));
#847=DIRECTION('ref_axis',(0.316227766016858,0.,0.948683298050507));
#848=DIRECTION('',(0.,-1.,0.));
#849=DIRECTION('center_axis',(0.,0.,-1.));
#850=DIRECTION('ref_axis',(0.,-1.,0.));
#851=DIRECTION('center_axis',(0.,-1.,0.));
#852=DIRECTION('ref_axis',(-0.707106781186541,0.,-0.707106781186554));
#853=DIRECTION('',(0.,-1.,0.));
#854=DIRECTION('center_axis',(-1.,0.,0.));
#855=DIRECTION('ref_axis',(0.,1.,0.));
#856=DIRECTION('',(0.,1.,-2.22044604925031E-16));
#857=DIRECTION('',(0.,1.,0.));
#858=DIRECTION('center_axis',(-1.,0.,0.));
#859=DIRECTION('ref_axis',(0.,1.,0.));
#860=DIRECTION('',(0.,-1.,2.22044604925031E-16));
#861=DIRECTION('',(0.,1.,-2.22044604925031E-16));
#862=DIRECTION('center_axis',(-1.,0.,0.));
#863=DIRECTION('ref_axis',(0.,1.,0.));
#864=DIRECTION('',(0.,1.,-2.22044604925031E-16));
#865=DIRECTION('',(0.,-1.,2.22044604925031E-16));
#866=DIRECTION('center_axis',(0.,0.,1.));
#867=DIRECTION('ref_axis',(0.,-1.,0.));
#868=DIRECTION('',(0.,-1.,0.));
#869=DIRECTION('',(0.,-1.,2.22044604925031E-16));
#870=DIRECTION('center_axis',(0.,0.,-1.));
#871=DIRECTION('ref_axis',(0.,1.,0.));
#872=DIRECTION('center_axis',(-1.,0.,0.));
#873=DIRECTION('ref_axis',(0.,1.,0.));
#874=DIRECTION('',(0.,-1.,2.22044604925031E-16));
#875=DIRECTION('',(0.,1.,-2.22044604925031E-16));
#876=DIRECTION('center_axis',(0.,1.,-2.22044604925031E-16));
#877=DIRECTION('ref_axis',(1.,0.,0.));
#878=DIRECTION('center_axis',(0.,1.,-2.22044604925031E-16));
#879=DIRECTION('ref_axis',(1.,0.,0.));
#880=DIRECTION('center_axis',(1.,0.,-6.72417793667096E-17));
#881=DIRECTION('ref_axis',(-6.72417793667096E-17,0.,-1.));
#882=DIRECTION('center_axis',(0.,1.,-2.22044604925031E-16));
#883=DIRECTION('ref_axis',(1.,0.,0.));
#884=DIRECTION('center_axis',(0.,1.,-2.22044604925031E-16));
#885=DIRECTION('ref_axis',(1.,0.,0.));
#886=DIRECTION('center_axis',(0.,0.,-1.));
#887=DIRECTION('ref_axis',(-1.,0.,0.));
#888=DIRECTION('center_axis',(0.,0.,1.));
#889=DIRECTION('ref_axis',(1.,0.,0.));
#890=CARTESIAN_POINT('',(0.,0.,0.));
#891=CARTESIAN_POINT('Origin',(-158.026170381379,80.0000011920929,449.099974892692));
#892=CARTESIAN_POINT('',(-159.725337521612,87.0000011920929,449.099974892692));
#893=CARTESIAN_POINT('',(-159.725337521612,80.0000011920929,449.099974892692));
#894=CARTESIAN_POINT('',(-159.725337521612,83.5000011920929,449.099974892692));
#895=CARTESIAN_POINT('',(-158.026170381379,87.0000011920929,449.099974892692));
#896=CARTESIAN_POINT('',(-153.126170381379,87.0000011920929,449.099974892692));
#897=CARTESIAN_POINT('',(-158.026170381379,80.0000011920929,449.099974892692));
#898=CARTESIAN_POINT('',(-158.026170381379,79.,449.099974892692));
#899=CARTESIAN_POINT('',(-153.126170381379,80.0000011920929,449.099974892692));
#900=CARTESIAN_POINT('Origin',(-158.026170381379,87.0000011920929,417.899974892692));
#901=CARTESIAN_POINT('',(-159.725336458553,80.0000011920929,417.899974892692));
#902=CARTESIAN_POINT('',(-159.725336458553,87.0000011920929,417.899974892692));
#903=CARTESIAN_POINT('',(-159.725336458553,83.5000011920929,417.899974892692));
#904=CARTESIAN_POINT('',(-158.026170381379,80.0000011920929,417.899974892692));
#905=CARTESIAN_POINT('',(-153.126170381379,80.0000011920929,417.899974892692));
#906=CARTESIAN_POINT('',(-158.026170381379,87.0000011920929,417.899974892692));
#907=CARTESIAN_POINT('',(-158.026170381379,79.,417.899974892692));
#908=CARTESIAN_POINT('',(-153.126170381379,87.0000011920929,417.899974892692));
#909=CARTESIAN_POINT('Origin',(-148.226170381379,87.0000011920929,433.500006780028));
#910=CARTESIAN_POINT('',(-153.926170381379,87.0000011920929,413.799974892692));
#911=CARTESIAN_POINT('Origin',(-153.926170381379,87.0000011920929,417.899974892692));
#912=CARTESIAN_POINT('',(-152.726170381379,87.0000011920929,413.799974892692));
#913=CARTESIAN_POINT('',(-150.726170381379,87.0000011920929,413.799974892692));
#914=CARTESIAN_POINT('',(-152.726170381379,87.0000011920929,416.500071018219));
#915=CARTESIAN_POINT('',(-152.726170381379,87.0000011920929,443.24999083636));
#916=CARTESIAN_POINT('',(-148.749874804547,87.0000011920929,416.500071018219));
#917=CARTESIAN_POINT('',(-150.103272592963,87.0000011920929,416.500071018219));
#918=CARTESIAN_POINT('',(-148.749874804547,87.0000011920929,422.499881241284));
#919=CARTESIAN_POINT('Origin',(-148.726170381379,87.0000011920929,419.499974892692));
#920=CARTESIAN_POINT('',(-148.749874804547,87.0000011920929,424.5000685441));
#921=CARTESIAN_POINT('',(-148.749874804547,87.0000011920929,433.689288899123));
#922=CARTESIAN_POINT('',(-148.749874804547,87.0000011920929,430.499881241284));
#923=CARTESIAN_POINT('Origin',(-148.726170381379,87.0000011920929,427.499974892692));
#924=CARTESIAN_POINT('',(-148.749874804547,87.0000011920929,434.750049813398));
#925=CARTESIAN_POINT('',(-148.749874804547,87.0000011920929,433.689288899123));
#926=CARTESIAN_POINT('',(-148.749874804547,87.0000011920929,442.249899971987));
#927=CARTESIAN_POINT('Origin',(-148.726170381379,87.0000011920929,438.499974892692));
#928=CARTESIAN_POINT('',(-148.749874804547,87.0000011920929,443.750049813398));
#929=CARTESIAN_POINT('',(-148.749874804547,87.0000011920929,433.689288899123));
#930=CARTESIAN_POINT('',(-148.749874804547,87.0000011920929,451.249899971987));
#931=CARTESIAN_POINT('Origin',(-148.726170381379,87.0000011920929,447.499974892692));
#932=CARTESIAN_POINT('',(-148.749874804547,87.0000011920929,451.257071018219));
#933=CARTESIAN_POINT('',(-148.749874804547,87.0000011920929,433.689288899123));
#934=CARTESIAN_POINT('',(-150.726170381379,87.0000011920929,451.257071018219));
#935=CARTESIAN_POINT('',(-150.103272592963,87.0000011920929,451.257071018219));
#936=CARTESIAN_POINT('',(-150.726170381379,87.0000011920929,453.199974892692));
#937=CARTESIAN_POINT('',(-150.726170381379,87.0000011920929,443.24999083636));
#938=CARTESIAN_POINT('',(-153.926170381379,87.0000011920929,453.199974892692));
#939=CARTESIAN_POINT('',(-150.976170381379,87.0000011920929,453.199974892692));
#940=CARTESIAN_POINT('Origin',(-153.926170381379,87.0000011920929,449.099974892692));
#941=CARTESIAN_POINT('',(-153.726170381379,87.0000011920929,455.000006780028));
#942=CARTESIAN_POINT('Origin',(-153.726170381379,87.0000011920929,449.000006780028));
#943=CARTESIAN_POINT('',(-145.226170381379,87.0000011920929,455.000006780028));
#944=CARTESIAN_POINT('',(-148.226170381379,87.0000011920929,455.000006780028));
#945=CARTESIAN_POINT('',(-143.226170381379,87.0000011920929,453.000006780028));
#946=CARTESIAN_POINT('Origin',(-145.226170381379,87.0000011920929,453.000006780028));
#947=CARTESIAN_POINT('',(-143.226170381379,87.0000011920929,451.599974892692));
#948=CARTESIAN_POINT('',(-143.226170381379,87.0000011920929,433.500006780028));
#949=CARTESIAN_POINT('',(-145.361427792707,87.0000011920929,451.599974892692));
#950=CARTESIAN_POINT('',(-146.169670381379,87.0000011920929,451.599974892692));
#951=CARTESIAN_POINT('',(-144.828094459374,87.0000011920929,453.199974892692));
#952=CARTESIAN_POINT('',(-145.029102051574,87.0000011920929,452.596952116091));
#953=CARTESIAN_POINT('',(-144.880799087043,87.0000011920929,453.199974892692));
#954=CARTESIAN_POINT('',(-150.976170381379,87.0000011920929,453.199974892692));
#955=CARTESIAN_POINT('',(-145.430799087043,87.0000011920929,451.549974892692));
#956=CARTESIAN_POINT('',(-148.164031433377,87.0000011920929,443.350277853693));
#957=CARTESIAN_POINT('',(-143.226170381379,87.0000011920929,451.549974892692));
#958=CARTESIAN_POINT('',(-146.294670381379,87.0000011920929,451.549974892692));
#959=CARTESIAN_POINT('',(-143.226170381379,87.0000011920929,414.000006780028));
#960=CARTESIAN_POINT('',(-143.226170381379,87.0000011920929,433.500006780028));
#961=CARTESIAN_POINT('',(-145.226170381379,87.0000011920929,412.000006780028));
#962=CARTESIAN_POINT('Origin',(-145.226170381379,87.0000011920929,414.000006780028));
#963=CARTESIAN_POINT('',(-153.726170381379,87.0000011920929,412.000006780028));
#964=CARTESIAN_POINT('',(-148.226170381379,87.0000011920929,412.000006780028));
#965=CARTESIAN_POINT('Origin',(-153.726170381379,87.0000011920929,418.000006780028));
#966=CARTESIAN_POINT('Origin',(-153.726170381379,83.5000011920929,449.000006780028));
#967=CARTESIAN_POINT('',(-153.726170381379,80.0000011920929,455.000006780028));
#968=CARTESIAN_POINT('Origin',(-153.726170381379,80.0000011920929,449.000006780028));
#969=CARTESIAN_POINT('',(-153.726170381379,83.5000011920929,455.000006780028));
#970=CARTESIAN_POINT('Origin',(-153.726170381379,79.,453.199974892692));
#971=CARTESIAN_POINT('',(-150.726170381379,80.0000011920929,453.199974892692));
#972=CARTESIAN_POINT('',(-150.726170381379,81.0000005960464,453.199974892692));
#973=CARTESIAN_POINT('',(-153.926170381379,80.0000011920929,453.199974892692));
#974=CARTESIAN_POINT('',(-150.976170381379,80.0000011920929,453.199974892692));
#975=CARTESIAN_POINT('',(-153.926170381379,79.,453.199974892692));
#976=CARTESIAN_POINT('Origin',(-148.226170381379,80.0000011920929,433.500006780028));
#977=CARTESIAN_POINT('',(-153.726170381379,80.0000011920929,412.000006780028));
#978=CARTESIAN_POINT('Origin',(-153.726170381379,80.0000011920929,418.000006780028));
#979=CARTESIAN_POINT('',(-145.226170381379,80.0000011920929,412.000006780028));
#980=CARTESIAN_POINT('',(-148.226170381379,80.0000011920929,412.000006780028));
#981=CARTESIAN_POINT('',(-143.226170381379,80.0000011920929,414.000006780028));
#982=CARTESIAN_POINT('Origin',(-145.226170381379,80.0000011920929,414.000006780028));
#983=CARTESIAN_POINT('',(-143.226170381379,80.0000011920929,451.549974892692));
#984=CARTESIAN_POINT('',(-143.226170381379,80.0000011920929,433.500006780028));
#985=CARTESIAN_POINT('',(-145.430799087043,80.0000011920929,451.549974892692));
#986=CARTESIAN_POINT('',(-146.294670381379,80.0000011920929,451.549974892692));
#987=CARTESIAN_POINT('',(-144.880799087043,80.0000011920929,453.199974892692));
#988=CARTESIAN_POINT('',(-148.164031433377,80.0000011920929,443.350277853693));
#989=CARTESIAN_POINT('',(-144.828094459374,80.0000011920929,453.199974892692));
#990=CARTESIAN_POINT('',(-150.976170381379,80.0000011920929,453.199974892692));
#991=CARTESIAN_POINT('',(-145.361427792707,80.0000011920929,451.599974892692));
#992=CARTESIAN_POINT('',(-145.029102051574,80.0000011920929,452.596952116091));
#993=CARTESIAN_POINT('',(-143.226170381379,80.0000011920929,451.599974892692));
#994=CARTESIAN_POINT('',(-146.169670381379,80.0000011920929,451.599974892692));
#995=CARTESIAN_POINT('',(-143.226170381379,80.0000011920929,453.000006780028));
#996=CARTESIAN_POINT('',(-143.226170381379,80.0000011920929,453.999974892692));
#997=CARTESIAN_POINT('',(-145.226170381379,80.0000011920929,455.000006780028));
#998=CARTESIAN_POINT('Origin',(-145.226170381379,80.0000011920929,453.000006780028));
#999=CARTESIAN_POINT('',(-148.226170381379,80.0000011920929,455.000006780028));
#1000=CARTESIAN_POINT('Origin',(-153.926170381379,80.0000011920929,449.099974892692));
#1001=CARTESIAN_POINT('',(-150.726170381379,80.0000011920929,451.257071018219));
#1002=CARTESIAN_POINT('',(-150.726170381379,80.0000011920929,443.24999083636));
#1003=CARTESIAN_POINT('',(-148.749874804547,80.0000011920929,451.257071018219));
#1004=CARTESIAN_POINT('',(-150.103272592963,80.0000011920929,451.257071018219));
#1005=CARTESIAN_POINT('',(-148.749874804547,80.0000011920929,451.249899971987));
#1006=CARTESIAN_POINT('',(-148.749874804547,80.0000011920929,433.689288899123));
#1007=CARTESIAN_POINT('',(-148.749874804547,80.0000011920929,443.750049813398));
#1008=CARTESIAN_POINT('Origin',(-148.726170381379,80.0000011920929,447.499974892692));
#1009=CARTESIAN_POINT('',(-148.749874804547,80.0000011920929,442.249899971987));
#1010=CARTESIAN_POINT('',(-148.749874804547,80.0000011920929,433.689288899123));
#1011=CARTESIAN_POINT('',(-148.749874804547,80.0000011920929,434.750049813398));
#1012=CARTESIAN_POINT('Origin',(-148.726170381379,80.0000011920929,438.499974892692));
#1013=CARTESIAN_POINT('',(-148.749874804547,80.0000011920929,430.499881241284));
#1014=CARTESIAN_POINT('',(-148.749874804547,80.0000011920929,433.689288899123));
#1015=CARTESIAN_POINT('',(-148.749874804547,80.0000011920929,424.5000685441));
#1016=CARTESIAN_POINT('Origin',(-148.726170381379,80.0000011920929,427.499974892692));
#1017=CARTESIAN_POINT('',(-148.749874804547,80.0000011920929,422.499881241284));
#1018=CARTESIAN_POINT('',(-148.749874804547,80.0000011920929,433.689288899123));
#1019=CARTESIAN_POINT('',(-148.749874804547,80.0000011920929,416.500071018219));
#1020=CARTESIAN_POINT('Origin',(-148.726170381379,80.0000011920929,419.499974892692));
#1021=CARTESIAN_POINT('',(-152.726170381379,80.0000011920929,416.500071018219));
#1022=CARTESIAN_POINT('',(-150.103272592963,80.0000011920929,416.500071018219));
#1023=CARTESIAN_POINT('',(-152.726170381379,80.0000011920929,413.799974892692));
#1024=CARTESIAN_POINT('',(-152.726170381379,80.0000011920929,443.24999083636));
#1025=CARTESIAN_POINT('',(-153.926170381379,80.0000011920929,413.799974892692));
#1026=CARTESIAN_POINT('',(-150.726170381379,80.0000011920929,413.799974892692));
#1027=CARTESIAN_POINT('Origin',(-153.926170381379,80.0000011920929,417.899974892692));
#1028=CARTESIAN_POINT('Origin',(-150.726170381379,79.,452.999974892692));
#1029=CARTESIAN_POINT('',(-150.726170381379,81.2500005960464,451.257071018219));
#1030=CARTESIAN_POINT('Origin',(-153.926170381379,79.,417.899974892692));
#1031=CARTESIAN_POINT('',(-153.926170381379,79.,413.799974892692));
#1032=CARTESIAN_POINT('Origin',(-153.226170381379,79.,413.799974892692));
#1033=CARTESIAN_POINT('',(-152.726170381379,79.,413.799974892692));
#1034=CARTESIAN_POINT('Origin',(-153.926170381379,79.,449.099974892692));
#1035=CARTESIAN_POINT('Origin',(-153.726170381379,79.,453.199974892692));
#1036=CARTESIAN_POINT('',(-144.880799087043,83.2500011920929,453.199974892692));
#1037=CARTESIAN_POINT('',(-144.828094459374,81.2500005960464,453.199974892692));
#1038=CARTESIAN_POINT('Origin',(-145.226170381379,83.5000011920929,414.000006780028));
#1039=CARTESIAN_POINT('',(-143.226170381379,83.5000011920929,414.000006780028));
#1040=CARTESIAN_POINT('',(-145.226170381379,83.5000011920929,412.000006780028));
#1041=CARTESIAN_POINT('Origin',(-143.226170381379,83.5000011920929,433.500006780028));
#1042=CARTESIAN_POINT('',(-143.226170381379,83.5000011920929,451.549974892692));
#1043=CARTESIAN_POINT('Origin',(-145.226170381379,83.5000011920929,453.000006780028));
#1044=CARTESIAN_POINT('',(-143.226170381379,83.5000011920929,453.000006780028));
#1045=CARTESIAN_POINT('',(-145.226170381379,83.5000011920929,455.000006780028));
#1046=CARTESIAN_POINT('Origin',(-143.226170381379,83.5000011920929,433.500006780028));
#1047=CARTESIAN_POINT('',(-143.226170381379,83.2500011920929,451.599974892692));
#1048=CARTESIAN_POINT('Origin',(-145.155302051574,83.5000011920929,452.218352116091));
#1049=CARTESIAN_POINT('',(-145.361427792707,83.5000011920929,451.599974892692));
#1050=CARTESIAN_POINT('Origin',(-144.363170381379,83.5000011920929,451.599974892692));
#1051=CARTESIAN_POINT('Origin',(-145.202736216477,83.5000011920929,452.234163504391));
#1052=CARTESIAN_POINT('',(-145.430799087043,83.5000011920929,451.549974892692));
#1053=CARTESIAN_POINT('Origin',(-144.363170381379,83.5000011920929,451.549974892692));
#1054=CARTESIAN_POINT('Origin',(-153.726170381379,83.5000011920929,418.000006780028));
#1055=CARTESIAN_POINT('',(-153.726170381379,83.5000011920929,412.000006780028));
#1056=CARTESIAN_POINT('Origin',(-148.749874804547,83.5000011920929,433.878571018219));
#1057=CARTESIAN_POINT('',(-148.749874804547,85.0000011920929,451.249899971987));
#1058=CARTESIAN_POINT('',(-148.749874804547,83.5000011920929,451.257071018219));
#1059=CARTESIAN_POINT('Origin',(-148.749874804547,83.5000011920929,433.878571018219));
#1060=CARTESIAN_POINT('',(-148.749874804547,85.0000011920929,424.5000685441));
#1061=CARTESIAN_POINT('',(-148.749874804547,85.0000011920929,422.499881241284));
#1062=CARTESIAN_POINT('Origin',(-148.749874804547,83.5000011920929,433.878571018219));
#1063=CARTESIAN_POINT('',(-148.749874804547,85.0000011920929,442.249899971987));
#1064=CARTESIAN_POINT('',(-148.749874804547,85.0000011920929,443.750049813398));
#1065=CARTESIAN_POINT('Origin',(-151.980374804547,83.5000011920929,416.500071018219));
#1066=CARTESIAN_POINT('',(-152.726170381379,81.2500005960464,416.500071018219));
#1067=CARTESIAN_POINT('',(-148.749874804547,85.0000011920929,416.5000685441));
#1068=CARTESIAN_POINT('Origin',(-151.980374804547,83.5000011920929,451.257071018219));
#1069=CARTESIAN_POINT('Origin',(-148.749874804547,83.5000011920929,433.878571018219));
#1070=CARTESIAN_POINT('',(-148.749874804547,85.0000011920929,434.750049813398));
#1071=CARTESIAN_POINT('',(-148.749874804547,85.0000011920929,430.499881241284));
#1072=CARTESIAN_POINT('Origin',(-148.726170381379,85.0000011920929,427.499974892692));
#1073=CARTESIAN_POINT('Origin',(-148.726170381379,85.0000011920929,419.499974892692));
#1074=CARTESIAN_POINT('Origin',(-152.726170381379,79.,452.999974892692));
#1075=CARTESIAN_POINT('Origin',(-148.726170381379,85.0000011920929,447.499974892692));
#1076=CARTESIAN_POINT('Origin',(-148.726170381379,85.0000011920929,438.499974892692));
#1077=CARTESIAN_POINT('Origin',(-148.226170381379,83.5000011920929,455.000006780028));
#1078=CARTESIAN_POINT('Origin',(-148.226170381379,83.5000011920929,412.000006780028));
#1079=UNCERTAINTY_MEASURE_WITH_UNIT(LENGTH_MEASURE(0.01),#1083,
'DISTANCE_ACCURACY_VALUE',
'Maximum model space distance between geometric entities at asserted c
onnectivities');
#1080=UNCERTAINTY_MEASURE_WITH_UNIT(LENGTH_MEASURE(0.01),#1083,
'DISTANCE_ACCURACY_VALUE',
'Maximum model space distance between geometric entities at asserted c
onnectivities');
#1081=(
GEOMETRIC_REPRESENTATION_CONTEXT(3)
GLOBAL_UNCERTAINTY_ASSIGNED_CONTEXT((#1079))
GLOBAL_UNIT_ASSIGNED_CONTEXT((#1083,#1084,#1085))
REPRESENTATION_CONTEXT('','3D')
);
#1082=(
GEOMETRIC_REPRESENTATION_CONTEXT(3)
GLOBAL_UNCERTAINTY_ASSIGNED_CONTEXT((#1080))
GLOBAL_UNIT_ASSIGNED_CONTEXT((#1083,#1084,#1085))
REPRESENTATION_CONTEXT('','3D')
);
#1083=(
LENGTH_UNIT()
NAMED_UNIT(*)
SI_UNIT(.MILLI.,.METRE.)
);
#1084=(
NAMED_UNIT(*)
PLANE_ANGLE_UNIT()
SI_UNIT($,.RADIAN.)
);
#1085=(
NAMED_UNIT(*)
SI_UNIT($,.STERADIAN.)
SOLID_ANGLE_UNIT()
);
#1086=SHAPE_DEFINITION_REPRESENTATION(#1087,#1088);
#1087=PRODUCT_DEFINITION_SHAPE('',$,#1090);
#1088=SHAPE_REPRESENTATION('',(#655),#1081);
#1089=PRODUCT_DEFINITION_CONTEXT('part definition',#1094,'design');
#1090=PRODUCT_DEFINITION('HTD3M-270t-20t-1068mm-Chassis-V3',
'HTD3M-270t-20t-1068mm-Chassis-V3 v70',#1091,#1089);
#1091=PRODUCT_DEFINITION_FORMATION('',$,#1096);
#1092=PRODUCT_RELATED_PRODUCT_CATEGORY(
'HTD3M-270t-20t-1068mm-Chassis-V3 v70',
'HTD3M-270t-20t-1068mm-Chassis-V3 v70',(#1096));
#1093=APPLICATION_PROTOCOL_DEFINITION('international standard',
'automotive_design',2009,#1094);
#1094=APPLICATION_CONTEXT(
'Core Data for Automotive Mechanical Design Process');
#1095=PRODUCT_CONTEXT('part definition',#1094,'mechanical');
#1096=PRODUCT('HTD3M-270t-20t-1068mm-Chassis-V3',
'HTD3M-270t-20t-1068mm-Chassis-V3 v70',$,(#1095));
#1097=PRESENTATION_STYLE_ASSIGNMENT((#1105));
#1098=PRESENTATION_STYLE_ASSIGNMENT((#1106));
#1099=PRESENTATION_STYLE_ASSIGNMENT((#1107));
#1100=PRESENTATION_STYLE_ASSIGNMENT((#1108));
#1101=PRESENTATION_STYLE_ASSIGNMENT((#1109));
#1102=PRESENTATION_STYLE_ASSIGNMENT((#1110));
#1103=PRESENTATION_STYLE_ASSIGNMENT((#1111));
#1104=PRESENTATION_STYLE_ASSIGNMENT((#1112));
#1105=SURFACE_STYLE_USAGE(.BOTH.,#1113);
#1106=SURFACE_STYLE_USAGE(.BOTH.,#1114);
#1107=SURFACE_STYLE_USAGE(.BOTH.,#1115);
#1108=SURFACE_STYLE_USAGE(.BOTH.,#1116);
#1109=SURFACE_STYLE_USAGE(.BOTH.,#1117);
#1110=SURFACE_STYLE_USAGE(.BOTH.,#1118);
#1111=SURFACE_STYLE_USAGE(.BOTH.,#1119);
#1112=SURFACE_STYLE_USAGE(.BOTH.,#1120);
#1113=SURFACE_SIDE_STYLE('',(#1121));
#1114=SURFACE_SIDE_STYLE('',(#1122));
#1115=SURFACE_SIDE_STYLE('',(#1123));
#1116=SURFACE_SIDE_STYLE('',(#1124));
#1117=SURFACE_SIDE_STYLE('',(#1125));
#1118=SURFACE_SIDE_STYLE('',(#1126));
#1119=SURFACE_SIDE_STYLE('',(#1127));
#1120=SURFACE_SIDE_STYLE('',(#1128));
#1121=SURFACE_STYLE_FILL_AREA(#1129);
#1122=SURFACE_STYLE_FILL_AREA(#1130);
#1123=SURFACE_STYLE_FILL_AREA(#1131);
#1124=SURFACE_STYLE_FILL_AREA(#1132);
#1125=SURFACE_STYLE_FILL_AREA(#1133);
#1126=SURFACE_STYLE_FILL_AREA(#1134);
#1127=SURFACE_STYLE_FILL_AREA(#1135);
#1128=SURFACE_STYLE_FILL_AREA(#1136);
#1129=FILL_AREA_STYLE('Opaque(175,143,175)',(#1137));
#1130=FILL_AREA_STYLE('Opaque(159,175,143)',(#1138));
#1131=FILL_AREA_STYLE('Opaque(143,143,175)',(#1139));
#1132=FILL_AREA_STYLE('Opaque(175,159,143)',(#1140));
#1133=FILL_AREA_STYLE('Opaque(143,175,175)',(#1141));
#1134=FILL_AREA_STYLE('Steel - Satin',(#1142));
#1135=FILL_AREA_STYLE('Plastic - Translucent Matte (Red)',(#1143));
#1136=FILL_AREA_STYLE('Steel - Satin',(#1144));
#1137=FILL_AREA_STYLE_COLOUR('Opaque(175,143,175)',#1145);
#1138=FILL_AREA_STYLE_COLOUR('Opaque(159,175,143)',#1146);
#1139=FILL_AREA_STYLE_COLOUR('Opaque(143,143,175)',#1147);
#1140=FILL_AREA_STYLE_COLOUR('Opaque(175,159,143)',#1148);
#1141=FILL_AREA_STYLE_COLOUR('Opaque(143,175,175)',#1149);
#1142=FILL_AREA_STYLE_COLOUR('Steel - Satin',#1150);
#1143=FILL_AREA_STYLE_COLOUR('Plastic - Translucent Matte (Red)',#1151);
#1144=FILL_AREA_STYLE_COLOUR('Steel - Satin',#1152);
#1145=COLOUR_RGB('Opaque(175,143,175)',0.686274509803922,0.56078431372549,
0.686274509803922);
#1146=COLOUR_RGB('Opaque(159,175,143)',0.623529411764706,0.686274509803922,
0.56078431372549);
#1147=COLOUR_RGB('Opaque(143,143,175)',0.56078431372549,0.56078431372549,
0.686274509803922);
#1148=COLOUR_RGB('Opaque(175,159,143)',0.686274509803922,0.623529411764706,
0.56078431372549);
#1149=COLOUR_RGB('Opaque(143,175,175)',0.56078431372549,0.686274509803922,
0.686274509803922);
#1150=COLOUR_RGB('Steel - Satin',0.627450980392157,0.627450980392157,0.627450980392157);
#1151=COLOUR_RGB('Plastic - Translucent Matte (Red)',0.768627450980392,
0.207843137254902,0.152941176470588);
#1152=COLOUR_RGB('Steel - Satin',0.552941176470588,0.227450980392157,0.227450980392157);
ENDSEC;
END-ISO-10303-21;
