ISO-10303-21;
HEADER;
/* Generated by software containing ST-Developer
 * from STEP Tools, Inc. (www.steptools.com) 
 */

FILE_DESCRIPTION(
/* description */ (''),
/* implementation_level */ '2;1');

FILE_NAME(
/* name */ 'Cablechain-Support-Part-2.step',
/* time_stamp */ '2026-04-07T14:06:51+02:00',
/* author */ (''),
/* organization */ (''),
/* preprocessor_version */ 'ST-DEVELOPER v20.1',
/* originating_system */ 'Autodesk Translation Framework v14.24.0.0',
/* authorisation */ '');

FILE_SCHEMA (('AUTOMOTIVE_DESIGN { 1 0 10303 214 3 1 1 }'));
ENDSEC;

DATA;
#10=MECHANICAL_DESIGN_GEOMETRIC_PRESENTATION_REPRESENTATION('',(#13),#875);
#11=SHAPE_REPRESENTATION_RELATIONSHIP('SRR','None',#881,#12);
#12=ADVANCED_BREP_SHAPE_REPRESENTATION('',(#14),#874);
#13=STYLED_ITEM('',(#896),#14);
#14=MANIFOLD_SOLID_BREP('Cablechain-Support-Part-2',#519);
#15=SPHERICAL_SURFACE('',#529,2.);
#16=SPHERICAL_SURFACE('',#542,2.);
#17=SPHERICAL_SURFACE('',#551,2.);
#18=SPHERICAL_SURFACE('',#557,2.);
#19=CIRCLE('',#524,2.);
#20=CIRCLE('',#525,2.);
#21=CIRCLE('',#527,2.00000000000003);
#22=CIRCLE('',#528,2.);
#23=CIRCLE('',#530,2.00000000000001);
#24=CIRCLE('',#533,2.00000000000003);
#25=CIRCLE('',#537,2.);
#26=CIRCLE('',#538,2.);
#27=CIRCLE('',#540,1.99999999999998);
#28=CIRCLE('',#541,2.);
#29=CIRCLE('',#543,2.00000000000001);
#30=CIRCLE('',#546,2.);
#31=CIRCLE('',#550,2.);
#32=CIRCLE('',#552,2.00000000000003);
#33=CIRCLE('',#553,1.99999999999996);
#34=CIRCLE('',#555,2.);
#35=CIRCLE('',#558,1.99999999999996);
#36=CIRCLE('',#559,2.);
#37=CIRCLE('',#561,2.);
#38=CIRCLE('',#563,2.);
#39=CYLINDRICAL_SURFACE('',#523,2.);
#40=CYLINDRICAL_SURFACE('',#526,2.);
#41=CYLINDRICAL_SURFACE('',#532,2.);
#42=CYLINDRICAL_SURFACE('',#536,2.);
#43=CYLINDRICAL_SURFACE('',#539,2.);
#44=CYLINDRICAL_SURFACE('',#545,2.);
#45=CYLINDRICAL_SURFACE('',#554,2.);
#46=CYLINDRICAL_SURFACE('',#556,2.);
#47=CYLINDRICAL_SURFACE('',#560,2.);
#48=CYLINDRICAL_SURFACE('',#562,2.);
#49=FACE_OUTER_BOUND('',#79,.T.);
#50=FACE_OUTER_BOUND('',#80,.T.);
#51=FACE_OUTER_BOUND('',#81,.T.);
#52=FACE_OUTER_BOUND('',#82,.T.);
#53=FACE_OUTER_BOUND('',#83,.T.);
#54=FACE_OUTER_BOUND('',#84,.T.);
#55=FACE_OUTER_BOUND('',#85,.T.);
#56=FACE_OUTER_BOUND('',#86,.T.);
#57=FACE_OUTER_BOUND('',#87,.T.);
#58=FACE_OUTER_BOUND('',#88,.T.);
#59=FACE_OUTER_BOUND('',#89,.T.);
#60=FACE_OUTER_BOUND('',#90,.T.);
#61=FACE_OUTER_BOUND('',#91,.T.);
#62=FACE_OUTER_BOUND('',#92,.T.);
#63=FACE_OUTER_BOUND('',#93,.T.);
#64=FACE_OUTER_BOUND('',#94,.T.);
#65=FACE_OUTER_BOUND('',#95,.T.);
#66=FACE_OUTER_BOUND('',#96,.T.);
#67=FACE_OUTER_BOUND('',#97,.T.);
#68=FACE_OUTER_BOUND('',#98,.T.);
#69=FACE_OUTER_BOUND('',#99,.T.);
#70=FACE_OUTER_BOUND('',#100,.T.);
#71=FACE_OUTER_BOUND('',#101,.T.);
#72=FACE_OUTER_BOUND('',#102,.T.);
#73=FACE_OUTER_BOUND('',#103,.T.);
#74=FACE_OUTER_BOUND('',#104,.T.);
#75=FACE_OUTER_BOUND('',#105,.T.);
#76=FACE_OUTER_BOUND('',#106,.T.);
#77=FACE_OUTER_BOUND('',#107,.T.);
#78=FACE_OUTER_BOUND('',#108,.T.);
#79=EDGE_LOOP('',(#329,#330,#331,#332));
#80=EDGE_LOOP('',(#333,#334,#335,#336));
#81=EDGE_LOOP('',(#337,#338,#339,#340));
#82=EDGE_LOOP('',(#341,#342,#343,#344));
#83=EDGE_LOOP('',(#345,#346,#347));
#84=EDGE_LOOP('',(#348,#349,#350,#351));
#85=EDGE_LOOP('',(#352,#353,#354,#355));
#86=EDGE_LOOP('',(#356,#357,#358,#359));
#87=EDGE_LOOP('',(#360,#361,#362,#363));
#88=EDGE_LOOP('',(#364,#365,#366,#367));
#89=EDGE_LOOP('',(#368,#369,#370,#371));
#90=EDGE_LOOP('',(#372,#373,#374));
#91=EDGE_LOOP('',(#375,#376,#377,#378));
#92=EDGE_LOOP('',(#379,#380,#381,#382));
#93=EDGE_LOOP('',(#383,#384,#385,#386));
#94=EDGE_LOOP('',(#387,#388,#389,#390));
#95=EDGE_LOOP('',(#391,#392,#393,#394,#395,#396,#397,#398,#399,#400,#401,
#402));
#96=EDGE_LOOP('',(#403,#404,#405));
#97=EDGE_LOOP('',(#406,#407,#408,#409));
#98=EDGE_LOOP('',(#410,#411,#412,#413));
#99=EDGE_LOOP('',(#414,#415,#416));
#100=EDGE_LOOP('',(#417,#418,#419,#420));
#101=EDGE_LOOP('',(#421,#422,#423,#424));
#102=EDGE_LOOP('',(#425,#426,#427,#428));
#103=EDGE_LOOP('',(#429,#430,#431,#432,#433,#434,#435,#436,#437,#438,#439,
#440,#441,#442,#443,#444));
#104=EDGE_LOOP('',(#445,#446,#447,#448));
#105=EDGE_LOOP('',(#449,#450,#451,#452));
#106=EDGE_LOOP('',(#453,#454,#455,#456));
#107=EDGE_LOOP('',(#457,#458,#459,#460));
#108=EDGE_LOOP('',(#461,#462,#463,#464,#465,#466,#467,#468,#469,#470,#471,
#472));
#109=LINE('',#729,#161);
#110=LINE('',#731,#162);
#111=LINE('',#733,#163);
#112=LINE('',#734,#164);
#113=LINE('',#737,#165);
#114=LINE('',#739,#166);
#115=LINE('',#740,#167);
#116=LINE('',#746,#168);
#117=LINE('',#749,#169);
#118=LINE('',#754,#170);
#119=LINE('',#757,#171);
#120=LINE('',#762,#172);
#121=LINE('',#764,#173);
#122=LINE('',#765,#174);
#123=LINE('',#768,#175);
#124=LINE('',#772,#176);
#125=LINE('',#773,#177);
#126=LINE('',#776,#178);
#127=LINE('',#777,#179);
#128=LINE('',#783,#180);
#129=LINE('',#786,#181);
#130=LINE('',#791,#182);
#131=LINE('',#794,#183);
#132=LINE('',#799,#184);
#133=LINE('',#801,#185);
#134=LINE('',#802,#186);
#135=LINE('',#805,#187);
#136=LINE('',#809,#188);
#137=LINE('',#810,#189);
#138=LINE('',#813,#190);
#139=LINE('',#814,#191);
#140=LINE('',#817,#192);
#141=LINE('',#818,#193);
#142=LINE('',#822,#194);
#143=LINE('',#824,#195);
#144=LINE('',#826,#196);
#145=LINE('',#827,#197);
#146=LINE('',#835,#198);
#147=LINE('',#837,#199);
#148=LINE('',#845,#200);
#149=LINE('',#849,#201);
#150=LINE('',#852,#202);
#151=LINE('',#853,#203);
#152=LINE('',#856,#204);
#153=LINE('',#857,#205);
#154=LINE('',#858,#206);
#155=LINE('',#860,#207);
#156=LINE('',#861,#208);
#157=LINE('',#865,#209);
#158=LINE('',#866,#210);
#159=LINE('',#868,#211);
#160=LINE('',#870,#212);
#161=VECTOR('',#575,10.);
#162=VECTOR('',#576,10.);
#163=VECTOR('',#577,10.);
#164=VECTOR('',#578,10.);
#165=VECTOR('',#581,10.);
#166=VECTOR('',#582,10.);
#167=VECTOR('',#583,10.);
#168=VECTOR('',#588,10.);
#169=VECTOR('',#591,10.);
#170=VECTOR('',#596,10.);
#171=VECTOR('',#599,10.);
#172=VECTOR('',#606,10.);
#173=VECTOR('',#607,10.);
#174=VECTOR('',#608,10.);
#175=VECTOR('',#611,10.);
#176=VECTOR('',#616,10.);
#177=VECTOR('',#617,10.);
#178=VECTOR('',#620,10.);
#179=VECTOR('',#621,10.);
#180=VECTOR('',#626,10.);
#181=VECTOR('',#629,10.);
#182=VECTOR('',#634,10.);
#183=VECTOR('',#637,10.);
#184=VECTOR('',#644,10.);
#185=VECTOR('',#645,10.);
#186=VECTOR('',#646,10.);
#187=VECTOR('',#649,10.);
#188=VECTOR('',#654,10.);
#189=VECTOR('',#655,10.);
#190=VECTOR('',#658,10.);
#191=VECTOR('',#659,10.);
#192=VECTOR('',#662,10.);
#193=VECTOR('',#663,10.);
#194=VECTOR('',#666,10.);
#195=VECTOR('',#667,10.);
#196=VECTOR('',#668,10.);
#197=VECTOR('',#669,10.);
#198=VECTOR('',#680,10.);
#199=VECTOR('',#683,10.);
#200=VECTOR('',#694,10.);
#201=VECTOR('',#699,10.);
#202=VECTOR('',#702,10.);
#203=VECTOR('',#703,10.);
#204=VECTOR('',#706,10.);
#205=VECTOR('',#707,10.);
#206=VECTOR('',#708,10.);
#207=VECTOR('',#709,10.);
#208=VECTOR('',#710,10.);
#209=VECTOR('',#715,10.);
#210=VECTOR('',#716,10.);
#211=VECTOR('',#719,10.);
#212=VECTOR('',#722,10.);
#213=VERTEX_POINT('',#727);
#214=VERTEX_POINT('',#728);
#215=VERTEX_POINT('',#730);
#216=VERTEX_POINT('',#732);
#217=VERTEX_POINT('',#736);
#218=VERTEX_POINT('',#738);
#219=VERTEX_POINT('',#742);
#220=VERTEX_POINT('',#743);
#221=VERTEX_POINT('',#745);
#222=VERTEX_POINT('',#747);
#223=VERTEX_POINT('',#751);
#224=VERTEX_POINT('',#753);
#225=VERTEX_POINT('',#755);
#226=VERTEX_POINT('',#761);
#227=VERTEX_POINT('',#763);
#228=VERTEX_POINT('',#767);
#229=VERTEX_POINT('',#771);
#230=VERTEX_POINT('',#775);
#231=VERTEX_POINT('',#779);
#232=VERTEX_POINT('',#780);
#233=VERTEX_POINT('',#782);
#234=VERTEX_POINT('',#784);
#235=VERTEX_POINT('',#788);
#236=VERTEX_POINT('',#790);
#237=VERTEX_POINT('',#792);
#238=VERTEX_POINT('',#798);
#239=VERTEX_POINT('',#800);
#240=VERTEX_POINT('',#804);
#241=VERTEX_POINT('',#808);
#242=VERTEX_POINT('',#812);
#243=VERTEX_POINT('',#816);
#244=VERTEX_POINT('',#819);
#245=VERTEX_POINT('',#821);
#246=VERTEX_POINT('',#823);
#247=VERTEX_POINT('',#825);
#248=VERTEX_POINT('',#829);
#249=VERTEX_POINT('',#833);
#250=VERTEX_POINT('',#839);
#251=VERTEX_POINT('',#843);
#252=VERTEX_POINT('',#847);
#253=VERTEX_POINT('',#851);
#254=VERTEX_POINT('',#855);
#255=VERTEX_POINT('',#859);
#256=VERTEX_POINT('',#864);
#257=EDGE_CURVE('',#213,#214,#109,.T.);
#258=EDGE_CURVE('',#214,#215,#110,.T.);
#259=EDGE_CURVE('',#215,#216,#111,.T.);
#260=EDGE_CURVE('',#216,#213,#112,.T.);
#261=EDGE_CURVE('',#213,#217,#113,.T.);
#262=EDGE_CURVE('',#218,#217,#114,.T.);
#263=EDGE_CURVE('',#214,#218,#115,.T.);
#264=EDGE_CURVE('',#219,#220,#19,.T.);
#265=EDGE_CURVE('',#220,#221,#116,.T.);
#266=EDGE_CURVE('',#221,#222,#20,.T.);
#267=EDGE_CURVE('',#222,#219,#117,.T.);
#268=EDGE_CURVE('',#223,#219,#21,.T.);
#269=EDGE_CURVE('',#219,#224,#118,.T.);
#270=EDGE_CURVE('',#224,#225,#22,.T.);
#271=EDGE_CURVE('',#225,#223,#119,.T.);
#272=EDGE_CURVE('',#223,#220,#23,.T.);
#273=EDGE_CURVE('',#226,#220,#120,.T.);
#274=EDGE_CURVE('',#227,#226,#121,.T.);
#275=EDGE_CURVE('',#221,#227,#122,.T.);
#276=EDGE_CURVE('',#223,#228,#123,.T.);
#277=EDGE_CURVE('',#228,#226,#24,.F.);
#278=EDGE_CURVE('',#229,#225,#124,.T.);
#279=EDGE_CURVE('',#228,#229,#125,.T.);
#280=EDGE_CURVE('',#230,#222,#126,.T.);
#281=EDGE_CURVE('',#224,#230,#127,.T.);
#282=EDGE_CURVE('',#231,#232,#25,.T.);
#283=EDGE_CURVE('',#232,#233,#128,.T.);
#284=EDGE_CURVE('',#233,#234,#26,.T.);
#285=EDGE_CURVE('',#234,#231,#129,.T.);
#286=EDGE_CURVE('',#235,#231,#27,.T.);
#287=EDGE_CURVE('',#231,#236,#130,.T.);
#288=EDGE_CURVE('',#236,#237,#28,.T.);
#289=EDGE_CURVE('',#237,#235,#131,.T.);
#290=EDGE_CURVE('',#235,#232,#29,.T.);
#291=EDGE_CURVE('',#238,#232,#132,.T.);
#292=EDGE_CURVE('',#239,#238,#133,.T.);
#293=EDGE_CURVE('',#233,#239,#134,.T.);
#294=EDGE_CURVE('',#235,#240,#135,.T.);
#295=EDGE_CURVE('',#240,#238,#30,.F.);
#296=EDGE_CURVE('',#241,#237,#136,.T.);
#297=EDGE_CURVE('',#240,#241,#137,.T.);
#298=EDGE_CURVE('',#242,#234,#138,.T.);
#299=EDGE_CURVE('',#236,#242,#139,.T.);
#300=EDGE_CURVE('',#218,#243,#140,.F.);
#301=EDGE_CURVE('',#242,#243,#141,.T.);
#302=EDGE_CURVE('',#244,#239,#31,.T.);
#303=EDGE_CURVE('',#244,#245,#142,.T.);
#304=EDGE_CURVE('',#246,#245,#143,.T.);
#305=EDGE_CURVE('',#247,#246,#144,.T.);
#306=EDGE_CURVE('',#215,#247,#145,.T.);
#307=EDGE_CURVE('',#238,#248,#32,.F.);
#308=EDGE_CURVE('',#248,#240,#33,.F.);
#309=EDGE_CURVE('',#241,#249,#34,.T.);
#310=EDGE_CURVE('',#249,#248,#146,.T.);
#311=EDGE_CURVE('',#248,#244,#147,.T.);
#312=EDGE_CURVE('',#250,#228,#35,.F.);
#313=EDGE_CURVE('',#226,#250,#36,.F.);
#314=EDGE_CURVE('',#251,#227,#37,.T.);
#315=EDGE_CURVE('',#250,#251,#148,.T.);
#316=EDGE_CURVE('',#229,#252,#38,.T.);
#317=EDGE_CURVE('',#252,#250,#149,.T.);
#318=EDGE_CURVE('',#253,#252,#150,.T.);
#319=EDGE_CURVE('',#251,#253,#151,.T.);
#320=EDGE_CURVE('',#253,#254,#152,.T.);
#321=EDGE_CURVE('',#254,#246,#153,.T.);
#322=EDGE_CURVE('',#245,#249,#154,.T.);
#323=EDGE_CURVE('',#243,#255,#155,.F.);
#324=EDGE_CURVE('',#255,#230,#156,.T.);
#325=EDGE_CURVE('',#256,#216,#157,.T.);
#326=EDGE_CURVE('',#247,#256,#158,.T.);
#327=EDGE_CURVE('',#256,#254,#159,.T.);
#328=EDGE_CURVE('',#217,#255,#160,.T.);
#329=ORIENTED_EDGE('',*,*,#257,.T.);
#330=ORIENTED_EDGE('',*,*,#258,.T.);
#331=ORIENTED_EDGE('',*,*,#259,.T.);
#332=ORIENTED_EDGE('',*,*,#260,.T.);
#333=ORIENTED_EDGE('',*,*,#261,.T.);
#334=ORIENTED_EDGE('',*,*,#262,.F.);
#335=ORIENTED_EDGE('',*,*,#263,.F.);
#336=ORIENTED_EDGE('',*,*,#257,.F.);
#337=ORIENTED_EDGE('',*,*,#264,.T.);
#338=ORIENTED_EDGE('',*,*,#265,.T.);
#339=ORIENTED_EDGE('',*,*,#266,.T.);
#340=ORIENTED_EDGE('',*,*,#267,.T.);
#341=ORIENTED_EDGE('',*,*,#268,.T.);
#342=ORIENTED_EDGE('',*,*,#269,.T.);
#343=ORIENTED_EDGE('',*,*,#270,.T.);
#344=ORIENTED_EDGE('',*,*,#271,.T.);
#345=ORIENTED_EDGE('',*,*,#268,.F.);
#346=ORIENTED_EDGE('',*,*,#272,.T.);
#347=ORIENTED_EDGE('',*,*,#264,.F.);
#348=ORIENTED_EDGE('',*,*,#265,.F.);
#349=ORIENTED_EDGE('',*,*,#273,.F.);
#350=ORIENTED_EDGE('',*,*,#274,.F.);
#351=ORIENTED_EDGE('',*,*,#275,.F.);
#352=ORIENTED_EDGE('',*,*,#272,.F.);
#353=ORIENTED_EDGE('',*,*,#276,.T.);
#354=ORIENTED_EDGE('',*,*,#277,.T.);
#355=ORIENTED_EDGE('',*,*,#273,.T.);
#356=ORIENTED_EDGE('',*,*,#271,.F.);
#357=ORIENTED_EDGE('',*,*,#278,.F.);
#358=ORIENTED_EDGE('',*,*,#279,.F.);
#359=ORIENTED_EDGE('',*,*,#276,.F.);
#360=ORIENTED_EDGE('',*,*,#267,.F.);
#361=ORIENTED_EDGE('',*,*,#280,.F.);
#362=ORIENTED_EDGE('',*,*,#281,.F.);
#363=ORIENTED_EDGE('',*,*,#269,.F.);
#364=ORIENTED_EDGE('',*,*,#282,.T.);
#365=ORIENTED_EDGE('',*,*,#283,.T.);
#366=ORIENTED_EDGE('',*,*,#284,.T.);
#367=ORIENTED_EDGE('',*,*,#285,.T.);
#368=ORIENTED_EDGE('',*,*,#286,.T.);
#369=ORIENTED_EDGE('',*,*,#287,.T.);
#370=ORIENTED_EDGE('',*,*,#288,.T.);
#371=ORIENTED_EDGE('',*,*,#289,.T.);
#372=ORIENTED_EDGE('',*,*,#286,.F.);
#373=ORIENTED_EDGE('',*,*,#290,.T.);
#374=ORIENTED_EDGE('',*,*,#282,.F.);
#375=ORIENTED_EDGE('',*,*,#283,.F.);
#376=ORIENTED_EDGE('',*,*,#291,.F.);
#377=ORIENTED_EDGE('',*,*,#292,.F.);
#378=ORIENTED_EDGE('',*,*,#293,.F.);
#379=ORIENTED_EDGE('',*,*,#290,.F.);
#380=ORIENTED_EDGE('',*,*,#294,.T.);
#381=ORIENTED_EDGE('',*,*,#295,.T.);
#382=ORIENTED_EDGE('',*,*,#291,.T.);
#383=ORIENTED_EDGE('',*,*,#289,.F.);
#384=ORIENTED_EDGE('',*,*,#296,.F.);
#385=ORIENTED_EDGE('',*,*,#297,.F.);
#386=ORIENTED_EDGE('',*,*,#294,.F.);
#387=ORIENTED_EDGE('',*,*,#285,.F.);
#388=ORIENTED_EDGE('',*,*,#298,.F.);
#389=ORIENTED_EDGE('',*,*,#299,.F.);
#390=ORIENTED_EDGE('',*,*,#287,.F.);
#391=ORIENTED_EDGE('',*,*,#300,.T.);
#392=ORIENTED_EDGE('',*,*,#301,.F.);
#393=ORIENTED_EDGE('',*,*,#298,.T.);
#394=ORIENTED_EDGE('',*,*,#284,.F.);
#395=ORIENTED_EDGE('',*,*,#293,.T.);
#396=ORIENTED_EDGE('',*,*,#302,.F.);
#397=ORIENTED_EDGE('',*,*,#303,.T.);
#398=ORIENTED_EDGE('',*,*,#304,.F.);
#399=ORIENTED_EDGE('',*,*,#305,.F.);
#400=ORIENTED_EDGE('',*,*,#306,.F.);
#401=ORIENTED_EDGE('',*,*,#258,.F.);
#402=ORIENTED_EDGE('',*,*,#263,.T.);
#403=ORIENTED_EDGE('',*,*,#307,.F.);
#404=ORIENTED_EDGE('',*,*,#295,.F.);
#405=ORIENTED_EDGE('',*,*,#308,.F.);
#406=ORIENTED_EDGE('',*,*,#309,.T.);
#407=ORIENTED_EDGE('',*,*,#310,.T.);
#408=ORIENTED_EDGE('',*,*,#308,.T.);
#409=ORIENTED_EDGE('',*,*,#297,.T.);
#410=ORIENTED_EDGE('',*,*,#302,.T.);
#411=ORIENTED_EDGE('',*,*,#292,.T.);
#412=ORIENTED_EDGE('',*,*,#307,.T.);
#413=ORIENTED_EDGE('',*,*,#311,.T.);
#414=ORIENTED_EDGE('',*,*,#312,.F.);
#415=ORIENTED_EDGE('',*,*,#313,.F.);
#416=ORIENTED_EDGE('',*,*,#277,.F.);
#417=ORIENTED_EDGE('',*,*,#314,.T.);
#418=ORIENTED_EDGE('',*,*,#274,.T.);
#419=ORIENTED_EDGE('',*,*,#313,.T.);
#420=ORIENTED_EDGE('',*,*,#315,.T.);
#421=ORIENTED_EDGE('',*,*,#316,.T.);
#422=ORIENTED_EDGE('',*,*,#317,.T.);
#423=ORIENTED_EDGE('',*,*,#312,.T.);
#424=ORIENTED_EDGE('',*,*,#279,.T.);
#425=ORIENTED_EDGE('',*,*,#315,.F.);
#426=ORIENTED_EDGE('',*,*,#317,.F.);
#427=ORIENTED_EDGE('',*,*,#318,.F.);
#428=ORIENTED_EDGE('',*,*,#319,.F.);
#429=ORIENTED_EDGE('',*,*,#275,.T.);
#430=ORIENTED_EDGE('',*,*,#314,.F.);
#431=ORIENTED_EDGE('',*,*,#319,.T.);
#432=ORIENTED_EDGE('',*,*,#320,.T.);
#433=ORIENTED_EDGE('',*,*,#321,.T.);
#434=ORIENTED_EDGE('',*,*,#304,.T.);
#435=ORIENTED_EDGE('',*,*,#322,.T.);
#436=ORIENTED_EDGE('',*,*,#309,.F.);
#437=ORIENTED_EDGE('',*,*,#296,.T.);
#438=ORIENTED_EDGE('',*,*,#288,.F.);
#439=ORIENTED_EDGE('',*,*,#299,.T.);
#440=ORIENTED_EDGE('',*,*,#301,.T.);
#441=ORIENTED_EDGE('',*,*,#323,.T.);
#442=ORIENTED_EDGE('',*,*,#324,.T.);
#443=ORIENTED_EDGE('',*,*,#280,.T.);
#444=ORIENTED_EDGE('',*,*,#266,.F.);
#445=ORIENTED_EDGE('',*,*,#310,.F.);
#446=ORIENTED_EDGE('',*,*,#322,.F.);
#447=ORIENTED_EDGE('',*,*,#303,.F.);
#448=ORIENTED_EDGE('',*,*,#311,.F.);
#449=ORIENTED_EDGE('',*,*,#325,.T.);
#450=ORIENTED_EDGE('',*,*,#259,.F.);
#451=ORIENTED_EDGE('',*,*,#306,.T.);
#452=ORIENTED_EDGE('',*,*,#326,.T.);
#453=ORIENTED_EDGE('',*,*,#305,.T.);
#454=ORIENTED_EDGE('',*,*,#321,.F.);
#455=ORIENTED_EDGE('',*,*,#327,.F.);
#456=ORIENTED_EDGE('',*,*,#326,.F.);
#457=ORIENTED_EDGE('',*,*,#262,.T.);
#458=ORIENTED_EDGE('',*,*,#328,.T.);
#459=ORIENTED_EDGE('',*,*,#323,.F.);
#460=ORIENTED_EDGE('',*,*,#300,.F.);
#461=ORIENTED_EDGE('',*,*,#278,.T.);
#462=ORIENTED_EDGE('',*,*,#270,.F.);
#463=ORIENTED_EDGE('',*,*,#281,.T.);
#464=ORIENTED_EDGE('',*,*,#324,.F.);
#465=ORIENTED_EDGE('',*,*,#328,.F.);
#466=ORIENTED_EDGE('',*,*,#261,.F.);
#467=ORIENTED_EDGE('',*,*,#260,.F.);
#468=ORIENTED_EDGE('',*,*,#325,.F.);
#469=ORIENTED_EDGE('',*,*,#327,.T.);
#470=ORIENTED_EDGE('',*,*,#320,.F.);
#471=ORIENTED_EDGE('',*,*,#318,.T.);
#472=ORIENTED_EDGE('',*,*,#316,.F.);
#473=PLANE('',#521);
#474=PLANE('',#522);
#475=PLANE('',#531);
#476=PLANE('',#534);
#477=PLANE('',#535);
#478=PLANE('',#544);
#479=PLANE('',#547);
#480=PLANE('',#548);
#481=PLANE('',#549);
#482=PLANE('',#564);
#483=PLANE('',#565);
#484=PLANE('',#566);
#485=PLANE('',#567);
#486=PLANE('',#568);
#487=PLANE('',#569);
#488=PLANE('',#570);
#489=ADVANCED_FACE('',(#49),#473,.T.);
#490=ADVANCED_FACE('',(#50),#474,.F.);
#491=ADVANCED_FACE('',(#51),#39,.F.);
#492=ADVANCED_FACE('',(#52),#40,.F.);
#493=ADVANCED_FACE('',(#53),#15,.F.);
#494=ADVANCED_FACE('',(#54),#475,.F.);
#495=ADVANCED_FACE('',(#55),#41,.F.);
#496=ADVANCED_FACE('',(#56),#476,.T.);
#497=ADVANCED_FACE('',(#57),#477,.T.);
#498=ADVANCED_FACE('',(#58),#42,.F.);
#499=ADVANCED_FACE('',(#59),#43,.F.);
#500=ADVANCED_FACE('',(#60),#16,.F.);
#501=ADVANCED_FACE('',(#61),#478,.T.);
#502=ADVANCED_FACE('',(#62),#44,.F.);
#503=ADVANCED_FACE('',(#63),#479,.F.);
#504=ADVANCED_FACE('',(#64),#480,.T.);
#505=ADVANCED_FACE('',(#65),#481,.F.);
#506=ADVANCED_FACE('',(#66),#17,.F.);
#507=ADVANCED_FACE('',(#67),#45,.F.);
#508=ADVANCED_FACE('',(#68),#46,.F.);
#509=ADVANCED_FACE('',(#69),#18,.F.);
#510=ADVANCED_FACE('',(#70),#47,.F.);
#511=ADVANCED_FACE('',(#71),#48,.F.);
#512=ADVANCED_FACE('',(#72),#482,.T.);
#513=ADVANCED_FACE('',(#73),#483,.F.);
#514=ADVANCED_FACE('',(#74),#484,.T.);
#515=ADVANCED_FACE('',(#75),#485,.T.);
#516=ADVANCED_FACE('',(#76),#486,.F.);
#517=ADVANCED_FACE('',(#77),#487,.F.);
#518=ADVANCED_FACE('',(#78),#488,.F.);
#519=CLOSED_SHELL('',(#489,#490,#491,#492,#493,#494,#495,#496,#497,#498,
#499,#500,#501,#502,#503,#504,#505,#506,#507,#508,#509,#510,#511,#512,#513,
#514,#515,#516,#517,#518));
#520=AXIS2_PLACEMENT_3D('',#725,#571,#572);
#521=AXIS2_PLACEMENT_3D('',#726,#573,#574);
#522=AXIS2_PLACEMENT_3D('',#735,#579,#580);
#523=AXIS2_PLACEMENT_3D('',#741,#584,#585);
#524=AXIS2_PLACEMENT_3D('',#744,#586,#587);
#525=AXIS2_PLACEMENT_3D('',#748,#589,#590);
#526=AXIS2_PLACEMENT_3D('',#750,#592,#593);
#527=AXIS2_PLACEMENT_3D('',#752,#594,#595);
#528=AXIS2_PLACEMENT_3D('',#756,#597,#598);
#529=AXIS2_PLACEMENT_3D('',#758,#600,#601);
#530=AXIS2_PLACEMENT_3D('',#759,#602,#603);
#531=AXIS2_PLACEMENT_3D('',#760,#604,#605);
#532=AXIS2_PLACEMENT_3D('',#766,#609,#610);
#533=AXIS2_PLACEMENT_3D('',#769,#612,#613);
#534=AXIS2_PLACEMENT_3D('',#770,#614,#615);
#535=AXIS2_PLACEMENT_3D('',#774,#618,#619);
#536=AXIS2_PLACEMENT_3D('',#778,#622,#623);
#537=AXIS2_PLACEMENT_3D('',#781,#624,#625);
#538=AXIS2_PLACEMENT_3D('',#785,#627,#628);
#539=AXIS2_PLACEMENT_3D('',#787,#630,#631);
#540=AXIS2_PLACEMENT_3D('',#789,#632,#633);
#541=AXIS2_PLACEMENT_3D('',#793,#635,#636);
#542=AXIS2_PLACEMENT_3D('',#795,#638,#639);
#543=AXIS2_PLACEMENT_3D('',#796,#640,#641);
#544=AXIS2_PLACEMENT_3D('',#797,#642,#643);
#545=AXIS2_PLACEMENT_3D('',#803,#647,#648);
#546=AXIS2_PLACEMENT_3D('',#806,#650,#651);
#547=AXIS2_PLACEMENT_3D('',#807,#652,#653);
#548=AXIS2_PLACEMENT_3D('',#811,#656,#657);
#549=AXIS2_PLACEMENT_3D('',#815,#660,#661);
#550=AXIS2_PLACEMENT_3D('',#820,#664,#665);
#551=AXIS2_PLACEMENT_3D('',#828,#670,#671);
#552=AXIS2_PLACEMENT_3D('',#830,#672,#673);
#553=AXIS2_PLACEMENT_3D('',#831,#674,#675);
#554=AXIS2_PLACEMENT_3D('',#832,#676,#677);
#555=AXIS2_PLACEMENT_3D('',#834,#678,#679);
#556=AXIS2_PLACEMENT_3D('',#836,#681,#682);
#557=AXIS2_PLACEMENT_3D('',#838,#684,#685);
#558=AXIS2_PLACEMENT_3D('',#840,#686,#687);
#559=AXIS2_PLACEMENT_3D('',#841,#688,#689);
#560=AXIS2_PLACEMENT_3D('',#842,#690,#691);
#561=AXIS2_PLACEMENT_3D('',#844,#692,#693);
#562=AXIS2_PLACEMENT_3D('',#846,#695,#696);
#563=AXIS2_PLACEMENT_3D('',#848,#697,#698);
#564=AXIS2_PLACEMENT_3D('',#850,#700,#701);
#565=AXIS2_PLACEMENT_3D('',#854,#704,#705);
#566=AXIS2_PLACEMENT_3D('',#862,#711,#712);
#567=AXIS2_PLACEMENT_3D('',#863,#713,#714);
#568=AXIS2_PLACEMENT_3D('',#867,#717,#718);
#569=AXIS2_PLACEMENT_3D('',#869,#720,#721);
#570=AXIS2_PLACEMENT_3D('',#871,#723,#724);
#571=DIRECTION('axis',(0.,0.,1.));
#572=DIRECTION('refdir',(1.,0.,0.));
#573=DIRECTION('center_axis',(-0.707106781186547,-0.707106781186548,0.));
#574=DIRECTION('ref_axis',(0.,0.,-1.));
#575=DIRECTION('',(0.707106781186548,-0.707106781186547,0.));
#576=DIRECTION('',(0.,0.,1.));
#577=DIRECTION('',(-0.707106781186548,0.707106781186547,0.));
#578=DIRECTION('',(0.,0.,-1.));
#579=DIRECTION('center_axis',(0.,0.,1.));
#580=DIRECTION('ref_axis',(-0.707106781186547,-0.707106781186548,0.));
#581=DIRECTION('',(0.707106781186547,0.707106781186548,0.));
#582=DIRECTION('',(-0.707106781186548,0.707106781186547,0.));
#583=DIRECTION('',(0.707106781186547,0.707106781186548,0.));
#584=DIRECTION('center_axis',(0.,0.,1.));
#585=DIRECTION('ref_axis',(0.,-1.,0.));
#586=DIRECTION('center_axis',(0.,0.,1.));
#587=DIRECTION('ref_axis',(-0.707106781186548,-0.707106781186548,0.));
#588=DIRECTION('',(0.,0.,-1.));
#589=DIRECTION('center_axis',(0.,0.,-1.));
#590=DIRECTION('ref_axis',(0.,-1.,0.));
#591=DIRECTION('',(0.,0.,1.));
#592=DIRECTION('center_axis',(-0.707106781186548,0.707106781186547,0.));
#593=DIRECTION('ref_axis',(-0.499999999999996,-0.499999999999996,0.707106781186553));
#594=DIRECTION('center_axis',(0.707106781186548,-0.707106781186548,0.));
#595=DIRECTION('ref_axis',(0.,0.,1.));
#596=DIRECTION('',(-0.707106781186548,0.707106781186547,0.));
#597=DIRECTION('center_axis',(-0.707106781186548,0.707106781186547,0.));
#598=DIRECTION('ref_axis',(-0.499999999999996,-0.499999999999996,0.707106781186553));
#599=DIRECTION('',(0.707106781186548,-0.707106781186547,0.));
#600=DIRECTION('center_axis',(-1.,0.,0.));
#601=DIRECTION('ref_axis',(0.,-0.816496580927725,0.577350269189627));
#602=DIRECTION('center_axis',(0.707106781186547,0.707106781186548,0.));
#603=DIRECTION('ref_axis',(0.500000000000004,-0.500000000000004,0.707106781186542));
#604=DIRECTION('center_axis',(0.707106781186548,-0.707106781186547,0.));
#605=DIRECTION('ref_axis',(0.,0.,-1.));
#606=DIRECTION('',(-0.707106781186547,-0.707106781186548,0.));
#607=DIRECTION('',(0.,0.,1.));
#608=DIRECTION('',(0.707106781186547,0.707106781186548,0.));
#609=DIRECTION('center_axis',(-0.707106781186547,-0.707106781186548,0.));
#610=DIRECTION('ref_axis',(0.499999999999997,-0.499999999999996,0.707106781186553));
#611=DIRECTION('',(0.707106781186547,0.707106781186548,0.));
#612=DIRECTION('center_axis',(-0.707106781186547,-0.707106781186548,0.));
#613=DIRECTION('ref_axis',(0.,0.,1.));
#614=DIRECTION('center_axis',(0.,0.,-1.));
#615=DIRECTION('ref_axis',(-0.707106781186548,0.707106781186547,0.));
#616=DIRECTION('',(-0.707106781186547,-0.707106781186548,0.));
#617=DIRECTION('',(-0.707106781186548,0.707106781186547,0.));
#618=DIRECTION('center_axis',(0.707106781186547,0.707106781186548,0.));
#619=DIRECTION('ref_axis',(0.707106781186548,-0.707106781186547,0.));
#620=DIRECTION('',(0.707106781186548,-0.707106781186547,0.));
#621=DIRECTION('',(0.,0.,-1.));
#622=DIRECTION('center_axis',(-0.707106781186548,0.707106781186547,0.));
#623=DIRECTION('ref_axis',(-0.499999999999996,-0.499999999999996,0.707106781186553));
#624=DIRECTION('center_axis',(-0.707106781186548,0.707106781186548,0.));
#625=DIRECTION('ref_axis',(-0.707106781186548,-0.707106781186548,0.));
#626=DIRECTION('',(0.707106781186548,-0.707106781186547,0.));
#627=DIRECTION('center_axis',(0.707106781186548,-0.707106781186547,0.));
#628=DIRECTION('ref_axis',(-0.499999999999996,-0.499999999999996,0.707106781186553));
#629=DIRECTION('',(-0.707106781186548,0.707106781186547,0.));
#630=DIRECTION('center_axis',(0.,0.,1.));
#631=DIRECTION('ref_axis',(-1.,0.,0.));
#632=DIRECTION('center_axis',(0.,0.,1.));
#633=DIRECTION('ref_axis',(-0.707106781186552,0.707106781186543,0.));
#634=DIRECTION('',(0.,0.,-1.));
#635=DIRECTION('center_axis',(0.,0.,-1.));
#636=DIRECTION('ref_axis',(-1.,0.,0.));
#637=DIRECTION('',(0.,0.,1.));
#638=DIRECTION('center_axis',(-0.577350269189632,1.42108547152021E-14,-0.816496580927722));
#639=DIRECTION('ref_axis',(-0.816496580927725,2.13162820728032E-14,0.577350269189627));
#640=DIRECTION('center_axis',(0.707106781186547,0.707106781186548,0.));
#641=DIRECTION('ref_axis',(-0.500000000000004,0.500000000000004,0.707106781186542));
#642=DIRECTION('center_axis',(0.,0.,-1.));
#643=DIRECTION('ref_axis',(0.707106781186548,-0.707106781186547,0.));
#644=DIRECTION('',(-0.707106781186547,-0.707106781186548,0.));
#645=DIRECTION('',(-0.707106781186548,0.707106781186547,0.));
#646=DIRECTION('',(0.707106781186547,0.707106781186548,0.));
#647=DIRECTION('center_axis',(0.707106781186547,0.707106781186548,0.));
#648=DIRECTION('ref_axis',(-0.499999999999997,0.499999999999996,0.707106781186553));
#649=DIRECTION('',(0.707106781186547,0.707106781186548,0.));
#650=DIRECTION('center_axis',(-0.707106781186547,-0.707106781186548,-1.77635683940023E-14));
#651=DIRECTION('ref_axis',(-0.707106781186548,0.707106781186547,0.));
#652=DIRECTION('center_axis',(-0.707106781186548,0.707106781186547,0.));
#653=DIRECTION('ref_axis',(0.,0.,-1.));
#654=DIRECTION('',(-0.707106781186547,-0.707106781186548,0.));
#655=DIRECTION('',(0.,0.,-1.));
#656=DIRECTION('center_axis',(0.707106781186547,0.707106781186548,0.));
#657=DIRECTION('ref_axis',(0.707106781186548,-0.707106781186547,0.));
#658=DIRECTION('',(0.,0.,1.));
#659=DIRECTION('',(0.707106781186548,-0.707106781186547,0.));
#660=DIRECTION('center_axis',(-0.707106781186548,0.707106781186547,0.));
#661=DIRECTION('ref_axis',(0.,0.,-1.));
#662=DIRECTION('',(0.,0.,1.));
#663=DIRECTION('',(-0.707106781186547,-0.707106781186548,0.));
#664=DIRECTION('center_axis',(0.707106781186548,-0.707106781186547,0.));
#665=DIRECTION('ref_axis',(0.499999999999991,0.499999999999991,0.70710678118656));
#666=DIRECTION('',(0.,0.,-1.));
#667=DIRECTION('',(-0.707106781186547,-0.707106781186548,0.));
#668=DIRECTION('',(0.,0.,-1.));
#669=DIRECTION('',(0.707106781186547,0.707106781186548,0.));
#670=DIRECTION('center_axis',(0.866025403784429,-0.28867513459481,0.408248290463886));
#671=DIRECTION('ref_axis',(-1.42108547152019E-14,0.816496580927712,0.577350269189646));
#672=DIRECTION('center_axis',(0.707106781186548,-0.707106781186547,0.));
#673=DIRECTION('ref_axis',(0.,0.,1.));
#674=DIRECTION('center_axis',(0.,0.,-1.));
#675=DIRECTION('ref_axis',(0.707106781186547,0.707106781186548,0.));
#676=DIRECTION('center_axis',(0.,0.,-1.));
#677=DIRECTION('ref_axis',(-1.07552855510562E-14,1.,0.));
#678=DIRECTION('center_axis',(0.,0.,-1.));
#679=DIRECTION('ref_axis',(-1.07552855510562E-14,1.,0.));
#680=DIRECTION('',(0.,0.,1.));
#681=DIRECTION('center_axis',(0.707106781186548,-0.707106781186547,0.));
#682=DIRECTION('ref_axis',(0.499999999999991,0.499999999999991,0.70710678118656));
#683=DIRECTION('',(0.707106781186548,-0.707106781186547,0.));
#684=DIRECTION('center_axis',(0.288675134594813,-0.866025403784439,-0.408248290463862));
#685=DIRECTION('ref_axis',(0.816496580927725,-1.42108547152021E-14,0.577350269189627));
#686=DIRECTION('center_axis',(-0.707106781186548,0.707106781186547,0.));
#687=DIRECTION('ref_axis',(0.707106781186547,0.707106781186548,0.));
#688=DIRECTION('center_axis',(0.,0.,-1.));
#689=DIRECTION('ref_axis',(0.707106781186548,-0.707106781186547,0.));
#690=DIRECTION('center_axis',(0.,0.,1.));
#691=DIRECTION('ref_axis',(1.,-1.06165076729781E-14,0.));
#692=DIRECTION('center_axis',(0.,0.,-1.));
#693=DIRECTION('ref_axis',(1.,-1.06165076729781E-14,0.));
#694=DIRECTION('',(0.,0.,-1.));
#695=DIRECTION('center_axis',(-0.707106781186548,0.707106781186547,0.));
#696=DIRECTION('ref_axis',(0.499999999999991,0.499999999999991,0.70710678118656));
#697=DIRECTION('center_axis',(-0.707106781186548,0.707106781186547,0.));
#698=DIRECTION('ref_axis',(0.499999999999991,0.499999999999991,0.70710678118656));
#699=DIRECTION('',(0.707106781186548,-0.707106781186547,0.));
#700=DIRECTION('center_axis',(-0.707106781186547,-0.707106781186548,0.));
#701=DIRECTION('ref_axis',(-0.707106781186548,0.707106781186547,0.));
#702=DIRECTION('',(0.,0.,1.));
#703=DIRECTION('',(-0.707106781186548,0.707106781186547,0.));
#704=DIRECTION('center_axis',(0.,0.,1.));
#705=DIRECTION('ref_axis',(-0.707106781186548,0.707106781186547,0.));
#706=DIRECTION('',(0.707106781186547,0.707106781186548,0.));
#707=DIRECTION('',(0.707106781186548,-0.707106781186547,0.));
#708=DIRECTION('',(-0.707106781186548,0.707106781186547,0.));
#709=DIRECTION('',(0.707106781186548,-0.707106781186547,0.));
#710=DIRECTION('',(0.707106781186547,0.707106781186548,0.));
#711=DIRECTION('center_axis',(-0.707106781186547,-0.707106781186548,0.));
#712=DIRECTION('ref_axis',(-0.707106781186548,0.707106781186547,0.));
#713=DIRECTION('center_axis',(0.,0.,1.));
#714=DIRECTION('ref_axis',(-0.707106781186548,0.707106781186547,0.));
#715=DIRECTION('',(-0.707106781186547,-0.707106781186548,0.));
#716=DIRECTION('',(-0.707106781186548,0.707106781186547,0.));
#717=DIRECTION('center_axis',(-0.707106781186547,-0.707106781186548,0.));
#718=DIRECTION('ref_axis',(0.,0.,1.));
#719=DIRECTION('',(0.,0.,-1.));
#720=DIRECTION('center_axis',(0.707106781186547,0.707106781186548,0.));
#721=DIRECTION('ref_axis',(0.,0.,-1.));
#722=DIRECTION('',(0.,0.,-1.));
#723=DIRECTION('center_axis',(0.707106781186548,-0.707106781186547,0.));
#724=DIRECTION('ref_axis',(0.,0.,1.));
#725=CARTESIAN_POINT('',(0.,0.,0.));
#726=CARTESIAN_POINT('Origin',(93.3380951166242,93.3380951166243,411.5));
#727=CARTESIAN_POINT('',(82.731493398826,103.944696834423,410.));
#728=CARTESIAN_POINT('',(103.944696834422,82.7314933988261,410.));
#729=CARTESIAN_POINT('',(93.3380951166242,93.3380951166243,410.));
#730=CARTESIAN_POINT('',(103.944696834422,82.7314933988261,413.));
#731=CARTESIAN_POINT('',(103.944696834422,82.7314933988261,411.5));
#732=CARTESIAN_POINT('',(82.731493398826,103.944696834423,413.));
#733=CARTESIAN_POINT('',(93.3380951166242,93.3380951166243,413.));
#734=CARTESIAN_POINT('',(82.731493398826,103.944696834423,411.5));
#735=CARTESIAN_POINT('Origin',(95.1058620695906,95.1058620695906,410.));
#736=CARTESIAN_POINT('',(86.2670273047588,107.480230740355,410.));
#737=CARTESIAN_POINT('',(84.4992603517924,105.712463787389,410.));
#738=CARTESIAN_POINT('',(107.480230740355,86.2670273047588,410.));
#739=CARTESIAN_POINT('',(96.873629022557,96.873629022557,410.));
#740=CARTESIAN_POINT('',(105.712463787389,84.4992603517924,410.));
#741=CARTESIAN_POINT('Origin',(97.2271838250697,102.176931293376,401.500005841255));
#742=CARTESIAN_POINT('',(95.8129702626966,100.762717731002,409.000005841255));
#743=CARTESIAN_POINT('',(98.6413973874428,100.762717731002,409.000005841255));
#744=CARTESIAN_POINT('Origin',(97.2271838250697,102.176931293376,409.000005841255));
#745=CARTESIAN_POINT('',(98.6413973874428,100.762717731002,392.));
#746=CARTESIAN_POINT('',(98.6413973874428,100.762717731002,401.500005841255));
#747=CARTESIAN_POINT('',(95.8129702626966,100.762717731002,392.));
#748=CARTESIAN_POINT('Origin',(97.2271838250697,102.176931293376,392.));
#749=CARTESIAN_POINT('',(95.8129702626966,100.762717731002,401.500005841255));
#750=CARTESIAN_POINT('Origin',(93.8684266144336,105.535688504012,409.000005841255));
#751=CARTESIAN_POINT('',(97.2271838250697,102.176931293376,411.000005841255));
#752=CARTESIAN_POINT('Origin',(97.2271838250697,102.176931293376,409.000005841255));
#753=CARTESIAN_POINT('',(87.6812422790513,108.894445714648,409.000005841255));
#754=CARTESIAN_POINT('',(92.4542130520605,104.121474941639,409.000005841255));
#755=CARTESIAN_POINT('',(89.0954558414244,110.308659277021,411.000005841255));
#756=CARTESIAN_POINT('Origin',(89.0954558414244,110.308659277021,409.000005841255));
#757=CARTESIAN_POINT('',(93.8684266144336,105.535688504012,411.000005841255));
#758=CARTESIAN_POINT('Origin',(97.2271838250697,102.176931293376,409.000005841255));
#759=CARTESIAN_POINT('Origin',(97.2271838250697,102.176931293376,409.000005841255));
#760=CARTESIAN_POINT('Origin',(140.360697477449,142.482017821009,401.500005841255));
#761=CARTESIAN_POINT('',(185.615531473388,187.736851816948,409.000005841255));
#762=CARTESIAN_POINT('',(140.360697477449,142.482017821009,409.000005841255));
#763=CARTESIAN_POINT('',(185.615531473388,187.736851816948,392.));
#764=CARTESIAN_POINT('',(185.615531473388,187.736851816948,401.500005841255));
#765=CARTESIAN_POINT('',(152.027958661067,154.149279004627,392.));
#766=CARTESIAN_POINT('Origin',(138.946483915076,143.896231383382,409.000005841255));
#767=CARTESIAN_POINT('',(184.201317911015,189.151065379321,411.000005841255));
#768=CARTESIAN_POINT('',(138.946483915076,143.896231383382,411.000005841255));
#769=CARTESIAN_POINT('Origin',(184.201317911015,189.151065379321,409.000005841255));
#770=CARTESIAN_POINT('Origin',(135.58772670444,147.254988594018,411.000005841255));
#771=CARTESIAN_POINT('',(176.06958992737,197.282793362966,411.000005841255));
#772=CARTESIAN_POINT('',(142.482017115049,163.695220550646,411.000005841255));
#773=CARTESIAN_POINT('',(180.842560700379,192.509822589957,411.000005841255));
#774=CARTESIAN_POINT('Origin',(92.4542130520605,104.121474941639,401.500005841255));
#775=CARTESIAN_POINT('',(87.6812422790513,108.894445714648,392.));
#776=CARTESIAN_POINT('',(95.371028524455,101.204659469244,392.));
#777=CARTESIAN_POINT('',(87.6812422790513,108.894445714648,402.000002920628));
#778=CARTESIAN_POINT('Origin',(105.535689894858,93.8684280052796,409.000005841255));
#779=CARTESIAN_POINT('',(100.762719121848,95.8129716535426,409.000005841255));
#780=CARTESIAN_POINT('',(102.176932684221,97.2271852159157,411.000005841255));
#781=CARTESIAN_POINT('Origin',(102.176932684221,97.2271852159157,409.000005841255));
#782=CARTESIAN_POINT('',(110.308660667867,89.0954572322704,411.000005841255));
#783=CARTESIAN_POINT('',(105.535689894858,93.8684280052796,411.000005841255));
#784=CARTESIAN_POINT('',(108.894447105494,87.6812436698973,409.000005841255));
#785=CARTESIAN_POINT('Origin',(110.308660667867,89.0954572322704,409.000005841255));
#786=CARTESIAN_POINT('',(104.121476332485,92.4542144429065,409.000005841255));
#787=CARTESIAN_POINT('Origin',(102.176932684221,97.2271852159157,401.500005841255));
#788=CARTESIAN_POINT('',(100.762719121848,98.6413987782888,409.000005841255));
#789=CARTESIAN_POINT('Origin',(102.176932684221,97.2271852159157,409.000005841255));
#790=CARTESIAN_POINT('',(100.762719121848,95.8129716535426,392.));
#791=CARTESIAN_POINT('',(100.762719121848,95.8129716535426,401.500005841255));
#792=CARTESIAN_POINT('',(100.762719121848,98.6413987782888,392.));
#793=CARTESIAN_POINT('Origin',(102.176932684221,97.2271852159157,392.));
#794=CARTESIAN_POINT('',(100.762719121848,98.6413987782888,401.500005841255));
#795=CARTESIAN_POINT('Origin',(102.176932684221,97.2271852159157,409.000005841255));
#796=CARTESIAN_POINT('Origin',(102.176932684221,97.2271852159157,409.000005841255));
#797=CARTESIAN_POINT('Origin',(147.254989984864,135.587728095286,411.000005841255));
#798=CARTESIAN_POINT('',(189.151066770167,184.201319301861,411.000005841255));
#799=CARTESIAN_POINT('',(143.896232774228,138.946485305922,411.000005841255));
#800=CARTESIAN_POINT('',(197.282794753812,176.069591318216,411.000005841255));
#801=CARTESIAN_POINT('',(192.509823980803,180.842562091225,411.000005841255));
#802=CARTESIAN_POINT('',(163.695221246068,142.482017810472,411.000005841255));
#803=CARTESIAN_POINT('Origin',(143.896232774228,138.946485305922,409.000005841255));
#804=CARTESIAN_POINT('',(187.736853207794,185.615532864234,409.000005841255));
#805=CARTESIAN_POINT('',(142.482019211855,140.360698868295,409.000005841255));
#806=CARTESIAN_POINT('Origin',(189.151066770167,184.201319301861,409.000005841255));
#807=CARTESIAN_POINT('Origin',(142.482019211855,140.360698868295,401.500005841255));
#808=CARTESIAN_POINT('',(187.736853207794,185.615532864234,392.));
#809=CARTESIAN_POINT('',(154.14927970005,152.02795935649,392.));
#810=CARTESIAN_POINT('',(187.736853207794,185.615532864234,401.500005841255));
#811=CARTESIAN_POINT('Origin',(104.121476332485,92.4542144429065,401.500005841255));
#812=CARTESIAN_POINT('',(108.894447105494,87.6812436698973,392.));
#813=CARTESIAN_POINT('',(108.894447105494,87.6812436698973,402.000002920628));
#814=CARTESIAN_POINT('',(101.20466086009,95.371029915301,392.));
#815=CARTESIAN_POINT('Origin',(175.362481734264,154.149278298667,402.5));
#816=CARTESIAN_POINT('',(107.480230740355,86.2670273047588,392.));
#817=CARTESIAN_POINT('',(107.480230740355,86.2670273047588,402.5));
#818=CARTESIAN_POINT('',(175.362481734264,154.149278298667,392.));
#819=CARTESIAN_POINT('',(198.697008316185,177.483804880589,409.000005841255));
#820=CARTESIAN_POINT('Origin',(197.282794753812,176.069591318216,409.000005841255));
#821=CARTESIAN_POINT('',(198.697008316185,177.483804880589,392.000005841255));
#822=CARTESIAN_POINT('',(198.697008316185,177.483804880589,402.000002920628));
#823=CARTESIAN_POINT('',(200.111219075793,178.898015640197,392.));
#824=CARTESIAN_POINT('',(175.362481734264,154.149278298667,392.));
#825=CARTESIAN_POINT('',(200.111219075793,178.898015640197,413.));
#826=CARTESIAN_POINT('',(200.111219075793,178.898015640197,402.5));
#827=CARTESIAN_POINT('',(175.362481734264,154.149278298667,413.));
#828=CARTESIAN_POINT('Origin',(189.151066770167,184.201319301861,409.000005841255));
#829=CARTESIAN_POINT('',(190.56528033254,185.615532864234,409.000005841255));
#830=CARTESIAN_POINT('Origin',(189.151066770167,184.201319301861,409.000005841255));
#831=CARTESIAN_POINT('Origin',(189.151066770167,184.201319301861,409.000005841255));
#832=CARTESIAN_POINT('Origin',(189.151066770167,184.201319301861,401.500005841255));
#833=CARTESIAN_POINT('',(190.56528033254,185.615532864234,392.));
#834=CARTESIAN_POINT('Origin',(189.151066770167,184.201319301861,392.));
#835=CARTESIAN_POINT('',(190.56528033254,185.615532864234,401.500005841255));
#836=CARTESIAN_POINT('Origin',(192.509823980803,180.842562091225,409.000005841255));
#837=CARTESIAN_POINT('',(193.924037543176,182.256775653598,409.000005841255));
#838=CARTESIAN_POINT('Origin',(184.201317911015,189.151065379321,409.000005841255));
#839=CARTESIAN_POINT('',(185.615531473388,190.565278941694,409.000005841255));
#840=CARTESIAN_POINT('Origin',(184.201317911015,189.151065379321,409.000005841255));
#841=CARTESIAN_POINT('Origin',(184.201317911015,189.151065379321,409.000005841255));
#842=CARTESIAN_POINT('Origin',(184.201317911015,189.151065379321,401.500005841255));
#843=CARTESIAN_POINT('',(185.615531473388,190.565278941694,392.));
#844=CARTESIAN_POINT('Origin',(184.201317911015,189.151065379321,392.));
#845=CARTESIAN_POINT('',(185.615531473388,190.565278941694,401.500005841255));
#846=CARTESIAN_POINT('Origin',(180.842560700379,192.509822589957,409.000005841255));
#847=CARTESIAN_POINT('',(177.483803489743,198.697006925339,409.000005841255));
#848=CARTESIAN_POINT('Origin',(176.06958992737,197.282793362966,409.000005841255));
#849=CARTESIAN_POINT('',(182.256774262752,193.92403615233,409.000005841255));
#850=CARTESIAN_POINT('Origin',(182.256774262752,193.92403615233,401.500005841255));
#851=CARTESIAN_POINT('',(177.483803489743,198.697006925339,392.000005841255));
#852=CARTESIAN_POINT('',(177.483803489743,198.697006925339,402.000002920628));
#853=CARTESIAN_POINT('',(185.173589735147,191.007220679936,392.));
#854=CARTESIAN_POINT('Origin',(164.755880016466,164.755880016466,392.));
#855=CARTESIAN_POINT('',(178.898015640196,200.111219075793,392.));
#856=CARTESIAN_POINT('',(154.149278298667,175.362481734264,392.));
#857=CARTESIAN_POINT('',(189.504617357995,189.504617357995,392.));
#858=CARTESIAN_POINT('',(191.007222070782,185.173591125993,392.));
#859=CARTESIAN_POINT('',(86.2670273047588,107.480230740355,392.));
#860=CARTESIAN_POINT('',(96.873629022557,96.873629022557,392.));
#861=CARTESIAN_POINT('',(154.149278298667,175.362481734264,392.));
#862=CARTESIAN_POINT('Origin',(193.924037543176,182.256775653598,401.500005841255));
#863=CARTESIAN_POINT('Origin',(164.755880016466,164.755880016466,413.));
#864=CARTESIAN_POINT('',(178.898015640196,200.111219075793,413.));
#865=CARTESIAN_POINT('',(154.149278298667,175.362481734264,413.));
#866=CARTESIAN_POINT('',(189.504617357995,189.504617357995,413.));
#867=CARTESIAN_POINT('Origin',(189.504617357995,189.504617357995,402.5));
#868=CARTESIAN_POINT('',(178.898015640196,200.111219075793,402.5));
#869=CARTESIAN_POINT('Origin',(96.873629022557,96.873629022557,402.5));
#870=CARTESIAN_POINT('',(86.2670273047588,107.480230740355,402.5));
#871=CARTESIAN_POINT('Origin',(154.149278298667,175.362481734264,402.5));
#872=UNCERTAINTY_MEASURE_WITH_UNIT(LENGTH_MEASURE(0.01),#876,
'DISTANCE_ACCURACY_VALUE',
'Maximum model space distance between geometric entities at asserted c
onnectivities');
#873=UNCERTAINTY_MEASURE_WITH_UNIT(LENGTH_MEASURE(0.01),#876,
'DISTANCE_ACCURACY_VALUE',
'Maximum model space distance between geometric entities at asserted c
onnectivities');
#874=(
GEOMETRIC_REPRESENTATION_CONTEXT(3)
GLOBAL_UNCERTAINTY_ASSIGNED_CONTEXT((#872))
GLOBAL_UNIT_ASSIGNED_CONTEXT((#876,#877,#878))
REPRESENTATION_CONTEXT('','3D')
);
#875=(
GEOMETRIC_REPRESENTATION_CONTEXT(3)
GLOBAL_UNCERTAINTY_ASSIGNED_CONTEXT((#873))
GLOBAL_UNIT_ASSIGNED_CONTEXT((#876,#877,#878))
REPRESENTATION_CONTEXT('','3D')
);
#876=(
LENGTH_UNIT()
NAMED_UNIT(*)
SI_UNIT(.MILLI.,.METRE.)
);
#877=(
NAMED_UNIT(*)
PLANE_ANGLE_UNIT()
SI_UNIT($,.RADIAN.)
);
#878=(
NAMED_UNIT(*)
SI_UNIT($,.STERADIAN.)
SOLID_ANGLE_UNIT()
);
#879=SHAPE_DEFINITION_REPRESENTATION(#880,#881);
#880=PRODUCT_DEFINITION_SHAPE('',$,#883);
#881=SHAPE_REPRESENTATION('',(#520),#874);
#882=PRODUCT_DEFINITION_CONTEXT('part definition',#887,'design');
#883=PRODUCT_DEFINITION('HTD3M-270t-20t-1068mm-Chassis-V3',
'HTD3M-270t-20t-1068mm-Chassis-V3 v70',#884,#882);
#884=PRODUCT_DEFINITION_FORMATION('',$,#889);
#885=PRODUCT_RELATED_PRODUCT_CATEGORY(
'HTD3M-270t-20t-1068mm-Chassis-V3 v70',
'HTD3M-270t-20t-1068mm-Chassis-V3 v70',(#889));
#886=APPLICATION_PROTOCOL_DEFINITION('international standard',
'automotive_design',2009,#887);
#887=APPLICATION_CONTEXT(
'Core Data for Automotive Mechanical Design Process');
#888=PRODUCT_CONTEXT('part definition',#887,'mechanical');
#889=PRODUCT('HTD3M-270t-20t-1068mm-Chassis-V3',
'HTD3M-270t-20t-1068mm-Chassis-V3 v70',$,(#888));
#890=PRESENTATION_STYLE_ASSIGNMENT((#898));
#891=PRESENTATION_STYLE_ASSIGNMENT((#899));
#892=PRESENTATION_STYLE_ASSIGNMENT((#900));
#893=PRESENTATION_STYLE_ASSIGNMENT((#901));
#894=PRESENTATION_STYLE_ASSIGNMENT((#902));
#895=PRESENTATION_STYLE_ASSIGNMENT((#903));
#896=PRESENTATION_STYLE_ASSIGNMENT((#904));
#897=PRESENTATION_STYLE_ASSIGNMENT((#905));
#898=SURFACE_STYLE_USAGE(.BOTH.,#906);
#899=SURFACE_STYLE_USAGE(.BOTH.,#907);
#900=SURFACE_STYLE_USAGE(.BOTH.,#908);
#901=SURFACE_STYLE_USAGE(.BOTH.,#909);
#902=SURFACE_STYLE_USAGE(.BOTH.,#910);
#903=SURFACE_STYLE_USAGE(.BOTH.,#911);
#904=SURFACE_STYLE_USAGE(.BOTH.,#912);
#905=SURFACE_STYLE_USAGE(.BOTH.,#913);
#906=SURFACE_SIDE_STYLE('',(#914));
#907=SURFACE_SIDE_STYLE('',(#915));
#908=SURFACE_SIDE_STYLE('',(#916));
#909=SURFACE_SIDE_STYLE('',(#917));
#910=SURFACE_SIDE_STYLE('',(#918));
#911=SURFACE_SIDE_STYLE('',(#919));
#912=SURFACE_SIDE_STYLE('',(#920));
#913=SURFACE_SIDE_STYLE('',(#921));
#914=SURFACE_STYLE_FILL_AREA(#922);
#915=SURFACE_STYLE_FILL_AREA(#923);
#916=SURFACE_STYLE_FILL_AREA(#924);
#917=SURFACE_STYLE_FILL_AREA(#925);
#918=SURFACE_STYLE_FILL_AREA(#926);
#919=SURFACE_STYLE_FILL_AREA(#927);
#920=SURFACE_STYLE_FILL_AREA(#928);
#921=SURFACE_STYLE_FILL_AREA(#929);
#922=FILL_AREA_STYLE('Opaque(175,143,175)',(#930));
#923=FILL_AREA_STYLE('Opaque(159,175,143)',(#931));
#924=FILL_AREA_STYLE('Opaque(143,143,175)',(#932));
#925=FILL_AREA_STYLE('Opaque(175,159,143)',(#933));
#926=FILL_AREA_STYLE('Opaque(143,175,175)',(#934));
#927=FILL_AREA_STYLE('Steel - Satin',(#935));
#928=FILL_AREA_STYLE('Plastic - Translucent Matte (Red)',(#936));
#929=FILL_AREA_STYLE('Steel - Satin',(#937));
#930=FILL_AREA_STYLE_COLOUR('Opaque(175,143,175)',#938);
#931=FILL_AREA_STYLE_COLOUR('Opaque(159,175,143)',#939);
#932=FILL_AREA_STYLE_COLOUR('Opaque(143,143,175)',#940);
#933=FILL_AREA_STYLE_COLOUR('Opaque(175,159,143)',#941);
#934=FILL_AREA_STYLE_COLOUR('Opaque(143,175,175)',#942);
#935=FILL_AREA_STYLE_COLOUR('Steel - Satin',#943);
#936=FILL_AREA_STYLE_COLOUR('Plastic - Translucent Matte (Red)',#944);
#937=FILL_AREA_STYLE_COLOUR('Steel - Satin',#945);
#938=COLOUR_RGB('Opaque(175,143,175)',0.686274509803922,0.56078431372549,
0.686274509803922);
#939=COLOUR_RGB('Opaque(159,175,143)',0.623529411764706,0.686274509803922,
0.56078431372549);
#940=COLOUR_RGB('Opaque(143,143,175)',0.56078431372549,0.56078431372549,
0.686274509803922);
#941=COLOUR_RGB('Opaque(175,159,143)',0.686274509803922,0.623529411764706,
0.56078431372549);
#942=COLOUR_RGB('Opaque(143,175,175)',0.56078431372549,0.686274509803922,
0.686274509803922);
#943=COLOUR_RGB('Steel - Satin',0.627450980392157,0.627450980392157,0.627450980392157);
#944=COLOUR_RGB('Plastic - Translucent Matte (Red)',0.768627450980392,0.207843137254902,
0.152941176470588);
#945=COLOUR_RGB('Steel - Satin',0.552941176470588,0.227450980392157,0.227450980392157);
ENDSEC;
END-ISO-10303-21;
