ISO-10303-21;
HEADER;
/* Generated by software containing ST-Developer
 * from STEP Tools, Inc. (www.steptools.com) 
 */

FILE_DESCRIPTION(
/* description */ (''),
/* implementation_level */ '2;1');

FILE_NAME(
/* name */ 'CableChain-Mount-Chassis-Side.step',
/* time_stamp */ '2026-04-07T14:05:33+02:00',
/* author */ (''),
/* organization */ (''),
/* preprocessor_version */ 'ST-DEVELOPER v20.1',
/* originating_system */ 'Autodesk Translation Framework v14.24.0.0',
/* authorisation */ '');

FILE_SCHEMA (('AUTOMOTIVE_DESIGN { 1 0 10303 214 3 1 1 }'));
ENDSEC;

DATA;
#10=MECHANICAL_DESIGN_GEOMETRIC_PRESENTATION_REPRESENTATION('',(#13),#784);
#11=SHAPE_REPRESENTATION_RELATIONSHIP('SRR','None',#790,#12);
#12=ADVANCED_BREP_SHAPE_REPRESENTATION('',(#14),#783);
#13=STYLED_ITEM('',(#805),#14);
#14=MANIFOLD_SOLID_BREP('CableChain-mount- Chassis-side',#447);
#15=FACE_BOUND('',#73,.T.);
#16=FACE_BOUND('',#74,.T.);
#17=FACE_BOUND('',#84,.T.);
#18=FACE_BOUND('',#85,.T.);
#19=(
BOUNDED_SURFACE()
B_SPLINE_SURFACE(2,2,((#660,#661,#662),(#663,#664,#665),(#666,#667,#668)),
 .UNSPECIFIED.,.F.,.F.,.F.)
B_SPLINE_SURFACE_WITH_KNOTS((3,3),(3,3),(-8.4052224208387E-17,1.5707963267949),
(-3.14159265358979,-1.5707963267949),.UNSPECIFIED.)
GEOMETRIC_REPRESENTATION_ITEM()
RATIONAL_B_SPLINE_SURFACE(((1.,0.707106781186548,1.),(0.707106781186545,
0.499999999999998,0.707106781186545),(1.,0.707106781186548,1.)))
REPRESENTATION_ITEM('')
SURFACE()
);
#20=(
BOUNDED_SURFACE()
B_SPLINE_SURFACE(2,2,((#707,#708,#709),(#710,#711,#712),(#713,#714,#715)),
 .UNSPECIFIED.,.F.,.F.,.F.)
B_SPLINE_SURFACE_WITH_KNOTS((3,3),(3,3),(-1.5707963267949,1.38818552439285E-15),
(-7.46531525232109E-32,1.44492030634212),.UNSPECIFIED.)
GEOMETRIC_REPRESENTATION_ITEM()
RATIONAL_B_SPLINE_SURFACE(((1.,0.750181268389619,1.),(0.707106781186554,
0.53045826199743,0.707106781186554),(1.,0.750181268389619,1.)))
REPRESENTATION_ITEM('')
SURFACE()
);
#21=PLANE('',#455);
#22=PLANE('',#478);
#23=PLANE('',#483);
#24=PLANE('',#484);
#25=PLANE('',#485);
#26=PLANE('',#490);
#27=PLANE('',#491);
#28=PLANE('',#492);
#29=PLANE('',#493);
#30=PLANE('',#494);
#31=PLANE('',#495);
#32=B_SPLINE_CURVE_WITH_KNOTS('',3,(#642,#643,#644,#645,#646,#647,#648,
#649,#650,#651),.UNSPECIFIED.,.F.,.F.,(4,2,2,2,4),(0.,0.218618771009697,
0.437237542019393,0.591267414220341,0.728804575713189),.UNSPECIFIED.);
#33=TOROIDAL_SURFACE('',#452,7.,4.);
#34=TOROIDAL_SURFACE('',#462,6.99999999999998,4.);
#35=FACE_OUTER_BOUND('',#60,.T.);
#36=FACE_OUTER_BOUND('',#61,.T.);
#37=FACE_OUTER_BOUND('',#62,.T.);
#38=FACE_OUTER_BOUND('',#63,.T.);
#39=FACE_OUTER_BOUND('',#64,.T.);
#40=FACE_OUTER_BOUND('',#65,.T.);
#41=FACE_OUTER_BOUND('',#66,.T.);
#42=FACE_OUTER_BOUND('',#67,.T.);
#43=FACE_OUTER_BOUND('',#68,.T.);
#44=FACE_OUTER_BOUND('',#69,.T.);
#45=FACE_OUTER_BOUND('',#70,.T.);
#46=FACE_OUTER_BOUND('',#71,.T.);
#47=FACE_OUTER_BOUND('',#72,.T.);
#48=FACE_OUTER_BOUND('',#75,.T.);
#49=FACE_OUTER_BOUND('',#76,.T.);
#50=FACE_OUTER_BOUND('',#77,.T.);
#51=FACE_OUTER_BOUND('',#78,.T.);
#52=FACE_OUTER_BOUND('',#79,.T.);
#53=FACE_OUTER_BOUND('',#80,.T.);
#54=FACE_OUTER_BOUND('',#81,.T.);
#55=FACE_OUTER_BOUND('',#82,.T.);
#56=FACE_OUTER_BOUND('',#83,.T.);
#57=FACE_OUTER_BOUND('',#86,.T.);
#58=FACE_OUTER_BOUND('',#87,.T.);
#59=FACE_OUTER_BOUND('',#88,.T.);
#60=EDGE_LOOP('',(#288,#289,#290,#291));
#61=EDGE_LOOP('',(#292,#293,#294,#295));
#62=EDGE_LOOP('',(#296,#297,#298,#299,#300));
#63=EDGE_LOOP('',(#301,#302,#303,#304));
#64=EDGE_LOOP('',(#305,#306,#307,#308));
#65=EDGE_LOOP('',(#309,#310,#311,#312));
#66=EDGE_LOOP('',(#313,#314,#315,#316));
#67=EDGE_LOOP('',(#317,#318,#319,#320));
#68=EDGE_LOOP('',(#321,#322,#323,#324));
#69=EDGE_LOOP('',(#325,#326,#327,#328));
#70=EDGE_LOOP('',(#329,#330,#331,#332));
#71=EDGE_LOOP('',(#333,#334,#335,#336));
#72=EDGE_LOOP('',(#337,#338,#339,#340,#341,#342));
#73=EDGE_LOOP('',(#343));
#74=EDGE_LOOP('',(#344));
#75=EDGE_LOOP('',(#345,#346,#347,#348));
#76=EDGE_LOOP('',(#349,#350,#351,#352,#353,#354,#355));
#77=EDGE_LOOP('',(#356,#357,#358,#359,#360));
#78=EDGE_LOOP('',(#361,#362,#363,#364));
#79=EDGE_LOOP('',(#365,#366,#367,#368));
#80=EDGE_LOOP('',(#369,#370,#371,#372));
#81=EDGE_LOOP('',(#373,#374,#375,#376,#377,#378));
#82=EDGE_LOOP('',(#379,#380,#381,#382));
#83=EDGE_LOOP('',(#383,#384,#385,#386,#387,#388,#389,#390,#391));
#84=EDGE_LOOP('',(#392));
#85=EDGE_LOOP('',(#393));
#86=EDGE_LOOP('',(#394,#395,#396,#397,#398,#399,#400,#401,#402));
#87=EDGE_LOOP('',(#403,#404,#405,#406));
#88=EDGE_LOOP('',(#407,#408,#409,#410,#411));
#89=LINE('',#635,#126);
#90=LINE('',#638,#127);
#91=LINE('',#656,#128);
#92=LINE('',#658,#129);
#93=LINE('',#659,#130);
#94=LINE('',#681,#131);
#95=LINE('',#682,#132);
#96=LINE('',#693,#133);
#97=LINE('',#694,#134);
#98=LINE('',#699,#135);
#99=LINE('',#700,#136);
#100=LINE('',#705,#137);
#101=LINE('',#706,#138);
#102=LINE('',#720,#139);
#103=LINE('',#723,#140);
#104=LINE('',#726,#141);
#105=LINE('',#729,#142);
#106=LINE('',#732,#143);
#107=LINE('',#734,#144);
#108=LINE('',#736,#145);
#109=LINE('',#737,#146);
#110=LINE('',#744,#147);
#111=LINE('',#748,#148);
#112=LINE('',#749,#149);
#113=LINE('',#752,#150);
#114=LINE('',#753,#151);
#115=LINE('',#755,#152);
#116=LINE('',#759,#153);
#117=LINE('',#763,#154);
#118=LINE('',#766,#155);
#119=LINE('',#767,#156);
#120=LINE('',#770,#157);
#121=LINE('',#771,#158);
#122=LINE('',#774,#159);
#123=LINE('',#775,#160);
#124=LINE('',#776,#161);
#125=LINE('',#779,#162);
#126=VECTOR('',#502,10.);
#127=VECTOR('',#505,10.);
#128=VECTOR('',#514,10.);
#129=VECTOR('',#515,10.);
#130=VECTOR('',#516,10.);
#131=VECTOR('',#529,10.);
#132=VECTOR('',#530,10.);
#133=VECTOR('',#543,10.);
#134=VECTOR('',#544,10.);
#135=VECTOR('',#549,10.);
#136=VECTOR('',#550,10.);
#137=VECTOR('',#555,10.);
#138=VECTOR('',#556,10.);
#139=VECTOR('',#563,10.);
#140=VECTOR('',#566,10.);
#141=VECTOR('',#569,10.);
#142=VECTOR('',#572,10.);
#143=VECTOR('',#575,10.);
#144=VECTOR('',#576,10.);
#145=VECTOR('',#577,10.);
#146=VECTOR('',#578,10.);
#147=VECTOR('',#585,10.);
#148=VECTOR('',#590,10.);
#149=VECTOR('',#591,10.);
#150=VECTOR('',#594,10.);
#151=VECTOR('',#595,10.);
#152=VECTOR('',#598,10.);
#153=VECTOR('',#603,1.25);
#154=VECTOR('',#608,1.25);
#155=VECTOR('',#611,10.);
#156=VECTOR('',#612,10.);
#157=VECTOR('',#615,10.);
#158=VECTOR('',#616,10.);
#159=VECTOR('',#619,10.);
#160=VECTOR('',#620,10.);
#161=VECTOR('',#621,10.);
#162=VECTOR('',#626,10.);
#163=CIRCLE('',#450,4.);
#164=CIRCLE('',#451,3.99999999999999);
#165=CIRCLE('',#453,3.);
#166=CIRCLE('',#454,7.);
#167=CIRCLE('',#456,3.99999999999999);
#168=CIRCLE('',#457,5.);
#169=CIRCLE('',#458,3.99999999999999);
#170=CIRCLE('',#459,1.);
#171=CIRCLE('',#461,3.99999999999999);
#172=CIRCLE('',#463,4.);
#173=CIRCLE('',#464,3.00000000000001);
#174=CIRCLE('',#465,3.99999999999999);
#175=CIRCLE('',#466,7.00000000000001);
#176=CIRCLE('',#469,4.);
#177=CIRCLE('',#471,4.);
#178=CIRCLE('',#472,5.);
#179=CIRCLE('',#473,1.);
#180=CIRCLE('',#475,4.);
#181=CIRCLE('',#477,5.);
#182=CIRCLE('',#479,1.25);
#183=CIRCLE('',#480,1.25);
#184=CIRCLE('',#482,5.);
#185=CIRCLE('',#487,1.25);
#186=CIRCLE('',#489,1.25);
#187=VERTEX_POINT('',#631);
#188=VERTEX_POINT('',#632);
#189=VERTEX_POINT('',#634);
#190=VERTEX_POINT('',#636);
#191=VERTEX_POINT('',#640);
#192=VERTEX_POINT('',#641);
#193=VERTEX_POINT('',#655);
#194=VERTEX_POINT('',#657);
#195=VERTEX_POINT('',#669);
#196=VERTEX_POINT('',#670);
#197=VERTEX_POINT('',#672);
#198=VERTEX_POINT('',#674);
#199=VERTEX_POINT('',#678);
#200=VERTEX_POINT('',#679);
#201=VERTEX_POINT('',#684);
#202=VERTEX_POINT('',#685);
#203=VERTEX_POINT('',#687);
#204=VERTEX_POINT('',#689);
#205=VERTEX_POINT('',#696);
#206=VERTEX_POINT('',#697);
#207=VERTEX_POINT('',#702);
#208=VERTEX_POINT('',#703);
#209=VERTEX_POINT('',#719);
#210=VERTEX_POINT('',#721);
#211=VERTEX_POINT('',#725);
#212=VERTEX_POINT('',#727);
#213=VERTEX_POINT('',#731);
#214=VERTEX_POINT('',#733);
#215=VERTEX_POINT('',#735);
#216=VERTEX_POINT('',#738);
#217=VERTEX_POINT('',#740);
#218=VERTEX_POINT('',#743);
#219=VERTEX_POINT('',#747);
#220=VERTEX_POINT('',#751);
#221=VERTEX_POINT('',#757);
#222=VERTEX_POINT('',#761);
#223=VERTEX_POINT('',#765);
#224=VERTEX_POINT('',#769);
#225=VERTEX_POINT('',#773);
#226=EDGE_CURVE('',#187,#188,#163,.T.);
#227=EDGE_CURVE('',#188,#189,#89,.T.);
#228=EDGE_CURVE('',#189,#190,#164,.T.);
#229=EDGE_CURVE('',#190,#187,#90,.T.);
#230=EDGE_CURVE('',#191,#192,#32,.F.);
#231=EDGE_CURVE('',#192,#190,#165,.T.);
#232=EDGE_CURVE('',#189,#191,#166,.T.);
#233=EDGE_CURVE('',#193,#188,#91,.T.);
#234=EDGE_CURVE('',#193,#194,#92,.F.);
#235=EDGE_CURVE('',#191,#194,#93,.T.);
#236=EDGE_CURVE('',#195,#196,#167,.T.);
#237=EDGE_CURVE('',#196,#197,#168,.T.);
#238=EDGE_CURVE('',#197,#198,#169,.T.);
#239=EDGE_CURVE('',#198,#195,#170,.T.);
#240=EDGE_CURVE('',#199,#200,#171,.T.);
#241=EDGE_CURVE('',#200,#196,#94,.T.);
#242=EDGE_CURVE('',#195,#199,#95,.T.);
#243=EDGE_CURVE('',#201,#202,#172,.T.);
#244=EDGE_CURVE('',#203,#201,#173,.F.);
#245=EDGE_CURVE('',#204,#203,#174,.T.);
#246=EDGE_CURVE('',#204,#202,#175,.T.);
#247=EDGE_CURVE('',#192,#203,#96,.T.);
#248=EDGE_CURVE('',#201,#190,#97,.T.);
#249=EDGE_CURVE('',#205,#206,#176,.T.);
#250=EDGE_CURVE('',#206,#204,#98,.T.);
#251=EDGE_CURVE('',#203,#205,#99,.T.);
#252=EDGE_CURVE('',#207,#208,#177,.T.);
#253=EDGE_CURVE('',#208,#201,#100,.T.);
#254=EDGE_CURVE('',#202,#207,#101,.T.);
#255=EDGE_CURVE('',#205,#200,#178,.T.);
#256=EDGE_CURVE('',#199,#206,#179,.T.);
#257=EDGE_CURVE('',#197,#209,#102,.T.);
#258=EDGE_CURVE('',#209,#210,#180,.T.);
#259=EDGE_CURVE('',#210,#198,#103,.T.);
#260=EDGE_CURVE('',#196,#211,#104,.T.);
#261=EDGE_CURVE('',#211,#212,#181,.F.);
#262=EDGE_CURVE('',#212,#197,#105,.T.);
#263=EDGE_CURVE('',#213,#200,#106,.T.);
#264=EDGE_CURVE('',#213,#214,#107,.T.);
#265=EDGE_CURVE('',#215,#214,#108,.T.);
#266=EDGE_CURVE('',#215,#211,#109,.T.);
#267=EDGE_CURVE('',#216,#216,#182,.T.);
#268=EDGE_CURVE('',#217,#217,#183,.T.);
#269=EDGE_CURVE('',#205,#218,#110,.T.);
#270=EDGE_CURVE('',#218,#213,#184,.T.);
#271=EDGE_CURVE('',#194,#219,#111,.F.);
#272=EDGE_CURVE('',#219,#218,#112,.F.);
#273=EDGE_CURVE('',#220,#219,#113,.T.);
#274=EDGE_CURVE('',#214,#220,#114,.T.);
#275=EDGE_CURVE('',#187,#208,#115,.T.);
#276=EDGE_CURVE('',#221,#221,#185,.T.);
#277=EDGE_CURVE('',#221,#216,#116,.T.);
#278=EDGE_CURVE('',#222,#222,#186,.T.);
#279=EDGE_CURVE('',#222,#217,#117,.T.);
#280=EDGE_CURVE('',#207,#223,#118,.T.);
#281=EDGE_CURVE('',#223,#193,#119,.T.);
#282=EDGE_CURVE('',#212,#224,#120,.T.);
#283=EDGE_CURVE('',#224,#209,#121,.F.);
#284=EDGE_CURVE('',#225,#224,#122,.F.);
#285=EDGE_CURVE('',#220,#225,#123,.T.);
#286=EDGE_CURVE('',#223,#210,#124,.T.);
#287=EDGE_CURVE('',#225,#215,#125,.T.);
#288=ORIENTED_EDGE('',*,*,#226,.T.);
#289=ORIENTED_EDGE('',*,*,#227,.T.);
#290=ORIENTED_EDGE('',*,*,#228,.T.);
#291=ORIENTED_EDGE('',*,*,#229,.T.);
#292=ORIENTED_EDGE('',*,*,#230,.T.);
#293=ORIENTED_EDGE('',*,*,#231,.T.);
#294=ORIENTED_EDGE('',*,*,#228,.F.);
#295=ORIENTED_EDGE('',*,*,#232,.T.);
#296=ORIENTED_EDGE('',*,*,#232,.F.);
#297=ORIENTED_EDGE('',*,*,#227,.F.);
#298=ORIENTED_EDGE('',*,*,#233,.F.);
#299=ORIENTED_EDGE('',*,*,#234,.T.);
#300=ORIENTED_EDGE('',*,*,#235,.F.);
#301=ORIENTED_EDGE('',*,*,#236,.T.);
#302=ORIENTED_EDGE('',*,*,#237,.T.);
#303=ORIENTED_EDGE('',*,*,#238,.T.);
#304=ORIENTED_EDGE('',*,*,#239,.T.);
#305=ORIENTED_EDGE('',*,*,#240,.T.);
#306=ORIENTED_EDGE('',*,*,#241,.T.);
#307=ORIENTED_EDGE('',*,*,#236,.F.);
#308=ORIENTED_EDGE('',*,*,#242,.T.);
#309=ORIENTED_EDGE('',*,*,#243,.F.);
#310=ORIENTED_EDGE('',*,*,#244,.F.);
#311=ORIENTED_EDGE('',*,*,#245,.F.);
#312=ORIENTED_EDGE('',*,*,#246,.T.);
#313=ORIENTED_EDGE('',*,*,#231,.F.);
#314=ORIENTED_EDGE('',*,*,#247,.T.);
#315=ORIENTED_EDGE('',*,*,#244,.T.);
#316=ORIENTED_EDGE('',*,*,#248,.T.);
#317=ORIENTED_EDGE('',*,*,#249,.T.);
#318=ORIENTED_EDGE('',*,*,#250,.T.);
#319=ORIENTED_EDGE('',*,*,#245,.T.);
#320=ORIENTED_EDGE('',*,*,#251,.T.);
#321=ORIENTED_EDGE('',*,*,#252,.T.);
#322=ORIENTED_EDGE('',*,*,#253,.T.);
#323=ORIENTED_EDGE('',*,*,#243,.T.);
#324=ORIENTED_EDGE('',*,*,#254,.T.);
#325=ORIENTED_EDGE('',*,*,#249,.F.);
#326=ORIENTED_EDGE('',*,*,#255,.T.);
#327=ORIENTED_EDGE('',*,*,#240,.F.);
#328=ORIENTED_EDGE('',*,*,#256,.T.);
#329=ORIENTED_EDGE('',*,*,#238,.F.);
#330=ORIENTED_EDGE('',*,*,#257,.T.);
#331=ORIENTED_EDGE('',*,*,#258,.T.);
#332=ORIENTED_EDGE('',*,*,#259,.T.);
#333=ORIENTED_EDGE('',*,*,#237,.F.);
#334=ORIENTED_EDGE('',*,*,#260,.T.);
#335=ORIENTED_EDGE('',*,*,#261,.T.);
#336=ORIENTED_EDGE('',*,*,#262,.T.);
#337=ORIENTED_EDGE('',*,*,#241,.F.);
#338=ORIENTED_EDGE('',*,*,#263,.F.);
#339=ORIENTED_EDGE('',*,*,#264,.T.);
#340=ORIENTED_EDGE('',*,*,#265,.F.);
#341=ORIENTED_EDGE('',*,*,#266,.T.);
#342=ORIENTED_EDGE('',*,*,#260,.F.);
#343=ORIENTED_EDGE('',*,*,#267,.T.);
#344=ORIENTED_EDGE('',*,*,#268,.T.);
#345=ORIENTED_EDGE('',*,*,#255,.F.);
#346=ORIENTED_EDGE('',*,*,#269,.T.);
#347=ORIENTED_EDGE('',*,*,#270,.T.);
#348=ORIENTED_EDGE('',*,*,#263,.T.);
#349=ORIENTED_EDGE('',*,*,#251,.F.);
#350=ORIENTED_EDGE('',*,*,#247,.F.);
#351=ORIENTED_EDGE('',*,*,#230,.F.);
#352=ORIENTED_EDGE('',*,*,#235,.T.);
#353=ORIENTED_EDGE('',*,*,#271,.T.);
#354=ORIENTED_EDGE('',*,*,#272,.T.);
#355=ORIENTED_EDGE('',*,*,#269,.F.);
#356=ORIENTED_EDGE('',*,*,#270,.F.);
#357=ORIENTED_EDGE('',*,*,#272,.F.);
#358=ORIENTED_EDGE('',*,*,#273,.F.);
#359=ORIENTED_EDGE('',*,*,#274,.F.);
#360=ORIENTED_EDGE('',*,*,#264,.F.);
#361=ORIENTED_EDGE('',*,*,#229,.F.);
#362=ORIENTED_EDGE('',*,*,#248,.F.);
#363=ORIENTED_EDGE('',*,*,#253,.F.);
#364=ORIENTED_EDGE('',*,*,#275,.F.);
#365=ORIENTED_EDGE('',*,*,#276,.F.);
#366=ORIENTED_EDGE('',*,*,#277,.T.);
#367=ORIENTED_EDGE('',*,*,#267,.F.);
#368=ORIENTED_EDGE('',*,*,#277,.F.);
#369=ORIENTED_EDGE('',*,*,#278,.F.);
#370=ORIENTED_EDGE('',*,*,#279,.T.);
#371=ORIENTED_EDGE('',*,*,#268,.F.);
#372=ORIENTED_EDGE('',*,*,#279,.F.);
#373=ORIENTED_EDGE('',*,*,#226,.F.);
#374=ORIENTED_EDGE('',*,*,#275,.T.);
#375=ORIENTED_EDGE('',*,*,#252,.F.);
#376=ORIENTED_EDGE('',*,*,#280,.T.);
#377=ORIENTED_EDGE('',*,*,#281,.T.);
#378=ORIENTED_EDGE('',*,*,#233,.T.);
#379=ORIENTED_EDGE('',*,*,#257,.F.);
#380=ORIENTED_EDGE('',*,*,#262,.F.);
#381=ORIENTED_EDGE('',*,*,#282,.T.);
#382=ORIENTED_EDGE('',*,*,#283,.T.);
#383=ORIENTED_EDGE('',*,*,#258,.F.);
#384=ORIENTED_EDGE('',*,*,#283,.F.);
#385=ORIENTED_EDGE('',*,*,#284,.F.);
#386=ORIENTED_EDGE('',*,*,#285,.F.);
#387=ORIENTED_EDGE('',*,*,#273,.T.);
#388=ORIENTED_EDGE('',*,*,#271,.F.);
#389=ORIENTED_EDGE('',*,*,#234,.F.);
#390=ORIENTED_EDGE('',*,*,#281,.F.);
#391=ORIENTED_EDGE('',*,*,#286,.T.);
#392=ORIENTED_EDGE('',*,*,#276,.T.);
#393=ORIENTED_EDGE('',*,*,#278,.T.);
#394=ORIENTED_EDGE('',*,*,#239,.F.);
#395=ORIENTED_EDGE('',*,*,#259,.F.);
#396=ORIENTED_EDGE('',*,*,#286,.F.);
#397=ORIENTED_EDGE('',*,*,#280,.F.);
#398=ORIENTED_EDGE('',*,*,#254,.F.);
#399=ORIENTED_EDGE('',*,*,#246,.F.);
#400=ORIENTED_EDGE('',*,*,#250,.F.);
#401=ORIENTED_EDGE('',*,*,#256,.F.);
#402=ORIENTED_EDGE('',*,*,#242,.F.);
#403=ORIENTED_EDGE('',*,*,#287,.T.);
#404=ORIENTED_EDGE('',*,*,#265,.T.);
#405=ORIENTED_EDGE('',*,*,#274,.T.);
#406=ORIENTED_EDGE('',*,*,#285,.T.);
#407=ORIENTED_EDGE('',*,*,#284,.T.);
#408=ORIENTED_EDGE('',*,*,#282,.F.);
#409=ORIENTED_EDGE('',*,*,#261,.F.);
#410=ORIENTED_EDGE('',*,*,#266,.F.);
#411=ORIENTED_EDGE('',*,*,#287,.F.);
#412=CYLINDRICAL_SURFACE('',#449,4.);
#413=CYLINDRICAL_SURFACE('',#460,4.);
#414=CYLINDRICAL_SURFACE('',#467,3.);
#415=CYLINDRICAL_SURFACE('',#468,4.);
#416=CYLINDRICAL_SURFACE('',#470,4.);
#417=CYLINDRICAL_SURFACE('',#474,4.);
#418=CYLINDRICAL_SURFACE('',#476,5.);
#419=CYLINDRICAL_SURFACE('',#481,5.);
#420=CYLINDRICAL_SURFACE('',#486,1.25);
#421=CYLINDRICAL_SURFACE('',#488,1.25);
#422=ADVANCED_FACE('',(#35),#412,.T.);
#423=ADVANCED_FACE('',(#36),#33,.T.);
#424=ADVANCED_FACE('',(#37),#21,.F.);
#425=ADVANCED_FACE('',(#38),#19,.F.);
#426=ADVANCED_FACE('',(#39),#413,.T.);
#427=ADVANCED_FACE('',(#40),#34,.T.);
#428=ADVANCED_FACE('',(#41),#414,.F.);
#429=ADVANCED_FACE('',(#42),#415,.T.);
#430=ADVANCED_FACE('',(#43),#416,.T.);
#431=ADVANCED_FACE('',(#44),#20,.F.);
#432=ADVANCED_FACE('',(#45),#417,.T.);
#433=ADVANCED_FACE('',(#46),#418,.T.);
#434=ADVANCED_FACE('',(#47,#15,#16),#22,.F.);
#435=ADVANCED_FACE('',(#48),#419,.T.);
#436=ADVANCED_FACE('',(#49),#23,.T.);
#437=ADVANCED_FACE('',(#50),#24,.F.);
#438=ADVANCED_FACE('',(#51),#25,.F.);
#439=ADVANCED_FACE('',(#52),#420,.F.);
#440=ADVANCED_FACE('',(#53),#421,.F.);
#441=ADVANCED_FACE('',(#54),#26,.T.);
#442=ADVANCED_FACE('',(#55),#27,.F.);
#443=ADVANCED_FACE('',(#56,#17,#18),#28,.F.);
#444=ADVANCED_FACE('',(#57),#29,.F.);
#445=ADVANCED_FACE('',(#58),#30,.T.);
#446=ADVANCED_FACE('',(#59),#31,.F.);
#447=CLOSED_SHELL('',(#422,#423,#424,#425,#426,#427,#428,#429,#430,#431,
#432,#433,#434,#435,#436,#437,#438,#439,#440,#441,#442,#443,#444,#445,#446));
#448=AXIS2_PLACEMENT_3D('',#629,#496,#497);
#449=AXIS2_PLACEMENT_3D('',#630,#498,#499);
#450=AXIS2_PLACEMENT_3D('',#633,#500,#501);
#451=AXIS2_PLACEMENT_3D('',#637,#503,#504);
#452=AXIS2_PLACEMENT_3D('',#639,#506,#507);
#453=AXIS2_PLACEMENT_3D('',#652,#508,#509);
#454=AXIS2_PLACEMENT_3D('',#653,#510,#511);
#455=AXIS2_PLACEMENT_3D('',#654,#512,#513);
#456=AXIS2_PLACEMENT_3D('',#671,#517,#518);
#457=AXIS2_PLACEMENT_3D('',#673,#519,#520);
#458=AXIS2_PLACEMENT_3D('',#675,#521,#522);
#459=AXIS2_PLACEMENT_3D('',#676,#523,#524);
#460=AXIS2_PLACEMENT_3D('',#677,#525,#526);
#461=AXIS2_PLACEMENT_3D('',#680,#527,#528);
#462=AXIS2_PLACEMENT_3D('',#683,#531,#532);
#463=AXIS2_PLACEMENT_3D('',#686,#533,#534);
#464=AXIS2_PLACEMENT_3D('',#688,#535,#536);
#465=AXIS2_PLACEMENT_3D('',#690,#537,#538);
#466=AXIS2_PLACEMENT_3D('',#691,#539,#540);
#467=AXIS2_PLACEMENT_3D('',#692,#541,#542);
#468=AXIS2_PLACEMENT_3D('',#695,#545,#546);
#469=AXIS2_PLACEMENT_3D('',#698,#547,#548);
#470=AXIS2_PLACEMENT_3D('',#701,#551,#552);
#471=AXIS2_PLACEMENT_3D('',#704,#553,#554);
#472=AXIS2_PLACEMENT_3D('',#716,#557,#558);
#473=AXIS2_PLACEMENT_3D('',#717,#559,#560);
#474=AXIS2_PLACEMENT_3D('',#718,#561,#562);
#475=AXIS2_PLACEMENT_3D('',#722,#564,#565);
#476=AXIS2_PLACEMENT_3D('',#724,#567,#568);
#477=AXIS2_PLACEMENT_3D('',#728,#570,#571);
#478=AXIS2_PLACEMENT_3D('',#730,#573,#574);
#479=AXIS2_PLACEMENT_3D('',#739,#579,#580);
#480=AXIS2_PLACEMENT_3D('',#741,#581,#582);
#481=AXIS2_PLACEMENT_3D('',#742,#583,#584);
#482=AXIS2_PLACEMENT_3D('',#745,#586,#587);
#483=AXIS2_PLACEMENT_3D('',#746,#588,#589);
#484=AXIS2_PLACEMENT_3D('',#750,#592,#593);
#485=AXIS2_PLACEMENT_3D('',#754,#596,#597);
#486=AXIS2_PLACEMENT_3D('',#756,#599,#600);
#487=AXIS2_PLACEMENT_3D('',#758,#601,#602);
#488=AXIS2_PLACEMENT_3D('',#760,#604,#605);
#489=AXIS2_PLACEMENT_3D('',#762,#606,#607);
#490=AXIS2_PLACEMENT_3D('',#764,#609,#610);
#491=AXIS2_PLACEMENT_3D('',#768,#613,#614);
#492=AXIS2_PLACEMENT_3D('',#772,#617,#618);
#493=AXIS2_PLACEMENT_3D('',#777,#622,#623);
#494=AXIS2_PLACEMENT_3D('',#778,#624,#625);
#495=AXIS2_PLACEMENT_3D('',#780,#627,#628);
#496=DIRECTION('axis',(0.,0.,1.));
#497=DIRECTION('refdir',(1.,0.,0.));
#498=DIRECTION('center_axis',(0.,-1.,0.));
#499=DIRECTION('ref_axis',(-0.707106781186557,0.,-0.707106781186538));
#500=DIRECTION('center_axis',(0.,-1.,0.));
#501=DIRECTION('ref_axis',(-0.707106781186557,0.,-0.707106781186538));
#502=DIRECTION('',(0.,-1.,0.));
#503=DIRECTION('center_axis',(0.,1.,0.));
#504=DIRECTION('ref_axis',(0.,0.,-1.));
#505=DIRECTION('',(0.,1.,0.));
#506=DIRECTION('center_axis',(0.,0.,-1.));
#507=DIRECTION('ref_axis',(-1.,0.,0.));
#508=DIRECTION('center_axis',(0.,0.,1.));
#509=DIRECTION('ref_axis',(0.750181268389621,-0.661232231940746,0.));
#510=DIRECTION('center_axis',(0.,0.,-1.));
#511=DIRECTION('ref_axis',(0.750181268389621,-0.661232231940746,0.));
#512=DIRECTION('center_axis',(0.,0.,1.));
#513=DIRECTION('ref_axis',(0.,1.,0.));
#514=DIRECTION('',(-1.,0.,0.));
#515=DIRECTION('',(0.,1.,0.));
#516=DIRECTION('',(0.992088068914817,0.125543870885315,0.));
#517=DIRECTION('center_axis',(0.,-1.,-1.11022302462516E-15));
#518=DIRECTION('ref_axis',(0.,-1.11022302462516E-15,1.));
#519=DIRECTION('center_axis',(6.72417793667096E-17,-1.11021976554313E-15,
1.));
#520=DIRECTION('ref_axis',(-0.994936153005124,-0.100508962005207,0.));
#521=DIRECTION('center_axis',(-1.,0.,0.));
#522=DIRECTION('ref_axis',(0.,-1.,0.));
#523=DIRECTION('center_axis',(-6.72417793667096E-17,1.11021976554313E-15,
-1.));
#524=DIRECTION('ref_axis',(-0.994936153005124,-0.100508962005207,-4.46857589480707E-17));
#525=DIRECTION('center_axis',(-7.46531525232109E-32,-1.,-1.11021976554313E-15));
#526=DIRECTION('ref_axis',(-0.707106781186541,0.,0.707106781186554));
#527=DIRECTION('center_axis',(0.,-1.,0.));
#528=DIRECTION('ref_axis',(0.,0.,1.));
#529=DIRECTION('',(-7.46531525232109E-32,-1.,-1.11021976554313E-15));
#530=DIRECTION('',(7.46531525232109E-32,1.,1.11021976554313E-15));
#531=DIRECTION('center_axis',(0.,0.,-1.));
#532=DIRECTION('ref_axis',(-1.,0.,0.));
#533=DIRECTION('center_axis',(0.,1.,0.));
#534=DIRECTION('ref_axis',(-1.,0.,0.));
#535=DIRECTION('center_axis',(0.,0.,-1.));
#536=DIRECTION('ref_axis',(0.125543870885316,-0.992088068914817,0.));
#537=DIRECTION('center_axis',(-0.992088068914817,-0.125543870885316,0.));
#538=DIRECTION('ref_axis',(0.,0.,1.));
#539=DIRECTION('center_axis',(6.72417793667096E-17,-1.11021976554313E-15,
1.));
#540=DIRECTION('ref_axis',(0.750181268389619,-0.661232231940747,0.));
#541=DIRECTION('center_axis',(0.,-1.11872888235586E-15,1.));
#542=DIRECTION('ref_axis',(0.750181268389616,-0.661232231940751,0.));
#543=DIRECTION('',(0.,-1.11872888235586E-15,1.));
#544=DIRECTION('',(0.,1.11872888235586E-15,-1.));
#545=DIRECTION('center_axis',(0.992088068914817,0.125543870885315,7.26715198573561E-17));
#546=DIRECTION('ref_axis',(-0.0887729224394149,0.701512201063929,0.707106781186553));
#547=DIRECTION('center_axis',(0.992088068914817,0.125543870885316,0.));
#548=DIRECTION('ref_axis',(-0.125543870885316,0.992088068914817,0.));
#549=DIRECTION('',(0.992088068914817,0.125543870885315,7.26715198573562E-17));
#550=DIRECTION('',(-0.992088068914817,-0.125543870885315,-7.26715198573561E-17));
#551=DIRECTION('center_axis',(0.,-1.,-1.11021976554313E-15));
#552=DIRECTION('ref_axis',(-0.707106781186544,0.,0.707106781186551));
#553=DIRECTION('center_axis',(0.,-1.,0.));
#554=DIRECTION('ref_axis',(-0.707106781186544,0.,0.707106781186551));
#555=DIRECTION('',(0.,-1.,-1.11021976554313E-15));
#556=DIRECTION('',(0.,1.,1.11021976554313E-15));
#557=DIRECTION('center_axis',(6.72417793667096E-17,-1.11021976554313E-15,
1.));
#558=DIRECTION('ref_axis',(-0.750181268389619,0.661232231940748,7.77156117237611E-16));
#559=DIRECTION('center_axis',(-6.72417793667096E-17,1.11021976554313E-15,
-1.));
#560=DIRECTION('ref_axis',(-0.750181268389619,0.661232231940748,7.84556616848908E-16));
#561=DIRECTION('center_axis',(-1.,-7.46531525232109E-32,6.72417793667096E-17));
#562=DIRECTION('ref_axis',(0.,-0.707106781186544,0.707106781186551));
#563=DIRECTION('',(1.,7.46531525232109E-32,-6.72417793667096E-17));
#564=DIRECTION('center_axis',(-1.,0.,6.72417793667096E-17));
#565=DIRECTION('ref_axis',(0.,-0.707106781186544,0.707106781186551));
#566=DIRECTION('',(-1.,-7.46531525232109E-32,6.72417793667096E-17));
#567=DIRECTION('center_axis',(-6.72417793667096E-17,1.11021976554313E-15,
-1.));
#568=DIRECTION('ref_axis',(-0.707106781186548,-0.707106781186547,0.));
#569=DIRECTION('',(-6.72417793667096E-17,1.11021976554313E-15,-1.));
#570=DIRECTION('center_axis',(-6.72417793667096E-17,1.11021976554313E-15,
-1.));
#571=DIRECTION('ref_axis',(-0.707106781186548,-0.707106781186547,0.));
#572=DIRECTION('',(6.72417793667096E-17,-1.11021976554313E-15,1.));
#573=DIRECTION('center_axis',(1.,0.,-6.72417793667096E-17));
#574=DIRECTION('ref_axis',(0.,1.,1.11021976554313E-15));
#575=DIRECTION('',(6.72417793667096E-17,-1.11021976554313E-15,1.));
#576=DIRECTION('',(-7.46531525232109E-32,-1.,-1.11021976554313E-15));
#577=DIRECTION('',(-6.72417793667096E-17,1.11021976554313E-15,-1.));
#578=DIRECTION('',(7.46531525232109E-32,1.,1.11021976554313E-15));
#579=DIRECTION('center_axis',(1.,0.,-6.72417793667096E-17));
#580=DIRECTION('ref_axis',(0.,1.,0.));
#581=DIRECTION('center_axis',(1.,0.,-6.72417793667096E-17));
#582=DIRECTION('ref_axis',(0.,1.,0.));
#583=DIRECTION('center_axis',(6.72417793667096E-17,-1.11021976554313E-15,
1.));
#584=DIRECTION('ref_axis',(-0.750181268389617,0.66123223194075,0.));
#585=DIRECTION('',(-6.72417793667096E-17,1.11021976554313E-15,-1.));
#586=DIRECTION('center_axis',(6.72417793667096E-17,-1.11021976554313E-15,
1.));
#587=DIRECTION('ref_axis',(-0.750181268389617,0.66123223194075,0.));
#588=DIRECTION('center_axis',(-0.125543870885315,0.992088068914817,1.10987757653565E-15));
#589=DIRECTION('ref_axis',(0.,-1.11872888235586E-15,1.));
#590=DIRECTION('',(6.72417793667096E-17,-1.11021976554313E-15,1.));
#591=DIRECTION('',(0.992088068914817,0.125543870885315,7.26715198573561E-17));
#592=DIRECTION('center_axis',(6.72417793667096E-17,-1.11021976554313E-15,
1.));
#593=DIRECTION('ref_axis',(0.,-1.,-1.11021976554313E-15));
#594=DIRECTION('',(7.46531525232109E-32,1.,1.11021976554313E-15));
#595=DIRECTION('',(1.,0.,-6.72417793667096E-17));
#596=DIRECTION('center_axis',(1.,0.,0.));
#597=DIRECTION('ref_axis',(0.,-1.,0.));
#598=DIRECTION('',(0.,0.,1.));
#599=DIRECTION('center_axis',(-1.,0.,2.22044604925031E-16));
#600=DIRECTION('ref_axis',(0.,1.,0.));
#601=DIRECTION('center_axis',(-1.,0.,6.72417793667096E-17));
#602=DIRECTION('ref_axis',(0.,1.,0.));
#603=DIRECTION('',(-1.,0.,2.22044604925031E-16));
#604=DIRECTION('center_axis',(-1.,0.,2.22044604925031E-16));
#605=DIRECTION('ref_axis',(0.,1.,0.));
#606=DIRECTION('center_axis',(-1.,0.,6.72417793667096E-17));
#607=DIRECTION('ref_axis',(0.,1.,0.));
#608=DIRECTION('',(-1.,0.,2.22044604925031E-16));
#609=DIRECTION('center_axis',(0.,1.,0.));
#610=DIRECTION('ref_axis',(0.,0.,-1.));
#611=DIRECTION('',(1.,0.,0.));
#612=DIRECTION('',(-6.72417793667096E-17,0.,-1.));
#613=DIRECTION('center_axis',(0.,1.,1.11021976554313E-15));
#614=DIRECTION('ref_axis',(6.72417793667096E-17,-1.11021976554313E-15,1.));
#615=DIRECTION('',(1.,0.,-6.72417793667096E-17));
#616=DIRECTION('',(-6.72417793667096E-17,1.11021976554313E-15,-1.));
#617=DIRECTION('center_axis',(-1.,0.,6.72417793667096E-17));
#618=DIRECTION('ref_axis',(0.,-1.,-1.11021976554313E-15));
#619=DIRECTION('',(-7.46531525232109E-32,-1.,-1.11021976554313E-15));
#620=DIRECTION('',(6.72417793667096E-17,-1.11021976554313E-15,1.));
#621=DIRECTION('',(-7.46531525232109E-32,-1.,-1.11021976554313E-15));
#622=DIRECTION('center_axis',(-6.72417793667096E-17,1.11021976554313E-15,
-1.));
#623=DIRECTION('ref_axis',(-0.992690287619933,0.120689655170005,2.00742301965938E-16));
#624=DIRECTION('center_axis',(0.,-1.,-1.11021976554313E-15));
#625=DIRECTION('ref_axis',(6.72417793667096E-17,-1.11021976554313E-15,1.));
#626=DIRECTION('',(-1.,0.,6.72417793667096E-17));
#627=DIRECTION('center_axis',(-6.72417793667096E-17,1.11021976554313E-15,
-1.));
#628=DIRECTION('ref_axis',(0.,-1.,-1.11021976554313E-15));
#629=CARTESIAN_POINT('',(0.,0.,0.));
#630=CARTESIAN_POINT('Origin',(-153.726170381379,72.,417.999974892692));
#631=CARTESIAN_POINT('',(-157.726170381379,87.,417.999974892692));
#632=CARTESIAN_POINT('',(-153.726170381379,87.,413.999974892692));
#633=CARTESIAN_POINT('Origin',(-153.726170381379,87.,417.999974892692));
#634=CARTESIAN_POINT('',(-153.726170381379,53.9144903886642,413.999974892692));
#635=CARTESIAN_POINT('',(-153.726170381379,72.,413.999974892692));
#636=CARTESIAN_POINT('',(-157.726170381379,53.9144903886642,417.999974892692));
#637=CARTESIAN_POINT('Origin',(-153.726170381379,53.9144903886642,417.999974892692));
#638=CARTESIAN_POINT('',(-157.726170381379,72.,417.999974892692));
#639=CARTESIAN_POINT('Origin',(-160.726170381379,53.9144903886642,417.999974892692));
#640=CARTESIAN_POINT('',(-154.075022894226,51.7322353384631,413.999974892692));
#641=CARTESIAN_POINT('',(-160.349538768723,50.9382261819197,417.999974892692));
#642=CARTESIAN_POINT('Ctrl Pts',(-160.349538768723,50.9382261819197,417.999974892692));
#643=CARTESIAN_POINT('Ctrl Pts',(-159.876248006504,50.99811880255,417.449107368861));
#644=CARTESIAN_POINT('Ctrl Pts',(-159.356213812783,51.0639265747811,416.84163952329));
#645=CARTESIAN_POINT('Ctrl Pts',(-158.228338410529,51.2066536655628,415.730287272765));
#646=CARTESIAN_POINT('Ctrl Pts',(-157.615997599637,51.2841423866846,415.231051984435));
#647=CARTESIAN_POINT('Ctrl Pts',(-156.55493231154,51.4184149857648,414.599325686418));
#648=CARTESIAN_POINT('Ctrl Pts',(-155.996823408431,51.4890409254039,414.348069535439));
#649=CARTESIAN_POINT('Ctrl Pts',(-155.069647975665,51.6063704211074,414.081330155661));
#650=CARTESIAN_POINT('Ctrl Pts',(-154.52985281739,51.6746788463152,413.999974892692));
#651=CARTESIAN_POINT('Ctrl Pts',(-154.075022894226,51.7322353384631,413.999974892692));
#652=CARTESIAN_POINT('Origin',(-160.726170381379,53.9144903886642,417.999974892692));
#653=CARTESIAN_POINT('Origin',(-160.726170381379,53.9144903886642,413.999974892692));
#654=CARTESIAN_POINT('Origin',(-152.476170381379,72.,413.999974892692));
#655=CARTESIAN_POINT('',(-153.226170381379,87.,413.999974892692));
#656=CARTESIAN_POINT('',(-152.476170381379,87.,413.999974892692));
#657=CARTESIAN_POINT('',(-153.226170381379,51.8396534534597,413.999974892692));
#658=CARTESIAN_POINT('',(-153.226170381379,58.25,413.999974892692));
#659=CARTESIAN_POINT('',(-154.827313276474,51.6370366866735,413.999974892692));
#660=CARTESIAN_POINT('Ctrl Pts',(-166.226170381379,36.9999999999999,448.999974892692));
#661=CARTESIAN_POINT('Ctrl Pts',(-166.226170381379,31.9999999999999,448.999974892692));
#662=CARTESIAN_POINT('Ctrl Pts',(-161.226170381379,31.9999999999999,448.999974892692));
#663=CARTESIAN_POINT('Ctrl Pts',(-166.226170381379,36.9999999999999,452.999974892692));
#664=CARTESIAN_POINT('Ctrl Pts',(-166.226170381379,31.9999999999999,452.999974892692));
#665=CARTESIAN_POINT('Ctrl Pts',(-161.226170381379,31.9999999999999,452.999974892692));
#666=CARTESIAN_POINT('Ctrl Pts',(-162.226170381379,36.9999999999999,452.999974892692));
#667=CARTESIAN_POINT('Ctrl Pts',(-162.226170381379,35.9999999999999,452.999974892692));
#668=CARTESIAN_POINT('Ctrl Pts',(-161.226170381379,35.9999999999999,452.999974892692));
#669=CARTESIAN_POINT('',(-162.226170381379,36.9999999999999,452.999974892692));
#670=CARTESIAN_POINT('',(-166.226170381379,36.9999999999999,448.999974892692));
#671=CARTESIAN_POINT('Origin',(-162.226170381379,36.9999999999999,448.999974892692));
#672=CARTESIAN_POINT('',(-161.226170381379,31.9999999999999,448.999974892692));
#673=CARTESIAN_POINT('Origin',(-161.226170381379,36.9999999999999,448.999974892692));
#674=CARTESIAN_POINT('',(-161.226170381379,35.9999999999999,452.999974892692));
#675=CARTESIAN_POINT('Origin',(-161.226170381379,35.9999999999999,448.999974892692));
#676=CARTESIAN_POINT('Origin',(-161.226170381379,36.9999999999999,452.999974892692));
#677=CARTESIAN_POINT('Origin',(-162.226170381379,44.8188960693816,448.999974892692));
#678=CARTESIAN_POINT('',(-162.226170381379,45.7874176135001,452.999974892692));
#679=CARTESIAN_POINT('',(-166.226170381379,45.7874176135001,448.999974892692));
#680=CARTESIAN_POINT('Origin',(-162.226170381379,45.7874176135001,448.999974892692));
#681=CARTESIAN_POINT('',(-166.226170381379,44.8188960693816,448.999974892692));
#682=CARTESIAN_POINT('',(-162.226170381379,44.8188960693816,452.999974892692));
#683=CARTESIAN_POINT('Origin',(-160.726170381379,53.9144903886642,448.999974892692));
#684=CARTESIAN_POINT('',(-157.726170381379,53.9144903886642,448.999974892692));
#685=CARTESIAN_POINT('',(-153.726170381379,53.9144903886642,452.999974892692));
#686=CARTESIAN_POINT('Origin',(-153.726170381379,53.9144903886642,448.999974892692));
#687=CARTESIAN_POINT('',(-160.349538768723,50.9382261819197,448.999974892692));
#688=CARTESIAN_POINT('Origin',(-160.726170381379,53.9144903886642,448.999974892692));
#689=CARTESIAN_POINT('',(-159.847363285182,46.9698739062604,452.999974892692));
#690=CARTESIAN_POINT('Origin',(-159.847363285182,46.9698739062604,448.999974892692));
#691=CARTESIAN_POINT('Origin',(-160.726170381379,53.9144903886642,452.999974892692));
#692=CARTESIAN_POINT('Origin',(-160.726170381379,53.9144903886642,415.249974892692));
#693=CARTESIAN_POINT('',(-160.349538768723,50.9382261819197,415.249974892692));
#694=CARTESIAN_POINT('',(-157.726170381379,53.9144903886642,415.249974892692));
#695=CARTESIAN_POINT('Origin',(-155.995988964364,47.4572464043419,448.999974892692));
#696=CARTESIAN_POINT('',(-161.853889735806,50.7478579580742,448.999974892692));
#697=CARTESIAN_POINT('',(-161.351714252265,46.7795056824149,452.999974892692));
#698=CARTESIAN_POINT('Origin',(-161.351714252265,46.7795056824149,448.999974892692));
#699=CARTESIAN_POINT('',(-155.995988964364,47.4572464043419,452.999974892692));
#700=CARTESIAN_POINT('',(-156.498164447905,51.4255986800012,448.999974892692));
#701=CARTESIAN_POINT('Origin',(-153.726170381379,58.5688960693816,448.999974892692));
#702=CARTESIAN_POINT('',(-153.726170381379,87.,452.999974892692));
#703=CARTESIAN_POINT('',(-157.726170381379,87.,448.999974892692));
#704=CARTESIAN_POINT('Origin',(-153.726170381379,86.9999999999999,448.999974892692));
#705=CARTESIAN_POINT('',(-157.726170381379,58.5688960693816,448.999974892692));
#706=CARTESIAN_POINT('',(-153.726170381379,58.5688960693816,452.999974892692));
#707=CARTESIAN_POINT('Ctrl Pts',(-162.226170381379,45.7874176135001,452.999974892692));
#708=CARTESIAN_POINT('Ctrl Pts',(-162.226170381379,46.6688475555729,452.999974892692));
#709=CARTESIAN_POINT('Ctrl Pts',(-161.351714252265,46.779505682415,452.999974892692));
#710=CARTESIAN_POINT('Ctrl Pts',(-166.226170381379,45.7874176135001,452.999974892692));
#711=CARTESIAN_POINT('Ctrl Pts',(-166.226170381379,50.194567323864,452.999974892692));
#712=CARTESIAN_POINT('Ctrl Pts',(-161.853889735806,50.7478579580742,452.999974892692));
#713=CARTESIAN_POINT('Ctrl Pts',(-166.226170381379,45.7874176135001,448.999974892692));
#714=CARTESIAN_POINT('Ctrl Pts',(-166.226170381379,50.194567323864,448.999974892692));
#715=CARTESIAN_POINT('Ctrl Pts',(-161.853889735806,50.7478579580742,448.999974892692));
#716=CARTESIAN_POINT('Origin',(-161.226170381379,45.7874176135001,448.999974892692));
#717=CARTESIAN_POINT('Origin',(-161.226170381379,45.7874176135001,452.999974892692));
#718=CARTESIAN_POINT('Origin',(-154.849137779782,36.,448.999974892692));
#719=CARTESIAN_POINT('',(-153.226170381379,31.9999999999999,448.999974892692));
#720=CARTESIAN_POINT('',(-154.849137779782,31.9999999999999,448.999974892692));
#721=CARTESIAN_POINT('',(-153.226170381379,35.9999999999999,452.999974892692));
#722=CARTESIAN_POINT('Origin',(-153.226170381379,36.,448.999974892692));
#723=CARTESIAN_POINT('',(-154.849137779782,35.9999999999999,452.999974892692));
#724=CARTESIAN_POINT('Origin',(-161.226170381379,37.,396.999974892692));
#725=CARTESIAN_POINT('',(-166.226170381379,37.,401.999974892692));
#726=CARTESIAN_POINT('',(-166.226170381379,37.,396.999974892692));
#727=CARTESIAN_POINT('',(-161.226170381379,32.,401.999974892692));
#728=CARTESIAN_POINT('Origin',(-161.226170381379,37.,401.999974892692));
#729=CARTESIAN_POINT('',(-161.226170381379,32.,396.999974892692));
#730=CARTESIAN_POINT('Origin',(-166.226170381379,44.5,396.999974892692));
#731=CARTESIAN_POINT('',(-166.226170381379,45.7874176135002,391.999974892692));
#732=CARTESIAN_POINT('',(-166.226170381379,45.7874176135002,396.999974892692));
#733=CARTESIAN_POINT('',(-166.226170381379,17.,391.999974892692));
#734=CARTESIAN_POINT('',(-166.226170381379,44.5,391.999974892692));
#735=CARTESIAN_POINT('',(-166.226170381379,17.,401.999974892692));
#736=CARTESIAN_POINT('',(-166.226170381379,17.,396.999974892692));
#737=CARTESIAN_POINT('',(-166.226170381379,34.5,401.999974892692));
#738=CARTESIAN_POINT('',(-166.226170381379,39.7500006109476,426.000006347895));
#739=CARTESIAN_POINT('Origin',(-166.226170381379,41.0000006109476,426.000006347895));
#740=CARTESIAN_POINT('',(-166.226170381379,39.7500006109476,442.000006586313));
#741=CARTESIAN_POINT('Origin',(-166.226170381379,41.0000006109476,442.000006586313));
#742=CARTESIAN_POINT('Origin',(-161.226170381379,45.7874176135002,396.999974892692));
#743=CARTESIAN_POINT('',(-161.853889735806,50.7478579580743,391.999974892692));
#744=CARTESIAN_POINT('',(-161.853889735806,50.7478579580743,396.999974892692));
#745=CARTESIAN_POINT('Origin',(-161.226170381379,45.7874176135002,391.999974892692));
#746=CARTESIAN_POINT('Origin',(-159.677618007346,51.0232544530528,396.999974892692));
#747=CARTESIAN_POINT('',(-153.226170381379,51.8396534534598,391.999974892692));
#748=CARTESIAN_POINT('',(-153.226170381379,51.8396534534598,396.999974892692));
#749=CARTESIAN_POINT('',(-158.877450701544,51.1245116942936,391.999974892692));
#750=CARTESIAN_POINT('Origin',(-157.226170381379,44.5,391.999974892692));
#751=CARTESIAN_POINT('',(-153.226170381379,17.,391.999974892692));
#752=CARTESIAN_POINT('',(-153.226170381379,44.5,391.999974892692));
#753=CARTESIAN_POINT('',(-157.226170381379,17.,391.999974892692));
#754=CARTESIAN_POINT('Origin',(-157.726170381379,72.,433.499974892692));
#755=CARTESIAN_POINT('',(-157.726170381379,87.,433.499974892692));
#756=CARTESIAN_POINT('Origin',(-160.726170381379,41.0000006109476,426.000006347895));
#757=CARTESIAN_POINT('',(-153.226170381379,39.7500006109476,426.000006347895));
#758=CARTESIAN_POINT('Origin',(-153.226170381379,41.0000006109476,426.000006347895));
#759=CARTESIAN_POINT('',(-160.726170381379,39.7500006109476,426.000006347895));
#760=CARTESIAN_POINT('Origin',(-162.226170381379,41.0000006109476,442.000006586313));
#761=CARTESIAN_POINT('',(-153.226170381379,39.7500006109476,442.000006586313));
#762=CARTESIAN_POINT('Origin',(-153.226170381379,41.0000006109476,442.000006586313));
#763=CARTESIAN_POINT('',(-162.226170381379,39.7500006109476,442.000006586313));
#764=CARTESIAN_POINT('Origin',(-152.476170381379,87.,433.499974892692));
#765=CARTESIAN_POINT('',(-153.226170381379,87.,452.999974892692));
#766=CARTESIAN_POINT('',(-152.476170381379,87.,452.999974892692));
#767=CARTESIAN_POINT('',(-153.226170381379,87.,415.249974892692));
#768=CARTESIAN_POINT('Origin',(-157.226170381379,32.,396.999974892692));
#769=CARTESIAN_POINT('',(-153.226170381379,32.,401.999974892692));
#770=CARTESIAN_POINT('',(-157.226170381379,32.,401.999974892692));
#771=CARTESIAN_POINT('',(-153.226170381379,32.,396.999974892692));
#772=CARTESIAN_POINT('Origin',(-153.226170381379,44.5,396.999974892692));
#773=CARTESIAN_POINT('',(-153.226170381379,17.,401.999974892692));
#774=CARTESIAN_POINT('',(-153.226170381379,34.5,401.999974892692));
#775=CARTESIAN_POINT('',(-153.226170381379,17.,396.999974892692));
#776=CARTESIAN_POINT('',(-153.226170381379,44.8188960693816,452.999974892692));
#777=CARTESIAN_POINT('Origin',(-152.472105178184,45.1377921387632,452.999974892692));
#778=CARTESIAN_POINT('Origin',(-157.226170381379,17.,396.999974892692));
#779=CARTESIAN_POINT('',(-157.226170381379,17.,401.999974892692));
#780=CARTESIAN_POINT('Origin',(-157.226170381379,24.5,401.999974892692));
#781=UNCERTAINTY_MEASURE_WITH_UNIT(LENGTH_MEASURE(0.01),#785,
'DISTANCE_ACCURACY_VALUE',
'Maximum model space distance between geometric entities at asserted c
onnectivities');
#782=UNCERTAINTY_MEASURE_WITH_UNIT(LENGTH_MEASURE(0.01),#785,
'DISTANCE_ACCURACY_VALUE',
'Maximum model space distance between geometric entities at asserted c
onnectivities');
#783=(
GEOMETRIC_REPRESENTATION_CONTEXT(3)
GLOBAL_UNCERTAINTY_ASSIGNED_CONTEXT((#781))
GLOBAL_UNIT_ASSIGNED_CONTEXT((#785,#786,#787))
REPRESENTATION_CONTEXT('','3D')
);
#784=(
GEOMETRIC_REPRESENTATION_CONTEXT(3)
GLOBAL_UNCERTAINTY_ASSIGNED_CONTEXT((#782))
GLOBAL_UNIT_ASSIGNED_CONTEXT((#785,#786,#787))
REPRESENTATION_CONTEXT('','3D')
);
#785=(
LENGTH_UNIT()
NAMED_UNIT(*)
SI_UNIT(.MILLI.,.METRE.)
);
#786=(
NAMED_UNIT(*)
PLANE_ANGLE_UNIT()
SI_UNIT($,.RADIAN.)
);
#787=(
NAMED_UNIT(*)
SI_UNIT($,.STERADIAN.)
SOLID_ANGLE_UNIT()
);
#788=SHAPE_DEFINITION_REPRESENTATION(#789,#790);
#789=PRODUCT_DEFINITION_SHAPE('',$,#792);
#790=SHAPE_REPRESENTATION('',(#448),#783);
#791=PRODUCT_DEFINITION_CONTEXT('part definition',#796,'design');
#792=PRODUCT_DEFINITION('HTD3M-270t-20t-1068mm-Chassis-V3',
'HTD3M-270t-20t-1068mm-Chassis-V3 v70',#793,#791);
#793=PRODUCT_DEFINITION_FORMATION('',$,#798);
#794=PRODUCT_RELATED_PRODUCT_CATEGORY(
'HTD3M-270t-20t-1068mm-Chassis-V3 v70',
'HTD3M-270t-20t-1068mm-Chassis-V3 v70',(#798));
#795=APPLICATION_PROTOCOL_DEFINITION('international standard',
'automotive_design',2009,#796);
#796=APPLICATION_CONTEXT(
'Core Data for Automotive Mechanical Design Process');
#797=PRODUCT_CONTEXT('part definition',#796,'mechanical');
#798=PRODUCT('HTD3M-270t-20t-1068mm-Chassis-V3',
'HTD3M-270t-20t-1068mm-Chassis-V3 v70',$,(#797));
#799=PRESENTATION_STYLE_ASSIGNMENT((#807));
#800=PRESENTATION_STYLE_ASSIGNMENT((#808));
#801=PRESENTATION_STYLE_ASSIGNMENT((#809));
#802=PRESENTATION_STYLE_ASSIGNMENT((#810));
#803=PRESENTATION_STYLE_ASSIGNMENT((#811));
#804=PRESENTATION_STYLE_ASSIGNMENT((#812));
#805=PRESENTATION_STYLE_ASSIGNMENT((#813));
#806=PRESENTATION_STYLE_ASSIGNMENT((#814));
#807=SURFACE_STYLE_USAGE(.BOTH.,#815);
#808=SURFACE_STYLE_USAGE(.BOTH.,#816);
#809=SURFACE_STYLE_USAGE(.BOTH.,#817);
#810=SURFACE_STYLE_USAGE(.BOTH.,#818);
#811=SURFACE_STYLE_USAGE(.BOTH.,#819);
#812=SURFACE_STYLE_USAGE(.BOTH.,#820);
#813=SURFACE_STYLE_USAGE(.BOTH.,#821);
#814=SURFACE_STYLE_USAGE(.BOTH.,#822);
#815=SURFACE_SIDE_STYLE('',(#823));
#816=SURFACE_SIDE_STYLE('',(#824));
#817=SURFACE_SIDE_STYLE('',(#825));
#818=SURFACE_SIDE_STYLE('',(#826));
#819=SURFACE_SIDE_STYLE('',(#827));
#820=SURFACE_SIDE_STYLE('',(#828));
#821=SURFACE_SIDE_STYLE('',(#829));
#822=SURFACE_SIDE_STYLE('',(#830));
#823=SURFACE_STYLE_FILL_AREA(#831);
#824=SURFACE_STYLE_FILL_AREA(#832);
#825=SURFACE_STYLE_FILL_AREA(#833);
#826=SURFACE_STYLE_FILL_AREA(#834);
#827=SURFACE_STYLE_FILL_AREA(#835);
#828=SURFACE_STYLE_FILL_AREA(#836);
#829=SURFACE_STYLE_FILL_AREA(#837);
#830=SURFACE_STYLE_FILL_AREA(#838);
#831=FILL_AREA_STYLE('Opaque(175,143,175)',(#839));
#832=FILL_AREA_STYLE('Opaque(159,175,143)',(#840));
#833=FILL_AREA_STYLE('Opaque(143,143,175)',(#841));
#834=FILL_AREA_STYLE('Opaque(175,159,143)',(#842));
#835=FILL_AREA_STYLE('Opaque(143,175,175)',(#843));
#836=FILL_AREA_STYLE('Steel - Satin',(#844));
#837=FILL_AREA_STYLE('Plastic - Translucent Matte (Red)',(#845));
#838=FILL_AREA_STYLE('Steel - Satin',(#846));
#839=FILL_AREA_STYLE_COLOUR('Opaque(175,143,175)',#847);
#840=FILL_AREA_STYLE_COLOUR('Opaque(159,175,143)',#848);
#841=FILL_AREA_STYLE_COLOUR('Opaque(143,143,175)',#849);
#842=FILL_AREA_STYLE_COLOUR('Opaque(175,159,143)',#850);
#843=FILL_AREA_STYLE_COLOUR('Opaque(143,175,175)',#851);
#844=FILL_AREA_STYLE_COLOUR('Steel - Satin',#852);
#845=FILL_AREA_STYLE_COLOUR('Plastic - Translucent Matte (Red)',#853);
#846=FILL_AREA_STYLE_COLOUR('Steel - Satin',#854);
#847=COLOUR_RGB('Opaque(175,143,175)',0.686274509803922,0.56078431372549,
0.686274509803922);
#848=COLOUR_RGB('Opaque(159,175,143)',0.623529411764706,0.686274509803922,
0.56078431372549);
#849=COLOUR_RGB('Opaque(143,143,175)',0.56078431372549,0.56078431372549,
0.686274509803922);
#850=COLOUR_RGB('Opaque(175,159,143)',0.686274509803922,0.623529411764706,
0.56078431372549);
#851=COLOUR_RGB('Opaque(143,175,175)',0.56078431372549,0.686274509803922,
0.686274509803922);
#852=COLOUR_RGB('Steel - Satin',0.627450980392157,0.627450980392157,0.627450980392157);
#853=COLOUR_RGB('Plastic - Translucent Matte (Red)',0.768627450980392,0.207843137254902,
0.152941176470588);
#854=COLOUR_RGB('Steel - Satin',0.552941176470588,0.227450980392157,0.227450980392157);
ENDSEC;
END-ISO-10303-21;
