ISO-10303-21;
HEADER;
/* Generated by software containing ST-Developer
 * from STEP Tools, Inc. (www.steptools.com) 
 */

FILE_DESCRIPTION(
/* description */ (''),
/* implementation_level */ '2;1');

FILE_NAME(
/* name */ 'CableChain-Stop.step',
/* time_stamp */ '2026-04-07T14:08:06+02:00',
/* author */ (''),
/* organization */ (''),
/* preprocessor_version */ 'ST-DEVELOPER v20.1',
/* originating_system */ 'Autodesk Translation Framework v14.24.0.0',
/* authorisation */ '');

FILE_SCHEMA (('AUTOMOTIVE_DESIGN { 1 0 10303 214 3 1 1 }'));
ENDSEC;

DATA;
#10=MECHANICAL_DESIGN_GEOMETRIC_PRESENTATION_REPRESENTATION('',(#13),#171);
#11=SHAPE_REPRESENTATION_RELATIONSHIP('SRR','None',#177,#12);
#12=ADVANCED_BREP_SHAPE_REPRESENTATION('',(#14),#170);
#13=STYLED_ITEM('',(#192),#14);
#14=MANIFOLD_SOLID_BREP('Cablechain-Stop',#107);
#15=FACE_OUTER_BOUND('',#21,.T.);
#16=FACE_OUTER_BOUND('',#22,.T.);
#17=FACE_OUTER_BOUND('',#23,.T.);
#18=FACE_OUTER_BOUND('',#24,.T.);
#19=FACE_OUTER_BOUND('',#25,.T.);
#20=FACE_OUTER_BOUND('',#26,.T.);
#21=EDGE_LOOP('',(#71,#72,#73,#74));
#22=EDGE_LOOP('',(#75,#76,#77,#78));
#23=EDGE_LOOP('',(#79,#80,#81,#82));
#24=EDGE_LOOP('',(#83,#84,#85,#86));
#25=EDGE_LOOP('',(#87,#88,#89,#90));
#26=EDGE_LOOP('',(#91,#92,#93,#94));
#27=LINE('',#145,#39);
#28=LINE('',#147,#40);
#29=LINE('',#149,#41);
#30=LINE('',#150,#42);
#31=LINE('',#154,#43);
#32=LINE('',#156,#44);
#33=LINE('',#158,#45);
#34=LINE('',#159,#46);
#35=LINE('',#161,#47);
#36=LINE('',#162,#48);
#37=LINE('',#164,#49);
#38=LINE('',#166,#50);
#39=VECTOR('',#119,10.);
#40=VECTOR('',#120,10.);
#41=VECTOR('',#121,10.);
#42=VECTOR('',#122,10.);
#43=VECTOR('',#125,10.);
#44=VECTOR('',#126,10.);
#45=VECTOR('',#127,10.);
#46=VECTOR('',#128,10.);
#47=VECTOR('',#131,10.);
#48=VECTOR('',#132,10.);
#49=VECTOR('',#135,10.);
#50=VECTOR('',#138,10.);
#51=VERTEX_POINT('',#143);
#52=VERTEX_POINT('',#144);
#53=VERTEX_POINT('',#146);
#54=VERTEX_POINT('',#148);
#55=VERTEX_POINT('',#152);
#56=VERTEX_POINT('',#153);
#57=VERTEX_POINT('',#155);
#58=VERTEX_POINT('',#157);
#59=EDGE_CURVE('',#51,#52,#27,.F.);
#60=EDGE_CURVE('',#52,#53,#28,.F.);
#61=EDGE_CURVE('',#53,#54,#29,.F.);
#62=EDGE_CURVE('',#54,#51,#30,.F.);
#63=EDGE_CURVE('',#55,#56,#31,.T.);
#64=EDGE_CURVE('',#56,#57,#32,.T.);
#65=EDGE_CURVE('',#57,#58,#33,.T.);
#66=EDGE_CURVE('',#58,#55,#34,.T.);
#67=EDGE_CURVE('',#54,#57,#35,.T.);
#68=EDGE_CURVE('',#51,#56,#36,.T.);
#69=EDGE_CURVE('',#53,#58,#37,.T.);
#70=EDGE_CURVE('',#52,#55,#38,.T.);
#71=ORIENTED_EDGE('',*,*,#59,.T.);
#72=ORIENTED_EDGE('',*,*,#60,.T.);
#73=ORIENTED_EDGE('',*,*,#61,.T.);
#74=ORIENTED_EDGE('',*,*,#62,.T.);
#75=ORIENTED_EDGE('',*,*,#63,.T.);
#76=ORIENTED_EDGE('',*,*,#64,.T.);
#77=ORIENTED_EDGE('',*,*,#65,.T.);
#78=ORIENTED_EDGE('',*,*,#66,.T.);
#79=ORIENTED_EDGE('',*,*,#67,.T.);
#80=ORIENTED_EDGE('',*,*,#64,.F.);
#81=ORIENTED_EDGE('',*,*,#68,.F.);
#82=ORIENTED_EDGE('',*,*,#62,.F.);
#83=ORIENTED_EDGE('',*,*,#69,.T.);
#84=ORIENTED_EDGE('',*,*,#65,.F.);
#85=ORIENTED_EDGE('',*,*,#67,.F.);
#86=ORIENTED_EDGE('',*,*,#61,.F.);
#87=ORIENTED_EDGE('',*,*,#70,.T.);
#88=ORIENTED_EDGE('',*,*,#66,.F.);
#89=ORIENTED_EDGE('',*,*,#69,.F.);
#90=ORIENTED_EDGE('',*,*,#60,.F.);
#91=ORIENTED_EDGE('',*,*,#68,.T.);
#92=ORIENTED_EDGE('',*,*,#63,.F.);
#93=ORIENTED_EDGE('',*,*,#70,.F.);
#94=ORIENTED_EDGE('',*,*,#59,.F.);
#95=PLANE('',#109);
#96=PLANE('',#110);
#97=PLANE('',#111);
#98=PLANE('',#112);
#99=PLANE('',#113);
#100=PLANE('',#114);
#101=ADVANCED_FACE('',(#15),#95,.T.);
#102=ADVANCED_FACE('',(#16),#96,.F.);
#103=ADVANCED_FACE('',(#17),#97,.F.);
#104=ADVANCED_FACE('',(#18),#98,.F.);
#105=ADVANCED_FACE('',(#19),#99,.F.);
#106=ADVANCED_FACE('',(#20),#100,.F.);
#107=CLOSED_SHELL('',(#101,#102,#103,#104,#105,#106));
#108=AXIS2_PLACEMENT_3D('',#141,#115,#116);
#109=AXIS2_PLACEMENT_3D('',#142,#117,#118);
#110=AXIS2_PLACEMENT_3D('',#151,#123,#124);
#111=AXIS2_PLACEMENT_3D('',#160,#129,#130);
#112=AXIS2_PLACEMENT_3D('',#163,#133,#134);
#113=AXIS2_PLACEMENT_3D('',#165,#136,#137);
#114=AXIS2_PLACEMENT_3D('',#167,#139,#140);
#115=DIRECTION('axis',(0.,0.,1.));
#116=DIRECTION('refdir',(1.,0.,0.));
#117=DIRECTION('center_axis',(0.707106781186542,-0.707106781186553,0.));
#118=DIRECTION('ref_axis',(0.,0.,1.));
#119=DIRECTION('',(0.707106781186553,0.707106781186542,0.));
#120=DIRECTION('',(0.,0.,1.));
#121=DIRECTION('',(-0.707106781186553,-0.707106781186542,0.));
#122=DIRECTION('',(0.,0.,-1.));
#123=DIRECTION('center_axis',(0.707106781186542,-0.707106781186553,0.));
#124=DIRECTION('ref_axis',(0.,0.,1.));
#125=DIRECTION('',(0.707106781186553,0.707106781186542,0.));
#126=DIRECTION('',(0.,0.,-1.));
#127=DIRECTION('',(-0.707106781186553,-0.707106781186542,0.));
#128=DIRECTION('',(0.,0.,1.));
#129=DIRECTION('center_axis',(-0.707106781186553,-0.707106781186542,0.));
#130=DIRECTION('ref_axis',(0.707106781186542,-0.707106781186553,0.));
#131=DIRECTION('',(-0.707106781186542,0.707106781186553,0.));
#132=DIRECTION('',(-0.707106781186542,0.707106781186553,0.));
#133=DIRECTION('center_axis',(0.,0.,1.));
#134=DIRECTION('ref_axis',(-0.707106781186542,0.707106781186553,0.));
#135=DIRECTION('',(-0.707106781186542,0.707106781186553,0.));
#136=DIRECTION('center_axis',(0.707106781186553,0.707106781186542,0.));
#137=DIRECTION('ref_axis',(-0.707106781186542,0.707106781186553,0.));
#138=DIRECTION('',(-0.707106781186542,0.707106781186553,0.));
#139=DIRECTION('center_axis',(0.,0.,-1.));
#140=DIRECTION('ref_axis',(0.707106781186542,-0.707106781186553,0.));
#141=CARTESIAN_POINT('',(0.,0.,0.));
#142=CARTESIAN_POINT('Origin',(191.625937701554,-191.625937701554,430.));
#143=CARTESIAN_POINT('',(202.232539419353,-181.019335983756,457.5));
#144=CARTESIAN_POINT('',(181.019335983756,-202.232539419353,457.5));
#145=CARTESIAN_POINT('',(191.625937701554,-191.625937701554,457.5));
#146=CARTESIAN_POINT('',(181.019335983756,-202.232539419353,402.5));
#147=CARTESIAN_POINT('',(181.019335983756,-202.232539419353,430.));
#148=CARTESIAN_POINT('',(202.232539419353,-181.019335983756,402.5));
#149=CARTESIAN_POINT('',(191.625937701554,-191.625937701554,402.5));
#150=CARTESIAN_POINT('',(202.232539419353,-181.019335983756,430.));
#151=CARTESIAN_POINT('Origin',(189.504617357995,-189.504617357995,430.));
#152=CARTESIAN_POINT('',(178.898015640196,-200.111219075793,457.5));
#153=CARTESIAN_POINT('',(200.111219075793,-178.898015640197,457.5));
#154=CARTESIAN_POINT('',(189.504617357995,-189.504617357995,457.5));
#155=CARTESIAN_POINT('',(200.111219075793,-178.898015640197,402.5));
#156=CARTESIAN_POINT('',(200.111219075793,-178.898015640197,430.));
#157=CARTESIAN_POINT('',(178.898015640196,-200.111219075793,402.5));
#158=CARTESIAN_POINT('',(189.504617357995,-189.504617357995,402.5));
#159=CARTESIAN_POINT('',(178.898015640196,-200.111219075793,430.));
#160=CARTESIAN_POINT('Origin',(201.878986028759,-180.665782593163,430.));
#161=CARTESIAN_POINT('',(201.878986028759,-180.665782593163,402.5));
#162=CARTESIAN_POINT('',(201.878986028759,-180.665782593163,457.5));
#163=CARTESIAN_POINT('Origin',(191.272384310961,-191.272384310961,402.5));
#164=CARTESIAN_POINT('',(180.665782593163,-201.878986028759,402.5));
#165=CARTESIAN_POINT('Origin',(180.665782593163,-201.878986028759,430.));
#166=CARTESIAN_POINT('',(180.665782593163,-201.878986028759,457.5));
#167=CARTESIAN_POINT('Origin',(191.272384310961,-191.272384310961,457.5));
#168=UNCERTAINTY_MEASURE_WITH_UNIT(LENGTH_MEASURE(0.01),#172,
'DISTANCE_ACCURACY_VALUE',
'Maximum model space distance between geometric entities at asserted c
onnectivities');
#169=UNCERTAINTY_MEASURE_WITH_UNIT(LENGTH_MEASURE(0.01),#172,
'DISTANCE_ACCURACY_VALUE',
'Maximum model space distance between geometric entities at asserted c
onnectivities');
#170=(
GEOMETRIC_REPRESENTATION_CONTEXT(3)
GLOBAL_UNCERTAINTY_ASSIGNED_CONTEXT((#168))
GLOBAL_UNIT_ASSIGNED_CONTEXT((#172,#173,#174))
REPRESENTATION_CONTEXT('','3D')
);
#171=(
GEOMETRIC_REPRESENTATION_CONTEXT(3)
GLOBAL_UNCERTAINTY_ASSIGNED_CONTEXT((#169))
GLOBAL_UNIT_ASSIGNED_CONTEXT((#172,#173,#174))
REPRESENTATION_CONTEXT('','3D')
);
#172=(
LENGTH_UNIT()
NAMED_UNIT(*)
SI_UNIT(.MILLI.,.METRE.)
);
#173=(
NAMED_UNIT(*)
PLANE_ANGLE_UNIT()
SI_UNIT($,.RADIAN.)
);
#174=(
NAMED_UNIT(*)
SI_UNIT($,.STERADIAN.)
SOLID_ANGLE_UNIT()
);
#175=SHAPE_DEFINITION_REPRESENTATION(#176,#177);
#176=PRODUCT_DEFINITION_SHAPE('',$,#179);
#177=SHAPE_REPRESENTATION('',(#108),#170);
#178=PRODUCT_DEFINITION_CONTEXT('part definition',#183,'design');
#179=PRODUCT_DEFINITION('HTD3M-270t-20t-1068mm-Chassis-V3',
'HTD3M-270t-20t-1068mm-Chassis-V3 v70',#180,#178);
#180=PRODUCT_DEFINITION_FORMATION('',$,#185);
#181=PRODUCT_RELATED_PRODUCT_CATEGORY(
'HTD3M-270t-20t-1068mm-Chassis-V3 v70',
'HTD3M-270t-20t-1068mm-Chassis-V3 v70',(#185));
#182=APPLICATION_PROTOCOL_DEFINITION('international standard',
'automotive_design',2009,#183);
#183=APPLICATION_CONTEXT(
'Core Data for Automotive Mechanical Design Process');
#184=PRODUCT_CONTEXT('part definition',#183,'mechanical');
#185=PRODUCT('HTD3M-270t-20t-1068mm-Chassis-V3',
'HTD3M-270t-20t-1068mm-Chassis-V3 v70',$,(#184));
#186=PRESENTATION_STYLE_ASSIGNMENT((#194));
#187=PRESENTATION_STYLE_ASSIGNMENT((#195));
#188=PRESENTATION_STYLE_ASSIGNMENT((#196));
#189=PRESENTATION_STYLE_ASSIGNMENT((#197));
#190=PRESENTATION_STYLE_ASSIGNMENT((#198));
#191=PRESENTATION_STYLE_ASSIGNMENT((#199));
#192=PRESENTATION_STYLE_ASSIGNMENT((#200));
#193=PRESENTATION_STYLE_ASSIGNMENT((#201));
#194=SURFACE_STYLE_USAGE(.BOTH.,#202);
#195=SURFACE_STYLE_USAGE(.BOTH.,#203);
#196=SURFACE_STYLE_USAGE(.BOTH.,#204);
#197=SURFACE_STYLE_USAGE(.BOTH.,#205);
#198=SURFACE_STYLE_USAGE(.BOTH.,#206);
#199=SURFACE_STYLE_USAGE(.BOTH.,#207);
#200=SURFACE_STYLE_USAGE(.BOTH.,#208);
#201=SURFACE_STYLE_USAGE(.BOTH.,#209);
#202=SURFACE_SIDE_STYLE('',(#210));
#203=SURFACE_SIDE_STYLE('',(#211));
#204=SURFACE_SIDE_STYLE('',(#212));
#205=SURFACE_SIDE_STYLE('',(#213));
#206=SURFACE_SIDE_STYLE('',(#214));
#207=SURFACE_SIDE_STYLE('',(#215));
#208=SURFACE_SIDE_STYLE('',(#216));
#209=SURFACE_SIDE_STYLE('',(#217));
#210=SURFACE_STYLE_FILL_AREA(#218);
#211=SURFACE_STYLE_FILL_AREA(#219);
#212=SURFACE_STYLE_FILL_AREA(#220);
#213=SURFACE_STYLE_FILL_AREA(#221);
#214=SURFACE_STYLE_FILL_AREA(#222);
#215=SURFACE_STYLE_FILL_AREA(#223);
#216=SURFACE_STYLE_FILL_AREA(#224);
#217=SURFACE_STYLE_FILL_AREA(#225);
#218=FILL_AREA_STYLE('Opaque(175,143,175)',(#226));
#219=FILL_AREA_STYLE('Opaque(159,175,143)',(#227));
#220=FILL_AREA_STYLE('Opaque(143,143,175)',(#228));
#221=FILL_AREA_STYLE('Opaque(175,159,143)',(#229));
#222=FILL_AREA_STYLE('Opaque(143,175,175)',(#230));
#223=FILL_AREA_STYLE('Steel - Satin',(#231));
#224=FILL_AREA_STYLE('Plastic - Translucent Matte (Red)',(#232));
#225=FILL_AREA_STYLE('Steel - Satin',(#233));
#226=FILL_AREA_STYLE_COLOUR('Opaque(175,143,175)',#234);
#227=FILL_AREA_STYLE_COLOUR('Opaque(159,175,143)',#235);
#228=FILL_AREA_STYLE_COLOUR('Opaque(143,143,175)',#236);
#229=FILL_AREA_STYLE_COLOUR('Opaque(175,159,143)',#237);
#230=FILL_AREA_STYLE_COLOUR('Opaque(143,175,175)',#238);
#231=FILL_AREA_STYLE_COLOUR('Steel - Satin',#239);
#232=FILL_AREA_STYLE_COLOUR('Plastic - Translucent Matte (Red)',#240);
#233=FILL_AREA_STYLE_COLOUR('Steel - Satin',#241);
#234=COLOUR_RGB('Opaque(175,143,175)',0.686274509803922,0.56078431372549,
0.686274509803922);
#235=COLOUR_RGB('Opaque(159,175,143)',0.623529411764706,0.686274509803922,
0.56078431372549);
#236=COLOUR_RGB('Opaque(143,143,175)',0.56078431372549,0.56078431372549,
0.686274509803922);
#237=COLOUR_RGB('Opaque(175,159,143)',0.686274509803922,0.623529411764706,
0.56078431372549);
#238=COLOUR_RGB('Opaque(143,175,175)',0.56078431372549,0.686274509803922,
0.686274509803922);
#239=COLOUR_RGB('Steel - Satin',0.627450980392157,0.627450980392157,0.627450980392157);
#240=COLOUR_RGB('Plastic - Translucent Matte (Red)',0.768627450980392,0.207843137254902,
0.152941176470588);
#241=COLOUR_RGB('Steel - Satin',0.552941176470588,0.227450980392157,0.227450980392157);
ENDSEC;
END-ISO-10303-21;
