ISO-10303-21;
HEADER;
/* Generated by software containing ST-Developer
 * from STEP Tools, Inc. (www.steptools.com) 
 */

FILE_DESCRIPTION(
/* description */ (''),
/* implementation_level */ '2;1');

FILE_NAME(
/* name */ 'Cablechain-R-support Part-1.step',
/* time_stamp */ '2026-04-07T14:07:44+02:00',
/* author */ (''),
/* organization */ (''),
/* preprocessor_version */ 'ST-DEVELOPER v20.1',
/* originating_system */ 'Autodesk Translation Framework v14.24.0.0',
/* authorisation */ '');

FILE_SCHEMA (('AUTOMOTIVE_DESIGN { 1 0 10303 214 3 1 1 }'));
ENDSEC;

DATA;
#10=MECHANICAL_DESIGN_GEOMETRIC_PRESENTATION_REPRESENTATION('',(#13),#1239);
#11=SHAPE_REPRESENTATION_RELATIONSHIP('SRR','None',#1245,#12);
#12=ADVANCED_BREP_SHAPE_REPRESENTATION('',(#14),#1238);
#13=STYLED_ITEM('',(#1260),#14);
#14=MANIFOLD_SOLID_BREP('Cablechain-R-support Part-1',#720);
#15=SPHERICAL_SURFACE('',#764,2.99999999999997);
#16=SPHERICAL_SURFACE('',#769,2.99999999999997);
#17=SPHERICAL_SURFACE('',#780,2.99999999999997);
#18=SPHERICAL_SURFACE('',#783,2.99999999999997);
#19=TOROIDAL_SURFACE('',#754,75.4,3.);
#20=ELLIPSE('',#746,315.854396834997,70.);
#21=ELLIPSE('',#759,315.85528254921,70.0000000000109);
#22=ELLIPSE('',#777,3.050475645215,3.);
#23=ELLIPSE('',#790,3.050475645215,3.);
#24=B_SPLINE_CURVE_WITH_KNOTS('',3,(#1095,#1096,#1097,#1098,#1099,#1100),
 .UNSPECIFIED.,.F.,.F.,(4,2,4),(0.888616680901425,0.999685572728277,1.07127503791925),
 .UNSPECIFIED.);
#25=B_SPLINE_CURVE_WITH_KNOTS('',3,(#1107,#1108,#1109,#1110),
 .UNSPECIFIED.,.F.,.F.,(4,4),(-0.0984949457634942,0.),.UNSPECIFIED.);
#26=FACE_BOUND('',#94,.T.);
#27=FACE_BOUND('',#96,.T.);
#28=PLANE('',#725);
#29=PLANE('',#732);
#30=PLANE('',#734);
#31=PLANE('',#735);
#32=PLANE('',#738);
#33=PLANE('',#741);
#34=PLANE('',#742);
#35=PLANE('',#747);
#36=PLANE('',#758);
#37=PLANE('',#760);
#38=PLANE('',#763);
#39=PLANE('',#778);
#40=PLANE('',#779);
#41=PLANE('',#792);
#42=PLANE('',#793);
#43=PLANE('',#794);
#44=PLANE('',#795);
#45=PLANE('',#796);
#46=PLANE('',#797);
#47=FACE_OUTER_BOUND('',#87,.T.);
#48=FACE_OUTER_BOUND('',#88,.T.);
#49=FACE_OUTER_BOUND('',#89,.T.);
#50=FACE_OUTER_BOUND('',#90,.T.);
#51=FACE_OUTER_BOUND('',#91,.T.);
#52=FACE_OUTER_BOUND('',#92,.T.);
#53=FACE_OUTER_BOUND('',#93,.T.);
#54=FACE_OUTER_BOUND('',#95,.T.);
#55=FACE_OUTER_BOUND('',#97,.T.);
#56=FACE_OUTER_BOUND('',#98,.T.);
#57=FACE_OUTER_BOUND('',#99,.T.);
#58=FACE_OUTER_BOUND('',#100,.T.);
#59=FACE_OUTER_BOUND('',#101,.T.);
#60=FACE_OUTER_BOUND('',#102,.T.);
#61=FACE_OUTER_BOUND('',#103,.T.);
#62=FACE_OUTER_BOUND('',#104,.T.);
#63=FACE_OUTER_BOUND('',#105,.T.);
#64=FACE_OUTER_BOUND('',#106,.T.);
#65=FACE_OUTER_BOUND('',#107,.T.);
#66=FACE_OUTER_BOUND('',#108,.T.);
#67=FACE_OUTER_BOUND('',#109,.T.);
#68=FACE_OUTER_BOUND('',#110,.T.);
#69=FACE_OUTER_BOUND('',#111,.T.);
#70=FACE_OUTER_BOUND('',#112,.T.);
#71=FACE_OUTER_BOUND('',#113,.T.);
#72=FACE_OUTER_BOUND('',#114,.T.);
#73=FACE_OUTER_BOUND('',#115,.T.);
#74=FACE_OUTER_BOUND('',#116,.T.);
#75=FACE_OUTER_BOUND('',#117,.T.);
#76=FACE_OUTER_BOUND('',#118,.T.);
#77=FACE_OUTER_BOUND('',#119,.T.);
#78=FACE_OUTER_BOUND('',#120,.T.);
#79=FACE_OUTER_BOUND('',#121,.T.);
#80=FACE_OUTER_BOUND('',#122,.T.);
#81=FACE_OUTER_BOUND('',#123,.T.);
#82=FACE_OUTER_BOUND('',#124,.T.);
#83=FACE_OUTER_BOUND('',#125,.T.);
#84=FACE_OUTER_BOUND('',#126,.T.);
#85=FACE_OUTER_BOUND('',#127,.T.);
#86=FACE_OUTER_BOUND('',#128,.T.);
#87=EDGE_LOOP('',(#458,#459,#460,#461));
#88=EDGE_LOOP('',(#462,#463,#464,#465));
#89=EDGE_LOOP('',(#466,#467,#468,#469));
#90=EDGE_LOOP('',(#470,#471,#472,#473));
#91=EDGE_LOOP('',(#474,#475,#476,#477,#478,#479,#480));
#92=EDGE_LOOP('',(#481,#482,#483,#484));
#93=EDGE_LOOP('',(#485,#486,#487,#488,#489,#490,#491,#492,#493,#494,#495,
#496));
#94=EDGE_LOOP('',(#497));
#95=EDGE_LOOP('',(#498,#499,#500,#501,#502,#503,#504,#505,#506,#507));
#96=EDGE_LOOP('',(#508));
#97=EDGE_LOOP('',(#509,#510,#511,#512,#513,#514));
#98=EDGE_LOOP('',(#515,#516,#517,#518));
#99=EDGE_LOOP('',(#519,#520,#521,#522,#523,#524,#525,#526,#527));
#100=EDGE_LOOP('',(#528,#529,#530,#531,#532,#533,#534,#535,#536,#537,#538));
#101=EDGE_LOOP('',(#539,#540,#541,#542));
#102=EDGE_LOOP('',(#543,#544,#545,#546,#547,#548));
#103=EDGE_LOOP('',(#549,#550,#551,#552));
#104=EDGE_LOOP('',(#553,#554,#555,#556,#557));
#105=EDGE_LOOP('',(#558,#559,#560,#561,#562,#563,#564,#565,#566));
#106=EDGE_LOOP('',(#567,#568,#569,#570));
#107=EDGE_LOOP('',(#571,#572,#573));
#108=EDGE_LOOP('',(#574,#575,#576,#577));
#109=EDGE_LOOP('',(#578,#579,#580));
#110=EDGE_LOOP('',(#581,#582,#583,#584));
#111=EDGE_LOOP('',(#585,#586,#587,#588));
#112=EDGE_LOOP('',(#589,#590,#591,#592));
#113=EDGE_LOOP('',(#593,#594,#595,#596));
#114=EDGE_LOOP('',(#597,#598,#599,#600));
#115=EDGE_LOOP('',(#601,#602,#603,#604));
#116=EDGE_LOOP('',(#605,#606,#607));
#117=EDGE_LOOP('',(#608,#609,#610));
#118=EDGE_LOOP('',(#611,#612,#613,#614));
#119=EDGE_LOOP('',(#615,#616,#617,#618));
#120=EDGE_LOOP('',(#619,#620,#621,#622));
#121=EDGE_LOOP('',(#623,#624,#625,#626));
#122=EDGE_LOOP('',(#627,#628,#629,#630,#631));
#123=EDGE_LOOP('',(#632,#633,#634,#635,#636));
#124=EDGE_LOOP('',(#637,#638,#639,#640));
#125=EDGE_LOOP('',(#641,#642,#643,#644,#645));
#126=EDGE_LOOP('',(#646,#647,#648,#649,#650,#651,#652,#653,#654,#655));
#127=EDGE_LOOP('',(#656,#657,#658,#659));
#128=EDGE_LOOP('',(#660,#661,#662,#663));
#129=LINE('',#1025,#193);
#130=LINE('',#1028,#194);
#131=LINE('',#1031,#195);
#132=LINE('',#1033,#196);
#133=LINE('',#1034,#197);
#134=LINE('',#1040,#198);
#135=LINE('',#1043,#199);
#136=LINE('',#1049,#200);
#137=LINE('',#1051,#201);
#138=LINE('',#1053,#202);
#139=LINE('',#1055,#203);
#140=LINE('',#1058,#204);
#141=LINE('',#1061,#205);
#142=LINE('',#1063,#206);
#143=LINE('',#1064,#207);
#144=LINE('',#1067,#208);
#145=LINE('',#1069,#209);
#146=LINE('',#1071,#210);
#147=LINE('',#1075,#211);
#148=LINE('',#1076,#212);
#149=LINE('',#1081,#213);
#150=LINE('',#1083,#214);
#151=LINE('',#1086,#215);
#152=LINE('',#1091,#216);
#153=LINE('',#1093,#217);
#154=LINE('',#1102,#218);
#155=LINE('',#1103,#219);
#156=LINE('',#1106,#220);
#157=LINE('',#1115,#221);
#158=LINE('',#1117,#222);
#159=LINE('',#1122,#223);
#160=LINE('',#1129,#224);
#161=LINE('',#1131,#225);
#162=LINE('',#1133,#226);
#163=LINE('',#1137,#227);
#164=LINE('',#1139,#228);
#165=LINE('',#1144,#229);
#166=LINE('',#1149,#230);
#167=LINE('',#1153,#231);
#168=LINE('',#1154,#232);
#169=LINE('',#1159,#233);
#170=LINE('',#1163,#234);
#171=LINE('',#1165,#235);
#172=LINE('',#1166,#236);
#173=LINE('',#1169,#237);
#174=LINE('',#1170,#238);
#175=LINE('',#1179,#239);
#176=LINE('',#1180,#240);
#177=LINE('',#1188,#241);
#178=LINE('',#1189,#242);
#179=LINE('',#1191,#243);
#180=LINE('',#1193,#244);
#181=LINE('',#1198,#245);
#182=LINE('',#1199,#246);
#183=LINE('',#1202,#247);
#184=LINE('',#1214,#248);
#185=LINE('',#1216,#249);
#186=LINE('',#1221,#250);
#187=LINE('',#1222,#251);
#188=LINE('',#1224,#252);
#189=LINE('',#1227,#253);
#190=LINE('',#1229,#254);
#191=LINE('',#1231,#255);
#192=LINE('',#1233,#256);
#193=VECTOR('',#805,10.);
#194=VECTOR('',#808,10.);
#195=VECTOR('',#811,10.);
#196=VECTOR('',#812,10.);
#197=VECTOR('',#813,10.);
#198=VECTOR('',#818,10.);
#199=VECTOR('',#821,10.);
#200=VECTOR('',#830,10.);
#201=VECTOR('',#831,10.);
#202=VECTOR('',#832,10.);
#203=VECTOR('',#833,10.);
#204=VECTOR('',#836,10.);
#205=VECTOR('',#839,10.);
#206=VECTOR('',#840,10.);
#207=VECTOR('',#841,10.);
#208=VECTOR('',#844,10.);
#209=VECTOR('',#845,10.);
#210=VECTOR('',#846,10.);
#211=VECTOR('',#849,10.);
#212=VECTOR('',#850,10.);
#213=VECTOR('',#855,10.);
#214=VECTOR('',#856,10.);
#215=VECTOR('',#859,10.);
#216=VECTOR('',#864,10.);
#217=VECTOR('',#865,10.);
#218=VECTOR('',#866,10.);
#219=VECTOR('',#867,10.);
#220=VECTOR('',#870,10.);
#221=VECTOR('',#875,10.);
#222=VECTOR('',#876,10.);
#223=VECTOR('',#881,10.);
#224=VECTOR('',#888,10.);
#225=VECTOR('',#889,10.);
#226=VECTOR('',#890,10.);
#227=VECTOR('',#893,10.);
#228=VECTOR('',#894,10.);
#229=VECTOR('',#901,10.);
#230=VECTOR('',#910,25.);
#231=VECTOR('',#915,10.);
#232=VECTOR('',#916,10.);
#233=VECTOR('',#921,10.);
#234=VECTOR('',#924,10.);
#235=VECTOR('',#925,10.);
#236=VECTOR('',#926,10.);
#237=VECTOR('',#929,10.);
#238=VECTOR('',#930,10.);
#239=VECTOR('',#941,10.);
#240=VECTOR('',#942,10.);
#241=VECTOR('',#953,10.);
#242=VECTOR('',#954,10.);
#243=VECTOR('',#957,10.);
#244=VECTOR('',#960,10.);
#245=VECTOR('',#965,10.);
#246=VECTOR('',#966,10.);
#247=VECTOR('',#971,10.);
#248=VECTOR('',#988,10.);
#249=VECTOR('',#991,10.);
#250=VECTOR('',#996,10.);
#251=VECTOR('',#997,10.);
#252=VECTOR('',#1000,10.);
#253=VECTOR('',#1005,10.);
#254=VECTOR('',#1008,10.);
#255=VECTOR('',#1011,10.);
#256=VECTOR('',#1014,10.);
#257=CIRCLE('',#723,5.);
#258=CIRCLE('',#724,5.);
#259=CIRCLE('',#727,5.);
#260=CIRCLE('',#728,5.);
#261=CIRCLE('',#730,137.);
#262=CIRCLE('',#731,137.);
#263=CIRCLE('',#733,3.);
#264=CIRCLE('',#736,70.000000000031);
#265=CIRCLE('',#737,25.);
#266=CIRCLE('',#739,75.4);
#267=CIRCLE('',#740,25.);
#268=CIRCLE('',#744,70.);
#269=CIRCLE('',#745,70.000000000031);
#270=CIRCLE('',#748,72.4);
#271=CIRCLE('',#749,3.);
#272=CIRCLE('',#750,3.);
#273=CIRCLE('',#751,70.000000000031);
#274=CIRCLE('',#753,72.4);
#275=CIRCLE('',#755,3.);
#276=CIRCLE('',#756,2.99999999999997);
#277=CIRCLE('',#761,3.);
#278=CIRCLE('',#762,3.);
#279=CIRCLE('',#765,3.00000000000002);
#280=CIRCLE('',#766,2.99999999999997);
#281=CIRCLE('',#767,2.99999999999999);
#282=CIRCLE('',#770,2.99999999999998);
#283=CIRCLE('',#771,2.99999999999997);
#284=CIRCLE('',#772,3.00000000000001);
#285=CIRCLE('',#781,3.);
#286=CIRCLE('',#782,2.99999999999998);
#287=CIRCLE('',#784,2.99999999999999);
#288=CIRCLE('',#785,2.99999999999997);
#289=CIRCLE('',#786,2.99999999999999);
#290=VERTEX_POINT('',#1021);
#291=VERTEX_POINT('',#1022);
#292=VERTEX_POINT('',#1024);
#293=VERTEX_POINT('',#1026);
#294=VERTEX_POINT('',#1030);
#295=VERTEX_POINT('',#1032);
#296=VERTEX_POINT('',#1036);
#297=VERTEX_POINT('',#1037);
#298=VERTEX_POINT('',#1039);
#299=VERTEX_POINT('',#1041);
#300=VERTEX_POINT('',#1048);
#301=VERTEX_POINT('',#1050);
#302=VERTEX_POINT('',#1052);
#303=VERTEX_POINT('',#1054);
#304=VERTEX_POINT('',#1056);
#305=VERTEX_POINT('',#1060);
#306=VERTEX_POINT('',#1062);
#307=VERTEX_POINT('',#1066);
#308=VERTEX_POINT('',#1068);
#309=VERTEX_POINT('',#1070);
#310=VERTEX_POINT('',#1072);
#311=VERTEX_POINT('',#1074);
#312=VERTEX_POINT('',#1077);
#313=VERTEX_POINT('',#1080);
#314=VERTEX_POINT('',#1082);
#315=VERTEX_POINT('',#1084);
#316=VERTEX_POINT('',#1087);
#317=VERTEX_POINT('',#1090);
#318=VERTEX_POINT('',#1092);
#319=VERTEX_POINT('',#1094);
#320=VERTEX_POINT('',#1101);
#321=VERTEX_POINT('',#1105);
#322=VERTEX_POINT('',#1112);
#323=VERTEX_POINT('',#1114);
#324=VERTEX_POINT('',#1116);
#325=VERTEX_POINT('',#1118);
#326=VERTEX_POINT('',#1120);
#327=VERTEX_POINT('',#1124);
#328=VERTEX_POINT('',#1126);
#329=VERTEX_POINT('',#1128);
#330=VERTEX_POINT('',#1130);
#331=VERTEX_POINT('',#1132);
#332=VERTEX_POINT('',#1134);
#333=VERTEX_POINT('',#1136);
#334=VERTEX_POINT('',#1138);
#335=VERTEX_POINT('',#1142);
#336=VERTEX_POINT('',#1152);
#337=VERTEX_POINT('',#1156);
#338=VERTEX_POINT('',#1158);
#339=VERTEX_POINT('',#1160);
#340=VERTEX_POINT('',#1162);
#341=VERTEX_POINT('',#1164);
#342=VERTEX_POINT('',#1168);
#343=VERTEX_POINT('',#1172);
#344=VERTEX_POINT('',#1173);
#345=VERTEX_POINT('',#1175);
#346=VERTEX_POINT('',#1182);
#347=VERTEX_POINT('',#1184);
#348=VERTEX_POINT('',#1195);
#349=VERTEX_POINT('',#1196);
#350=VERTEX_POINT('',#1204);
#351=VERTEX_POINT('',#1208);
#352=VERTEX_POINT('',#1209);
#353=VERTEX_POINT('',#1218);
#354=VERTEX_POINT('',#1219);
#355=EDGE_CURVE('',#290,#291,#257,.T.);
#356=EDGE_CURVE('',#291,#292,#129,.T.);
#357=EDGE_CURVE('',#292,#293,#258,.T.);
#358=EDGE_CURVE('',#293,#290,#130,.T.);
#359=EDGE_CURVE('',#291,#294,#131,.T.);
#360=EDGE_CURVE('',#294,#295,#132,.T.);
#361=EDGE_CURVE('',#295,#292,#133,.T.);
#362=EDGE_CURVE('',#296,#297,#259,.T.);
#363=EDGE_CURVE('',#297,#298,#134,.T.);
#364=EDGE_CURVE('',#298,#299,#260,.T.);
#365=EDGE_CURVE('',#299,#296,#135,.T.);
#366=EDGE_CURVE('',#293,#298,#261,.F.);
#367=EDGE_CURVE('',#290,#297,#262,.F.);
#368=EDGE_CURVE('',#299,#300,#136,.T.);
#369=EDGE_CURVE('',#300,#301,#137,.T.);
#370=EDGE_CURVE('',#302,#301,#138,.T.);
#371=EDGE_CURVE('',#302,#303,#139,.T.);
#372=EDGE_CURVE('',#304,#303,#263,.T.);
#373=EDGE_CURVE('',#296,#304,#140,.T.);
#374=EDGE_CURVE('',#294,#305,#141,.F.);
#375=EDGE_CURVE('',#306,#305,#142,.T.);
#376=EDGE_CURVE('',#295,#306,#143,.F.);
#377=EDGE_CURVE('',#307,#306,#144,.T.);
#378=EDGE_CURVE('',#307,#308,#145,.T.);
#379=EDGE_CURVE('',#308,#309,#146,.T.);
#380=EDGE_CURVE('',#309,#310,#264,.T.);
#381=EDGE_CURVE('',#311,#310,#147,.T.);
#382=EDGE_CURVE('',#300,#311,#148,.T.);
#383=EDGE_CURVE('',#312,#312,#265,.T.);
#384=EDGE_CURVE('',#313,#304,#149,.T.);
#385=EDGE_CURVE('',#314,#313,#150,.T.);
#386=EDGE_CURVE('',#315,#314,#266,.T.);
#387=EDGE_CURVE('',#305,#315,#151,.T.);
#388=EDGE_CURVE('',#316,#316,#267,.T.);
#389=EDGE_CURVE('',#309,#317,#152,.T.);
#390=EDGE_CURVE('',#318,#308,#153,.T.);
#391=EDGE_CURVE('',#319,#318,#24,.T.);
#392=EDGE_CURVE('',#320,#319,#154,.T.);
#393=EDGE_CURVE('',#317,#320,#155,.T.);
#394=EDGE_CURVE('',#321,#307,#156,.T.);
#395=EDGE_CURVE('',#318,#321,#25,.T.);
#396=EDGE_CURVE('',#322,#317,#268,.T.);
#397=EDGE_CURVE('',#323,#322,#157,.T.);
#398=EDGE_CURVE('',#324,#323,#158,.T.);
#399=EDGE_CURVE('',#325,#323,#269,.T.);
#400=EDGE_CURVE('',#326,#325,#20,.T.);
#401=EDGE_CURVE('',#310,#326,#159,.T.);
#402=EDGE_CURVE('',#320,#327,#270,.F.);
#403=EDGE_CURVE('',#328,#327,#271,.T.);
#404=EDGE_CURVE('',#328,#329,#160,.T.);
#405=EDGE_CURVE('',#330,#329,#161,.T.);
#406=EDGE_CURVE('',#330,#331,#162,.T.);
#407=EDGE_CURVE('',#332,#331,#272,.T.);
#408=EDGE_CURVE('',#332,#333,#163,.T.);
#409=EDGE_CURVE('',#334,#333,#164,.T.);
#410=EDGE_CURVE('',#334,#322,#273,.T.);
#411=EDGE_CURVE('',#335,#319,#274,.T.);
#412=EDGE_CURVE('',#327,#335,#165,.T.);
#413=EDGE_CURVE('',#321,#315,#275,.T.);
#414=EDGE_CURVE('',#314,#335,#276,.F.);
#415=EDGE_CURVE('',#312,#316,#166,.T.);
#416=EDGE_CURVE('',#325,#334,#21,.T.);
#417=EDGE_CURVE('',#333,#336,#167,.T.);
#418=EDGE_CURVE('',#336,#326,#168,.T.);
#419=EDGE_CURVE('',#337,#336,#277,.T.);
#420=EDGE_CURVE('',#338,#337,#169,.F.);
#421=EDGE_CURVE('',#339,#338,#278,.T.);
#422=EDGE_CURVE('',#339,#340,#170,.T.);
#423=EDGE_CURVE('',#341,#340,#171,.T.);
#424=EDGE_CURVE('',#341,#311,#172,.T.);
#425=EDGE_CURVE('',#342,#332,#173,.T.);
#426=EDGE_CURVE('',#336,#342,#174,.T.);
#427=EDGE_CURVE('',#343,#344,#279,.F.);
#428=EDGE_CURVE('',#345,#343,#280,.F.);
#429=EDGE_CURVE('',#344,#345,#281,.F.);
#430=EDGE_CURVE('',#338,#345,#175,.T.);
#431=EDGE_CURVE('',#343,#339,#176,.T.);
#432=EDGE_CURVE('',#346,#342,#282,.F.);
#433=EDGE_CURVE('',#347,#346,#283,.F.);
#434=EDGE_CURVE('',#342,#347,#284,.F.);
#435=EDGE_CURVE('',#346,#344,#177,.T.);
#436=EDGE_CURVE('',#345,#347,#178,.T.);
#437=EDGE_CURVE('',#347,#337,#179,.T.);
#438=EDGE_CURVE('',#331,#346,#180,.T.);
#439=EDGE_CURVE('',#348,#349,#22,.T.);
#440=EDGE_CURVE('',#349,#343,#181,.T.);
#441=EDGE_CURVE('',#344,#348,#182,.T.);
#442=EDGE_CURVE('',#340,#349,#183,.F.);
#443=EDGE_CURVE('',#335,#350,#285,.F.);
#444=EDGE_CURVE('',#350,#314,#286,.F.);
#445=EDGE_CURVE('',#351,#352,#287,.F.);
#446=EDGE_CURVE('',#313,#351,#288,.F.);
#447=EDGE_CURVE('',#352,#313,#289,.F.);
#448=EDGE_CURVE('',#351,#350,#184,.T.);
#449=EDGE_CURVE('',#303,#352,#185,.T.);
#450=EDGE_CURVE('',#353,#354,#23,.T.);
#451=EDGE_CURVE('',#354,#351,#186,.T.);
#452=EDGE_CURVE('',#352,#353,#187,.T.);
#453=EDGE_CURVE('',#350,#328,#188,.T.);
#454=EDGE_CURVE('',#348,#330,#189,.T.);
#455=EDGE_CURVE('',#353,#302,#190,.F.);
#456=EDGE_CURVE('',#329,#354,#191,.T.);
#457=EDGE_CURVE('',#301,#341,#192,.T.);
#458=ORIENTED_EDGE('',*,*,#355,.T.);
#459=ORIENTED_EDGE('',*,*,#356,.T.);
#460=ORIENTED_EDGE('',*,*,#357,.T.);
#461=ORIENTED_EDGE('',*,*,#358,.T.);
#462=ORIENTED_EDGE('',*,*,#356,.F.);
#463=ORIENTED_EDGE('',*,*,#359,.T.);
#464=ORIENTED_EDGE('',*,*,#360,.T.);
#465=ORIENTED_EDGE('',*,*,#361,.T.);
#466=ORIENTED_EDGE('',*,*,#362,.T.);
#467=ORIENTED_EDGE('',*,*,#363,.T.);
#468=ORIENTED_EDGE('',*,*,#364,.T.);
#469=ORIENTED_EDGE('',*,*,#365,.T.);
#470=ORIENTED_EDGE('',*,*,#358,.F.);
#471=ORIENTED_EDGE('',*,*,#366,.T.);
#472=ORIENTED_EDGE('',*,*,#363,.F.);
#473=ORIENTED_EDGE('',*,*,#367,.F.);
#474=ORIENTED_EDGE('',*,*,#365,.F.);
#475=ORIENTED_EDGE('',*,*,#368,.T.);
#476=ORIENTED_EDGE('',*,*,#369,.T.);
#477=ORIENTED_EDGE('',*,*,#370,.F.);
#478=ORIENTED_EDGE('',*,*,#371,.T.);
#479=ORIENTED_EDGE('',*,*,#372,.F.);
#480=ORIENTED_EDGE('',*,*,#373,.F.);
#481=ORIENTED_EDGE('',*,*,#374,.T.);
#482=ORIENTED_EDGE('',*,*,#375,.F.);
#483=ORIENTED_EDGE('',*,*,#376,.F.);
#484=ORIENTED_EDGE('',*,*,#360,.F.);
#485=ORIENTED_EDGE('',*,*,#361,.F.);
#486=ORIENTED_EDGE('',*,*,#376,.T.);
#487=ORIENTED_EDGE('',*,*,#377,.F.);
#488=ORIENTED_EDGE('',*,*,#378,.T.);
#489=ORIENTED_EDGE('',*,*,#379,.T.);
#490=ORIENTED_EDGE('',*,*,#380,.T.);
#491=ORIENTED_EDGE('',*,*,#381,.F.);
#492=ORIENTED_EDGE('',*,*,#382,.F.);
#493=ORIENTED_EDGE('',*,*,#368,.F.);
#494=ORIENTED_EDGE('',*,*,#364,.F.);
#495=ORIENTED_EDGE('',*,*,#366,.F.);
#496=ORIENTED_EDGE('',*,*,#357,.F.);
#497=ORIENTED_EDGE('',*,*,#383,.T.);
#498=ORIENTED_EDGE('',*,*,#373,.T.);
#499=ORIENTED_EDGE('',*,*,#384,.F.);
#500=ORIENTED_EDGE('',*,*,#385,.F.);
#501=ORIENTED_EDGE('',*,*,#386,.F.);
#502=ORIENTED_EDGE('',*,*,#387,.F.);
#503=ORIENTED_EDGE('',*,*,#374,.F.);
#504=ORIENTED_EDGE('',*,*,#359,.F.);
#505=ORIENTED_EDGE('',*,*,#355,.F.);
#506=ORIENTED_EDGE('',*,*,#367,.T.);
#507=ORIENTED_EDGE('',*,*,#362,.F.);
#508=ORIENTED_EDGE('',*,*,#388,.T.);
#509=ORIENTED_EDGE('',*,*,#389,.F.);
#510=ORIENTED_EDGE('',*,*,#379,.F.);
#511=ORIENTED_EDGE('',*,*,#390,.F.);
#512=ORIENTED_EDGE('',*,*,#391,.F.);
#513=ORIENTED_EDGE('',*,*,#392,.F.);
#514=ORIENTED_EDGE('',*,*,#393,.F.);
#515=ORIENTED_EDGE('',*,*,#394,.F.);
#516=ORIENTED_EDGE('',*,*,#395,.F.);
#517=ORIENTED_EDGE('',*,*,#390,.T.);
#518=ORIENTED_EDGE('',*,*,#378,.F.);
#519=ORIENTED_EDGE('',*,*,#389,.T.);
#520=ORIENTED_EDGE('',*,*,#396,.F.);
#521=ORIENTED_EDGE('',*,*,#397,.F.);
#522=ORIENTED_EDGE('',*,*,#398,.F.);
#523=ORIENTED_EDGE('',*,*,#398,.T.);
#524=ORIENTED_EDGE('',*,*,#399,.F.);
#525=ORIENTED_EDGE('',*,*,#400,.F.);
#526=ORIENTED_EDGE('',*,*,#401,.F.);
#527=ORIENTED_EDGE('',*,*,#380,.F.);
#528=ORIENTED_EDGE('',*,*,#393,.T.);
#529=ORIENTED_EDGE('',*,*,#402,.T.);
#530=ORIENTED_EDGE('',*,*,#403,.F.);
#531=ORIENTED_EDGE('',*,*,#404,.T.);
#532=ORIENTED_EDGE('',*,*,#405,.F.);
#533=ORIENTED_EDGE('',*,*,#406,.T.);
#534=ORIENTED_EDGE('',*,*,#407,.F.);
#535=ORIENTED_EDGE('',*,*,#408,.T.);
#536=ORIENTED_EDGE('',*,*,#409,.F.);
#537=ORIENTED_EDGE('',*,*,#410,.T.);
#538=ORIENTED_EDGE('',*,*,#396,.T.);
#539=ORIENTED_EDGE('',*,*,#392,.T.);
#540=ORIENTED_EDGE('',*,*,#411,.F.);
#541=ORIENTED_EDGE('',*,*,#412,.F.);
#542=ORIENTED_EDGE('',*,*,#402,.F.);
#543=ORIENTED_EDGE('',*,*,#391,.T.);
#544=ORIENTED_EDGE('',*,*,#395,.T.);
#545=ORIENTED_EDGE('',*,*,#413,.T.);
#546=ORIENTED_EDGE('',*,*,#386,.T.);
#547=ORIENTED_EDGE('',*,*,#414,.T.);
#548=ORIENTED_EDGE('',*,*,#411,.T.);
#549=ORIENTED_EDGE('',*,*,#383,.F.);
#550=ORIENTED_EDGE('',*,*,#415,.T.);
#551=ORIENTED_EDGE('',*,*,#388,.F.);
#552=ORIENTED_EDGE('',*,*,#415,.F.);
#553=ORIENTED_EDGE('',*,*,#416,.T.);
#554=ORIENTED_EDGE('',*,*,#409,.T.);
#555=ORIENTED_EDGE('',*,*,#417,.T.);
#556=ORIENTED_EDGE('',*,*,#418,.T.);
#557=ORIENTED_EDGE('',*,*,#400,.T.);
#558=ORIENTED_EDGE('',*,*,#418,.F.);
#559=ORIENTED_EDGE('',*,*,#419,.F.);
#560=ORIENTED_EDGE('',*,*,#420,.F.);
#561=ORIENTED_EDGE('',*,*,#421,.F.);
#562=ORIENTED_EDGE('',*,*,#422,.T.);
#563=ORIENTED_EDGE('',*,*,#423,.F.);
#564=ORIENTED_EDGE('',*,*,#424,.T.);
#565=ORIENTED_EDGE('',*,*,#381,.T.);
#566=ORIENTED_EDGE('',*,*,#401,.T.);
#567=ORIENTED_EDGE('',*,*,#417,.F.);
#568=ORIENTED_EDGE('',*,*,#408,.F.);
#569=ORIENTED_EDGE('',*,*,#425,.F.);
#570=ORIENTED_EDGE('',*,*,#426,.F.);
#571=ORIENTED_EDGE('',*,*,#427,.F.);
#572=ORIENTED_EDGE('',*,*,#428,.F.);
#573=ORIENTED_EDGE('',*,*,#429,.F.);
#574=ORIENTED_EDGE('',*,*,#421,.T.);
#575=ORIENTED_EDGE('',*,*,#430,.T.);
#576=ORIENTED_EDGE('',*,*,#428,.T.);
#577=ORIENTED_EDGE('',*,*,#431,.T.);
#578=ORIENTED_EDGE('',*,*,#432,.F.);
#579=ORIENTED_EDGE('',*,*,#433,.F.);
#580=ORIENTED_EDGE('',*,*,#434,.F.);
#581=ORIENTED_EDGE('',*,*,#433,.T.);
#582=ORIENTED_EDGE('',*,*,#435,.T.);
#583=ORIENTED_EDGE('',*,*,#429,.T.);
#584=ORIENTED_EDGE('',*,*,#436,.T.);
#585=ORIENTED_EDGE('',*,*,#419,.T.);
#586=ORIENTED_EDGE('',*,*,#426,.T.);
#587=ORIENTED_EDGE('',*,*,#434,.T.);
#588=ORIENTED_EDGE('',*,*,#437,.T.);
#589=ORIENTED_EDGE('',*,*,#407,.T.);
#590=ORIENTED_EDGE('',*,*,#438,.T.);
#591=ORIENTED_EDGE('',*,*,#432,.T.);
#592=ORIENTED_EDGE('',*,*,#425,.T.);
#593=ORIENTED_EDGE('',*,*,#439,.T.);
#594=ORIENTED_EDGE('',*,*,#440,.T.);
#595=ORIENTED_EDGE('',*,*,#427,.T.);
#596=ORIENTED_EDGE('',*,*,#441,.T.);
#597=ORIENTED_EDGE('',*,*,#437,.F.);
#598=ORIENTED_EDGE('',*,*,#436,.F.);
#599=ORIENTED_EDGE('',*,*,#430,.F.);
#600=ORIENTED_EDGE('',*,*,#420,.T.);
#601=ORIENTED_EDGE('',*,*,#431,.F.);
#602=ORIENTED_EDGE('',*,*,#440,.F.);
#603=ORIENTED_EDGE('',*,*,#442,.F.);
#604=ORIENTED_EDGE('',*,*,#422,.F.);
#605=ORIENTED_EDGE('',*,*,#443,.F.);
#606=ORIENTED_EDGE('',*,*,#414,.F.);
#607=ORIENTED_EDGE('',*,*,#444,.F.);
#608=ORIENTED_EDGE('',*,*,#445,.F.);
#609=ORIENTED_EDGE('',*,*,#446,.F.);
#610=ORIENTED_EDGE('',*,*,#447,.F.);
#611=ORIENTED_EDGE('',*,*,#446,.T.);
#612=ORIENTED_EDGE('',*,*,#448,.T.);
#613=ORIENTED_EDGE('',*,*,#444,.T.);
#614=ORIENTED_EDGE('',*,*,#385,.T.);
#615=ORIENTED_EDGE('',*,*,#372,.T.);
#616=ORIENTED_EDGE('',*,*,#449,.T.);
#617=ORIENTED_EDGE('',*,*,#447,.T.);
#618=ORIENTED_EDGE('',*,*,#384,.T.);
#619=ORIENTED_EDGE('',*,*,#450,.T.);
#620=ORIENTED_EDGE('',*,*,#451,.T.);
#621=ORIENTED_EDGE('',*,*,#445,.T.);
#622=ORIENTED_EDGE('',*,*,#452,.T.);
#623=ORIENTED_EDGE('',*,*,#403,.T.);
#624=ORIENTED_EDGE('',*,*,#412,.T.);
#625=ORIENTED_EDGE('',*,*,#443,.T.);
#626=ORIENTED_EDGE('',*,*,#453,.T.);
#627=ORIENTED_EDGE('',*,*,#387,.T.);
#628=ORIENTED_EDGE('',*,*,#413,.F.);
#629=ORIENTED_EDGE('',*,*,#394,.T.);
#630=ORIENTED_EDGE('',*,*,#377,.T.);
#631=ORIENTED_EDGE('',*,*,#375,.T.);
#632=ORIENTED_EDGE('',*,*,#438,.F.);
#633=ORIENTED_EDGE('',*,*,#406,.F.);
#634=ORIENTED_EDGE('',*,*,#454,.F.);
#635=ORIENTED_EDGE('',*,*,#441,.F.);
#636=ORIENTED_EDGE('',*,*,#435,.F.);
#637=ORIENTED_EDGE('',*,*,#449,.F.);
#638=ORIENTED_EDGE('',*,*,#371,.F.);
#639=ORIENTED_EDGE('',*,*,#455,.F.);
#640=ORIENTED_EDGE('',*,*,#452,.F.);
#641=ORIENTED_EDGE('',*,*,#451,.F.);
#642=ORIENTED_EDGE('',*,*,#456,.F.);
#643=ORIENTED_EDGE('',*,*,#404,.F.);
#644=ORIENTED_EDGE('',*,*,#453,.F.);
#645=ORIENTED_EDGE('',*,*,#448,.F.);
#646=ORIENTED_EDGE('',*,*,#442,.T.);
#647=ORIENTED_EDGE('',*,*,#439,.F.);
#648=ORIENTED_EDGE('',*,*,#454,.T.);
#649=ORIENTED_EDGE('',*,*,#405,.T.);
#650=ORIENTED_EDGE('',*,*,#456,.T.);
#651=ORIENTED_EDGE('',*,*,#450,.F.);
#652=ORIENTED_EDGE('',*,*,#455,.T.);
#653=ORIENTED_EDGE('',*,*,#370,.T.);
#654=ORIENTED_EDGE('',*,*,#457,.T.);
#655=ORIENTED_EDGE('',*,*,#423,.T.);
#656=ORIENTED_EDGE('',*,*,#424,.F.);
#657=ORIENTED_EDGE('',*,*,#457,.F.);
#658=ORIENTED_EDGE('',*,*,#369,.F.);
#659=ORIENTED_EDGE('',*,*,#382,.T.);
#660=ORIENTED_EDGE('',*,*,#416,.F.);
#661=ORIENTED_EDGE('',*,*,#399,.T.);
#662=ORIENTED_EDGE('',*,*,#397,.T.);
#663=ORIENTED_EDGE('',*,*,#410,.F.);
#664=CYLINDRICAL_SURFACE('',#722,5.);
#665=CYLINDRICAL_SURFACE('',#726,5.);
#666=CYLINDRICAL_SURFACE('',#729,137.);
#667=CYLINDRICAL_SURFACE('',#743,70.);
#668=CYLINDRICAL_SURFACE('',#752,72.4);
#669=CYLINDRICAL_SURFACE('',#757,25.);
#670=CYLINDRICAL_SURFACE('',#768,3.);
#671=CYLINDRICAL_SURFACE('',#773,3.);
#672=CYLINDRICAL_SURFACE('',#774,3.);
#673=CYLINDRICAL_SURFACE('',#775,3.);
#674=CYLINDRICAL_SURFACE('',#776,3.);
#675=CYLINDRICAL_SURFACE('',#787,3.);
#676=CYLINDRICAL_SURFACE('',#788,3.);
#677=CYLINDRICAL_SURFACE('',#789,3.);
#678=CYLINDRICAL_SURFACE('',#791,3.);
#679=CYLINDRICAL_SURFACE('',#798,70.0000000000109);
#680=ADVANCED_FACE('',(#47),#664,.F.);
#681=ADVANCED_FACE('',(#48),#28,.T.);
#682=ADVANCED_FACE('',(#49),#665,.F.);
#683=ADVANCED_FACE('',(#50),#666,.T.);
#684=ADVANCED_FACE('',(#51),#29,.T.);
#685=ADVANCED_FACE('',(#52),#30,.F.);
#686=ADVANCED_FACE('',(#53,#26),#31,.F.);
#687=ADVANCED_FACE('',(#54,#27),#32,.T.);
#688=ADVANCED_FACE('',(#55),#33,.T.);
#689=ADVANCED_FACE('',(#56),#34,.T.);
#690=ADVANCED_FACE('',(#57),#667,.F.);
#691=ADVANCED_FACE('',(#58),#35,.F.);
#692=ADVANCED_FACE('',(#59),#668,.T.);
#693=ADVANCED_FACE('',(#60),#19,.F.);
#694=ADVANCED_FACE('',(#61),#669,.F.);
#695=ADVANCED_FACE('',(#62),#36,.T.);
#696=ADVANCED_FACE('',(#63),#37,.F.);
#697=ADVANCED_FACE('',(#64),#38,.T.);
#698=ADVANCED_FACE('',(#65),#15,.F.);
#699=ADVANCED_FACE('',(#66),#670,.F.);
#700=ADVANCED_FACE('',(#67),#16,.F.);
#701=ADVANCED_FACE('',(#68),#671,.F.);
#702=ADVANCED_FACE('',(#69),#672,.F.);
#703=ADVANCED_FACE('',(#70),#673,.F.);
#704=ADVANCED_FACE('',(#71),#674,.F.);
#705=ADVANCED_FACE('',(#72),#39,.T.);
#706=ADVANCED_FACE('',(#73),#40,.T.);
#707=ADVANCED_FACE('',(#74),#17,.F.);
#708=ADVANCED_FACE('',(#75),#18,.F.);
#709=ADVANCED_FACE('',(#76),#675,.F.);
#710=ADVANCED_FACE('',(#77),#676,.F.);
#711=ADVANCED_FACE('',(#78),#677,.F.);
#712=ADVANCED_FACE('',(#79),#678,.F.);
#713=ADVANCED_FACE('',(#80),#41,.T.);
#714=ADVANCED_FACE('',(#81),#42,.F.);
#715=ADVANCED_FACE('',(#82),#43,.T.);
#716=ADVANCED_FACE('',(#83),#44,.F.);
#717=ADVANCED_FACE('',(#84),#45,.T.);
#718=ADVANCED_FACE('',(#85),#46,.F.);
#719=ADVANCED_FACE('',(#86),#679,.F.);
#720=CLOSED_SHELL('',(#680,#681,#682,#683,#684,#685,#686,#687,#688,#689,
#690,#691,#692,#693,#694,#695,#696,#697,#698,#699,#700,#701,#702,#703,#704,
#705,#706,#707,#708,#709,#710,#711,#712,#713,#714,#715,#716,#717,#718,#719));
#721=AXIS2_PLACEMENT_3D('',#1019,#799,#800);
#722=AXIS2_PLACEMENT_3D('',#1020,#801,#802);
#723=AXIS2_PLACEMENT_3D('',#1023,#803,#804);
#724=AXIS2_PLACEMENT_3D('',#1027,#806,#807);
#725=AXIS2_PLACEMENT_3D('',#1029,#809,#810);
#726=AXIS2_PLACEMENT_3D('',#1035,#814,#815);
#727=AXIS2_PLACEMENT_3D('',#1038,#816,#817);
#728=AXIS2_PLACEMENT_3D('',#1042,#819,#820);
#729=AXIS2_PLACEMENT_3D('',#1044,#822,#823);
#730=AXIS2_PLACEMENT_3D('',#1045,#824,#825);
#731=AXIS2_PLACEMENT_3D('',#1046,#826,#827);
#732=AXIS2_PLACEMENT_3D('',#1047,#828,#829);
#733=AXIS2_PLACEMENT_3D('',#1057,#834,#835);
#734=AXIS2_PLACEMENT_3D('',#1059,#837,#838);
#735=AXIS2_PLACEMENT_3D('',#1065,#842,#843);
#736=AXIS2_PLACEMENT_3D('',#1073,#847,#848);
#737=AXIS2_PLACEMENT_3D('',#1078,#851,#852);
#738=AXIS2_PLACEMENT_3D('',#1079,#853,#854);
#739=AXIS2_PLACEMENT_3D('',#1085,#857,#858);
#740=AXIS2_PLACEMENT_3D('',#1088,#860,#861);
#741=AXIS2_PLACEMENT_3D('',#1089,#862,#863);
#742=AXIS2_PLACEMENT_3D('',#1104,#868,#869);
#743=AXIS2_PLACEMENT_3D('',#1111,#871,#872);
#744=AXIS2_PLACEMENT_3D('',#1113,#873,#874);
#745=AXIS2_PLACEMENT_3D('',#1119,#877,#878);
#746=AXIS2_PLACEMENT_3D('',#1121,#879,#880);
#747=AXIS2_PLACEMENT_3D('',#1123,#882,#883);
#748=AXIS2_PLACEMENT_3D('',#1125,#884,#885);
#749=AXIS2_PLACEMENT_3D('',#1127,#886,#887);
#750=AXIS2_PLACEMENT_3D('',#1135,#891,#892);
#751=AXIS2_PLACEMENT_3D('',#1140,#895,#896);
#752=AXIS2_PLACEMENT_3D('',#1141,#897,#898);
#753=AXIS2_PLACEMENT_3D('',#1143,#899,#900);
#754=AXIS2_PLACEMENT_3D('',#1145,#902,#903);
#755=AXIS2_PLACEMENT_3D('',#1146,#904,#905);
#756=AXIS2_PLACEMENT_3D('',#1147,#906,#907);
#757=AXIS2_PLACEMENT_3D('',#1148,#908,#909);
#758=AXIS2_PLACEMENT_3D('',#1150,#911,#912);
#759=AXIS2_PLACEMENT_3D('',#1151,#913,#914);
#760=AXIS2_PLACEMENT_3D('',#1155,#917,#918);
#761=AXIS2_PLACEMENT_3D('',#1157,#919,#920);
#762=AXIS2_PLACEMENT_3D('',#1161,#922,#923);
#763=AXIS2_PLACEMENT_3D('',#1167,#927,#928);
#764=AXIS2_PLACEMENT_3D('',#1171,#931,#932);
#765=AXIS2_PLACEMENT_3D('',#1174,#933,#934);
#766=AXIS2_PLACEMENT_3D('',#1176,#935,#936);
#767=AXIS2_PLACEMENT_3D('',#1177,#937,#938);
#768=AXIS2_PLACEMENT_3D('',#1178,#939,#940);
#769=AXIS2_PLACEMENT_3D('',#1181,#943,#944);
#770=AXIS2_PLACEMENT_3D('',#1183,#945,#946);
#771=AXIS2_PLACEMENT_3D('',#1185,#947,#948);
#772=AXIS2_PLACEMENT_3D('',#1186,#949,#950);
#773=AXIS2_PLACEMENT_3D('',#1187,#951,#952);
#774=AXIS2_PLACEMENT_3D('',#1190,#955,#956);
#775=AXIS2_PLACEMENT_3D('',#1192,#958,#959);
#776=AXIS2_PLACEMENT_3D('',#1194,#961,#962);
#777=AXIS2_PLACEMENT_3D('',#1197,#963,#964);
#778=AXIS2_PLACEMENT_3D('',#1200,#967,#968);
#779=AXIS2_PLACEMENT_3D('',#1201,#969,#970);
#780=AXIS2_PLACEMENT_3D('',#1203,#972,#973);
#781=AXIS2_PLACEMENT_3D('',#1205,#974,#975);
#782=AXIS2_PLACEMENT_3D('',#1206,#976,#977);
#783=AXIS2_PLACEMENT_3D('',#1207,#978,#979);
#784=AXIS2_PLACEMENT_3D('',#1210,#980,#981);
#785=AXIS2_PLACEMENT_3D('',#1211,#982,#983);
#786=AXIS2_PLACEMENT_3D('',#1212,#984,#985);
#787=AXIS2_PLACEMENT_3D('',#1213,#986,#987);
#788=AXIS2_PLACEMENT_3D('',#1215,#989,#990);
#789=AXIS2_PLACEMENT_3D('',#1217,#992,#993);
#790=AXIS2_PLACEMENT_3D('',#1220,#994,#995);
#791=AXIS2_PLACEMENT_3D('',#1223,#998,#999);
#792=AXIS2_PLACEMENT_3D('',#1225,#1001,#1002);
#793=AXIS2_PLACEMENT_3D('',#1226,#1003,#1004);
#794=AXIS2_PLACEMENT_3D('',#1228,#1006,#1007);
#795=AXIS2_PLACEMENT_3D('',#1230,#1009,#1010);
#796=AXIS2_PLACEMENT_3D('',#1232,#1012,#1013);
#797=AXIS2_PLACEMENT_3D('',#1234,#1015,#1016);
#798=AXIS2_PLACEMENT_3D('',#1235,#1017,#1018);
#799=DIRECTION('axis',(0.,0.,1.));
#800=DIRECTION('refdir',(1.,0.,0.));
#801=DIRECTION('center_axis',(0.,0.,1.));
#802=DIRECTION('ref_axis',(-0.655421593166364,0.755263222467019,0.));
#803=DIRECTION('center_axis',(0.,0.,-1.));
#804=DIRECTION('ref_axis',(-0.655421593166364,0.755263222467019,0.));
#805=DIRECTION('',(0.,0.,1.));
#806=DIRECTION('center_axis',(0.,0.,1.));
#807=DIRECTION('ref_axis',(-0.655421593166364,0.755263222467019,0.));
#808=DIRECTION('',(0.,0.,-1.));
#809=DIRECTION('center_axis',(0.,-1.,0.));
#810=DIRECTION('ref_axis',(0.,0.,1.));
#811=DIRECTION('',(1.,0.,0.));
#812=DIRECTION('',(0.,0.,1.));
#813=DIRECTION('',(-1.,0.,0.));
#814=DIRECTION('center_axis',(0.,0.,1.));
#815=DIRECTION('ref_axis',(-0.997504799251259,-0.0705986931232072,0.));
#816=DIRECTION('center_axis',(0.,0.,-1.));
#817=DIRECTION('ref_axis',(-0.997504799251259,-0.0705986931232072,0.));
#818=DIRECTION('',(0.,0.,1.));
#819=DIRECTION('center_axis',(0.,0.,1.));
#820=DIRECTION('ref_axis',(-0.997504799251259,-0.0705986931232072,0.));
#821=DIRECTION('',(0.,0.,-1.));
#822=DIRECTION('center_axis',(0.,0.,-1.));
#823=DIRECTION('ref_axis',(1.,0.,0.));
#824=DIRECTION('center_axis',(0.,0.,1.));
#825=DIRECTION('ref_axis',(1.,0.,0.));
#826=DIRECTION('center_axis',(0.,0.,1.));
#827=DIRECTION('ref_axis',(1.,0.,0.));
#828=DIRECTION('center_axis',(0.707106781186548,0.707106781186547,0.));
#829=DIRECTION('ref_axis',(0.,0.,1.));
#830=DIRECTION('',(0.707106781186547,-0.707106781186548,0.));
#831=DIRECTION('',(0.,0.,-1.));
#832=DIRECTION('',(0.695406418630866,-0.695406418630866,0.181162429476935));
#833=DIRECTION('',(0.,0.,1.));
#834=DIRECTION('center_axis',(0.707106781186548,0.707106781186547,0.));
#835=DIRECTION('ref_axis',(0.499999999999998,-0.499999999999998,0.707106781186551));
#836=DIRECTION('',(0.707106781186547,-0.707106781186548,0.));
#837=DIRECTION('center_axis',(-1.,0.,0.));
#838=DIRECTION('ref_axis',(0.,-1.,0.));
#839=DIRECTION('',(0.,-1.,0.));
#840=DIRECTION('',(0.,0.,-1.));
#841=DIRECTION('',(0.,-1.,0.));
#842=DIRECTION('center_axis',(0.,0.,-1.));
#843=DIRECTION('ref_axis',(0.707106781186548,0.707106781186547,0.));
#844=DIRECTION('',(1.,-1.11022302462516E-16,0.));
#845=DIRECTION('',(0.,-1.,0.));
#846=DIRECTION('',(-1.,0.,0.));
#847=DIRECTION('center_axis',(0.,0.,-1.));
#848=DIRECTION('ref_axis',(-0.977727577638478,-0.209878021539165,0.));
#849=DIRECTION('',(-0.707106781186547,0.707106781186548,0.));
#850=DIRECTION('',(-0.707106781186548,-0.707106781186547,0.));
#851=DIRECTION('center_axis',(0.,0.,-1.));
#852=DIRECTION('ref_axis',(0.,1.,0.));
#853=DIRECTION('center_axis',(0.,0.,-1.));
#854=DIRECTION('ref_axis',(0.707106781186548,0.707106781186547,0.));
#855=DIRECTION('',(0.707106781186548,0.707106781186547,0.));
#856=DIRECTION('',(0.707106781186547,-0.707106781186548,0.));
#857=DIRECTION('center_axis',(0.,0.,-1.));
#858=DIRECTION('ref_axis',(0.927794429331121,-0.373091807605231,0.));
#859=DIRECTION('',(-1.,0.,0.));
#860=DIRECTION('center_axis',(0.,0.,1.));
#861=DIRECTION('ref_axis',(0.,1.,0.));
#862=DIRECTION('center_axis',(0.,1.,0.));
#863=DIRECTION('ref_axis',(0.,0.,-1.));
#864=DIRECTION('',(0.,0.,-1.));
#865=DIRECTION('',(0.,0.,1.));
#866=DIRECTION('',(0.,0.,1.));
#867=DIRECTION('',(1.,0.,0.));
#868=DIRECTION('center_axis',(-1.,0.,0.));
#869=DIRECTION('ref_axis',(0.,0.,-1.));
#870=DIRECTION('',(0.,0.,1.));
#871=DIRECTION('center_axis',(0.,0.,-1.));
#872=DIRECTION('ref_axis',(0.707106781186548,0.707106781186547,0.));
#873=DIRECTION('center_axis',(0.,0.,1.));
#874=DIRECTION('ref_axis',(0.707106781186548,0.707106781186547,0.));
#875=DIRECTION('',(2.91317724580099E-7,-2.91317724580099E-7,-0.999999999999915));
#876=DIRECTION('',(2.91317724580099E-7,-2.91317724580099E-7,-0.999999999999915));
#877=DIRECTION('center_axis',(0.,0.,1.));
#878=DIRECTION('ref_axis',(-0.977727577638478,-0.209878021539165,0.));
#879=DIRECTION('center_axis',(0.689523054887945,0.689523054887945,0.221621103588968));
#880=DIRECTION('ref_axis',(0.156709785201806,0.156709785201806,-0.97513285579146));
#881=DIRECTION('',(1.92453717103079E-7,-1.92453717040275E-7,-0.999999999999963));
#882=DIRECTION('center_axis',(0.,0.,1.));
#883=DIRECTION('ref_axis',(-0.707106781186548,-0.707106781186547,0.));
#884=DIRECTION('center_axis',(0.,0.,1.));
#885=DIRECTION('ref_axis',(0.707106781186548,-0.707106781186548,0.));
#886=DIRECTION('center_axis',(0.,0.,-1.));
#887=DIRECTION('ref_axis',(-0.999554265349909,-0.0298541558380705,0.));
#888=DIRECTION('',(0.707106781186547,-0.707106781186548,0.));
#889=DIRECTION('',(0.707106781186548,0.707106781186547,0.));
#890=DIRECTION('',(-0.707106781186547,0.707106781186548,0.));
#891=DIRECTION('center_axis',(0.,0.,-1.));
#892=DIRECTION('ref_axis',(-4.18691322315674E-15,1.,0.));
#893=DIRECTION('',(-0.707106781186548,-0.707106781186547,0.));
#894=DIRECTION('',(0.707106781186547,-0.707106781186548,0.));
#895=DIRECTION('center_axis',(0.,0.,1.));
#896=DIRECTION('ref_axis',(-0.977727577638478,-0.209878021539165,0.));
#897=DIRECTION('center_axis',(0.,0.,1.));
#898=DIRECTION('ref_axis',(0.707106781186548,-0.707106781186548,0.));
#899=DIRECTION('center_axis',(0.,0.,1.));
#900=DIRECTION('ref_axis',(0.927794429331121,-0.373091807605231,0.));
#901=DIRECTION('',(0.,0.,1.));
#902=DIRECTION('center_axis',(0.,0.,-1.));
#903=DIRECTION('ref_axis',(-1.,0.,0.));
#904=DIRECTION('center_axis',(1.11022302462516E-16,1.,0.));
#905=DIRECTION('ref_axis',(1.,-1.11022302462516E-16,0.));
#906=DIRECTION('center_axis',(0.663645001092179,0.748047667281545,0.));
#907=DIRECTION('ref_axis',(0.,0.,1.));
#908=DIRECTION('center_axis',(0.,0.,-1.));
#909=DIRECTION('ref_axis',(0.,1.,0.));
#910=DIRECTION('',(0.,0.,-1.));
#911=DIRECTION('center_axis',(-0.689523054887945,-0.689523054887945,-0.221621103588968));
#912=DIRECTION('ref_axis',(-0.305995030681052,0.,0.952033109297414));
#913=DIRECTION('center_axis',(0.689523054887945,0.689523054887945,0.221621103588968));
#914=DIRECTION('ref_axis',(-0.156710083948556,-0.156709486455028,0.975132855791373));
#915=DIRECTION('',(-0.156709785201806,-0.156709785201806,0.97513285579146));
#916=DIRECTION('',(-0.707106781186547,0.707106781186548,0.));
#917=DIRECTION('center_axis',(0.707106781186548,0.707106781186547,0.));
#918=DIRECTION('ref_axis',(0.,0.,1.));
#919=DIRECTION('center_axis',(-0.707106781186548,-0.707106781186547,0.));
#920=DIRECTION('ref_axis',(-0.500000000000001,0.500000000000005,0.707106781186543));
#921=DIRECTION('',(0.707106781186547,-0.707106781186548,0.));
#922=DIRECTION('center_axis',(-0.707106781186548,-0.707106781186547,0.));
#923=DIRECTION('ref_axis',(0.499999999999998,-0.499999999999998,0.707106781186551));
#924=DIRECTION('',(0.,0.,-1.));
#925=DIRECTION('',(-0.695406418630866,0.695406418630866,-0.181162429476935));
#926=DIRECTION('',(0.,0.,1.));
#927=DIRECTION('center_axis',(0.707106781186547,-0.707106781186548,0.));
#928=DIRECTION('ref_axis',(-0.707106781186548,-0.707106781186547,0.));
#929=DIRECTION('',(0.,0.,-1.));
#930=DIRECTION('',(0.707106781186548,0.707106781186547,0.));
#931=DIRECTION('center_axis',(0.577350269189627,-9.47390314346807E-15,-0.816496580927725));
#932=DIRECTION('ref_axis',(0.816496580927721,-9.47390314346802E-15,0.577350269189633));
#933=DIRECTION('center_axis',(0.,0.,-1.));
#934=DIRECTION('ref_axis',(0.707106781186542,-0.707106781186553,0.));
#935=DIRECTION('center_axis',(-0.707106781186559,-0.707106781186536,0.));
#936=DIRECTION('ref_axis',(0.,0.,1.));
#937=DIRECTION('center_axis',(-0.707106781186548,0.707106781186548,8.37382644631355E-15));
#938=DIRECTION('ref_axis',(0.707106781186547,0.707106781186547,0.));
#939=DIRECTION('center_axis',(0.707106781186548,0.707106781186547,0.));
#940=DIRECTION('ref_axis',(0.499999999999998,-0.499999999999998,0.707106781186551));
#941=DIRECTION('',(0.707106781186548,0.707106781186547,0.));
#942=DIRECTION('',(-0.707106781186548,-0.707106781186547,0.));
#943=DIRECTION('center_axis',(-1.,-7.10542735760107E-15,0.));
#944=DIRECTION('ref_axis',(-9.47390314346811E-15,0.81649658092773,0.57735026918962));
#945=DIRECTION('center_axis',(0.,0.,-1.));
#946=DIRECTION('ref_axis',(0.707106781186547,0.707106781186547,0.));
#947=DIRECTION('center_axis',(0.707106781186551,-0.707106781186545,0.));
#948=DIRECTION('ref_axis',(0.,0.,1.));
#949=DIRECTION('center_axis',(-0.707106781186549,-0.707106781186546,0.));
#950=DIRECTION('ref_axis',(-0.707106781186546,0.707106781186549,0.));
#951=DIRECTION('center_axis',(-0.707106781186547,0.707106781186548,0.));
#952=DIRECTION('ref_axis',(0.500000000000002,0.500000000000002,0.707106781186545));
#953=DIRECTION('',(0.707106781186547,-0.707106781186548,0.));
#954=DIRECTION('',(-0.707106781186547,0.707106781186548,0.));
#955=DIRECTION('center_axis',(-0.707106781186548,-0.707106781186547,0.));
#956=DIRECTION('ref_axis',(-0.500000000000001,0.500000000000005,0.707106781186543));
#957=DIRECTION('',(-0.707106781186548,-0.707106781186547,0.));
#958=DIRECTION('center_axis',(0.,0.,-1.));
#959=DIRECTION('ref_axis',(-4.18691322315674E-15,1.,0.));
#960=DIRECTION('',(0.,0.,1.));
#961=DIRECTION('center_axis',(0.,0.,-1.));
#962=DIRECTION('ref_axis',(1.,0.,0.));
#963=DIRECTION('center_axis',(0.12810118237937,-0.12810118237937,-0.983453188589073));
#964=DIRECTION('ref_axis',(0.695406418630866,-0.695406418630866,0.181162429476935));
#965=DIRECTION('',(0.,0.,1.));
#966=DIRECTION('',(0.,0.,-1.));
#967=DIRECTION('center_axis',(0.,0.,-1.));
#968=DIRECTION('ref_axis',(0.707106781186548,0.707106781186547,0.));
#969=DIRECTION('center_axis',(-0.707106781186547,0.707106781186548,0.));
#970=DIRECTION('ref_axis',(0.707106781186548,0.707106781186547,0.));
#971=DIRECTION('',(-0.707106781186548,-0.707106781186547,0.));
#972=DIRECTION('center_axis',(-0.565943910059375,-0.0169033120784099,-0.824270446338752));
#973=DIRECTION('ref_axis',(-0.823903040439776,-0.0246078983577082,0.566196283361618));
#974=DIRECTION('center_axis',(0.,0.,-1.));
#975=DIRECTION('ref_axis',(-0.74804766728155,0.663645001092175,0.));
#976=DIRECTION('center_axis',(0.707106781186545,-0.707106781186551,0.));
#977=DIRECTION('ref_axis',(-0.70710678118655,-0.707106781186544,0.));
#978=DIRECTION('center_axis',(-1.,0.,0.));
#979=DIRECTION('ref_axis',(0.,-0.81649658092773,0.577350269189621));
#980=DIRECTION('center_axis',(0.,0.,-1.));
#981=DIRECTION('ref_axis',(-0.707106781186547,-0.707106781186547,0.));
#982=DIRECTION('center_axis',(-0.707106781186548,0.707106781186548,0.));
#983=DIRECTION('ref_axis',(0.,0.,1.));
#984=DIRECTION('center_axis',(0.707106781186548,0.707106781186548,0.));
#985=DIRECTION('ref_axis',(0.707106781186547,-0.707106781186547,0.));
#986=DIRECTION('center_axis',(0.707106781186547,-0.707106781186548,0.));
#987=DIRECTION('ref_axis',(-0.500000000000004,-0.499999999999996,0.707106781186548));
#988=DIRECTION('',(-0.707106781186547,0.707106781186548,0.));
#989=DIRECTION('center_axis',(0.707106781186548,0.707106781186547,0.));
#990=DIRECTION('ref_axis',(0.499999999999998,-0.499999999999998,0.707106781186551));
#991=DIRECTION('',(-0.707106781186548,-0.707106781186547,0.));
#992=DIRECTION('center_axis',(0.,0.,-1.));
#993=DIRECTION('ref_axis',(0.,-1.,0.));
#994=DIRECTION('center_axis',(0.12810118237937,-0.12810118237937,-0.983453188589073));
#995=DIRECTION('ref_axis',(0.695406418630866,-0.695406418630866,0.181162429476935));
#996=DIRECTION('',(0.,0.,1.));
#997=DIRECTION('',(0.,0.,-1.));
#998=DIRECTION('center_axis',(0.,0.,1.));
#999=DIRECTION('ref_axis',(-0.999554265349909,-0.0298541558380705,0.));
#1000=DIRECTION('',(0.,0.,-1.));
#1001=DIRECTION('center_axis',(1.11022302462516E-16,1.,0.));
#1002=DIRECTION('ref_axis',(0.,0.,1.));
#1003=DIRECTION('center_axis',(0.707106781186548,0.707106781186547,0.));
#1004=DIRECTION('ref_axis',(0.,0.,-1.));
#1005=DIRECTION('',(-0.695406418630866,0.695406418630866,-0.181162429476935));
#1006=DIRECTION('center_axis',(-0.707106781186547,0.707106781186548,0.));
#1007=DIRECTION('ref_axis',(-0.707106781186548,-0.707106781186547,0.));
#1008=DIRECTION('',(-0.707106781186548,-0.707106781186547,0.));
#1009=DIRECTION('center_axis',(-0.707106781186548,-0.707106781186547,0.));
#1010=DIRECTION('ref_axis',(0.,0.,1.));
#1011=DIRECTION('',(0.695406418630866,-0.695406418630866,0.181162429476935));
#1012=DIRECTION('center_axis',(0.12810118237937,-0.12810118237937,-0.983453188589073));
#1013=DIRECTION('ref_axis',(-0.695406418630866,0.695406418630866,-0.181162429476935));
#1014=DIRECTION('',(-0.707106781186548,-0.707106781186547,0.));
#1015=DIRECTION('center_axis',(-0.707106781186547,0.707106781186548,0.));
#1016=DIRECTION('ref_axis',(-0.707106781186548,-0.707106781186547,0.));
#1017=DIRECTION('center_axis',(7.41966116052245E-7,1.59330461703974E-7,
-0.999999999999712));
#1018=DIRECTION('ref_axis',(-0.787278507586667,-0.616597560400335,-6.82376750509813E-7));
#1019=CARTESIAN_POINT('',(0.,0.,0.));
#1020=CARTESIAN_POINT('Origin',(140.58449416632,-20.,390.5));
#1021=CARTESIAN_POINT('',(135.634335921027,-19.2957746478873,389.));
#1022=CARTESIAN_POINT('',(140.58449416632,-15.,389.000005841255));
#1023=CARTESIAN_POINT('Origin',(140.58449416632,-20.,389.));
#1024=CARTESIAN_POINT('',(140.58449416632,-15.,392.000005841255));
#1025=CARTESIAN_POINT('',(140.58449416632,-15.,390.5));
#1026=CARTESIAN_POINT('',(135.634335921027,-19.2957746478873,392.));
#1027=CARTESIAN_POINT('Origin',(140.58449416632,-20.,392.));
#1028=CARTESIAN_POINT('',(135.634335921027,-19.2957746478873,390.5));
#1029=CARTESIAN_POINT('Origin',(141.00000217557,-15.,390.500005841255));
#1030=CARTESIAN_POINT('',(147.00000217557,-15.,389.000005841255));
#1031=CARTESIAN_POINT('',(141.00000217557,-15.,389.000005841255));
#1032=CARTESIAN_POINT('',(147.00000217557,-15.,392.000005841255));
#1033=CARTESIAN_POINT('',(147.00000217557,-15.,390.500005841255));
#1034=CARTESIAN_POINT('',(141.00000217557,-15.,392.000005841255));
#1035=CARTESIAN_POINT('Origin',(113.550384778416,-85.2661135309544,390.5));
#1036=CARTESIAN_POINT('',(110.014850872484,-88.8016474368872,389.));
#1037=CARTESIAN_POINT('',(109.552131793261,-82.2637855897237,389.));
#1038=CARTESIAN_POINT('Origin',(113.550384778416,-85.2661135309544,389.));
#1039=CARTESIAN_POINT('',(109.552131793261,-82.2637855897237,392.));
#1040=CARTESIAN_POINT('',(109.552131793261,-82.2637855897237,390.5));
#1041=CARTESIAN_POINT('',(110.014850872484,-88.8016474368872,392.));
#1042=CARTESIAN_POINT('Origin',(113.550384778416,-85.2661135309544,392.));
#1043=CARTESIAN_POINT('',(110.014850872484,-88.8016474368872,390.5));
#1044=CARTESIAN_POINT('Origin',(0.,-1.60982338570648E-14,390.5));
#1045=CARTESIAN_POINT('Origin',(0.,-1.60982338570648E-14,392.));
#1046=CARTESIAN_POINT('Origin',(0.,-1.60982338570648E-14,389.));
#1047=CARTESIAN_POINT('Origin',(129.400540957138,-108.187337521542,367.));
#1048=CARTESIAN_POINT('',(200.111219075793,-178.898015640197,392.));
#1049=CARTESIAN_POINT('',(129.400540957138,-108.187337521542,392.));
#1050=CARTESIAN_POINT('',(200.111219075793,-178.898015640197,377.));
#1051=CARTESIAN_POINT('',(200.111219075793,-178.898015640197,367.));
#1052=CARTESIAN_POINT('',(198.697005566103,-177.483802130507,376.631578961093));
#1053=CARTESIAN_POINT('',(131.698756399675,-110.485552964079,359.177662424648));
#1054=CARTESIAN_POINT('',(198.697005566103,-177.483802130507,386.));
#1055=CARTESIAN_POINT('',(198.697005566103,-177.483802130507,364.500000335276));
#1056=CARTESIAN_POINT('',(196.575685222544,-175.362481786947,389.));
#1057=CARTESIAN_POINT('Origin',(196.575685222544,-175.362481786947,386.));
#1058=CARTESIAN_POINT('',(129.400540957138,-108.187337521542,389.));
#1059=CARTESIAN_POINT('Origin',(147.00000217557,-7.50000000000002,390.500005841255));
#1060=CARTESIAN_POINT('',(147.00000217557,-1.99840144432528E-14,389.000005841255));
#1061=CARTESIAN_POINT('',(147.00000217557,-63.14696961967,389.));
#1062=CARTESIAN_POINT('',(147.00000217557,-1.99840144432528E-14,392.000005841255));
#1063=CARTESIAN_POINT('',(147.00000217557,-2.44249065417534E-14,378.750002920628));
#1064=CARTESIAN_POINT('',(147.00000217557,-63.14696961967,392.));
#1065=CARTESIAN_POINT('Origin',(118.79393923934,-118.79393923934,392.));
#1066=CARTESIAN_POINT('',(73.0000010356156,-1.63414397037177E-14,392.));
#1067=CARTESIAN_POINT('',(12.9046987566545,-9.99200722162641E-15,392.));
#1068=CARTESIAN_POINT('',(73.0000010356156,-1.00000000747371,392.));
#1069=CARTESIAN_POINT('',(73.0000010356156,-59.3969696234068,392.));
#1070=CARTESIAN_POINT('',(69.9928567782817,-1.00000000747371,392.));
#1071=CARTESIAN_POINT('',(94.3969701374778,-1.00000000747372,392.));
#1072=CARTESIAN_POINT('',(37.7410972967529,-58.9543007323493,392.));
#1073=CARTESIAN_POINT('Origin',(-5.62925025391271E-12,-1.53829912530541E-11,
392.));
#1074=CARTESIAN_POINT('',(178.898015640196,-200.111219075793,392.));
#1075=CARTESIAN_POINT('',(108.187337521542,-129.400540957138,392.));
#1076=CARTESIAN_POINT('',(189.504617357995,-189.504617357995,392.));
#1077=CARTESIAN_POINT('',(95.,-65.,392.));
#1078=CARTESIAN_POINT('Origin',(95.,-40.,392.));
#1079=CARTESIAN_POINT('Origin',(118.79393923934,-118.79393923934,389.));
#1080=CARTESIAN_POINT('',(189.151064020085,-182.787102989406,389.));
#1081=CARTESIAN_POINT('',(188.88589897714,-183.052268032351,389.));
#1082=CARTESIAN_POINT('',(56.4027941130289,-50.03883308235,389.));
#1083=CARTESIAN_POINT('',(121.975919781021,-115.611958750342,389.));
#1084=CARTESIAN_POINT('',(75.4,-1.60982338570648E-14,389.));
#1085=CARTESIAN_POINT('Origin',(0.,0.,389.));
#1086=CARTESIAN_POINT('',(95.,-1.60982338570648E-14,389.));
#1087=CARTESIAN_POINT('',(95.,-65.,389.));
#1088=CARTESIAN_POINT('Origin',(95.,-40.,389.));
#1089=CARTESIAN_POINT('Origin',(70.0000010356156,-1.00000000747371,367.));
#1090=CARTESIAN_POINT('',(69.9928567782817,-1.00000000747371,342.));
#1091=CARTESIAN_POINT('',(69.9928567782817,-1.00000000747371,352.));
#1092=CARTESIAN_POINT('',(73.0000010356156,-1.00000000747371,387.809097349012));
#1093=CARTESIAN_POINT('',(73.0000010356156,-1.00000000747371,367.));
#1094=CARTESIAN_POINT('',(72.3930935931395,-1.00000000747371,386.));
#1095=CARTESIAN_POINT('Ctrl Pts',(72.3930935931395,-1.00000000747371,386.));
#1096=CARTESIAN_POINT('Ctrl Pts',(72.3930935931395,-1.00000000747371,386.370229639423));
#1097=CARTESIAN_POINT('Ctrl Pts',(72.4797734132519,-1.00000000747371,386.805967391393));
#1098=CARTESIAN_POINT('Ctrl Pts',(72.7127856201782,-1.00000000747371,387.368477178138));
#1099=CARTESIAN_POINT('Ctrl Pts',(72.8441877059909,-1.00000000747371,387.603000267517));
#1100=CARTESIAN_POINT('Ctrl Pts',(73.0000010356156,-1.00000000747371,387.809097349012));
#1101=CARTESIAN_POINT('',(72.3930935931395,-1.00000000747371,342.));
#1102=CARTESIAN_POINT('',(72.3930935931395,-1.00000000747371,367.));
#1103=CARTESIAN_POINT('',(94.3969701374778,-1.00000000747372,342.));
#1104=CARTESIAN_POINT('Origin',(73.0000010356156,-7.47370929032876E-9,367.));
#1105=CARTESIAN_POINT('',(73.0000010356156,-8.10462819455479E-15,387.80000138082));
#1106=CARTESIAN_POINT('',(73.0000010356156,-1.63414397037177E-14,367.));
#1107=CARTESIAN_POINT('Ctrl Pts',(73.0000010356156,-1.00000000747371,387.809097349012));
#1108=CARTESIAN_POINT('Ctrl Pts',(73.0000010356156,-0.661955941430178,387.802972185491));
#1109=CARTESIAN_POINT('Ctrl Pts',(73.0000010356156,-0.328316485878314,387.80000138082));
#1110=CARTESIAN_POINT('Ctrl Pts',(73.0000010356156,-6.93889390390723E-17,
387.80000138082));
#1111=CARTESIAN_POINT('Origin',(0.,0.,352.));
#1112=CARTESIAN_POINT('',(49.4974892489613,-49.4974892489613,342.));
#1113=CARTESIAN_POINT('Origin',(0.,0.,342.));
#1114=CARTESIAN_POINT('',(49.4974775962523,-49.4974775962523,382.000000000002));
#1115=CARTESIAN_POINT('',(49.4974819660183,-49.4974819660183,366.999999505622));
#1116=CARTESIAN_POINT('',(49.4974746830583,-49.4974746830584,389.));
#1117=CARTESIAN_POINT('',(49.4974819660183,-49.4974819660183,366.999999505622));
#1118=CARTESIAN_POINT('',(38.5204792539241,-58.4480339964592,382.));
#1119=CARTESIAN_POINT('Origin',(-5.62925025391271E-12,-1.53829912530541E-11,
382.));
#1120=CARTESIAN_POINT('',(37.7410984514752,-58.9543018870716,386.));
#1121=CARTESIAN_POINT('Origin',(0.,0.,320.));
#1122=CARTESIAN_POINT('',(37.7411021080959,-58.9543055436923,366.999999742061));
#1123=CARTESIAN_POINT('Origin',(118.79393923934,-118.79393923934,342.));
#1124=CARTESIAN_POINT('',(54.1586511111842,-48.0478980790734,342.));
#1125=CARTESIAN_POINT('Origin',(0.,0.,342.));
#1126=CARTESIAN_POINT('',(54.2814737694692,-52.1601534259096,342.));
#1127=CARTESIAN_POINT('Origin',(56.4027941130289,-50.0388330823499,342.));
#1128=CARTESIAN_POINT('',(56.2149891043305,-54.0936687607709,342.));
#1129=CARTESIAN_POINT('',(119.854599437462,-117.733279093902,342.));
#1130=CARTESIAN_POINT('',(54.0936687607709,-56.2149891043305,342.));
#1131=CARTESIAN_POINT('',(55.1543289325507,-55.1543289325507,342.));
#1132=CARTESIAN_POINT('',(52.6794551983978,-54.8007755419574,342.));
#1133=CARTESIAN_POINT('',(117.73327906756,-119.85459941112,342.));
#1134=CARTESIAN_POINT('',(48.4368145112785,-54.8007755419574,342.));
#1135=CARTESIAN_POINT('Origin',(50.5581348548382,-56.922095885517,342.));
#1136=CARTESIAN_POINT('',(48.0832611206852,-55.1543289325507,342.));
#1137=CARTESIAN_POINT('',(48.7019795542234,-54.5356104990125,342.));
#1138=CARTESIAN_POINT('',(45.8355231917191,-52.9065910035846,342.));
#1139=CARTESIAN_POINT('',(115.258405333407,-122.329473145273,342.));
#1140=CARTESIAN_POINT('Origin',(3.70983001733727E-5,7.96650770220975E-6,
342.));
#1141=CARTESIAN_POINT('Origin',(0.,0.,367.));
#1142=CARTESIAN_POINT('',(54.1586511111842,-48.0478980790734,386.));
#1143=CARTESIAN_POINT('Origin',(0.,0.,386.));
#1144=CARTESIAN_POINT('',(54.1586511111842,-48.0478980790734,367.));
#1145=CARTESIAN_POINT('Origin',(0.,0.,386.));
#1146=CARTESIAN_POINT('Origin',(75.4,-8.37108160567368E-15,386.));
#1147=CARTESIAN_POINT('Origin',(56.4027941130289,-50.03883308235,386.));
#1148=CARTESIAN_POINT('Origin',(95.,-40.,389.5));
#1149=CARTESIAN_POINT('',(95.,-65.,389.5));
#1150=CARTESIAN_POINT('Origin',(111.722871427475,-125.865007051205,364.));
#1151=CARTESIAN_POINT('Origin',(5.34217045304015E-5,1.14718100287151E-5,
319.999798098766));
#1152=CARTESIAN_POINT('',(41.0121933088197,-62.2253967444162,386.));
#1153=CARTESIAN_POINT('',(44.6163193509432,-58.6212707022927,363.573182711198));
#1154=CARTESIAN_POINT('',(108.187337521542,-129.400540957138,386.));
#1155=CARTESIAN_POINT('Origin',(108.187337521542,-129.400540957138,367.));
#1156=CARTESIAN_POINT('',(43.1335136523794,-64.3467170879758,389.));
#1157=CARTESIAN_POINT('Origin',(43.1335136523794,-64.3467170879758,386.));
#1158=CARTESIAN_POINT('',(175.362481734264,-196.57568516986,389.));
#1159=CARTESIAN_POINT('',(108.187337521542,-129.400540957138,389.));
#1160=CARTESIAN_POINT('',(177.483802077823,-198.69700551342,386.));
#1161=CARTESIAN_POINT('Origin',(175.362481734264,-196.57568516986,386.));
#1162=CARTESIAN_POINT('',(177.483802077823,-198.69700551342,376.631578947368));
#1163=CARTESIAN_POINT('',(177.483802077823,-198.69700551342,365.25));
#1164=CARTESIAN_POINT('',(178.898015640196,-200.111219075793,377.));
#1165=CARTESIAN_POINT('',(110.485552964079,-131.698756399675,359.177662424648));
#1166=CARTESIAN_POINT('',(178.898015640196,-200.111219075793,367.));
#1167=CARTESIAN_POINT('Origin',(45.7851640818289,-57.452425971407,363.5));
#1168=CARTESIAN_POINT('',(48.4368145112785,-54.8007755419574,386.));
#1169=CARTESIAN_POINT('',(48.4368145112785,-54.8007755419574,363.5));
#1170=CARTESIAN_POINT('',(48.7019795542234,-54.5356104990125,386.));
#1171=CARTESIAN_POINT('Origin',(182.787102936723,-189.151063967401,386.));
#1172=CARTESIAN_POINT('',(184.908423280282,-191.272384310961,386.));
#1173=CARTESIAN_POINT('',(184.908423280282,-187.029743623842,386.));
#1174=CARTESIAN_POINT('Origin',(182.787102936723,-189.151063967401,386.));
#1175=CARTESIAN_POINT('',(182.787102936723,-189.151063967401,389.));
#1176=CARTESIAN_POINT('Origin',(182.787102936723,-189.151063967401,386.));
#1177=CARTESIAN_POINT('Origin',(182.787102936723,-189.151063967401,386.));
#1178=CARTESIAN_POINT('Origin',(183.052267979667,-188.885898924457,386.));
#1179=CARTESIAN_POINT('',(183.052267979667,-188.885898924457,389.));
#1180=CARTESIAN_POINT('',(185.173588323227,-191.007219268016,386.));
#1181=CARTESIAN_POINT('Origin',(50.5581348548382,-56.9220958855171,386.));
#1182=CARTESIAN_POINT('',(52.6794551983978,-54.8007755419574,386.));
#1183=CARTESIAN_POINT('Origin',(50.5581348548382,-56.922095885517,386.));
#1184=CARTESIAN_POINT('',(50.5581348548382,-56.9220958855171,389.));
#1185=CARTESIAN_POINT('Origin',(50.5581348548382,-56.9220958855171,386.));
#1186=CARTESIAN_POINT('Origin',(50.5581348548382,-56.9220958855171,386.));
#1187=CARTESIAN_POINT('Origin',(115.611958724001,-121.975919754679,386.));
#1188=CARTESIAN_POINT('',(117.73327906756,-119.85459941112,386.));
#1189=CARTESIAN_POINT('',(115.611958724001,-121.975919754679,389.));
#1190=CARTESIAN_POINT('Origin',(50.8232998977831,-56.6569308425721,386.));
#1191=CARTESIAN_POINT('',(50.8232998977831,-56.6569308425721,389.));
#1192=CARTESIAN_POINT('Origin',(50.5581348548382,-56.922095885517,363.5));
#1193=CARTESIAN_POINT('',(52.6794551983978,-54.8007755419574,363.5));
#1194=CARTESIAN_POINT('Origin',(182.787102936723,-189.151063967401,363.5));
#1195=CARTESIAN_POINT('',(184.908423280282,-187.029743623842,376.078947368421));
#1196=CARTESIAN_POINT('',(184.908423280282,-191.272384310961,376.631578947368));
#1197=CARTESIAN_POINT('Origin',(182.787102936723,-189.151063967401,376.078947368421));
#1198=CARTESIAN_POINT('',(184.908423280282,-191.272384310961,363.5));
#1199=CARTESIAN_POINT('',(184.908423280282,-187.029743623842,363.5));
#1200=CARTESIAN_POINT('Origin',(118.79393923934,-118.79393923934,389.));
#1201=CARTESIAN_POINT('Origin',(182.256772850833,-193.924034740411,363.5));
#1202=CARTESIAN_POINT('',(185.173588323227,-191.007219268016,376.631578947368));
#1203=CARTESIAN_POINT('Origin',(56.4027941130289,-50.03883308235,386.));
#1204=CARTESIAN_POINT('',(54.2814737694692,-52.1601534259096,386.));
#1205=CARTESIAN_POINT('Origin',(56.4027941130289,-50.0388330823499,386.));
#1206=CARTESIAN_POINT('Origin',(56.4027941130289,-50.03883308235,386.));
#1207=CARTESIAN_POINT('Origin',(189.151064020085,-182.787102989406,386.));
#1208=CARTESIAN_POINT('',(187.029743676525,-184.908423332966,386.));
#1209=CARTESIAN_POINT('',(191.272384363645,-184.908423332966,386.));
#1210=CARTESIAN_POINT('Origin',(189.151064020085,-182.787102989406,386.));
#1211=CARTESIAN_POINT('Origin',(189.151064020085,-182.787102989406,386.));
#1212=CARTESIAN_POINT('Origin',(189.151064020085,-182.787102989406,386.));
#1213=CARTESIAN_POINT('Origin',(121.975919781021,-115.611958750342,386.));
#1214=CARTESIAN_POINT('',(119.854599437462,-117.733279093902,386.));
#1215=CARTESIAN_POINT('Origin',(188.88589897714,-183.052268032351,386.));
#1216=CARTESIAN_POINT('',(191.0072193207,-185.173588375911,386.));
#1217=CARTESIAN_POINT('Origin',(189.151064020085,-182.787102989406,362.000000670552));
#1218=CARTESIAN_POINT('',(191.272384363645,-184.908423332966,376.631578961093));
#1219=CARTESIAN_POINT('',(187.029743676525,-184.908423332966,376.078947382146));
#1220=CARTESIAN_POINT('Origin',(189.151064020085,-182.787102989406,376.078947382146));
#1221=CARTESIAN_POINT('',(187.029743676525,-184.908423332966,362.000000670552));
#1222=CARTESIAN_POINT('',(191.272384363645,-184.908423332966,362.000000670552));
#1223=CARTESIAN_POINT('Origin',(56.4027941130289,-50.0388330823499,367.));
#1224=CARTESIAN_POINT('',(54.2814737694692,-52.1601534259096,367.));
#1225=CARTESIAN_POINT('Origin',(25.809397513309,-1.11022302462516E-14,367.));
#1226=CARTESIAN_POINT('Origin',(117.73327906756,-119.85459941112,363.5));
#1227=CARTESIAN_POINT('',(119.811026856619,-121.932347200179,359.120227729404));
#1228=CARTESIAN_POINT('Origin',(193.924034793094,-182.256772903516,362.000000670552));
#1229=CARTESIAN_POINT('',(191.0072193207,-185.173588375911,376.631578961093));
#1230=CARTESIAN_POINT('Origin',(119.854599463803,-117.733279120244,362.000000670552));
#1231=CARTESIAN_POINT('',(121.83786113069,-119.71654078713,359.095612877654));
#1232=CARTESIAN_POINT('Origin',(122.329473145273,-122.329473145273,359.5));
#1233=CARTESIAN_POINT('',(189.504617357995,-189.504617357995,377.));
#1234=CARTESIAN_POINT('Origin',(189.504617357995,-189.504617357995,367.));
#1235=CARTESIAN_POINT('Origin',(-5.62925035935243E-12,-1.53829912756964E-11,
392.));
#1236=UNCERTAINTY_MEASURE_WITH_UNIT(LENGTH_MEASURE(0.01),#1240,
'DISTANCE_ACCURACY_VALUE',
'Maximum model space distance between geometric entities at asserted c
onnectivities');
#1237=UNCERTAINTY_MEASURE_WITH_UNIT(LENGTH_MEASURE(0.01),#1240,
'DISTANCE_ACCURACY_VALUE',
'Maximum model space distance between geometric entities at asserted c
onnectivities');
#1238=(
GEOMETRIC_REPRESENTATION_CONTEXT(3)
GLOBAL_UNCERTAINTY_ASSIGNED_CONTEXT((#1236))
GLOBAL_UNIT_ASSIGNED_CONTEXT((#1240,#1241,#1242))
REPRESENTATION_CONTEXT('','3D')
);
#1239=(
GEOMETRIC_REPRESENTATION_CONTEXT(3)
GLOBAL_UNCERTAINTY_ASSIGNED_CONTEXT((#1237))
GLOBAL_UNIT_ASSIGNED_CONTEXT((#1240,#1241,#1242))
REPRESENTATION_CONTEXT('','3D')
);
#1240=(
LENGTH_UNIT()
NAMED_UNIT(*)
SI_UNIT(.MILLI.,.METRE.)
);
#1241=(
NAMED_UNIT(*)
PLANE_ANGLE_UNIT()
SI_UNIT($,.RADIAN.)
);
#1242=(
NAMED_UNIT(*)
SI_UNIT($,.STERADIAN.)
SOLID_ANGLE_UNIT()
);
#1243=SHAPE_DEFINITION_REPRESENTATION(#1244,#1245);
#1244=PRODUCT_DEFINITION_SHAPE('',$,#1247);
#1245=SHAPE_REPRESENTATION('',(#721),#1238);
#1246=PRODUCT_DEFINITION_CONTEXT('part definition',#1251,'design');
#1247=PRODUCT_DEFINITION('HTD3M-270t-20t-1068mm-Chassis-V3',
'HTD3M-270t-20t-1068mm-Chassis-V3 v70',#1248,#1246);
#1248=PRODUCT_DEFINITION_FORMATION('',$,#1253);
#1249=PRODUCT_RELATED_PRODUCT_CATEGORY(
'HTD3M-270t-20t-1068mm-Chassis-V3 v70',
'HTD3M-270t-20t-1068mm-Chassis-V3 v70',(#1253));
#1250=APPLICATION_PROTOCOL_DEFINITION('international standard',
'automotive_design',2009,#1251);
#1251=APPLICATION_CONTEXT(
'Core Data for Automotive Mechanical Design Process');
#1252=PRODUCT_CONTEXT('part definition',#1251,'mechanical');
#1253=PRODUCT('HTD3M-270t-20t-1068mm-Chassis-V3',
'HTD3M-270t-20t-1068mm-Chassis-V3 v70',$,(#1252));
#1254=PRESENTATION_STYLE_ASSIGNMENT((#1262));
#1255=PRESENTATION_STYLE_ASSIGNMENT((#1263));
#1256=PRESENTATION_STYLE_ASSIGNMENT((#1264));
#1257=PRESENTATION_STYLE_ASSIGNMENT((#1265));
#1258=PRESENTATION_STYLE_ASSIGNMENT((#1266));
#1259=PRESENTATION_STYLE_ASSIGNMENT((#1267));
#1260=PRESENTATION_STYLE_ASSIGNMENT((#1268));
#1261=PRESENTATION_STYLE_ASSIGNMENT((#1269));
#1262=SURFACE_STYLE_USAGE(.BOTH.,#1270);
#1263=SURFACE_STYLE_USAGE(.BOTH.,#1271);
#1264=SURFACE_STYLE_USAGE(.BOTH.,#1272);
#1265=SURFACE_STYLE_USAGE(.BOTH.,#1273);
#1266=SURFACE_STYLE_USAGE(.BOTH.,#1274);
#1267=SURFACE_STYLE_USAGE(.BOTH.,#1275);
#1268=SURFACE_STYLE_USAGE(.BOTH.,#1276);
#1269=SURFACE_STYLE_USAGE(.BOTH.,#1277);
#1270=SURFACE_SIDE_STYLE('',(#1278));
#1271=SURFACE_SIDE_STYLE('',(#1279));
#1272=SURFACE_SIDE_STYLE('',(#1280));
#1273=SURFACE_SIDE_STYLE('',(#1281));
#1274=SURFACE_SIDE_STYLE('',(#1282));
#1275=SURFACE_SIDE_STYLE('',(#1283));
#1276=SURFACE_SIDE_STYLE('',(#1284));
#1277=SURFACE_SIDE_STYLE('',(#1285));
#1278=SURFACE_STYLE_FILL_AREA(#1286);
#1279=SURFACE_STYLE_FILL_AREA(#1287);
#1280=SURFACE_STYLE_FILL_AREA(#1288);
#1281=SURFACE_STYLE_FILL_AREA(#1289);
#1282=SURFACE_STYLE_FILL_AREA(#1290);
#1283=SURFACE_STYLE_FILL_AREA(#1291);
#1284=SURFACE_STYLE_FILL_AREA(#1292);
#1285=SURFACE_STYLE_FILL_AREA(#1293);
#1286=FILL_AREA_STYLE('Opaque(175,143,175)',(#1294));
#1287=FILL_AREA_STYLE('Opaque(159,175,143)',(#1295));
#1288=FILL_AREA_STYLE('Opaque(143,143,175)',(#1296));
#1289=FILL_AREA_STYLE('Opaque(175,159,143)',(#1297));
#1290=FILL_AREA_STYLE('Opaque(143,175,175)',(#1298));
#1291=FILL_AREA_STYLE('Steel - Satin',(#1299));
#1292=FILL_AREA_STYLE('Plastic - Translucent Matte (Red)',(#1300));
#1293=FILL_AREA_STYLE('Steel - Satin',(#1301));
#1294=FILL_AREA_STYLE_COLOUR('Opaque(175,143,175)',#1302);
#1295=FILL_AREA_STYLE_COLOUR('Opaque(159,175,143)',#1303);
#1296=FILL_AREA_STYLE_COLOUR('Opaque(143,143,175)',#1304);
#1297=FILL_AREA_STYLE_COLOUR('Opaque(175,159,143)',#1305);
#1298=FILL_AREA_STYLE_COLOUR('Opaque(143,175,175)',#1306);
#1299=FILL_AREA_STYLE_COLOUR('Steel - Satin',#1307);
#1300=FILL_AREA_STYLE_COLOUR('Plastic - Translucent Matte (Red)',#1308);
#1301=FILL_AREA_STYLE_COLOUR('Steel - Satin',#1309);
#1302=COLOUR_RGB('Opaque(175,143,175)',0.686274509803922,0.56078431372549,
0.686274509803922);
#1303=COLOUR_RGB('Opaque(159,175,143)',0.623529411764706,0.686274509803922,
0.56078431372549);
#1304=COLOUR_RGB('Opaque(143,143,175)',0.56078431372549,0.56078431372549,
0.686274509803922);
#1305=COLOUR_RGB('Opaque(175,159,143)',0.686274509803922,0.623529411764706,
0.56078431372549);
#1306=COLOUR_RGB('Opaque(143,175,175)',0.56078431372549,0.686274509803922,
0.686274509803922);
#1307=COLOUR_RGB('Steel - Satin',0.627450980392157,0.627450980392157,0.627450980392157);
#1308=COLOUR_RGB('Plastic - Translucent Matte (Red)',0.768627450980392,
0.207843137254902,0.152941176470588);
#1309=COLOUR_RGB('Steel - Satin',0.552941176470588,0.227450980392157,0.227450980392157);
ENDSEC;
END-ISO-10303-21;
