ISO-10303-21;
HEADER;
/* Generated by software containing ST-Developer
 * from STEP Tools, Inc. (www.steptools.com) 
 */

FILE_DESCRIPTION(
/* description */ (''),
/* implementation_level */ '2;1');

FILE_NAME(
/* name */ 'HTD3M-270t-20t-1068mm-Chassis-CHASSIS.step',
/* time_stamp */ '2026-04-06T13:59:43+02:00',
/* author */ (''),
/* organization */ (''),
/* preprocessor_version */ 'ST-DEVELOPER v20.1',
/* originating_system */ 'Autodesk Translation Framework v14.24.0.0',
/* authorisation */ '');

FILE_SCHEMA (('AUTOMOTIVE_DESIGN { 1 0 10303 214 3 1 1 }'));
ENDSEC;

DATA;
#10=MECHANICAL_DESIGN_GEOMETRIC_PRESENTATION_REPRESENTATION('',(#13),#1004);
#11=SHAPE_REPRESENTATION_RELATIONSHIP('SRR','None',#1010,#12);
#12=ADVANCED_BREP_SHAPE_REPRESENTATION('',(#14),#1003);
#13=STYLED_ITEM('',(#1025),#14);
#14=MANIFOLD_SOLID_BREP('CHASSIS (1)',#560);
#15=TOROIDAL_SURFACE('',#615,23.5,4.);
#16=B_SPLINE_CURVE_WITH_KNOTS('',3,(#861,#862,#863,#864,#865,#866,#867,
#868,#869,#870,#871,#872,#873,#874,#875,#876,#877,#878),.UNSPECIFIED.,.F.,
 .F.,(4,2,2,2,2,2,2,2,4),(1.90791599871914,1.99408910460243,2.08026221048573,
2.16029511779151,2.24032802509729,2.31538410369808,2.39044018229888,2.4621881261669,
2.53393607003492),.UNSPECIFIED.);
#17=B_SPLINE_CURVE_WITH_KNOTS('',3,(#882,#883,#884,#885,#886,#887,#888,
#889,#890,#891,#892,#893,#894,#895,#896,#897,#898,#899),.UNSPECIFIED.,.F.,
 .F.,(4,2,2,2,2,2,2,2,4),(0.,0.0717479438680169,0.143495887736034,0.21855196633683,
0.293608044937627,0.373640952243404,0.453673859549181,0.539846965432481,
0.62602007131578),.UNSPECIFIED.);
#18=B_SPLINE_CURVE_WITH_KNOTS('',3,(#971,#972,#973,#974,#975,#976,#977,
#978,#979,#980,#981,#982,#983,#984),.UNSPECIFIED.,.F.,.F.,(4,2,2,2,2,2,
4),(4.20579146830685,4.73112684486064,5.25646222141443,5.78179759796821,
6.307132974522,6.83324546504504,7.31652849675787),.UNSPECIFIED.);
#19=B_SPLINE_CURVE_WITH_KNOTS('',3,(#985,#986,#987,#988,#989,#990,#991,
#992,#993,#994,#995,#996,#997,#998),.UNSPECIFIED.,.F.,.F.,(4,2,2,2,2,2,
4),(1.09505108013279,1.57833747156897,2.10444996209196,2.62978533864568,
3.1551207151994,3.68045609175313,4.20579146830685),.UNSPECIFIED.);
#20=FACE_BOUND('',#85,.T.);
#21=FACE_BOUND('',#86,.T.);
#22=FACE_BOUND('',#87,.T.);
#23=FACE_BOUND('',#88,.T.);
#24=FACE_BOUND('',#89,.T.);
#25=FACE_BOUND('',#93,.T.);
#26=FACE_BOUND('',#94,.T.);
#27=FACE_BOUND('',#95,.T.);
#28=PLANE('',#565);
#29=PLANE('',#566);
#30=PLANE('',#576);
#31=PLANE('',#577);
#32=PLANE('',#583);
#33=PLANE('',#584);
#34=PLANE('',#585);
#35=PLANE('',#586);
#36=PLANE('',#587);
#37=PLANE('',#588);
#38=PLANE('',#589);
#39=PLANE('',#590);
#40=PLANE('',#592);
#41=PLANE('',#594);
#42=PLANE('',#597);
#43=PLANE('',#600);
#44=PLANE('',#603);
#45=PLANE('',#604);
#46=PLANE('',#607);
#47=PLANE('',#612);
#48=PLANE('',#613);
#49=FACE_OUTER_BOUND('',#82,.T.);
#50=FACE_OUTER_BOUND('',#83,.T.);
#51=FACE_OUTER_BOUND('',#84,.T.);
#52=FACE_OUTER_BOUND('',#90,.T.);
#53=FACE_OUTER_BOUND('',#91,.T.);
#54=FACE_OUTER_BOUND('',#92,.T.);
#55=FACE_OUTER_BOUND('',#96,.T.);
#56=FACE_OUTER_BOUND('',#97,.T.);
#57=FACE_OUTER_BOUND('',#98,.T.);
#58=FACE_OUTER_BOUND('',#99,.T.);
#59=FACE_OUTER_BOUND('',#100,.T.);
#60=FACE_OUTER_BOUND('',#101,.T.);
#61=FACE_OUTER_BOUND('',#102,.T.);
#62=FACE_OUTER_BOUND('',#103,.T.);
#63=FACE_OUTER_BOUND('',#104,.T.);
#64=FACE_OUTER_BOUND('',#105,.T.);
#65=FACE_OUTER_BOUND('',#106,.T.);
#66=FACE_OUTER_BOUND('',#107,.T.);
#67=FACE_OUTER_BOUND('',#108,.T.);
#68=FACE_OUTER_BOUND('',#109,.T.);
#69=FACE_OUTER_BOUND('',#110,.T.);
#70=FACE_OUTER_BOUND('',#111,.T.);
#71=FACE_OUTER_BOUND('',#112,.T.);
#72=FACE_OUTER_BOUND('',#113,.T.);
#73=FACE_OUTER_BOUND('',#114,.T.);
#74=FACE_OUTER_BOUND('',#115,.T.);
#75=FACE_OUTER_BOUND('',#116,.T.);
#76=FACE_OUTER_BOUND('',#117,.T.);
#77=FACE_OUTER_BOUND('',#118,.T.);
#78=FACE_OUTER_BOUND('',#119,.T.);
#79=FACE_OUTER_BOUND('',#120,.T.);
#80=FACE_OUTER_BOUND('',#121,.T.);
#81=FACE_OUTER_BOUND('',#122,.T.);
#82=EDGE_LOOP('',(#366,#367,#368,#369));
#83=EDGE_LOOP('',(#370,#371,#372,#373));
#84=EDGE_LOOP('',(#374,#375,#376,#377,#378,#379,#380,#381,#382,#383));
#85=EDGE_LOOP('',(#384));
#86=EDGE_LOOP('',(#385));
#87=EDGE_LOOP('',(#386));
#88=EDGE_LOOP('',(#387));
#89=EDGE_LOOP('',(#388));
#90=EDGE_LOOP('',(#389,#390,#391,#392));
#91=EDGE_LOOP('',(#393,#394,#395,#396));
#92=EDGE_LOOP('',(#397,#398,#399,#400,#401,#402,#403,#404,#405,#406,#407,
#408,#409,#410));
#93=EDGE_LOOP('',(#411));
#94=EDGE_LOOP('',(#412,#413,#414,#415,#416,#417));
#95=EDGE_LOOP('',(#418));
#96=EDGE_LOOP('',(#419,#420,#421,#422));
#97=EDGE_LOOP('',(#423,#424,#425,#426));
#98=EDGE_LOOP('',(#427,#428,#429,#430));
#99=EDGE_LOOP('',(#431,#432,#433,#434));
#100=EDGE_LOOP('',(#435,#436,#437,#438,#439));
#101=EDGE_LOOP('',(#440,#441,#442,#443));
#102=EDGE_LOOP('',(#444,#445,#446,#447));
#103=EDGE_LOOP('',(#448,#449,#450,#451));
#104=EDGE_LOOP('',(#452,#453,#454,#455,#456));
#105=EDGE_LOOP('',(#457,#458,#459,#460,#461,#462,#463,#464));
#106=EDGE_LOOP('',(#465,#466,#467,#468));
#107=EDGE_LOOP('',(#469,#470,#471,#472));
#108=EDGE_LOOP('',(#473));
#109=EDGE_LOOP('',(#474,#475,#476,#477));
#110=EDGE_LOOP('',(#478));
#111=EDGE_LOOP('',(#479,#480,#481,#482));
#112=EDGE_LOOP('',(#483));
#113=EDGE_LOOP('',(#484));
#114=EDGE_LOOP('',(#485,#486,#487,#488));
#115=EDGE_LOOP('',(#489));
#116=EDGE_LOOP('',(#490,#491,#492,#493));
#117=EDGE_LOOP('',(#494,#495,#496,#497));
#118=EDGE_LOOP('',(#498));
#119=EDGE_LOOP('',(#499,#500));
#120=EDGE_LOOP('',(#501,#502,#503,#504));
#121=EDGE_LOOP('',(#505,#506,#507,#508,#509));
#122=EDGE_LOOP('',(#510,#511,#512,#513,#514,#515));
#123=LINE('',#788,#170);
#124=LINE('',#791,#171);
#125=LINE('',#794,#172);
#126=LINE('',#796,#173);
#127=LINE('',#797,#174);
#128=LINE('',#800,#175);
#129=LINE('',#802,#176);
#130=LINE('',#804,#177);
#131=LINE('',#806,#178);
#132=LINE('',#808,#179);
#133=LINE('',#812,#180);
#134=LINE('',#828,#181);
#135=LINE('',#829,#182);
#136=LINE('',#832,#183);
#137=LINE('',#833,#184);
#138=LINE('',#838,#185);
#139=LINE('',#840,#186);
#140=LINE('',#842,#187);
#141=LINE('',#845,#188);
#142=LINE('',#847,#189);
#143=LINE('',#849,#190);
#144=LINE('',#851,#191);
#145=LINE('',#852,#192);
#146=LINE('',#859,#193);
#147=LINE('',#880,#194);
#148=LINE('',#900,#195);
#149=LINE('',#904,#196);
#150=LINE('',#905,#197);
#151=LINE('',#907,#198);
#152=LINE('',#909,#199);
#153=LINE('',#913,#200);
#154=LINE('',#915,#201);
#155=LINE('',#917,#202);
#156=LINE('',#918,#203);
#157=LINE('',#921,#204);
#158=LINE('',#922,#205);
#159=LINE('',#925,#206);
#160=LINE('',#926,#207);
#161=LINE('',#930,#208);
#162=LINE('',#932,#209);
#163=LINE('',#937,#210);
#164=LINE('',#942,#211);
#165=LINE('',#947,#212);
#166=LINE('',#954,#213);
#167=LINE('',#959,#214);
#168=LINE('',#962,#215);
#169=LINE('',#1000,#216);
#170=VECTOR('',#625,10.);
#171=VECTOR('',#628,10.);
#172=VECTOR('',#631,10.);
#173=VECTOR('',#632,10.);
#174=VECTOR('',#633,10.);
#175=VECTOR('',#636,10.);
#176=VECTOR('',#637,10.);
#177=VECTOR('',#638,10.);
#178=VECTOR('',#639,10.);
#179=VECTOR('',#640,10.);
#180=VECTOR('',#643,10.);
#181=VECTOR('',#660,10.);
#182=VECTOR('',#661,10.);
#183=VECTOR('',#664,10.);
#184=VECTOR('',#665,10.);
#185=VECTOR('',#670,10.);
#186=VECTOR('',#671,10.);
#187=VECTOR('',#672,10.);
#188=VECTOR('',#675,10.);
#189=VECTOR('',#676,10.);
#190=VECTOR('',#677,10.);
#191=VECTOR('',#678,10.);
#192=VECTOR('',#679,10.);
#193=VECTOR('',#684,10.);
#194=VECTOR('',#685,10.);
#195=VECTOR('',#686,10.);
#196=VECTOR('',#691,10.);
#197=VECTOR('',#692,10.);
#198=VECTOR('',#695,10.);
#199=VECTOR('',#698,10.);
#200=VECTOR('',#703,10.);
#201=VECTOR('',#704,10.);
#202=VECTOR('',#705,10.);
#203=VECTOR('',#706,10.);
#204=VECTOR('',#709,10.);
#205=VECTOR('',#710,10.);
#206=VECTOR('',#713,10.);
#207=VECTOR('',#714,10.);
#208=VECTOR('',#719,10.);
#209=VECTOR('',#722,10.);
#210=VECTOR('',#729,3.4);
#211=VECTOR('',#736,3.4);
#212=VECTOR('',#743,3.4);
#213=VECTOR('',#754,2.1);
#214=VECTOR('',#761,2.1);
#215=VECTOR('',#764,2.1);
#216=VECTOR('',#781,63.);
#217=CIRCLE('',#563,10.0000000000005);
#218=CIRCLE('',#564,10.0000000000005);
#219=CIRCLE('',#567,10.0000000000005);
#220=CIRCLE('',#568,70.0000000000109);
#221=CIRCLE('',#569,63.0500000000182);
#222=CIRCLE('',#570,2.10000000000043);
#223=CIRCLE('',#571,3.40000000000069);
#224=CIRCLE('',#572,3.40000000000069);
#225=CIRCLE('',#573,3.40000000000069);
#226=CIRCLE('',#575,10.0000000000005);
#227=CIRCLE('',#578,70.0000000000109);
#228=CIRCLE('',#579,70.0000000000109);
#229=CIRCLE('',#580,2.10000000000043);
#230=CIRCLE('',#581,63.0500000000182);
#231=CIRCLE('',#582,2.10000000000043);
#232=CIRCLE('',#591,70.000000000031);
#233=CIRCLE('',#596,3.4);
#234=CIRCLE('',#599,3.4);
#235=CIRCLE('',#602,3.4);
#236=CIRCLE('',#605,2.1);
#237=CIRCLE('',#608,2.1);
#238=CIRCLE('',#611,2.1);
#239=CIRCLE('',#614,23.5);
#240=CIRCLE('',#616,27.5);
#241=VERTEX_POINT('',#784);
#242=VERTEX_POINT('',#785);
#243=VERTEX_POINT('',#787);
#244=VERTEX_POINT('',#789);
#245=VERTEX_POINT('',#793);
#246=VERTEX_POINT('',#795);
#247=VERTEX_POINT('',#799);
#248=VERTEX_POINT('',#801);
#249=VERTEX_POINT('',#803);
#250=VERTEX_POINT('',#805);
#251=VERTEX_POINT('',#807);
#252=VERTEX_POINT('',#809);
#253=VERTEX_POINT('',#811);
#254=VERTEX_POINT('',#814);
#255=VERTEX_POINT('',#816);
#256=VERTEX_POINT('',#818);
#257=VERTEX_POINT('',#820);
#258=VERTEX_POINT('',#822);
#259=VERTEX_POINT('',#825);
#260=VERTEX_POINT('',#826);
#261=VERTEX_POINT('',#831);
#262=VERTEX_POINT('',#835);
#263=VERTEX_POINT('',#837);
#264=VERTEX_POINT('',#839);
#265=VERTEX_POINT('',#841);
#266=VERTEX_POINT('',#844);
#267=VERTEX_POINT('',#846);
#268=VERTEX_POINT('',#848);
#269=VERTEX_POINT('',#850);
#270=VERTEX_POINT('',#853);
#271=VERTEX_POINT('',#855);
#272=VERTEX_POINT('',#856);
#273=VERTEX_POINT('',#858);
#274=VERTEX_POINT('',#860);
#275=VERTEX_POINT('',#879);
#276=VERTEX_POINT('',#881);
#277=VERTEX_POINT('',#901);
#278=VERTEX_POINT('',#912);
#279=VERTEX_POINT('',#914);
#280=VERTEX_POINT('',#916);
#281=VERTEX_POINT('',#920);
#282=VERTEX_POINT('',#924);
#283=VERTEX_POINT('',#928);
#284=VERTEX_POINT('',#936);
#285=VERTEX_POINT('',#941);
#286=VERTEX_POINT('',#946);
#287=VERTEX_POINT('',#951);
#288=VERTEX_POINT('',#956);
#289=VERTEX_POINT('',#961);
#290=VERTEX_POINT('',#970);
#291=EDGE_CURVE('',#241,#242,#217,.T.);
#292=EDGE_CURVE('',#242,#243,#123,.T.);
#293=EDGE_CURVE('',#243,#244,#218,.T.);
#294=EDGE_CURVE('',#244,#241,#124,.T.);
#295=EDGE_CURVE('',#244,#245,#125,.T.);
#296=EDGE_CURVE('',#245,#246,#126,.T.);
#297=EDGE_CURVE('',#241,#246,#127,.T.);
#298=EDGE_CURVE('',#243,#247,#128,.T.);
#299=EDGE_CURVE('',#247,#248,#129,.F.);
#300=EDGE_CURVE('',#248,#249,#130,.F.);
#301=EDGE_CURVE('',#249,#250,#131,.F.);
#302=EDGE_CURVE('',#250,#251,#132,.T.);
#303=EDGE_CURVE('',#252,#251,#219,.T.);
#304=EDGE_CURVE('',#253,#252,#133,.T.);
#305=EDGE_CURVE('',#253,#245,#220,.T.);
#306=EDGE_CURVE('',#254,#254,#221,.T.);
#307=EDGE_CURVE('',#255,#255,#222,.T.);
#308=EDGE_CURVE('',#256,#256,#223,.T.);
#309=EDGE_CURVE('',#257,#257,#224,.T.);
#310=EDGE_CURVE('',#258,#258,#225,.T.);
#311=EDGE_CURVE('',#259,#260,#226,.T.);
#312=EDGE_CURVE('',#260,#252,#134,.T.);
#313=EDGE_CURVE('',#251,#259,#135,.T.);
#314=EDGE_CURVE('',#261,#260,#136,.T.);
#315=EDGE_CURVE('',#253,#261,#137,.T.);
#316=EDGE_CURVE('',#246,#262,#227,.T.);
#317=EDGE_CURVE('',#262,#263,#138,.T.);
#318=EDGE_CURVE('',#263,#264,#139,.T.);
#319=EDGE_CURVE('',#264,#265,#140,.T.);
#320=EDGE_CURVE('',#265,#261,#228,.T.);
#321=EDGE_CURVE('',#259,#266,#141,.F.);
#322=EDGE_CURVE('',#266,#267,#142,.T.);
#323=EDGE_CURVE('',#267,#268,#143,.T.);
#324=EDGE_CURVE('',#268,#269,#144,.T.);
#325=EDGE_CURVE('',#269,#242,#145,.F.);
#326=EDGE_CURVE('',#270,#270,#229,.T.);
#327=EDGE_CURVE('',#271,#272,#230,.F.);
#328=EDGE_CURVE('',#272,#273,#146,.T.);
#329=EDGE_CURVE('',#274,#273,#16,.T.);
#330=EDGE_CURVE('',#274,#275,#147,.T.);
#331=EDGE_CURVE('',#276,#275,#17,.T.);
#332=EDGE_CURVE('',#276,#271,#148,.T.);
#333=EDGE_CURVE('',#277,#277,#231,.T.);
#334=EDGE_CURVE('',#249,#267,#149,.T.);
#335=EDGE_CURVE('',#250,#266,#150,.F.);
#336=EDGE_CURVE('',#268,#248,#151,.T.);
#337=EDGE_CURVE('',#269,#247,#152,.F.);
#338=EDGE_CURVE('',#278,#264,#153,.T.);
#339=EDGE_CURVE('',#278,#279,#154,.T.);
#340=EDGE_CURVE('',#280,#279,#155,.T.);
#341=EDGE_CURVE('',#265,#280,#156,.T.);
#342=EDGE_CURVE('',#263,#281,#157,.T.);
#343=EDGE_CURVE('',#281,#278,#158,.T.);
#344=EDGE_CURVE('',#281,#282,#159,.T.);
#345=EDGE_CURVE('',#279,#282,#160,.T.);
#346=EDGE_CURVE('',#280,#283,#232,.T.);
#347=EDGE_CURVE('',#282,#283,#161,.T.);
#348=EDGE_CURVE('',#283,#262,#162,.T.);
#349=EDGE_CURVE('',#258,#284,#163,.T.);
#350=EDGE_CURVE('',#284,#284,#233,.T.);
#351=EDGE_CURVE('',#257,#285,#164,.T.);
#352=EDGE_CURVE('',#285,#285,#234,.T.);
#353=EDGE_CURVE('',#256,#286,#165,.T.);
#354=EDGE_CURVE('',#286,#286,#235,.T.);
#355=EDGE_CURVE('',#287,#287,#236,.T.);
#356=EDGE_CURVE('',#270,#287,#166,.T.);
#357=EDGE_CURVE('',#288,#288,#237,.T.);
#358=EDGE_CURVE('',#277,#288,#167,.T.);
#359=EDGE_CURVE('',#255,#289,#168,.T.);
#360=EDGE_CURVE('',#289,#289,#238,.T.);
#361=EDGE_CURVE('',#275,#274,#239,.T.);
#362=EDGE_CURVE('',#273,#276,#240,.T.);
#363=EDGE_CURVE('',#272,#290,#18,.F.);
#364=EDGE_CURVE('',#290,#271,#19,.F.);
#365=EDGE_CURVE('',#290,#254,#169,.T.);
#366=ORIENTED_EDGE('',*,*,#291,.T.);
#367=ORIENTED_EDGE('',*,*,#292,.T.);
#368=ORIENTED_EDGE('',*,*,#293,.T.);
#369=ORIENTED_EDGE('',*,*,#294,.T.);
#370=ORIENTED_EDGE('',*,*,#294,.F.);
#371=ORIENTED_EDGE('',*,*,#295,.T.);
#372=ORIENTED_EDGE('',*,*,#296,.T.);
#373=ORIENTED_EDGE('',*,*,#297,.F.);
#374=ORIENTED_EDGE('',*,*,#293,.F.);
#375=ORIENTED_EDGE('',*,*,#298,.T.);
#376=ORIENTED_EDGE('',*,*,#299,.T.);
#377=ORIENTED_EDGE('',*,*,#300,.T.);
#378=ORIENTED_EDGE('',*,*,#301,.T.);
#379=ORIENTED_EDGE('',*,*,#302,.T.);
#380=ORIENTED_EDGE('',*,*,#303,.F.);
#381=ORIENTED_EDGE('',*,*,#304,.F.);
#382=ORIENTED_EDGE('',*,*,#305,.T.);
#383=ORIENTED_EDGE('',*,*,#295,.F.);
#384=ORIENTED_EDGE('',*,*,#306,.T.);
#385=ORIENTED_EDGE('',*,*,#307,.T.);
#386=ORIENTED_EDGE('',*,*,#308,.T.);
#387=ORIENTED_EDGE('',*,*,#309,.T.);
#388=ORIENTED_EDGE('',*,*,#310,.T.);
#389=ORIENTED_EDGE('',*,*,#311,.T.);
#390=ORIENTED_EDGE('',*,*,#312,.T.);
#391=ORIENTED_EDGE('',*,*,#303,.T.);
#392=ORIENTED_EDGE('',*,*,#313,.T.);
#393=ORIENTED_EDGE('',*,*,#312,.F.);
#394=ORIENTED_EDGE('',*,*,#314,.F.);
#395=ORIENTED_EDGE('',*,*,#315,.F.);
#396=ORIENTED_EDGE('',*,*,#304,.T.);
#397=ORIENTED_EDGE('',*,*,#291,.F.);
#398=ORIENTED_EDGE('',*,*,#297,.T.);
#399=ORIENTED_EDGE('',*,*,#316,.T.);
#400=ORIENTED_EDGE('',*,*,#317,.T.);
#401=ORIENTED_EDGE('',*,*,#318,.T.);
#402=ORIENTED_EDGE('',*,*,#319,.T.);
#403=ORIENTED_EDGE('',*,*,#320,.T.);
#404=ORIENTED_EDGE('',*,*,#314,.T.);
#405=ORIENTED_EDGE('',*,*,#311,.F.);
#406=ORIENTED_EDGE('',*,*,#321,.T.);
#407=ORIENTED_EDGE('',*,*,#322,.T.);
#408=ORIENTED_EDGE('',*,*,#323,.T.);
#409=ORIENTED_EDGE('',*,*,#324,.T.);
#410=ORIENTED_EDGE('',*,*,#325,.T.);
#411=ORIENTED_EDGE('',*,*,#326,.F.);
#412=ORIENTED_EDGE('',*,*,#327,.T.);
#413=ORIENTED_EDGE('',*,*,#328,.T.);
#414=ORIENTED_EDGE('',*,*,#329,.F.);
#415=ORIENTED_EDGE('',*,*,#330,.T.);
#416=ORIENTED_EDGE('',*,*,#331,.F.);
#417=ORIENTED_EDGE('',*,*,#332,.T.);
#418=ORIENTED_EDGE('',*,*,#333,.F.);
#419=ORIENTED_EDGE('',*,*,#301,.F.);
#420=ORIENTED_EDGE('',*,*,#334,.T.);
#421=ORIENTED_EDGE('',*,*,#322,.F.);
#422=ORIENTED_EDGE('',*,*,#335,.F.);
#423=ORIENTED_EDGE('',*,*,#300,.F.);
#424=ORIENTED_EDGE('',*,*,#336,.F.);
#425=ORIENTED_EDGE('',*,*,#323,.F.);
#426=ORIENTED_EDGE('',*,*,#334,.F.);
#427=ORIENTED_EDGE('',*,*,#299,.F.);
#428=ORIENTED_EDGE('',*,*,#337,.F.);
#429=ORIENTED_EDGE('',*,*,#324,.F.);
#430=ORIENTED_EDGE('',*,*,#336,.T.);
#431=ORIENTED_EDGE('',*,*,#313,.F.);
#432=ORIENTED_EDGE('',*,*,#302,.F.);
#433=ORIENTED_EDGE('',*,*,#335,.T.);
#434=ORIENTED_EDGE('',*,*,#321,.F.);
#435=ORIENTED_EDGE('',*,*,#338,.F.);
#436=ORIENTED_EDGE('',*,*,#339,.T.);
#437=ORIENTED_EDGE('',*,*,#340,.F.);
#438=ORIENTED_EDGE('',*,*,#341,.F.);
#439=ORIENTED_EDGE('',*,*,#319,.F.);
#440=ORIENTED_EDGE('',*,*,#342,.T.);
#441=ORIENTED_EDGE('',*,*,#343,.T.);
#442=ORIENTED_EDGE('',*,*,#338,.T.);
#443=ORIENTED_EDGE('',*,*,#318,.F.);
#444=ORIENTED_EDGE('',*,*,#344,.T.);
#445=ORIENTED_EDGE('',*,*,#345,.F.);
#446=ORIENTED_EDGE('',*,*,#339,.F.);
#447=ORIENTED_EDGE('',*,*,#343,.F.);
#448=ORIENTED_EDGE('',*,*,#346,.F.);
#449=ORIENTED_EDGE('',*,*,#340,.T.);
#450=ORIENTED_EDGE('',*,*,#345,.T.);
#451=ORIENTED_EDGE('',*,*,#347,.T.);
#452=ORIENTED_EDGE('',*,*,#317,.F.);
#453=ORIENTED_EDGE('',*,*,#348,.F.);
#454=ORIENTED_EDGE('',*,*,#347,.F.);
#455=ORIENTED_EDGE('',*,*,#344,.F.);
#456=ORIENTED_EDGE('',*,*,#342,.F.);
#457=ORIENTED_EDGE('',*,*,#341,.T.);
#458=ORIENTED_EDGE('',*,*,#346,.T.);
#459=ORIENTED_EDGE('',*,*,#348,.T.);
#460=ORIENTED_EDGE('',*,*,#316,.F.);
#461=ORIENTED_EDGE('',*,*,#296,.F.);
#462=ORIENTED_EDGE('',*,*,#305,.F.);
#463=ORIENTED_EDGE('',*,*,#315,.T.);
#464=ORIENTED_EDGE('',*,*,#320,.F.);
#465=ORIENTED_EDGE('',*,*,#292,.F.);
#466=ORIENTED_EDGE('',*,*,#325,.F.);
#467=ORIENTED_EDGE('',*,*,#337,.T.);
#468=ORIENTED_EDGE('',*,*,#298,.F.);
#469=ORIENTED_EDGE('',*,*,#310,.F.);
#470=ORIENTED_EDGE('',*,*,#349,.T.);
#471=ORIENTED_EDGE('',*,*,#350,.T.);
#472=ORIENTED_EDGE('',*,*,#349,.F.);
#473=ORIENTED_EDGE('',*,*,#350,.F.);
#474=ORIENTED_EDGE('',*,*,#309,.F.);
#475=ORIENTED_EDGE('',*,*,#351,.T.);
#476=ORIENTED_EDGE('',*,*,#352,.T.);
#477=ORIENTED_EDGE('',*,*,#351,.F.);
#478=ORIENTED_EDGE('',*,*,#352,.F.);
#479=ORIENTED_EDGE('',*,*,#308,.F.);
#480=ORIENTED_EDGE('',*,*,#353,.T.);
#481=ORIENTED_EDGE('',*,*,#354,.T.);
#482=ORIENTED_EDGE('',*,*,#353,.F.);
#483=ORIENTED_EDGE('',*,*,#354,.F.);
#484=ORIENTED_EDGE('',*,*,#355,.F.);
#485=ORIENTED_EDGE('',*,*,#326,.T.);
#486=ORIENTED_EDGE('',*,*,#356,.T.);
#487=ORIENTED_EDGE('',*,*,#355,.T.);
#488=ORIENTED_EDGE('',*,*,#356,.F.);
#489=ORIENTED_EDGE('',*,*,#357,.F.);
#490=ORIENTED_EDGE('',*,*,#333,.T.);
#491=ORIENTED_EDGE('',*,*,#358,.T.);
#492=ORIENTED_EDGE('',*,*,#357,.T.);
#493=ORIENTED_EDGE('',*,*,#358,.F.);
#494=ORIENTED_EDGE('',*,*,#307,.F.);
#495=ORIENTED_EDGE('',*,*,#359,.T.);
#496=ORIENTED_EDGE('',*,*,#360,.T.);
#497=ORIENTED_EDGE('',*,*,#359,.F.);
#498=ORIENTED_EDGE('',*,*,#360,.F.);
#499=ORIENTED_EDGE('',*,*,#361,.F.);
#500=ORIENTED_EDGE('',*,*,#330,.F.);
#501=ORIENTED_EDGE('',*,*,#331,.T.);
#502=ORIENTED_EDGE('',*,*,#361,.T.);
#503=ORIENTED_EDGE('',*,*,#329,.T.);
#504=ORIENTED_EDGE('',*,*,#362,.T.);
#505=ORIENTED_EDGE('',*,*,#363,.T.);
#506=ORIENTED_EDGE('',*,*,#364,.T.);
#507=ORIENTED_EDGE('',*,*,#332,.F.);
#508=ORIENTED_EDGE('',*,*,#362,.F.);
#509=ORIENTED_EDGE('',*,*,#328,.F.);
#510=ORIENTED_EDGE('',*,*,#363,.F.);
#511=ORIENTED_EDGE('',*,*,#327,.F.);
#512=ORIENTED_EDGE('',*,*,#364,.F.);
#513=ORIENTED_EDGE('',*,*,#365,.T.);
#514=ORIENTED_EDGE('',*,*,#306,.F.);
#515=ORIENTED_EDGE('',*,*,#365,.F.);
#516=CYLINDRICAL_SURFACE('',#562,10.);
#517=CYLINDRICAL_SURFACE('',#574,10.);
#518=CYLINDRICAL_SURFACE('',#593,70.0000000000108);
#519=CYLINDRICAL_SURFACE('',#595,3.4);
#520=CYLINDRICAL_SURFACE('',#598,3.4);
#521=CYLINDRICAL_SURFACE('',#601,3.4);
#522=CYLINDRICAL_SURFACE('',#606,2.1);
#523=CYLINDRICAL_SURFACE('',#609,2.1);
#524=CYLINDRICAL_SURFACE('',#610,2.1);
#525=CYLINDRICAL_SURFACE('',#617,27.5);
#526=CYLINDRICAL_SURFACE('',#618,63.05);
#527=ADVANCED_FACE('',(#49),#516,.T.);
#528=ADVANCED_FACE('',(#50),#28,.T.);
#529=ADVANCED_FACE('',(#51,#20,#21,#22,#23,#24),#29,.T.);
#530=ADVANCED_FACE('',(#52),#517,.T.);
#531=ADVANCED_FACE('',(#53),#30,.T.);
#532=ADVANCED_FACE('',(#54,#25,#26,#27),#31,.F.);
#533=ADVANCED_FACE('',(#55),#32,.T.);
#534=ADVANCED_FACE('',(#56),#33,.T.);
#535=ADVANCED_FACE('',(#57),#34,.T.);
#536=ADVANCED_FACE('',(#58),#35,.F.);
#537=ADVANCED_FACE('',(#59),#36,.F.);
#538=ADVANCED_FACE('',(#60),#37,.T.);
#539=ADVANCED_FACE('',(#61),#38,.F.);
#540=ADVANCED_FACE('',(#62),#39,.F.);
#541=ADVANCED_FACE('',(#63),#40,.F.);
#542=ADVANCED_FACE('',(#64),#518,.T.);
#543=ADVANCED_FACE('',(#65),#41,.F.);
#544=ADVANCED_FACE('',(#66),#519,.F.);
#545=ADVANCED_FACE('',(#67),#42,.F.);
#546=ADVANCED_FACE('',(#68),#520,.F.);
#547=ADVANCED_FACE('',(#69),#43,.F.);
#548=ADVANCED_FACE('',(#70),#521,.F.);
#549=ADVANCED_FACE('',(#71),#44,.F.);
#550=ADVANCED_FACE('',(#72),#45,.F.);
#551=ADVANCED_FACE('',(#73),#522,.F.);
#552=ADVANCED_FACE('',(#74),#46,.F.);
#553=ADVANCED_FACE('',(#75),#523,.F.);
#554=ADVANCED_FACE('',(#76),#524,.F.);
#555=ADVANCED_FACE('',(#77),#47,.F.);
#556=ADVANCED_FACE('',(#78),#48,.F.);
#557=ADVANCED_FACE('',(#79),#15,.F.);
#558=ADVANCED_FACE('',(#80),#525,.F.);
#559=ADVANCED_FACE('',(#81),#526,.F.);
#560=CLOSED_SHELL('',(#527,#528,#529,#530,#531,#532,#533,#534,#535,#536,
#537,#538,#539,#540,#541,#542,#543,#544,#545,#546,#547,#548,#549,#550,#551,
#552,#553,#554,#555,#556,#557,#558,#559));
#561=AXIS2_PLACEMENT_3D('',#782,#619,#620);
#562=AXIS2_PLACEMENT_3D('',#783,#621,#622);
#563=AXIS2_PLACEMENT_3D('',#786,#623,#624);
#564=AXIS2_PLACEMENT_3D('',#790,#626,#627);
#565=AXIS2_PLACEMENT_3D('',#792,#629,#630);
#566=AXIS2_PLACEMENT_3D('',#798,#634,#635);
#567=AXIS2_PLACEMENT_3D('',#810,#641,#642);
#568=AXIS2_PLACEMENT_3D('',#813,#644,#645);
#569=AXIS2_PLACEMENT_3D('',#815,#646,#647);
#570=AXIS2_PLACEMENT_3D('',#817,#648,#649);
#571=AXIS2_PLACEMENT_3D('',#819,#650,#651);
#572=AXIS2_PLACEMENT_3D('',#821,#652,#653);
#573=AXIS2_PLACEMENT_3D('',#823,#654,#655);
#574=AXIS2_PLACEMENT_3D('',#824,#656,#657);
#575=AXIS2_PLACEMENT_3D('',#827,#658,#659);
#576=AXIS2_PLACEMENT_3D('',#830,#662,#663);
#577=AXIS2_PLACEMENT_3D('',#834,#666,#667);
#578=AXIS2_PLACEMENT_3D('',#836,#668,#669);
#579=AXIS2_PLACEMENT_3D('',#843,#673,#674);
#580=AXIS2_PLACEMENT_3D('',#854,#680,#681);
#581=AXIS2_PLACEMENT_3D('',#857,#682,#683);
#582=AXIS2_PLACEMENT_3D('',#902,#687,#688);
#583=AXIS2_PLACEMENT_3D('',#903,#689,#690);
#584=AXIS2_PLACEMENT_3D('',#906,#693,#694);
#585=AXIS2_PLACEMENT_3D('',#908,#696,#697);
#586=AXIS2_PLACEMENT_3D('',#910,#699,#700);
#587=AXIS2_PLACEMENT_3D('',#911,#701,#702);
#588=AXIS2_PLACEMENT_3D('',#919,#707,#708);
#589=AXIS2_PLACEMENT_3D('',#923,#711,#712);
#590=AXIS2_PLACEMENT_3D('',#927,#715,#716);
#591=AXIS2_PLACEMENT_3D('',#929,#717,#718);
#592=AXIS2_PLACEMENT_3D('',#931,#720,#721);
#593=AXIS2_PLACEMENT_3D('',#933,#723,#724);
#594=AXIS2_PLACEMENT_3D('',#934,#725,#726);
#595=AXIS2_PLACEMENT_3D('',#935,#727,#728);
#596=AXIS2_PLACEMENT_3D('',#938,#730,#731);
#597=AXIS2_PLACEMENT_3D('',#939,#732,#733);
#598=AXIS2_PLACEMENT_3D('',#940,#734,#735);
#599=AXIS2_PLACEMENT_3D('',#943,#737,#738);
#600=AXIS2_PLACEMENT_3D('',#944,#739,#740);
#601=AXIS2_PLACEMENT_3D('',#945,#741,#742);
#602=AXIS2_PLACEMENT_3D('',#948,#744,#745);
#603=AXIS2_PLACEMENT_3D('',#949,#746,#747);
#604=AXIS2_PLACEMENT_3D('',#950,#748,#749);
#605=AXIS2_PLACEMENT_3D('',#952,#750,#751);
#606=AXIS2_PLACEMENT_3D('',#953,#752,#753);
#607=AXIS2_PLACEMENT_3D('',#955,#755,#756);
#608=AXIS2_PLACEMENT_3D('',#957,#757,#758);
#609=AXIS2_PLACEMENT_3D('',#958,#759,#760);
#610=AXIS2_PLACEMENT_3D('',#960,#762,#763);
#611=AXIS2_PLACEMENT_3D('',#963,#765,#766);
#612=AXIS2_PLACEMENT_3D('',#964,#767,#768);
#613=AXIS2_PLACEMENT_3D('',#965,#769,#770);
#614=AXIS2_PLACEMENT_3D('',#966,#771,#772);
#615=AXIS2_PLACEMENT_3D('',#967,#773,#774);
#616=AXIS2_PLACEMENT_3D('',#968,#775,#776);
#617=AXIS2_PLACEMENT_3D('',#969,#777,#778);
#618=AXIS2_PLACEMENT_3D('',#999,#779,#780);
#619=DIRECTION('axis',(0.,0.,1.));
#620=DIRECTION('refdir',(1.,0.,0.));
#621=DIRECTION('center_axis',(0.,5.87224386531596E-7,-0.999999999999828));
#622=DIRECTION('ref_axis',(-0.748561839519616,0.663064983553541,3.89367928936385E-7));
#623=DIRECTION('center_axis',(-4.11985622235811E-7,-6.37312921952978E-7,
0.999999999999712));
#624=DIRECTION('ref_axis',(0.663064983553623,0.748561839519268,7.50241373038854E-7));
#625=DIRECTION('',(0.,-5.87224386531596E-7,0.999999999999827));
#626=DIRECTION('center_axis',(4.11985622235811E-7,6.37312921952978E-7,-0.999999999999712));
#627=DIRECTION('ref_axis',(0.663064983553623,0.748561839519268,7.50241373038854E-7));
#628=DIRECTION('',(0.,5.87224386531596E-7,-0.999999999999827));
#629=DIRECTION('center_axis',(-0.120689655169984,0.992690287619765,5.8293194516349E-7));
#630=DIRECTION('ref_axis',(0.99269028761985,0.120689655169709,4.85891204654986E-7));
#631=DIRECTION('',(0.99269028761985,0.120689655169709,4.85891204654986E-7));
#632=DIRECTION('',(4.11985622150724E-7,6.37312921991651E-7,-0.999999999999712));
#633=DIRECTION('',(0.99269028761985,0.120689655169709,4.85891204654986E-7));
#634=DIRECTION('center_axis',(-4.11985622235811E-7,-6.37312921952978E-7,
0.999999999999712));
#635=DIRECTION('ref_axis',(0.999999999999915,0.,4.11985622235894E-7));
#636=DIRECTION('',(0.,-0.999999999999797,-6.37312921953032E-7));
#637=DIRECTION('',(-0.999999999999915,0.,-4.11985622235894E-7));
#638=DIRECTION('',(0.,0.999999999999797,6.37312921953032E-7));
#639=DIRECTION('',(0.999999999999915,0.,4.11985622235894E-7));
#640=DIRECTION('',(0.,-0.999999999999797,-6.37312921953032E-7));
#641=DIRECTION('center_axis',(4.11985622235811E-7,6.37312921952978E-7,-0.999999999999712));
#642=DIRECTION('ref_axis',(-0.663064983551804,0.748561839521228,2.03894893376461E-7));
#643=DIRECTION('',(-0.992690287619264,0.120689655175051,-3.32057045435527E-7));
#644=DIRECTION('center_axis',(-4.11985622235811E-7,-6.37312921952978E-7,
0.999999999999712));
#645=DIRECTION('ref_axis',(-0.120689655174798,-0.992690287619116,-6.82376750481692E-7));
#646=DIRECTION('center_axis',(4.11985622235811E-7,6.37312921952978E-7,-0.999999999999712));
#647=DIRECTION('ref_axis',(0.54298048235202,0.839745316023967,7.58880692935477E-7));
#648=DIRECTION('center_axis',(4.11985622235811E-7,6.37312921952978E-7,-0.999999999999712));
#649=DIRECTION('ref_axis',(0.,0.999999999999797,6.37312921953032E-7));
#650=DIRECTION('center_axis',(4.11985622235811E-7,6.37312921952978E-7,-0.999999999999712));
#651=DIRECTION('ref_axis',(0.,0.999999999999797,6.37312921953032E-7));
#652=DIRECTION('center_axis',(4.11985622235811E-7,6.37312921952978E-7,-0.999999999999712));
#653=DIRECTION('ref_axis',(0.,0.999999999999797,6.37312921953032E-7));
#654=DIRECTION('center_axis',(4.11985622235811E-7,6.37312921952978E-7,-0.999999999999712));
#655=DIRECTION('ref_axis',(0.,0.999999999999797,6.37312921953032E-7));
#656=DIRECTION('center_axis',(0.,6.87401457453843E-7,-0.999999999999764));
#657=DIRECTION('ref_axis',(-0.748561839521227,-0.663064983551679,-4.55791836180654E-7));
#658=DIRECTION('center_axis',(-4.11985622235811E-7,-6.37312921952978E-7,
0.999999999999712));
#659=DIRECTION('ref_axis',(-0.663064983551804,0.748561839521228,2.03894893376461E-7));
#660=DIRECTION('',(1.27785142907275E-23,-6.87401457453843E-7,0.999999999999764));
#661=DIRECTION('',(0.,6.87401457453843E-7,-0.999999999999764));
#662=DIRECTION('center_axis',(-0.120689655174805,-0.992690287619115,-6.82376750509815E-7));
#663=DIRECTION('ref_axis',(-0.992690287619264,0.120689655175051,-3.32057045435527E-7));
#664=DIRECTION('',(-0.992690287619264,0.120689655175051,-3.32057045435527E-7));
#665=DIRECTION('',(4.11985622150724E-7,6.37312921991651E-7,-0.999999999999712));
#666=DIRECTION('center_axis',(-4.11985622235811E-7,-6.37312921952978E-7,
0.999999999999712));
#667=DIRECTION('ref_axis',(0.999999999999915,-2.98878275675439E-29,4.11985622235894E-7));
#668=DIRECTION('center_axis',(4.11985622235811E-7,6.37312921952978E-7,-0.999999999999712));
#669=DIRECTION('ref_axis',(-0.120689655174798,-0.992690287619116,-6.82376750481692E-7));
#670=DIRECTION('',(-0.999999999999915,0.,-4.11985622235894E-7));
#671=DIRECTION('',(0.,-0.999999999999797,-6.37312921953032E-7));
#672=DIRECTION('',(0.999999999999915,0.,4.11985622235894E-7));
#673=DIRECTION('center_axis',(4.11985622235811E-7,6.37312921952978E-7,-0.999999999999712));
#674=DIRECTION('ref_axis',(-0.120689655174798,-0.992690287619116,-6.82376750481692E-7));
#675=DIRECTION('',(0.,-0.999999999999797,-6.37312921953032E-7));
#676=DIRECTION('',(0.999999999999915,0.,4.11985622235894E-7));
#677=DIRECTION('',(0.,0.999999999999797,6.37312921953032E-7));
#678=DIRECTION('',(-0.999999999999915,0.,-4.11985622235894E-7));
#679=DIRECTION('',(0.,-0.999999999999797,-6.37312921953032E-7));
#680=DIRECTION('center_axis',(4.11985622235811E-7,6.37312921952978E-7,-0.999999999999712));
#681=DIRECTION('ref_axis',(0.,0.999999999999797,6.37312921953032E-7));
#682=DIRECTION('center_axis',(4.11985622235811E-7,6.37312921952978E-7,-0.999999999999712));
#683=DIRECTION('ref_axis',(0.54298048235202,0.839745316023967,7.58880692935477E-7));
#684=DIRECTION('',(-0.999999999999899,1.79804980830275E-7,-4.11985510595472E-7));
#685=DIRECTION('',(1.41511895968678E-22,-0.999999999999797,-6.37312921953032E-7));
#686=DIRECTION('',(0.999999999999899,1.79804455620769E-7,4.11985737969148E-7));
#687=DIRECTION('center_axis',(4.11985622235811E-7,6.37312921952978E-7,-0.999999999999712));
#688=DIRECTION('ref_axis',(0.,0.999999999999797,6.37312921953032E-7));
#689=DIRECTION('center_axis',(0.,1.,0.));
#690=DIRECTION('ref_axis',(1.,0.,0.));
#691=DIRECTION('',(0.,0.,-1.));
#692=DIRECTION('',(0.,0.,1.));
#693=DIRECTION('center_axis',(-1.,0.,0.));
#694=DIRECTION('ref_axis',(0.,0.,-1.));
#695=DIRECTION('',(0.,0.,1.));
#696=DIRECTION('center_axis',(0.,-1.,0.));
#697=DIRECTION('ref_axis',(-1.,0.,0.));
#698=DIRECTION('',(0.,0.,-1.));
#699=DIRECTION('center_axis',(1.,0.,0.));
#700=DIRECTION('ref_axis',(0.,0.,-1.));
#701=DIRECTION('center_axis',(0.,1.,0.));
#702=DIRECTION('ref_axis',(0.,0.,-1.));
#703=DIRECTION('',(-1.,0.,0.));
#704=DIRECTION('',(0.,0.,1.));
#705=DIRECTION('',(1.,0.,0.));
#706=DIRECTION('',(-4.02880077376809E-7,0.,0.999999999999919));
#707=DIRECTION('center_axis',(0.,0.,-1.));
#708=DIRECTION('ref_axis',(0.,-1.,0.));
#709=DIRECTION('',(1.,0.,0.));
#710=DIRECTION('',(0.,-1.,0.));
#711=DIRECTION('center_axis',(-1.,0.,0.));
#712=DIRECTION('ref_axis',(0.,0.,-1.));
#713=DIRECTION('',(0.,0.,1.));
#714=DIRECTION('',(0.,1.,0.));
#715=DIRECTION('center_axis',(0.,0.,-1.));
#716=DIRECTION('ref_axis',(0.,-1.,0.));
#717=DIRECTION('center_axis',(0.,0.,1.));
#718=DIRECTION('ref_axis',(-0.542951628048904,-0.839763972553624,0.));
#719=DIRECTION('',(-1.,0.,0.));
#720=DIRECTION('center_axis',(0.,-1.,0.));
#721=DIRECTION('ref_axis',(0.,0.,1.));
#722=DIRECTION('',(4.21090876372848E-7,0.,-0.999999999999911));
#723=DIRECTION('center_axis',(4.11985622150724E-7,6.37312921991651E-7,-0.999999999999712));
#724=DIRECTION('ref_axis',(0.999999999999915,-2.6411196026418E-12,4.11985622149124E-7));
#725=DIRECTION('center_axis',(1.,0.,0.));
#726=DIRECTION('ref_axis',(0.,0.,-1.));
#727=DIRECTION('center_axis',(0.,0.,-1.));
#728=DIRECTION('ref_axis',(0.,1.,0.));
#729=DIRECTION('',(0.,0.,-1.));
#730=DIRECTION('center_axis',(0.,0.,-1.));
#731=DIRECTION('ref_axis',(0.,1.,0.));
#732=DIRECTION('center_axis',(0.,0.,-1.));
#733=DIRECTION('ref_axis',(0.,1.,0.));
#734=DIRECTION('center_axis',(0.,0.,-1.));
#735=DIRECTION('ref_axis',(0.,1.,0.));
#736=DIRECTION('',(0.,0.,-1.));
#737=DIRECTION('center_axis',(0.,0.,-1.));
#738=DIRECTION('ref_axis',(0.,1.,0.));
#739=DIRECTION('center_axis',(0.,0.,-1.));
#740=DIRECTION('ref_axis',(0.,1.,0.));
#741=DIRECTION('center_axis',(0.,0.,-1.));
#742=DIRECTION('ref_axis',(0.,1.,0.));
#743=DIRECTION('',(0.,0.,-1.));
#744=DIRECTION('center_axis',(0.,0.,-1.));
#745=DIRECTION('ref_axis',(0.,1.,0.));
#746=DIRECTION('center_axis',(0.,0.,-1.));
#747=DIRECTION('ref_axis',(0.,1.,0.));
#748=DIRECTION('center_axis',(0.,0.,1.));
#749=DIRECTION('ref_axis',(1.,0.,0.));
#750=DIRECTION('center_axis',(0.,0.,1.));
#751=DIRECTION('ref_axis',(1.,0.,0.));
#752=DIRECTION('center_axis',(0.,0.,1.));
#753=DIRECTION('ref_axis',(1.,0.,0.));
#754=DIRECTION('',(0.,0.,1.));
#755=DIRECTION('center_axis',(0.,0.,1.));
#756=DIRECTION('ref_axis',(1.,0.,0.));
#757=DIRECTION('center_axis',(0.,0.,1.));
#758=DIRECTION('ref_axis',(1.,0.,0.));
#759=DIRECTION('center_axis',(0.,0.,1.));
#760=DIRECTION('ref_axis',(1.,0.,0.));
#761=DIRECTION('',(0.,0.,1.));
#762=DIRECTION('center_axis',(0.,0.,-1.));
#763=DIRECTION('ref_axis',(0.,1.,0.));
#764=DIRECTION('',(0.,0.,-1.));
#765=DIRECTION('center_axis',(0.,0.,-1.));
#766=DIRECTION('ref_axis',(0.,1.,0.));
#767=DIRECTION('center_axis',(0.,0.,-1.));
#768=DIRECTION('ref_axis',(0.,1.,0.));
#769=DIRECTION('center_axis',(-1.,0.,-2.22044604925031E-16));
#770=DIRECTION('ref_axis',(-2.22044604925031E-16,0.,1.));
#771=DIRECTION('center_axis',(-1.,0.,-2.22044604925031E-16));
#772=DIRECTION('ref_axis',(-2.22044604924986E-16,-6.37312921436497E-7,0.999999999999797));
#773=DIRECTION('center_axis',(-1.,0.,-2.22044604925031E-16));
#774=DIRECTION('ref_axis',(0.,0.,1.));
#775=DIRECTION('center_axis',(1.,0.,2.22044604925031E-16));
#776=DIRECTION('ref_axis',(-2.22044604925032E-16,-6.37312921436497E-7,0.999999999999797));
#777=DIRECTION('center_axis',(-1.,0.,-2.22044604925031E-16));
#778=DIRECTION('ref_axis',(-2.22044604925031E-16,0.,1.));
#779=DIRECTION('center_axis',(0.,0.,1.));
#780=DIRECTION('ref_axis',(1.,0.,0.));
#781=DIRECTION('',(0.,0.,1.));
#782=CARTESIAN_POINT('',(0.,0.,0.));
#783=CARTESIAN_POINT('Origin',(-253.000004008412,29.6824945432616,379.499043108459));
#784=CARTESIAN_POINT('',(-254.206900560112,39.609419439862,341.999920513993));
#785=CARTESIAN_POINT('',(-263.000004008412,29.6825165636667,341.999910564817));
#786=CARTESIAN_POINT('Origin',(-253.000004008412,29.6825165636643,341.999914684673));
#787=CARTESIAN_POINT('',(-263.000004008412,29.6824872024474,391.999910564813));
#788=CARTESIAN_POINT('',(-263.000004008412,29.6824945432616,379.499043108459));
#789=CARTESIAN_POINT('',(-254.206900560112,39.6093900786426,391.999920513988));
#790=CARTESIAN_POINT('Origin',(-253.000004008412,29.682487202445,391.999914684669));
#791=CARTESIAN_POINT('',(-254.206900560112,39.6093974194593,379.499048937778));
#792=CARTESIAN_POINT('Origin',(-294.224137930982,34.7441600674629,391.999900926788));
#793=CARTESIAN_POINT('',(-8.44827586189968,69.4883201333786,392.000040805237));
#794=CARTESIAN_POINT('',(-294.224137930982,34.7441600674629,391.999900926788));
#795=CARTESIAN_POINT('',(-8.44825526261847,69.4883519990247,342.000040805251));
#796=CARTESIAN_POINT('',(-8.44827586189968,69.4883201333786,392.000040805237));
#797=CARTESIAN_POINT('',(-294.224117331701,34.744191933109,341.999900926802));
#798=CARTESIAN_POINT('Origin',(-127.499999999988,-1.09991908531218E-11,
391.999947471833));
#799=CARTESIAN_POINT('',(-263.000004008412,25.1000000006705,391.999907644334));
#800=CARTESIAN_POINT('',(-263.000004008412,-5.4348792780593E-10,391.99989164778));
#801=CARTESIAN_POINT('',(-258.000004008412,25.1000000006705,391.999909704262));
#802=CARTESIAN_POINT('',(-194.000007154027,25.1000000006705,391.999936071341));
#803=CARTESIAN_POINT('',(-258.000004008412,-25.0999999993295,391.999877711154));
#804=CARTESIAN_POINT('',(-258.000004008412,-7.96606478449904E-6,391.999893707703));
#805=CARTESIAN_POINT('',(-263.000004008412,-25.0999999993295,391.999875651226));
#806=CARTESIAN_POINT('',(-194.000007154014,-25.0999999993295,391.999904078232));
#807=CARTESIAN_POINT('',(-263.000004008412,-29.682487201128,391.999872730747));
#808=CARTESIAN_POINT('',(-263.000004008412,-5.4348792780593E-10,391.99989164778));
#809=CARTESIAN_POINT('',(-254.20690056016,-39.6093900773219,391.999870026837));
#810=CARTESIAN_POINT('Origin',(-253.000004008412,-29.6824872011308,391.999876850603));
#811=CARTESIAN_POINT('',(-8.44827586223026,-69.4883201333637,391.999952233628));
#812=CARTESIAN_POINT('',(-8.44827586223026,-69.4883201333637,391.999952233628));
#813=CARTESIAN_POINT('Origin',(6.89693634388349E-12,-1.48578985480733E-11,
392.));
#814=CARTESIAN_POINT('',(-63.050000000021,-3.24849696698305E-11,391.999974024307));
#815=CARTESIAN_POINT('Origin',(-2.0996537841711E-11,-3.24891267792555E-11,
392.));
#816=CARTESIAN_POINT('',(-252.500003762558,-2.10000000002313,391.999894635272));
#817=CARTESIAN_POINT('Origin',(-252.500003762558,-2.31286781990098E-11,
391.999895973629));
#818=CARTESIAN_POINT('',(-224.000003337875,-3.40000000002313,391.999905548355));
#819=CARTESIAN_POINT('Origin',(-224.000003337875,-2.31286781990098E-11,
391.999907715219));
#820=CARTESIAN_POINT('',(-204.000003039852,-3.40000000002313,391.999913788068));
#821=CARTESIAN_POINT('Origin',(-204.000003039852,-2.31286781990098E-11,
391.999915954932));
#822=CARTESIAN_POINT('',(-184.000002741829,-3.40000000002313,391.999922027781));
#823=CARTESIAN_POINT('Origin',(-184.000002741829,-2.31286781990098E-11,
391.999924194645));
#824=CARTESIAN_POINT('Origin',(-253.000004008412,-29.6824786080545,379.499065012309));
#825=CARTESIAN_POINT('',(-263.000004008412,-29.6824528310551,341.999872730755));
#826=CARTESIAN_POINT('',(-254.20690056016,-39.6093557072491,341.999870026844));
#827=CARTESIAN_POINT('Origin',(-253.000004008412,-29.6824528310579,341.999876850611));
#828=CARTESIAN_POINT('',(-254.20690056016,-39.6093814842457,379.499058188542));
#829=CARTESIAN_POINT('',(-263.000004008412,-29.6824786080545,379.499065012309));
#830=CARTESIAN_POINT('Origin',(-8.44827586223026,-69.4883201333637,391.999952233628));
#831=CARTESIAN_POINT('',(-8.44825526294905,-69.4882882677176,341.999952233642));
#832=CARTESIAN_POINT('',(-8.44825526294908,-69.4882882677176,341.999952233642));
#833=CARTESIAN_POINT('',(-8.44827586223026,-69.4883201333637,391.999952233628));
#834=CARTESIAN_POINT('Origin',(-127.499979400707,3.18656350915098E-5,341.999947471848));
#835=CARTESIAN_POINT('',(69.9928778330505,0.999999992526291,342.000029473358));
#836=CARTESIAN_POINT('Origin',(2.05992880755267E-5,3.18656312328021E-5,
342.000000000015));
#837=CARTESIAN_POINT('',(67.0000010356156,0.999999992526291,342.000028240336));
#838=CARTESIAN_POINT('',(-28.7499840327316,0.999999992526291,341.999988792719));
#839=CARTESIAN_POINT('',(67.0000010356156,-1.00000000747371,342.00002696571));
#840=CARTESIAN_POINT('',(67.0000010356156,2.38954578853163E-5,342.000027603038));
#841=CARTESIAN_POINT('',(69.9928769222979,-1.00000000747371,342.000028198732));
#842=CARTESIAN_POINT('',(-28.7499840327311,-1.00000000747371,341.999987518093));
#843=CARTESIAN_POINT('Origin',(2.05992880755267E-5,3.18656312328021E-5,
342.000000000015));
#844=CARTESIAN_POINT('',(-263.000004008412,-25.0999999993295,341.999875651211));
#845=CARTESIAN_POINT('',(-263.000004008412,3.18651026062523E-5,341.999891647786));
#846=CARTESIAN_POINT('',(-258.000004008412,-25.0999999993295,341.999877711139));
#847=CARTESIAN_POINT('',(-193.999986554733,-25.0999999993295,341.999904078226));
#848=CARTESIAN_POINT('',(-258.000004008412,25.1000000006705,341.999909704248));
#849=CARTESIAN_POINT('',(-258.000004008412,2.38995813096811E-5,341.999893707709));
#850=CARTESIAN_POINT('',(-263.000004008412,25.1000000006705,341.99990764432));
#851=CARTESIAN_POINT('',(-193.999986554746,25.1000000006705,341.999936071335));
#852=CARTESIAN_POINT('',(-263.000004008412,3.18651026062523E-5,341.999891647786));
#853=CARTESIAN_POINT('',(-254.100003755108,-15.0000002235405,341.999884828555));
#854=CARTESIAN_POINT('Origin',(-252.000003755108,-15.0000002235405,341.999886619914));
#855=CARTESIAN_POINT('',(-57.7931797256504,-25.2041837241904,341.999960127075));
#856=CARTESIAN_POINT('',(-57.7931858402542,25.2041697033375,341.999992252967));
#857=CARTESIAN_POINT('Origin',(-2.0996537841711E-11,-3.24891267792555E-11,
341.999999999986));
#858=CARTESIAN_POINT('',(-79.5000007599592,25.204173606331,341.999983310074));
#859=CARTESIAN_POINT('',(-68.5000007599592,25.2041716284762,341.999987841915));
#860=CARTESIAN_POINT('',(-83.5000007599592,20.7665708688693,341.99997883399));
#861=CARTESIAN_POINT('Ctrl Pts',(-83.5000007599592,20.7665708688693,341.99997883399));
#862=CARTESIAN_POINT('Ctrl Pts',(-83.5000007599592,21.0538145551469,341.999979017054));
#863=CARTESIAN_POINT('Ctrl Pts',(-83.4743018894157,21.3679455217922,341.999979227841));
#864=CARTESIAN_POINT('Ctrl Pts',(-83.360944303614,21.9845813098651,341.999979667533));
#865=CARTESIAN_POINT('Ctrl Pts',(-83.2731503390192,22.2870612604268,341.999979896477));
#866=CARTESIAN_POINT('Ctrl Pts',(-83.0716116018284,22.8031236079438,341.999980308402));
#867=CARTESIAN_POINT('Ctrl Pts',(-82.9428233656185,23.065969581555,341.999980528976));
#868=CARTESIAN_POINT('Ctrl Pts',(-82.6339111157087,23.5591674584619,341.999980970564));
#869=CARTESIAN_POINT('Ctrl Pts',(-82.4536507673538,23.7894339560468,341.999981191581));
#870=CARTESIAN_POINT('Ctrl Pts',(-82.0982334786176,24.1648398567815,341.999981577259));
#871=CARTESIAN_POINT('Ctrl Pts',(-81.892807066835,24.346784873997,341.999981777847));
#872=CARTESIAN_POINT('Ctrl Pts',(-81.4477105400369,24.6619096433695,341.999982162054));
#873=CARTESIAN_POINT('Ctrl Pts',(-81.207969301674,24.7949889256614,341.999982345637));
#874=CARTESIAN_POINT('Ctrl Pts',(-80.759225385568,24.9901532954521,341.999982654894));
#875=CARTESIAN_POINT('Ctrl Pts',(-80.5101473851955,25.0721616644727,341.999982809775));
#876=CARTESIAN_POINT('Ctrl Pts',(-80.0001195970779,25.1791938505282,341.999983088112));
#877=CARTESIAN_POINT('Ctrl Pts',(-79.7391605728526,25.2041736493335,341.999983211544));
#878=CARTESIAN_POINT('Ctrl Pts',(-79.5000007599592,25.2041736063314,341.999983310074));
#879=CARTESIAN_POINT('',(-83.5000007599592,-20.7665848897098,341.999952364373));
#880=CARTESIAN_POINT('',(-83.5000007599592,1.24276016606556E-5,341.999965599194));
#881=CARTESIAN_POINT('',(-79.5000007599592,-25.2041876271735,341.999951184174));
#882=CARTESIAN_POINT('Ctrl Pts',(-79.5000007599592,-25.2041876271739,341.999951184174));
#883=CARTESIAN_POINT('Ctrl Pts',(-79.7391605728526,-25.2041876701759,341.999951085644));
#884=CARTESIAN_POINT('Ctrl Pts',(-80.0001195970779,-25.1792078713705,341.999950994052));
#885=CARTESIAN_POINT('Ctrl Pts',(-80.5101473851955,-25.0721756853147,341.999950852141));
#886=CARTESIAN_POINT('Ctrl Pts',(-80.759225385568,-24.9901673162939,341.99995080179));
#887=CARTESIAN_POINT('Ctrl Pts',(-81.207969301674,-24.7950029465031,341.999950741294));
#888=CARTESIAN_POINT('Ctrl Pts',(-81.4477105400369,-24.661923664211,341.999950727338));
#889=CARTESIAN_POINT('Ctrl Pts',(-81.892807066835,-24.3467988948383,341.999950744797));
#890=CARTESIAN_POINT('Ctrl Pts',(-82.0982334786176,-24.1648538776226,341.99995077612));
#891=CARTESIAN_POINT('Ctrl Pts',(-82.4536507673538,-23.7894479768878,341.999950868945));
#892=CARTESIAN_POINT('Ctrl Pts',(-82.6339111157087,-23.5591814793028,341.999950941432));
#893=CARTESIAN_POINT('Ctrl Pts',(-82.9428233656186,-23.0659836023958,341.999951128486));
#894=CARTESIAN_POINT('Ctrl Pts',(-83.0716116018284,-22.8031376287844,341.999951242942));
#895=CARTESIAN_POINT('Ctrl Pts',(-83.2731503390192,-22.2870752812673,341.999951488804));
#896=CARTESIAN_POINT('Ctrl Pts',(-83.360944303614,-21.9845953307056,341.999951645409));
#897=CARTESIAN_POINT('Ctrl Pts',(-83.4743018894157,-21.3679595426327,341.999951991697));
#898=CARTESIAN_POINT('Ctrl Pts',(-83.5000007599592,-21.0538285759874,341.999952181309));
#899=CARTESIAN_POINT('Ctrl Pts',(-83.5000007599592,-20.7665848897098,341.999952364373));
#900=CARTESIAN_POINT('',(-68.5000007599592,-25.2041856493245,341.999955716017));
#901=CARTESIAN_POINT('',(-254.100003755108,15.0000002234943,341.999903947943));
#902=CARTESIAN_POINT('Origin',(-252.000003755108,15.0000002234943,341.999905739302));
#903=CARTESIAN_POINT('Origin',(-260.500004008412,-25.0999999993295,366.999893295722));
#904=CARTESIAN_POINT('',(-258.000004008412,-25.0999999993295,366.999893295722));
#905=CARTESIAN_POINT('',(-263.000004008412,-25.0999999993295,366.999032063955));
#906=CARTESIAN_POINT('Origin',(-258.000004008412,6.70477007247428E-10,366.999893295722));
#907=CARTESIAN_POINT('',(-258.000004008412,25.1000000006705,366.999893295722));
#908=CARTESIAN_POINT('Origin',(-260.500004008412,25.1000000006705,366.999893295722));
#909=CARTESIAN_POINT('',(-263.000004008412,25.1000000006705,366.999032063955));
#910=CARTESIAN_POINT('Origin',(-263.000004008412,1.59328081927868E-5,366.998170832188));
#911=CARTESIAN_POINT('Origin',(70.0000010356156,-1.00000000747371,367.));
#912=CARTESIAN_POINT('',(73.0000010356156,-1.00000000747371,342.));
#913=CARTESIAN_POINT('',(70.0000010356156,-1.00000000747371,342.));
#914=CARTESIAN_POINT('',(73.0000010356156,-1.00000000747371,392.));
#915=CARTESIAN_POINT('',(73.0000010356156,-1.00000000747371,367.));
#916=CARTESIAN_POINT('',(69.9928567783053,-1.00000000747371,392.));
#917=CARTESIAN_POINT('',(70.0000010356156,-1.00000000747371,392.));
#918=CARTESIAN_POINT('',(69.992866850307,-1.00000000747371,367.000000615035));
#919=CARTESIAN_POINT('Origin',(70.0000010356156,-7.47370929032876E-9,342.));
#920=CARTESIAN_POINT('',(73.0000010356156,0.999999992526291,342.));
#921=CARTESIAN_POINT('',(70.0000010356156,0.999999992526291,342.));
#922=CARTESIAN_POINT('',(73.0000010356156,-7.47370929032876E-9,342.));
#923=CARTESIAN_POINT('Origin',(73.0000010356156,-7.47370929032876E-9,367.));
#924=CARTESIAN_POINT('',(73.0000010356156,0.999999992526291,392.));
#925=CARTESIAN_POINT('',(73.0000010356156,0.999999992526291,367.));
#926=CARTESIAN_POINT('',(73.0000010356156,-7.47370929032876E-9,392.));
#927=CARTESIAN_POINT('Origin',(70.0000010356156,-7.47370929032876E-9,392.));
#928=CARTESIAN_POINT('',(69.992856778519,0.999999992526291,392.));
#929=CARTESIAN_POINT('Origin',(6.89693634388349E-12,-1.48578985480733E-11,
392.));
#930=CARTESIAN_POINT('',(70.0000010356156,0.999999992526291,392.));
#931=CARTESIAN_POINT('Origin',(70.0000010356156,0.999999992526291,367.));
#932=CARTESIAN_POINT('',(69.9928673057906,0.999999992526291,367.000000615036));
#933=CARTESIAN_POINT('Origin',(6.89693634388349E-12,-1.48578985480733E-11,
392.));
#934=CARTESIAN_POINT('Origin',(-263.000004008412,1.59328081927868E-5,366.998170832188));
#935=CARTESIAN_POINT('Origin',(-184.000002741829,-2.31286781990098E-11,
384.5));
#936=CARTESIAN_POINT('',(-184.000002741829,-3.40000000002313,377.));
#937=CARTESIAN_POINT('',(-184.000002741829,-3.40000000002313,384.5));
#938=CARTESIAN_POINT('Origin',(-184.000002741829,-2.31286781990098E-11,
377.));
#939=CARTESIAN_POINT('Origin',(-184.000002741829,-2.31286781990098E-11,
377.));
#940=CARTESIAN_POINT('Origin',(-204.000003039852,-2.31286781990098E-11,
384.5));
#941=CARTESIAN_POINT('',(-204.000003039852,-3.40000000002313,377.));
#942=CARTESIAN_POINT('',(-204.000003039852,-3.40000000002313,384.5));
#943=CARTESIAN_POINT('Origin',(-204.000003039852,-2.31286781990098E-11,
377.));
#944=CARTESIAN_POINT('Origin',(-204.000003039852,-2.31286781990098E-11,
377.));
#945=CARTESIAN_POINT('Origin',(-224.000003337875,-2.31286781990098E-11,
384.5));
#946=CARTESIAN_POINT('',(-224.000003337875,-3.40000000002313,377.));
#947=CARTESIAN_POINT('',(-224.000003337875,-3.40000000002313,384.5));
#948=CARTESIAN_POINT('Origin',(-224.000003337875,-2.31286781990098E-11,
377.));
#949=CARTESIAN_POINT('Origin',(-224.000003337875,-2.31286781990098E-11,
377.));
#950=CARTESIAN_POINT('Origin',(-252.000003755108,-15.0000002235405,361.999999999986));
#951=CARTESIAN_POINT('',(-254.100003755108,-15.0000002235405,361.999999999986));
#952=CARTESIAN_POINT('Origin',(-252.000003755108,-15.0000002235405,361.999999999986));
#953=CARTESIAN_POINT('Origin',(-252.000003755108,-15.0000002235405,351.999999999986));
#954=CARTESIAN_POINT('',(-254.100003755108,-15.0000002235405,351.999999999986));
#955=CARTESIAN_POINT('Origin',(-252.000003755108,15.0000002234943,361.999999999986));
#956=CARTESIAN_POINT('',(-254.100003755108,15.0000002234943,361.999999999986));
#957=CARTESIAN_POINT('Origin',(-252.000003755108,15.0000002234943,361.999999999986));
#958=CARTESIAN_POINT('Origin',(-252.000003755108,15.0000002234943,351.999999999986));
#959=CARTESIAN_POINT('',(-254.100003755108,15.0000002234943,351.999999999986));
#960=CARTESIAN_POINT('Origin',(-252.500003762558,-2.31286781990098E-11,
382.));
#961=CARTESIAN_POINT('',(-252.500003762558,-2.10000000002313,372.));
#962=CARTESIAN_POINT('',(-252.500003762558,-2.10000000002313,382.));
#963=CARTESIAN_POINT('Origin',(-252.500003762558,-2.31286781990098E-11,
372.));
#964=CARTESIAN_POINT('Origin',(-252.500003762558,-2.31286781990098E-11,
372.));
#965=CARTESIAN_POINT('Origin',(-83.5000007599592,0.,331.));
#966=CARTESIAN_POINT('Origin',(-83.5000007599592,0.,331.));
#967=CARTESIAN_POINT('Origin',(-79.5000007599592,0.,331.));
#968=CARTESIAN_POINT('Origin',(-79.5000007599592,0.,331.));
#969=CARTESIAN_POINT('Origin',(-68.5000007599592,0.,331.));
#970=CARTESIAN_POINT('',(-63.050000000021,-1.62441219744417E-11,358.5));
#971=CARTESIAN_POINT('Ctrl Pts',(-63.050000000021,8.60422844084496E-15,
358.5));
#972=CARTESIAN_POINT('Ctrl Pts',(-63.050000000021,1.75111792184597,358.5));
#973=CARTESIAN_POINT('Ctrl Pts',(-62.9752435963453,3.55476988076336,358.330036222943));
#974=CARTESIAN_POINT('Ctrl Pts',(-62.6714313298238,7.12807056580218,357.622506997866));
#975=CARTESIAN_POINT('Ctrl Pts',(-62.4425629158507,8.89777928185534,357.085164063425));
#976=CARTESIAN_POINT('Ctrl Pts',(-61.8664923115159,12.2793023982821,355.674378995125));
#977=CARTESIAN_POINT('Ctrl Pts',(-61.5192099034223,13.8942179560918,354.799814106643));
#978=CARTESIAN_POINT('Ctrl Pts',(-60.7695425639468,16.8738014793672,352.788879448001));
#979=CARTESIAN_POINT('Ctrl Pts',(-60.3677783149332,18.2385198858064,351.652353079454));
#980=CARTESIAN_POINT('Ctrl Pts',(-59.5845919495735,20.6541384375106,349.236734527749));
#981=CARTESIAN_POINT('Ctrl Pts',(-59.1744982418831,21.7909015034479,347.871149556439));
#982=CARTESIAN_POINT('Ctrl Pts',(-58.4267012423646,23.7192685850568,345.013244855119));
#983=CARTESIAN_POINT('Ctrl Pts',(-58.0863743543684,24.5318881530288,343.540384090775));
#984=CARTESIAN_POINT('Ctrl Pts',(-57.793185840254,25.2041697033379,341.999992252968));
#985=CARTESIAN_POINT('Ctrl Pts',(-57.7931797256502,-25.2041837241907,341.999960127075));
#986=CARTESIAN_POINT('Ctrl Pts',(-58.086369629511,-24.5318994323046,343.540363602346));
#987=CARTESIAN_POINT('Ctrl Pts',(-58.4266987533853,-23.7192750035321,345.013235342723));
#988=CARTESIAN_POINT('Ctrl Pts',(-59.174498241907,-21.7909015034481,347.871149556439));
#989=CARTESIAN_POINT('Ctrl Pts',(-59.584591949596,-20.6541384375107,349.236734527749));
#990=CARTESIAN_POINT('Ctrl Pts',(-60.3677783149528,-18.2385198858064,351.652353079454));
#991=CARTESIAN_POINT('Ctrl Pts',(-60.7695425639649,-16.8738014793671,352.788879448001));
#992=CARTESIAN_POINT('Ctrl Pts',(-61.5192099034371,-13.8942179560915,354.799814106643));
#993=CARTESIAN_POINT('Ctrl Pts',(-61.8664923115289,-12.2793023982816,355.674378995125));
#994=CARTESIAN_POINT('Ctrl Pts',(-62.44256291586,-8.89777928185485,357.085164063425));
#995=CARTESIAN_POINT('Ctrl Pts',(-62.6714313298312,-7.12807056580169,357.622506997866));
#996=CARTESIAN_POINT('Ctrl Pts',(-62.9752435963489,-3.55476988076301,358.330036222943));
#997=CARTESIAN_POINT('Ctrl Pts',(-63.050000000021,-1.75111792184573,358.5));
#998=CARTESIAN_POINT('Ctrl Pts',(-63.050000000021,5.82867087928207E-15,
358.5));
#999=CARTESIAN_POINT('Origin',(-2.0996537841711E-11,-3.24891267792555E-11,
367.));
#1000=CARTESIAN_POINT('',(-63.050000000021,-3.24968481773242E-11,367.));
#1001=UNCERTAINTY_MEASURE_WITH_UNIT(LENGTH_MEASURE(0.01),#1005,
'DISTANCE_ACCURACY_VALUE',
'Maximum model space distance between geometric entities at asserted c
onnectivities');
#1002=UNCERTAINTY_MEASURE_WITH_UNIT(LENGTH_MEASURE(0.01),#1005,
'DISTANCE_ACCURACY_VALUE',
'Maximum model space distance between geometric entities at asserted c
onnectivities');
#1003=(
GEOMETRIC_REPRESENTATION_CONTEXT(3)
GLOBAL_UNCERTAINTY_ASSIGNED_CONTEXT((#1001))
GLOBAL_UNIT_ASSIGNED_CONTEXT((#1005,#1006,#1007))
REPRESENTATION_CONTEXT('','3D')
);
#1004=(
GEOMETRIC_REPRESENTATION_CONTEXT(3)
GLOBAL_UNCERTAINTY_ASSIGNED_CONTEXT((#1002))
GLOBAL_UNIT_ASSIGNED_CONTEXT((#1005,#1006,#1007))
REPRESENTATION_CONTEXT('','3D')
);
#1005=(
LENGTH_UNIT()
NAMED_UNIT(*)
SI_UNIT(.MILLI.,.METRE.)
);
#1006=(
NAMED_UNIT(*)
PLANE_ANGLE_UNIT()
SI_UNIT($,.RADIAN.)
);
#1007=(
NAMED_UNIT(*)
SI_UNIT($,.STERADIAN.)
SOLID_ANGLE_UNIT()
);
#1008=SHAPE_DEFINITION_REPRESENTATION(#1009,#1010);
#1009=PRODUCT_DEFINITION_SHAPE('',$,#1012);
#1010=SHAPE_REPRESENTATION('',(#561),#1003);
#1011=PRODUCT_DEFINITION_CONTEXT('part definition',#1016,'design');
#1012=PRODUCT_DEFINITION('HTD3M-270t-20t-1068mm-Chassis-V3',
'HTD3M-270t-20t-1068mm-Chassis-V3 v62',#1013,#1011);
#1013=PRODUCT_DEFINITION_FORMATION('',$,#1018);
#1014=PRODUCT_RELATED_PRODUCT_CATEGORY(
'HTD3M-270t-20t-1068mm-Chassis-V3 v62',
'HTD3M-270t-20t-1068mm-Chassis-V3 v62',(#1018));
#1015=APPLICATION_PROTOCOL_DEFINITION('international standard',
'automotive_design',2009,#1016);
#1016=APPLICATION_CONTEXT(
'Core Data for Automotive Mechanical Design Process');
#1017=PRODUCT_CONTEXT('part definition',#1016,'mechanical');
#1018=PRODUCT('HTD3M-270t-20t-1068mm-Chassis-V3',
'HTD3M-270t-20t-1068mm-Chassis-V3 v62',$,(#1017));
#1019=PRESENTATION_STYLE_ASSIGNMENT((#1027));
#1020=PRESENTATION_STYLE_ASSIGNMENT((#1028));
#1021=PRESENTATION_STYLE_ASSIGNMENT((#1029));
#1022=PRESENTATION_STYLE_ASSIGNMENT((#1030));
#1023=PRESENTATION_STYLE_ASSIGNMENT((#1031));
#1024=PRESENTATION_STYLE_ASSIGNMENT((#1032));
#1025=PRESENTATION_STYLE_ASSIGNMENT((#1033));
#1026=PRESENTATION_STYLE_ASSIGNMENT((#1034));
#1027=SURFACE_STYLE_USAGE(.BOTH.,#1035);
#1028=SURFACE_STYLE_USAGE(.BOTH.,#1036);
#1029=SURFACE_STYLE_USAGE(.BOTH.,#1037);
#1030=SURFACE_STYLE_USAGE(.BOTH.,#1038);
#1031=SURFACE_STYLE_USAGE(.BOTH.,#1039);
#1032=SURFACE_STYLE_USAGE(.BOTH.,#1040);
#1033=SURFACE_STYLE_USAGE(.BOTH.,#1041);
#1034=SURFACE_STYLE_USAGE(.BOTH.,#1042);
#1035=SURFACE_SIDE_STYLE('',(#1043));
#1036=SURFACE_SIDE_STYLE('',(#1044));
#1037=SURFACE_SIDE_STYLE('',(#1045));
#1038=SURFACE_SIDE_STYLE('',(#1046));
#1039=SURFACE_SIDE_STYLE('',(#1047));
#1040=SURFACE_SIDE_STYLE('',(#1048));
#1041=SURFACE_SIDE_STYLE('',(#1049));
#1042=SURFACE_SIDE_STYLE('',(#1050));
#1043=SURFACE_STYLE_FILL_AREA(#1051);
#1044=SURFACE_STYLE_FILL_AREA(#1052);
#1045=SURFACE_STYLE_FILL_AREA(#1053);
#1046=SURFACE_STYLE_FILL_AREA(#1054);
#1047=SURFACE_STYLE_FILL_AREA(#1055);
#1048=SURFACE_STYLE_FILL_AREA(#1056);
#1049=SURFACE_STYLE_FILL_AREA(#1057);
#1050=SURFACE_STYLE_FILL_AREA(#1058);
#1051=FILL_AREA_STYLE('Opaque(175,143,175)',(#1059));
#1052=FILL_AREA_STYLE('Opaque(159,175,143)',(#1060));
#1053=FILL_AREA_STYLE('Opaque(143,143,175)',(#1061));
#1054=FILL_AREA_STYLE('Opaque(175,159,143)',(#1062));
#1055=FILL_AREA_STYLE('Opaque(143,175,175)',(#1063));
#1056=FILL_AREA_STYLE('Steel - Satin',(#1064));
#1057=FILL_AREA_STYLE('Plastic - Translucent Matte (Red)',(#1065));
#1058=FILL_AREA_STYLE('Steel - Satin',(#1066));
#1059=FILL_AREA_STYLE_COLOUR('Opaque(175,143,175)',#1067);
#1060=FILL_AREA_STYLE_COLOUR('Opaque(159,175,143)',#1068);
#1061=FILL_AREA_STYLE_COLOUR('Opaque(143,143,175)',#1069);
#1062=FILL_AREA_STYLE_COLOUR('Opaque(175,159,143)',#1070);
#1063=FILL_AREA_STYLE_COLOUR('Opaque(143,175,175)',#1071);
#1064=FILL_AREA_STYLE_COLOUR('Steel - Satin',#1072);
#1065=FILL_AREA_STYLE_COLOUR('Plastic - Translucent Matte (Red)',#1073);
#1066=FILL_AREA_STYLE_COLOUR('Steel - Satin',#1074);
#1067=COLOUR_RGB('Opaque(175,143,175)',0.686274509803922,0.56078431372549,
0.686274509803922);
#1068=COLOUR_RGB('Opaque(159,175,143)',0.623529411764706,0.686274509803922,
0.56078431372549);
#1069=COLOUR_RGB('Opaque(143,143,175)',0.56078431372549,0.56078431372549,
0.686274509803922);
#1070=COLOUR_RGB('Opaque(175,159,143)',0.686274509803922,0.623529411764706,
0.56078431372549);
#1071=COLOUR_RGB('Opaque(143,175,175)',0.56078431372549,0.686274509803922,
0.686274509803922);
#1072=COLOUR_RGB('Steel - Satin',0.627450980392157,0.627450980392157,0.627450980392157);
#1073=COLOUR_RGB('Plastic - Translucent Matte (Red)',0.768627450980392,
0.207843137254902,0.152941176470588);
#1074=COLOUR_RGB('Steel - Satin',0.552941176470588,0.227450980392157,0.227450980392157);
ENDSEC;
END-ISO-10303-21;
