ISO-10303-21;
HEADER;
/* Generated by software containing ST-Developer
 * from STEP Tools, Inc. (www.steptools.com) 
 */

FILE_DESCRIPTION(
/* description */ (''),
/* implementation_level */ '2;1');

FILE_NAME(
/* name */ 'Mswitch-Bracket.step',
/* time_stamp */ '2026-04-07T14:04:54+02:00',
/* author */ (''),
/* organization */ (''),
/* preprocessor_version */ 'ST-DEVELOPER v20.1',
/* originating_system */ 'Autodesk Translation Framework v14.24.0.0',
/* authorisation */ '');

FILE_SCHEMA (('AUTOMOTIVE_DESIGN { 1 0 10303 214 3 1 1 }'));
ENDSEC;

DATA;
#10=MECHANICAL_DESIGN_GEOMETRIC_PRESENTATION_REPRESENTATION('',(#13),#861);
#11=SHAPE_REPRESENTATION_RELATIONSHIP('SRR','None',#867,#12);
#12=ADVANCED_BREP_SHAPE_REPRESENTATION('',(#14),#860);
#13=STYLED_ITEM('',(#882),#14);
#14=MANIFOLD_SOLID_BREP('Mswitch-bracket',#521);
#15=FACE_BOUND('',#66,.T.);
#16=FACE_BOUND('',#72,.T.);
#17=FACE_BOUND('',#73,.T.);
#18=FACE_BOUND('',#75,.T.);
#19=FACE_BOUND('',#79,.T.);
#20=FACE_BOUND('',#80,.T.);
#21=FACE_BOUND('',#81,.T.);
#22=FACE_BOUND('',#82,.T.);
#23=FACE_BOUND('',#87,.T.);
#24=PLANE('',#526);
#25=PLANE('',#529);
#26=PLANE('',#532);
#27=PLANE('',#536);
#28=PLANE('',#541);
#29=PLANE('',#542);
#30=PLANE('',#546);
#31=PLANE('',#555);
#32=PLANE('',#556);
#33=PLANE('',#562);
#34=PLANE('',#563);
#35=PLANE('',#564);
#36=PLANE('',#565);
#37=PLANE('',#566);
#38=PLANE('',#567);
#39=FACE_OUTER_BOUND('',#64,.T.);
#40=FACE_OUTER_BOUND('',#65,.T.);
#41=FACE_OUTER_BOUND('',#67,.T.);
#42=FACE_OUTER_BOUND('',#68,.T.);
#43=FACE_OUTER_BOUND('',#69,.T.);
#44=FACE_OUTER_BOUND('',#70,.T.);
#45=FACE_OUTER_BOUND('',#71,.T.);
#46=FACE_OUTER_BOUND('',#74,.T.);
#47=FACE_OUTER_BOUND('',#76,.T.);
#48=FACE_OUTER_BOUND('',#77,.T.);
#49=FACE_OUTER_BOUND('',#78,.T.);
#50=FACE_OUTER_BOUND('',#83,.T.);
#51=FACE_OUTER_BOUND('',#84,.T.);
#52=FACE_OUTER_BOUND('',#85,.T.);
#53=FACE_OUTER_BOUND('',#86,.T.);
#54=FACE_OUTER_BOUND('',#88,.T.);
#55=FACE_OUTER_BOUND('',#89,.T.);
#56=FACE_OUTER_BOUND('',#90,.T.);
#57=FACE_OUTER_BOUND('',#91,.T.);
#58=FACE_OUTER_BOUND('',#92,.T.);
#59=FACE_OUTER_BOUND('',#93,.T.);
#60=FACE_OUTER_BOUND('',#94,.T.);
#61=FACE_OUTER_BOUND('',#95,.T.);
#62=FACE_OUTER_BOUND('',#96,.T.);
#63=FACE_OUTER_BOUND('',#97,.T.);
#64=EDGE_LOOP('',(#342,#343,#344,#345));
#65=EDGE_LOOP('',(#346,#347,#348,#349,#350,#351));
#66=EDGE_LOOP('',(#352));
#67=EDGE_LOOP('',(#353,#354,#355,#356,#357,#358));
#68=EDGE_LOOP('',(#359,#360,#361,#362));
#69=EDGE_LOOP('',(#363,#364,#365,#366,#367,#368,#369,#370,#371,#372,#373,
#374));
#70=EDGE_LOOP('',(#375,#376,#377,#378));
#71=EDGE_LOOP('',(#379,#380,#381,#382,#383,#384,#385,#386,#387,#388,#389,
#390));
#72=EDGE_LOOP('',(#391));
#73=EDGE_LOOP('',(#392));
#74=EDGE_LOOP('',(#393,#394,#395,#396,#397,#398,#399,#400));
#75=EDGE_LOOP('',(#401,#402,#403,#404));
#76=EDGE_LOOP('',(#405,#406,#407,#408));
#77=EDGE_LOOP('',(#409,#410,#411,#412));
#78=EDGE_LOOP('',(#413,#414,#415,#416,#417,#418,#419,#420));
#79=EDGE_LOOP('',(#421));
#80=EDGE_LOOP('',(#422));
#81=EDGE_LOOP('',(#423));
#82=EDGE_LOOP('',(#424));
#83=EDGE_LOOP('',(#425,#426,#427,#428));
#84=EDGE_LOOP('',(#429,#430,#431,#432));
#85=EDGE_LOOP('',(#433,#434,#435,#436,#437,#438));
#86=EDGE_LOOP('',(#439,#440,#441,#442,#443,#444));
#87=EDGE_LOOP('',(#445));
#88=EDGE_LOOP('',(#446,#447,#448,#449));
#89=EDGE_LOOP('',(#450,#451,#452,#453));
#90=EDGE_LOOP('',(#454,#455,#456,#457));
#91=EDGE_LOOP('',(#458,#459,#460,#461));
#92=EDGE_LOOP('',(#462,#463,#464,#465));
#93=EDGE_LOOP('',(#466,#467,#468,#469));
#94=EDGE_LOOP('',(#470,#471,#472,#473));
#95=EDGE_LOOP('',(#474,#475,#476,#477));
#96=EDGE_LOOP('',(#478,#479,#480,#481));
#97=EDGE_LOOP('',(#482,#483,#484,#485));
#98=LINE('',#718,#150);
#99=LINE('',#721,#151);
#100=LINE('',#724,#152);
#101=LINE('',#728,#153);
#102=LINE('',#730,#154);
#103=LINE('',#731,#155);
#104=LINE('',#736,#156);
#105=LINE('',#738,#157);
#106=LINE('',#740,#158);
#107=LINE('',#741,#159);
#108=LINE('',#745,#160);
#109=LINE('',#748,#161);
#110=LINE('',#750,#162);
#111=LINE('',#752,#163);
#112=LINE('',#754,#164);
#113=LINE('',#756,#165);
#114=LINE('',#758,#166);
#115=LINE('',#760,#167);
#116=LINE('',#762,#168);
#117=LINE('',#764,#169);
#118=LINE('',#765,#170);
#119=LINE('',#770,#171);
#120=LINE('',#774,#172);
#121=LINE('',#778,#173);
#122=LINE('',#781,#174);
#123=LINE('',#783,#175);
#124=LINE('',#784,#176);
#125=LINE('',#791,#177);
#126=LINE('',#793,#178);
#127=LINE('',#795,#179);
#128=LINE('',#797,#180);
#129=LINE('',#799,#181);
#130=LINE('',#800,#182);
#131=LINE('',#802,#183);
#132=LINE('',#804,#184);
#133=LINE('',#805,#185);
#134=LINE('',#808,#186);
#135=LINE('',#809,#187);
#136=LINE('',#814,#188);
#137=LINE('',#818,#189);
#138=LINE('',#829,#190);
#139=LINE('',#833,#191);
#140=LINE('',#835,#192);
#141=LINE('',#837,#193);
#142=LINE('',#841,#194);
#143=LINE('',#843,#195);
#144=LINE('',#845,#196);
#145=LINE('',#847,#197);
#146=LINE('',#849,#198);
#147=LINE('',#851,#199);
#148=LINE('',#854,#200);
#149=LINE('',#856,#201);
#150=VECTOR('',#574,10.);
#151=VECTOR('',#577,10.);
#152=VECTOR('',#580,10.);
#153=VECTOR('',#583,10.);
#154=VECTOR('',#584,10.);
#155=VECTOR('',#585,10.);
#156=VECTOR('',#590,10.);
#157=VECTOR('',#591,10.);
#158=VECTOR('',#592,10.);
#159=VECTOR('',#593,10.);
#160=VECTOR('',#598,10.);
#161=VECTOR('',#601,10.);
#162=VECTOR('',#602,10.);
#163=VECTOR('',#603,10.);
#164=VECTOR('',#604,10.);
#165=VECTOR('',#605,10.);
#166=VECTOR('',#606,10.);
#167=VECTOR('',#607,10.);
#168=VECTOR('',#608,10.);
#169=VECTOR('',#609,10.);
#170=VECTOR('',#610,10.);
#171=VECTOR('',#615,10.);
#172=VECTOR('',#620,10.);
#173=VECTOR('',#623,10.);
#174=VECTOR('',#626,10.);
#175=VECTOR('',#627,10.);
#176=VECTOR('',#628,10.);
#177=VECTOR('',#635,10.);
#178=VECTOR('',#636,10.);
#179=VECTOR('',#637,10.);
#180=VECTOR('',#638,10.);
#181=VECTOR('',#639,10.);
#182=VECTOR('',#640,10.);
#183=VECTOR('',#641,10.);
#184=VECTOR('',#642,10.);
#185=VECTOR('',#643,10.);
#186=VECTOR('',#646,10.);
#187=VECTOR('',#647,10.);
#188=VECTOR('',#652,10.);
#189=VECTOR('',#657,10.);
#190=VECTOR('',#670,10.);
#191=VECTOR('',#675,10.);
#192=VECTOR('',#678,10.);
#193=VECTOR('',#681,10.);
#194=VECTOR('',#686,2.);
#195=VECTOR('',#689,2.);
#196=VECTOR('',#692,1.5);
#197=VECTOR('',#695,1.5);
#198=VECTOR('',#698,10.);
#199=VECTOR('',#701,10.);
#200=VECTOR('',#706,10.);
#201=VECTOR('',#709,10.);
#202=CIRCLE('',#524,4.);
#203=CIRCLE('',#525,4.);
#204=CIRCLE('',#527,4.);
#205=CIRCLE('',#528,1.5);
#206=CIRCLE('',#531,4.);
#207=CIRCLE('',#534,5.);
#208=CIRCLE('',#535,5.);
#209=CIRCLE('',#537,5.);
#210=CIRCLE('',#538,4.);
#211=CIRCLE('',#539,2.);
#212=CIRCLE('',#540,2.);
#213=CIRCLE('',#544,4.);
#214=CIRCLE('',#545,4.);
#215=CIRCLE('',#547,5.);
#216=CIRCLE('',#548,2.);
#217=CIRCLE('',#549,2.);
#218=CIRCLE('',#550,1.5);
#219=CIRCLE('',#551,1.5);
#220=CIRCLE('',#554,4.);
#221=CIRCLE('',#557,1.5);
#222=VERTEX_POINT('',#714);
#223=VERTEX_POINT('',#715);
#224=VERTEX_POINT('',#717);
#225=VERTEX_POINT('',#719);
#226=VERTEX_POINT('',#723);
#227=VERTEX_POINT('',#725);
#228=VERTEX_POINT('',#727);
#229=VERTEX_POINT('',#729);
#230=VERTEX_POINT('',#732);
#231=VERTEX_POINT('',#735);
#232=VERTEX_POINT('',#737);
#233=VERTEX_POINT('',#739);
#234=VERTEX_POINT('',#743);
#235=VERTEX_POINT('',#747);
#236=VERTEX_POINT('',#749);
#237=VERTEX_POINT('',#751);
#238=VERTEX_POINT('',#753);
#239=VERTEX_POINT('',#755);
#240=VERTEX_POINT('',#757);
#241=VERTEX_POINT('',#759);
#242=VERTEX_POINT('',#761);
#243=VERTEX_POINT('',#763);
#244=VERTEX_POINT('',#767);
#245=VERTEX_POINT('',#769);
#246=VERTEX_POINT('',#773);
#247=VERTEX_POINT('',#775);
#248=VERTEX_POINT('',#777);
#249=VERTEX_POINT('',#780);
#250=VERTEX_POINT('',#782);
#251=VERTEX_POINT('',#785);
#252=VERTEX_POINT('',#787);
#253=VERTEX_POINT('',#790);
#254=VERTEX_POINT('',#792);
#255=VERTEX_POINT('',#794);
#256=VERTEX_POINT('',#796);
#257=VERTEX_POINT('',#798);
#258=VERTEX_POINT('',#801);
#259=VERTEX_POINT('',#803);
#260=VERTEX_POINT('',#807);
#261=VERTEX_POINT('',#811);
#262=VERTEX_POINT('',#813);
#263=VERTEX_POINT('',#817);
#264=VERTEX_POINT('',#820);
#265=VERTEX_POINT('',#822);
#266=VERTEX_POINT('',#824);
#267=VERTEX_POINT('',#826);
#268=VERTEX_POINT('',#831);
#269=VERTEX_POINT('',#838);
#270=EDGE_CURVE('',#222,#223,#202,.T.);
#271=EDGE_CURVE('',#223,#224,#98,.T.);
#272=EDGE_CURVE('',#224,#225,#203,.T.);
#273=EDGE_CURVE('',#225,#222,#99,.T.);
#274=EDGE_CURVE('',#224,#226,#100,.T.);
#275=EDGE_CURVE('',#227,#226,#204,.T.);
#276=EDGE_CURVE('',#227,#228,#101,.T.);
#277=EDGE_CURVE('',#228,#229,#102,.T.);
#278=EDGE_CURVE('',#229,#225,#103,.T.);
#279=EDGE_CURVE('',#230,#230,#205,.T.);
#280=EDGE_CURVE('',#231,#223,#104,.T.);
#281=EDGE_CURVE('',#232,#231,#105,.T.);
#282=EDGE_CURVE('',#232,#233,#106,.T.);
#283=EDGE_CURVE('',#226,#233,#107,.T.);
#284=EDGE_CURVE('',#233,#234,#206,.F.);
#285=EDGE_CURVE('',#234,#227,#108,.T.);
#286=EDGE_CURVE('',#234,#235,#109,.T.);
#287=EDGE_CURVE('',#235,#236,#110,.T.);
#288=EDGE_CURVE('',#237,#236,#111,.T.);
#289=EDGE_CURVE('',#238,#237,#112,.T.);
#290=EDGE_CURVE('',#238,#239,#113,.T.);
#291=EDGE_CURVE('',#240,#239,#114,.T.);
#292=EDGE_CURVE('',#241,#240,#115,.T.);
#293=EDGE_CURVE('',#241,#242,#116,.F.);
#294=EDGE_CURVE('',#243,#242,#117,.T.);
#295=EDGE_CURVE('',#228,#243,#118,.T.);
#296=EDGE_CURVE('',#231,#244,#207,.T.);
#297=EDGE_CURVE('',#244,#245,#119,.T.);
#298=EDGE_CURVE('',#245,#232,#208,.T.);
#299=EDGE_CURVE('',#246,#245,#120,.T.);
#300=EDGE_CURVE('',#247,#246,#209,.T.);
#301=EDGE_CURVE('',#247,#248,#121,.T.);
#302=EDGE_CURVE('',#239,#248,#210,.F.);
#303=EDGE_CURVE('',#238,#249,#122,.T.);
#304=EDGE_CURVE('',#249,#250,#123,.T.);
#305=EDGE_CURVE('',#250,#235,#124,.T.);
#306=EDGE_CURVE('',#251,#251,#211,.T.);
#307=EDGE_CURVE('',#252,#252,#212,.T.);
#308=EDGE_CURVE('',#229,#253,#125,.F.);
#309=EDGE_CURVE('',#254,#253,#126,.T.);
#310=EDGE_CURVE('',#255,#254,#127,.T.);
#311=EDGE_CURVE('',#256,#255,#128,.T.);
#312=EDGE_CURVE('',#257,#256,#129,.T.);
#313=EDGE_CURVE('',#222,#257,#130,.T.);
#314=EDGE_CURVE('',#249,#258,#131,.T.);
#315=EDGE_CURVE('',#259,#258,#132,.T.);
#316=EDGE_CURVE('',#250,#259,#133,.T.);
#317=EDGE_CURVE('',#244,#260,#134,.T.);
#318=EDGE_CURVE('',#246,#260,#135,.T.);
#319=EDGE_CURVE('',#256,#261,#213,.T.);
#320=EDGE_CURVE('',#261,#262,#136,.T.);
#321=EDGE_CURVE('',#262,#257,#214,.T.);
#322=EDGE_CURVE('',#262,#263,#137,.T.);
#323=EDGE_CURVE('',#260,#263,#215,.T.);
#324=EDGE_CURVE('',#264,#264,#216,.T.);
#325=EDGE_CURVE('',#265,#265,#217,.T.);
#326=EDGE_CURVE('',#266,#266,#218,.T.);
#327=EDGE_CURVE('',#267,#267,#219,.T.);
#328=EDGE_CURVE('',#263,#247,#138,.T.);
#329=EDGE_CURVE('',#268,#240,#220,.T.);
#330=EDGE_CURVE('',#248,#268,#139,.T.);
#331=EDGE_CURVE('',#268,#261,#140,.T.);
#332=EDGE_CURVE('',#255,#241,#141,.T.);
#333=EDGE_CURVE('',#269,#269,#221,.T.);
#334=EDGE_CURVE('',#264,#251,#142,.T.);
#335=EDGE_CURVE('',#265,#252,#143,.T.);
#336=EDGE_CURVE('',#266,#230,#144,.T.);
#337=EDGE_CURVE('',#267,#269,#145,.T.);
#338=EDGE_CURVE('',#236,#259,#146,.T.);
#339=EDGE_CURVE('',#258,#237,#147,.T.);
#340=EDGE_CURVE('',#253,#243,#148,.T.);
#341=EDGE_CURVE('',#242,#254,#149,.T.);
#342=ORIENTED_EDGE('',*,*,#270,.T.);
#343=ORIENTED_EDGE('',*,*,#271,.T.);
#344=ORIENTED_EDGE('',*,*,#272,.T.);
#345=ORIENTED_EDGE('',*,*,#273,.T.);
#346=ORIENTED_EDGE('',*,*,#272,.F.);
#347=ORIENTED_EDGE('',*,*,#274,.T.);
#348=ORIENTED_EDGE('',*,*,#275,.F.);
#349=ORIENTED_EDGE('',*,*,#276,.T.);
#350=ORIENTED_EDGE('',*,*,#277,.T.);
#351=ORIENTED_EDGE('',*,*,#278,.T.);
#352=ORIENTED_EDGE('',*,*,#279,.T.);
#353=ORIENTED_EDGE('',*,*,#271,.F.);
#354=ORIENTED_EDGE('',*,*,#280,.F.);
#355=ORIENTED_EDGE('',*,*,#281,.F.);
#356=ORIENTED_EDGE('',*,*,#282,.T.);
#357=ORIENTED_EDGE('',*,*,#283,.F.);
#358=ORIENTED_EDGE('',*,*,#274,.F.);
#359=ORIENTED_EDGE('',*,*,#275,.T.);
#360=ORIENTED_EDGE('',*,*,#283,.T.);
#361=ORIENTED_EDGE('',*,*,#284,.T.);
#362=ORIENTED_EDGE('',*,*,#285,.T.);
#363=ORIENTED_EDGE('',*,*,#285,.F.);
#364=ORIENTED_EDGE('',*,*,#286,.T.);
#365=ORIENTED_EDGE('',*,*,#287,.T.);
#366=ORIENTED_EDGE('',*,*,#288,.F.);
#367=ORIENTED_EDGE('',*,*,#289,.F.);
#368=ORIENTED_EDGE('',*,*,#290,.T.);
#369=ORIENTED_EDGE('',*,*,#291,.F.);
#370=ORIENTED_EDGE('',*,*,#292,.F.);
#371=ORIENTED_EDGE('',*,*,#293,.T.);
#372=ORIENTED_EDGE('',*,*,#294,.F.);
#373=ORIENTED_EDGE('',*,*,#295,.F.);
#374=ORIENTED_EDGE('',*,*,#276,.F.);
#375=ORIENTED_EDGE('',*,*,#296,.T.);
#376=ORIENTED_EDGE('',*,*,#297,.T.);
#377=ORIENTED_EDGE('',*,*,#298,.T.);
#378=ORIENTED_EDGE('',*,*,#281,.T.);
#379=ORIENTED_EDGE('',*,*,#298,.F.);
#380=ORIENTED_EDGE('',*,*,#299,.F.);
#381=ORIENTED_EDGE('',*,*,#300,.F.);
#382=ORIENTED_EDGE('',*,*,#301,.T.);
#383=ORIENTED_EDGE('',*,*,#302,.F.);
#384=ORIENTED_EDGE('',*,*,#290,.F.);
#385=ORIENTED_EDGE('',*,*,#303,.T.);
#386=ORIENTED_EDGE('',*,*,#304,.T.);
#387=ORIENTED_EDGE('',*,*,#305,.T.);
#388=ORIENTED_EDGE('',*,*,#286,.F.);
#389=ORIENTED_EDGE('',*,*,#284,.F.);
#390=ORIENTED_EDGE('',*,*,#282,.F.);
#391=ORIENTED_EDGE('',*,*,#306,.T.);
#392=ORIENTED_EDGE('',*,*,#307,.T.);
#393=ORIENTED_EDGE('',*,*,#273,.F.);
#394=ORIENTED_EDGE('',*,*,#278,.F.);
#395=ORIENTED_EDGE('',*,*,#308,.T.);
#396=ORIENTED_EDGE('',*,*,#309,.F.);
#397=ORIENTED_EDGE('',*,*,#310,.F.);
#398=ORIENTED_EDGE('',*,*,#311,.F.);
#399=ORIENTED_EDGE('',*,*,#312,.F.);
#400=ORIENTED_EDGE('',*,*,#313,.F.);
#401=ORIENTED_EDGE('',*,*,#304,.F.);
#402=ORIENTED_EDGE('',*,*,#314,.T.);
#403=ORIENTED_EDGE('',*,*,#315,.F.);
#404=ORIENTED_EDGE('',*,*,#316,.F.);
#405=ORIENTED_EDGE('',*,*,#297,.F.);
#406=ORIENTED_EDGE('',*,*,#317,.T.);
#407=ORIENTED_EDGE('',*,*,#318,.F.);
#408=ORIENTED_EDGE('',*,*,#299,.T.);
#409=ORIENTED_EDGE('',*,*,#319,.T.);
#410=ORIENTED_EDGE('',*,*,#320,.T.);
#411=ORIENTED_EDGE('',*,*,#321,.T.);
#412=ORIENTED_EDGE('',*,*,#312,.T.);
#413=ORIENTED_EDGE('',*,*,#270,.F.);
#414=ORIENTED_EDGE('',*,*,#313,.T.);
#415=ORIENTED_EDGE('',*,*,#321,.F.);
#416=ORIENTED_EDGE('',*,*,#322,.T.);
#417=ORIENTED_EDGE('',*,*,#323,.F.);
#418=ORIENTED_EDGE('',*,*,#317,.F.);
#419=ORIENTED_EDGE('',*,*,#296,.F.);
#420=ORIENTED_EDGE('',*,*,#280,.T.);
#421=ORIENTED_EDGE('',*,*,#324,.T.);
#422=ORIENTED_EDGE('',*,*,#325,.T.);
#423=ORIENTED_EDGE('',*,*,#326,.T.);
#424=ORIENTED_EDGE('',*,*,#327,.T.);
#425=ORIENTED_EDGE('',*,*,#300,.T.);
#426=ORIENTED_EDGE('',*,*,#318,.T.);
#427=ORIENTED_EDGE('',*,*,#323,.T.);
#428=ORIENTED_EDGE('',*,*,#328,.T.);
#429=ORIENTED_EDGE('',*,*,#329,.T.);
#430=ORIENTED_EDGE('',*,*,#291,.T.);
#431=ORIENTED_EDGE('',*,*,#302,.T.);
#432=ORIENTED_EDGE('',*,*,#330,.T.);
#433=ORIENTED_EDGE('',*,*,#320,.F.);
#434=ORIENTED_EDGE('',*,*,#331,.F.);
#435=ORIENTED_EDGE('',*,*,#330,.F.);
#436=ORIENTED_EDGE('',*,*,#301,.F.);
#437=ORIENTED_EDGE('',*,*,#328,.F.);
#438=ORIENTED_EDGE('',*,*,#322,.F.);
#439=ORIENTED_EDGE('',*,*,#319,.F.);
#440=ORIENTED_EDGE('',*,*,#311,.T.);
#441=ORIENTED_EDGE('',*,*,#332,.T.);
#442=ORIENTED_EDGE('',*,*,#292,.T.);
#443=ORIENTED_EDGE('',*,*,#329,.F.);
#444=ORIENTED_EDGE('',*,*,#331,.T.);
#445=ORIENTED_EDGE('',*,*,#333,.T.);
#446=ORIENTED_EDGE('',*,*,#324,.F.);
#447=ORIENTED_EDGE('',*,*,#334,.T.);
#448=ORIENTED_EDGE('',*,*,#306,.F.);
#449=ORIENTED_EDGE('',*,*,#334,.F.);
#450=ORIENTED_EDGE('',*,*,#325,.F.);
#451=ORIENTED_EDGE('',*,*,#335,.T.);
#452=ORIENTED_EDGE('',*,*,#307,.F.);
#453=ORIENTED_EDGE('',*,*,#335,.F.);
#454=ORIENTED_EDGE('',*,*,#326,.F.);
#455=ORIENTED_EDGE('',*,*,#336,.T.);
#456=ORIENTED_EDGE('',*,*,#279,.F.);
#457=ORIENTED_EDGE('',*,*,#336,.F.);
#458=ORIENTED_EDGE('',*,*,#327,.F.);
#459=ORIENTED_EDGE('',*,*,#337,.T.);
#460=ORIENTED_EDGE('',*,*,#333,.F.);
#461=ORIENTED_EDGE('',*,*,#337,.F.);
#462=ORIENTED_EDGE('',*,*,#316,.T.);
#463=ORIENTED_EDGE('',*,*,#338,.F.);
#464=ORIENTED_EDGE('',*,*,#287,.F.);
#465=ORIENTED_EDGE('',*,*,#305,.F.);
#466=ORIENTED_EDGE('',*,*,#338,.T.);
#467=ORIENTED_EDGE('',*,*,#315,.T.);
#468=ORIENTED_EDGE('',*,*,#339,.T.);
#469=ORIENTED_EDGE('',*,*,#288,.T.);
#470=ORIENTED_EDGE('',*,*,#289,.T.);
#471=ORIENTED_EDGE('',*,*,#339,.F.);
#472=ORIENTED_EDGE('',*,*,#314,.F.);
#473=ORIENTED_EDGE('',*,*,#303,.F.);
#474=ORIENTED_EDGE('',*,*,#295,.T.);
#475=ORIENTED_EDGE('',*,*,#340,.F.);
#476=ORIENTED_EDGE('',*,*,#308,.F.);
#477=ORIENTED_EDGE('',*,*,#277,.F.);
#478=ORIENTED_EDGE('',*,*,#310,.T.);
#479=ORIENTED_EDGE('',*,*,#341,.F.);
#480=ORIENTED_EDGE('',*,*,#293,.F.);
#481=ORIENTED_EDGE('',*,*,#332,.F.);
#482=ORIENTED_EDGE('',*,*,#340,.T.);
#483=ORIENTED_EDGE('',*,*,#294,.T.);
#484=ORIENTED_EDGE('',*,*,#341,.T.);
#485=ORIENTED_EDGE('',*,*,#309,.T.);
#486=CYLINDRICAL_SURFACE('',#523,4.);
#487=CYLINDRICAL_SURFACE('',#530,4.);
#488=CYLINDRICAL_SURFACE('',#533,5.);
#489=CYLINDRICAL_SURFACE('',#543,4.);
#490=CYLINDRICAL_SURFACE('',#552,5.);
#491=CYLINDRICAL_SURFACE('',#553,4.);
#492=CYLINDRICAL_SURFACE('',#558,2.);
#493=CYLINDRICAL_SURFACE('',#559,2.);
#494=CYLINDRICAL_SURFACE('',#560,1.5);
#495=CYLINDRICAL_SURFACE('',#561,1.5);
#496=ADVANCED_FACE('',(#39),#486,.T.);
#497=ADVANCED_FACE('',(#40,#15),#24,.T.);
#498=ADVANCED_FACE('',(#41),#25,.F.);
#499=ADVANCED_FACE('',(#42),#487,.T.);
#500=ADVANCED_FACE('',(#43),#26,.F.);
#501=ADVANCED_FACE('',(#44),#488,.T.);
#502=ADVANCED_FACE('',(#45,#16,#17),#27,.F.);
#503=ADVANCED_FACE('',(#46,#18),#28,.F.);
#504=ADVANCED_FACE('',(#47),#29,.T.);
#505=ADVANCED_FACE('',(#48),#489,.T.);
#506=ADVANCED_FACE('',(#49,#19,#20,#21,#22),#30,.T.);
#507=ADVANCED_FACE('',(#50),#490,.T.);
#508=ADVANCED_FACE('',(#51),#491,.T.);
#509=ADVANCED_FACE('',(#52),#31,.F.);
#510=ADVANCED_FACE('',(#53,#23),#32,.T.);
#511=ADVANCED_FACE('',(#54),#492,.F.);
#512=ADVANCED_FACE('',(#55),#493,.F.);
#513=ADVANCED_FACE('',(#56),#494,.F.);
#514=ADVANCED_FACE('',(#57),#495,.F.);
#515=ADVANCED_FACE('',(#58),#33,.F.);
#516=ADVANCED_FACE('',(#59),#34,.T.);
#517=ADVANCED_FACE('',(#60),#35,.F.);
#518=ADVANCED_FACE('',(#61),#36,.F.);
#519=ADVANCED_FACE('',(#62),#37,.F.);
#520=ADVANCED_FACE('',(#63),#38,.F.);
#521=CLOSED_SHELL('',(#496,#497,#498,#499,#500,#501,#502,#503,#504,#505,
#506,#507,#508,#509,#510,#511,#512,#513,#514,#515,#516,#517,#518,#519,#520));
#522=AXIS2_PLACEMENT_3D('',#712,#568,#569);
#523=AXIS2_PLACEMENT_3D('',#713,#570,#571);
#524=AXIS2_PLACEMENT_3D('',#716,#572,#573);
#525=AXIS2_PLACEMENT_3D('',#720,#575,#576);
#526=AXIS2_PLACEMENT_3D('',#722,#578,#579);
#527=AXIS2_PLACEMENT_3D('',#726,#581,#582);
#528=AXIS2_PLACEMENT_3D('',#733,#586,#587);
#529=AXIS2_PLACEMENT_3D('',#734,#588,#589);
#530=AXIS2_PLACEMENT_3D('',#742,#594,#595);
#531=AXIS2_PLACEMENT_3D('',#744,#596,#597);
#532=AXIS2_PLACEMENT_3D('',#746,#599,#600);
#533=AXIS2_PLACEMENT_3D('',#766,#611,#612);
#534=AXIS2_PLACEMENT_3D('',#768,#613,#614);
#535=AXIS2_PLACEMENT_3D('',#771,#616,#617);
#536=AXIS2_PLACEMENT_3D('',#772,#618,#619);
#537=AXIS2_PLACEMENT_3D('',#776,#621,#622);
#538=AXIS2_PLACEMENT_3D('',#779,#624,#625);
#539=AXIS2_PLACEMENT_3D('',#786,#629,#630);
#540=AXIS2_PLACEMENT_3D('',#788,#631,#632);
#541=AXIS2_PLACEMENT_3D('',#789,#633,#634);
#542=AXIS2_PLACEMENT_3D('',#806,#644,#645);
#543=AXIS2_PLACEMENT_3D('',#810,#648,#649);
#544=AXIS2_PLACEMENT_3D('',#812,#650,#651);
#545=AXIS2_PLACEMENT_3D('',#815,#653,#654);
#546=AXIS2_PLACEMENT_3D('',#816,#655,#656);
#547=AXIS2_PLACEMENT_3D('',#819,#658,#659);
#548=AXIS2_PLACEMENT_3D('',#821,#660,#661);
#549=AXIS2_PLACEMENT_3D('',#823,#662,#663);
#550=AXIS2_PLACEMENT_3D('',#825,#664,#665);
#551=AXIS2_PLACEMENT_3D('',#827,#666,#667);
#552=AXIS2_PLACEMENT_3D('',#828,#668,#669);
#553=AXIS2_PLACEMENT_3D('',#830,#671,#672);
#554=AXIS2_PLACEMENT_3D('',#832,#673,#674);
#555=AXIS2_PLACEMENT_3D('',#834,#676,#677);
#556=AXIS2_PLACEMENT_3D('',#836,#679,#680);
#557=AXIS2_PLACEMENT_3D('',#839,#682,#683);
#558=AXIS2_PLACEMENT_3D('',#840,#684,#685);
#559=AXIS2_PLACEMENT_3D('',#842,#687,#688);
#560=AXIS2_PLACEMENT_3D('',#844,#690,#691);
#561=AXIS2_PLACEMENT_3D('',#846,#693,#694);
#562=AXIS2_PLACEMENT_3D('',#848,#696,#697);
#563=AXIS2_PLACEMENT_3D('',#850,#699,#700);
#564=AXIS2_PLACEMENT_3D('',#852,#702,#703);
#565=AXIS2_PLACEMENT_3D('',#853,#704,#705);
#566=AXIS2_PLACEMENT_3D('',#855,#707,#708);
#567=AXIS2_PLACEMENT_3D('',#857,#710,#711);
#568=DIRECTION('axis',(0.,0.,1.));
#569=DIRECTION('refdir',(1.,0.,0.));
#570=DIRECTION('center_axis',(-2.84217090068875E-14,0.,1.));
#571=DIRECTION('ref_axis',(-0.70710678118655,0.707106781186546,-2.51214793389403E-14));
#572=DIRECTION('center_axis',(-2.8421709430404E-14,0.,-1.));
#573=DIRECTION('ref_axis',(-0.70710678118655,0.707106781186546,-2.51214793389403E-14));
#574=DIRECTION('',(2.84217090068875E-14,0.,-1.));
#575=DIRECTION('center_axis',(0.,0.,1.));
#576=DIRECTION('ref_axis',(-0.70710678118655,0.707106781186546,-2.51214793389403E-14));
#577=DIRECTION('',(-2.84217090068875E-14,0.,1.));
#578=DIRECTION('center_axis',(0.,0.,-1.));
#579=DIRECTION('ref_axis',(0.,-1.,0.));
#580=DIRECTION('',(1.,0.,0.));
#581=DIRECTION('center_axis',(0.,0.,1.));
#582=DIRECTION('ref_axis',(0.707106781186549,0.707106781186546,2.51214793389403E-14));
#583=DIRECTION('',(0.,-1.,0.));
#584=DIRECTION('',(-1.,0.,0.));
#585=DIRECTION('',(0.,1.,0.));
#586=DIRECTION('center_axis',(0.,0.,1.));
#587=DIRECTION('ref_axis',(0.,1.,0.));
#588=DIRECTION('center_axis',(0.,-1.,0.));
#589=DIRECTION('ref_axis',(-2.84217090068875E-14,0.,1.));
#590=DIRECTION('',(-1.,0.,2.8421709430404E-14));
#591=DIRECTION('',(0.,0.,1.));
#592=DIRECTION('',(-1.,0.,2.8421709430404E-14));
#593=DIRECTION('',(-2.84217090068875E-14,0.,1.));
#594=DIRECTION('center_axis',(2.84217090068875E-14,0.,-1.));
#595=DIRECTION('ref_axis',(0.707106781186549,0.707106781186546,2.51214793389403E-14));
#596=DIRECTION('center_axis',(2.8421709430404E-14,0.,1.));
#597=DIRECTION('ref_axis',(0.707106781186549,0.707106781186546,2.51214793389403E-14));
#598=DIRECTION('',(2.84217090068875E-14,0.,-1.));
#599=DIRECTION('center_axis',(-1.,0.,-2.84217090068875E-14));
#600=DIRECTION('ref_axis',(-2.84217090068875E-14,0.,1.));
#601=DIRECTION('',(0.,-1.,0.));
#602=DIRECTION('',(0.,0.,-1.));
#603=DIRECTION('',(0.,1.,0.));
#604=DIRECTION('',(0.,0.,-1.));
#605=DIRECTION('',(0.,-1.,0.));
#606=DIRECTION('',(-2.84217090068875E-14,0.,1.));
#607=DIRECTION('',(0.,-1.,0.));
#608=DIRECTION('',(2.84217090068875E-14,0.,-1.));
#609=DIRECTION('',(0.,-1.,0.));
#610=DIRECTION('',(-2.84217090068875E-14,0.,1.));
#611=DIRECTION('center_axis',(0.,0.,1.));
#612=DIRECTION('ref_axis',(0.707106781186547,0.707106781186547,0.));
#613=DIRECTION('center_axis',(-2.8421709430404E-14,0.,-1.));
#614=DIRECTION('ref_axis',(0.707106781186547,0.707106781186547,0.));
#615=DIRECTION('',(0.,0.,-1.));
#616=DIRECTION('center_axis',(2.8421709430404E-14,0.,1.));
#617=DIRECTION('ref_axis',(0.707106781186547,0.707106781186547,0.));
#618=DIRECTION('center_axis',(2.8421709430404E-14,0.,1.));
#619=DIRECTION('ref_axis',(0.,1.,0.));
#620=DIRECTION('',(0.,1.,0.));
#621=DIRECTION('center_axis',(2.8421709430404E-14,0.,1.));
#622=DIRECTION('ref_axis',(0.707106781186547,-0.707106781186547,0.));
#623=DIRECTION('',(-1.,0.,2.8421709430404E-14));
#624=DIRECTION('center_axis',(2.8421709430404E-14,0.,1.));
#625=DIRECTION('ref_axis',(0.707106781186549,-0.707106781186546,2.51214793389403E-14));
#626=DIRECTION('',(-1.,0.,0.));
#627=DIRECTION('',(0.,1.,0.));
#628=DIRECTION('',(1.,0.,0.));
#629=DIRECTION('center_axis',(2.8421709430404E-14,0.,1.));
#630=DIRECTION('ref_axis',(0.,1.,0.));
#631=DIRECTION('center_axis',(2.8421709430404E-14,0.,1.));
#632=DIRECTION('ref_axis',(0.,1.,0.));
#633=DIRECTION('center_axis',(1.,0.,2.84217090068875E-14));
#634=DIRECTION('ref_axis',(2.84217090068875E-14,0.,-1.));
#635=DIRECTION('',(2.84217090068875E-14,0.,-1.));
#636=DIRECTION('',(0.,1.,0.));
#637=DIRECTION('',(-2.84217090068875E-14,0.,1.));
#638=DIRECTION('',(0.,1.,0.));
#639=DIRECTION('',(2.84217090068875E-14,0.,-1.));
#640=DIRECTION('',(0.,-1.,0.));
#641=DIRECTION('',(0.,0.,-1.));
#642=DIRECTION('',(0.,-1.,0.));
#643=DIRECTION('',(0.,0.,-1.));
#644=DIRECTION('center_axis',(1.,0.,0.));
#645=DIRECTION('ref_axis',(0.,0.,-1.));
#646=DIRECTION('',(0.,-1.,0.));
#647=DIRECTION('',(0.,0.,1.));
#648=DIRECTION('center_axis',(2.84217090068875E-14,0.,-1.));
#649=DIRECTION('ref_axis',(-0.707106781186549,-0.707106781186546,-2.51214793389403E-14));
#650=DIRECTION('center_axis',(0.,0.,1.));
#651=DIRECTION('ref_axis',(-0.707106781186549,-0.707106781186546,-2.51214793389403E-14));
#652=DIRECTION('',(-2.84217090068875E-14,0.,1.));
#653=DIRECTION('center_axis',(-2.8421709430404E-14,0.,-1.));
#654=DIRECTION('ref_axis',(-0.707106781186549,-0.707106781186546,-2.51214793389403E-14));
#655=DIRECTION('center_axis',(2.8421709430404E-14,0.,1.));
#656=DIRECTION('ref_axis',(0.,1.,0.));
#657=DIRECTION('',(1.,0.,-2.8421709430404E-14));
#658=DIRECTION('center_axis',(-2.8421709430404E-14,0.,-1.));
#659=DIRECTION('ref_axis',(0.707106781186547,-0.707106781186547,0.));
#660=DIRECTION('center_axis',(-2.8421709430404E-14,0.,-1.));
#661=DIRECTION('ref_axis',(0.,1.,0.));
#662=DIRECTION('center_axis',(-2.8421709430404E-14,0.,-1.));
#663=DIRECTION('ref_axis',(0.,1.,0.));
#664=DIRECTION('center_axis',(-2.8421709430404E-14,0.,-1.));
#665=DIRECTION('ref_axis',(0.,1.,0.));
#666=DIRECTION('center_axis',(-2.8421709430404E-14,0.,-1.));
#667=DIRECTION('ref_axis',(0.,1.,0.));
#668=DIRECTION('center_axis',(0.,0.,-1.));
#669=DIRECTION('ref_axis',(0.707106781186547,-0.707106781186547,0.));
#670=DIRECTION('',(0.,0.,-1.));
#671=DIRECTION('center_axis',(-2.84217090068875E-14,0.,1.));
#672=DIRECTION('ref_axis',(0.707106781186549,-0.707106781186546,2.51214793389403E-14));
#673=DIRECTION('center_axis',(0.,0.,1.));
#674=DIRECTION('ref_axis',(0.707106781186549,-0.707106781186546,2.51214793389403E-14));
#675=DIRECTION('',(2.84217090068875E-14,0.,-1.));
#676=DIRECTION('center_axis',(0.,1.,0.));
#677=DIRECTION('ref_axis',(2.84217090068875E-14,0.,-1.));
#678=DIRECTION('',(-1.,0.,0.));
#679=DIRECTION('center_axis',(0.,0.,-1.));
#680=DIRECTION('ref_axis',(0.,1.,0.));
#681=DIRECTION('',(1.,0.,0.));
#682=DIRECTION('center_axis',(0.,0.,1.));
#683=DIRECTION('ref_axis',(0.,1.,0.));
#684=DIRECTION('center_axis',(0.,0.,-1.));
#685=DIRECTION('ref_axis',(0.,1.,0.));
#686=DIRECTION('',(0.,0.,-1.));
#687=DIRECTION('center_axis',(0.,0.,-1.));
#688=DIRECTION('ref_axis',(0.,1.,0.));
#689=DIRECTION('',(0.,0.,-1.));
#690=DIRECTION('center_axis',(0.,0.,-1.));
#691=DIRECTION('ref_axis',(0.,1.,0.));
#692=DIRECTION('',(0.,0.,-1.));
#693=DIRECTION('center_axis',(0.,0.,-1.));
#694=DIRECTION('ref_axis',(0.,1.,0.));
#695=DIRECTION('',(0.,0.,-1.));
#696=DIRECTION('center_axis',(0.,1.,0.));
#697=DIRECTION('ref_axis',(0.,0.,1.));
#698=DIRECTION('',(-1.,0.,-2.84217090068875E-14));
#699=DIRECTION('center_axis',(-2.84217090068875E-14,0.,1.));
#700=DIRECTION('ref_axis',(0.,1.,0.));
#701=DIRECTION('',(1.,0.,2.84217090068875E-14));
#702=DIRECTION('center_axis',(0.,-1.,0.));
#703=DIRECTION('ref_axis',(0.,0.,1.));
#704=DIRECTION('center_axis',(0.,1.,0.));
#705=DIRECTION('ref_axis',(0.,0.,-1.));
#706=DIRECTION('',(1.,0.,2.84217090068875E-14));
#707=DIRECTION('center_axis',(0.,-1.,0.));
#708=DIRECTION('ref_axis',(0.,0.,-1.));
#709=DIRECTION('',(-1.,0.,-2.84217090068875E-14));
#710=DIRECTION('center_axis',(-2.84217090068875E-14,0.,1.));
#711=DIRECTION('ref_axis',(0.,1.,0.));
#712=CARTESIAN_POINT('',(0.,0.,0.));
#713=CARTESIAN_POINT('Origin',(143.000002264977,18.9999997019768,392.5));
#714=CARTESIAN_POINT('',(139.000002220273,18.9999997019768,401.));
#715=CARTESIAN_POINT('',(143.000002264976,22.9999997019768,401.));
#716=CARTESIAN_POINT('Origin',(143.000002264976,18.9999997019768,401.));
#717=CARTESIAN_POINT('',(143.000002264977,22.9999997019768,389.));
#718=CARTESIAN_POINT('',(143.000002264977,22.9999997019768,392.5));
#719=CARTESIAN_POINT('',(139.000002264977,18.9999997019768,389.));
#720=CARTESIAN_POINT('Origin',(143.000002264977,18.9999997019768,389.));
#721=CARTESIAN_POINT('',(139.000002264977,18.9999997019768,392.5));
#722=CARTESIAN_POINT('Origin',(144.000002264977,17.9999997019768,389.));
#723=CARTESIAN_POINT('',(145.000002264977,22.9999997019768,389.));
#724=CARTESIAN_POINT('',(144.000002264977,22.9999997019768,389.));
#725=CARTESIAN_POINT('',(149.000002264977,18.9999997019768,389.));
#726=CARTESIAN_POINT('Origin',(145.000002264977,18.9999997019768,389.));
#727=CARTESIAN_POINT('',(149.000002264977,16.9999997019768,389.));
#728=CARTESIAN_POINT('',(149.000002264977,17.9999997019768,389.));
#729=CARTESIAN_POINT('',(139.000002264977,16.9999997019768,389.));
#730=CARTESIAN_POINT('',(144.000002264977,16.9999997019768,389.));
#731=CARTESIAN_POINT('',(139.000002264977,17.9999997019768,389.));
#732=CARTESIAN_POINT('',(144.000002145767,17.5000002831221,389.));
#733=CARTESIAN_POINT('Origin',(144.000002145767,19.0000002831221,389.));
#734=CARTESIAN_POINT('Origin',(144.000002264977,22.9999997019768,392.5));
#735=CARTESIAN_POINT('',(154.000002264988,22.9999997019768,401.));
#736=CARTESIAN_POINT('',(144.000002242625,22.9999997019768,401.));
#737=CARTESIAN_POINT('',(154.000002264988,22.9999997019768,399.));
#738=CARTESIAN_POINT('',(154.000002264988,22.9999997019768,396.25));
#739=CARTESIAN_POINT('',(145.000002264976,22.9999997019768,399.));
#740=CARTESIAN_POINT('',(144.000002242625,22.9999997019768,399.));
#741=CARTESIAN_POINT('',(145.000002264977,22.9999997019768,392.5));
#742=CARTESIAN_POINT('Origin',(145.000002264977,18.9999997019768,392.5));
#743=CARTESIAN_POINT('',(149.000002264976,18.9999997019768,399.));
#744=CARTESIAN_POINT('Origin',(145.000002264976,18.9999997019768,399.));
#745=CARTESIAN_POINT('',(149.000002264977,18.9999997019768,392.5));
#746=CARTESIAN_POINT('Origin',(149.000002264977,-2.98023206113385E-7,392.5));
#747=CARTESIAN_POINT('',(149.000002264976,0.999999701976795,399.));
#748=CARTESIAN_POINT('',(149.000002264976,-2.98023206113385E-7,399.));
#749=CARTESIAN_POINT('',(149.000002264976,0.999999701976795,393.));
#750=CARTESIAN_POINT('',(149.000002264976,0.999999701976795,396.));
#751=CARTESIAN_POINT('',(149.000002220273,-13.0000002980232,393.));
#752=CARTESIAN_POINT('',(149.000002264976,-2.98023206113385E-7,393.));
#753=CARTESIAN_POINT('',(149.000002220273,-13.0000002980232,399.));
#754=CARTESIAN_POINT('',(149.000002220273,-13.0000002980232,396.));
#755=CARTESIAN_POINT('',(149.000002264976,-19.0000002980232,399.));
#756=CARTESIAN_POINT('',(149.000002264976,-2.98023206113385E-7,399.));
#757=CARTESIAN_POINT('',(149.000002264977,-19.0000002980232,389.));
#758=CARTESIAN_POINT('',(149.000002264977,-19.0000002980232,392.5));
#759=CARTESIAN_POINT('',(149.000002264977,-17.0000002980232,389.));
#760=CARTESIAN_POINT('',(149.000002264977,-18.0000002980232,389.));
#761=CARTESIAN_POINT('',(149.000002264977,-17.0000002980232,392.));
#762=CARTESIAN_POINT('',(149.000002264977,-17.0000002980232,391.5));
#763=CARTESIAN_POINT('',(149.000002264977,16.9999997019768,392.));
#764=CARTESIAN_POINT('',(149.000002264977,-2.98023206113385E-7,392.));
#765=CARTESIAN_POINT('',(149.000002264977,16.9999997019768,391.5));
#766=CARTESIAN_POINT('Origin',(154.000002264988,17.9999997019768,396.25));
#767=CARTESIAN_POINT('',(159.000002264988,17.9999997019768,401.));
#768=CARTESIAN_POINT('Origin',(154.000002264988,17.9999997019768,401.));
#769=CARTESIAN_POINT('',(159.000002264988,17.9999997019768,399.));
#770=CARTESIAN_POINT('',(159.000002264988,17.9999997019768,396.25));
#771=CARTESIAN_POINT('Origin',(154.000002264988,17.9999997019768,399.));
#772=CARTESIAN_POINT('Origin',(144.000002220273,-2.98023206113385E-7,399.));
#773=CARTESIAN_POINT('',(159.000002264988,-18.0000002980232,399.));
#774=CARTESIAN_POINT('',(159.000002264988,-2.98023206113385E-7,399.));
#775=CARTESIAN_POINT('',(154.000002264988,-23.0000002980232,399.));
#776=CARTESIAN_POINT('Origin',(154.000002264988,-18.0000002980232,399.));
#777=CARTESIAN_POINT('',(145.000002264976,-23.0000002980232,399.));
#778=CARTESIAN_POINT('',(144.000002242625,-23.0000002980232,399.));
#779=CARTESIAN_POINT('Origin',(145.000002264976,-19.0000002980232,399.));
#780=CARTESIAN_POINT('',(139.000002220273,-13.0000002980232,399.));
#781=CARTESIAN_POINT('',(144.000002220273,-13.0000002980232,399.));
#782=CARTESIAN_POINT('',(139.000002264976,0.999999701976795,399.));
#783=CARTESIAN_POINT('',(139.000002220273,-2.98023206113385E-7,399.));
#784=CARTESIAN_POINT('',(144.000002264976,0.999999701976795,399.));
#785=CARTESIAN_POINT('',(155.00000230968,3.00000007450581,399.));
#786=CARTESIAN_POINT('Origin',(155.00000230968,5.00000007450581,399.));
#787=CARTESIAN_POINT('',(155.00000230968,13.0000002235174,399.));
#788=CARTESIAN_POINT('Origin',(155.00000230968,15.0000002235174,399.));
#789=CARTESIAN_POINT('Origin',(139.000002264977,-2.98023206113385E-7,392.5));
#790=CARTESIAN_POINT('',(139.000002264977,16.9999997019768,392.));
#791=CARTESIAN_POINT('',(139.000002264977,16.9999997019768,391.5));
#792=CARTESIAN_POINT('',(139.000002264977,-17.0000002980232,392.));
#793=CARTESIAN_POINT('',(139.000002264977,-2.98023206113385E-7,392.));
#794=CARTESIAN_POINT('',(139.000002264977,-17.0000002980232,389.));
#795=CARTESIAN_POINT('',(139.000002264977,-17.0000002980232,391.5));
#796=CARTESIAN_POINT('',(139.000002264977,-19.0000002980232,389.));
#797=CARTESIAN_POINT('',(139.000002264977,-18.0000002980232,389.));
#798=CARTESIAN_POINT('',(139.000002220273,-19.0000002980232,401.));
#799=CARTESIAN_POINT('',(139.000002264977,-19.0000002980232,392.5));
#800=CARTESIAN_POINT('',(139.000002220273,-2.98023206113385E-7,401.));
#801=CARTESIAN_POINT('',(139.000002220273,-13.0000002980232,393.));
#802=CARTESIAN_POINT('',(139.000002220273,-13.0000002980232,396.));
#803=CARTESIAN_POINT('',(139.000002264976,0.999999701976795,393.));
#804=CARTESIAN_POINT('',(139.000002264976,-2.98023206113385E-7,393.));
#805=CARTESIAN_POINT('',(139.000002264976,0.999999701976795,396.));
#806=CARTESIAN_POINT('Origin',(159.000002264988,-2.98023206113385E-7,400.));
#807=CARTESIAN_POINT('',(159.000002264988,-18.0000002980232,401.));
#808=CARTESIAN_POINT('',(159.000002264988,-2.98023206113385E-7,401.));
#809=CARTESIAN_POINT('',(159.000002264988,-18.0000002980232,396.25));
#810=CARTESIAN_POINT('Origin',(143.000002264977,-19.0000002980232,392.5));
#811=CARTESIAN_POINT('',(143.000002264977,-23.0000002980232,389.));
#812=CARTESIAN_POINT('Origin',(143.000002264977,-19.0000002980232,389.));
#813=CARTESIAN_POINT('',(143.000002264976,-23.0000002980232,401.));
#814=CARTESIAN_POINT('',(143.000002264977,-23.0000002980232,392.5));
#815=CARTESIAN_POINT('Origin',(143.000002264976,-19.0000002980232,401.));
#816=CARTESIAN_POINT('Origin',(144.000002220273,-2.98023206113385E-7,401.));
#817=CARTESIAN_POINT('',(154.000002264988,-23.0000002980232,401.));
#818=CARTESIAN_POINT('',(144.000002242625,-23.0000002980232,401.));
#819=CARTESIAN_POINT('Origin',(154.000002264988,-18.0000002980232,401.));
#820=CARTESIAN_POINT('',(155.00000230968,3.00000007450581,401.));
#821=CARTESIAN_POINT('Origin',(155.00000230968,5.00000007450581,401.));
#822=CARTESIAN_POINT('',(155.00000230968,13.0000002235174,401.));
#823=CARTESIAN_POINT('Origin',(155.00000230968,15.0000002235174,401.));
#824=CARTESIAN_POINT('',(144.000002145767,17.5000002831221,401.));
#825=CARTESIAN_POINT('Origin',(144.000002145767,19.0000002831221,401.));
#826=CARTESIAN_POINT('',(144.000002145767,-20.5000002831221,401.));
#827=CARTESIAN_POINT('Origin',(144.000002145767,-19.0000002831221,401.));
#828=CARTESIAN_POINT('Origin',(154.000002264988,-18.0000002980232,396.25));
#829=CARTESIAN_POINT('',(154.000002264988,-23.0000002980232,396.25));
#830=CARTESIAN_POINT('Origin',(145.000002264977,-19.0000002980232,392.5));
#831=CARTESIAN_POINT('',(145.000002264977,-23.0000002980232,389.));
#832=CARTESIAN_POINT('Origin',(145.000002264977,-19.0000002980232,389.));
#833=CARTESIAN_POINT('',(145.000002264977,-23.0000002980232,392.5));
#834=CARTESIAN_POINT('Origin',(144.000002264977,-23.0000002980232,392.5));
#835=CARTESIAN_POINT('',(144.000002264977,-23.0000002980232,389.));
#836=CARTESIAN_POINT('Origin',(144.000002264977,-18.0000002980232,389.));
#837=CARTESIAN_POINT('',(144.000002264977,-17.0000002980232,389.));
#838=CARTESIAN_POINT('',(144.000002145767,-20.5000002831221,389.));
#839=CARTESIAN_POINT('Origin',(144.000002145767,-19.0000002831221,389.));
#840=CARTESIAN_POINT('Origin',(155.00000230968,5.00000007450581,398.5));
#841=CARTESIAN_POINT('',(155.00000230968,3.00000007450581,398.5));
#842=CARTESIAN_POINT('Origin',(155.00000230968,15.0000002235174,398.5));
#843=CARTESIAN_POINT('',(155.00000230968,13.0000002235174,398.5));
#844=CARTESIAN_POINT('Origin',(144.000002145767,19.0000002831221,390.5));
#845=CARTESIAN_POINT('',(144.000002145767,17.5000002831221,390.5));
#846=CARTESIAN_POINT('Origin',(144.000002145767,-19.0000002831221,393.5));
#847=CARTESIAN_POINT('',(144.000002145767,-20.5000002831221,393.5));
#848=CARTESIAN_POINT('Origin',(144.000002264976,0.999999701976795,396.));
#849=CARTESIAN_POINT('',(144.000002264977,0.999999701976795,393.));
#850=CARTESIAN_POINT('Origin',(144.000002264976,-2.98023206113385E-7,393.));
#851=CARTESIAN_POINT('',(144.000002242625,-13.0000002980232,393.));
#852=CARTESIAN_POINT('Origin',(144.000002220273,-13.0000002980232,396.));
#853=CARTESIAN_POINT('Origin',(144.000002264977,16.9999997019768,390.5));
#854=CARTESIAN_POINT('',(144.000002264977,16.9999997019768,392.));
#855=CARTESIAN_POINT('Origin',(144.000002264977,-17.0000002980232,390.5));
#856=CARTESIAN_POINT('',(144.000002264977,-17.0000002980232,392.));
#857=CARTESIAN_POINT('Origin',(144.000002264977,-2.98023206113385E-7,392.));
#858=UNCERTAINTY_MEASURE_WITH_UNIT(LENGTH_MEASURE(0.01),#862,
'DISTANCE_ACCURACY_VALUE',
'Maximum model space distance between geometric entities at asserted c
onnectivities');
#859=UNCERTAINTY_MEASURE_WITH_UNIT(LENGTH_MEASURE(0.01),#862,
'DISTANCE_ACCURACY_VALUE',
'Maximum model space distance between geometric entities at asserted c
onnectivities');
#860=(
GEOMETRIC_REPRESENTATION_CONTEXT(3)
GLOBAL_UNCERTAINTY_ASSIGNED_CONTEXT((#858))
GLOBAL_UNIT_ASSIGNED_CONTEXT((#862,#863,#864))
REPRESENTATION_CONTEXT('','3D')
);
#861=(
GEOMETRIC_REPRESENTATION_CONTEXT(3)
GLOBAL_UNCERTAINTY_ASSIGNED_CONTEXT((#859))
GLOBAL_UNIT_ASSIGNED_CONTEXT((#862,#863,#864))
REPRESENTATION_CONTEXT('','3D')
);
#862=(
LENGTH_UNIT()
NAMED_UNIT(*)
SI_UNIT(.MILLI.,.METRE.)
);
#863=(
NAMED_UNIT(*)
PLANE_ANGLE_UNIT()
SI_UNIT($,.RADIAN.)
);
#864=(
NAMED_UNIT(*)
SI_UNIT($,.STERADIAN.)
SOLID_ANGLE_UNIT()
);
#865=SHAPE_DEFINITION_REPRESENTATION(#866,#867);
#866=PRODUCT_DEFINITION_SHAPE('',$,#869);
#867=SHAPE_REPRESENTATION('',(#522),#860);
#868=PRODUCT_DEFINITION_CONTEXT('part definition',#873,'design');
#869=PRODUCT_DEFINITION('HTD3M-270t-20t-1068mm-Chassis-V3',
'HTD3M-270t-20t-1068mm-Chassis-V3 v70',#870,#868);
#870=PRODUCT_DEFINITION_FORMATION('',$,#875);
#871=PRODUCT_RELATED_PRODUCT_CATEGORY(
'HTD3M-270t-20t-1068mm-Chassis-V3 v70',
'HTD3M-270t-20t-1068mm-Chassis-V3 v70',(#875));
#872=APPLICATION_PROTOCOL_DEFINITION('international standard',
'automotive_design',2009,#873);
#873=APPLICATION_CONTEXT(
'Core Data for Automotive Mechanical Design Process');
#874=PRODUCT_CONTEXT('part definition',#873,'mechanical');
#875=PRODUCT('HTD3M-270t-20t-1068mm-Chassis-V3',
'HTD3M-270t-20t-1068mm-Chassis-V3 v70',$,(#874));
#876=PRESENTATION_STYLE_ASSIGNMENT((#884));
#877=PRESENTATION_STYLE_ASSIGNMENT((#885));
#878=PRESENTATION_STYLE_ASSIGNMENT((#886));
#879=PRESENTATION_STYLE_ASSIGNMENT((#887));
#880=PRESENTATION_STYLE_ASSIGNMENT((#888));
#881=PRESENTATION_STYLE_ASSIGNMENT((#889));
#882=PRESENTATION_STYLE_ASSIGNMENT((#890));
#883=PRESENTATION_STYLE_ASSIGNMENT((#891));
#884=SURFACE_STYLE_USAGE(.BOTH.,#892);
#885=SURFACE_STYLE_USAGE(.BOTH.,#893);
#886=SURFACE_STYLE_USAGE(.BOTH.,#894);
#887=SURFACE_STYLE_USAGE(.BOTH.,#895);
#888=SURFACE_STYLE_USAGE(.BOTH.,#896);
#889=SURFACE_STYLE_USAGE(.BOTH.,#897);
#890=SURFACE_STYLE_USAGE(.BOTH.,#898);
#891=SURFACE_STYLE_USAGE(.BOTH.,#899);
#892=SURFACE_SIDE_STYLE('',(#900));
#893=SURFACE_SIDE_STYLE('',(#901));
#894=SURFACE_SIDE_STYLE('',(#902));
#895=SURFACE_SIDE_STYLE('',(#903));
#896=SURFACE_SIDE_STYLE('',(#904));
#897=SURFACE_SIDE_STYLE('',(#905));
#898=SURFACE_SIDE_STYLE('',(#906));
#899=SURFACE_SIDE_STYLE('',(#907));
#900=SURFACE_STYLE_FILL_AREA(#908);
#901=SURFACE_STYLE_FILL_AREA(#909);
#902=SURFACE_STYLE_FILL_AREA(#910);
#903=SURFACE_STYLE_FILL_AREA(#911);
#904=SURFACE_STYLE_FILL_AREA(#912);
#905=SURFACE_STYLE_FILL_AREA(#913);
#906=SURFACE_STYLE_FILL_AREA(#914);
#907=SURFACE_STYLE_FILL_AREA(#915);
#908=FILL_AREA_STYLE('Opaque(175,143,175)',(#916));
#909=FILL_AREA_STYLE('Opaque(159,175,143)',(#917));
#910=FILL_AREA_STYLE('Opaque(143,143,175)',(#918));
#911=FILL_AREA_STYLE('Opaque(175,159,143)',(#919));
#912=FILL_AREA_STYLE('Opaque(143,175,175)',(#920));
#913=FILL_AREA_STYLE('Steel - Satin',(#921));
#914=FILL_AREA_STYLE('Plastic - Translucent Matte (Red)',(#922));
#915=FILL_AREA_STYLE('Steel - Satin',(#923));
#916=FILL_AREA_STYLE_COLOUR('Opaque(175,143,175)',#924);
#917=FILL_AREA_STYLE_COLOUR('Opaque(159,175,143)',#925);
#918=FILL_AREA_STYLE_COLOUR('Opaque(143,143,175)',#926);
#919=FILL_AREA_STYLE_COLOUR('Opaque(175,159,143)',#927);
#920=FILL_AREA_STYLE_COLOUR('Opaque(143,175,175)',#928);
#921=FILL_AREA_STYLE_COLOUR('Steel - Satin',#929);
#922=FILL_AREA_STYLE_COLOUR('Plastic - Translucent Matte (Red)',#930);
#923=FILL_AREA_STYLE_COLOUR('Steel - Satin',#931);
#924=COLOUR_RGB('Opaque(175,143,175)',0.686274509803922,0.56078431372549,
0.686274509803922);
#925=COLOUR_RGB('Opaque(159,175,143)',0.623529411764706,0.686274509803922,
0.56078431372549);
#926=COLOUR_RGB('Opaque(143,143,175)',0.56078431372549,0.56078431372549,
0.686274509803922);
#927=COLOUR_RGB('Opaque(175,159,143)',0.686274509803922,0.623529411764706,
0.56078431372549);
#928=COLOUR_RGB('Opaque(143,175,175)',0.56078431372549,0.686274509803922,
0.686274509803922);
#929=COLOUR_RGB('Steel - Satin',0.627450980392157,0.627450980392157,0.627450980392157);
#930=COLOUR_RGB('Plastic - Translucent Matte (Red)',0.768627450980392,0.207843137254902,
0.152941176470588);
#931=COLOUR_RGB('Steel - Satin',0.552941176470588,0.227450980392157,0.227450980392157);
ENDSEC;
END-ISO-10303-21;
