ISO-10303-21;
HEADER;
/* Generated by software containing ST-Developer
 * from STEP Tools, Inc. (www.steptools.com) 
 */

FILE_DESCRIPTION(
/* description */ (''),
/* implementation_level */ '2;1');

FILE_NAME(
/* name */ 'HTD3M-270t-20t-1068mm-Chassis-V3.step',
/* time_stamp */ '2026-04-07T14:03:30+02:00',
/* author */ (''),
/* organization */ (''),
/* preprocessor_version */ 'ST-DEVELOPER v20.1',
/* originating_system */ 'Autodesk Translation Framework v14.24.0.0',
/* authorisation */ '');

FILE_SCHEMA (('AUTOMOTIVE_DESIGN { 1 0 10303 214 3 1 1 }'));
ENDSEC;

DATA;
#10=MECHANICAL_DESIGN_GEOMETRIC_PRESENTATION_REPRESENTATION('',(#13),#871);
#11=SHAPE_REPRESENTATION_RELATIONSHIP('SRR','None',#877,#12);
#12=ADVANCED_BREP_SHAPE_REPRESENTATION('',(#14),#870);
#13=STYLED_ITEM('',(#892),#14);
#14=MANIFOLD_SOLID_BREP('MSwitch-Bracket-Clamp',#535);
#15=CYLINDRICAL_SURFACE('',#555,4.);
#16=CYLINDRICAL_SURFACE('',#565,4.);
#17=CYLINDRICAL_SURFACE('',#569,4.);
#18=CYLINDRICAL_SURFACE('',#572,4.);
#19=CYLINDRICAL_SURFACE('',#575,1.5);
#20=CYLINDRICAL_SURFACE('',#576,1.5);
#21=FACE_BOUND('',#75,.T.);
#22=FACE_BOUND('',#84,.T.);
#23=FACE_BOUND('',#88,.T.);
#24=FACE_BOUND('',#89,.T.);
#25=FACE_BOUND('',#97,.T.);
#26=FACE_BOUND('',#98,.T.);
#27=CIRCLE('',#545,1.5);
#28=CIRCLE('',#554,1.5);
#29=CIRCLE('',#556,4.);
#30=CIRCLE('',#557,4.);
#31=CIRCLE('',#560,4.);
#32=CIRCLE('',#561,4.);
#33=CIRCLE('',#562,4.);
#34=CIRCLE('',#563,1.5);
#35=CIRCLE('',#564,1.5);
#36=CIRCLE('',#566,4.);
#37=CIRCLE('',#570,4.);
#38=CIRCLE('',#573,4.);
#39=FACE_OUTER_BOUND('',#67,.T.);
#40=FACE_OUTER_BOUND('',#68,.T.);
#41=FACE_OUTER_BOUND('',#69,.T.);
#42=FACE_OUTER_BOUND('',#70,.T.);
#43=FACE_OUTER_BOUND('',#71,.T.);
#44=FACE_OUTER_BOUND('',#72,.T.);
#45=FACE_OUTER_BOUND('',#73,.T.);
#46=FACE_OUTER_BOUND('',#74,.T.);
#47=FACE_OUTER_BOUND('',#76,.T.);
#48=FACE_OUTER_BOUND('',#77,.T.);
#49=FACE_OUTER_BOUND('',#78,.T.);
#50=FACE_OUTER_BOUND('',#79,.T.);
#51=FACE_OUTER_BOUND('',#80,.T.);
#52=FACE_OUTER_BOUND('',#81,.T.);
#53=FACE_OUTER_BOUND('',#82,.T.);
#54=FACE_OUTER_BOUND('',#83,.T.);
#55=FACE_OUTER_BOUND('',#85,.T.);
#56=FACE_OUTER_BOUND('',#86,.T.);
#57=FACE_OUTER_BOUND('',#87,.T.);
#58=FACE_OUTER_BOUND('',#90,.T.);
#59=FACE_OUTER_BOUND('',#91,.T.);
#60=FACE_OUTER_BOUND('',#92,.T.);
#61=FACE_OUTER_BOUND('',#93,.T.);
#62=FACE_OUTER_BOUND('',#94,.T.);
#63=FACE_OUTER_BOUND('',#95,.T.);
#64=FACE_OUTER_BOUND('',#96,.T.);
#65=FACE_OUTER_BOUND('',#99,.T.);
#66=FACE_OUTER_BOUND('',#100,.T.);
#67=EDGE_LOOP('',(#341,#342,#343,#344));
#68=EDGE_LOOP('',(#345,#346,#347,#348));
#69=EDGE_LOOP('',(#349,#350,#351,#352));
#70=EDGE_LOOP('',(#353,#354,#355,#356));
#71=EDGE_LOOP('',(#357,#358,#359,#360));
#72=EDGE_LOOP('',(#361,#362,#363,#364));
#73=EDGE_LOOP('',(#365,#366,#367,#368));
#74=EDGE_LOOP('',(#369,#370,#371,#372,#373,#374,#375));
#75=EDGE_LOOP('',(#376));
#76=EDGE_LOOP('',(#377,#378,#379,#380));
#77=EDGE_LOOP('',(#381,#382,#383,#384));
#78=EDGE_LOOP('',(#385,#386,#387,#388));
#79=EDGE_LOOP('',(#389,#390,#391,#392));
#80=EDGE_LOOP('',(#393,#394,#395,#396));
#81=EDGE_LOOP('',(#397,#398,#399,#400));
#82=EDGE_LOOP('',(#401,#402,#403,#404));
#83=EDGE_LOOP('',(#405,#406,#407,#408,#409,#410,#411));
#84=EDGE_LOOP('',(#412));
#85=EDGE_LOOP('',(#413,#414,#415,#416));
#86=EDGE_LOOP('',(#417,#418,#419,#420));
#87=EDGE_LOOP('',(#421,#422,#423,#424,#425,#426,#427,#428));
#88=EDGE_LOOP('',(#429));
#89=EDGE_LOOP('',(#430));
#90=EDGE_LOOP('',(#431,#432,#433,#434));
#91=EDGE_LOOP('',(#435,#436,#437,#438));
#92=EDGE_LOOP('',(#439,#440,#441,#442));
#93=EDGE_LOOP('',(#443,#444,#445,#446));
#94=EDGE_LOOP('',(#447,#448,#449,#450));
#95=EDGE_LOOP('',(#451,#452,#453,#454));
#96=EDGE_LOOP('',(#455,#456,#457,#458,#459,#460,#461,#462));
#97=EDGE_LOOP('',(#463,#464,#465,#466,#467,#468,#469));
#98=EDGE_LOOP('',(#470,#471,#472,#473,#474,#475,#476));
#99=EDGE_LOOP('',(#477,#478,#479,#480));
#100=EDGE_LOOP('',(#481,#482,#483,#484));
#101=LINE('',#723,#161);
#102=LINE('',#725,#162);
#103=LINE('',#727,#163);
#104=LINE('',#728,#164);
#105=LINE('',#731,#165);
#106=LINE('',#733,#166);
#107=LINE('',#734,#167);
#108=LINE('',#737,#168);
#109=LINE('',#739,#169);
#110=LINE('',#740,#170);
#111=LINE('',#743,#171);
#112=LINE('',#745,#172);
#113=LINE('',#746,#173);
#114=LINE('',#749,#174);
#115=LINE('',#751,#175);
#116=LINE('',#752,#176);
#117=LINE('',#755,#177);
#118=LINE('',#757,#178);
#119=LINE('',#758,#179);
#120=LINE('',#760,#180);
#121=LINE('',#761,#181);
#122=LINE('',#768,#182);
#123=LINE('',#770,#183);
#124=LINE('',#772,#184);
#125=LINE('',#773,#185);
#126=LINE('',#776,#186);
#127=LINE('',#778,#187);
#128=LINE('',#779,#188);
#129=LINE('',#782,#189);
#130=LINE('',#784,#190);
#131=LINE('',#785,#191);
#132=LINE('',#788,#192);
#133=LINE('',#790,#193);
#134=LINE('',#791,#194);
#135=LINE('',#794,#195);
#136=LINE('',#796,#196);
#137=LINE('',#797,#197);
#138=LINE('',#800,#198);
#139=LINE('',#802,#199);
#140=LINE('',#803,#200);
#141=LINE('',#805,#201);
#142=LINE('',#806,#202);
#143=LINE('',#815,#203);
#144=LINE('',#818,#204);
#145=LINE('',#821,#205);
#146=LINE('',#823,#206);
#147=LINE('',#824,#207);
#148=LINE('',#827,#208);
#149=LINE('',#831,#209);
#150=LINE('',#835,#210);
#151=LINE('',#844,#211);
#152=LINE('',#847,#212);
#153=LINE('',#848,#213);
#154=LINE('',#851,#214);
#155=LINE('',#852,#215);
#156=LINE('',#855,#216);
#157=LINE('',#859,#217);
#158=LINE('',#860,#218);
#159=LINE('',#865,#219);
#160=LINE('',#867,#220);
#161=VECTOR('',#581,10.);
#162=VECTOR('',#582,10.);
#163=VECTOR('',#583,10.);
#164=VECTOR('',#584,10.);
#165=VECTOR('',#587,10.);
#166=VECTOR('',#588,10.);
#167=VECTOR('',#589,10.);
#168=VECTOR('',#592,10.);
#169=VECTOR('',#593,10.);
#170=VECTOR('',#594,10.);
#171=VECTOR('',#597,10.);
#172=VECTOR('',#598,10.);
#173=VECTOR('',#599,10.);
#174=VECTOR('',#602,10.);
#175=VECTOR('',#603,10.);
#176=VECTOR('',#604,10.);
#177=VECTOR('',#607,10.);
#178=VECTOR('',#608,10.);
#179=VECTOR('',#609,10.);
#180=VECTOR('',#612,10.);
#181=VECTOR('',#613,10.);
#182=VECTOR('',#620,10.);
#183=VECTOR('',#621,10.);
#184=VECTOR('',#622,10.);
#185=VECTOR('',#623,10.);
#186=VECTOR('',#626,10.);
#187=VECTOR('',#627,10.);
#188=VECTOR('',#628,10.);
#189=VECTOR('',#631,10.);
#190=VECTOR('',#632,10.);
#191=VECTOR('',#633,10.);
#192=VECTOR('',#636,10.);
#193=VECTOR('',#637,10.);
#194=VECTOR('',#638,10.);
#195=VECTOR('',#641,10.);
#196=VECTOR('',#642,10.);
#197=VECTOR('',#643,10.);
#198=VECTOR('',#646,10.);
#199=VECTOR('',#647,10.);
#200=VECTOR('',#648,10.);
#201=VECTOR('',#651,10.);
#202=VECTOR('',#652,10.);
#203=VECTOR('',#661,10.);
#204=VECTOR('',#664,10.);
#205=VECTOR('',#667,10.);
#206=VECTOR('',#668,10.);
#207=VECTOR('',#669,10.);
#208=VECTOR('',#672,10.);
#209=VECTOR('',#675,10.);
#210=VECTOR('',#678,10.);
#211=VECTOR('',#689,10.);
#212=VECTOR('',#692,10.);
#213=VECTOR('',#693,10.);
#214=VECTOR('',#696,10.);
#215=VECTOR('',#697,10.);
#216=VECTOR('',#700,10.);
#217=VECTOR('',#705,10.);
#218=VECTOR('',#706,10.);
#219=VECTOR('',#715,1.5);
#220=VECTOR('',#718,1.5);
#221=VERTEX_POINT('',#721);
#222=VERTEX_POINT('',#722);
#223=VERTEX_POINT('',#724);
#224=VERTEX_POINT('',#726);
#225=VERTEX_POINT('',#730);
#226=VERTEX_POINT('',#732);
#227=VERTEX_POINT('',#736);
#228=VERTEX_POINT('',#738);
#229=VERTEX_POINT('',#742);
#230=VERTEX_POINT('',#744);
#231=VERTEX_POINT('',#748);
#232=VERTEX_POINT('',#750);
#233=VERTEX_POINT('',#754);
#234=VERTEX_POINT('',#756);
#235=VERTEX_POINT('',#763);
#236=VERTEX_POINT('',#766);
#237=VERTEX_POINT('',#767);
#238=VERTEX_POINT('',#769);
#239=VERTEX_POINT('',#771);
#240=VERTEX_POINT('',#775);
#241=VERTEX_POINT('',#777);
#242=VERTEX_POINT('',#781);
#243=VERTEX_POINT('',#783);
#244=VERTEX_POINT('',#787);
#245=VERTEX_POINT('',#789);
#246=VERTEX_POINT('',#793);
#247=VERTEX_POINT('',#795);
#248=VERTEX_POINT('',#799);
#249=VERTEX_POINT('',#801);
#250=VERTEX_POINT('',#808);
#251=VERTEX_POINT('',#811);
#252=VERTEX_POINT('',#812);
#253=VERTEX_POINT('',#814);
#254=VERTEX_POINT('',#816);
#255=VERTEX_POINT('',#820);
#256=VERTEX_POINT('',#822);
#257=VERTEX_POINT('',#826);
#258=VERTEX_POINT('',#828);
#259=VERTEX_POINT('',#830);
#260=VERTEX_POINT('',#832);
#261=VERTEX_POINT('',#834);
#262=VERTEX_POINT('',#837);
#263=VERTEX_POINT('',#839);
#264=VERTEX_POINT('',#842);
#265=VERTEX_POINT('',#846);
#266=VERTEX_POINT('',#850);
#267=VERTEX_POINT('',#854);
#268=VERTEX_POINT('',#858);
#269=EDGE_CURVE('',#221,#222,#101,.T.);
#270=EDGE_CURVE('',#223,#221,#102,.T.);
#271=EDGE_CURVE('',#224,#223,#103,.T.);
#272=EDGE_CURVE('',#224,#222,#104,.T.);
#273=EDGE_CURVE('',#222,#225,#105,.T.);
#274=EDGE_CURVE('',#226,#224,#106,.T.);
#275=EDGE_CURVE('',#226,#225,#107,.T.);
#276=EDGE_CURVE('',#225,#227,#108,.T.);
#277=EDGE_CURVE('',#228,#226,#109,.T.);
#278=EDGE_CURVE('',#228,#227,#110,.T.);
#279=EDGE_CURVE('',#227,#229,#111,.T.);
#280=EDGE_CURVE('',#230,#228,#112,.T.);
#281=EDGE_CURVE('',#230,#229,#113,.T.);
#282=EDGE_CURVE('',#229,#231,#114,.T.);
#283=EDGE_CURVE('',#232,#230,#115,.F.);
#284=EDGE_CURVE('',#232,#231,#116,.F.);
#285=EDGE_CURVE('',#231,#233,#117,.T.);
#286=EDGE_CURVE('',#234,#232,#118,.T.);
#287=EDGE_CURVE('',#234,#233,#119,.T.);
#288=EDGE_CURVE('',#233,#221,#120,.T.);
#289=EDGE_CURVE('',#223,#234,#121,.T.);
#290=EDGE_CURVE('',#235,#235,#27,.T.);
#291=EDGE_CURVE('',#236,#237,#122,.T.);
#292=EDGE_CURVE('',#238,#236,#123,.T.);
#293=EDGE_CURVE('',#239,#238,#124,.T.);
#294=EDGE_CURVE('',#239,#237,#125,.T.);
#295=EDGE_CURVE('',#237,#240,#126,.T.);
#296=EDGE_CURVE('',#241,#239,#127,.T.);
#297=EDGE_CURVE('',#241,#240,#128,.T.);
#298=EDGE_CURVE('',#240,#242,#129,.T.);
#299=EDGE_CURVE('',#243,#241,#130,.T.);
#300=EDGE_CURVE('',#243,#242,#131,.T.);
#301=EDGE_CURVE('',#242,#244,#132,.T.);
#302=EDGE_CURVE('',#245,#243,#133,.T.);
#303=EDGE_CURVE('',#245,#244,#134,.T.);
#304=EDGE_CURVE('',#244,#246,#135,.T.);
#305=EDGE_CURVE('',#247,#245,#136,.F.);
#306=EDGE_CURVE('',#247,#246,#137,.F.);
#307=EDGE_CURVE('',#246,#248,#138,.T.);
#308=EDGE_CURVE('',#249,#247,#139,.T.);
#309=EDGE_CURVE('',#249,#248,#140,.T.);
#310=EDGE_CURVE('',#248,#236,#141,.T.);
#311=EDGE_CURVE('',#238,#249,#142,.T.);
#312=EDGE_CURVE('',#250,#250,#28,.T.);
#313=EDGE_CURVE('',#251,#252,#29,.T.);
#314=EDGE_CURVE('',#252,#253,#143,.T.);
#315=EDGE_CURVE('',#253,#254,#30,.F.);
#316=EDGE_CURVE('',#254,#251,#144,.T.);
#317=EDGE_CURVE('',#255,#252,#145,.F.);
#318=EDGE_CURVE('',#256,#255,#146,.T.);
#319=EDGE_CURVE('',#253,#256,#147,.F.);
#320=EDGE_CURVE('',#251,#257,#148,.T.);
#321=EDGE_CURVE('',#258,#257,#31,.T.);
#322=EDGE_CURVE('',#258,#259,#149,.F.);
#323=EDGE_CURVE('',#260,#259,#32,.T.);
#324=EDGE_CURVE('',#260,#261,#150,.T.);
#325=EDGE_CURVE('',#255,#261,#33,.T.);
#326=EDGE_CURVE('',#262,#262,#34,.T.);
#327=EDGE_CURVE('',#263,#263,#35,.T.);
#328=EDGE_CURVE('',#264,#256,#36,.F.);
#329=EDGE_CURVE('',#261,#264,#151,.T.);
#330=EDGE_CURVE('',#265,#260,#152,.T.);
#331=EDGE_CURVE('',#264,#265,#153,.F.);
#332=EDGE_CURVE('',#266,#254,#154,.F.);
#333=EDGE_CURVE('',#257,#266,#155,.T.);
#334=EDGE_CURVE('',#259,#267,#156,.T.);
#335=EDGE_CURVE('',#267,#265,#37,.F.);
#336=EDGE_CURVE('',#268,#258,#157,.T.);
#337=EDGE_CURVE('',#267,#268,#158,.F.);
#338=EDGE_CURVE('',#266,#268,#38,.F.);
#339=EDGE_CURVE('',#263,#235,#159,.T.);
#340=EDGE_CURVE('',#262,#250,#160,.T.);
#341=ORIENTED_EDGE('',*,*,#269,.F.);
#342=ORIENTED_EDGE('',*,*,#270,.F.);
#343=ORIENTED_EDGE('',*,*,#271,.F.);
#344=ORIENTED_EDGE('',*,*,#272,.T.);
#345=ORIENTED_EDGE('',*,*,#273,.F.);
#346=ORIENTED_EDGE('',*,*,#272,.F.);
#347=ORIENTED_EDGE('',*,*,#274,.F.);
#348=ORIENTED_EDGE('',*,*,#275,.T.);
#349=ORIENTED_EDGE('',*,*,#276,.F.);
#350=ORIENTED_EDGE('',*,*,#275,.F.);
#351=ORIENTED_EDGE('',*,*,#277,.F.);
#352=ORIENTED_EDGE('',*,*,#278,.T.);
#353=ORIENTED_EDGE('',*,*,#279,.F.);
#354=ORIENTED_EDGE('',*,*,#278,.F.);
#355=ORIENTED_EDGE('',*,*,#280,.F.);
#356=ORIENTED_EDGE('',*,*,#281,.T.);
#357=ORIENTED_EDGE('',*,*,#282,.F.);
#358=ORIENTED_EDGE('',*,*,#281,.F.);
#359=ORIENTED_EDGE('',*,*,#283,.F.);
#360=ORIENTED_EDGE('',*,*,#284,.T.);
#361=ORIENTED_EDGE('',*,*,#285,.F.);
#362=ORIENTED_EDGE('',*,*,#284,.F.);
#363=ORIENTED_EDGE('',*,*,#286,.F.);
#364=ORIENTED_EDGE('',*,*,#287,.T.);
#365=ORIENTED_EDGE('',*,*,#288,.F.);
#366=ORIENTED_EDGE('',*,*,#287,.F.);
#367=ORIENTED_EDGE('',*,*,#289,.F.);
#368=ORIENTED_EDGE('',*,*,#270,.T.);
#369=ORIENTED_EDGE('',*,*,#277,.T.);
#370=ORIENTED_EDGE('',*,*,#274,.T.);
#371=ORIENTED_EDGE('',*,*,#271,.T.);
#372=ORIENTED_EDGE('',*,*,#289,.T.);
#373=ORIENTED_EDGE('',*,*,#286,.T.);
#374=ORIENTED_EDGE('',*,*,#283,.T.);
#375=ORIENTED_EDGE('',*,*,#280,.T.);
#376=ORIENTED_EDGE('',*,*,#290,.F.);
#377=ORIENTED_EDGE('',*,*,#291,.F.);
#378=ORIENTED_EDGE('',*,*,#292,.F.);
#379=ORIENTED_EDGE('',*,*,#293,.F.);
#380=ORIENTED_EDGE('',*,*,#294,.T.);
#381=ORIENTED_EDGE('',*,*,#295,.F.);
#382=ORIENTED_EDGE('',*,*,#294,.F.);
#383=ORIENTED_EDGE('',*,*,#296,.F.);
#384=ORIENTED_EDGE('',*,*,#297,.T.);
#385=ORIENTED_EDGE('',*,*,#298,.F.);
#386=ORIENTED_EDGE('',*,*,#297,.F.);
#387=ORIENTED_EDGE('',*,*,#299,.F.);
#388=ORIENTED_EDGE('',*,*,#300,.T.);
#389=ORIENTED_EDGE('',*,*,#301,.F.);
#390=ORIENTED_EDGE('',*,*,#300,.F.);
#391=ORIENTED_EDGE('',*,*,#302,.F.);
#392=ORIENTED_EDGE('',*,*,#303,.T.);
#393=ORIENTED_EDGE('',*,*,#304,.F.);
#394=ORIENTED_EDGE('',*,*,#303,.F.);
#395=ORIENTED_EDGE('',*,*,#305,.F.);
#396=ORIENTED_EDGE('',*,*,#306,.T.);
#397=ORIENTED_EDGE('',*,*,#307,.F.);
#398=ORIENTED_EDGE('',*,*,#306,.F.);
#399=ORIENTED_EDGE('',*,*,#308,.F.);
#400=ORIENTED_EDGE('',*,*,#309,.T.);
#401=ORIENTED_EDGE('',*,*,#310,.F.);
#402=ORIENTED_EDGE('',*,*,#309,.F.);
#403=ORIENTED_EDGE('',*,*,#311,.F.);
#404=ORIENTED_EDGE('',*,*,#292,.T.);
#405=ORIENTED_EDGE('',*,*,#299,.T.);
#406=ORIENTED_EDGE('',*,*,#296,.T.);
#407=ORIENTED_EDGE('',*,*,#293,.T.);
#408=ORIENTED_EDGE('',*,*,#311,.T.);
#409=ORIENTED_EDGE('',*,*,#308,.T.);
#410=ORIENTED_EDGE('',*,*,#305,.T.);
#411=ORIENTED_EDGE('',*,*,#302,.T.);
#412=ORIENTED_EDGE('',*,*,#312,.F.);
#413=ORIENTED_EDGE('',*,*,#313,.T.);
#414=ORIENTED_EDGE('',*,*,#314,.T.);
#415=ORIENTED_EDGE('',*,*,#315,.T.);
#416=ORIENTED_EDGE('',*,*,#316,.T.);
#417=ORIENTED_EDGE('',*,*,#314,.F.);
#418=ORIENTED_EDGE('',*,*,#317,.F.);
#419=ORIENTED_EDGE('',*,*,#318,.F.);
#420=ORIENTED_EDGE('',*,*,#319,.F.);
#421=ORIENTED_EDGE('',*,*,#313,.F.);
#422=ORIENTED_EDGE('',*,*,#320,.T.);
#423=ORIENTED_EDGE('',*,*,#321,.F.);
#424=ORIENTED_EDGE('',*,*,#322,.T.);
#425=ORIENTED_EDGE('',*,*,#323,.F.);
#426=ORIENTED_EDGE('',*,*,#324,.T.);
#427=ORIENTED_EDGE('',*,*,#325,.F.);
#428=ORIENTED_EDGE('',*,*,#317,.T.);
#429=ORIENTED_EDGE('',*,*,#326,.T.);
#430=ORIENTED_EDGE('',*,*,#327,.T.);
#431=ORIENTED_EDGE('',*,*,#328,.T.);
#432=ORIENTED_EDGE('',*,*,#318,.T.);
#433=ORIENTED_EDGE('',*,*,#325,.T.);
#434=ORIENTED_EDGE('',*,*,#329,.T.);
#435=ORIENTED_EDGE('',*,*,#329,.F.);
#436=ORIENTED_EDGE('',*,*,#324,.F.);
#437=ORIENTED_EDGE('',*,*,#330,.F.);
#438=ORIENTED_EDGE('',*,*,#331,.F.);
#439=ORIENTED_EDGE('',*,*,#316,.F.);
#440=ORIENTED_EDGE('',*,*,#332,.F.);
#441=ORIENTED_EDGE('',*,*,#333,.F.);
#442=ORIENTED_EDGE('',*,*,#320,.F.);
#443=ORIENTED_EDGE('',*,*,#323,.T.);
#444=ORIENTED_EDGE('',*,*,#334,.T.);
#445=ORIENTED_EDGE('',*,*,#335,.T.);
#446=ORIENTED_EDGE('',*,*,#330,.T.);
#447=ORIENTED_EDGE('',*,*,#334,.F.);
#448=ORIENTED_EDGE('',*,*,#322,.F.);
#449=ORIENTED_EDGE('',*,*,#336,.F.);
#450=ORIENTED_EDGE('',*,*,#337,.F.);
#451=ORIENTED_EDGE('',*,*,#338,.T.);
#452=ORIENTED_EDGE('',*,*,#336,.T.);
#453=ORIENTED_EDGE('',*,*,#321,.T.);
#454=ORIENTED_EDGE('',*,*,#333,.T.);
#455=ORIENTED_EDGE('',*,*,#315,.F.);
#456=ORIENTED_EDGE('',*,*,#319,.T.);
#457=ORIENTED_EDGE('',*,*,#328,.F.);
#458=ORIENTED_EDGE('',*,*,#331,.T.);
#459=ORIENTED_EDGE('',*,*,#335,.F.);
#460=ORIENTED_EDGE('',*,*,#337,.T.);
#461=ORIENTED_EDGE('',*,*,#338,.F.);
#462=ORIENTED_EDGE('',*,*,#332,.T.);
#463=ORIENTED_EDGE('',*,*,#279,.T.);
#464=ORIENTED_EDGE('',*,*,#282,.T.);
#465=ORIENTED_EDGE('',*,*,#285,.T.);
#466=ORIENTED_EDGE('',*,*,#288,.T.);
#467=ORIENTED_EDGE('',*,*,#269,.T.);
#468=ORIENTED_EDGE('',*,*,#273,.T.);
#469=ORIENTED_EDGE('',*,*,#276,.T.);
#470=ORIENTED_EDGE('',*,*,#301,.T.);
#471=ORIENTED_EDGE('',*,*,#304,.T.);
#472=ORIENTED_EDGE('',*,*,#307,.T.);
#473=ORIENTED_EDGE('',*,*,#310,.T.);
#474=ORIENTED_EDGE('',*,*,#291,.T.);
#475=ORIENTED_EDGE('',*,*,#295,.T.);
#476=ORIENTED_EDGE('',*,*,#298,.T.);
#477=ORIENTED_EDGE('',*,*,#327,.F.);
#478=ORIENTED_EDGE('',*,*,#339,.T.);
#479=ORIENTED_EDGE('',*,*,#290,.T.);
#480=ORIENTED_EDGE('',*,*,#339,.F.);
#481=ORIENTED_EDGE('',*,*,#326,.F.);
#482=ORIENTED_EDGE('',*,*,#340,.T.);
#483=ORIENTED_EDGE('',*,*,#312,.T.);
#484=ORIENTED_EDGE('',*,*,#340,.F.);
#485=PLANE('',#537);
#486=PLANE('',#538);
#487=PLANE('',#539);
#488=PLANE('',#540);
#489=PLANE('',#541);
#490=PLANE('',#542);
#491=PLANE('',#543);
#492=PLANE('',#544);
#493=PLANE('',#546);
#494=PLANE('',#547);
#495=PLANE('',#548);
#496=PLANE('',#549);
#497=PLANE('',#550);
#498=PLANE('',#551);
#499=PLANE('',#552);
#500=PLANE('',#553);
#501=PLANE('',#558);
#502=PLANE('',#559);
#503=PLANE('',#567);
#504=PLANE('',#568);
#505=PLANE('',#571);
#506=PLANE('',#574);
#507=ADVANCED_FACE('',(#39),#485,.F.);
#508=ADVANCED_FACE('',(#40),#486,.F.);
#509=ADVANCED_FACE('',(#41),#487,.F.);
#510=ADVANCED_FACE('',(#42),#488,.F.);
#511=ADVANCED_FACE('',(#43),#489,.F.);
#512=ADVANCED_FACE('',(#44),#490,.F.);
#513=ADVANCED_FACE('',(#45),#491,.F.);
#514=ADVANCED_FACE('',(#46,#21),#492,.T.);
#515=ADVANCED_FACE('',(#47),#493,.F.);
#516=ADVANCED_FACE('',(#48),#494,.F.);
#517=ADVANCED_FACE('',(#49),#495,.F.);
#518=ADVANCED_FACE('',(#50),#496,.F.);
#519=ADVANCED_FACE('',(#51),#497,.F.);
#520=ADVANCED_FACE('',(#52),#498,.F.);
#521=ADVANCED_FACE('',(#53),#499,.F.);
#522=ADVANCED_FACE('',(#54,#22),#500,.T.);
#523=ADVANCED_FACE('',(#55),#15,.T.);
#524=ADVANCED_FACE('',(#56),#501,.F.);
#525=ADVANCED_FACE('',(#57,#23,#24),#502,.F.);
#526=ADVANCED_FACE('',(#58),#16,.T.);
#527=ADVANCED_FACE('',(#59),#503,.F.);
#528=ADVANCED_FACE('',(#60),#504,.F.);
#529=ADVANCED_FACE('',(#61),#17,.T.);
#530=ADVANCED_FACE('',(#62),#505,.F.);
#531=ADVANCED_FACE('',(#63),#18,.T.);
#532=ADVANCED_FACE('',(#64,#25,#26),#506,.T.);
#533=ADVANCED_FACE('',(#65),#19,.F.);
#534=ADVANCED_FACE('',(#66),#20,.F.);
#535=CLOSED_SHELL('',(#507,#508,#509,#510,#511,#512,#513,#514,#515,#516,
#517,#518,#519,#520,#521,#522,#523,#524,#525,#526,#527,#528,#529,#530,#531,
#532,#533,#534));
#536=AXIS2_PLACEMENT_3D('',#719,#577,#578);
#537=AXIS2_PLACEMENT_3D('',#720,#579,#580);
#538=AXIS2_PLACEMENT_3D('',#729,#585,#586);
#539=AXIS2_PLACEMENT_3D('',#735,#590,#591);
#540=AXIS2_PLACEMENT_3D('',#741,#595,#596);
#541=AXIS2_PLACEMENT_3D('',#747,#600,#601);
#542=AXIS2_PLACEMENT_3D('',#753,#605,#606);
#543=AXIS2_PLACEMENT_3D('',#759,#610,#611);
#544=AXIS2_PLACEMENT_3D('',#762,#614,#615);
#545=AXIS2_PLACEMENT_3D('',#764,#616,#617);
#546=AXIS2_PLACEMENT_3D('',#765,#618,#619);
#547=AXIS2_PLACEMENT_3D('',#774,#624,#625);
#548=AXIS2_PLACEMENT_3D('',#780,#629,#630);
#549=AXIS2_PLACEMENT_3D('',#786,#634,#635);
#550=AXIS2_PLACEMENT_3D('',#792,#639,#640);
#551=AXIS2_PLACEMENT_3D('',#798,#644,#645);
#552=AXIS2_PLACEMENT_3D('',#804,#649,#650);
#553=AXIS2_PLACEMENT_3D('',#807,#653,#654);
#554=AXIS2_PLACEMENT_3D('',#809,#655,#656);
#555=AXIS2_PLACEMENT_3D('',#810,#657,#658);
#556=AXIS2_PLACEMENT_3D('',#813,#659,#660);
#557=AXIS2_PLACEMENT_3D('',#817,#662,#663);
#558=AXIS2_PLACEMENT_3D('',#819,#665,#666);
#559=AXIS2_PLACEMENT_3D('',#825,#670,#671);
#560=AXIS2_PLACEMENT_3D('',#829,#673,#674);
#561=AXIS2_PLACEMENT_3D('',#833,#676,#677);
#562=AXIS2_PLACEMENT_3D('',#836,#679,#680);
#563=AXIS2_PLACEMENT_3D('',#838,#681,#682);
#564=AXIS2_PLACEMENT_3D('',#840,#683,#684);
#565=AXIS2_PLACEMENT_3D('',#841,#685,#686);
#566=AXIS2_PLACEMENT_3D('',#843,#687,#688);
#567=AXIS2_PLACEMENT_3D('',#845,#690,#691);
#568=AXIS2_PLACEMENT_3D('',#849,#694,#695);
#569=AXIS2_PLACEMENT_3D('',#853,#698,#699);
#570=AXIS2_PLACEMENT_3D('',#856,#701,#702);
#571=AXIS2_PLACEMENT_3D('',#857,#703,#704);
#572=AXIS2_PLACEMENT_3D('',#861,#707,#708);
#573=AXIS2_PLACEMENT_3D('',#862,#709,#710);
#574=AXIS2_PLACEMENT_3D('',#863,#711,#712);
#575=AXIS2_PLACEMENT_3D('',#864,#713,#714);
#576=AXIS2_PLACEMENT_3D('',#866,#716,#717);
#577=DIRECTION('axis',(0.,0.,1.));
#578=DIRECTION('refdir',(1.,0.,0.));
#579=DIRECTION('center_axis',(0.500000000000001,0.866025403784438,0.));
#580=DIRECTION('ref_axis',(0.866025403784438,-0.500000000000001,0.));
#581=DIRECTION('',(-0.866025403784438,0.500000000000001,0.));
#582=DIRECTION('',(0.,0.,-1.));
#583=DIRECTION('',(0.866025403784438,-0.500000000000001,0.));
#584=DIRECTION('',(0.,0.,-1.));
#585=DIRECTION('center_axis',(-0.499999999999996,0.866025403784441,0.));
#586=DIRECTION('ref_axis',(0.866025403784441,0.499999999999996,0.));
#587=DIRECTION('',(-0.866025403784441,-0.499999999999996,0.));
#588=DIRECTION('',(0.866025403784441,0.499999999999996,0.));
#589=DIRECTION('',(0.,0.,-1.));
#590=DIRECTION('center_axis',(-1.,5.69766721891421E-15,0.));
#591=DIRECTION('ref_axis',(5.69766721891421E-15,1.,0.));
#592=DIRECTION('',(-5.69766721891421E-15,-1.,0.));
#593=DIRECTION('',(5.69766721891421E-15,1.,0.));
#594=DIRECTION('',(0.,0.,-1.));
#595=DIRECTION('center_axis',(-0.500000000000005,-0.866025403784436,0.));
#596=DIRECTION('ref_axis',(-0.866025403784436,0.500000000000005,0.));
#597=DIRECTION('',(0.866025403784436,-0.500000000000005,0.));
#598=DIRECTION('',(-0.866025403784435,0.500000000000005,0.));
#599=DIRECTION('',(0.,0.,-1.));
#600=DIRECTION('center_axis',(0.,-1.,0.));
#601=DIRECTION('ref_axis',(-1.,0.,0.));
#602=DIRECTION('',(1.,0.,0.));
#603=DIRECTION('',(1.,0.,0.));
#604=DIRECTION('',(0.,0.,1.));
#605=DIRECTION('center_axis',(0.499999999999995,-0.866025403784441,0.));
#606=DIRECTION('ref_axis',(-0.866025403784441,-0.499999999999995,0.));
#607=DIRECTION('',(0.866025403784441,0.499999999999995,0.));
#608=DIRECTION('',(-0.866025403784441,-0.499999999999995,0.));
#609=DIRECTION('',(0.,0.,-1.));
#610=DIRECTION('center_axis',(1.,-5.69766721891421E-15,0.));
#611=DIRECTION('ref_axis',(-5.69766721891421E-15,-1.,0.));
#612=DIRECTION('',(5.69766721891421E-15,1.,0.));
#613=DIRECTION('',(-5.69766721891421E-15,-1.,0.));
#614=DIRECTION('center_axis',(0.,0.,-1.));
#615=DIRECTION('ref_axis',(1.,0.,0.));
#616=DIRECTION('center_axis',(0.,0.,-1.));
#617=DIRECTION('ref_axis',(0.,1.,0.));
#618=DIRECTION('center_axis',(0.500000000000001,0.866025403784438,0.));
#619=DIRECTION('ref_axis',(0.866025403784438,-0.500000000000001,0.));
#620=DIRECTION('',(-0.866025403784438,0.500000000000001,0.));
#621=DIRECTION('',(0.,0.,-1.));
#622=DIRECTION('',(0.866025403784438,-0.500000000000001,0.));
#623=DIRECTION('',(0.,0.,-1.));
#624=DIRECTION('center_axis',(-0.499999999999996,0.866025403784441,0.));
#625=DIRECTION('ref_axis',(0.866025403784441,0.499999999999996,0.));
#626=DIRECTION('',(-0.866025403784441,-0.499999999999996,0.));
#627=DIRECTION('',(0.866025403784441,0.499999999999996,0.));
#628=DIRECTION('',(0.,0.,-1.));
#629=DIRECTION('center_axis',(-1.,5.69766721891421E-15,0.));
#630=DIRECTION('ref_axis',(5.69766721891421E-15,1.,0.));
#631=DIRECTION('',(-5.69766721891421E-15,-1.,0.));
#632=DIRECTION('',(5.69766721891421E-15,1.,0.));
#633=DIRECTION('',(0.,0.,-1.));
#634=DIRECTION('center_axis',(-0.500000000000005,-0.866025403784436,0.));
#635=DIRECTION('ref_axis',(-0.866025403784436,0.500000000000005,0.));
#636=DIRECTION('',(0.866025403784436,-0.500000000000005,0.));
#637=DIRECTION('',(-0.866025403784435,0.500000000000005,0.));
#638=DIRECTION('',(0.,0.,-1.));
#639=DIRECTION('center_axis',(0.,-1.,0.));
#640=DIRECTION('ref_axis',(-1.,0.,0.));
#641=DIRECTION('',(1.,0.,0.));
#642=DIRECTION('',(1.,0.,0.));
#643=DIRECTION('',(0.,0.,1.));
#644=DIRECTION('center_axis',(0.499999999999995,-0.866025403784441,0.));
#645=DIRECTION('ref_axis',(-0.866025403784441,-0.499999999999995,0.));
#646=DIRECTION('',(0.866025403784441,0.499999999999995,0.));
#647=DIRECTION('',(-0.866025403784441,-0.499999999999995,0.));
#648=DIRECTION('',(0.,0.,-1.));
#649=DIRECTION('center_axis',(1.,-5.69766721891421E-15,0.));
#650=DIRECTION('ref_axis',(-5.69766721891421E-15,-1.,0.));
#651=DIRECTION('',(5.69766721891421E-15,1.,0.));
#652=DIRECTION('',(-5.69766721891421E-15,-1.,0.));
#653=DIRECTION('center_axis',(0.,0.,-1.));
#654=DIRECTION('ref_axis',(1.,0.,0.));
#655=DIRECTION('center_axis',(0.,0.,-1.));
#656=DIRECTION('ref_axis',(0.,1.,0.));
#657=DIRECTION('center_axis',(0.,0.,1.));
#658=DIRECTION('ref_axis',(-0.707106781186549,0.707106781186546,0.));
#659=DIRECTION('center_axis',(0.,0.,-1.));
#660=DIRECTION('ref_axis',(-0.707106781186549,0.707106781186546,0.));
#661=DIRECTION('',(0.,0.,-1.));
#662=DIRECTION('center_axis',(0.,0.,-1.));
#663=DIRECTION('ref_axis',(-0.707106781186549,0.707106781186546,0.));
#664=DIRECTION('',(0.,0.,1.));
#665=DIRECTION('center_axis',(0.,-1.,0.));
#666=DIRECTION('ref_axis',(0.,0.,-1.));
#667=DIRECTION('',(1.,0.,0.));
#668=DIRECTION('',(0.,0.,1.));
#669=DIRECTION('',(-1.,0.,0.));
#670=DIRECTION('center_axis',(0.,0.,-1.));
#671=DIRECTION('ref_axis',(0.,1.,0.));
#672=DIRECTION('',(0.,-1.,0.));
#673=DIRECTION('center_axis',(0.,0.,-1.));
#674=DIRECTION('ref_axis',(-0.707106781186549,-0.707106781186546,0.));
#675=DIRECTION('',(-1.,0.,0.));
#676=DIRECTION('center_axis',(0.,0.,-1.));
#677=DIRECTION('ref_axis',(0.707106781186549,-0.707106781186546,0.));
#678=DIRECTION('',(0.,1.,0.));
#679=DIRECTION('center_axis',(0.,0.,-1.));
#680=DIRECTION('ref_axis',(0.70710678118655,0.707106781186546,0.));
#681=DIRECTION('center_axis',(0.,0.,-1.));
#682=DIRECTION('ref_axis',(0.,1.,0.));
#683=DIRECTION('center_axis',(0.,0.,-1.));
#684=DIRECTION('ref_axis',(0.,1.,0.));
#685=DIRECTION('center_axis',(0.,0.,-1.));
#686=DIRECTION('ref_axis',(0.70710678118655,0.707106781186546,0.));
#687=DIRECTION('center_axis',(0.,0.,-1.));
#688=DIRECTION('ref_axis',(0.70710678118655,0.707106781186546,0.));
#689=DIRECTION('',(0.,0.,-1.));
#690=DIRECTION('center_axis',(-1.,0.,0.));
#691=DIRECTION('ref_axis',(0.,0.,1.));
#692=DIRECTION('',(0.,0.,1.));
#693=DIRECTION('',(0.,1.,0.));
#694=DIRECTION('center_axis',(1.,0.,0.));
#695=DIRECTION('ref_axis',(0.,0.,-1.));
#696=DIRECTION('',(0.,-1.,0.));
#697=DIRECTION('',(0.,0.,-1.));
#698=DIRECTION('center_axis',(0.,0.,1.));
#699=DIRECTION('ref_axis',(0.707106781186549,-0.707106781186546,0.));
#700=DIRECTION('',(0.,0.,-1.));
#701=DIRECTION('center_axis',(0.,0.,-1.));
#702=DIRECTION('ref_axis',(0.707106781186549,-0.707106781186546,0.));
#703=DIRECTION('center_axis',(0.,1.,0.));
#704=DIRECTION('ref_axis',(0.,0.,1.));
#705=DIRECTION('',(0.,0.,1.));
#706=DIRECTION('',(1.,0.,0.));
#707=DIRECTION('center_axis',(0.,0.,-1.));
#708=DIRECTION('ref_axis',(-0.707106781186549,-0.707106781186546,0.));
#709=DIRECTION('center_axis',(0.,0.,-1.));
#710=DIRECTION('ref_axis',(-0.707106781186549,-0.707106781186546,0.));
#711=DIRECTION('center_axis',(0.,0.,-1.));
#712=DIRECTION('ref_axis',(0.,1.,0.));
#713=DIRECTION('center_axis',(0.,0.,-1.));
#714=DIRECTION('ref_axis',(0.,1.,0.));
#715=DIRECTION('',(0.,0.,-1.));
#716=DIRECTION('center_axis',(0.,0.,-1.));
#717=DIRECTION('ref_axis',(0.,1.,0.));
#718=DIRECTION('',(0.,0.,-1.));
#719=CARTESIAN_POINT('',(0.,0.,0.));
#720=CARTESIAN_POINT('Origin',(144.000002145767,22.1174997168779,384.95));
#721=CARTESIAN_POINT('',(146.700002145767,20.5586539900659,382.5));
#722=CARTESIAN_POINT('',(144.000002145767,22.1174997168779,382.5));
#723=CARTESIAN_POINT('',(148.788581338104,19.3528122311463,382.5));
#724=CARTESIAN_POINT('',(146.700002145767,20.5586539900659,384.95));
#725=CARTESIAN_POINT('',(146.700002145767,20.5586539900659,384.95));
#726=CARTESIAN_POINT('',(144.000002145767,22.1174997168779,384.95));
#727=CARTESIAN_POINT('',(144.000002145767,22.1174997168779,384.95));
#728=CARTESIAN_POINT('',(144.000002145767,22.1174997168779,384.95));
#729=CARTESIAN_POINT('Origin',(141.300002145767,20.558653990066,384.95));
#730=CARTESIAN_POINT('',(141.300002145767,20.558653990066,382.5));
#731=CARTESIAN_POINT('',(137.861422897551,18.5733893354784,382.5));
#732=CARTESIAN_POINT('',(141.300002145767,20.558653990066,384.95));
#733=CARTESIAN_POINT('',(141.300002145767,20.558653990066,384.95));
#734=CARTESIAN_POINT('',(141.300002145767,20.558653990066,384.95));
#735=CARTESIAN_POINT('Origin',(141.300002145767,17.4409625364419,384.95));
#736=CARTESIAN_POINT('',(141.300002145767,17.4409625364419,382.5));
#737=CARTESIAN_POINT('',(141.300002145767,8.72048111920938,382.5));
#738=CARTESIAN_POINT('',(141.300002145767,17.4409625364419,384.95));
#739=CARTESIAN_POINT('',(141.300002145767,17.4409625364419,384.95));
#740=CARTESIAN_POINT('',(141.300002145767,17.4409625364419,384.95));
#741=CARTESIAN_POINT('Origin',(143.59230699118,16.1174997168779,384.95));
#742=CARTESIAN_POINT('',(143.999338930959,15.8824997168779,382.5));
#743=CARTESIAN_POINT('',(147.234733760811,14.0145436409282,382.5));
#744=CARTESIAN_POINT('',(143.999338930959,15.8824997168779,384.95));
#745=CARTESIAN_POINT('',(144.000002145767,15.8821168096299,384.95));
#746=CARTESIAN_POINT('',(143.999338930959,15.8824997168779,384.95));
#747=CARTESIAN_POINT('Origin',(144.407697300354,15.8824997168779,384.95));
#748=CARTESIAN_POINT('',(144.000665360575,15.8824997168779,382.5));
#749=CARTESIAN_POINT('',(144.203849685808,15.8824997168779,382.5));
#750=CARTESIAN_POINT('',(144.000665360575,15.8824997168779,384.95));
#751=CARTESIAN_POINT('',(144.203849723061,15.8824997168779,384.95));
#752=CARTESIAN_POINT('',(144.000665360575,15.8824997168779,384.95));
#753=CARTESIAN_POINT('Origin',(146.700002145767,17.4409625364419,384.95));
#754=CARTESIAN_POINT('',(146.700002145767,17.4409625364419,382.5));
#755=CARTESIAN_POINT('',(141.911422897551,14.6762750184483,382.5));
#756=CARTESIAN_POINT('',(146.700002145767,17.4409625364419,384.95));
#757=CARTESIAN_POINT('',(146.700002145767,17.4409625364419,384.95));
#758=CARTESIAN_POINT('',(146.700002145767,17.4409625364419,384.95));
#759=CARTESIAN_POINT('Origin',(146.700002145767,20.5586539900659,384.95));
#760=CARTESIAN_POINT('',(146.700002145767,10.2793268460214,382.5));
#761=CARTESIAN_POINT('',(146.700002145767,20.5586539900659,384.95));
#762=CARTESIAN_POINT('Origin',(144.000002145767,19.1174997168779,384.95));
#763=CARTESIAN_POINT('',(144.000002145767,17.5000002831221,384.95));
#764=CARTESIAN_POINT('Origin',(144.000002145767,19.0000002831221,384.95));
#765=CARTESIAN_POINT('Origin',(144.000002145767,-15.8825002831221,384.95));
#766=CARTESIAN_POINT('',(146.700002145767,-17.4413460099341,382.5));
#767=CARTESIAN_POINT('',(144.000002145767,-15.8825002831221,382.5));
#768=CARTESIAN_POINT('',(140.561340002152,-13.8971877688537,382.5));
#769=CARTESIAN_POINT('',(146.700002145767,-17.4413460099341,384.95));
#770=CARTESIAN_POINT('',(146.700002145767,-17.4413460099341,384.95));
#771=CARTESIAN_POINT('',(144.000002145767,-15.8825002831221,384.95));
#772=CARTESIAN_POINT('',(144.000002145767,-15.8825002831221,384.95));
#773=CARTESIAN_POINT('',(144.000002145767,-15.8825002831221,384.95));
#774=CARTESIAN_POINT('Origin',(141.300002145767,-17.441346009934,384.95));
#775=CARTESIAN_POINT('',(141.300002145767,-17.441346009934,382.5));
#776=CARTESIAN_POINT('',(146.088664233503,-14.6766106645217,382.5));
#777=CARTESIAN_POINT('',(141.300002145767,-17.441346009934,384.95));
#778=CARTESIAN_POINT('',(141.300002145767,-17.441346009934,384.95));
#779=CARTESIAN_POINT('',(141.300002145767,-17.441346009934,384.95));
#780=CARTESIAN_POINT('Origin',(141.300002145767,-20.5590374635581,384.95));
#781=CARTESIAN_POINT('',(141.300002145767,-20.5590374635581,382.5));
#782=CARTESIAN_POINT('',(141.300002145767,-10.2795188807906,382.5));
#783=CARTESIAN_POINT('',(141.300002145767,-20.5590374635581,384.95));
#784=CARTESIAN_POINT('',(141.300002145767,-20.5590374635581,384.95));
#785=CARTESIAN_POINT('',(141.300002145767,-20.5590374635581,384.95));
#786=CARTESIAN_POINT('Origin',(143.59230699118,-21.8825002831221,384.95));
#787=CARTESIAN_POINT('',(143.999338930959,-22.1175002831221,382.5));
#788=CARTESIAN_POINT('',(139.007492424859,-19.2354563590717,382.5));
#789=CARTESIAN_POINT('',(143.999338930959,-22.1175002831221,384.95));
#790=CARTESIAN_POINT('',(144.000002145767,-22.1178831903701,384.95));
#791=CARTESIAN_POINT('',(143.999338930959,-22.1175002831221,384.95));
#792=CARTESIAN_POINT('Origin',(144.407697300354,-22.1175002831221,384.95));
#793=CARTESIAN_POINT('',(144.000665360575,-22.1175002831221,382.5));
#794=CARTESIAN_POINT('',(144.203849685808,-22.1175002831221,382.5));
#795=CARTESIAN_POINT('',(144.000665360575,-22.1175002831221,384.95));
#796=CARTESIAN_POINT('',(144.203849723061,-22.1175002831221,384.95));
#797=CARTESIAN_POINT('',(144.000665360575,-22.1175002831221,384.95));
#798=CARTESIAN_POINT('Origin',(146.700002145767,-20.5590374635581,384.95));
#799=CARTESIAN_POINT('',(146.700002145767,-20.5590374635581,382.5));
#800=CARTESIAN_POINT('',(150.138664233503,-18.5737249815518,382.5));
#801=CARTESIAN_POINT('',(146.700002145767,-20.5590374635581,384.95));
#802=CARTESIAN_POINT('',(146.700002145767,-20.5590374635581,384.95));
#803=CARTESIAN_POINT('',(146.700002145767,-20.5590374635581,384.95));
#804=CARTESIAN_POINT('Origin',(146.700002145767,-17.4413460099341,384.95));
#805=CARTESIAN_POINT('',(146.700002145767,-8.72067315397865,382.5));
#806=CARTESIAN_POINT('',(146.700002145767,-17.4413460099341,384.95));
#807=CARTESIAN_POINT('Origin',(144.000002145767,-18.8825002831221,384.95));
#808=CARTESIAN_POINT('',(144.000002145767,-20.5000002831221,384.95));
#809=CARTESIAN_POINT('Origin',(144.000002145767,-19.0000002831221,384.95));
#810=CARTESIAN_POINT('Origin',(143.000002071261,18.9999997019768,387.5));
#811=CARTESIAN_POINT('',(139.000002071261,18.9999997019768,389.));
#812=CARTESIAN_POINT('',(143.000002071261,22.9999997019768,389.));
#813=CARTESIAN_POINT('Origin',(143.000002071261,18.9999997019768,389.));
#814=CARTESIAN_POINT('',(143.000002071261,22.9999997019768,382.5));
#815=CARTESIAN_POINT('',(143.000002071261,22.9999997019768,387.5));
#816=CARTESIAN_POINT('',(139.000002071261,18.9999997019768,382.5));
#817=CARTESIAN_POINT('Origin',(143.000002071261,18.9999997019768,382.5));
#818=CARTESIAN_POINT('',(139.000002071261,18.9999997019768,387.5));
#819=CARTESIAN_POINT('Origin',(144.000002071261,22.9999997019768,387.5));
#820=CARTESIAN_POINT('',(145.000002071261,22.9999997019768,389.));
#821=CARTESIAN_POINT('',(144.000002071261,22.9999997019768,389.));
#822=CARTESIAN_POINT('',(145.000002071261,22.9999997019768,382.5));
#823=CARTESIAN_POINT('',(145.000002071261,22.9999997019768,387.5));
#824=CARTESIAN_POINT('',(144.000002071261,22.9999997019768,382.5));
#825=CARTESIAN_POINT('Origin',(144.000002071261,-2.98023206113385E-7,389.));
#826=CARTESIAN_POINT('',(139.000002071261,-19.0000002980232,389.));
#827=CARTESIAN_POINT('',(139.000002071261,-2.98023206113385E-7,389.));
#828=CARTESIAN_POINT('',(143.000002071261,-23.0000002980232,389.));
#829=CARTESIAN_POINT('Origin',(143.000002071261,-19.0000002980232,389.));
#830=CARTESIAN_POINT('',(145.000002071261,-23.0000002980232,389.));
#831=CARTESIAN_POINT('',(144.000002071261,-23.0000002980232,389.));
#832=CARTESIAN_POINT('',(149.000002071261,-19.0000002980232,389.));
#833=CARTESIAN_POINT('Origin',(145.000002071261,-19.0000002980232,389.));
#834=CARTESIAN_POINT('',(149.000002071261,18.9999997019768,389.));
#835=CARTESIAN_POINT('',(149.000002071261,-2.98023206113385E-7,389.));
#836=CARTESIAN_POINT('Origin',(145.000002071261,18.9999997019768,389.));
#837=CARTESIAN_POINT('',(144.000002145767,-20.5000002831221,389.));
#838=CARTESIAN_POINT('Origin',(144.000002145767,-19.0000002831221,389.));
#839=CARTESIAN_POINT('',(144.000002145767,17.5000002831221,389.));
#840=CARTESIAN_POINT('Origin',(144.000002145767,19.0000002831221,389.));
#841=CARTESIAN_POINT('Origin',(145.000002071261,18.9999997019768,387.5));
#842=CARTESIAN_POINT('',(149.000002071261,18.9999997019768,382.5));
#843=CARTESIAN_POINT('Origin',(145.000002071261,18.9999997019768,382.5));
#844=CARTESIAN_POINT('',(149.000002071261,18.9999997019768,387.5));
#845=CARTESIAN_POINT('Origin',(149.000002071261,-2.98023206113385E-7,387.5));
#846=CARTESIAN_POINT('',(149.000002071261,-19.0000002980232,382.5));
#847=CARTESIAN_POINT('',(149.000002071261,-19.0000002980232,387.5));
#848=CARTESIAN_POINT('',(149.000002071261,-2.98023206113385E-7,382.5));
#849=CARTESIAN_POINT('Origin',(139.000002071261,-2.98023206113385E-7,387.5));
#850=CARTESIAN_POINT('',(139.000002071261,-19.0000002980232,382.5));
#851=CARTESIAN_POINT('',(139.000002071261,-2.98023206113385E-7,382.5));
#852=CARTESIAN_POINT('',(139.000002071261,-19.0000002980232,387.5));
#853=CARTESIAN_POINT('Origin',(145.000002071261,-19.0000002980232,387.5));
#854=CARTESIAN_POINT('',(145.000002071261,-23.0000002980232,382.5));
#855=CARTESIAN_POINT('',(145.000002071261,-23.0000002980232,387.5));
#856=CARTESIAN_POINT('Origin',(145.000002071261,-19.0000002980232,382.5));
#857=CARTESIAN_POINT('Origin',(144.000002071261,-23.0000002980232,387.5));
#858=CARTESIAN_POINT('',(143.000002071261,-23.0000002980232,382.5));
#859=CARTESIAN_POINT('',(143.000002071261,-23.0000002980232,387.5));
#860=CARTESIAN_POINT('',(144.000002071261,-23.0000002980232,382.5));
#861=CARTESIAN_POINT('Origin',(143.000002071261,-19.0000002980232,387.5));
#862=CARTESIAN_POINT('Origin',(143.000002071261,-19.0000002980232,382.5));
#863=CARTESIAN_POINT('Origin',(144.000002071261,-2.98023206113385E-7,382.5));
#864=CARTESIAN_POINT('Origin',(144.000002145767,19.0000002831221,390.5));
#865=CARTESIAN_POINT('',(144.000002145767,17.5000002831221,390.5));
#866=CARTESIAN_POINT('Origin',(144.000002145767,-19.0000002831221,393.5));
#867=CARTESIAN_POINT('',(144.000002145767,-20.5000002831221,393.5));
#868=UNCERTAINTY_MEASURE_WITH_UNIT(LENGTH_MEASURE(0.01),#872,
'DISTANCE_ACCURACY_VALUE',
'Maximum model space distance between geometric entities at asserted c
onnectivities');
#869=UNCERTAINTY_MEASURE_WITH_UNIT(LENGTH_MEASURE(0.01),#872,
'DISTANCE_ACCURACY_VALUE',
'Maximum model space distance between geometric entities at asserted c
onnectivities');
#870=(
GEOMETRIC_REPRESENTATION_CONTEXT(3)
GLOBAL_UNCERTAINTY_ASSIGNED_CONTEXT((#868))
GLOBAL_UNIT_ASSIGNED_CONTEXT((#872,#873,#874))
REPRESENTATION_CONTEXT('','3D')
);
#871=(
GEOMETRIC_REPRESENTATION_CONTEXT(3)
GLOBAL_UNCERTAINTY_ASSIGNED_CONTEXT((#869))
GLOBAL_UNIT_ASSIGNED_CONTEXT((#872,#873,#874))
REPRESENTATION_CONTEXT('','3D')
);
#872=(
LENGTH_UNIT()
NAMED_UNIT(*)
SI_UNIT(.MILLI.,.METRE.)
);
#873=(
NAMED_UNIT(*)
PLANE_ANGLE_UNIT()
SI_UNIT($,.RADIAN.)
);
#874=(
NAMED_UNIT(*)
SI_UNIT($,.STERADIAN.)
SOLID_ANGLE_UNIT()
);
#875=SHAPE_DEFINITION_REPRESENTATION(#876,#877);
#876=PRODUCT_DEFINITION_SHAPE('',$,#879);
#877=SHAPE_REPRESENTATION('',(#536),#870);
#878=PRODUCT_DEFINITION_CONTEXT('part definition',#883,'design');
#879=PRODUCT_DEFINITION('HTD3M-270t-20t-1068mm-Chassis-V3',
'HTD3M-270t-20t-1068mm-Chassis-V3 v70',#880,#878);
#880=PRODUCT_DEFINITION_FORMATION('',$,#885);
#881=PRODUCT_RELATED_PRODUCT_CATEGORY(
'HTD3M-270t-20t-1068mm-Chassis-V3 v70',
'HTD3M-270t-20t-1068mm-Chassis-V3 v70',(#885));
#882=APPLICATION_PROTOCOL_DEFINITION('international standard',
'automotive_design',2009,#883);
#883=APPLICATION_CONTEXT(
'Core Data for Automotive Mechanical Design Process');
#884=PRODUCT_CONTEXT('part definition',#883,'mechanical');
#885=PRODUCT('HTD3M-270t-20t-1068mm-Chassis-V3',
'HTD3M-270t-20t-1068mm-Chassis-V3 v70',$,(#884));
#886=PRESENTATION_STYLE_ASSIGNMENT((#894));
#887=PRESENTATION_STYLE_ASSIGNMENT((#895));
#888=PRESENTATION_STYLE_ASSIGNMENT((#896));
#889=PRESENTATION_STYLE_ASSIGNMENT((#897));
#890=PRESENTATION_STYLE_ASSIGNMENT((#898));
#891=PRESENTATION_STYLE_ASSIGNMENT((#899));
#892=PRESENTATION_STYLE_ASSIGNMENT((#900));
#893=PRESENTATION_STYLE_ASSIGNMENT((#901));
#894=SURFACE_STYLE_USAGE(.BOTH.,#902);
#895=SURFACE_STYLE_USAGE(.BOTH.,#903);
#896=SURFACE_STYLE_USAGE(.BOTH.,#904);
#897=SURFACE_STYLE_USAGE(.BOTH.,#905);
#898=SURFACE_STYLE_USAGE(.BOTH.,#906);
#899=SURFACE_STYLE_USAGE(.BOTH.,#907);
#900=SURFACE_STYLE_USAGE(.BOTH.,#908);
#901=SURFACE_STYLE_USAGE(.BOTH.,#909);
#902=SURFACE_SIDE_STYLE('',(#910));
#903=SURFACE_SIDE_STYLE('',(#911));
#904=SURFACE_SIDE_STYLE('',(#912));
#905=SURFACE_SIDE_STYLE('',(#913));
#906=SURFACE_SIDE_STYLE('',(#914));
#907=SURFACE_SIDE_STYLE('',(#915));
#908=SURFACE_SIDE_STYLE('',(#916));
#909=SURFACE_SIDE_STYLE('',(#917));
#910=SURFACE_STYLE_FILL_AREA(#918);
#911=SURFACE_STYLE_FILL_AREA(#919);
#912=SURFACE_STYLE_FILL_AREA(#920);
#913=SURFACE_STYLE_FILL_AREA(#921);
#914=SURFACE_STYLE_FILL_AREA(#922);
#915=SURFACE_STYLE_FILL_AREA(#923);
#916=SURFACE_STYLE_FILL_AREA(#924);
#917=SURFACE_STYLE_FILL_AREA(#925);
#918=FILL_AREA_STYLE('Opaque(175,143,175)',(#926));
#919=FILL_AREA_STYLE('Opaque(159,175,143)',(#927));
#920=FILL_AREA_STYLE('Opaque(143,143,175)',(#928));
#921=FILL_AREA_STYLE('Opaque(175,159,143)',(#929));
#922=FILL_AREA_STYLE('Opaque(143,175,175)',(#930));
#923=FILL_AREA_STYLE('Steel - Satin',(#931));
#924=FILL_AREA_STYLE('Plastic - Translucent Matte (Red)',(#932));
#925=FILL_AREA_STYLE('Steel - Satin',(#933));
#926=FILL_AREA_STYLE_COLOUR('Opaque(175,143,175)',#934);
#927=FILL_AREA_STYLE_COLOUR('Opaque(159,175,143)',#935);
#928=FILL_AREA_STYLE_COLOUR('Opaque(143,143,175)',#936);
#929=FILL_AREA_STYLE_COLOUR('Opaque(175,159,143)',#937);
#930=FILL_AREA_STYLE_COLOUR('Opaque(143,175,175)',#938);
#931=FILL_AREA_STYLE_COLOUR('Steel - Satin',#939);
#932=FILL_AREA_STYLE_COLOUR('Plastic - Translucent Matte (Red)',#940);
#933=FILL_AREA_STYLE_COLOUR('Steel - Satin',#941);
#934=COLOUR_RGB('Opaque(175,143,175)',0.686274509803922,0.56078431372549,
0.686274509803922);
#935=COLOUR_RGB('Opaque(159,175,143)',0.623529411764706,0.686274509803922,
0.56078431372549);
#936=COLOUR_RGB('Opaque(143,143,175)',0.56078431372549,0.56078431372549,
0.686274509803922);
#937=COLOUR_RGB('Opaque(175,159,143)',0.686274509803922,0.623529411764706,
0.56078431372549);
#938=COLOUR_RGB('Opaque(143,175,175)',0.56078431372549,0.686274509803922,
0.686274509803922);
#939=COLOUR_RGB('Steel - Satin',0.627450980392157,0.627450980392157,0.627450980392157);
#940=COLOUR_RGB('Plastic - Translucent Matte (Red)',0.768627450980392,0.207843137254902,
0.152941176470588);
#941=COLOUR_RGB('Steel - Satin',0.552941176470588,0.227450980392157,0.227450980392157);
ENDSEC;
END-ISO-10303-21;
