ISO-10303-21;
HEADER;
/* Generated by software containing ST-Developer
 * from STEP Tools, Inc. (www.steptools.com) 
 */

FILE_DESCRIPTION(
/* description */ (''),
/* implementation_level */ '2;1');

FILE_NAME(
/* name */ 'Switch-Triangle.step',
/* time_stamp */ '2026-04-07T14:04:28+02:00',
/* author */ (''),
/* organization */ (''),
/* preprocessor_version */ 'ST-DEVELOPER v20.1',
/* originating_system */ 'Autodesk Translation Framework v14.24.0.0',
/* authorisation */ '');

FILE_SCHEMA (('AUTOMOTIVE_DESIGN { 1 0 10303 214 3 1 1 }'));
ENDSEC;

DATA;
#10=MECHANICAL_DESIGN_GEOMETRIC_PRESENTATION_REPRESENTATION('',(#13),#307);
#11=SHAPE_REPRESENTATION_RELATIONSHIP('SRR','None',#313,#12);
#12=ADVANCED_BREP_SHAPE_REPRESENTATION('',(#14),#306);
#13=STYLED_ITEM('',(#327),#14);
#14=MANIFOLD_SOLID_BREP('Switch-Triangle',#187);
#15=CYLINDRICAL_SURFACE('',#191,2.);
#16=CYLINDRICAL_SURFACE('',#202,129.915503904435);
#17=FACE_OUTER_BOUND('',#27,.T.);
#18=FACE_OUTER_BOUND('',#28,.T.);
#19=FACE_OUTER_BOUND('',#29,.T.);
#20=FACE_OUTER_BOUND('',#30,.T.);
#21=FACE_OUTER_BOUND('',#31,.T.);
#22=FACE_OUTER_BOUND('',#32,.T.);
#23=FACE_OUTER_BOUND('',#33,.T.);
#24=FACE_OUTER_BOUND('',#34,.T.);
#25=FACE_OUTER_BOUND('',#35,.T.);
#26=FACE_OUTER_BOUND('',#36,.T.);
#27=EDGE_LOOP('',(#121,#122,#123,#124));
#28=EDGE_LOOP('',(#125,#126,#127,#128));
#29=EDGE_LOOP('',(#129,#130,#131,#132,#133,#134));
#30=EDGE_LOOP('',(#135,#136,#137,#138));
#31=EDGE_LOOP('',(#139,#140,#141,#142,#143,#144));
#32=EDGE_LOOP('',(#145,#146,#147,#148));
#33=EDGE_LOOP('',(#149,#150,#151,#152,#153,#154));
#34=EDGE_LOOP('',(#155,#156,#157,#158));
#35=EDGE_LOOP('',(#159,#160,#161,#162,#163,#164));
#36=EDGE_LOOP('',(#165,#166,#167,#168));
#37=LINE('',#259,#57);
#38=LINE('',#261,#58);
#39=LINE('',#262,#59);
#40=LINE('',#268,#60);
#41=LINE('',#271,#61);
#42=LINE('',#274,#62);
#43=LINE('',#276,#63);
#44=LINE('',#278,#64);
#45=LINE('',#281,#65);
#46=LINE('',#284,#66);
#47=LINE('',#285,#67);
#48=LINE('',#288,#68);
#49=LINE('',#290,#69);
#50=LINE('',#292,#70);
#51=LINE('',#293,#71);
#52=LINE('',#295,#72);
#53=LINE('',#297,#73);
#54=LINE('',#298,#74);
#55=LINE('',#300,#75);
#56=LINE('',#302,#76);
#57=VECTOR('',#209,10.);
#58=VECTOR('',#210,10.);
#59=VECTOR('',#211,10.);
#60=VECTOR('',#216,10.);
#61=VECTOR('',#219,10.);
#62=VECTOR('',#222,10.);
#63=VECTOR('',#223,10.);
#64=VECTOR('',#224,10.);
#65=VECTOR('',#227,10.);
#66=VECTOR('',#230,10.);
#67=VECTOR('',#231,10.);
#68=VECTOR('',#234,10.);
#69=VECTOR('',#235,10.);
#70=VECTOR('',#236,10.);
#71=VECTOR('',#237,10.);
#72=VECTOR('',#240,10.);
#73=VECTOR('',#243,10.);
#74=VECTOR('',#244,10.);
#75=VECTOR('',#247,10.);
#76=VECTOR('',#250,10.);
#77=CIRCLE('',#190,129.915503904435);
#78=CIRCLE('',#192,2.);
#79=CIRCLE('',#193,2.);
#80=CIRCLE('',#195,129.915503904435);
#81=VERTEX_POINT('',#255);
#82=VERTEX_POINT('',#256);
#83=VERTEX_POINT('',#258);
#84=VERTEX_POINT('',#260);
#85=VERTEX_POINT('',#264);
#86=VERTEX_POINT('',#265);
#87=VERTEX_POINT('',#267);
#88=VERTEX_POINT('',#269);
#89=VERTEX_POINT('',#273);
#90=VERTEX_POINT('',#275);
#91=VERTEX_POINT('',#277);
#92=VERTEX_POINT('',#279);
#93=VERTEX_POINT('',#283);
#94=VERTEX_POINT('',#287);
#95=VERTEX_POINT('',#289);
#96=VERTEX_POINT('',#291);
#97=EDGE_CURVE('',#81,#82,#77,.T.);
#98=EDGE_CURVE('',#81,#83,#37,.T.);
#99=EDGE_CURVE('',#83,#84,#38,.T.);
#100=EDGE_CURVE('',#84,#82,#39,.T.);
#101=EDGE_CURVE('',#85,#86,#78,.F.);
#102=EDGE_CURVE('',#86,#87,#40,.T.);
#103=EDGE_CURVE('',#87,#88,#79,.T.);
#104=EDGE_CURVE('',#88,#85,#41,.T.);
#105=EDGE_CURVE('',#86,#89,#42,.F.);
#106=EDGE_CURVE('',#90,#85,#43,.F.);
#107=EDGE_CURVE('',#90,#91,#44,.F.);
#108=EDGE_CURVE('',#91,#92,#80,.T.);
#109=EDGE_CURVE('',#92,#89,#45,.F.);
#110=EDGE_CURVE('',#88,#93,#46,.T.);
#111=EDGE_CURVE('',#93,#90,#47,.T.);
#112=EDGE_CURVE('',#94,#87,#48,.T.);
#113=EDGE_CURVE('',#94,#95,#49,.T.);
#114=EDGE_CURVE('',#95,#96,#50,.T.);
#115=EDGE_CURVE('',#96,#93,#51,.T.);
#116=EDGE_CURVE('',#89,#94,#52,.T.);
#117=EDGE_CURVE('',#82,#92,#53,.T.);
#118=EDGE_CURVE('',#84,#95,#54,.T.);
#119=EDGE_CURVE('',#83,#96,#55,.T.);
#120=EDGE_CURVE('',#81,#91,#56,.T.);
#121=ORIENTED_EDGE('',*,*,#97,.F.);
#122=ORIENTED_EDGE('',*,*,#98,.T.);
#123=ORIENTED_EDGE('',*,*,#99,.T.);
#124=ORIENTED_EDGE('',*,*,#100,.T.);
#125=ORIENTED_EDGE('',*,*,#101,.T.);
#126=ORIENTED_EDGE('',*,*,#102,.T.);
#127=ORIENTED_EDGE('',*,*,#103,.T.);
#128=ORIENTED_EDGE('',*,*,#104,.T.);
#129=ORIENTED_EDGE('',*,*,#105,.F.);
#130=ORIENTED_EDGE('',*,*,#101,.F.);
#131=ORIENTED_EDGE('',*,*,#106,.F.);
#132=ORIENTED_EDGE('',*,*,#107,.T.);
#133=ORIENTED_EDGE('',*,*,#108,.T.);
#134=ORIENTED_EDGE('',*,*,#109,.T.);
#135=ORIENTED_EDGE('',*,*,#104,.F.);
#136=ORIENTED_EDGE('',*,*,#110,.T.);
#137=ORIENTED_EDGE('',*,*,#111,.T.);
#138=ORIENTED_EDGE('',*,*,#106,.T.);
#139=ORIENTED_EDGE('',*,*,#103,.F.);
#140=ORIENTED_EDGE('',*,*,#112,.F.);
#141=ORIENTED_EDGE('',*,*,#113,.T.);
#142=ORIENTED_EDGE('',*,*,#114,.T.);
#143=ORIENTED_EDGE('',*,*,#115,.T.);
#144=ORIENTED_EDGE('',*,*,#110,.F.);
#145=ORIENTED_EDGE('',*,*,#102,.F.);
#146=ORIENTED_EDGE('',*,*,#105,.T.);
#147=ORIENTED_EDGE('',*,*,#116,.T.);
#148=ORIENTED_EDGE('',*,*,#112,.T.);
#149=ORIENTED_EDGE('',*,*,#116,.F.);
#150=ORIENTED_EDGE('',*,*,#109,.F.);
#151=ORIENTED_EDGE('',*,*,#117,.F.);
#152=ORIENTED_EDGE('',*,*,#100,.F.);
#153=ORIENTED_EDGE('',*,*,#118,.T.);
#154=ORIENTED_EDGE('',*,*,#113,.F.);
#155=ORIENTED_EDGE('',*,*,#119,.T.);
#156=ORIENTED_EDGE('',*,*,#114,.F.);
#157=ORIENTED_EDGE('',*,*,#118,.F.);
#158=ORIENTED_EDGE('',*,*,#99,.F.);
#159=ORIENTED_EDGE('',*,*,#111,.F.);
#160=ORIENTED_EDGE('',*,*,#115,.F.);
#161=ORIENTED_EDGE('',*,*,#119,.F.);
#162=ORIENTED_EDGE('',*,*,#98,.F.);
#163=ORIENTED_EDGE('',*,*,#120,.T.);
#164=ORIENTED_EDGE('',*,*,#107,.F.);
#165=ORIENTED_EDGE('',*,*,#97,.T.);
#166=ORIENTED_EDGE('',*,*,#117,.T.);
#167=ORIENTED_EDGE('',*,*,#108,.F.);
#168=ORIENTED_EDGE('',*,*,#120,.F.);
#169=PLANE('',#189);
#170=PLANE('',#194);
#171=PLANE('',#196);
#172=PLANE('',#197);
#173=PLANE('',#198);
#174=PLANE('',#199);
#175=PLANE('',#200);
#176=PLANE('',#201);
#177=ADVANCED_FACE('',(#17),#169,.T.);
#178=ADVANCED_FACE('',(#18),#15,.T.);
#179=ADVANCED_FACE('',(#19),#170,.T.);
#180=ADVANCED_FACE('',(#20),#171,.T.);
#181=ADVANCED_FACE('',(#21),#172,.F.);
#182=ADVANCED_FACE('',(#22),#173,.T.);
#183=ADVANCED_FACE('',(#23),#174,.F.);
#184=ADVANCED_FACE('',(#24),#175,.F.);
#185=ADVANCED_FACE('',(#25),#176,.F.);
#186=ADVANCED_FACE('',(#26),#16,.F.);
#187=CLOSED_SHELL('',(#177,#178,#179,#180,#181,#182,#183,#184,#185,#186));
#188=AXIS2_PLACEMENT_3D('',#253,#203,#204);
#189=AXIS2_PLACEMENT_3D('',#254,#205,#206);
#190=AXIS2_PLACEMENT_3D('',#257,#207,#208);
#191=AXIS2_PLACEMENT_3D('',#263,#212,#213);
#192=AXIS2_PLACEMENT_3D('',#266,#214,#215);
#193=AXIS2_PLACEMENT_3D('',#270,#217,#218);
#194=AXIS2_PLACEMENT_3D('',#272,#220,#221);
#195=AXIS2_PLACEMENT_3D('',#280,#225,#226);
#196=AXIS2_PLACEMENT_3D('',#282,#228,#229);
#197=AXIS2_PLACEMENT_3D('',#286,#232,#233);
#198=AXIS2_PLACEMENT_3D('',#294,#238,#239);
#199=AXIS2_PLACEMENT_3D('',#296,#241,#242);
#200=AXIS2_PLACEMENT_3D('',#299,#245,#246);
#201=AXIS2_PLACEMENT_3D('',#301,#248,#249);
#202=AXIS2_PLACEMENT_3D('',#303,#251,#252);
#203=DIRECTION('axis',(0.,0.,1.));
#204=DIRECTION('refdir',(1.,0.,0.));
#205=DIRECTION('center_axis',(0.,0.,1.));
#206=DIRECTION('ref_axis',(0.,1.,0.));
#207=DIRECTION('center_axis',(0.,0.,-1.));
#208=DIRECTION('ref_axis',(0.707106781186548,-0.707106781186548,0.));
#209=DIRECTION('',(-1.,0.,0.));
#210=DIRECTION('',(0.,-1.,0.));
#211=DIRECTION('',(1.,0.,0.));
#212=DIRECTION('center_axis',(0.,0.,1.));
#213=DIRECTION('ref_axis',(1.,1.47196168001604E-16,0.));
#214=DIRECTION('center_axis',(0.,0.,1.));
#215=DIRECTION('ref_axis',(1.,1.47196168001604E-16,0.));
#216=DIRECTION('',(0.,0.,-1.));
#217=DIRECTION('center_axis',(0.,0.,1.));
#218=DIRECTION('ref_axis',(1.,1.47196168001604E-16,0.));
#219=DIRECTION('',(0.,0.,1.));
#220=DIRECTION('center_axis',(0.,0.,1.));
#221=DIRECTION('ref_axis',(0.,1.,0.));
#222=DIRECTION('',(0.707106781186548,0.707106781186548,0.));
#223=DIRECTION('',(-0.707106781186548,0.707106781186548,0.));
#224=DIRECTION('',(1.,0.,0.));
#225=DIRECTION('center_axis',(0.,0.,-1.));
#226=DIRECTION('ref_axis',(0.707106781186548,-0.707106781186548,0.));
#227=DIRECTION('',(-1.,0.,0.));
#228=DIRECTION('center_axis',(0.707106781186548,0.707106781186548,0.));
#229=DIRECTION('ref_axis',(0.,0.,-1.));
#230=DIRECTION('',(-0.707106781186548,0.707106781186548,0.));
#231=DIRECTION('',(0.,0.,1.));
#232=DIRECTION('center_axis',(0.,0.,1.));
#233=DIRECTION('ref_axis',(0.,1.,0.));
#234=DIRECTION('',(0.707106781186548,0.707106781186548,0.));
#235=DIRECTION('',(-1.,0.,0.));
#236=DIRECTION('',(0.,1.,0.));
#237=DIRECTION('',(1.,0.,0.));
#238=DIRECTION('center_axis',(0.707106781186548,-0.707106781186548,0.));
#239=DIRECTION('ref_axis',(0.,0.,-1.));
#240=DIRECTION('',(0.,0.,-1.));
#241=DIRECTION('center_axis',(0.,1.,0.));
#242=DIRECTION('ref_axis',(0.,0.,-1.));
#243=DIRECTION('',(0.,0.,1.));
#244=DIRECTION('',(0.,0.,-1.));
#245=DIRECTION('center_axis',(1.,0.,0.));
#246=DIRECTION('ref_axis',(0.,0.,-1.));
#247=DIRECTION('',(0.,0.,-1.));
#248=DIRECTION('center_axis',(0.,-1.,0.));
#249=DIRECTION('ref_axis',(0.,0.,1.));
#250=DIRECTION('',(0.,0.,1.));
#251=DIRECTION('center_axis',(0.,0.,-1.));
#252=DIRECTION('ref_axis',(0.707106781186548,-0.707106781186548,0.));
#253=CARTESIAN_POINT('',(0.,0.,0.));
#254=CARTESIAN_POINT('Origin',(130.,1.77635683940025E-14,396.5));
#255=CARTESIAN_POINT('',(129.819251864827,5.00000000000002,396.5));
#256=CARTESIAN_POINT('',(129.819251864827,-4.99999999999998,396.5));
#257=CARTESIAN_POINT('Origin',(-7.105427357601E-14,0.,396.5));
#258=CARTESIAN_POINT('',(125.,5.00000000000002,396.5));
#259=CARTESIAN_POINT('',(130.,5.00000000000002,396.5));
#260=CARTESIAN_POINT('',(125.,-4.99999999999998,396.5));
#261=CARTESIAN_POINT('',(125.,1.77635683940025E-14,396.5));
#262=CARTESIAN_POINT('',(130.,-4.99999999999998,396.5));
#263=CARTESIAN_POINT('Origin',(132.171572875254,1.70002900645727E-14,395.5));
#264=CARTESIAN_POINT('',(133.585786437627,1.41421356237311,397.5));
#265=CARTESIAN_POINT('',(133.585786437627,-1.41421356237307,397.5));
#266=CARTESIAN_POINT('Origin',(132.171572875254,1.70002900645727E-14,397.5));
#267=CARTESIAN_POINT('',(133.585786437627,-1.41421356237307,394.5));
#268=CARTESIAN_POINT('',(133.585786437627,-1.41421356237307,395.5));
#269=CARTESIAN_POINT('',(133.585786437627,1.41421356237311,394.5));
#270=CARTESIAN_POINT('Origin',(132.171572875254,1.70002900645727E-14,394.5));
#271=CARTESIAN_POINT('',(133.585786437627,1.41421356237311,395.5));
#272=CARTESIAN_POINT('Origin',(130.,1.77635683940025E-14,397.5));
#273=CARTESIAN_POINT('',(130.,-4.99999999999998,397.5));
#274=CARTESIAN_POINT('',(132.5,-2.49999999999998,397.5));
#275=CARTESIAN_POINT('',(130.,5.00000000000002,397.5));
#276=CARTESIAN_POINT('',(132.5,2.50000000000002,397.5));
#277=CARTESIAN_POINT('',(129.819251864827,5.00000000000002,397.5));
#278=CARTESIAN_POINT('',(130.,5.00000000000002,397.5));
#279=CARTESIAN_POINT('',(129.819251864827,-4.99999999999998,397.5));
#280=CARTESIAN_POINT('Origin',(-7.105427357601E-14,0.,397.5));
#281=CARTESIAN_POINT('',(130.,-4.99999999999998,397.5));
#282=CARTESIAN_POINT('Origin',(132.5,2.50000000000002,395.5));
#283=CARTESIAN_POINT('',(130.,5.00000000000002,394.5));
#284=CARTESIAN_POINT('',(132.5,2.50000000000002,394.5));
#285=CARTESIAN_POINT('',(130.,5.00000000000002,395.5));
#286=CARTESIAN_POINT('Origin',(130.,1.77635683940025E-14,394.5));
#287=CARTESIAN_POINT('',(130.,-4.99999999999998,394.5));
#288=CARTESIAN_POINT('',(132.5,-2.49999999999998,394.5));
#289=CARTESIAN_POINT('',(125.,-4.99999999999998,394.5));
#290=CARTESIAN_POINT('',(130.,-4.99999999999998,394.5));
#291=CARTESIAN_POINT('',(125.,5.00000000000002,394.5));
#292=CARTESIAN_POINT('',(125.,1.77635683940025E-14,394.5));
#293=CARTESIAN_POINT('',(130.,5.00000000000002,394.5));
#294=CARTESIAN_POINT('Origin',(132.5,-2.49999999999998,395.5));
#295=CARTESIAN_POINT('',(130.,-4.99999999999998,395.5));
#296=CARTESIAN_POINT('Origin',(130.,-4.99999999999998,395.5));
#297=CARTESIAN_POINT('',(129.819251864827,-4.99999999999998,396.5));
#298=CARTESIAN_POINT('',(125.,-4.99999999999998,395.5));
#299=CARTESIAN_POINT('Origin',(125.,1.77635683940025E-14,395.5));
#300=CARTESIAN_POINT('',(125.,5.00000000000002,395.5));
#301=CARTESIAN_POINT('Origin',(130.,5.00000000000002,395.5));
#302=CARTESIAN_POINT('',(129.819251864827,5.00000000000002,396.5));
#303=CARTESIAN_POINT('Origin',(-7.105427357601E-14,0.,396.5));
#304=UNCERTAINTY_MEASURE_WITH_UNIT(LENGTH_MEASURE(0.01),#308,
'DISTANCE_ACCURACY_VALUE',
'Maximum model space distance between geometric entities at asserted c
onnectivities');
#305=UNCERTAINTY_MEASURE_WITH_UNIT(LENGTH_MEASURE(0.01),#308,
'DISTANCE_ACCURACY_VALUE',
'Maximum model space distance between geometric entities at asserted c
onnectivities');
#306=(
GEOMETRIC_REPRESENTATION_CONTEXT(3)
GLOBAL_UNCERTAINTY_ASSIGNED_CONTEXT((#304))
GLOBAL_UNIT_ASSIGNED_CONTEXT((#308,#309,#310))
REPRESENTATION_CONTEXT('','3D')
);
#307=(
GEOMETRIC_REPRESENTATION_CONTEXT(3)
GLOBAL_UNCERTAINTY_ASSIGNED_CONTEXT((#305))
GLOBAL_UNIT_ASSIGNED_CONTEXT((#308,#309,#310))
REPRESENTATION_CONTEXT('','3D')
);
#308=(
LENGTH_UNIT()
NAMED_UNIT(*)
SI_UNIT(.MILLI.,.METRE.)
);
#309=(
NAMED_UNIT(*)
PLANE_ANGLE_UNIT()
SI_UNIT($,.RADIAN.)
);
#310=(
NAMED_UNIT(*)
SI_UNIT($,.STERADIAN.)
SOLID_ANGLE_UNIT()
);
#311=SHAPE_DEFINITION_REPRESENTATION(#312,#313);
#312=PRODUCT_DEFINITION_SHAPE('',$,#315);
#313=SHAPE_REPRESENTATION('',(#188),#306);
#314=PRODUCT_DEFINITION_CONTEXT('part definition',#319,'design');
#315=PRODUCT_DEFINITION('HTD3M-270t-20t-1068mm-Chassis-V3',
'HTD3M-270t-20t-1068mm-Chassis-V3 v70',#316,#314);
#316=PRODUCT_DEFINITION_FORMATION('',$,#321);
#317=PRODUCT_RELATED_PRODUCT_CATEGORY(
'HTD3M-270t-20t-1068mm-Chassis-V3 v70',
'HTD3M-270t-20t-1068mm-Chassis-V3 v70',(#321));
#318=APPLICATION_PROTOCOL_DEFINITION('international standard',
'automotive_design',2009,#319);
#319=APPLICATION_CONTEXT(
'Core Data for Automotive Mechanical Design Process');
#320=PRODUCT_CONTEXT('part definition',#319,'mechanical');
#321=PRODUCT('HTD3M-270t-20t-1068mm-Chassis-V3',
'HTD3M-270t-20t-1068mm-Chassis-V3 v70',$,(#320));
#322=PRESENTATION_STYLE_ASSIGNMENT((#330));
#323=PRESENTATION_STYLE_ASSIGNMENT((#331));
#324=PRESENTATION_STYLE_ASSIGNMENT((#332));
#325=PRESENTATION_STYLE_ASSIGNMENT((#333));
#326=PRESENTATION_STYLE_ASSIGNMENT((#334));
#327=PRESENTATION_STYLE_ASSIGNMENT((#335));
#328=PRESENTATION_STYLE_ASSIGNMENT((#336));
#329=PRESENTATION_STYLE_ASSIGNMENT((#337));
#330=SURFACE_STYLE_USAGE(.BOTH.,#338);
#331=SURFACE_STYLE_USAGE(.BOTH.,#339);
#332=SURFACE_STYLE_USAGE(.BOTH.,#340);
#333=SURFACE_STYLE_USAGE(.BOTH.,#341);
#334=SURFACE_STYLE_USAGE(.BOTH.,#342);
#335=SURFACE_STYLE_USAGE(.BOTH.,#343);
#336=SURFACE_STYLE_USAGE(.BOTH.,#344);
#337=SURFACE_STYLE_USAGE(.BOTH.,#345);
#338=SURFACE_SIDE_STYLE('',(#346));
#339=SURFACE_SIDE_STYLE('',(#347));
#340=SURFACE_SIDE_STYLE('',(#348));
#341=SURFACE_SIDE_STYLE('',(#349));
#342=SURFACE_SIDE_STYLE('',(#350));
#343=SURFACE_SIDE_STYLE('',(#351));
#344=SURFACE_SIDE_STYLE('',(#352));
#345=SURFACE_SIDE_STYLE('',(#353));
#346=SURFACE_STYLE_FILL_AREA(#354);
#347=SURFACE_STYLE_FILL_AREA(#355);
#348=SURFACE_STYLE_FILL_AREA(#356);
#349=SURFACE_STYLE_FILL_AREA(#357);
#350=SURFACE_STYLE_FILL_AREA(#358);
#351=SURFACE_STYLE_FILL_AREA(#359);
#352=SURFACE_STYLE_FILL_AREA(#360);
#353=SURFACE_STYLE_FILL_AREA(#361);
#354=FILL_AREA_STYLE('Opaque(175,143,175)',(#362));
#355=FILL_AREA_STYLE('Opaque(159,175,143)',(#363));
#356=FILL_AREA_STYLE('Opaque(143,143,175)',(#364));
#357=FILL_AREA_STYLE('Opaque(175,159,143)',(#365));
#358=FILL_AREA_STYLE('Opaque(143,175,175)',(#366));
#359=FILL_AREA_STYLE('Steel - Satin',(#367));
#360=FILL_AREA_STYLE('Plastic - Translucent Matte (Red)',(#368));
#361=FILL_AREA_STYLE('Steel - Satin',(#369));
#362=FILL_AREA_STYLE_COLOUR('Opaque(175,143,175)',#370);
#363=FILL_AREA_STYLE_COLOUR('Opaque(159,175,143)',#371);
#364=FILL_AREA_STYLE_COLOUR('Opaque(143,143,175)',#372);
#365=FILL_AREA_STYLE_COLOUR('Opaque(175,159,143)',#373);
#366=FILL_AREA_STYLE_COLOUR('Opaque(143,175,175)',#374);
#367=FILL_AREA_STYLE_COLOUR('Steel - Satin',#375);
#368=FILL_AREA_STYLE_COLOUR('Plastic - Translucent Matte (Red)',#376);
#369=FILL_AREA_STYLE_COLOUR('Steel - Satin',#377);
#370=COLOUR_RGB('Opaque(175,143,175)',0.686274509803922,0.56078431372549,
0.686274509803922);
#371=COLOUR_RGB('Opaque(159,175,143)',0.623529411764706,0.686274509803922,
0.56078431372549);
#372=COLOUR_RGB('Opaque(143,143,175)',0.56078431372549,0.56078431372549,
0.686274509803922);
#373=COLOUR_RGB('Opaque(175,159,143)',0.686274509803922,0.623529411764706,
0.56078431372549);
#374=COLOUR_RGB('Opaque(143,175,175)',0.56078431372549,0.686274509803922,
0.686274509803922);
#375=COLOUR_RGB('Steel - Satin',0.627450980392157,0.627450980392157,0.627450980392157);
#376=COLOUR_RGB('Plastic - Translucent Matte (Red)',0.768627450980392,0.207843137254902,
0.152941176470588);
#377=COLOUR_RGB('Steel - Satin',0.552941176470588,0.227450980392157,0.227450980392157);
ENDSEC;
END-ISO-10303-21;
