ISO-10303-21;
HEADER;
/* Generated by software containing ST-Developer
 * from STEP Tools, Inc. (www.steptools.com) 
 */

FILE_DESCRIPTION(
/* description */ (''),
/* implementation_level */ '2;1');

FILE_NAME(
/* name */ 'Tension-Roller-Frame.step',
/* time_stamp */ '2026-04-07T14:09:35+02:00',
/* author */ (''),
/* organization */ (''),
/* preprocessor_version */ 'ST-DEVELOPER v20.1',
/* originating_system */ 'Autodesk Translation Framework v14.24.0.0',
/* authorisation */ '');

FILE_SCHEMA (('AUTOMOTIVE_DESIGN { 1 0 10303 214 3 1 1 }'));
ENDSEC;

DATA;
#10=MECHANICAL_DESIGN_GEOMETRIC_PRESENTATION_REPRESENTATION('',(#13),#1823);
#11=SHAPE_REPRESENTATION_RELATIONSHIP('SRR','None',#1829,#12);
#12=ADVANCED_BREP_SHAPE_REPRESENTATION('',(#14),#1822);
#13=STYLED_ITEM('',(#1844),#14);
#14=MANIFOLD_SOLID_BREP('Tension-roller-Frame-00mm',#1033);
#15=FACE_BOUND('',#136,.T.);
#16=FACE_BOUND('',#140,.T.);
#17=FACE_BOUND('',#141,.T.);
#18=FACE_BOUND('',#142,.T.);
#19=FACE_BOUND('',#144,.T.);
#20=FACE_BOUND('',#146,.T.);
#21=FACE_BOUND('',#150,.T.);
#22=FACE_BOUND('',#153,.T.);
#23=FACE_BOUND('',#162,.T.);
#24=FACE_BOUND('',#165,.T.);
#25=FACE_BOUND('',#168,.T.);
#26=FACE_BOUND('',#176,.T.);
#27=FACE_BOUND('',#178,.T.);
#28=FACE_BOUND('',#182,.T.);
#29=PLANE('',#1044);
#30=PLANE('',#1045);
#31=PLANE('',#1056);
#32=PLANE('',#1057);
#33=PLANE('',#1065);
#34=PLANE('',#1072);
#35=PLANE('',#1080);
#36=PLANE('',#1081);
#37=PLANE('',#1090);
#38=PLANE('',#1094);
#39=PLANE('',#1101);
#40=PLANE('',#1106);
#41=PLANE('',#1109);
#42=PLANE('',#1112);
#43=PLANE('',#1113);
#44=PLANE('',#1116);
#45=PLANE('',#1118);
#46=PLANE('',#1121);
#47=PLANE('',#1125);
#48=PLANE('',#1127);
#49=PLANE('',#1129);
#50=PLANE('',#1130);
#51=PLANE('',#1135);
#52=PLANE('',#1136);
#53=ELLIPSE('',#1040,2.35849528301415,2.);
#54=ELLIPSE('',#1041,2.02142631951787,2.);
#55=ELLIPSE('',#1043,2.08806130178211,2.);
#56=ELLIPSE('',#1047,2.08806130178211,2.);
#57=ELLIPSE('',#1048,2.02142631951787,2.);
#58=ELLIPSE('',#1050,2.35849528301415,2.);
#59=ELLIPSE('',#1052,2.35849528301415,2.);
#60=ELLIPSE('',#1053,2.02142631951785,2.);
#61=ELLIPSE('',#1055,2.08806130178211,2.);
#62=ELLIPSE('',#1059,2.08806130178211,2.);
#63=ELLIPSE('',#1060,2.02142631951788,2.);
#64=ELLIPSE('',#1062,2.35849528301415,2.);
#65=FACE_OUTER_BOUND('',#117,.T.);
#66=FACE_OUTER_BOUND('',#118,.T.);
#67=FACE_OUTER_BOUND('',#119,.T.);
#68=FACE_OUTER_BOUND('',#120,.T.);
#69=FACE_OUTER_BOUND('',#121,.T.);
#70=FACE_OUTER_BOUND('',#122,.T.);
#71=FACE_OUTER_BOUND('',#123,.T.);
#72=FACE_OUTER_BOUND('',#124,.T.);
#73=FACE_OUTER_BOUND('',#125,.T.);
#74=FACE_OUTER_BOUND('',#126,.T.);
#75=FACE_OUTER_BOUND('',#127,.T.);
#76=FACE_OUTER_BOUND('',#128,.T.);
#77=FACE_OUTER_BOUND('',#129,.T.);
#78=FACE_OUTER_BOUND('',#130,.T.);
#79=FACE_OUTER_BOUND('',#131,.T.);
#80=FACE_OUTER_BOUND('',#132,.T.);
#81=FACE_OUTER_BOUND('',#133,.T.);
#82=FACE_OUTER_BOUND('',#134,.T.);
#83=FACE_OUTER_BOUND('',#135,.T.);
#84=FACE_OUTER_BOUND('',#137,.T.);
#85=FACE_OUTER_BOUND('',#138,.T.);
#86=FACE_OUTER_BOUND('',#139,.T.);
#87=FACE_OUTER_BOUND('',#143,.T.);
#88=FACE_OUTER_BOUND('',#145,.T.);
#89=FACE_OUTER_BOUND('',#147,.T.);
#90=FACE_OUTER_BOUND('',#148,.T.);
#91=FACE_OUTER_BOUND('',#149,.T.);
#92=FACE_OUTER_BOUND('',#151,.T.);
#93=FACE_OUTER_BOUND('',#152,.T.);
#94=FACE_OUTER_BOUND('',#154,.T.);
#95=FACE_OUTER_BOUND('',#155,.T.);
#96=FACE_OUTER_BOUND('',#156,.T.);
#97=FACE_OUTER_BOUND('',#157,.T.);
#98=FACE_OUTER_BOUND('',#158,.T.);
#99=FACE_OUTER_BOUND('',#159,.T.);
#100=FACE_OUTER_BOUND('',#160,.T.);
#101=FACE_OUTER_BOUND('',#161,.T.);
#102=FACE_OUTER_BOUND('',#163,.T.);
#103=FACE_OUTER_BOUND('',#164,.T.);
#104=FACE_OUTER_BOUND('',#166,.T.);
#105=FACE_OUTER_BOUND('',#167,.T.);
#106=FACE_OUTER_BOUND('',#169,.T.);
#107=FACE_OUTER_BOUND('',#170,.T.);
#108=FACE_OUTER_BOUND('',#171,.T.);
#109=FACE_OUTER_BOUND('',#172,.T.);
#110=FACE_OUTER_BOUND('',#173,.T.);
#111=FACE_OUTER_BOUND('',#174,.T.);
#112=FACE_OUTER_BOUND('',#175,.T.);
#113=FACE_OUTER_BOUND('',#177,.T.);
#114=FACE_OUTER_BOUND('',#179,.T.);
#115=FACE_OUTER_BOUND('',#180,.T.);
#116=FACE_OUTER_BOUND('',#181,.T.);
#117=EDGE_LOOP('',(#657,#658,#659,#660,#661));
#118=EDGE_LOOP('',(#662,#663,#664,#665,#666));
#119=EDGE_LOOP('',(#667,#668,#669,#670));
#120=EDGE_LOOP('',(#671,#672,#673,#674));
#121=EDGE_LOOP('',(#675,#676,#677,#678));
#122=EDGE_LOOP('',(#679,#680,#681,#682));
#123=EDGE_LOOP('',(#683,#684,#685,#686));
#124=EDGE_LOOP('',(#687,#688,#689,#690));
#125=EDGE_LOOP('',(#691,#692,#693,#694));
#126=EDGE_LOOP('',(#695,#696,#697,#698));
#127=EDGE_LOOP('',(#699,#700,#701,#702));
#128=EDGE_LOOP('',(#703,#704,#705,#706));
#129=EDGE_LOOP('',(#707,#708,#709,#710));
#130=EDGE_LOOP('',(#711,#712,#713,#714));
#131=EDGE_LOOP('',(#715,#716,#717,#718));
#132=EDGE_LOOP('',(#719,#720,#721,#722));
#133=EDGE_LOOP('',(#723,#724,#725,#726,#727,#728,#729));
#134=EDGE_LOOP('',(#730,#731,#732,#733));
#135=EDGE_LOOP('',(#734,#735,#736,#737,#738,#739,#740));
#136=EDGE_LOOP('',(#741));
#137=EDGE_LOOP('',(#742,#743,#744,#745,#746,#747,#748));
#138=EDGE_LOOP('',(#749,#750,#751,#752,#753,#754,#755,#756,#757,#758));
#139=EDGE_LOOP('',(#759,#760,#761,#762,#763,#764,#765,#766,#767,#768,#769,
#770));
#140=EDGE_LOOP('',(#771));
#141=EDGE_LOOP('',(#772,#773,#774,#775));
#142=EDGE_LOOP('',(#776));
#143=EDGE_LOOP('',(#777,#778,#779,#780,#781,#782,#783));
#144=EDGE_LOOP('',(#784));
#145=EDGE_LOOP('',(#785,#786,#787,#788,#789,#790));
#146=EDGE_LOOP('',(#791,#792,#793,#794));
#147=EDGE_LOOP('',(#795,#796,#797,#798));
#148=EDGE_LOOP('',(#799,#800,#801,#802));
#149=EDGE_LOOP('',(#803,#804,#805,#806,#807,#808,#809));
#150=EDGE_LOOP('',(#810));
#151=EDGE_LOOP('',(#811,#812,#813,#814));
#152=EDGE_LOOP('',(#815,#816,#817,#818,#819,#820,#821));
#153=EDGE_LOOP('',(#822));
#154=EDGE_LOOP('',(#823,#824,#825,#826,#827,#828,#829,#830,#831,#832));
#155=EDGE_LOOP('',(#833,#834,#835,#836));
#156=EDGE_LOOP('',(#837,#838,#839,#840));
#157=EDGE_LOOP('',(#841,#842,#843,#844));
#158=EDGE_LOOP('',(#845,#846,#847,#848));
#159=EDGE_LOOP('',(#849,#850,#851,#852,#853,#854,#855,#856,#857,#858,#859,
#860,#861,#862,#863,#864,#865,#866,#867,#868,#869,#870));
#160=EDGE_LOOP('',(#871,#872,#873,#874));
#161=EDGE_LOOP('',(#875,#876,#877,#878,#879,#880,#881));
#162=EDGE_LOOP('',(#882));
#163=EDGE_LOOP('',(#883,#884,#885,#886));
#164=EDGE_LOOP('',(#887,#888,#889,#890,#891,#892,#893));
#165=EDGE_LOOP('',(#894));
#166=EDGE_LOOP('',(#895,#896,#897,#898));
#167=EDGE_LOOP('',(#899,#900,#901,#902));
#168=EDGE_LOOP('',(#903));
#169=EDGE_LOOP('',(#904,#905,#906,#907));
#170=EDGE_LOOP('',(#908,#909,#910,#911));
#171=EDGE_LOOP('',(#912,#913,#914,#915));
#172=EDGE_LOOP('',(#916,#917,#918,#919));
#173=EDGE_LOOP('',(#920,#921,#922,#923));
#174=EDGE_LOOP('',(#924,#925,#926,#927));
#175=EDGE_LOOP('',(#928,#929,#930,#931));
#176=EDGE_LOOP('',(#932,#933));
#177=EDGE_LOOP('',(#934,#935,#936,#937));
#178=EDGE_LOOP('',(#938,#939));
#179=EDGE_LOOP('',(#940,#941,#942,#943));
#180=EDGE_LOOP('',(#944,#945,#946,#947));
#181=EDGE_LOOP('',(#948,#949,#950,#951));
#182=EDGE_LOOP('',(#952));
#183=B_SPLINE_CURVE_WITH_KNOTS('',3,(#1442,#1443,#1444,#1445,#1446,#1447,
#1448,#1449,#1450,#1451),.UNSPECIFIED.,.F.,.F.,(4,2,2,2,4),(0.,0.0454894750008188,
0.0909789500016376,0.136336290138544,0.18169363027545),.UNSPECIFIED.);
#184=B_SPLINE_CURVE_WITH_KNOTS('',3,(#1452,#1453,#1454,#1455,#1456,#1457,
#1458,#1459,#1460,#1461,#1462,#1463,#1464,#1465,#1466,#1467,#1468,#1469,
#1470,#1471,#1472,#1473,#1474,#1475,#1476,#1477),.UNSPECIFIED.,.F.,.F.,
(4,2,2,2,2,2,2,2,2,2,2,2,4),(0.18169363027545,0.227383254426628,0.273072878577805,
0.31861010399081,0.364147329403814,0.409684554816818,0.455221780229823,
0.500911404381001,0.546601028532178,0.591958368669084,0.637315708805991,
0.682805183806809,0.728294658807628),.UNSPECIFIED.);
#185=B_SPLINE_CURVE_WITH_KNOTS('',3,(#1484,#1485,#1486,#1487,#1488,#1489,
#1490,#1491,#1492,#1493),.UNSPECIFIED.,.F.,.F.,(4,2,2,2,4),(0.,0.0454909092730043,
0.0909818185460087,0.136346403308541,0.181710988071073),.UNSPECIFIED.);
#186=B_SPLINE_CURVE_WITH_KNOTS('',3,(#1494,#1495,#1496,#1497,#1498,#1499,
#1500,#1501,#1502,#1503,#1504,#1505,#1506,#1507,#1508,#1509,#1510,#1511,
#1512,#1513,#1514,#1515,#1516,#1517,#1518,#1519),.UNSPECIFIED.,.F.,.F.,
(4,2,2,2,2,2,2,2,2,2,2,2,4),(0.181710988071073,0.227387817976806,0.273064647882539,
0.318600419850312,0.364136191818085,0.409671963785858,0.45520773575363,
0.500884565659365,0.5465613955651,0.591925980327632,0.637290565090164,0.682781474363168,
0.728272383636173),.UNSPECIFIED.);
#187=B_SPLINE_CURVE_WITH_KNOTS('',3,(#1597,#1598,#1599,#1600,#1601,#1602,
#1603,#1604,#1605,#1606),.UNSPECIFIED.,.F.,.F.,(4,2,2,2,4),(0.31415078470746,
0.394993103232013,0.475835421756567,0.550852159933688,0.625868898110809),
 .UNSPECIFIED.);
#188=B_SPLINE_CURVE_WITH_KNOTS('',3,(#1627,#1628,#1629,#1630,#1631,#1632,
#1633,#1634,#1635,#1636),.UNSPECIFIED.,.F.,.F.,(4,2,2,2,4),(0.625868896678639,
0.700885634873474,0.775902373068309,0.856744691242741,0.937587009417174),
 .UNSPECIFIED.);
#189=LINE('',#1440,#281);
#190=LINE('',#1482,#282);
#191=LINE('',#1523,#283);
#192=LINE('',#1527,#284);
#193=LINE('',#1531,#285);
#194=LINE('',#1534,#286);
#195=LINE('',#1537,#287);
#196=LINE('',#1539,#288);
#197=LINE('',#1540,#289);
#198=LINE('',#1543,#290);
#199=LINE('',#1544,#291);
#200=LINE('',#1549,#292);
#201=LINE('',#1553,#293);
#202=LINE('',#1558,#294);
#203=LINE('',#1562,#295);
#204=LINE('',#1566,#296);
#205=LINE('',#1569,#297);
#206=LINE('',#1572,#298);
#207=LINE('',#1574,#299);
#208=LINE('',#1575,#300);
#209=LINE('',#1578,#301);
#210=LINE('',#1579,#302);
#211=LINE('',#1584,#303);
#212=LINE('',#1588,#304);
#213=LINE('',#1595,#305);
#214=LINE('',#1607,#306);
#215=LINE('',#1610,#307);
#216=LINE('',#1612,#308);
#217=LINE('',#1613,#309);
#218=LINE('',#1618,#310);
#219=LINE('',#1622,#311);
#220=LINE('',#1638,#312);
#221=LINE('',#1641,#313);
#222=LINE('',#1646,#314);
#223=LINE('',#1650,#315);
#224=LINE('',#1653,#316);
#225=LINE('',#1658,#317);
#226=LINE('',#1662,#318);
#227=LINE('',#1665,#319);
#228=LINE('',#1668,#320);
#229=LINE('',#1670,#321);
#230=LINE('',#1671,#322);
#231=LINE('',#1673,#323);
#232=LINE('',#1674,#324);
#233=LINE('',#1676,#325);
#234=LINE('',#1678,#326);
#235=LINE('',#1682,#327);
#236=LINE('',#1686,#328);
#237=LINE('',#1690,#329);
#238=LINE('',#1698,#330);
#239=LINE('',#1701,#331);
#240=LINE('',#1706,#332);
#241=LINE('',#1710,#333);
#242=LINE('',#1713,#334);
#243=LINE('',#1718,#335);
#244=LINE('',#1719,#336);
#245=LINE('',#1720,#337);
#246=LINE('',#1725,#338);
#247=LINE('',#1728,#339);
#248=LINE('',#1731,#340);
#249=LINE('',#1736,#341);
#250=LINE('',#1739,#342);
#251=LINE('',#1742,#343);
#252=LINE('',#1747,#344);
#253=LINE('',#1750,#345);
#254=LINE('',#1753,#346);
#255=LINE('',#1756,#347);
#256=LINE('',#1757,#348);
#257=LINE('',#1762,#349);
#258=LINE('',#1763,#350);
#259=LINE('',#1766,#351);
#260=LINE('',#1769,#352);
#261=LINE('',#1773,#353);
#262=LINE('',#1776,#354);
#263=LINE('',#1778,#355);
#264=LINE('',#1780,#356);
#265=LINE('',#1781,#357);
#266=LINE('',#1782,#358);
#267=LINE('',#1783,#359);
#268=LINE('',#1785,#360);
#269=LINE('',#1787,#361);
#270=LINE('',#1791,#362);
#271=LINE('',#1794,#363);
#272=LINE('',#1799,#364);
#273=LINE('',#1802,#365);
#274=LINE('',#1803,#366);
#275=LINE('',#1805,#367);
#276=LINE('',#1807,#368);
#277=LINE('',#1811,#369);
#278=LINE('',#1813,#370);
#279=LINE('',#1815,#371);
#280=LINE('',#1817,#372);
#281=VECTOR('',#1143,1.2);
#282=VECTOR('',#1148,1.2);
#283=VECTOR('',#1151,10.);
#284=VECTOR('',#1154,10.);
#285=VECTOR('',#1159,10.);
#286=VECTOR('',#1162,10.);
#287=VECTOR('',#1165,10.);
#288=VECTOR('',#1166,10.);
#289=VECTOR('',#1167,10.);
#290=VECTOR('',#1170,10.);
#291=VECTOR('',#1171,10.);
#292=VECTOR('',#1176,10.);
#293=VECTOR('',#1181,10.);
#294=VECTOR('',#1186,10.);
#295=VECTOR('',#1189,10.);
#296=VECTOR('',#1194,10.);
#297=VECTOR('',#1197,10.);
#298=VECTOR('',#1200,10.);
#299=VECTOR('',#1201,10.);
#300=VECTOR('',#1202,10.);
#301=VECTOR('',#1205,10.);
#302=VECTOR('',#1206,10.);
#303=VECTOR('',#1211,10.);
#304=VECTOR('',#1216,10.);
#305=VECTOR('',#1223,10.);
#306=VECTOR('',#1224,10.);
#307=VECTOR('',#1227,10.);
#308=VECTOR('',#1228,10.);
#309=VECTOR('',#1229,10.);
#310=VECTOR('',#1234,10.);
#311=VECTOR('',#1237,10.);
#312=VECTOR('',#1242,10.);
#313=VECTOR('',#1245,10.);
#314=VECTOR('',#1250,10.);
#315=VECTOR('',#1253,10.);
#316=VECTOR('',#1256,10.);
#317=VECTOR('',#1261,10.);
#318=VECTOR('',#1264,10.);
#319=VECTOR('',#1267,10.);
#320=VECTOR('',#1270,10.);
#321=VECTOR('',#1271,10.);
#322=VECTOR('',#1272,10.);
#323=VECTOR('',#1273,10.);
#324=VECTOR('',#1274,10.);
#325=VECTOR('',#1277,10.);
#326=VECTOR('',#1278,10.);
#327=VECTOR('',#1281,10.);
#328=VECTOR('',#1284,10.);
#329=VECTOR('',#1287,10.);
#330=VECTOR('',#1294,10.);
#331=VECTOR('',#1297,10.);
#332=VECTOR('',#1302,10.);
#333=VECTOR('',#1305,10.);
#334=VECTOR('',#1308,10.);
#335=VECTOR('',#1313,10.);
#336=VECTOR('',#1314,10.);
#337=VECTOR('',#1315,10.);
#338=VECTOR('',#1318,10.);
#339=VECTOR('',#1321,10.);
#340=VECTOR('',#1324,10.);
#341=VECTOR('',#1331,10.);
#342=VECTOR('',#1334,10.);
#343=VECTOR('',#1337,10.);
#344=VECTOR('',#1342,10.);
#345=VECTOR('',#1345,10.);
#346=VECTOR('',#1348,10.);
#347=VECTOR('',#1351,10.);
#348=VECTOR('',#1352,10.);
#349=VECTOR('',#1357,10.);
#350=VECTOR('',#1358,10.);
#351=VECTOR('',#1361,10.);
#352=VECTOR('',#1366,10.);
#353=VECTOR('',#1371,10.);
#354=VECTOR('',#1374,10.);
#355=VECTOR('',#1377,10.);
#356=VECTOR('',#1378,10.);
#357=VECTOR('',#1379,10.);
#358=VECTOR('',#1380,10.);
#359=VECTOR('',#1381,10.);
#360=VECTOR('',#1384,10.);
#361=VECTOR('',#1387,10.);
#362=VECTOR('',#1392,10.);
#363=VECTOR('',#1395,10.);
#364=VECTOR('',#1402,10.);
#365=VECTOR('',#1407,10.);
#366=VECTOR('',#1408,10.);
#367=VECTOR('',#1411,10.);
#368=VECTOR('',#1414,10.);
#369=VECTOR('',#1421,4.);
#370=VECTOR('',#1424,4.);
#371=VECTOR('',#1427,4.);
#372=VECTOR('',#1430,4.);
#373=CIRCLE('',#1036,1.2);
#374=CIRCLE('',#1038,1.2);
#375=CIRCLE('',#1064,2.);
#376=CIRCLE('',#1067,50.);
#377=CIRCLE('',#1068,50.);
#378=CIRCLE('',#1069,50.);
#379=CIRCLE('',#1071,2.);
#380=CIRCLE('',#1073,50.);
#381=CIRCLE('',#1074,10.);
#382=CIRCLE('',#1075,10.);
#383=CIRCLE('',#1076,4.);
#384=CIRCLE('',#1078,50.);
#385=CIRCLE('',#1079,50.);
#386=CIRCLE('',#1082,10.);
#387=CIRCLE('',#1083,10.);
#388=CIRCLE('',#1084,10.);
#389=CIRCLE('',#1085,10.);
#390=CIRCLE('',#1086,4.);
#391=CIRCLE('',#1087,4.2);
#392=CIRCLE('',#1088,4.2);
#393=CIRCLE('',#1089,4.);
#394=CIRCLE('',#1091,10.);
#395=CIRCLE('',#1092,10.);
#396=CIRCLE('',#1093,4.);
#397=CIRCLE('',#1095,4.2);
#398=CIRCLE('',#1096,4.2);
#399=CIRCLE('',#1098,10.);
#400=CIRCLE('',#1100,10.);
#401=CIRCLE('',#1102,10.);
#402=CIRCLE('',#1103,4.);
#403=CIRCLE('',#1105,10.);
#404=CIRCLE('',#1107,10.);
#405=CIRCLE('',#1108,4.);
#406=CIRCLE('',#1111,10.);
#407=CIRCLE('',#1115,10.);
#408=CIRCLE('',#1119,4.);
#409=CIRCLE('',#1122,10.);
#410=CIRCLE('',#1123,4.);
#411=VERTEX_POINT('',#1437);
#412=VERTEX_POINT('',#1439);
#413=VERTEX_POINT('',#1441);
#414=VERTEX_POINT('',#1479);
#415=VERTEX_POINT('',#1481);
#416=VERTEX_POINT('',#1483);
#417=VERTEX_POINT('',#1521);
#418=VERTEX_POINT('',#1522);
#419=VERTEX_POINT('',#1524);
#420=VERTEX_POINT('',#1526);
#421=VERTEX_POINT('',#1530);
#422=VERTEX_POINT('',#1532);
#423=VERTEX_POINT('',#1536);
#424=VERTEX_POINT('',#1538);
#425=VERTEX_POINT('',#1542);
#426=VERTEX_POINT('',#1546);
#427=VERTEX_POINT('',#1548);
#428=VERTEX_POINT('',#1552);
#429=VERTEX_POINT('',#1556);
#430=VERTEX_POINT('',#1557);
#431=VERTEX_POINT('',#1559);
#432=VERTEX_POINT('',#1561);
#433=VERTEX_POINT('',#1565);
#434=VERTEX_POINT('',#1567);
#435=VERTEX_POINT('',#1571);
#436=VERTEX_POINT('',#1573);
#437=VERTEX_POINT('',#1577);
#438=VERTEX_POINT('',#1581);
#439=VERTEX_POINT('',#1583);
#440=VERTEX_POINT('',#1587);
#441=VERTEX_POINT('',#1591);
#442=VERTEX_POINT('',#1592);
#443=VERTEX_POINT('',#1594);
#444=VERTEX_POINT('',#1596);
#445=VERTEX_POINT('',#1609);
#446=VERTEX_POINT('',#1611);
#447=VERTEX_POINT('',#1615);
#448=VERTEX_POINT('',#1617);
#449=VERTEX_POINT('',#1619);
#450=VERTEX_POINT('',#1621);
#451=VERTEX_POINT('',#1625);
#452=VERTEX_POINT('',#1626);
#453=VERTEX_POINT('',#1637);
#454=VERTEX_POINT('',#1639);
#455=VERTEX_POINT('',#1643);
#456=VERTEX_POINT('',#1645);
#457=VERTEX_POINT('',#1647);
#458=VERTEX_POINT('',#1649);
#459=VERTEX_POINT('',#1651);
#460=VERTEX_POINT('',#1654);
#461=VERTEX_POINT('',#1657);
#462=VERTEX_POINT('',#1659);
#463=VERTEX_POINT('',#1661);
#464=VERTEX_POINT('',#1663);
#465=VERTEX_POINT('',#1667);
#466=VERTEX_POINT('',#1669);
#467=VERTEX_POINT('',#1672);
#468=VERTEX_POINT('',#1677);
#469=VERTEX_POINT('',#1679);
#470=VERTEX_POINT('',#1681);
#471=VERTEX_POINT('',#1683);
#472=VERTEX_POINT('',#1685);
#473=VERTEX_POINT('',#1687);
#474=VERTEX_POINT('',#1689);
#475=VERTEX_POINT('',#1692);
#476=VERTEX_POINT('',#1694);
#477=VERTEX_POINT('',#1695);
#478=VERTEX_POINT('',#1697);
#479=VERTEX_POINT('',#1699);
#480=VERTEX_POINT('',#1702);
#481=VERTEX_POINT('',#1705);
#482=VERTEX_POINT('',#1707);
#483=VERTEX_POINT('',#1709);
#484=VERTEX_POINT('',#1711);
#485=VERTEX_POINT('',#1714);
#486=VERTEX_POINT('',#1717);
#487=VERTEX_POINT('',#1721);
#488=VERTEX_POINT('',#1722);
#489=VERTEX_POINT('',#1724);
#490=VERTEX_POINT('',#1726);
#491=VERTEX_POINT('',#1730);
#492=VERTEX_POINT('',#1734);
#493=VERTEX_POINT('',#1738);
#494=VERTEX_POINT('',#1740);
#495=VERTEX_POINT('',#1743);
#496=VERTEX_POINT('',#1746);
#497=VERTEX_POINT('',#1748);
#498=VERTEX_POINT('',#1752);
#499=VERTEX_POINT('',#1754);
#500=VERTEX_POINT('',#1758);
#501=VERTEX_POINT('',#1761);
#502=VERTEX_POINT('',#1765);
#503=VERTEX_POINT('',#1772);
#504=VERTEX_POINT('',#1774);
#505=VERTEX_POINT('',#1779);
#506=VERTEX_POINT('',#1788);
#507=VERTEX_POINT('',#1793);
#508=VERTEX_POINT('',#1796);
#509=EDGE_CURVE('',#411,#411,#373,.T.);
#510=EDGE_CURVE('',#411,#412,#189,.T.);
#511=EDGE_CURVE('',#413,#412,#183,.T.);
#512=EDGE_CURVE('',#412,#413,#184,.T.);
#513=EDGE_CURVE('',#414,#414,#374,.T.);
#514=EDGE_CURVE('',#414,#415,#190,.T.);
#515=EDGE_CURVE('',#416,#415,#185,.T.);
#516=EDGE_CURVE('',#415,#416,#186,.T.);
#517=EDGE_CURVE('',#417,#418,#191,.T.);
#518=EDGE_CURVE('',#418,#419,#53,.T.);
#519=EDGE_CURVE('',#419,#420,#192,.T.);
#520=EDGE_CURVE('',#420,#417,#54,.T.);
#521=EDGE_CURVE('',#420,#421,#193,.T.);
#522=EDGE_CURVE('',#421,#422,#55,.T.);
#523=EDGE_CURVE('',#422,#417,#194,.T.);
#524=EDGE_CURVE('',#423,#417,#195,.F.);
#525=EDGE_CURVE('',#424,#423,#196,.T.);
#526=EDGE_CURVE('',#418,#424,#197,.F.);
#527=EDGE_CURVE('',#422,#425,#198,.F.);
#528=EDGE_CURVE('',#423,#425,#199,.T.);
#529=EDGE_CURVE('',#425,#426,#56,.T.);
#530=EDGE_CURVE('',#426,#427,#200,.T.);
#531=EDGE_CURVE('',#427,#423,#57,.T.);
#532=EDGE_CURVE('',#427,#428,#201,.T.);
#533=EDGE_CURVE('',#428,#424,#58,.T.);
#534=EDGE_CURVE('',#429,#430,#202,.T.);
#535=EDGE_CURVE('',#430,#431,#59,.T.);
#536=EDGE_CURVE('',#431,#432,#203,.T.);
#537=EDGE_CURVE('',#432,#429,#60,.T.);
#538=EDGE_CURVE('',#432,#433,#204,.T.);
#539=EDGE_CURVE('',#433,#434,#61,.T.);
#540=EDGE_CURVE('',#434,#429,#205,.T.);
#541=EDGE_CURVE('',#435,#429,#206,.F.);
#542=EDGE_CURVE('',#436,#435,#207,.T.);
#543=EDGE_CURVE('',#430,#436,#208,.F.);
#544=EDGE_CURVE('',#434,#437,#209,.F.);
#545=EDGE_CURVE('',#435,#437,#210,.T.);
#546=EDGE_CURVE('',#437,#438,#62,.T.);
#547=EDGE_CURVE('',#438,#439,#211,.T.);
#548=EDGE_CURVE('',#439,#435,#63,.T.);
#549=EDGE_CURVE('',#439,#440,#212,.T.);
#550=EDGE_CURVE('',#440,#436,#64,.T.);
#551=EDGE_CURVE('',#441,#442,#375,.T.);
#552=EDGE_CURVE('',#442,#443,#213,.T.);
#553=EDGE_CURVE('',#443,#444,#187,.T.);
#554=EDGE_CURVE('',#444,#441,#214,.T.);
#555=EDGE_CURVE('',#445,#444,#215,.T.);
#556=EDGE_CURVE('',#446,#445,#216,.T.);
#557=EDGE_CURVE('',#441,#446,#217,.F.);
#558=EDGE_CURVE('',#443,#447,#376,.T.);
#559=EDGE_CURVE('',#447,#448,#218,.T.);
#560=EDGE_CURVE('',#448,#449,#377,.F.);
#561=EDGE_CURVE('',#449,#450,#219,.T.);
#562=EDGE_CURVE('',#450,#445,#378,.T.);
#563=EDGE_CURVE('',#451,#452,#188,.T.);
#564=EDGE_CURVE('',#452,#453,#220,.T.);
#565=EDGE_CURVE('',#453,#454,#379,.T.);
#566=EDGE_CURVE('',#454,#451,#221,.T.);
#567=EDGE_CURVE('',#455,#452,#380,.T.);
#568=EDGE_CURVE('',#456,#455,#222,.F.);
#569=EDGE_CURVE('',#457,#456,#381,.T.);
#570=EDGE_CURVE('',#457,#458,#223,.F.);
#571=EDGE_CURVE('',#459,#458,#382,.T.);
#572=EDGE_CURVE('',#459,#453,#224,.F.);
#573=EDGE_CURVE('',#460,#460,#383,.T.);
#574=EDGE_CURVE('',#451,#461,#225,.T.);
#575=EDGE_CURVE('',#461,#462,#384,.T.);
#576=EDGE_CURVE('',#462,#463,#226,.T.);
#577=EDGE_CURVE('',#463,#464,#385,.F.);
#578=EDGE_CURVE('',#464,#455,#227,.T.);
#579=EDGE_CURVE('',#464,#465,#228,.F.);
#580=EDGE_CURVE('',#466,#465,#229,.T.);
#581=EDGE_CURVE('',#466,#431,#230,.T.);
#582=EDGE_CURVE('',#440,#467,#231,.T.);
#583=EDGE_CURVE('',#456,#467,#232,.T.);
#584=EDGE_CURVE('',#463,#449,#233,.F.);
#585=EDGE_CURVE('',#468,#448,#234,.F.);
#586=EDGE_CURVE('',#469,#468,#386,.F.);
#587=EDGE_CURVE('',#469,#470,#235,.F.);
#588=EDGE_CURVE('',#471,#470,#387,.F.);
#589=EDGE_CURVE('',#471,#472,#236,.F.);
#590=EDGE_CURVE('',#473,#472,#388,.F.);
#591=EDGE_CURVE('',#473,#474,#237,.F.);
#592=EDGE_CURVE('',#465,#474,#389,.F.);
#593=EDGE_CURVE('',#475,#475,#390,.F.);
#594=EDGE_CURVE('',#476,#477,#391,.F.);
#595=EDGE_CURVE('',#477,#478,#238,.T.);
#596=EDGE_CURVE('',#478,#479,#392,.F.);
#597=EDGE_CURVE('',#479,#476,#239,.T.);
#598=EDGE_CURVE('',#480,#480,#393,.T.);
#599=EDGE_CURVE('',#442,#481,#240,.F.);
#600=EDGE_CURVE('',#482,#481,#394,.T.);
#601=EDGE_CURVE('',#482,#483,#241,.T.);
#602=EDGE_CURVE('',#484,#483,#395,.T.);
#603=EDGE_CURVE('',#447,#484,#242,.F.);
#604=EDGE_CURVE('',#485,#485,#396,.T.);
#605=EDGE_CURVE('',#486,#461,#243,.T.);
#606=EDGE_CURVE('',#446,#486,#244,.F.);
#607=EDGE_CURVE('',#462,#450,#245,.F.);
#608=EDGE_CURVE('',#487,#488,#397,.T.);
#609=EDGE_CURVE('',#488,#489,#246,.F.);
#610=EDGE_CURVE('',#489,#490,#398,.T.);
#611=EDGE_CURVE('',#490,#487,#247,.F.);
#612=EDGE_CURVE('',#474,#491,#248,.T.);
#613=EDGE_CURVE('',#491,#466,#399,.T.);
#614=EDGE_CURVE('',#467,#492,#400,.T.);
#615=EDGE_CURVE('',#492,#457,#249,.T.);
#616=EDGE_CURVE('',#493,#438,#250,.T.);
#617=EDGE_CURVE('',#494,#493,#401,.T.);
#618=EDGE_CURVE('',#492,#494,#251,.F.);
#619=EDGE_CURVE('',#495,#495,#402,.F.);
#620=EDGE_CURVE('',#468,#496,#252,.T.);
#621=EDGE_CURVE('',#496,#497,#403,.T.);
#622=EDGE_CURVE('',#497,#469,#253,.T.);
#623=EDGE_CURVE('',#498,#426,#254,.T.);
#624=EDGE_CURVE('',#499,#498,#404,.T.);
#625=EDGE_CURVE('',#497,#499,#255,.F.);
#626=EDGE_CURVE('',#428,#496,#256,.T.);
#627=EDGE_CURVE('',#500,#500,#405,.T.);
#628=EDGE_CURVE('',#501,#484,#257,.T.);
#629=EDGE_CURVE('',#501,#419,#258,.T.);
#630=EDGE_CURVE('',#483,#502,#259,.T.);
#631=EDGE_CURVE('',#502,#501,#406,.T.);
#632=EDGE_CURVE('',#486,#454,#260,.F.);
#633=EDGE_CURVE('',#481,#503,#261,.T.);
#634=EDGE_CURVE('',#503,#504,#407,.T.);
#635=EDGE_CURVE('',#504,#482,#262,.T.);
#636=EDGE_CURVE('',#493,#459,#263,.T.);
#637=EDGE_CURVE('',#433,#505,#264,.T.);
#638=EDGE_CURVE('',#472,#505,#265,.T.);
#639=EDGE_CURVE('',#498,#471,#266,.T.);
#640=EDGE_CURVE('',#421,#503,#267,.T.);
#641=EDGE_CURVE('',#470,#499,#268,.T.);
#642=EDGE_CURVE('',#504,#502,#269,.F.);
#643=EDGE_CURVE('',#506,#506,#408,.T.);
#644=EDGE_CURVE('',#458,#494,#270,.T.);
#645=EDGE_CURVE('',#507,#491,#271,.F.);
#646=EDGE_CURVE('',#505,#507,#409,.T.);
#647=EDGE_CURVE('',#508,#508,#410,.F.);
#648=EDGE_CURVE('',#507,#473,#272,.T.);
#649=EDGE_CURVE('',#479,#489,#273,.T.);
#650=EDGE_CURVE('',#490,#478,#274,.T.);
#651=EDGE_CURVE('',#477,#487,#275,.T.);
#652=EDGE_CURVE('',#488,#476,#276,.T.);
#653=EDGE_CURVE('',#506,#485,#277,.T.);
#654=EDGE_CURVE('',#480,#500,#278,.T.);
#655=EDGE_CURVE('',#475,#508,#279,.T.);
#656=EDGE_CURVE('',#495,#460,#280,.T.);
#657=ORIENTED_EDGE('',*,*,#509,.F.);
#658=ORIENTED_EDGE('',*,*,#510,.T.);
#659=ORIENTED_EDGE('',*,*,#511,.F.);
#660=ORIENTED_EDGE('',*,*,#512,.F.);
#661=ORIENTED_EDGE('',*,*,#510,.F.);
#662=ORIENTED_EDGE('',*,*,#513,.F.);
#663=ORIENTED_EDGE('',*,*,#514,.T.);
#664=ORIENTED_EDGE('',*,*,#515,.F.);
#665=ORIENTED_EDGE('',*,*,#516,.F.);
#666=ORIENTED_EDGE('',*,*,#514,.F.);
#667=ORIENTED_EDGE('',*,*,#517,.T.);
#668=ORIENTED_EDGE('',*,*,#518,.T.);
#669=ORIENTED_EDGE('',*,*,#519,.T.);
#670=ORIENTED_EDGE('',*,*,#520,.T.);
#671=ORIENTED_EDGE('',*,*,#521,.T.);
#672=ORIENTED_EDGE('',*,*,#522,.T.);
#673=ORIENTED_EDGE('',*,*,#523,.T.);
#674=ORIENTED_EDGE('',*,*,#520,.F.);
#675=ORIENTED_EDGE('',*,*,#517,.F.);
#676=ORIENTED_EDGE('',*,*,#524,.F.);
#677=ORIENTED_EDGE('',*,*,#525,.F.);
#678=ORIENTED_EDGE('',*,*,#526,.F.);
#679=ORIENTED_EDGE('',*,*,#523,.F.);
#680=ORIENTED_EDGE('',*,*,#527,.T.);
#681=ORIENTED_EDGE('',*,*,#528,.F.);
#682=ORIENTED_EDGE('',*,*,#524,.T.);
#683=ORIENTED_EDGE('',*,*,#528,.T.);
#684=ORIENTED_EDGE('',*,*,#529,.T.);
#685=ORIENTED_EDGE('',*,*,#530,.T.);
#686=ORIENTED_EDGE('',*,*,#531,.T.);
#687=ORIENTED_EDGE('',*,*,#532,.T.);
#688=ORIENTED_EDGE('',*,*,#533,.T.);
#689=ORIENTED_EDGE('',*,*,#525,.T.);
#690=ORIENTED_EDGE('',*,*,#531,.F.);
#691=ORIENTED_EDGE('',*,*,#534,.T.);
#692=ORIENTED_EDGE('',*,*,#535,.T.);
#693=ORIENTED_EDGE('',*,*,#536,.T.);
#694=ORIENTED_EDGE('',*,*,#537,.T.);
#695=ORIENTED_EDGE('',*,*,#538,.T.);
#696=ORIENTED_EDGE('',*,*,#539,.T.);
#697=ORIENTED_EDGE('',*,*,#540,.T.);
#698=ORIENTED_EDGE('',*,*,#537,.F.);
#699=ORIENTED_EDGE('',*,*,#534,.F.);
#700=ORIENTED_EDGE('',*,*,#541,.F.);
#701=ORIENTED_EDGE('',*,*,#542,.F.);
#702=ORIENTED_EDGE('',*,*,#543,.F.);
#703=ORIENTED_EDGE('',*,*,#540,.F.);
#704=ORIENTED_EDGE('',*,*,#544,.T.);
#705=ORIENTED_EDGE('',*,*,#545,.F.);
#706=ORIENTED_EDGE('',*,*,#541,.T.);
#707=ORIENTED_EDGE('',*,*,#545,.T.);
#708=ORIENTED_EDGE('',*,*,#546,.T.);
#709=ORIENTED_EDGE('',*,*,#547,.T.);
#710=ORIENTED_EDGE('',*,*,#548,.T.);
#711=ORIENTED_EDGE('',*,*,#549,.T.);
#712=ORIENTED_EDGE('',*,*,#550,.T.);
#713=ORIENTED_EDGE('',*,*,#542,.T.);
#714=ORIENTED_EDGE('',*,*,#548,.F.);
#715=ORIENTED_EDGE('',*,*,#551,.T.);
#716=ORIENTED_EDGE('',*,*,#552,.T.);
#717=ORIENTED_EDGE('',*,*,#553,.T.);
#718=ORIENTED_EDGE('',*,*,#554,.T.);
#719=ORIENTED_EDGE('',*,*,#554,.F.);
#720=ORIENTED_EDGE('',*,*,#555,.F.);
#721=ORIENTED_EDGE('',*,*,#556,.F.);
#722=ORIENTED_EDGE('',*,*,#557,.F.);
#723=ORIENTED_EDGE('',*,*,#553,.F.);
#724=ORIENTED_EDGE('',*,*,#558,.T.);
#725=ORIENTED_EDGE('',*,*,#559,.T.);
#726=ORIENTED_EDGE('',*,*,#560,.T.);
#727=ORIENTED_EDGE('',*,*,#561,.T.);
#728=ORIENTED_EDGE('',*,*,#562,.T.);
#729=ORIENTED_EDGE('',*,*,#555,.T.);
#730=ORIENTED_EDGE('',*,*,#563,.T.);
#731=ORIENTED_EDGE('',*,*,#564,.T.);
#732=ORIENTED_EDGE('',*,*,#565,.T.);
#733=ORIENTED_EDGE('',*,*,#566,.T.);
#734=ORIENTED_EDGE('',*,*,#564,.F.);
#735=ORIENTED_EDGE('',*,*,#567,.F.);
#736=ORIENTED_EDGE('',*,*,#568,.F.);
#737=ORIENTED_EDGE('',*,*,#569,.F.);
#738=ORIENTED_EDGE('',*,*,#570,.T.);
#739=ORIENTED_EDGE('',*,*,#571,.F.);
#740=ORIENTED_EDGE('',*,*,#572,.T.);
#741=ORIENTED_EDGE('',*,*,#573,.T.);
#742=ORIENTED_EDGE('',*,*,#563,.F.);
#743=ORIENTED_EDGE('',*,*,#574,.T.);
#744=ORIENTED_EDGE('',*,*,#575,.T.);
#745=ORIENTED_EDGE('',*,*,#576,.T.);
#746=ORIENTED_EDGE('',*,*,#577,.T.);
#747=ORIENTED_EDGE('',*,*,#578,.T.);
#748=ORIENTED_EDGE('',*,*,#567,.T.);
#749=ORIENTED_EDGE('',*,*,#578,.F.);
#750=ORIENTED_EDGE('',*,*,#579,.T.);
#751=ORIENTED_EDGE('',*,*,#580,.F.);
#752=ORIENTED_EDGE('',*,*,#581,.T.);
#753=ORIENTED_EDGE('',*,*,#535,.F.);
#754=ORIENTED_EDGE('',*,*,#543,.T.);
#755=ORIENTED_EDGE('',*,*,#550,.F.);
#756=ORIENTED_EDGE('',*,*,#582,.T.);
#757=ORIENTED_EDGE('',*,*,#583,.F.);
#758=ORIENTED_EDGE('',*,*,#568,.T.);
#759=ORIENTED_EDGE('',*,*,#577,.F.);
#760=ORIENTED_EDGE('',*,*,#584,.T.);
#761=ORIENTED_EDGE('',*,*,#560,.F.);
#762=ORIENTED_EDGE('',*,*,#585,.F.);
#763=ORIENTED_EDGE('',*,*,#586,.F.);
#764=ORIENTED_EDGE('',*,*,#587,.T.);
#765=ORIENTED_EDGE('',*,*,#588,.F.);
#766=ORIENTED_EDGE('',*,*,#589,.T.);
#767=ORIENTED_EDGE('',*,*,#590,.F.);
#768=ORIENTED_EDGE('',*,*,#591,.T.);
#769=ORIENTED_EDGE('',*,*,#592,.F.);
#770=ORIENTED_EDGE('',*,*,#579,.F.);
#771=ORIENTED_EDGE('',*,*,#593,.T.);
#772=ORIENTED_EDGE('',*,*,#594,.T.);
#773=ORIENTED_EDGE('',*,*,#595,.T.);
#774=ORIENTED_EDGE('',*,*,#596,.T.);
#775=ORIENTED_EDGE('',*,*,#597,.T.);
#776=ORIENTED_EDGE('',*,*,#598,.F.);
#777=ORIENTED_EDGE('',*,*,#552,.F.);
#778=ORIENTED_EDGE('',*,*,#599,.T.);
#779=ORIENTED_EDGE('',*,*,#600,.F.);
#780=ORIENTED_EDGE('',*,*,#601,.T.);
#781=ORIENTED_EDGE('',*,*,#602,.F.);
#782=ORIENTED_EDGE('',*,*,#603,.F.);
#783=ORIENTED_EDGE('',*,*,#558,.F.);
#784=ORIENTED_EDGE('',*,*,#604,.F.);
#785=ORIENTED_EDGE('',*,*,#575,.F.);
#786=ORIENTED_EDGE('',*,*,#605,.F.);
#787=ORIENTED_EDGE('',*,*,#606,.F.);
#788=ORIENTED_EDGE('',*,*,#556,.T.);
#789=ORIENTED_EDGE('',*,*,#562,.F.);
#790=ORIENTED_EDGE('',*,*,#607,.F.);
#791=ORIENTED_EDGE('',*,*,#608,.T.);
#792=ORIENTED_EDGE('',*,*,#609,.T.);
#793=ORIENTED_EDGE('',*,*,#610,.T.);
#794=ORIENTED_EDGE('',*,*,#611,.T.);
#795=ORIENTED_EDGE('',*,*,#592,.T.);
#796=ORIENTED_EDGE('',*,*,#612,.T.);
#797=ORIENTED_EDGE('',*,*,#613,.T.);
#798=ORIENTED_EDGE('',*,*,#580,.T.);
#799=ORIENTED_EDGE('',*,*,#569,.T.);
#800=ORIENTED_EDGE('',*,*,#583,.T.);
#801=ORIENTED_EDGE('',*,*,#614,.T.);
#802=ORIENTED_EDGE('',*,*,#615,.T.);
#803=ORIENTED_EDGE('',*,*,#547,.F.);
#804=ORIENTED_EDGE('',*,*,#616,.F.);
#805=ORIENTED_EDGE('',*,*,#617,.F.);
#806=ORIENTED_EDGE('',*,*,#618,.F.);
#807=ORIENTED_EDGE('',*,*,#614,.F.);
#808=ORIENTED_EDGE('',*,*,#582,.F.);
#809=ORIENTED_EDGE('',*,*,#549,.F.);
#810=ORIENTED_EDGE('',*,*,#619,.T.);
#811=ORIENTED_EDGE('',*,*,#586,.T.);
#812=ORIENTED_EDGE('',*,*,#620,.T.);
#813=ORIENTED_EDGE('',*,*,#621,.T.);
#814=ORIENTED_EDGE('',*,*,#622,.T.);
#815=ORIENTED_EDGE('',*,*,#530,.F.);
#816=ORIENTED_EDGE('',*,*,#623,.F.);
#817=ORIENTED_EDGE('',*,*,#624,.F.);
#818=ORIENTED_EDGE('',*,*,#625,.F.);
#819=ORIENTED_EDGE('',*,*,#621,.F.);
#820=ORIENTED_EDGE('',*,*,#626,.F.);
#821=ORIENTED_EDGE('',*,*,#532,.F.);
#822=ORIENTED_EDGE('',*,*,#627,.F.);
#823=ORIENTED_EDGE('',*,*,#559,.F.);
#824=ORIENTED_EDGE('',*,*,#603,.T.);
#825=ORIENTED_EDGE('',*,*,#628,.F.);
#826=ORIENTED_EDGE('',*,*,#629,.T.);
#827=ORIENTED_EDGE('',*,*,#518,.F.);
#828=ORIENTED_EDGE('',*,*,#526,.T.);
#829=ORIENTED_EDGE('',*,*,#533,.F.);
#830=ORIENTED_EDGE('',*,*,#626,.T.);
#831=ORIENTED_EDGE('',*,*,#620,.F.);
#832=ORIENTED_EDGE('',*,*,#585,.T.);
#833=ORIENTED_EDGE('',*,*,#602,.T.);
#834=ORIENTED_EDGE('',*,*,#630,.T.);
#835=ORIENTED_EDGE('',*,*,#631,.T.);
#836=ORIENTED_EDGE('',*,*,#628,.T.);
#837=ORIENTED_EDGE('',*,*,#566,.F.);
#838=ORIENTED_EDGE('',*,*,#632,.F.);
#839=ORIENTED_EDGE('',*,*,#605,.T.);
#840=ORIENTED_EDGE('',*,*,#574,.F.);
#841=ORIENTED_EDGE('',*,*,#576,.F.);
#842=ORIENTED_EDGE('',*,*,#607,.T.);
#843=ORIENTED_EDGE('',*,*,#561,.F.);
#844=ORIENTED_EDGE('',*,*,#584,.F.);
#845=ORIENTED_EDGE('',*,*,#600,.T.);
#846=ORIENTED_EDGE('',*,*,#633,.T.);
#847=ORIENTED_EDGE('',*,*,#634,.T.);
#848=ORIENTED_EDGE('',*,*,#635,.T.);
#849=ORIENTED_EDGE('',*,*,#551,.F.);
#850=ORIENTED_EDGE('',*,*,#557,.T.);
#851=ORIENTED_EDGE('',*,*,#606,.T.);
#852=ORIENTED_EDGE('',*,*,#632,.T.);
#853=ORIENTED_EDGE('',*,*,#565,.F.);
#854=ORIENTED_EDGE('',*,*,#572,.F.);
#855=ORIENTED_EDGE('',*,*,#636,.F.);
#856=ORIENTED_EDGE('',*,*,#616,.T.);
#857=ORIENTED_EDGE('',*,*,#546,.F.);
#858=ORIENTED_EDGE('',*,*,#544,.F.);
#859=ORIENTED_EDGE('',*,*,#539,.F.);
#860=ORIENTED_EDGE('',*,*,#637,.T.);
#861=ORIENTED_EDGE('',*,*,#638,.F.);
#862=ORIENTED_EDGE('',*,*,#589,.F.);
#863=ORIENTED_EDGE('',*,*,#639,.F.);
#864=ORIENTED_EDGE('',*,*,#623,.T.);
#865=ORIENTED_EDGE('',*,*,#529,.F.);
#866=ORIENTED_EDGE('',*,*,#527,.F.);
#867=ORIENTED_EDGE('',*,*,#522,.F.);
#868=ORIENTED_EDGE('',*,*,#640,.T.);
#869=ORIENTED_EDGE('',*,*,#633,.F.);
#870=ORIENTED_EDGE('',*,*,#599,.F.);
#871=ORIENTED_EDGE('',*,*,#588,.T.);
#872=ORIENTED_EDGE('',*,*,#641,.T.);
#873=ORIENTED_EDGE('',*,*,#624,.T.);
#874=ORIENTED_EDGE('',*,*,#639,.T.);
#875=ORIENTED_EDGE('',*,*,#519,.F.);
#876=ORIENTED_EDGE('',*,*,#629,.F.);
#877=ORIENTED_EDGE('',*,*,#631,.F.);
#878=ORIENTED_EDGE('',*,*,#642,.F.);
#879=ORIENTED_EDGE('',*,*,#634,.F.);
#880=ORIENTED_EDGE('',*,*,#640,.F.);
#881=ORIENTED_EDGE('',*,*,#521,.F.);
#882=ORIENTED_EDGE('',*,*,#643,.F.);
#883=ORIENTED_EDGE('',*,*,#571,.T.);
#884=ORIENTED_EDGE('',*,*,#644,.T.);
#885=ORIENTED_EDGE('',*,*,#617,.T.);
#886=ORIENTED_EDGE('',*,*,#636,.T.);
#887=ORIENTED_EDGE('',*,*,#536,.F.);
#888=ORIENTED_EDGE('',*,*,#581,.F.);
#889=ORIENTED_EDGE('',*,*,#613,.F.);
#890=ORIENTED_EDGE('',*,*,#645,.F.);
#891=ORIENTED_EDGE('',*,*,#646,.F.);
#892=ORIENTED_EDGE('',*,*,#637,.F.);
#893=ORIENTED_EDGE('',*,*,#538,.F.);
#894=ORIENTED_EDGE('',*,*,#647,.T.);
#895=ORIENTED_EDGE('',*,*,#590,.T.);
#896=ORIENTED_EDGE('',*,*,#638,.T.);
#897=ORIENTED_EDGE('',*,*,#646,.T.);
#898=ORIENTED_EDGE('',*,*,#648,.T.);
#899=ORIENTED_EDGE('',*,*,#612,.F.);
#900=ORIENTED_EDGE('',*,*,#591,.F.);
#901=ORIENTED_EDGE('',*,*,#648,.F.);
#902=ORIENTED_EDGE('',*,*,#645,.T.);
#903=ORIENTED_EDGE('',*,*,#513,.T.);
#904=ORIENTED_EDGE('',*,*,#610,.F.);
#905=ORIENTED_EDGE('',*,*,#649,.F.);
#906=ORIENTED_EDGE('',*,*,#596,.F.);
#907=ORIENTED_EDGE('',*,*,#650,.F.);
#908=ORIENTED_EDGE('',*,*,#611,.F.);
#909=ORIENTED_EDGE('',*,*,#650,.T.);
#910=ORIENTED_EDGE('',*,*,#595,.F.);
#911=ORIENTED_EDGE('',*,*,#651,.T.);
#912=ORIENTED_EDGE('',*,*,#608,.F.);
#913=ORIENTED_EDGE('',*,*,#651,.F.);
#914=ORIENTED_EDGE('',*,*,#594,.F.);
#915=ORIENTED_EDGE('',*,*,#652,.F.);
#916=ORIENTED_EDGE('',*,*,#609,.F.);
#917=ORIENTED_EDGE('',*,*,#652,.T.);
#918=ORIENTED_EDGE('',*,*,#597,.F.);
#919=ORIENTED_EDGE('',*,*,#649,.T.);
#920=ORIENTED_EDGE('',*,*,#630,.F.);
#921=ORIENTED_EDGE('',*,*,#601,.F.);
#922=ORIENTED_EDGE('',*,*,#635,.F.);
#923=ORIENTED_EDGE('',*,*,#642,.T.);
#924=ORIENTED_EDGE('',*,*,#643,.T.);
#925=ORIENTED_EDGE('',*,*,#653,.T.);
#926=ORIENTED_EDGE('',*,*,#604,.T.);
#927=ORIENTED_EDGE('',*,*,#653,.F.);
#928=ORIENTED_EDGE('',*,*,#598,.T.);
#929=ORIENTED_EDGE('',*,*,#654,.T.);
#930=ORIENTED_EDGE('',*,*,#627,.T.);
#931=ORIENTED_EDGE('',*,*,#654,.F.);
#932=ORIENTED_EDGE('',*,*,#511,.T.);
#933=ORIENTED_EDGE('',*,*,#512,.T.);
#934=ORIENTED_EDGE('',*,*,#593,.F.);
#935=ORIENTED_EDGE('',*,*,#655,.T.);
#936=ORIENTED_EDGE('',*,*,#647,.F.);
#937=ORIENTED_EDGE('',*,*,#655,.F.);
#938=ORIENTED_EDGE('',*,*,#515,.T.);
#939=ORIENTED_EDGE('',*,*,#516,.T.);
#940=ORIENTED_EDGE('',*,*,#619,.F.);
#941=ORIENTED_EDGE('',*,*,#656,.T.);
#942=ORIENTED_EDGE('',*,*,#573,.F.);
#943=ORIENTED_EDGE('',*,*,#656,.F.);
#944=ORIENTED_EDGE('',*,*,#615,.F.);
#945=ORIENTED_EDGE('',*,*,#618,.T.);
#946=ORIENTED_EDGE('',*,*,#644,.F.);
#947=ORIENTED_EDGE('',*,*,#570,.F.);
#948=ORIENTED_EDGE('',*,*,#622,.F.);
#949=ORIENTED_EDGE('',*,*,#625,.T.);
#950=ORIENTED_EDGE('',*,*,#641,.F.);
#951=ORIENTED_EDGE('',*,*,#587,.F.);
#952=ORIENTED_EDGE('',*,*,#509,.T.);
#953=CYLINDRICAL_SURFACE('',#1035,1.2);
#954=CYLINDRICAL_SURFACE('',#1037,1.2);
#955=CYLINDRICAL_SURFACE('',#1039,2.);
#956=CYLINDRICAL_SURFACE('',#1042,2.);
#957=CYLINDRICAL_SURFACE('',#1046,2.);
#958=CYLINDRICAL_SURFACE('',#1049,2.);
#959=CYLINDRICAL_SURFACE('',#1051,2.);
#960=CYLINDRICAL_SURFACE('',#1054,2.);
#961=CYLINDRICAL_SURFACE('',#1058,2.);
#962=CYLINDRICAL_SURFACE('',#1061,2.);
#963=CYLINDRICAL_SURFACE('',#1063,2.);
#964=CYLINDRICAL_SURFACE('',#1066,50.);
#965=CYLINDRICAL_SURFACE('',#1070,2.);
#966=CYLINDRICAL_SURFACE('',#1077,50.);
#967=CYLINDRICAL_SURFACE('',#1097,10.);
#968=CYLINDRICAL_SURFACE('',#1099,10.);
#969=CYLINDRICAL_SURFACE('',#1104,10.);
#970=CYLINDRICAL_SURFACE('',#1110,10.);
#971=CYLINDRICAL_SURFACE('',#1114,10.);
#972=CYLINDRICAL_SURFACE('',#1117,10.);
#973=CYLINDRICAL_SURFACE('',#1120,10.);
#974=CYLINDRICAL_SURFACE('',#1124,10.);
#975=CYLINDRICAL_SURFACE('',#1126,4.2);
#976=CYLINDRICAL_SURFACE('',#1128,4.2);
#977=CYLINDRICAL_SURFACE('',#1131,4.);
#978=CYLINDRICAL_SURFACE('',#1132,4.);
#979=CYLINDRICAL_SURFACE('',#1133,4.);
#980=CYLINDRICAL_SURFACE('',#1134,4.);
#981=ADVANCED_FACE('',(#65),#953,.F.);
#982=ADVANCED_FACE('',(#66),#954,.F.);
#983=ADVANCED_FACE('',(#67),#955,.F.);
#984=ADVANCED_FACE('',(#68),#956,.F.);
#985=ADVANCED_FACE('',(#69),#29,.F.);
#986=ADVANCED_FACE('',(#70),#30,.T.);
#987=ADVANCED_FACE('',(#71),#957,.F.);
#988=ADVANCED_FACE('',(#72),#958,.F.);
#989=ADVANCED_FACE('',(#73),#959,.F.);
#990=ADVANCED_FACE('',(#74),#960,.F.);
#991=ADVANCED_FACE('',(#75),#31,.F.);
#992=ADVANCED_FACE('',(#76),#32,.T.);
#993=ADVANCED_FACE('',(#77),#961,.F.);
#994=ADVANCED_FACE('',(#78),#962,.F.);
#995=ADVANCED_FACE('',(#79),#963,.T.);
#996=ADVANCED_FACE('',(#80),#33,.T.);
#997=ADVANCED_FACE('',(#81),#964,.T.);
#998=ADVANCED_FACE('',(#82),#965,.T.);
#999=ADVANCED_FACE('',(#83,#15),#34,.F.);
#1000=ADVANCED_FACE('',(#84),#966,.T.);
#1001=ADVANCED_FACE('',(#85),#35,.T.);
#1002=ADVANCED_FACE('',(#86,#16,#17,#18),#36,.T.);
#1003=ADVANCED_FACE('',(#87,#19),#37,.F.);
#1004=ADVANCED_FACE('',(#88,#20),#38,.T.);
#1005=ADVANCED_FACE('',(#89),#967,.T.);
#1006=ADVANCED_FACE('',(#90),#968,.T.);
#1007=ADVANCED_FACE('',(#91,#21),#39,.T.);
#1008=ADVANCED_FACE('',(#92),#969,.T.);
#1009=ADVANCED_FACE('',(#93,#22),#40,.T.);
#1010=ADVANCED_FACE('',(#94),#41,.T.);
#1011=ADVANCED_FACE('',(#95),#970,.T.);
#1012=ADVANCED_FACE('',(#96),#42,.T.);
#1013=ADVANCED_FACE('',(#97),#43,.F.);
#1014=ADVANCED_FACE('',(#98),#971,.T.);
#1015=ADVANCED_FACE('',(#99),#44,.F.);
#1016=ADVANCED_FACE('',(#100),#972,.T.);
#1017=ADVANCED_FACE('',(#101,#23),#45,.T.);
#1018=ADVANCED_FACE('',(#102),#973,.T.);
#1019=ADVANCED_FACE('',(#103,#24),#46,.T.);
#1020=ADVANCED_FACE('',(#104),#974,.T.);
#1021=ADVANCED_FACE('',(#105,#25),#47,.F.);
#1022=ADVANCED_FACE('',(#106),#975,.F.);
#1023=ADVANCED_FACE('',(#107),#48,.T.);
#1024=ADVANCED_FACE('',(#108),#976,.F.);
#1025=ADVANCED_FACE('',(#109),#49,.T.);
#1026=ADVANCED_FACE('',(#110),#50,.F.);
#1027=ADVANCED_FACE('',(#111),#977,.F.);
#1028=ADVANCED_FACE('',(#112,#26),#978,.F.);
#1029=ADVANCED_FACE('',(#113,#27),#979,.F.);
#1030=ADVANCED_FACE('',(#114),#980,.F.);
#1031=ADVANCED_FACE('',(#115),#51,.F.);
#1032=ADVANCED_FACE('',(#116,#28),#52,.F.);
#1033=CLOSED_SHELL('',(#981,#982,#983,#984,#985,#986,#987,#988,#989,#990,
#991,#992,#993,#994,#995,#996,#997,#998,#999,#1000,#1001,#1002,#1003,#1004,
#1005,#1006,#1007,#1008,#1009,#1010,#1011,#1012,#1013,#1014,#1015,#1016,
#1017,#1018,#1019,#1020,#1021,#1022,#1023,#1024,#1025,#1026,#1027,#1028,
#1029,#1030,#1031,#1032));
#1034=AXIS2_PLACEMENT_3D('',#1435,#1137,#1138);
#1035=AXIS2_PLACEMENT_3D('',#1436,#1139,#1140);
#1036=AXIS2_PLACEMENT_3D('',#1438,#1141,#1142);
#1037=AXIS2_PLACEMENT_3D('',#1478,#1144,#1145);
#1038=AXIS2_PLACEMENT_3D('',#1480,#1146,#1147);
#1039=AXIS2_PLACEMENT_3D('',#1520,#1149,#1150);
#1040=AXIS2_PLACEMENT_3D('',#1525,#1152,#1153);
#1041=AXIS2_PLACEMENT_3D('',#1528,#1155,#1156);
#1042=AXIS2_PLACEMENT_3D('',#1529,#1157,#1158);
#1043=AXIS2_PLACEMENT_3D('',#1533,#1160,#1161);
#1044=AXIS2_PLACEMENT_3D('',#1535,#1163,#1164);
#1045=AXIS2_PLACEMENT_3D('',#1541,#1168,#1169);
#1046=AXIS2_PLACEMENT_3D('',#1545,#1172,#1173);
#1047=AXIS2_PLACEMENT_3D('',#1547,#1174,#1175);
#1048=AXIS2_PLACEMENT_3D('',#1550,#1177,#1178);
#1049=AXIS2_PLACEMENT_3D('',#1551,#1179,#1180);
#1050=AXIS2_PLACEMENT_3D('',#1554,#1182,#1183);
#1051=AXIS2_PLACEMENT_3D('',#1555,#1184,#1185);
#1052=AXIS2_PLACEMENT_3D('',#1560,#1187,#1188);
#1053=AXIS2_PLACEMENT_3D('',#1563,#1190,#1191);
#1054=AXIS2_PLACEMENT_3D('',#1564,#1192,#1193);
#1055=AXIS2_PLACEMENT_3D('',#1568,#1195,#1196);
#1056=AXIS2_PLACEMENT_3D('',#1570,#1198,#1199);
#1057=AXIS2_PLACEMENT_3D('',#1576,#1203,#1204);
#1058=AXIS2_PLACEMENT_3D('',#1580,#1207,#1208);
#1059=AXIS2_PLACEMENT_3D('',#1582,#1209,#1210);
#1060=AXIS2_PLACEMENT_3D('',#1585,#1212,#1213);
#1061=AXIS2_PLACEMENT_3D('',#1586,#1214,#1215);
#1062=AXIS2_PLACEMENT_3D('',#1589,#1217,#1218);
#1063=AXIS2_PLACEMENT_3D('',#1590,#1219,#1220);
#1064=AXIS2_PLACEMENT_3D('',#1593,#1221,#1222);
#1065=AXIS2_PLACEMENT_3D('',#1608,#1225,#1226);
#1066=AXIS2_PLACEMENT_3D('',#1614,#1230,#1231);
#1067=AXIS2_PLACEMENT_3D('',#1616,#1232,#1233);
#1068=AXIS2_PLACEMENT_3D('',#1620,#1235,#1236);
#1069=AXIS2_PLACEMENT_3D('',#1623,#1238,#1239);
#1070=AXIS2_PLACEMENT_3D('',#1624,#1240,#1241);
#1071=AXIS2_PLACEMENT_3D('',#1640,#1243,#1244);
#1072=AXIS2_PLACEMENT_3D('',#1642,#1246,#1247);
#1073=AXIS2_PLACEMENT_3D('',#1644,#1248,#1249);
#1074=AXIS2_PLACEMENT_3D('',#1648,#1251,#1252);
#1075=AXIS2_PLACEMENT_3D('',#1652,#1254,#1255);
#1076=AXIS2_PLACEMENT_3D('',#1655,#1257,#1258);
#1077=AXIS2_PLACEMENT_3D('',#1656,#1259,#1260);
#1078=AXIS2_PLACEMENT_3D('',#1660,#1262,#1263);
#1079=AXIS2_PLACEMENT_3D('',#1664,#1265,#1266);
#1080=AXIS2_PLACEMENT_3D('',#1666,#1268,#1269);
#1081=AXIS2_PLACEMENT_3D('',#1675,#1275,#1276);
#1082=AXIS2_PLACEMENT_3D('',#1680,#1279,#1280);
#1083=AXIS2_PLACEMENT_3D('',#1684,#1282,#1283);
#1084=AXIS2_PLACEMENT_3D('',#1688,#1285,#1286);
#1085=AXIS2_PLACEMENT_3D('',#1691,#1288,#1289);
#1086=AXIS2_PLACEMENT_3D('',#1693,#1290,#1291);
#1087=AXIS2_PLACEMENT_3D('',#1696,#1292,#1293);
#1088=AXIS2_PLACEMENT_3D('',#1700,#1295,#1296);
#1089=AXIS2_PLACEMENT_3D('',#1703,#1298,#1299);
#1090=AXIS2_PLACEMENT_3D('',#1704,#1300,#1301);
#1091=AXIS2_PLACEMENT_3D('',#1708,#1303,#1304);
#1092=AXIS2_PLACEMENT_3D('',#1712,#1306,#1307);
#1093=AXIS2_PLACEMENT_3D('',#1715,#1309,#1310);
#1094=AXIS2_PLACEMENT_3D('',#1716,#1311,#1312);
#1095=AXIS2_PLACEMENT_3D('',#1723,#1316,#1317);
#1096=AXIS2_PLACEMENT_3D('',#1727,#1319,#1320);
#1097=AXIS2_PLACEMENT_3D('',#1729,#1322,#1323);
#1098=AXIS2_PLACEMENT_3D('',#1732,#1325,#1326);
#1099=AXIS2_PLACEMENT_3D('',#1733,#1327,#1328);
#1100=AXIS2_PLACEMENT_3D('',#1735,#1329,#1330);
#1101=AXIS2_PLACEMENT_3D('',#1737,#1332,#1333);
#1102=AXIS2_PLACEMENT_3D('',#1741,#1335,#1336);
#1103=AXIS2_PLACEMENT_3D('',#1744,#1338,#1339);
#1104=AXIS2_PLACEMENT_3D('',#1745,#1340,#1341);
#1105=AXIS2_PLACEMENT_3D('',#1749,#1343,#1344);
#1106=AXIS2_PLACEMENT_3D('',#1751,#1346,#1347);
#1107=AXIS2_PLACEMENT_3D('',#1755,#1349,#1350);
#1108=AXIS2_PLACEMENT_3D('',#1759,#1353,#1354);
#1109=AXIS2_PLACEMENT_3D('',#1760,#1355,#1356);
#1110=AXIS2_PLACEMENT_3D('',#1764,#1359,#1360);
#1111=AXIS2_PLACEMENT_3D('',#1767,#1362,#1363);
#1112=AXIS2_PLACEMENT_3D('',#1768,#1364,#1365);
#1113=AXIS2_PLACEMENT_3D('',#1770,#1367,#1368);
#1114=AXIS2_PLACEMENT_3D('',#1771,#1369,#1370);
#1115=AXIS2_PLACEMENT_3D('',#1775,#1372,#1373);
#1116=AXIS2_PLACEMENT_3D('',#1777,#1375,#1376);
#1117=AXIS2_PLACEMENT_3D('',#1784,#1382,#1383);
#1118=AXIS2_PLACEMENT_3D('',#1786,#1385,#1386);
#1119=AXIS2_PLACEMENT_3D('',#1789,#1388,#1389);
#1120=AXIS2_PLACEMENT_3D('',#1790,#1390,#1391);
#1121=AXIS2_PLACEMENT_3D('',#1792,#1393,#1394);
#1122=AXIS2_PLACEMENT_3D('',#1795,#1396,#1397);
#1123=AXIS2_PLACEMENT_3D('',#1797,#1398,#1399);
#1124=AXIS2_PLACEMENT_3D('',#1798,#1400,#1401);
#1125=AXIS2_PLACEMENT_3D('',#1800,#1403,#1404);
#1126=AXIS2_PLACEMENT_3D('',#1801,#1405,#1406);
#1127=AXIS2_PLACEMENT_3D('',#1804,#1409,#1410);
#1128=AXIS2_PLACEMENT_3D('',#1806,#1412,#1413);
#1129=AXIS2_PLACEMENT_3D('',#1808,#1415,#1416);
#1130=AXIS2_PLACEMENT_3D('',#1809,#1417,#1418);
#1131=AXIS2_PLACEMENT_3D('',#1810,#1419,#1420);
#1132=AXIS2_PLACEMENT_3D('',#1812,#1422,#1423);
#1133=AXIS2_PLACEMENT_3D('',#1814,#1425,#1426);
#1134=AXIS2_PLACEMENT_3D('',#1816,#1428,#1429);
#1135=AXIS2_PLACEMENT_3D('',#1818,#1431,#1432);
#1136=AXIS2_PLACEMENT_3D('',#1819,#1433,#1434);
#1137=DIRECTION('axis',(0.,0.,1.));
#1138=DIRECTION('refdir',(1.,0.,0.));
#1139=DIRECTION('center_axis',(0.,-1.,0.));
#1140=DIRECTION('ref_axis',(0.,0.,1.));
#1141=DIRECTION('center_axis',(0.,-1.,0.));
#1142=DIRECTION('ref_axis',(0.,0.,1.));
#1143=DIRECTION('',(0.,-1.,0.));
#1144=DIRECTION('center_axis',(0.,1.,0.));
#1145=DIRECTION('ref_axis',(0.,0.,-1.));
#1146=DIRECTION('center_axis',(0.,1.,0.));
#1147=DIRECTION('ref_axis',(0.,0.,-1.));
#1148=DIRECTION('',(0.,1.,0.));
#1149=DIRECTION('center_axis',(1.,0.,0.));
#1150=DIRECTION('ref_axis',(0.,-0.707106781186543,-0.707106781186552));
#1151=DIRECTION('',(1.,0.,0.));
#1152=DIRECTION('center_axis',(0.847998304005088,0.52999894000318,0.));
#1153=DIRECTION('ref_axis',(0.52999894000318,-0.847998304005088,5.88417026218457E-17));
#1154=DIRECTION('',(-1.,0.,0.));
#1155=DIRECTION('center_axis',(-0.989400395497482,-0.145213144685413,1.78977195478883E-14));
#1156=DIRECTION('ref_axis',(-0.145213144685413,0.989400395497482,-1.21944957789778E-13));
#1157=DIRECTION('center_axis',(-0.957826285221151,-0.287347885566345,0.));
#1158=DIRECTION('ref_axis',(0.203185638443593,-0.677285461478591,-0.707106781186549));
#1159=DIRECTION('',(-0.957826285221151,-0.287347885566345,0.));
#1160=DIRECTION('center_axis',(-1.,0.,0.));
#1161=DIRECTION('ref_axis',(0.,-1.,0.));
#1162=DIRECTION('',(0.957826285221151,0.287347885566345,0.));
#1163=DIRECTION('center_axis',(0.,-1.,0.));
#1164=DIRECTION('ref_axis',(0.,0.,-1.));
#1165=DIRECTION('',(0.,0.,1.));
#1166=DIRECTION('',(-1.,0.,0.));
#1167=DIRECTION('',(0.,0.,-1.));
#1168=DIRECTION('center_axis',(-0.287347885566345,0.957826285221151,0.));
#1169=DIRECTION('ref_axis',(0.,0.,1.));
#1170=DIRECTION('',(0.,0.,-1.));
#1171=DIRECTION('',(-0.957826285221151,-0.287347885566345,0.));
#1172=DIRECTION('center_axis',(0.957826285221151,0.287347885566345,0.));
#1173=DIRECTION('ref_axis',(0.203185638443593,-0.677285461478591,0.707106781186549));
#1174=DIRECTION('center_axis',(-1.,0.,0.));
#1175=DIRECTION('ref_axis',(0.,-1.,0.));
#1176=DIRECTION('',(0.957826285221151,0.287347885566345,0.));
#1177=DIRECTION('center_axis',(0.989400395497482,0.145213144685413,0.));
#1178=DIRECTION('ref_axis',(0.145213144685413,-0.989400395497482,0.));
#1179=DIRECTION('center_axis',(-1.,0.,0.));
#1180=DIRECTION('ref_axis',(0.,-0.707106781186543,0.707106781186552));
#1181=DIRECTION('',(1.,0.,0.));
#1182=DIRECTION('center_axis',(0.847998304005088,0.52999894000318,0.));
#1183=DIRECTION('ref_axis',(0.52999894000318,-0.847998304005088,-5.88417026218457E-17));
#1184=DIRECTION('center_axis',(1.,0.,0.));
#1185=DIRECTION('ref_axis',(0.,0.707106781186543,0.707106781186552));
#1186=DIRECTION('',(1.,0.,0.));
#1187=DIRECTION('center_axis',(0.847998304005088,-0.52999894000318,0.));
#1188=DIRECTION('ref_axis',(0.52999894000318,0.847998304005088,-5.88417026218457E-17));
#1189=DIRECTION('',(-1.,0.,0.));
#1190=DIRECTION('center_axis',(-0.989400395497489,0.145213144685362,-1.78977195478883E-14));
#1191=DIRECTION('ref_axis',(-0.145213144685362,-0.989400395497489,1.21944957789823E-13));
#1192=DIRECTION('center_axis',(-0.957826285221151,0.287347885566345,0.));
#1193=DIRECTION('ref_axis',(0.203185638443594,0.677285461478587,0.707106781186552));
#1194=DIRECTION('',(-0.957826285221151,0.287347885566345,0.));
#1195=DIRECTION('center_axis',(-1.,0.,0.));
#1196=DIRECTION('ref_axis',(0.,1.,5.31700397721852E-16));
#1197=DIRECTION('',(0.957826285221151,-0.287347885566345,0.));
#1198=DIRECTION('center_axis',(0.,1.,0.));
#1199=DIRECTION('ref_axis',(0.,0.,-1.));
#1200=DIRECTION('',(0.,0.,-1.));
#1201=DIRECTION('',(-1.,0.,0.));
#1202=DIRECTION('',(0.,0.,1.));
#1203=DIRECTION('center_axis',(-0.287347885566345,-0.957826285221151,0.));
#1204=DIRECTION('ref_axis',(0.,0.,-1.));
#1205=DIRECTION('',(0.,0.,1.));
#1206=DIRECTION('',(-0.957826285221151,0.287347885566345,0.));
#1207=DIRECTION('center_axis',(0.957826285221151,-0.287347885566345,0.));
#1208=DIRECTION('ref_axis',(0.203185638443594,0.677285461478587,-0.707106781186552));
#1209=DIRECTION('center_axis',(-1.,0.,0.));
#1210=DIRECTION('ref_axis',(0.,1.,-5.31700397721852E-16));
#1211=DIRECTION('',(0.957826285221151,-0.287347885566345,0.));
#1212=DIRECTION('center_axis',(0.989400395497487,-0.145213144685379,0.));
#1213=DIRECTION('ref_axis',(0.145213144685379,0.989400395497487,0.));
#1214=DIRECTION('center_axis',(-1.,0.,0.));
#1215=DIRECTION('ref_axis',(0.,0.707106781186543,-0.707106781186552));
#1216=DIRECTION('',(1.,0.,0.));
#1217=DIRECTION('center_axis',(0.847998304005088,-0.52999894000318,0.));
#1218=DIRECTION('ref_axis',(0.52999894000318,0.847998304005088,5.88417026218457E-17));
#1219=DIRECTION('center_axis',(-1.,0.,0.));
#1220=DIRECTION('ref_axis',(0.,-0.707106781186542,-0.707106781186553));
#1221=DIRECTION('center_axis',(1.,0.,0.));
#1222=DIRECTION('ref_axis',(0.,-0.707106781186542,-0.707106781186553));
#1223=DIRECTION('',(1.,0.,0.));
#1224=DIRECTION('',(-1.,0.,0.));
#1225=DIRECTION('center_axis',(0.,-1.,0.));
#1226=DIRECTION('ref_axis',(-1.,0.,0.));
#1227=DIRECTION('',(0.,0.,-1.));
#1228=DIRECTION('',(1.,0.,0.));
#1229=DIRECTION('',(0.,0.,-1.));
#1230=DIRECTION('center_axis',(0.,0.,-1.));
#1231=DIRECTION('ref_axis',(0.961248746164355,0.27568251304255,0.));
#1232=DIRECTION('center_axis',(0.,0.,1.));
#1233=DIRECTION('ref_axis',(0.961248746164355,0.27568251304255,0.));
#1234=DIRECTION('',(0.,0.,1.));
#1235=DIRECTION('center_axis',(0.,0.,1.));
#1236=DIRECTION('ref_axis',(0.961248746164355,0.27568251304255,0.));
#1237=DIRECTION('',(0.,0.,-1.));
#1238=DIRECTION('center_axis',(0.,0.,1.));
#1239=DIRECTION('ref_axis',(0.961248746164355,0.27568251304255,0.));
#1240=DIRECTION('center_axis',(1.,0.,0.));
#1241=DIRECTION('ref_axis',(0.,0.707106781186542,-0.707106781186553));
#1242=DIRECTION('',(-1.,0.,0.));
#1243=DIRECTION('center_axis',(1.,0.,0.));
#1244=DIRECTION('ref_axis',(0.,0.707106781186542,-0.707106781186553));
#1245=DIRECTION('',(1.,0.,0.));
#1246=DIRECTION('center_axis',(0.,0.,1.));
#1247=DIRECTION('ref_axis',(0.,1.,0.));
#1248=DIRECTION('center_axis',(0.,0.,1.));
#1249=DIRECTION('ref_axis',(0.961248746164355,-0.27568251304255,0.));
#1250=DIRECTION('',(-0.52999894000318,-0.847998304005088,0.));
#1251=DIRECTION('center_axis',(0.,0.,1.));
#1252=DIRECTION('ref_axis',(0.484768532392945,-0.874642481246818,0.));
#1253=DIRECTION('',(1.,0.,0.));
#1254=DIRECTION('center_axis',(0.,0.,1.));
#1255=DIRECTION('ref_axis',(-0.707106781186547,-0.707106781186547,0.));
#1256=DIRECTION('',(0.,-1.,0.));
#1257=DIRECTION('center_axis',(0.,0.,1.));
#1258=DIRECTION('ref_axis',(1.,0.,0.));
#1259=DIRECTION('center_axis',(0.,0.,-1.));
#1260=DIRECTION('ref_axis',(0.961248746164355,-0.27568251304255,0.));
#1261=DIRECTION('',(0.,0.,1.));
#1262=DIRECTION('center_axis',(0.,0.,1.));
#1263=DIRECTION('ref_axis',(0.961248746164355,-0.27568251304255,0.));
#1264=DIRECTION('',(0.,0.,1.));
#1265=DIRECTION('center_axis',(0.,0.,1.));
#1266=DIRECTION('ref_axis',(0.961248746164355,-0.27568251304255,0.));
#1267=DIRECTION('',(0.,0.,-1.));
#1268=DIRECTION('center_axis',(0.847998304005088,-0.52999894000318,0.));
#1269=DIRECTION('ref_axis',(0.,0.,-1.));
#1270=DIRECTION('',(0.52999894000318,0.847998304005088,0.));
#1271=DIRECTION('',(0.,0.,1.));
#1272=DIRECTION('',(0.52999894000318,0.847998304005088,0.));
#1273=DIRECTION('',(-0.52999894000318,-0.847998304005088,0.));
#1274=DIRECTION('',(0.,0.,1.));
#1275=DIRECTION('center_axis',(0.,0.,1.));
#1276=DIRECTION('ref_axis',(0.,1.,0.));
#1277=DIRECTION('',(0.,-1.,0.));
#1278=DIRECTION('',(-0.52999894000318,0.847998304005088,0.));
#1279=DIRECTION('center_axis',(0.,0.,1.));
#1280=DIRECTION('ref_axis',(0.484768532392945,0.874642481246818,0.));
#1281=DIRECTION('',(1.,0.,0.));
#1282=DIRECTION('center_axis',(0.,0.,1.));
#1283=DIRECTION('ref_axis',(-0.707106781186547,0.707106781186547,0.));
#1284=DIRECTION('',(0.,1.,0.));
#1285=DIRECTION('center_axis',(0.,0.,1.));
#1286=DIRECTION('ref_axis',(-0.707106781186547,-0.707106781186547,0.));
#1287=DIRECTION('',(-1.,0.,0.));
#1288=DIRECTION('center_axis',(0.,0.,1.));
#1289=DIRECTION('ref_axis',(0.484768532392945,-0.874642481246818,0.));
#1290=DIRECTION('center_axis',(0.,0.,1.));
#1291=DIRECTION('ref_axis',(1.,0.,0.));
#1292=DIRECTION('center_axis',(0.,0.,1.));
#1293=DIRECTION('ref_axis',(-0.707106781186546,0.707106781186549,0.));
#1294=DIRECTION('',(1.,0.,0.));
#1295=DIRECTION('center_axis',(0.,0.,1.));
#1296=DIRECTION('ref_axis',(0.707106781186546,-0.707106781186549,0.));
#1297=DIRECTION('',(-1.,0.,0.));
#1298=DIRECTION('center_axis',(0.,0.,1.));
#1299=DIRECTION('ref_axis',(1.,0.,0.));
#1300=DIRECTION('center_axis',(0.,0.,1.));
#1301=DIRECTION('ref_axis',(0.,1.,0.));
#1302=DIRECTION('',(0.,-1.,0.));
#1303=DIRECTION('center_axis',(0.,0.,1.));
#1304=DIRECTION('ref_axis',(-0.707106781186547,0.707106781186547,0.));
#1305=DIRECTION('',(1.,0.,0.));
#1306=DIRECTION('center_axis',(0.,0.,1.));
#1307=DIRECTION('ref_axis',(0.484768532392945,0.874642481246818,0.));
#1308=DIRECTION('',(0.52999894000318,-0.847998304005088,0.));
#1309=DIRECTION('center_axis',(0.,0.,-1.));
#1310=DIRECTION('ref_axis',(1.,0.,0.));
#1311=DIRECTION('center_axis',(0.,0.,-1.));
#1312=DIRECTION('ref_axis',(1.,0.,0.));
#1313=DIRECTION('',(1.,0.,0.));
#1314=DIRECTION('',(0.,1.,0.));
#1315=DIRECTION('',(0.,-1.,0.));
#1316=DIRECTION('center_axis',(0.,0.,1.));
#1317=DIRECTION('ref_axis',(-0.707106781186546,0.707106781186549,0.));
#1318=DIRECTION('',(-1.,0.,0.));
#1319=DIRECTION('center_axis',(0.,0.,1.));
#1320=DIRECTION('ref_axis',(0.707106781186546,-0.707106781186549,0.));
#1321=DIRECTION('',(1.,0.,0.));
#1322=DIRECTION('center_axis',(0.,0.,-1.));
#1323=DIRECTION('ref_axis',(0.484768532392945,-0.874642481246818,0.));
#1324=DIRECTION('',(0.,0.,-1.));
#1325=DIRECTION('center_axis',(0.,0.,1.));
#1326=DIRECTION('ref_axis',(0.484768532392945,-0.874642481246818,0.));
#1327=DIRECTION('center_axis',(0.,0.,-1.));
#1328=DIRECTION('ref_axis',(0.484768532392945,-0.874642481246818,0.));
#1329=DIRECTION('center_axis',(0.,0.,-1.));
#1330=DIRECTION('ref_axis',(0.484768532392945,-0.874642481246818,0.));
#1331=DIRECTION('',(0.,0.,-1.));
#1332=DIRECTION('center_axis',(0.,0.,1.));
#1333=DIRECTION('ref_axis',(0.,-1.,0.));
#1334=DIRECTION('',(0.,1.,0.));
#1335=DIRECTION('center_axis',(0.,0.,-1.));
#1336=DIRECTION('ref_axis',(-0.707106781186547,-0.707106781186547,0.));
#1337=DIRECTION('',(1.,0.,0.));
#1338=DIRECTION('center_axis',(0.,0.,1.));
#1339=DIRECTION('ref_axis',(1.,0.,0.));
#1340=DIRECTION('center_axis',(0.,0.,-1.));
#1341=DIRECTION('ref_axis',(0.484768532392945,0.874642481246818,0.));
#1342=DIRECTION('',(0.,0.,-1.));
#1343=DIRECTION('center_axis',(0.,0.,1.));
#1344=DIRECTION('ref_axis',(0.484768532392945,0.874642481246818,0.));
#1345=DIRECTION('',(0.,0.,1.));
#1346=DIRECTION('center_axis',(0.,0.,-1.));
#1347=DIRECTION('ref_axis',(0.,1.,0.));
#1348=DIRECTION('',(0.,-1.,0.));
#1349=DIRECTION('center_axis',(0.,0.,1.));
#1350=DIRECTION('ref_axis',(-0.707106781186547,0.707106781186547,0.));
#1351=DIRECTION('',(1.,0.,0.));
#1352=DIRECTION('',(-0.52999894000318,0.847998304005088,0.));
#1353=DIRECTION('center_axis',(0.,0.,-1.));
#1354=DIRECTION('ref_axis',(1.,0.,0.));
#1355=DIRECTION('center_axis',(0.847998304005088,0.52999894000318,0.));
#1356=DIRECTION('ref_axis',(0.,0.,-1.));
#1357=DIRECTION('',(0.,0.,-1.));
#1358=DIRECTION('',(0.52999894000318,-0.847998304005088,0.));
#1359=DIRECTION('center_axis',(0.,0.,-1.));
#1360=DIRECTION('ref_axis',(0.484768532392945,0.874642481246818,0.));
#1361=DIRECTION('',(0.,0.,1.));
#1362=DIRECTION('center_axis',(0.,0.,-1.));
#1363=DIRECTION('ref_axis',(0.484768532392945,0.874642481246818,0.));
#1364=DIRECTION('center_axis',(0.,1.,0.));
#1365=DIRECTION('ref_axis',(1.,0.,0.));
#1366=DIRECTION('',(0.,0.,1.));
#1367=DIRECTION('center_axis',(-1.,0.,0.));
#1368=DIRECTION('ref_axis',(0.,0.,1.));
#1369=DIRECTION('center_axis',(0.,0.,1.));
#1370=DIRECTION('ref_axis',(-0.707106781186547,0.707106781186547,0.));
#1371=DIRECTION('',(0.,0.,1.));
#1372=DIRECTION('center_axis',(0.,0.,-1.));
#1373=DIRECTION('ref_axis',(-0.707106781186547,0.707106781186547,0.));
#1374=DIRECTION('',(0.,0.,-1.));
#1375=DIRECTION('center_axis',(1.,0.,0.));
#1376=DIRECTION('ref_axis',(0.,0.,-1.));
#1377=DIRECTION('',(0.,0.,-1.));
#1378=DIRECTION('',(0.,-1.,0.));
#1379=DIRECTION('',(0.,0.,-1.));
#1380=DIRECTION('',(0.,0.,1.));
#1381=DIRECTION('',(0.,1.,0.));
#1382=DIRECTION('center_axis',(0.,0.,1.));
#1383=DIRECTION('ref_axis',(-0.707106781186547,0.707106781186547,0.));
#1384=DIRECTION('',(0.,0.,-1.));
#1385=DIRECTION('center_axis',(0.,0.,1.));
#1386=DIRECTION('ref_axis',(0.,-1.,0.));
#1387=DIRECTION('',(-1.,0.,0.));
#1388=DIRECTION('center_axis',(0.,0.,1.));
#1389=DIRECTION('ref_axis',(1.,0.,0.));
#1390=DIRECTION('center_axis',(0.,0.,-1.));
#1391=DIRECTION('ref_axis',(-0.707106781186547,-0.707106781186547,0.));
#1392=DIRECTION('',(0.,0.,1.));
#1393=DIRECTION('center_axis',(0.,0.,-1.));
#1394=DIRECTION('ref_axis',(0.,1.,0.));
#1395=DIRECTION('',(-1.,0.,0.));
#1396=DIRECTION('center_axis',(0.,0.,1.));
#1397=DIRECTION('ref_axis',(-0.707106781186547,-0.707106781186547,0.));
#1398=DIRECTION('center_axis',(0.,0.,-1.));
#1399=DIRECTION('ref_axis',(1.,0.,0.));
#1400=DIRECTION('center_axis',(0.,0.,-1.));
#1401=DIRECTION('ref_axis',(-0.707106781186547,-0.707106781186547,0.));
#1402=DIRECTION('',(0.,0.,1.));
#1403=DIRECTION('center_axis',(0.,1.,0.));
#1404=DIRECTION('ref_axis',(0.,0.,-1.));
#1405=DIRECTION('center_axis',(0.,0.,-1.));
#1406=DIRECTION('ref_axis',(0.707106781186546,-0.707106781186549,0.));
#1407=DIRECTION('',(0.,0.,-1.));
#1408=DIRECTION('',(0.,0.,1.));
#1409=DIRECTION('center_axis',(0.,-1.,0.));
#1410=DIRECTION('ref_axis',(0.,0.,1.));
#1411=DIRECTION('',(0.,0.,-1.));
#1412=DIRECTION('center_axis',(0.,0.,-1.));
#1413=DIRECTION('ref_axis',(-0.707106781186546,0.707106781186549,0.));
#1414=DIRECTION('',(0.,0.,1.));
#1415=DIRECTION('center_axis',(0.,1.,0.));
#1416=DIRECTION('ref_axis',(0.,0.,-1.));
#1417=DIRECTION('center_axis',(0.,-1.,0.));
#1418=DIRECTION('ref_axis',(0.,0.,1.));
#1419=DIRECTION('center_axis',(0.,0.,1.));
#1420=DIRECTION('ref_axis',(1.,0.,0.));
#1421=DIRECTION('',(0.,0.,-1.));
#1422=DIRECTION('center_axis',(0.,0.,1.));
#1423=DIRECTION('ref_axis',(1.,0.,0.));
#1424=DIRECTION('',(0.,0.,-1.));
#1425=DIRECTION('center_axis',(0.,0.,-1.));
#1426=DIRECTION('ref_axis',(1.,0.,0.));
#1427=DIRECTION('',(0.,0.,-1.));
#1428=DIRECTION('center_axis',(0.,0.,-1.));
#1429=DIRECTION('ref_axis',(1.,0.,0.));
#1430=DIRECTION('',(0.,0.,-1.));
#1431=DIRECTION('center_axis',(0.,1.,0.));
#1432=DIRECTION('ref_axis',(0.,0.,-1.));
#1433=DIRECTION('center_axis',(0.,-1.,0.));
#1434=DIRECTION('ref_axis',(0.,0.,1.));
#1435=CARTESIAN_POINT('',(0.,0.,0.));
#1436=CARTESIAN_POINT('Origin',(-232.121445228518,51.,416.400002965331));
#1437=CARTESIAN_POINT('',(-232.121445228518,56.,415.200002965331));
#1438=CARTESIAN_POINT('Origin',(-232.121445228518,56.,416.400002965331));
#1439=CARTESIAN_POINT('',(-232.121445228518,49.498155956997,415.200002965331));
#1440=CARTESIAN_POINT('',(-232.121445228518,51.,415.200002965331));
#1441=CARTESIAN_POINT('',(-230.921445228518,49.351846259252,416.400002965331));
#1442=CARTESIAN_POINT('Ctrl Pts',(-230.921445228518,49.351846259252,416.400002965331));
#1443=CARTESIAN_POINT('Ctrl Pts',(-230.921445228518,49.351846259252,416.248371381995));
#1444=CARTESIAN_POINT('Ctrl Pts',(-230.951924891531,49.3607718540239,416.087194501699));
#1445=CARTESIAN_POINT('Ctrl Pts',(-231.074824139576,49.3920521871734,415.791552952593));
#1446=CARTESIAN_POINT('Ctrl Pts',(-231.167206132506,49.4138423442674,415.657013196634));
#1447=CARTESIAN_POINT('Ctrl Pts',(-231.379701509572,49.4530835291681,415.44486362171));
#1448=CARTESIAN_POINT('Ctrl Pts',(-231.514136408061,49.4731463201727,415.352757707924));
#1449=CARTESIAN_POINT('Ctrl Pts',(-231.809420272374,49.4982039064461,415.230307671619));
#1450=CARTESIAN_POINT('Ctrl Pts',(-231.970323795466,49.5027463174452,415.200002965331));
#1451=CARTESIAN_POINT('Ctrl Pts',(-232.121445228518,49.498155956997,415.200002965331));
#1452=CARTESIAN_POINT('Ctrl Pts',(-232.121445228518,49.498155956997,415.200002965331));
#1453=CARTESIAN_POINT('Ctrl Pts',(-232.273673764329,49.4935319679587,415.200002965331));
#1454=CARTESIAN_POINT('Ctrl Pts',(-232.435092745993,49.4790711554507,415.230706672898));
#1455=CARTESIAN_POINT('Ctrl Pts',(-232.730654367212,49.4355377210545,415.353822877352));
#1456=CARTESIAN_POINT('Ctrl Pts',(-232.864886522009,49.4069038076855,415.446175188767));
#1457=CARTESIAN_POINT('Ctrl Pts',(-233.076415519158,49.3539818710013,415.658130785791));
#1458=CARTESIAN_POINT('Ctrl Pts',(-233.168359414476,49.3261053436689,415.792154706954));
#1459=CARTESIAN_POINT('Ctrl Pts',(-233.290901290362,49.2865181716275,416.087143384783));
#1460=CARTESIAN_POINT('Ctrl Pts',(-233.321445228518,49.2754181898204,416.248212213954));
#1461=CARTESIAN_POINT('Ctrl Pts',(-233.321445228518,49.2754181898204,416.551793716708));
#1462=CARTESIAN_POINT('Ctrl Pts',(-233.290901290362,49.2865181716275,416.712862545879));
#1463=CARTESIAN_POINT('Ctrl Pts',(-233.168359414476,49.3261053436689,417.007851223708));
#1464=CARTESIAN_POINT('Ctrl Pts',(-233.076415519158,49.3539818710013,417.141875144871));
#1465=CARTESIAN_POINT('Ctrl Pts',(-232.864886522009,49.4069038076855,417.353830741895));
#1466=CARTESIAN_POINT('Ctrl Pts',(-232.730654367212,49.4355377210545,417.44618305331));
#1467=CARTESIAN_POINT('Ctrl Pts',(-232.435092745993,49.4790711554507,417.569299257764));
#1468=CARTESIAN_POINT('Ctrl Pts',(-232.273673764329,49.4935319679587,417.600002965331));
#1469=CARTESIAN_POINT('Ctrl Pts',(-231.970323795466,49.5027463174452,417.600002965331));
#1470=CARTESIAN_POINT('Ctrl Pts',(-231.809420272374,49.4982039064461,417.569698259044));
#1471=CARTESIAN_POINT('Ctrl Pts',(-231.514136408061,49.4731463201727,417.447248222739));
#1472=CARTESIAN_POINT('Ctrl Pts',(-231.379701509572,49.4530835291681,417.355142308952));
#1473=CARTESIAN_POINT('Ctrl Pts',(-231.167206132506,49.4138423442674,417.142992734028));
#1474=CARTESIAN_POINT('Ctrl Pts',(-231.074824139576,49.3920521871734,417.008452978069));
#1475=CARTESIAN_POINT('Ctrl Pts',(-230.951924891531,49.3607718540239,416.712811428963));
#1476=CARTESIAN_POINT('Ctrl Pts',(-230.921445228518,49.351846259252,416.551634548667));
#1477=CARTESIAN_POINT('Ctrl Pts',(-230.921445228518,49.351846259252,416.400002965331));
#1478=CARTESIAN_POINT('Origin',(-232.114142505639,-50.9999999999938,416.390462923951));
#1479=CARTESIAN_POINT('',(-232.114142505639,-56.,417.590462923951));
#1480=CARTESIAN_POINT('Origin',(-232.114142505639,-56.,416.390462923951));
#1481=CARTESIAN_POINT('',(-232.114142505639,-49.4983711043882,417.590462923951));
#1482=CARTESIAN_POINT('',(-232.114142505639,-50.9999999999938,417.590462923951));
#1483=CARTESIAN_POINT('',(-230.914142505639,-49.3497939557773,416.390462923951));
#1484=CARTESIAN_POINT('Ctrl Pts',(-230.914142505639,-49.3497939557773,416.390462923951));
#1485=CARTESIAN_POINT('Ctrl Pts',(-230.914142505639,-49.3497939557773,416.542099288194));
#1486=CARTESIAN_POINT('Ctrl Pts',(-230.944624089199,-49.3587829377195,416.703273986894));
#1487=CARTESIAN_POINT('Ctrl Pts',(-231.067515034031,-49.3903079208658,416.998899603415));
#1488=CARTESIAN_POINT('Ctrl Pts',(-231.159886348171,-49.4122781459282,417.133426393905));
#1489=CARTESIAN_POINT('Ctrl Pts',(-231.372355440669,-49.4519246696076,417.345568228191));
#1490=CARTESIAN_POINT('Ctrl Pts',(-231.506782266157,-49.4722410641609,417.437679220517));
#1491=CARTESIAN_POINT('Ctrl Pts',(-231.802071127976,-49.4978477916298,417.56014660289));
#1492=CARTESIAN_POINT('Ctrl Pts',(-231.962988801574,-49.5026861271982,417.590462923951));
#1493=CARTESIAN_POINT('Ctrl Pts',(-232.114142505639,-49.4983711043882,417.590462923951));
#1494=CARTESIAN_POINT('Ctrl Pts',(-232.114142505639,-49.4983711043882,417.590462923951));
#1495=CARTESIAN_POINT('Ctrl Pts',(-232.266336603001,-49.494026381209,417.590462923951));
#1496=CARTESIAN_POINT('Ctrl Pts',(-232.427738662671,-49.4798666664474,417.55977165016));
#1497=CARTESIAN_POINT('Ctrl Pts',(-232.723288550426,-49.4368963308079,417.436678250642));
#1498=CARTESIAN_POINT('Ctrl Pts',(-232.857524868404,-49.4085248547957,417.344335705952));
#1499=CARTESIAN_POINT('Ctrl Pts',(-233.06908579844,-49.3560209433845,417.132376149125));
#1500=CARTESIAN_POINT('Ctrl Pts',(-233.161045419775,-49.3283305930227,416.99833410436));
#1501=CARTESIAN_POINT('Ctrl Pts',(-233.283600527413,-49.2889987416522,416.70332199816));
#1502=CARTESIAN_POINT('Ctrl Pts',(-233.314142505639,-49.2779663146822,416.54224883051));
#1503=CARTESIAN_POINT('Ctrl Pts',(-233.314142505639,-49.2779663146822,416.238677017392));
#1504=CARTESIAN_POINT('Ctrl Pts',(-233.283600527413,-49.2889987416522,416.077603849742));
#1505=CARTESIAN_POINT('Ctrl Pts',(-233.161045419775,-49.3283305930227,415.782591743542));
#1506=CARTESIAN_POINT('Ctrl Pts',(-233.06908579844,-49.3560209433845,415.648549698776));
#1507=CARTESIAN_POINT('Ctrl Pts',(-232.857524868404,-49.4085248547957,415.43659014195));
#1508=CARTESIAN_POINT('Ctrl Pts',(-232.723288550426,-49.4368963308079,415.34424759726));
#1509=CARTESIAN_POINT('Ctrl Pts',(-232.427738662671,-49.4798666664474,415.221154197741));
#1510=CARTESIAN_POINT('Ctrl Pts',(-232.266336603001,-49.494026381209,415.190462923951));
#1511=CARTESIAN_POINT('Ctrl Pts',(-231.962988801574,-49.5026861271983,415.190462923951));
#1512=CARTESIAN_POINT('Ctrl Pts',(-231.802071127976,-49.4978477916298,415.220779245012));
#1513=CARTESIAN_POINT('Ctrl Pts',(-231.506782266157,-49.4722410641609,415.343246627384));
#1514=CARTESIAN_POINT('Ctrl Pts',(-231.372355440669,-49.4519246696076,415.435357619711));
#1515=CARTESIAN_POINT('Ctrl Pts',(-231.159886348171,-49.4122781459282,415.647499453996));
#1516=CARTESIAN_POINT('Ctrl Pts',(-231.067515034031,-49.3903079208658,415.782026244486));
#1517=CARTESIAN_POINT('Ctrl Pts',(-230.944624089199,-49.3587829377195,416.077651861007));
#1518=CARTESIAN_POINT('Ctrl Pts',(-230.914142505639,-49.3497939557773,416.238826559707));
#1519=CARTESIAN_POINT('Ctrl Pts',(-230.914142505639,-49.3497939557773,416.390462923951));
#1520=CARTESIAN_POINT('Origin',(-232.500003069639,39.,399.700005930662));
#1521=CARTESIAN_POINT('',(-214.519897830363,37.,399.700005930662));
#1522=CARTESIAN_POINT('',(-212.804247641507,37.,399.700005930662));
#1523=CARTESIAN_POINT('',(-232.500003069639,37.,399.700005930662));
#1524=CARTESIAN_POINT('',(-214.054247641507,39.,397.700005930662));
#1525=CARTESIAN_POINT('Origin',(-214.054247641507,39.,399.700005930662));
#1526=CARTESIAN_POINT('',(-214.81343550297,39.,397.700005930662));
#1527=CARTESIAN_POINT('',(-232.500003069639,39.,397.700005930662));
#1528=CARTESIAN_POINT('Origin',(-214.81343550297,39.,399.700005930662));
#1529=CARTESIAN_POINT('Origin',(-230.305697917511,34.3523212756378,399.700005930662));
#1530=CARTESIAN_POINT('',(-244.,30.2440306508911,397.700005930662));
#1531=CARTESIAN_POINT('',(-230.305697917511,34.3523212756378,397.700005930662));
#1532=CARTESIAN_POINT('',(-244.,28.1559693491089,399.700005930662));
#1533=CARTESIAN_POINT('Origin',(-244.,30.2440306508911,399.700005930662));
#1534=CARTESIAN_POINT('',(-229.731002146378,32.4366687051955,399.700005930662));
#1535=CARTESIAN_POINT('Origin',(-232.500003069639,37.,405.500005930662));
#1536=CARTESIAN_POINT('',(-214.519897830363,37.,411.300005930662));
#1537=CARTESIAN_POINT('',(-214.519897830363,37.,405.250004447997));
#1538=CARTESIAN_POINT('',(-212.804247641507,37.,411.300005930662));
#1539=CARTESIAN_POINT('',(-232.500003069639,37.,411.300005930662));
#1540=CARTESIAN_POINT('',(-212.804247641507,37.,405.000002965331));
#1541=CARTESIAN_POINT('Origin',(-232.712652114434,31.5421737147788,405.000002965331));
#1542=CARTESIAN_POINT('',(-244.,28.1559693491089,411.300005930662));
#1543=CARTESIAN_POINT('',(-244.,28.1559693491089,404.750001482666));
#1544=CARTESIAN_POINT('',(-229.731002146378,32.4366687051955,411.300005930662));
#1545=CARTESIAN_POINT('Origin',(-230.305697917511,34.3523212756378,411.300005930662));
#1546=CARTESIAN_POINT('',(-244.,30.2440306508911,413.300005930662));
#1547=CARTESIAN_POINT('Origin',(-244.,30.2440306508911,411.300005930662));
#1548=CARTESIAN_POINT('',(-214.81343550297,39.,413.300005930662));
#1549=CARTESIAN_POINT('',(-230.305697917511,34.3523212756378,413.300005930662));
#1550=CARTESIAN_POINT('Origin',(-214.81343550297,39.,411.300005930662));
#1551=CARTESIAN_POINT('Origin',(-232.500003069639,39.,411.300005930662));
#1552=CARTESIAN_POINT('',(-214.054247641507,39.,413.300005930662));
#1553=CARTESIAN_POINT('',(-232.500003069639,39.,413.300005930662));
#1554=CARTESIAN_POINT('Origin',(-214.054247641507,39.,411.300005930662));
#1555=CARTESIAN_POINT('Origin',(-232.750002838671,-39.,411.300005930662));
#1556=CARTESIAN_POINT('',(-214.519897830363,-37.,411.300005930662));
#1557=CARTESIAN_POINT('',(-212.804247641507,-37.,411.300005930662));
#1558=CARTESIAN_POINT('',(-232.750002838671,-37.,411.300005930662));
#1559=CARTESIAN_POINT('',(-214.054247641507,-39.,413.300005930662));
#1560=CARTESIAN_POINT('Origin',(-214.054247641507,-39.,411.300005930662));
#1561=CARTESIAN_POINT('',(-214.81343550297,-39.,413.300005930662));
#1562=CARTESIAN_POINT('',(-232.750002838671,-39.,413.300005930662));
#1563=CARTESIAN_POINT('Origin',(-214.81343550297,-39.,411.300005930662));
#1564=CARTESIAN_POINT('Origin',(-244.755239201915,-30.0174588903167,411.300005930662));
#1565=CARTESIAN_POINT('',(-244.,-30.244030650891,413.300005930662));
#1566=CARTESIAN_POINT('',(-244.755239201915,-30.0174588903167,413.300005930662));
#1567=CARTESIAN_POINT('',(-244.,-28.1559693491089,411.300005930662));
#1568=CARTESIAN_POINT('Origin',(-244.,-30.244030650891,411.300005930662));
#1569=CARTESIAN_POINT('',(-244.180543430782,-28.1018063198744,411.300005930662));
#1570=CARTESIAN_POINT('Origin',(-233.000002607703,-37.,405.000005930662));
#1571=CARTESIAN_POINT('',(-214.519897830363,-37.,399.700005930662));
#1572=CARTESIAN_POINT('',(-214.519897830363,-37.,404.875004447997));
#1573=CARTESIAN_POINT('',(-212.804247641507,-37.,399.700005930662));
#1574=CARTESIAN_POINT('',(-232.750002838671,-37.,399.700005930662));
#1575=CARTESIAN_POINT('',(-212.804247641507,-37.,404.750002965331));
#1576=CARTESIAN_POINT('Origin',(-232.712652114434,-31.5421737147788,404.750002965331));
#1577=CARTESIAN_POINT('',(-244.,-28.1559693491089,399.700005930662));
#1578=CARTESIAN_POINT('',(-244.,-28.1559693491089,404.625001482666));
#1579=CARTESIAN_POINT('',(-244.180543430782,-28.1018063198744,399.700005930662));
#1580=CARTESIAN_POINT('Origin',(-244.755239201915,-30.0174588903167,399.700005930662));
#1581=CARTESIAN_POINT('',(-244.,-30.244030650891,397.700005930662));
#1582=CARTESIAN_POINT('Origin',(-244.,-30.244030650891,399.700005930662));
#1583=CARTESIAN_POINT('',(-214.81343550297,-39.,397.700005930662));
#1584=CARTESIAN_POINT('',(-244.755239201915,-30.0174588903167,397.700005930662));
#1585=CARTESIAN_POINT('Origin',(-214.81343550297,-39.,399.700005930662));
#1586=CARTESIAN_POINT('Origin',(-232.750002838671,-39.,399.700005930662));
#1587=CARTESIAN_POINT('',(-214.054247641507,-39.,397.700005930662));
#1588=CARTESIAN_POINT('',(-232.750002838671,-39.,397.700005930662));
#1589=CARTESIAN_POINT('Origin',(-214.054247641507,-39.,399.700005930662));
#1590=CARTESIAN_POINT('Origin',(-230.,19.0000002533197,394.));
#1591=CARTESIAN_POINT('',(-244.,17.0000002533197,394.));
#1592=CARTESIAN_POINT('',(-244.,19.0000002533197,392.));
#1593=CARTESIAN_POINT('Origin',(-244.,19.0000002533197,394.));
#1594=CARTESIAN_POINT('',(-202.519249952545,19.0000002533197,392.));
#1595=CARTESIAN_POINT('',(-230.,19.0000002533197,392.));
#1596=CARTESIAN_POINT('',(-201.775360708892,17.0000002533197,394.));
#1597=CARTESIAN_POINT('Ctrl Pts',(-202.519249952545,19.0000002533197,392.));
#1598=CARTESIAN_POINT('Ctrl Pts',(-202.419939972737,18.74949281328,392.));
#1599=CARTESIAN_POINT('Ctrl Pts',(-202.315739861663,18.480127080478,392.049877178103));
#1600=CARTESIAN_POINT('Ctrl Pts',(-202.127162904503,17.9805298474652,392.25818277001));
#1601=CARTESIAN_POINT('Ctrl Pts',(-202.042694208545,17.7503843011339,392.416734146497));
#1602=CARTESIAN_POINT('Ctrl Pts',(-201.915601365666,17.398724408222,392.777420085084));
#1603=CARTESIAN_POINT('Ctrl Pts',(-201.862685989733,17.249267142224,392.998009869114));
#1604=CARTESIAN_POINT('Ctrl Pts',(-201.792613811308,17.0498562087708,393.484258837532));
#1605=CARTESIAN_POINT('Ctrl Pts',(-201.775360708892,17.0000002533197,393.749944206076));
#1606=CARTESIAN_POINT('Ctrl Pts',(-201.775360708892,17.0000002533197,394.));
#1607=CARTESIAN_POINT('',(-230.,17.0000002533197,394.));
#1608=CARTESIAN_POINT('Origin',(-237.,17.0000002533197,397.000005841255));
#1609=CARTESIAN_POINT('',(-201.775360708892,17.0000002533197,402.000005841255));
#1610=CARTESIAN_POINT('',(-201.775360708892,17.0000002533197,404.5));
#1611=CARTESIAN_POINT('',(-244.,17.0000002533197,402.000005841255));
#1612=CARTESIAN_POINT('',(-237.,17.0000002533197,402.000005841255));
#1613=CARTESIAN_POINT('',(-244.,17.0000002533197,400.750002920628));
#1614=CARTESIAN_POINT('Origin',(-249.,0.573392453022589,404.5));
#1615=CARTESIAN_POINT('',(-206.600084799746,27.0733394531816,392.));
#1616=CARTESIAN_POINT('Origin',(-249.,0.573392453022589,392.));
#1617=CARTESIAN_POINT('',(-206.600084799746,27.0733394531816,419.5));
#1618=CARTESIAN_POINT('',(-206.600084799746,27.0733394531816,404.5));
#1619=CARTESIAN_POINT('',(-199.,0.573392453022589,419.5));
#1620=CARTESIAN_POINT('Origin',(-249.,0.573392453022589,419.5));
#1621=CARTESIAN_POINT('',(-199.,0.573392453022589,402.000005841255));
#1622=CARTESIAN_POINT('',(-199.,0.573392453022589,404.5));
#1623=CARTESIAN_POINT('Origin',(-249.,0.573392453022589,402.000005841255));
#1624=CARTESIAN_POINT('Origin',(-230.,-18.9999997466803,394.));
#1625=CARTESIAN_POINT('',(-201.775360532663,-16.9999997466803,394.));
#1626=CARTESIAN_POINT('',(-202.519249751695,-18.9999997466803,392.));
#1627=CARTESIAN_POINT('Ctrl Pts',(-201.775360532663,-16.9999997466803,394.));
#1628=CARTESIAN_POINT('Ctrl Pts',(-201.775360532663,-16.9999997466803,393.749944206017));
#1629=CARTESIAN_POINT('Ctrl Pts',(-201.792613634486,-17.0498557021496,393.484258837337));
#1630=CARTESIAN_POINT('Ctrl Pts',(-201.862685810608,-17.2492666358949,392.998009868507));
#1631=CARTESIAN_POINT('Ctrl Pts',(-201.915601184833,-17.398723902174,392.777420084204));
#1632=CARTESIAN_POINT('Ctrl Pts',(-202.042694023519,-17.7503837953111,392.416734145955));
#1633=CARTESIAN_POINT('Ctrl Pts',(-202.127162716551,-17.9805293413392,392.258182769747));
#1634=CARTESIAN_POINT('Ctrl Pts',(-202.315739667378,-18.4801265739434,392.049877178109));
#1635=CARTESIAN_POINT('Ctrl Pts',(-202.419939775048,-18.7494923066429,392.));
#1636=CARTESIAN_POINT('Ctrl Pts',(-202.519249751695,-18.9999997466803,392.));
#1637=CARTESIAN_POINT('',(-244.,-18.9999997466803,392.));
#1638=CARTESIAN_POINT('',(-230.,-18.9999997466803,392.));
#1639=CARTESIAN_POINT('',(-244.,-16.9999997466803,394.));
#1640=CARTESIAN_POINT('Origin',(-244.,-18.9999997466803,394.));
#1641=CARTESIAN_POINT('',(-230.,-16.9999997466803,394.));
#1642=CARTESIAN_POINT('Origin',(-223.,0.,392.));
#1643=CARTESIAN_POINT('',(-206.600084799746,-27.0733394531817,392.));
#1644=CARTESIAN_POINT('Origin',(-249.,-0.573392453022736,392.));
#1645=CARTESIAN_POINT('',(-221.741741016527,-51.2999894000318,392.));
#1646=CARTESIAN_POINT('',(-206.693503921983,-27.2228100487609,392.));
#1647=CARTESIAN_POINT('',(-230.221724056578,-56.,392.));
#1648=CARTESIAN_POINT('Origin',(-230.221724056578,-46.,392.));
#1649=CARTESIAN_POINT('',(-234.,-56.,392.));
#1650=CARTESIAN_POINT('',(-223.,-56.,392.));
#1651=CARTESIAN_POINT('',(-244.,-46.,392.));
#1652=CARTESIAN_POINT('Origin',(-234.,-46.,392.));
#1653=CARTESIAN_POINT('',(-244.,0.,392.));
#1654=CARTESIAN_POINT('',(-236.,-45.5,392.));
#1655=CARTESIAN_POINT('Origin',(-232.,-45.5,392.));
#1656=CARTESIAN_POINT('Origin',(-249.,-0.573392453022736,404.5));
#1657=CARTESIAN_POINT('',(-201.775360532663,-16.9999997466803,402.000005841255));
#1658=CARTESIAN_POINT('',(-201.775360532663,-16.9999997466803,404.5));
#1659=CARTESIAN_POINT('',(-199.,-0.573392453022736,402.000005841255));
#1660=CARTESIAN_POINT('Origin',(-249.,-0.573392453022736,402.000005841255));
#1661=CARTESIAN_POINT('',(-199.,-0.573392453022736,419.5));
#1662=CARTESIAN_POINT('',(-199.,-0.573392453022736,404.5));
#1663=CARTESIAN_POINT('',(-206.600084799746,-27.0733394531817,419.5));
#1664=CARTESIAN_POINT('Origin',(-249.,-0.573392453022736,419.5));
#1665=CARTESIAN_POINT('',(-206.600084799746,-27.0733394531817,404.5));
#1666=CARTESIAN_POINT('Origin',(-214.347998304005,-39.4700010599968,404.5));
#1667=CARTESIAN_POINT('',(-221.741741016527,-51.2999894000318,419.5));
#1668=CARTESIAN_POINT('',(-206.693503921983,-27.2228100487609,419.5));
#1669=CARTESIAN_POINT('',(-221.741741016527,-51.2999894000318,413.300005930662));
#1670=CARTESIAN_POINT('',(-221.741741016527,-51.2999894000318,404.5));
#1671=CARTESIAN_POINT('',(-196.230021207044,-10.4812377048596,413.300005930662));
#1672=CARTESIAN_POINT('',(-221.741741016527,-51.2999894000318,397.700005930662));
#1673=CARTESIAN_POINT('',(-196.230021207044,-10.4812377048596,397.700005930662));
#1674=CARTESIAN_POINT('',(-221.741741016527,-51.2999894000318,404.5));
#1675=CARTESIAN_POINT('Origin',(-223.,0.,419.5));
#1676=CARTESIAN_POINT('',(-199.,0.,419.5));
#1677=CARTESIAN_POINT('',(-221.741741016527,51.2999894000318,419.5));
#1678=CARTESIAN_POINT('',(-206.693503921983,27.2228100487609,419.5));
#1679=CARTESIAN_POINT('',(-230.221724056578,56.,419.5));
#1680=CARTESIAN_POINT('Origin',(-230.221724056578,46.,419.5));
#1681=CARTESIAN_POINT('',(-234.,56.,419.5));
#1682=CARTESIAN_POINT('',(-223.,56.,419.5));
#1683=CARTESIAN_POINT('',(-244.,46.,419.5));
#1684=CARTESIAN_POINT('Origin',(-234.,46.,419.5));
#1685=CARTESIAN_POINT('',(-244.,-46.,419.5));
#1686=CARTESIAN_POINT('',(-244.,0.,419.5));
#1687=CARTESIAN_POINT('',(-234.,-56.,419.5));
#1688=CARTESIAN_POINT('Origin',(-234.,-46.,419.5));
#1689=CARTESIAN_POINT('',(-230.221724056578,-56.,419.5));
#1690=CARTESIAN_POINT('',(-223.,-56.,419.5));
#1691=CARTESIAN_POINT('Origin',(-230.221724056578,-46.,419.5));
#1692=CARTESIAN_POINT('',(-236.,-45.5,419.5));
#1693=CARTESIAN_POINT('Origin',(-232.,-45.5,419.5));
#1694=CARTESIAN_POINT('',(-229.00000230968,-4.20000007450581,419.5));
#1695=CARTESIAN_POINT('',(-229.00000230968,4.19999992549419,419.5));
#1696=CARTESIAN_POINT('Origin',(-229.00000230968,-7.45058059692383E-8,419.5));
#1697=CARTESIAN_POINT('',(-209.00000230968,4.19999992549419,419.5));
#1698=CARTESIAN_POINT('',(-225.50000115484,4.19999992549419,419.5));
#1699=CARTESIAN_POINT('',(-209.00000230968,-4.20000007450581,419.5));
#1700=CARTESIAN_POINT('Origin',(-209.00000230968,-7.45058059692383E-8,419.5));
#1701=CARTESIAN_POINT('',(-225.50000115484,-4.20000007450581,419.5));
#1702=CARTESIAN_POINT('',(-236.,45.5,419.5));
#1703=CARTESIAN_POINT('Origin',(-232.,45.5,419.5));
#1704=CARTESIAN_POINT('Origin',(-223.,0.,392.));
#1705=CARTESIAN_POINT('',(-244.,46.,392.));
#1706=CARTESIAN_POINT('',(-244.,0.,392.));
#1707=CARTESIAN_POINT('',(-234.,56.,392.));
#1708=CARTESIAN_POINT('Origin',(-234.,46.,392.));
#1709=CARTESIAN_POINT('',(-230.221724056578,56.,392.));
#1710=CARTESIAN_POINT('',(-223.,56.,392.));
#1711=CARTESIAN_POINT('',(-221.741741016527,51.2999894000318,392.));
#1712=CARTESIAN_POINT('Origin',(-230.221724056578,46.,392.));
#1713=CARTESIAN_POINT('',(-206.693503921983,27.2228100487609,392.));
#1714=CARTESIAN_POINT('',(-236.,45.5,392.));
#1715=CARTESIAN_POINT('Origin',(-232.,45.5,392.));
#1716=CARTESIAN_POINT('Origin',(-237.,2.53319738519053E-7,402.000005841255));
#1717=CARTESIAN_POINT('',(-244.,-16.9999997466803,402.000005841255));
#1718=CARTESIAN_POINT('',(-237.,-16.9999997466803,402.000005841255));
#1719=CARTESIAN_POINT('',(-244.,1.26659869259527E-7,402.000005841255));
#1720=CARTESIAN_POINT('',(-199.,1.26659869259527E-7,402.000005841255));
#1721=CARTESIAN_POINT('',(-229.00000230968,4.19999992549419,402.000005841255));
#1722=CARTESIAN_POINT('',(-229.00000230968,-4.20000007450581,402.000005841255));
#1723=CARTESIAN_POINT('Origin',(-229.00000230968,-7.45058059692383E-8,402.000005841255));
#1724=CARTESIAN_POINT('',(-209.00000230968,-4.20000007450581,402.000005841255));
#1725=CARTESIAN_POINT('',(-232.50000115484,-4.20000007450581,402.000005841255));
#1726=CARTESIAN_POINT('',(-209.00000230968,4.19999992549419,402.000005841255));
#1727=CARTESIAN_POINT('Origin',(-209.00000230968,-7.45058059692383E-8,402.000005841255));
#1728=CARTESIAN_POINT('',(-232.50000115484,4.19999992549419,402.000005841255));
#1729=CARTESIAN_POINT('Origin',(-230.221724056578,-46.,404.5));
#1730=CARTESIAN_POINT('',(-230.221724056578,-56.,413.300005930662));
#1731=CARTESIAN_POINT('',(-230.221724056578,-56.,404.5));
#1732=CARTESIAN_POINT('Origin',(-230.221724056578,-46.,413.300005930662));
#1733=CARTESIAN_POINT('Origin',(-230.221724056578,-46.,404.5));
#1734=CARTESIAN_POINT('',(-230.221724056578,-56.,397.700005930662));
#1735=CARTESIAN_POINT('Origin',(-230.221724056578,-46.,397.700005930662));
#1736=CARTESIAN_POINT('',(-230.221724056578,-56.,404.5));
#1737=CARTESIAN_POINT('Origin',(-232.500003069639,52.5,397.700005930662));
#1738=CARTESIAN_POINT('',(-244.,-46.,397.700005930662));
#1739=CARTESIAN_POINT('',(-244.,-25.,397.700005930662));
#1740=CARTESIAN_POINT('',(-234.,-56.,397.700005930662));
#1741=CARTESIAN_POINT('Origin',(-234.,-46.,397.700005930662));
#1742=CARTESIAN_POINT('',(-228.000001303852,-56.,397.700005930662));
#1743=CARTESIAN_POINT('',(-236.,-45.5,397.700005930662));
#1744=CARTESIAN_POINT('Origin',(-232.,-45.5,397.700005930662));
#1745=CARTESIAN_POINT('Origin',(-230.221724056578,46.,404.5));
#1746=CARTESIAN_POINT('',(-221.741741016527,51.2999894000318,413.300005930662));
#1747=CARTESIAN_POINT('',(-221.741741016527,51.2999894000318,404.5));
#1748=CARTESIAN_POINT('',(-230.221724056578,56.,413.300005930662));
#1749=CARTESIAN_POINT('Origin',(-230.221724056578,46.,413.300005930662));
#1750=CARTESIAN_POINT('',(-230.221724056578,56.,404.5));
#1751=CARTESIAN_POINT('Origin',(-232.500003069639,52.5,413.300005930662));
#1752=CARTESIAN_POINT('',(-244.,46.,413.300005930662));
#1753=CARTESIAN_POINT('',(-244.,26.25,413.300005930662));
#1754=CARTESIAN_POINT('',(-234.,56.,413.300005930662));
#1755=CARTESIAN_POINT('Origin',(-234.,46.,413.300005930662));
#1756=CARTESIAN_POINT('',(-227.75000153482,56.,413.300005930662));
#1757=CARTESIAN_POINT('',(-219.825526825022,48.2340466936236,413.300005930662));
#1758=CARTESIAN_POINT('',(-236.,45.5,413.300005930662));
#1759=CARTESIAN_POINT('Origin',(-232.,45.5,413.300005930662));
#1760=CARTESIAN_POINT('Origin',(-214.347998304005,39.4700010599968,404.5));
#1761=CARTESIAN_POINT('',(-221.741741016527,51.2999894000318,397.700005930662));
#1762=CARTESIAN_POINT('',(-221.741741016527,51.2999894000318,404.5));
#1763=CARTESIAN_POINT('',(-219.825526825022,48.2340466936236,397.700005930662));
#1764=CARTESIAN_POINT('Origin',(-230.221724056578,46.,404.5));
#1765=CARTESIAN_POINT('',(-230.221724056578,56.,397.700005930662));
#1766=CARTESIAN_POINT('',(-230.221724056578,56.,404.5));
#1767=CARTESIAN_POINT('Origin',(-230.221724056578,46.,397.700005930662));
#1768=CARTESIAN_POINT('Origin',(-237.,-16.9999997466803,397.000005841255));
#1769=CARTESIAN_POINT('',(-244.,-16.9999997466803,400.750002920628));
#1770=CARTESIAN_POINT('Origin',(-199.,0.,404.5));
#1771=CARTESIAN_POINT('Origin',(-234.,46.,404.5));
#1772=CARTESIAN_POINT('',(-244.,46.,397.700005930662));
#1773=CARTESIAN_POINT('',(-244.,46.,404.5));
#1774=CARTESIAN_POINT('',(-234.,56.,397.700005930662));
#1775=CARTESIAN_POINT('Origin',(-234.,46.,397.700005930662));
#1776=CARTESIAN_POINT('',(-234.,56.,404.5));
#1777=CARTESIAN_POINT('Origin',(-244.,0.,404.5));
#1778=CARTESIAN_POINT('',(-244.,-46.,404.5));
#1779=CARTESIAN_POINT('',(-244.,-46.,413.300005930662));
#1780=CARTESIAN_POINT('',(-244.,-25.,413.300005930662));
#1781=CARTESIAN_POINT('',(-244.,-46.,404.5));
#1782=CARTESIAN_POINT('',(-244.,46.,404.5));
#1783=CARTESIAN_POINT('',(-244.,26.25,397.700005930662));
#1784=CARTESIAN_POINT('Origin',(-234.,46.,404.5));
#1785=CARTESIAN_POINT('',(-234.,56.,404.5));
#1786=CARTESIAN_POINT('Origin',(-232.500003069639,52.5,397.700005930662));
#1787=CARTESIAN_POINT('',(-227.75000153482,56.,397.700005930662));
#1788=CARTESIAN_POINT('',(-236.,45.5,397.700005930662));
#1789=CARTESIAN_POINT('Origin',(-232.,45.5,397.700005930662));
#1790=CARTESIAN_POINT('Origin',(-234.,-46.,404.5));
#1791=CARTESIAN_POINT('',(-234.,-56.,404.5));
#1792=CARTESIAN_POINT('Origin',(-232.500003069639,52.5,413.300005930662));
#1793=CARTESIAN_POINT('',(-234.,-56.,413.300005930662));
#1794=CARTESIAN_POINT('',(-228.000001303852,-56.,413.300005930662));
#1795=CARTESIAN_POINT('Origin',(-234.,-46.,413.300005930662));
#1796=CARTESIAN_POINT('',(-236.,-45.5,413.300005930662));
#1797=CARTESIAN_POINT('Origin',(-232.,-45.5,413.300005930662));
#1798=CARTESIAN_POINT('Origin',(-234.,-46.,404.5));
#1799=CARTESIAN_POINT('',(-234.,-56.,404.5));
#1800=CARTESIAN_POINT('Origin',(-223.,-56.,404.5));
#1801=CARTESIAN_POINT('Origin',(-209.00000230968,-7.45058059692383E-8,406.500005841255));
#1802=CARTESIAN_POINT('',(-209.00000230968,-4.20000007450581,406.500005841255));
#1803=CARTESIAN_POINT('',(-209.00000230968,4.19999992549419,406.500005841255));
#1804=CARTESIAN_POINT('Origin',(-228.00000230968,4.19999992549419,406.500005841255));
#1805=CARTESIAN_POINT('',(-229.00000230968,4.19999992549419,406.500005841255));
#1806=CARTESIAN_POINT('Origin',(-229.00000230968,-7.45058059692383E-8,406.500005841255));
#1807=CARTESIAN_POINT('',(-229.00000230968,-4.20000007450581,406.500005841255));
#1808=CARTESIAN_POINT('Origin',(-228.00000230968,-4.20000007450581,406.500005841255));
#1809=CARTESIAN_POINT('Origin',(-223.,56.,404.5));
#1810=CARTESIAN_POINT('Origin',(-232.,45.5,403.));
#1811=CARTESIAN_POINT('',(-236.,45.5,403.));
#1812=CARTESIAN_POINT('Origin',(-232.,45.5,403.));
#1813=CARTESIAN_POINT('',(-236.,45.5,403.));
#1814=CARTESIAN_POINT('Origin',(-232.,-45.5,403.));
#1815=CARTESIAN_POINT('',(-236.,-45.5,403.));
#1816=CARTESIAN_POINT('Origin',(-232.,-45.5,403.));
#1817=CARTESIAN_POINT('',(-236.,-45.5,403.));
#1818=CARTESIAN_POINT('Origin',(-223.,-56.,404.5));
#1819=CARTESIAN_POINT('Origin',(-223.,56.,404.5));
#1820=UNCERTAINTY_MEASURE_WITH_UNIT(LENGTH_MEASURE(0.01),#1824,
'DISTANCE_ACCURACY_VALUE',
'Maximum model space distance between geometric entities at asserted c
onnectivities');
#1821=UNCERTAINTY_MEASURE_WITH_UNIT(LENGTH_MEASURE(0.01),#1824,
'DISTANCE_ACCURACY_VALUE',
'Maximum model space distance between geometric entities at asserted c
onnectivities');
#1822=(
GEOMETRIC_REPRESENTATION_CONTEXT(3)
GLOBAL_UNCERTAINTY_ASSIGNED_CONTEXT((#1820))
GLOBAL_UNIT_ASSIGNED_CONTEXT((#1824,#1825,#1826))
REPRESENTATION_CONTEXT('','3D')
);
#1823=(
GEOMETRIC_REPRESENTATION_CONTEXT(3)
GLOBAL_UNCERTAINTY_ASSIGNED_CONTEXT((#1821))
GLOBAL_UNIT_ASSIGNED_CONTEXT((#1824,#1825,#1826))
REPRESENTATION_CONTEXT('','3D')
);
#1824=(
LENGTH_UNIT()
NAMED_UNIT(*)
SI_UNIT(.MILLI.,.METRE.)
);
#1825=(
NAMED_UNIT(*)
PLANE_ANGLE_UNIT()
SI_UNIT($,.RADIAN.)
);
#1826=(
NAMED_UNIT(*)
SI_UNIT($,.STERADIAN.)
SOLID_ANGLE_UNIT()
);
#1827=SHAPE_DEFINITION_REPRESENTATION(#1828,#1829);
#1828=PRODUCT_DEFINITION_SHAPE('',$,#1831);
#1829=SHAPE_REPRESENTATION('',(#1034),#1822);
#1830=PRODUCT_DEFINITION_CONTEXT('part definition',#1835,'design');
#1831=PRODUCT_DEFINITION('HTD3M-270t-20t-1068mm-Chassis-V3',
'HTD3M-270t-20t-1068mm-Chassis-V3 v70',#1832,#1830);
#1832=PRODUCT_DEFINITION_FORMATION('',$,#1837);
#1833=PRODUCT_RELATED_PRODUCT_CATEGORY(
'HTD3M-270t-20t-1068mm-Chassis-V3 v70',
'HTD3M-270t-20t-1068mm-Chassis-V3 v70',(#1837));
#1834=APPLICATION_PROTOCOL_DEFINITION('international standard',
'automotive_design',2009,#1835);
#1835=APPLICATION_CONTEXT(
'Core Data for Automotive Mechanical Design Process');
#1836=PRODUCT_CONTEXT('part definition',#1835,'mechanical');
#1837=PRODUCT('HTD3M-270t-20t-1068mm-Chassis-V3',
'HTD3M-270t-20t-1068mm-Chassis-V3 v70',$,(#1836));
#1838=PRESENTATION_STYLE_ASSIGNMENT((#1846));
#1839=PRESENTATION_STYLE_ASSIGNMENT((#1847));
#1840=PRESENTATION_STYLE_ASSIGNMENT((#1848));
#1841=PRESENTATION_STYLE_ASSIGNMENT((#1849));
#1842=PRESENTATION_STYLE_ASSIGNMENT((#1850));
#1843=PRESENTATION_STYLE_ASSIGNMENT((#1851));
#1844=PRESENTATION_STYLE_ASSIGNMENT((#1852));
#1845=PRESENTATION_STYLE_ASSIGNMENT((#1853));
#1846=SURFACE_STYLE_USAGE(.BOTH.,#1854);
#1847=SURFACE_STYLE_USAGE(.BOTH.,#1855);
#1848=SURFACE_STYLE_USAGE(.BOTH.,#1856);
#1849=SURFACE_STYLE_USAGE(.BOTH.,#1857);
#1850=SURFACE_STYLE_USAGE(.BOTH.,#1858);
#1851=SURFACE_STYLE_USAGE(.BOTH.,#1859);
#1852=SURFACE_STYLE_USAGE(.BOTH.,#1860);
#1853=SURFACE_STYLE_USAGE(.BOTH.,#1861);
#1854=SURFACE_SIDE_STYLE('',(#1862));
#1855=SURFACE_SIDE_STYLE('',(#1863));
#1856=SURFACE_SIDE_STYLE('',(#1864));
#1857=SURFACE_SIDE_STYLE('',(#1865));
#1858=SURFACE_SIDE_STYLE('',(#1866));
#1859=SURFACE_SIDE_STYLE('',(#1867));
#1860=SURFACE_SIDE_STYLE('',(#1868));
#1861=SURFACE_SIDE_STYLE('',(#1869));
#1862=SURFACE_STYLE_FILL_AREA(#1870);
#1863=SURFACE_STYLE_FILL_AREA(#1871);
#1864=SURFACE_STYLE_FILL_AREA(#1872);
#1865=SURFACE_STYLE_FILL_AREA(#1873);
#1866=SURFACE_STYLE_FILL_AREA(#1874);
#1867=SURFACE_STYLE_FILL_AREA(#1875);
#1868=SURFACE_STYLE_FILL_AREA(#1876);
#1869=SURFACE_STYLE_FILL_AREA(#1877);
#1870=FILL_AREA_STYLE('Opaque(175,143,175)',(#1878));
#1871=FILL_AREA_STYLE('Opaque(159,175,143)',(#1879));
#1872=FILL_AREA_STYLE('Opaque(143,143,175)',(#1880));
#1873=FILL_AREA_STYLE('Opaque(175,159,143)',(#1881));
#1874=FILL_AREA_STYLE('Opaque(143,175,175)',(#1882));
#1875=FILL_AREA_STYLE('Steel - Satin',(#1883));
#1876=FILL_AREA_STYLE('Plastic - Translucent Matte (Red)',(#1884));
#1877=FILL_AREA_STYLE('Steel - Satin',(#1885));
#1878=FILL_AREA_STYLE_COLOUR('Opaque(175,143,175)',#1886);
#1879=FILL_AREA_STYLE_COLOUR('Opaque(159,175,143)',#1887);
#1880=FILL_AREA_STYLE_COLOUR('Opaque(143,143,175)',#1888);
#1881=FILL_AREA_STYLE_COLOUR('Opaque(175,159,143)',#1889);
#1882=FILL_AREA_STYLE_COLOUR('Opaque(143,175,175)',#1890);
#1883=FILL_AREA_STYLE_COLOUR('Steel - Satin',#1891);
#1884=FILL_AREA_STYLE_COLOUR('Plastic - Translucent Matte (Red)',#1892);
#1885=FILL_AREA_STYLE_COLOUR('Steel - Satin',#1893);
#1886=COLOUR_RGB('Opaque(175,143,175)',0.686274509803922,0.56078431372549,
0.686274509803922);
#1887=COLOUR_RGB('Opaque(159,175,143)',0.623529411764706,0.686274509803922,
0.56078431372549);
#1888=COLOUR_RGB('Opaque(143,143,175)',0.56078431372549,0.56078431372549,
0.686274509803922);
#1889=COLOUR_RGB('Opaque(175,159,143)',0.686274509803922,0.623529411764706,
0.56078431372549);
#1890=COLOUR_RGB('Opaque(143,175,175)',0.56078431372549,0.686274509803922,
0.686274509803922);
#1891=COLOUR_RGB('Steel - Satin',0.627450980392157,0.627450980392157,0.627450980392157);
#1892=COLOUR_RGB('Plastic - Translucent Matte (Red)',0.768627450980392,
0.207843137254902,0.152941176470588);
#1893=COLOUR_RGB('Steel - Satin',0.552941176470588,0.227450980392157,0.227450980392157);
ENDSEC;
END-ISO-10303-21;
