ISO-10303-21;
HEADER;
/* Generated by software containing ST-Developer
 * from STEP Tools, Inc. (www.steptools.com) 
 */

FILE_DESCRIPTION(
/* description */ (''),
/* implementation_level */ '2;1');

FILE_NAME(
/* name */ 'Tension-Roller-Guide.step',
/* time_stamp */ '2026-04-07T14:09:16+02:00',
/* author */ (''),
/* organization */ (''),
/* preprocessor_version */ 'ST-DEVELOPER v20.1',
/* originating_system */ 'Autodesk Translation Framework v14.24.0.0',
/* authorisation */ '');

FILE_SCHEMA (('AUTOMOTIVE_DESIGN { 1 0 10303 214 3 1 1 }'));
ENDSEC;

DATA;
#10=MECHANICAL_DESIGN_GEOMETRIC_PRESENTATION_REPRESENTATION('',(#13),#448);
#11=SHAPE_REPRESENTATION_RELATIONSHIP('SRR','None',#454,#12);
#12=ADVANCED_BREP_SHAPE_REPRESENTATION('',(#14),#447);
#13=STYLED_ITEM('',(#469),#14);
#14=MANIFOLD_SOLID_BREP('Tension-roller-Guide',#264);
#15=FACE_BOUND('',#52,.T.);
#16=FACE_BOUND('',#53,.T.);
#17=FACE_BOUND('',#62,.T.);
#18=FACE_BOUND('',#63,.T.);
#19=FACE_BOUND('',#64,.T.);
#20=FACE_BOUND('',#66,.T.);
#21=FACE_BOUND('',#67,.T.);
#22=FACE_BOUND('',#68,.T.);
#23=PLANE('',#269);
#24=PLANE('',#270);
#25=PLANE('',#274);
#26=PLANE('',#275);
#27=PLANE('',#280);
#28=PLANE('',#283);
#29=PLANE('',#293);
#30=PLANE('',#294);
#31=FACE_OUTER_BOUND('',#46,.T.);
#32=FACE_OUTER_BOUND('',#47,.T.);
#33=FACE_OUTER_BOUND('',#48,.T.);
#34=FACE_OUTER_BOUND('',#49,.T.);
#35=FACE_OUTER_BOUND('',#50,.T.);
#36=FACE_OUTER_BOUND('',#51,.T.);
#37=FACE_OUTER_BOUND('',#54,.T.);
#38=FACE_OUTER_BOUND('',#55,.T.);
#39=FACE_OUTER_BOUND('',#56,.T.);
#40=FACE_OUTER_BOUND('',#57,.T.);
#41=FACE_OUTER_BOUND('',#58,.T.);
#42=FACE_OUTER_BOUND('',#59,.T.);
#43=FACE_OUTER_BOUND('',#60,.T.);
#44=FACE_OUTER_BOUND('',#61,.T.);
#45=FACE_OUTER_BOUND('',#65,.T.);
#46=EDGE_LOOP('',(#176,#177,#178,#179));
#47=EDGE_LOOP('',(#180,#181,#182,#183));
#48=EDGE_LOOP('',(#184,#185,#186,#187,#188,#189));
#49=EDGE_LOOP('',(#190,#191,#192,#193));
#50=EDGE_LOOP('',(#194,#195,#196,#197));
#51=EDGE_LOOP('',(#198,#199,#200,#201,#202,#203));
#52=EDGE_LOOP('',(#204));
#53=EDGE_LOOP('',(#205));
#54=EDGE_LOOP('',(#206,#207,#208,#209));
#55=EDGE_LOOP('',(#210));
#56=EDGE_LOOP('',(#211,#212,#213,#214));
#57=EDGE_LOOP('',(#215));
#58=EDGE_LOOP('',(#216,#217,#218,#219));
#59=EDGE_LOOP('',(#220,#221,#222,#223));
#60=EDGE_LOOP('',(#224,#225,#226,#227));
#61=EDGE_LOOP('',(#228,#229,#230,#231));
#62=EDGE_LOOP('',(#232));
#63=EDGE_LOOP('',(#233));
#64=EDGE_LOOP('',(#234));
#65=EDGE_LOOP('',(#235,#236,#237,#238));
#66=EDGE_LOOP('',(#239));
#67=EDGE_LOOP('',(#240));
#68=EDGE_LOOP('',(#241));
#69=LINE('',#380,#88);
#70=LINE('',#383,#89);
#71=LINE('',#386,#90);
#72=LINE('',#388,#91);
#73=LINE('',#389,#92);
#74=LINE('',#392,#93);
#75=LINE('',#396,#94);
#76=LINE('',#397,#95);
#77=LINE('',#402,#96);
#78=LINE('',#403,#97);
#79=LINE('',#406,#98);
#80=LINE('',#407,#99);
#81=LINE('',#409,#100);
#82=LINE('',#410,#101);
#83=LINE('',#417,#102);
#84=LINE('',#422,#103);
#85=LINE('',#429,#104);
#86=LINE('',#435,#105);
#87=LINE('',#441,#106);
#88=VECTOR('',#301,10.);
#89=VECTOR('',#304,10.);
#90=VECTOR('',#307,10.);
#91=VECTOR('',#308,10.);
#92=VECTOR('',#309,10.);
#93=VECTOR('',#312,10.);
#94=VECTOR('',#315,10.);
#95=VECTOR('',#316,10.);
#96=VECTOR('',#321,10.);
#97=VECTOR('',#322,10.);
#98=VECTOR('',#325,10.);
#99=VECTOR('',#326,10.);
#100=VECTOR('',#329,10.);
#101=VECTOR('',#330,10.);
#102=VECTOR('',#337,2.1);
#103=VECTOR('',#344,2.1);
#104=VECTOR('',#353,3.4);
#105=VECTOR('',#360,3.4);
#106=VECTOR('',#367,3.4);
#107=CIRCLE('',#267,2.);
#108=CIRCLE('',#268,2.);
#109=CIRCLE('',#271,2.);
#110=CIRCLE('',#273,2.);
#111=CIRCLE('',#276,2.1);
#112=CIRCLE('',#277,2.1);
#113=CIRCLE('',#279,2.1);
#114=CIRCLE('',#282,2.1);
#115=CIRCLE('',#285,3.4);
#116=CIRCLE('',#286,3.4);
#117=CIRCLE('',#288,3.4);
#118=CIRCLE('',#289,3.4);
#119=CIRCLE('',#291,3.4);
#120=CIRCLE('',#292,3.4);
#121=VERTEX_POINT('',#376);
#122=VERTEX_POINT('',#377);
#123=VERTEX_POINT('',#379);
#124=VERTEX_POINT('',#381);
#125=VERTEX_POINT('',#385);
#126=VERTEX_POINT('',#387);
#127=VERTEX_POINT('',#391);
#128=VERTEX_POINT('',#393);
#129=VERTEX_POINT('',#395);
#130=VERTEX_POINT('',#399);
#131=VERTEX_POINT('',#400);
#132=VERTEX_POINT('',#405);
#133=VERTEX_POINT('',#411);
#134=VERTEX_POINT('',#413);
#135=VERTEX_POINT('',#416);
#136=VERTEX_POINT('',#421);
#137=VERTEX_POINT('',#426);
#138=VERTEX_POINT('',#428);
#139=VERTEX_POINT('',#432);
#140=VERTEX_POINT('',#434);
#141=VERTEX_POINT('',#438);
#142=VERTEX_POINT('',#440);
#143=EDGE_CURVE('',#121,#122,#107,.T.);
#144=EDGE_CURVE('',#122,#123,#69,.T.);
#145=EDGE_CURVE('',#123,#124,#108,.T.);
#146=EDGE_CURVE('',#124,#121,#70,.T.);
#147=EDGE_CURVE('',#125,#124,#71,.F.);
#148=EDGE_CURVE('',#125,#126,#72,.T.);
#149=EDGE_CURVE('',#121,#126,#73,.T.);
#150=EDGE_CURVE('',#123,#127,#74,.F.);
#151=EDGE_CURVE('',#128,#127,#109,.T.);
#152=EDGE_CURVE('',#128,#129,#75,.F.);
#153=EDGE_CURVE('',#129,#125,#76,.F.);
#154=EDGE_CURVE('',#130,#131,#110,.T.);
#155=EDGE_CURVE('',#131,#128,#77,.T.);
#156=EDGE_CURVE('',#127,#130,#78,.T.);
#157=EDGE_CURVE('',#132,#131,#79,.T.);
#158=EDGE_CURVE('',#129,#132,#80,.F.);
#159=EDGE_CURVE('',#126,#132,#81,.T.);
#160=EDGE_CURVE('',#130,#122,#82,.T.);
#161=EDGE_CURVE('',#133,#133,#111,.T.);
#162=EDGE_CURVE('',#134,#134,#112,.T.);
#163=EDGE_CURVE('',#134,#135,#83,.T.);
#164=EDGE_CURVE('',#135,#135,#113,.T.);
#165=EDGE_CURVE('',#133,#136,#84,.T.);
#166=EDGE_CURVE('',#136,#136,#114,.T.);
#167=EDGE_CURVE('',#137,#137,#115,.T.);
#168=EDGE_CURVE('',#137,#138,#85,.T.);
#169=EDGE_CURVE('',#138,#138,#116,.T.);
#170=EDGE_CURVE('',#139,#139,#117,.T.);
#171=EDGE_CURVE('',#139,#140,#86,.T.);
#172=EDGE_CURVE('',#140,#140,#118,.T.);
#173=EDGE_CURVE('',#141,#141,#119,.T.);
#174=EDGE_CURVE('',#141,#142,#87,.T.);
#175=EDGE_CURVE('',#142,#142,#120,.T.);
#176=ORIENTED_EDGE('',*,*,#143,.T.);
#177=ORIENTED_EDGE('',*,*,#144,.T.);
#178=ORIENTED_EDGE('',*,*,#145,.T.);
#179=ORIENTED_EDGE('',*,*,#146,.T.);
#180=ORIENTED_EDGE('',*,*,#146,.F.);
#181=ORIENTED_EDGE('',*,*,#147,.F.);
#182=ORIENTED_EDGE('',*,*,#148,.T.);
#183=ORIENTED_EDGE('',*,*,#149,.F.);
#184=ORIENTED_EDGE('',*,*,#145,.F.);
#185=ORIENTED_EDGE('',*,*,#150,.T.);
#186=ORIENTED_EDGE('',*,*,#151,.F.);
#187=ORIENTED_EDGE('',*,*,#152,.T.);
#188=ORIENTED_EDGE('',*,*,#153,.T.);
#189=ORIENTED_EDGE('',*,*,#147,.T.);
#190=ORIENTED_EDGE('',*,*,#154,.T.);
#191=ORIENTED_EDGE('',*,*,#155,.T.);
#192=ORIENTED_EDGE('',*,*,#151,.T.);
#193=ORIENTED_EDGE('',*,*,#156,.T.);
#194=ORIENTED_EDGE('',*,*,#155,.F.);
#195=ORIENTED_EDGE('',*,*,#157,.F.);
#196=ORIENTED_EDGE('',*,*,#158,.F.);
#197=ORIENTED_EDGE('',*,*,#152,.F.);
#198=ORIENTED_EDGE('',*,*,#143,.F.);
#199=ORIENTED_EDGE('',*,*,#149,.T.);
#200=ORIENTED_EDGE('',*,*,#159,.T.);
#201=ORIENTED_EDGE('',*,*,#157,.T.);
#202=ORIENTED_EDGE('',*,*,#154,.F.);
#203=ORIENTED_EDGE('',*,*,#160,.T.);
#204=ORIENTED_EDGE('',*,*,#161,.T.);
#205=ORIENTED_EDGE('',*,*,#162,.T.);
#206=ORIENTED_EDGE('',*,*,#162,.F.);
#207=ORIENTED_EDGE('',*,*,#163,.T.);
#208=ORIENTED_EDGE('',*,*,#164,.T.);
#209=ORIENTED_EDGE('',*,*,#163,.F.);
#210=ORIENTED_EDGE('',*,*,#164,.F.);
#211=ORIENTED_EDGE('',*,*,#161,.F.);
#212=ORIENTED_EDGE('',*,*,#165,.T.);
#213=ORIENTED_EDGE('',*,*,#166,.T.);
#214=ORIENTED_EDGE('',*,*,#165,.F.);
#215=ORIENTED_EDGE('',*,*,#166,.F.);
#216=ORIENTED_EDGE('',*,*,#167,.F.);
#217=ORIENTED_EDGE('',*,*,#168,.T.);
#218=ORIENTED_EDGE('',*,*,#169,.F.);
#219=ORIENTED_EDGE('',*,*,#168,.F.);
#220=ORIENTED_EDGE('',*,*,#170,.F.);
#221=ORIENTED_EDGE('',*,*,#171,.T.);
#222=ORIENTED_EDGE('',*,*,#172,.F.);
#223=ORIENTED_EDGE('',*,*,#171,.F.);
#224=ORIENTED_EDGE('',*,*,#173,.F.);
#225=ORIENTED_EDGE('',*,*,#174,.T.);
#226=ORIENTED_EDGE('',*,*,#175,.F.);
#227=ORIENTED_EDGE('',*,*,#174,.F.);
#228=ORIENTED_EDGE('',*,*,#144,.F.);
#229=ORIENTED_EDGE('',*,*,#160,.F.);
#230=ORIENTED_EDGE('',*,*,#156,.F.);
#231=ORIENTED_EDGE('',*,*,#150,.F.);
#232=ORIENTED_EDGE('',*,*,#167,.T.);
#233=ORIENTED_EDGE('',*,*,#170,.T.);
#234=ORIENTED_EDGE('',*,*,#173,.T.);
#235=ORIENTED_EDGE('',*,*,#158,.T.);
#236=ORIENTED_EDGE('',*,*,#159,.F.);
#237=ORIENTED_EDGE('',*,*,#148,.F.);
#238=ORIENTED_EDGE('',*,*,#153,.F.);
#239=ORIENTED_EDGE('',*,*,#169,.T.);
#240=ORIENTED_EDGE('',*,*,#172,.T.);
#241=ORIENTED_EDGE('',*,*,#175,.T.);
#242=CYLINDRICAL_SURFACE('',#266,2.);
#243=CYLINDRICAL_SURFACE('',#272,2.);
#244=CYLINDRICAL_SURFACE('',#278,2.1);
#245=CYLINDRICAL_SURFACE('',#281,2.1);
#246=CYLINDRICAL_SURFACE('',#284,3.4);
#247=CYLINDRICAL_SURFACE('',#287,3.4);
#248=CYLINDRICAL_SURFACE('',#290,3.4);
#249=ADVANCED_FACE('',(#31),#242,.T.);
#250=ADVANCED_FACE('',(#32),#23,.F.);
#251=ADVANCED_FACE('',(#33),#24,.T.);
#252=ADVANCED_FACE('',(#34),#243,.T.);
#253=ADVANCED_FACE('',(#35),#25,.F.);
#254=ADVANCED_FACE('',(#36,#15,#16),#26,.F.);
#255=ADVANCED_FACE('',(#37),#244,.F.);
#256=ADVANCED_FACE('',(#38),#27,.F.);
#257=ADVANCED_FACE('',(#39),#245,.F.);
#258=ADVANCED_FACE('',(#40),#28,.F.);
#259=ADVANCED_FACE('',(#41),#246,.F.);
#260=ADVANCED_FACE('',(#42),#247,.F.);
#261=ADVANCED_FACE('',(#43),#248,.F.);
#262=ADVANCED_FACE('',(#44,#17,#18,#19),#29,.F.);
#263=ADVANCED_FACE('',(#45,#20,#21,#22),#30,.F.);
#264=CLOSED_SHELL('',(#249,#250,#251,#252,#253,#254,#255,#256,#257,#258,
#259,#260,#261,#262,#263));
#265=AXIS2_PLACEMENT_3D('',#374,#295,#296);
#266=AXIS2_PLACEMENT_3D('',#375,#297,#298);
#267=AXIS2_PLACEMENT_3D('',#378,#299,#300);
#268=AXIS2_PLACEMENT_3D('',#382,#302,#303);
#269=AXIS2_PLACEMENT_3D('',#384,#305,#306);
#270=AXIS2_PLACEMENT_3D('',#390,#310,#311);
#271=AXIS2_PLACEMENT_3D('',#394,#313,#314);
#272=AXIS2_PLACEMENT_3D('',#398,#317,#318);
#273=AXIS2_PLACEMENT_3D('',#401,#319,#320);
#274=AXIS2_PLACEMENT_3D('',#404,#323,#324);
#275=AXIS2_PLACEMENT_3D('',#408,#327,#328);
#276=AXIS2_PLACEMENT_3D('',#412,#331,#332);
#277=AXIS2_PLACEMENT_3D('',#414,#333,#334);
#278=AXIS2_PLACEMENT_3D('',#415,#335,#336);
#279=AXIS2_PLACEMENT_3D('',#418,#338,#339);
#280=AXIS2_PLACEMENT_3D('',#419,#340,#341);
#281=AXIS2_PLACEMENT_3D('',#420,#342,#343);
#282=AXIS2_PLACEMENT_3D('',#423,#345,#346);
#283=AXIS2_PLACEMENT_3D('',#424,#347,#348);
#284=AXIS2_PLACEMENT_3D('',#425,#349,#350);
#285=AXIS2_PLACEMENT_3D('',#427,#351,#352);
#286=AXIS2_PLACEMENT_3D('',#430,#354,#355);
#287=AXIS2_PLACEMENT_3D('',#431,#356,#357);
#288=AXIS2_PLACEMENT_3D('',#433,#358,#359);
#289=AXIS2_PLACEMENT_3D('',#436,#361,#362);
#290=AXIS2_PLACEMENT_3D('',#437,#363,#364);
#291=AXIS2_PLACEMENT_3D('',#439,#365,#366);
#292=AXIS2_PLACEMENT_3D('',#442,#368,#369);
#293=AXIS2_PLACEMENT_3D('',#443,#370,#371);
#294=AXIS2_PLACEMENT_3D('',#444,#372,#373);
#295=DIRECTION('axis',(0.,0.,1.));
#296=DIRECTION('refdir',(1.,0.,0.));
#297=DIRECTION('center_axis',(-1.,0.,0.));
#298=DIRECTION('ref_axis',(0.,0.707106781186543,0.707106781186552));
#299=DIRECTION('center_axis',(1.,0.,0.));
#300=DIRECTION('ref_axis',(0.,0.707106781186543,0.707106781186552));
#301=DIRECTION('',(1.,0.,0.));
#302=DIRECTION('center_axis',(-1.,0.,0.));
#303=DIRECTION('ref_axis',(0.,0.707106781186543,0.707106781186552));
#304=DIRECTION('',(-1.,0.,0.));
#305=DIRECTION('center_axis',(0.,-1.,-1.48029765439342E-16));
#306=DIRECTION('ref_axis',(-1.,0.,0.));
#307=DIRECTION('',(0.,1.48029765439342E-16,-1.));
#308=DIRECTION('',(-1.,0.,0.));
#309=DIRECTION('',(0.,1.48029765439342E-16,-1.));
#310=DIRECTION('center_axis',(1.,0.,0.));
#311=DIRECTION('ref_axis',(0.,1.48029765439342E-16,-1.));
#312=DIRECTION('',(0.,1.,1.48029765439342E-16));
#313=DIRECTION('center_axis',(-1.,0.,0.));
#314=DIRECTION('ref_axis',(0.,-0.707106781186543,0.707106781186552));
#315=DIRECTION('',(0.,-1.48029765439342E-16,1.));
#316=DIRECTION('',(0.,-1.,-1.48029765439342E-16));
#317=DIRECTION('center_axis',(-1.,0.,0.));
#318=DIRECTION('ref_axis',(0.,-0.707106781186543,0.707106781186552));
#319=DIRECTION('center_axis',(1.,0.,0.));
#320=DIRECTION('ref_axis',(0.,-0.707106781186543,0.707106781186552));
#321=DIRECTION('',(1.,0.,0.));
#322=DIRECTION('',(-1.,0.,0.));
#323=DIRECTION('center_axis',(0.,1.,1.48029765439342E-16));
#324=DIRECTION('ref_axis',(1.,0.,0.));
#325=DIRECTION('',(0.,-1.48029765439342E-16,1.));
#326=DIRECTION('',(1.,0.,0.));
#327=DIRECTION('center_axis',(1.,0.,0.));
#328=DIRECTION('ref_axis',(0.,1.48029765439342E-16,-1.));
#329=DIRECTION('',(0.,-1.,-1.48029765439342E-16));
#330=DIRECTION('',(0.,1.,1.48029765439342E-16));
#331=DIRECTION('center_axis',(1.,0.,0.));
#332=DIRECTION('ref_axis',(0.,-1.,0.));
#333=DIRECTION('center_axis',(1.,0.,0.));
#334=DIRECTION('ref_axis',(0.,-1.,0.));
#335=DIRECTION('center_axis',(1.,0.,0.));
#336=DIRECTION('ref_axis',(0.,-1.,0.));
#337=DIRECTION('',(1.,0.,0.));
#338=DIRECTION('center_axis',(1.,0.,0.));
#339=DIRECTION('ref_axis',(0.,-1.,0.));
#340=DIRECTION('center_axis',(1.,0.,0.));
#341=DIRECTION('ref_axis',(0.,-1.,0.));
#342=DIRECTION('center_axis',(1.,0.,0.));
#343=DIRECTION('ref_axis',(0.,-1.,0.));
#344=DIRECTION('',(1.,0.,0.));
#345=DIRECTION('center_axis',(1.,0.,0.));
#346=DIRECTION('ref_axis',(0.,-1.,0.));
#347=DIRECTION('center_axis',(1.,0.,0.));
#348=DIRECTION('ref_axis',(0.,-1.,0.));
#349=DIRECTION('center_axis',(0.,1.48029765439342E-16,-1.));
#350=DIRECTION('ref_axis',(1.,0.,0.));
#351=DIRECTION('center_axis',(0.,1.48029765439342E-16,-1.));
#352=DIRECTION('ref_axis',(1.,0.,0.));
#353=DIRECTION('',(0.,1.48029765439342E-16,-1.));
#354=DIRECTION('center_axis',(0.,-1.48029765439342E-16,1.));
#355=DIRECTION('ref_axis',(1.,0.,0.));
#356=DIRECTION('center_axis',(0.,1.48029765439342E-16,-1.));
#357=DIRECTION('ref_axis',(1.,0.,0.));
#358=DIRECTION('center_axis',(0.,1.48029765439342E-16,-1.));
#359=DIRECTION('ref_axis',(1.,0.,0.));
#360=DIRECTION('',(0.,1.48029765439342E-16,-1.));
#361=DIRECTION('center_axis',(0.,-1.48029765439342E-16,1.));
#362=DIRECTION('ref_axis',(1.,0.,0.));
#363=DIRECTION('center_axis',(0.,1.48029765843736E-16,-1.));
#364=DIRECTION('ref_axis',(1.,0.,0.));
#365=DIRECTION('center_axis',(0.,1.48029765439342E-16,-1.));
#366=DIRECTION('ref_axis',(1.,0.,0.));
#367=DIRECTION('',(0.,1.48029765843736E-16,-1.));
#368=DIRECTION('center_axis',(0.,-1.48029765439342E-16,1.));
#369=DIRECTION('ref_axis',(1.,0.,0.));
#370=DIRECTION('center_axis',(0.,1.48029765439342E-16,-1.));
#371=DIRECTION('ref_axis',(-1.,0.,0.));
#372=DIRECTION('center_axis',(0.,-1.48029765439342E-16,1.));
#373=DIRECTION('ref_axis',(1.,0.,0.));
#374=CARTESIAN_POINT('',(0.,0.,0.));
#375=CARTESIAN_POINT('Origin',(-224.000004008412,15.,400.));
#376=CARTESIAN_POINT('',(-242.500004008412,17.,400.));
#377=CARTESIAN_POINT('',(-242.500004008412,15.,402.));
#378=CARTESIAN_POINT('Origin',(-242.500004008412,15.,400.));
#379=CARTESIAN_POINT('',(-153.000004008412,15.,402.));
#380=CARTESIAN_POINT('',(-224.000004008412,15.,402.));
#381=CARTESIAN_POINT('',(-153.000004008412,17.,400.));
#382=CARTESIAN_POINT('Origin',(-153.000004008412,15.,400.));
#383=CARTESIAN_POINT('',(-224.000004008412,17.,400.));
#384=CARTESIAN_POINT('Origin',(-224.000004008412,17.,397.));
#385=CARTESIAN_POINT('',(-153.000004008412,17.,392.));
#386=CARTESIAN_POINT('',(-153.000004008412,17.,397.));
#387=CARTESIAN_POINT('',(-242.500004008412,17.,392.));
#388=CARTESIAN_POINT('',(-224.000004008412,17.,392.));
#389=CARTESIAN_POINT('',(-242.500004008412,17.,397.));
#390=CARTESIAN_POINT('Origin',(-153.000004008412,1.11022302462516E-15,397.));
#391=CARTESIAN_POINT('',(-153.000004008412,-15.,402.));
#392=CARTESIAN_POINT('',(-153.000004008412,1.85037098714224E-16,402.));
#393=CARTESIAN_POINT('',(-153.000004008412,-17.,400.));
#394=CARTESIAN_POINT('Origin',(-153.000004008412,-15.,400.));
#395=CARTESIAN_POINT('',(-153.000004008412,-17.,392.));
#396=CARTESIAN_POINT('',(-153.000004008412,-17.,397.));
#397=CARTESIAN_POINT('',(-153.000004008412,2.03540895053609E-15,392.));
#398=CARTESIAN_POINT('Origin',(-224.000004008412,-15.,400.));
#399=CARTESIAN_POINT('',(-242.500004008412,-15.,402.));
#400=CARTESIAN_POINT('',(-242.500004008412,-17.,400.));
#401=CARTESIAN_POINT('Origin',(-242.500004008412,-15.,400.));
#402=CARTESIAN_POINT('',(-224.000004008412,-17.,400.));
#403=CARTESIAN_POINT('',(-224.000004008412,-15.,402.));
#404=CARTESIAN_POINT('Origin',(-224.000004008412,-17.,397.));
#405=CARTESIAN_POINT('',(-242.500004008412,-17.,392.));
#406=CARTESIAN_POINT('',(-242.500004008412,-17.,397.));
#407=CARTESIAN_POINT('',(-224.000004008412,-17.,392.));
#408=CARTESIAN_POINT('Origin',(-242.500004008412,1.11022302462516E-15,397.));
#409=CARTESIAN_POINT('',(-242.500004008412,2.03540895053609E-15,392.));
#410=CARTESIAN_POINT('',(-242.500004008412,1.85037098714224E-16,402.));
#411=CARTESIAN_POINT('',(-242.500004008412,-10.9000001788139,397.000005915761));
#412=CARTESIAN_POINT('Origin',(-242.500004008412,-13.0000001788139,397.000005915761));
#413=CARTESIAN_POINT('',(-242.500004008412,15.1000001788139,397.000005915761));
#414=CARTESIAN_POINT('Origin',(-242.500004008412,13.0000001788139,397.000005915761));
#415=CARTESIAN_POINT('Origin',(-230.000004008412,13.0000001788139,397.000005915761));
#416=CARTESIAN_POINT('',(-216.000004008412,15.1000001788139,397.000005915761));
#417=CARTESIAN_POINT('',(-230.000004008412,15.1000001788139,397.000005915761));
#418=CARTESIAN_POINT('Origin',(-216.000004008412,13.0000001788139,397.000005915761));
#419=CARTESIAN_POINT('Origin',(-216.000004008412,13.0000001788139,397.000005915761));
#420=CARTESIAN_POINT('Origin',(-230.000004008412,-13.0000001788139,397.000005915761));
#421=CARTESIAN_POINT('',(-216.000004008412,-10.9000001788139,397.000005915761));
#422=CARTESIAN_POINT('',(-230.000004008412,-10.9000001788139,397.000005915761));
#423=CARTESIAN_POINT('Origin',(-216.000004008412,-13.0000001788139,397.000005915761));
#424=CARTESIAN_POINT('Origin',(-216.000004008412,-13.0000001788139,397.000005915761));
#425=CARTESIAN_POINT('Origin',(-224.00000230968,-7.4505798123659E-8,388.));
#426=CARTESIAN_POINT('',(-227.40000230968,-7.45057997796958E-8,402.));
#427=CARTESIAN_POINT('Origin',(-224.00000230968,-7.45058001960757E-8,402.));
#428=CARTESIAN_POINT('',(-227.40000230968,-7.4505799132158E-8,392.));
#429=CARTESIAN_POINT('',(-227.40000230968,-7.45057977072791E-8,388.));
#430=CARTESIAN_POINT('Origin',(-224.00000230968,-7.4505798715778E-8,392.));
#431=CARTESIAN_POINT('Origin',(-204.00000230968,-7.4505798123659E-8,388.));
#432=CARTESIAN_POINT('',(-207.40000230968,-7.45057997796958E-8,402.));
#433=CARTESIAN_POINT('Origin',(-204.00000230968,-7.45058001960757E-8,402.));
#434=CARTESIAN_POINT('',(-207.40000230968,-7.4505799132158E-8,392.));
#435=CARTESIAN_POINT('',(-207.40000230968,-7.45057977072791E-8,388.));
#436=CARTESIAN_POINT('Origin',(-204.00000230968,-7.4505798715778E-8,392.));
#437=CARTESIAN_POINT('Origin',(-184.00000230968,-7.4505798123659E-8,388.));
#438=CARTESIAN_POINT('',(-187.40000230968,-7.45057997796958E-8,402.));
#439=CARTESIAN_POINT('Origin',(-184.00000230968,-7.45058001960757E-8,402.));
#440=CARTESIAN_POINT('',(-187.40000230968,-7.45057991321579E-8,392.));
#441=CARTESIAN_POINT('',(-187.40000230968,-7.45057977072791E-8,388.));
#442=CARTESIAN_POINT('Origin',(-184.00000230968,-7.4505798715778E-8,392.));
#443=CARTESIAN_POINT('Origin',(-224.000004008412,0.,402.));
#444=CARTESIAN_POINT('Origin',(-224.000004008412,2.22044604925031E-15,392.));
#445=UNCERTAINTY_MEASURE_WITH_UNIT(LENGTH_MEASURE(0.01),#449,
'DISTANCE_ACCURACY_VALUE',
'Maximum model space distance between geometric entities at asserted c
onnectivities');
#446=UNCERTAINTY_MEASURE_WITH_UNIT(LENGTH_MEASURE(0.01),#449,
'DISTANCE_ACCURACY_VALUE',
'Maximum model space distance between geometric entities at asserted c
onnectivities');
#447=(
GEOMETRIC_REPRESENTATION_CONTEXT(3)
GLOBAL_UNCERTAINTY_ASSIGNED_CONTEXT((#445))
GLOBAL_UNIT_ASSIGNED_CONTEXT((#449,#450,#451))
REPRESENTATION_CONTEXT('','3D')
);
#448=(
GEOMETRIC_REPRESENTATION_CONTEXT(3)
GLOBAL_UNCERTAINTY_ASSIGNED_CONTEXT((#446))
GLOBAL_UNIT_ASSIGNED_CONTEXT((#449,#450,#451))
REPRESENTATION_CONTEXT('','3D')
);
#449=(
LENGTH_UNIT()
NAMED_UNIT(*)
SI_UNIT(.MILLI.,.METRE.)
);
#450=(
NAMED_UNIT(*)
PLANE_ANGLE_UNIT()
SI_UNIT($,.RADIAN.)
);
#451=(
NAMED_UNIT(*)
SI_UNIT($,.STERADIAN.)
SOLID_ANGLE_UNIT()
);
#452=SHAPE_DEFINITION_REPRESENTATION(#453,#454);
#453=PRODUCT_DEFINITION_SHAPE('',$,#456);
#454=SHAPE_REPRESENTATION('',(#265),#447);
#455=PRODUCT_DEFINITION_CONTEXT('part definition',#460,'design');
#456=PRODUCT_DEFINITION('HTD3M-270t-20t-1068mm-Chassis-V3',
'HTD3M-270t-20t-1068mm-Chassis-V3 v70',#457,#455);
#457=PRODUCT_DEFINITION_FORMATION('',$,#462);
#458=PRODUCT_RELATED_PRODUCT_CATEGORY(
'HTD3M-270t-20t-1068mm-Chassis-V3 v70',
'HTD3M-270t-20t-1068mm-Chassis-V3 v70',(#462));
#459=APPLICATION_PROTOCOL_DEFINITION('international standard',
'automotive_design',2009,#460);
#460=APPLICATION_CONTEXT(
'Core Data for Automotive Mechanical Design Process');
#461=PRODUCT_CONTEXT('part definition',#460,'mechanical');
#462=PRODUCT('HTD3M-270t-20t-1068mm-Chassis-V3',
'HTD3M-270t-20t-1068mm-Chassis-V3 v70',$,(#461));
#463=PRESENTATION_STYLE_ASSIGNMENT((#471));
#464=PRESENTATION_STYLE_ASSIGNMENT((#472));
#465=PRESENTATION_STYLE_ASSIGNMENT((#473));
#466=PRESENTATION_STYLE_ASSIGNMENT((#474));
#467=PRESENTATION_STYLE_ASSIGNMENT((#475));
#468=PRESENTATION_STYLE_ASSIGNMENT((#476));
#469=PRESENTATION_STYLE_ASSIGNMENT((#477));
#470=PRESENTATION_STYLE_ASSIGNMENT((#478));
#471=SURFACE_STYLE_USAGE(.BOTH.,#479);
#472=SURFACE_STYLE_USAGE(.BOTH.,#480);
#473=SURFACE_STYLE_USAGE(.BOTH.,#481);
#474=SURFACE_STYLE_USAGE(.BOTH.,#482);
#475=SURFACE_STYLE_USAGE(.BOTH.,#483);
#476=SURFACE_STYLE_USAGE(.BOTH.,#484);
#477=SURFACE_STYLE_USAGE(.BOTH.,#485);
#478=SURFACE_STYLE_USAGE(.BOTH.,#486);
#479=SURFACE_SIDE_STYLE('',(#487));
#480=SURFACE_SIDE_STYLE('',(#488));
#481=SURFACE_SIDE_STYLE('',(#489));
#482=SURFACE_SIDE_STYLE('',(#490));
#483=SURFACE_SIDE_STYLE('',(#491));
#484=SURFACE_SIDE_STYLE('',(#492));
#485=SURFACE_SIDE_STYLE('',(#493));
#486=SURFACE_SIDE_STYLE('',(#494));
#487=SURFACE_STYLE_FILL_AREA(#495);
#488=SURFACE_STYLE_FILL_AREA(#496);
#489=SURFACE_STYLE_FILL_AREA(#497);
#490=SURFACE_STYLE_FILL_AREA(#498);
#491=SURFACE_STYLE_FILL_AREA(#499);
#492=SURFACE_STYLE_FILL_AREA(#500);
#493=SURFACE_STYLE_FILL_AREA(#501);
#494=SURFACE_STYLE_FILL_AREA(#502);
#495=FILL_AREA_STYLE('Opaque(175,143,175)',(#503));
#496=FILL_AREA_STYLE('Opaque(159,175,143)',(#504));
#497=FILL_AREA_STYLE('Opaque(143,143,175)',(#505));
#498=FILL_AREA_STYLE('Opaque(175,159,143)',(#506));
#499=FILL_AREA_STYLE('Opaque(143,175,175)',(#507));
#500=FILL_AREA_STYLE('Steel - Satin',(#508));
#501=FILL_AREA_STYLE('Plastic - Translucent Matte (Red)',(#509));
#502=FILL_AREA_STYLE('Steel - Satin',(#510));
#503=FILL_AREA_STYLE_COLOUR('Opaque(175,143,175)',#511);
#504=FILL_AREA_STYLE_COLOUR('Opaque(159,175,143)',#512);
#505=FILL_AREA_STYLE_COLOUR('Opaque(143,143,175)',#513);
#506=FILL_AREA_STYLE_COLOUR('Opaque(175,159,143)',#514);
#507=FILL_AREA_STYLE_COLOUR('Opaque(143,175,175)',#515);
#508=FILL_AREA_STYLE_COLOUR('Steel - Satin',#516);
#509=FILL_AREA_STYLE_COLOUR('Plastic - Translucent Matte (Red)',#517);
#510=FILL_AREA_STYLE_COLOUR('Steel - Satin',#518);
#511=COLOUR_RGB('Opaque(175,143,175)',0.686274509803922,0.56078431372549,
0.686274509803922);
#512=COLOUR_RGB('Opaque(159,175,143)',0.623529411764706,0.686274509803922,
0.56078431372549);
#513=COLOUR_RGB('Opaque(143,143,175)',0.56078431372549,0.56078431372549,
0.686274509803922);
#514=COLOUR_RGB('Opaque(175,159,143)',0.686274509803922,0.623529411764706,
0.56078431372549);
#515=COLOUR_RGB('Opaque(143,175,175)',0.56078431372549,0.686274509803922,
0.686274509803922);
#516=COLOUR_RGB('Steel - Satin',0.627450980392157,0.627450980392157,0.627450980392157);
#517=COLOUR_RGB('Plastic - Translucent Matte (Red)',0.768627450980392,0.207843137254902,
0.152941176470588);
#518=COLOUR_RGB('Steel - Satin',0.552941176470588,0.227450980392157,0.227450980392157);
ENDSEC;
END-ISO-10303-21;
