ISO-10303-21;
HEADER;
/* Generated by software containing ST-Developer
 * from STEP Tools, Inc. (www.steptools.com) 
 */

FILE_DESCRIPTION(
/* description */ (''),
/* implementation_level */ '2;1');

FILE_NAME(
/* name */ 'DUT-STOOL-Calib-Part2-V1.0.step',
/* time_stamp */ '2026-04-06T13:16:19+02:00',
/* author */ (''),
/* organization */ (''),
/* preprocessor_version */ 'ST-DEVELOPER v20.1',
/* originating_system */ 'Autodesk Translation Framework v14.24.0.0',
/* authorisation */ '');

FILE_SCHEMA (('AUTOMOTIVE_DESIGN { 1 0 10303 214 3 1 1 }'));
ENDSEC;

DATA;
#10=MECHANICAL_DESIGN_GEOMETRIC_PRESENTATION_REPRESENTATION('',(#13),#485);
#11=SHAPE_REPRESENTATION_RELATIONSHIP('SRR','None',#492,#12);
#12=ADVANCED_BREP_SHAPE_REPRESENTATION('',(#14),#484);
#13=STYLED_ITEM('',(#502),#14);
#14=MANIFOLD_SOLID_BREP('CALIB-TOOL-P2',#285);
#15=CYLINDRICAL_SURFACE('',#308,8.);
#16=CYLINDRICAL_SURFACE('',#315,8.);
#17=CYLINDRICAL_SURFACE('',#318,8.);
#18=CYLINDRICAL_SURFACE('',#319,8.);
#19=CIRCLE('',#301,8.);
#20=CIRCLE('',#302,8.);
#21=CIRCLE('',#309,8.);
#22=CIRCLE('',#312,8.);
#23=CIRCLE('',#313,8.);
#24=CIRCLE('',#314,8.);
#25=CIRCLE('',#316,8.);
#26=CIRCLE('',#320,8.);
#27=FACE_OUTER_BOUND('',#43,.T.);
#28=FACE_OUTER_BOUND('',#44,.T.);
#29=FACE_OUTER_BOUND('',#45,.T.);
#30=FACE_OUTER_BOUND('',#46,.T.);
#31=FACE_OUTER_BOUND('',#47,.T.);
#32=FACE_OUTER_BOUND('',#48,.T.);
#33=FACE_OUTER_BOUND('',#49,.T.);
#34=FACE_OUTER_BOUND('',#50,.T.);
#35=FACE_OUTER_BOUND('',#51,.T.);
#36=FACE_OUTER_BOUND('',#52,.T.);
#37=FACE_OUTER_BOUND('',#53,.T.);
#38=FACE_OUTER_BOUND('',#54,.T.);
#39=FACE_OUTER_BOUND('',#55,.T.);
#40=FACE_OUTER_BOUND('',#56,.T.);
#41=FACE_OUTER_BOUND('',#57,.T.);
#42=FACE_OUTER_BOUND('',#58,.T.);
#43=EDGE_LOOP('',(#181,#182,#183,#184,#185,#186));
#44=EDGE_LOOP('',(#187,#188,#189,#190,#191,#192));
#45=EDGE_LOOP('',(#193,#194,#195,#196,#197,#198));
#46=EDGE_LOOP('',(#199,#200,#201,#202));
#47=EDGE_LOOP('',(#203,#204,#205,#206));
#48=EDGE_LOOP('',(#207,#208,#209,#210));
#49=EDGE_LOOP('',(#211,#212,#213,#214));
#50=EDGE_LOOP('',(#215,#216,#217,#218));
#51=EDGE_LOOP('',(#219,#220,#221,#222));
#52=EDGE_LOOP('',(#223,#224,#225,#226,#227,#228,#229,#230));
#53=EDGE_LOOP('',(#231,#232,#233,#234));
#54=EDGE_LOOP('',(#235,#236,#237,#238));
#55=EDGE_LOOP('',(#239,#240,#241,#242));
#56=EDGE_LOOP('',(#243,#244,#245,#246));
#57=EDGE_LOOP('',(#247,#248,#249,#250));
#58=EDGE_LOOP('',(#251,#252,#253,#254,#255,#256));
#59=LINE('',#407,#89);
#60=LINE('',#409,#90);
#61=LINE('',#411,#91);
#62=LINE('',#413,#92);
#63=LINE('',#415,#93);
#64=LINE('',#416,#94);
#65=LINE('',#419,#95);
#66=LINE('',#421,#96);
#67=LINE('',#425,#97);
#68=LINE('',#429,#98);
#69=LINE('',#431,#99);
#70=LINE('',#433,#100);
#71=LINE('',#435,#101);
#72=LINE('',#436,#102);
#73=LINE('',#439,#103);
#74=LINE('',#441,#104);
#75=LINE('',#442,#105);
#76=LINE('',#445,#106);
#77=LINE('',#447,#107);
#78=LINE('',#448,#108);
#79=LINE('',#450,#109);
#80=LINE('',#451,#110);
#81=LINE('',#456,#111);
#82=LINE('',#459,#112);
#83=LINE('',#460,#113);
#84=LINE('',#465,#114);
#85=LINE('',#471,#115);
#86=LINE('',#474,#116);
#87=LINE('',#475,#117);
#88=LINE('',#480,#118);
#89=VECTOR('',#327,10.);
#90=VECTOR('',#328,10.);
#91=VECTOR('',#329,10.);
#92=VECTOR('',#330,10.);
#93=VECTOR('',#331,10.);
#94=VECTOR('',#332,10.);
#95=VECTOR('',#335,10.);
#96=VECTOR('',#336,10.);
#97=VECTOR('',#339,10.);
#98=VECTOR('',#344,10.);
#99=VECTOR('',#345,10.);
#100=VECTOR('',#346,10.);
#101=VECTOR('',#347,10.);
#102=VECTOR('',#348,10.);
#103=VECTOR('',#351,10.);
#104=VECTOR('',#352,10.);
#105=VECTOR('',#353,10.);
#106=VECTOR('',#356,10.);
#107=VECTOR('',#357,10.);
#108=VECTOR('',#358,10.);
#109=VECTOR('',#361,10.);
#110=VECTOR('',#362,10.);
#111=VECTOR('',#369,10.);
#112=VECTOR('',#372,10.);
#113=VECTOR('',#373,10.);
#114=VECTOR('',#378,10.);
#115=VECTOR('',#387,10.);
#116=VECTOR('',#390,10.);
#117=VECTOR('',#391,10.);
#118=VECTOR('',#400,10.);
#119=VERTEX_POINT('',#405);
#120=VERTEX_POINT('',#406);
#121=VERTEX_POINT('',#408);
#122=VERTEX_POINT('',#410);
#123=VERTEX_POINT('',#412);
#124=VERTEX_POINT('',#414);
#125=VERTEX_POINT('',#418);
#126=VERTEX_POINT('',#420);
#127=VERTEX_POINT('',#422);
#128=VERTEX_POINT('',#424);
#129=VERTEX_POINT('',#428);
#130=VERTEX_POINT('',#430);
#131=VERTEX_POINT('',#432);
#132=VERTEX_POINT('',#434);
#133=VERTEX_POINT('',#438);
#134=VERTEX_POINT('',#440);
#135=VERTEX_POINT('',#444);
#136=VERTEX_POINT('',#446);
#137=VERTEX_POINT('',#454);
#138=VERTEX_POINT('',#458);
#139=VERTEX_POINT('',#462);
#140=VERTEX_POINT('',#464);
#141=VERTEX_POINT('',#469);
#142=VERTEX_POINT('',#473);
#143=EDGE_CURVE('',#119,#120,#59,.T.);
#144=EDGE_CURVE('',#121,#119,#60,.T.);
#145=EDGE_CURVE('',#122,#121,#61,.T.);
#146=EDGE_CURVE('',#123,#122,#62,.T.);
#147=EDGE_CURVE('',#124,#123,#63,.T.);
#148=EDGE_CURVE('',#120,#124,#64,.T.);
#149=EDGE_CURVE('',#120,#125,#65,.F.);
#150=EDGE_CURVE('',#125,#126,#66,.T.);
#151=EDGE_CURVE('',#127,#126,#19,.T.);
#152=EDGE_CURVE('',#127,#128,#67,.T.);
#153=EDGE_CURVE('',#119,#128,#20,.T.);
#154=EDGE_CURVE('',#129,#125,#68,.T.);
#155=EDGE_CURVE('',#130,#129,#69,.T.);
#156=EDGE_CURVE('',#131,#130,#70,.T.);
#157=EDGE_CURVE('',#132,#131,#71,.T.);
#158=EDGE_CURVE('',#126,#132,#72,.T.);
#159=EDGE_CURVE('',#124,#133,#73,.T.);
#160=EDGE_CURVE('',#133,#134,#74,.F.);
#161=EDGE_CURVE('',#134,#120,#75,.T.);
#162=EDGE_CURVE('',#125,#135,#76,.T.);
#163=EDGE_CURVE('',#135,#136,#77,.F.);
#164=EDGE_CURVE('',#136,#129,#78,.T.);
#165=EDGE_CURVE('',#135,#134,#79,.F.);
#166=EDGE_CURVE('',#133,#136,#80,.F.);
#167=EDGE_CURVE('',#132,#137,#21,.T.);
#168=EDGE_CURVE('',#137,#127,#81,.T.);
#169=EDGE_CURVE('',#138,#137,#82,.T.);
#170=EDGE_CURVE('',#128,#138,#83,.T.);
#171=EDGE_CURVE('',#139,#131,#22,.T.);
#172=EDGE_CURVE('',#139,#140,#84,.T.);
#173=EDGE_CURVE('',#122,#140,#23,.T.);
#174=EDGE_CURVE('',#138,#121,#24,.T.);
#175=EDGE_CURVE('',#130,#141,#25,.T.);
#176=EDGE_CURVE('',#141,#139,#85,.T.);
#177=EDGE_CURVE('',#142,#141,#86,.T.);
#178=EDGE_CURVE('',#140,#142,#87,.T.);
#179=EDGE_CURVE('',#142,#123,#26,.T.);
#180=EDGE_CURVE('',#129,#124,#88,.F.);
#181=ORIENTED_EDGE('',*,*,#143,.F.);
#182=ORIENTED_EDGE('',*,*,#144,.F.);
#183=ORIENTED_EDGE('',*,*,#145,.F.);
#184=ORIENTED_EDGE('',*,*,#146,.F.);
#185=ORIENTED_EDGE('',*,*,#147,.F.);
#186=ORIENTED_EDGE('',*,*,#148,.F.);
#187=ORIENTED_EDGE('',*,*,#143,.T.);
#188=ORIENTED_EDGE('',*,*,#149,.T.);
#189=ORIENTED_EDGE('',*,*,#150,.T.);
#190=ORIENTED_EDGE('',*,*,#151,.F.);
#191=ORIENTED_EDGE('',*,*,#152,.T.);
#192=ORIENTED_EDGE('',*,*,#153,.F.);
#193=ORIENTED_EDGE('',*,*,#150,.F.);
#194=ORIENTED_EDGE('',*,*,#154,.F.);
#195=ORIENTED_EDGE('',*,*,#155,.F.);
#196=ORIENTED_EDGE('',*,*,#156,.F.);
#197=ORIENTED_EDGE('',*,*,#157,.F.);
#198=ORIENTED_EDGE('',*,*,#158,.F.);
#199=ORIENTED_EDGE('',*,*,#148,.T.);
#200=ORIENTED_EDGE('',*,*,#159,.T.);
#201=ORIENTED_EDGE('',*,*,#160,.T.);
#202=ORIENTED_EDGE('',*,*,#161,.T.);
#203=ORIENTED_EDGE('',*,*,#162,.T.);
#204=ORIENTED_EDGE('',*,*,#163,.T.);
#205=ORIENTED_EDGE('',*,*,#164,.T.);
#206=ORIENTED_EDGE('',*,*,#154,.T.);
#207=ORIENTED_EDGE('',*,*,#163,.F.);
#208=ORIENTED_EDGE('',*,*,#165,.T.);
#209=ORIENTED_EDGE('',*,*,#160,.F.);
#210=ORIENTED_EDGE('',*,*,#166,.T.);
#211=ORIENTED_EDGE('',*,*,#161,.F.);
#212=ORIENTED_EDGE('',*,*,#165,.F.);
#213=ORIENTED_EDGE('',*,*,#162,.F.);
#214=ORIENTED_EDGE('',*,*,#149,.F.);
#215=ORIENTED_EDGE('',*,*,#167,.T.);
#216=ORIENTED_EDGE('',*,*,#168,.T.);
#217=ORIENTED_EDGE('',*,*,#151,.T.);
#218=ORIENTED_EDGE('',*,*,#158,.T.);
#219=ORIENTED_EDGE('',*,*,#168,.F.);
#220=ORIENTED_EDGE('',*,*,#169,.F.);
#221=ORIENTED_EDGE('',*,*,#170,.F.);
#222=ORIENTED_EDGE('',*,*,#152,.F.);
#223=ORIENTED_EDGE('',*,*,#167,.F.);
#224=ORIENTED_EDGE('',*,*,#157,.T.);
#225=ORIENTED_EDGE('',*,*,#171,.F.);
#226=ORIENTED_EDGE('',*,*,#172,.T.);
#227=ORIENTED_EDGE('',*,*,#173,.F.);
#228=ORIENTED_EDGE('',*,*,#145,.T.);
#229=ORIENTED_EDGE('',*,*,#174,.F.);
#230=ORIENTED_EDGE('',*,*,#169,.T.);
#231=ORIENTED_EDGE('',*,*,#171,.T.);
#232=ORIENTED_EDGE('',*,*,#156,.T.);
#233=ORIENTED_EDGE('',*,*,#175,.T.);
#234=ORIENTED_EDGE('',*,*,#176,.T.);
#235=ORIENTED_EDGE('',*,*,#176,.F.);
#236=ORIENTED_EDGE('',*,*,#177,.F.);
#237=ORIENTED_EDGE('',*,*,#178,.F.);
#238=ORIENTED_EDGE('',*,*,#172,.F.);
#239=ORIENTED_EDGE('',*,*,#174,.T.);
#240=ORIENTED_EDGE('',*,*,#144,.T.);
#241=ORIENTED_EDGE('',*,*,#153,.T.);
#242=ORIENTED_EDGE('',*,*,#170,.T.);
#243=ORIENTED_EDGE('',*,*,#173,.T.);
#244=ORIENTED_EDGE('',*,*,#178,.T.);
#245=ORIENTED_EDGE('',*,*,#179,.T.);
#246=ORIENTED_EDGE('',*,*,#146,.T.);
#247=ORIENTED_EDGE('',*,*,#180,.F.);
#248=ORIENTED_EDGE('',*,*,#164,.F.);
#249=ORIENTED_EDGE('',*,*,#166,.F.);
#250=ORIENTED_EDGE('',*,*,#159,.F.);
#251=ORIENTED_EDGE('',*,*,#147,.T.);
#252=ORIENTED_EDGE('',*,*,#179,.F.);
#253=ORIENTED_EDGE('',*,*,#177,.T.);
#254=ORIENTED_EDGE('',*,*,#175,.F.);
#255=ORIENTED_EDGE('',*,*,#155,.T.);
#256=ORIENTED_EDGE('',*,*,#180,.T.);
#257=PLANE('',#299);
#258=PLANE('',#300);
#259=PLANE('',#303);
#260=PLANE('',#304);
#261=PLANE('',#305);
#262=PLANE('',#306);
#263=PLANE('',#307);
#264=PLANE('',#310);
#265=PLANE('',#311);
#266=PLANE('',#317);
#267=PLANE('',#321);
#268=PLANE('',#322);
#269=ADVANCED_FACE('',(#27),#257,.F.);
#270=ADVANCED_FACE('',(#28),#258,.T.);
#271=ADVANCED_FACE('',(#29),#259,.F.);
#272=ADVANCED_FACE('',(#30),#260,.T.);
#273=ADVANCED_FACE('',(#31),#261,.T.);
#274=ADVANCED_FACE('',(#32),#262,.T.);
#275=ADVANCED_FACE('',(#33),#263,.F.);
#276=ADVANCED_FACE('',(#34),#15,.T.);
#277=ADVANCED_FACE('',(#35),#264,.F.);
#278=ADVANCED_FACE('',(#36),#265,.F.);
#279=ADVANCED_FACE('',(#37),#16,.T.);
#280=ADVANCED_FACE('',(#38),#266,.F.);
#281=ADVANCED_FACE('',(#39),#17,.T.);
#282=ADVANCED_FACE('',(#40),#18,.T.);
#283=ADVANCED_FACE('',(#41),#267,.F.);
#284=ADVANCED_FACE('',(#42),#268,.T.);
#285=CLOSED_SHELL('',(#269,#270,#271,#272,#273,#274,#275,#276,#277,#278,
#279,#280,#281,#282,#283,#284));
#286=DERIVED_UNIT_ELEMENT(#288,1.);
#287=DERIVED_UNIT_ELEMENT(#487,-3.);
#288=(
MASS_UNIT()
NAMED_UNIT(*)
SI_UNIT(.KILO.,.GRAM.)
);
#289=DERIVED_UNIT((#286,#287));
#290=MEASURE_REPRESENTATION_ITEM('density measure',
POSITIVE_RATIO_MEASURE(7850.),#289);
#291=PROPERTY_DEFINITION_REPRESENTATION(#296,#293);
#292=PROPERTY_DEFINITION_REPRESENTATION(#297,#294);
#293=REPRESENTATION('material name',(#295),#484);
#294=REPRESENTATION('density',(#290),#484);
#295=DESCRIPTIVE_REPRESENTATION_ITEM('Steel','Steel');
#296=PROPERTY_DEFINITION('material property','material name',#494);
#297=PROPERTY_DEFINITION('material property','density of part',#494);
#298=AXIS2_PLACEMENT_3D('',#403,#323,#324);
#299=AXIS2_PLACEMENT_3D('',#404,#325,#326);
#300=AXIS2_PLACEMENT_3D('',#417,#333,#334);
#301=AXIS2_PLACEMENT_3D('',#423,#337,#338);
#302=AXIS2_PLACEMENT_3D('',#426,#340,#341);
#303=AXIS2_PLACEMENT_3D('',#427,#342,#343);
#304=AXIS2_PLACEMENT_3D('',#437,#349,#350);
#305=AXIS2_PLACEMENT_3D('',#443,#354,#355);
#306=AXIS2_PLACEMENT_3D('',#449,#359,#360);
#307=AXIS2_PLACEMENT_3D('',#452,#363,#364);
#308=AXIS2_PLACEMENT_3D('',#453,#365,#366);
#309=AXIS2_PLACEMENT_3D('',#455,#367,#368);
#310=AXIS2_PLACEMENT_3D('',#457,#370,#371);
#311=AXIS2_PLACEMENT_3D('',#461,#374,#375);
#312=AXIS2_PLACEMENT_3D('',#463,#376,#377);
#313=AXIS2_PLACEMENT_3D('',#466,#379,#380);
#314=AXIS2_PLACEMENT_3D('',#467,#381,#382);
#315=AXIS2_PLACEMENT_3D('',#468,#383,#384);
#316=AXIS2_PLACEMENT_3D('',#470,#385,#386);
#317=AXIS2_PLACEMENT_3D('',#472,#388,#389);
#318=AXIS2_PLACEMENT_3D('',#476,#392,#393);
#319=AXIS2_PLACEMENT_3D('',#477,#394,#395);
#320=AXIS2_PLACEMENT_3D('',#478,#396,#397);
#321=AXIS2_PLACEMENT_3D('',#479,#398,#399);
#322=AXIS2_PLACEMENT_3D('',#481,#401,#402);
#323=DIRECTION('axis',(0.,0.,1.));
#324=DIRECTION('refdir',(1.,0.,0.));
#325=DIRECTION('center_axis',(0.,1.,0.));
#326=DIRECTION('ref_axis',(0.,0.,-1.));
#327=DIRECTION('',(1.,0.,0.));
#328=DIRECTION('',(0.,0.,1.));
#329=DIRECTION('',(-1.,0.,0.));
#330=DIRECTION('',(0.,0.,-1.));
#331=DIRECTION('',(1.,0.,0.));
#332=DIRECTION('',(1.,0.,0.));
#333=DIRECTION('center_axis',(0.,0.,1.));
#334=DIRECTION('ref_axis',(0.,1.,0.));
#335=DIRECTION('',(0.,-1.,0.));
#336=DIRECTION('',(-1.,0.,0.));
#337=DIRECTION('center_axis',(0.,0.,-1.));
#338=DIRECTION('ref_axis',(-0.707106781186548,0.707106781186548,0.));
#339=DIRECTION('',(0.,-1.,0.));
#340=DIRECTION('center_axis',(0.,0.,-1.));
#341=DIRECTION('ref_axis',(-0.707106781186548,-0.707106781186548,0.));
#342=DIRECTION('center_axis',(0.,-1.,0.));
#343=DIRECTION('ref_axis',(0.,0.,1.));
#344=DIRECTION('',(-1.,0.,0.));
#345=DIRECTION('',(-1.,0.,0.));
#346=DIRECTION('',(0.,0.,1.));
#347=DIRECTION('',(1.,0.,0.));
#348=DIRECTION('',(0.,0.,-1.));
#349=DIRECTION('center_axis',(0.,-0.894427190999916,0.447213595499958));
#350=DIRECTION('ref_axis',(0.,-0.447213595499958,-0.894427190999916));
#351=DIRECTION('',(0.,0.447213595499958,0.894427190999916));
#352=DIRECTION('',(1.,0.,0.));
#353=DIRECTION('',(0.,-0.447213595499958,-0.894427190999916));
#354=DIRECTION('center_axis',(0.,0.894427190999916,0.447213595499958));
#355=DIRECTION('ref_axis',(0.,-0.447213595499958,0.894427190999916));
#356=DIRECTION('',(0.,-0.447213595499958,0.894427190999916));
#357=DIRECTION('',(-1.,0.,0.));
#358=DIRECTION('',(0.,0.447213595499958,-0.894427190999916));
#359=DIRECTION('center_axis',(0.,0.,1.));
#360=DIRECTION('ref_axis',(0.,1.,0.));
#361=DIRECTION('',(0.,1.,0.));
#362=DIRECTION('',(0.,-1.,0.));
#363=DIRECTION('center_axis',(1.,0.,0.));
#364=DIRECTION('ref_axis',(0.,0.,-1.));
#365=DIRECTION('center_axis',(0.,0.,-1.));
#366=DIRECTION('ref_axis',(-0.707106781186548,0.707106781186548,0.));
#367=DIRECTION('center_axis',(0.,0.,1.));
#368=DIRECTION('ref_axis',(-0.707106781186548,0.707106781186548,0.));
#369=DIRECTION('',(0.,0.,1.));
#370=DIRECTION('center_axis',(1.,0.,0.));
#371=DIRECTION('ref_axis',(0.,0.,-1.));
#372=DIRECTION('',(0.,1.,0.));
#373=DIRECTION('',(0.,0.,-1.));
#374=DIRECTION('center_axis',(0.,0.,1.));
#375=DIRECTION('ref_axis',(0.,1.,0.));
#376=DIRECTION('center_axis',(0.,0.,1.));
#377=DIRECTION('ref_axis',(0.707106781186548,0.707106781186548,0.));
#378=DIRECTION('',(0.,-1.,0.));
#379=DIRECTION('center_axis',(0.,0.,1.));
#380=DIRECTION('ref_axis',(0.707106781186548,-0.707106781186548,0.));
#381=DIRECTION('center_axis',(0.,0.,1.));
#382=DIRECTION('ref_axis',(-0.707106781186548,-0.707106781186548,0.));
#383=DIRECTION('center_axis',(0.,0.,-1.));
#384=DIRECTION('ref_axis',(0.707106781186548,0.707106781186548,0.));
#385=DIRECTION('center_axis',(0.,0.,-1.));
#386=DIRECTION('ref_axis',(0.707106781186548,0.707106781186548,0.));
#387=DIRECTION('',(0.,0.,-1.));
#388=DIRECTION('center_axis',(-1.,0.,0.));
#389=DIRECTION('ref_axis',(0.,0.,1.));
#390=DIRECTION('',(0.,1.,0.));
#391=DIRECTION('',(0.,0.,1.));
#392=DIRECTION('center_axis',(0.,0.,-1.));
#393=DIRECTION('ref_axis',(-0.707106781186548,-0.707106781186548,0.));
#394=DIRECTION('center_axis',(0.,0.,-1.));
#395=DIRECTION('ref_axis',(0.707106781186548,-0.707106781186548,0.));
#396=DIRECTION('center_axis',(0.,0.,-1.));
#397=DIRECTION('ref_axis',(0.707106781186548,-0.707106781186548,0.));
#398=DIRECTION('center_axis',(-1.,0.,0.));
#399=DIRECTION('ref_axis',(0.,0.,1.));
#400=DIRECTION('',(0.,1.,0.));
#401=DIRECTION('center_axis',(0.,0.,1.));
#402=DIRECTION('ref_axis',(0.,1.,0.));
#403=CARTESIAN_POINT('',(0.,0.,0.));
#404=CARTESIAN_POINT('Origin',(1.25000026077032,-15.0000002235174,13.3));
#405=CARTESIAN_POINT('',(-6.99999973922968,-15.0000002235174,13.8));
#406=CARTESIAN_POINT('',(0.,-15.0000002235174,13.8));
#407=CARTESIAN_POINT('',(1.25000026077032,-15.0000002235174,13.8));
#408=CARTESIAN_POINT('',(-6.99999973922968,-15.0000002235174,13.));
#409=CARTESIAN_POINT('',(-6.99999973922968,-15.0000002235174,13.3));
#410=CARTESIAN_POINT('',(9.50000026077032,-15.0000002235174,13.));
#411=CARTESIAN_POINT('',(1.25000026077032,-15.0000002235174,13.));
#412=CARTESIAN_POINT('',(9.50000026077032,-15.0000002235174,13.8));
#413=CARTESIAN_POINT('',(9.50000026077032,-15.0000002235174,13.3));
#414=CARTESIAN_POINT('',(0.8,-15.0000002235174,13.8));
#415=CARTESIAN_POINT('',(1.25000026077032,-15.0000002235174,13.8));
#416=CARTESIAN_POINT('',(0.50000013038516,-15.0000002235174,13.8));
#417=CARTESIAN_POINT('Origin',(1.25000026077032,-2.23517417907715E-7,13.8));
#418=CARTESIAN_POINT('',(6.93889390390723E-17,14.9999997764826,13.8));
#419=CARTESIAN_POINT('',(0.,-2.23517417907715E-7,13.8));
#420=CARTESIAN_POINT('',(-6.99999973922968,14.9999997764826,13.8));
#421=CARTESIAN_POINT('',(1.25000026077032,14.9999997764826,13.8));
#422=CARTESIAN_POINT('',(-14.9999997392297,6.99999977648258,13.8));
#423=CARTESIAN_POINT('Origin',(-6.99999973922968,6.99999977648258,13.8));
#424=CARTESIAN_POINT('',(-14.9999997392297,-7.00000022351742,13.8));
#425=CARTESIAN_POINT('',(-14.9999997392297,-2.23517417907715E-7,13.8));
#426=CARTESIAN_POINT('Origin',(-6.99999973922968,-7.00000022351742,13.8));
#427=CARTESIAN_POINT('Origin',(1.25000026077032,14.9999997764826,13.3));
#428=CARTESIAN_POINT('',(0.8,14.9999997764826,13.8));
#429=CARTESIAN_POINT('',(0.50000013038516,14.9999997764826,13.8));
#430=CARTESIAN_POINT('',(9.50000026077032,14.9999997764826,13.8));
#431=CARTESIAN_POINT('',(1.25000026077032,14.9999997764826,13.8));
#432=CARTESIAN_POINT('',(9.50000026077032,14.9999997764826,13.));
#433=CARTESIAN_POINT('',(9.50000026077032,14.9999997764826,13.3));
#434=CARTESIAN_POINT('',(-6.99999973922968,14.9999997764826,13.));
#435=CARTESIAN_POINT('',(1.25000026077032,14.9999997764826,13.));
#436=CARTESIAN_POINT('',(-6.99999973922968,14.9999997764826,13.3));
#437=CARTESIAN_POINT('Origin',(0.50000013038516,-10.0000002235174,23.8));
#438=CARTESIAN_POINT('',(0.8,-0.400000223517417,43.));
#439=CARTESIAN_POINT('',(0.8,-9.50000022351742,24.8));
#440=CARTESIAN_POINT('',(6.93889390390723E-17,-0.400000223517417,43.));
#441=CARTESIAN_POINT('',(0.12500006519258,-0.400000223517417,43.));
#442=CARTESIAN_POINT('',(6.93889390390723E-17,-9.50000022351742,24.8));
#443=CARTESIAN_POINT('Origin',(0.50000013038516,9.99999977648258,23.8));
#444=CARTESIAN_POINT('',(6.93889390390723E-17,0.399999776482581,43.));
#445=CARTESIAN_POINT('',(6.93889390390723E-17,9.49999977648258,24.8));
#446=CARTESIAN_POINT('',(0.8,0.399999776482581,43.));
#447=CARTESIAN_POINT('',(0.12500006519258,0.399999776482581,43.));
#448=CARTESIAN_POINT('',(0.8,9.49999977648258,24.8));
#449=CARTESIAN_POINT('Origin',(-0.25,-2.23517417907715E-7,43.));
#450=CARTESIAN_POINT('',(6.93889390390723E-17,-2.23517417907715E-7,43.));
#451=CARTESIAN_POINT('',(0.8,-2.23517417907715E-7,43.));
#452=CARTESIAN_POINT('Origin',(6.93889390390723E-17,-2.23517417907715E-7,
21.3));
#453=CARTESIAN_POINT('Origin',(-6.99999973922968,6.99999977648258,13.3));
#454=CARTESIAN_POINT('',(-14.9999997392297,6.99999977648258,13.));
#455=CARTESIAN_POINT('Origin',(-6.99999973922968,6.99999977648258,13.));
#456=CARTESIAN_POINT('',(-14.9999997392297,6.99999977648258,13.3));
#457=CARTESIAN_POINT('Origin',(-14.9999997392297,-2.23517417907715E-7,13.3));
#458=CARTESIAN_POINT('',(-14.9999997392297,-7.00000022351742,13.));
#459=CARTESIAN_POINT('',(-14.9999997392297,-2.23517417907715E-7,13.));
#460=CARTESIAN_POINT('',(-14.9999997392297,-7.00000022351742,13.3));
#461=CARTESIAN_POINT('Origin',(1.25000026077032,-2.23517417907715E-7,13.));
#462=CARTESIAN_POINT('',(17.5000002607703,6.99999977648258,13.));
#463=CARTESIAN_POINT('Origin',(9.50000026077032,6.99999977648258,13.));
#464=CARTESIAN_POINT('',(17.5000002607703,-7.00000022351742,13.));
#465=CARTESIAN_POINT('',(17.5000002607703,-2.23517417907715E-7,13.));
#466=CARTESIAN_POINT('Origin',(9.50000026077032,-7.00000022351742,13.));
#467=CARTESIAN_POINT('Origin',(-6.99999973922968,-7.00000022351742,13.));
#468=CARTESIAN_POINT('Origin',(9.50000026077032,6.99999977648258,13.3));
#469=CARTESIAN_POINT('',(17.5000002607703,6.99999977648258,13.8));
#470=CARTESIAN_POINT('Origin',(9.50000026077032,6.99999977648258,13.8));
#471=CARTESIAN_POINT('',(17.5000002607703,6.99999977648258,13.3));
#472=CARTESIAN_POINT('Origin',(17.5000002607703,-2.23517417907715E-7,13.3));
#473=CARTESIAN_POINT('',(17.5000002607703,-7.00000022351742,13.8));
#474=CARTESIAN_POINT('',(17.5000002607703,-2.23517417907715E-7,13.8));
#475=CARTESIAN_POINT('',(17.5000002607703,-7.00000022351742,13.3));
#476=CARTESIAN_POINT('Origin',(-6.99999973922968,-7.00000022351742,13.3));
#477=CARTESIAN_POINT('Origin',(9.50000026077032,-7.00000022351742,13.3));
#478=CARTESIAN_POINT('Origin',(9.50000026077032,-7.00000022351742,13.8));
#479=CARTESIAN_POINT('Origin',(0.8,-2.23517417907715E-7,21.3));
#480=CARTESIAN_POINT('',(0.8,-2.23517417907715E-7,13.8));
#481=CARTESIAN_POINT('Origin',(1.25000026077032,-2.23517417907715E-7,13.8));
#482=UNCERTAINTY_MEASURE_WITH_UNIT(LENGTH_MEASURE(0.01),#486,
'DISTANCE_ACCURACY_VALUE',
'Maximum model space distance between geometric entities at asserted c
onnectivities');
#483=UNCERTAINTY_MEASURE_WITH_UNIT(LENGTH_MEASURE(0.01),#486,
'DISTANCE_ACCURACY_VALUE',
'Maximum model space distance between geometric entities at asserted c
onnectivities');
#484=(
GEOMETRIC_REPRESENTATION_CONTEXT(3)
GLOBAL_UNCERTAINTY_ASSIGNED_CONTEXT((#482))
GLOBAL_UNIT_ASSIGNED_CONTEXT((#486,#488,#489))
REPRESENTATION_CONTEXT('','3D')
);
#485=(
GEOMETRIC_REPRESENTATION_CONTEXT(3)
GLOBAL_UNCERTAINTY_ASSIGNED_CONTEXT((#483))
GLOBAL_UNIT_ASSIGNED_CONTEXT((#486,#488,#489))
REPRESENTATION_CONTEXT('','3D')
);
#486=(
LENGTH_UNIT()
NAMED_UNIT(*)
SI_UNIT(.MILLI.,.METRE.)
);
#487=(
LENGTH_UNIT()
NAMED_UNIT(*)
SI_UNIT($,.METRE.)
);
#488=(
NAMED_UNIT(*)
PLANE_ANGLE_UNIT()
SI_UNIT($,.RADIAN.)
);
#489=(
NAMED_UNIT(*)
SI_UNIT($,.STERADIAN.)
SOLID_ANGLE_UNIT()
);
#490=SHAPE_DEFINITION_REPRESENTATION(#491,#492);
#491=PRODUCT_DEFINITION_SHAPE('',$,#494);
#492=SHAPE_REPRESENTATION('',(#298),#484);
#493=PRODUCT_DEFINITION_CONTEXT('part definition',#498,'design');
#494=PRODUCT_DEFINITION('DUT-STOOL V1.0','DUT-STOOL V1.0 v37',#495,#493);
#495=PRODUCT_DEFINITION_FORMATION('',$,#500);
#496=PRODUCT_RELATED_PRODUCT_CATEGORY('DUT-STOOL V1.0 v37',
'DUT-STOOL V1.0 v37',(#500));
#497=APPLICATION_PROTOCOL_DEFINITION('international standard',
'automotive_design',2009,#498);
#498=APPLICATION_CONTEXT(
'Core Data for Automotive Mechanical Design Process');
#499=PRODUCT_CONTEXT('part definition',#498,'mechanical');
#500=PRODUCT('DUT-STOOL V1.0','DUT-STOOL V1.0 v37',$,(#499));
#501=PRESENTATION_STYLE_ASSIGNMENT((#503));
#502=PRESENTATION_STYLE_ASSIGNMENT((#504));
#503=SURFACE_STYLE_USAGE(.BOTH.,#505);
#504=SURFACE_STYLE_USAGE(.BOTH.,#506);
#505=SURFACE_SIDE_STYLE('',(#507));
#506=SURFACE_SIDE_STYLE('',(#508));
#507=SURFACE_STYLE_FILL_AREA(#509);
#508=SURFACE_STYLE_FILL_AREA(#510);
#509=FILL_AREA_STYLE('Steel - Satin',(#511));
#510=FILL_AREA_STYLE('Plastic - Translucent Matte (Red)',(#512));
#511=FILL_AREA_STYLE_COLOUR('Steel - Satin',#513);
#512=FILL_AREA_STYLE_COLOUR('Plastic - Translucent Matte (Red)',#514);
#513=COLOUR_RGB('Steel - Satin',0.627450980392157,0.627450980392157,0.627450980392157);
#514=COLOUR_RGB('Plastic - Translucent Matte (Red)',0.768627450980392,0.207843137254902,
0.152941176470588);
ENDSEC;
END-ISO-10303-21;
