ISO-10303-21;
HEADER;
/* Generated by software containing ST-Developer
 * from STEP Tools, Inc. (www.steptools.com) 
 */

FILE_DESCRIPTION(
/* description */ (''),
/* implementation_level */ '2;1');

FILE_NAME(
/* name */ 'DUT-STOOL-90x90mm-V1.0.step',
/* time_stamp */ '2026-04-06T13:15:12+02:00',
/* author */ (''),
/* organization */ (''),
/* preprocessor_version */ 'ST-DEVELOPER v20.1',
/* originating_system */ 'Autodesk Translation Framework v14.24.0.0',
/* authorisation */ '');

FILE_SCHEMA (('AUTOMOTIVE_DESIGN { 1 0 10303 214 3 1 1 }'));
ENDSEC;

DATA;
#10=MECHANICAL_DESIGN_GEOMETRIC_PRESENTATION_REPRESENTATION('',(#13),#1463);
#11=SHAPE_REPRESENTATION_RELATIONSHIP('SRR','None',#1470,#12);
#12=ADVANCED_BREP_SHAPE_REPRESENTATION('',(#14),#1462);
#13=STYLED_ITEM('',(#1480),#14);
#14=MANIFOLD_SOLID_BREP('STOOl-90x90mm',#669);
#15=TOROIDAL_SURFACE('',#720,33.,5.);
#16=(
BOUNDED_SURFACE()
B_SPLINE_SURFACE(2,2,((#1233,#1234,#1235,#1236,#1237,#1238,#1239,#1240,
#1241),(#1242,#1243,#1244,#1245,#1246,#1247,#1248,#1249,#1250),(#1251,#1252,
#1253,#1254,#1255,#1256,#1257,#1258,#1259)),.UNSPECIFIED.,.F.,.T.,.F.)
B_SPLINE_SURFACE_WITH_KNOTS((3,3),(3,2,2,2,3),(-1.075832295078,0.),(-3.14159265358979,
-1.5707963267949,0.,1.5707963267949,3.14159265358979),.UNSPECIFIED.)
GEOMETRIC_REPRESENTATION_ITEM()
RATIONAL_B_SPLINE_SURFACE(((1.,0.707106781186548,1.,0.707106781186548,1.,
0.707106781186548,1.,0.707106781186548,1.),(0.858778201865884,0.607247890074556,
0.858778201865884,0.607247890074556,0.858778201865884,0.607247890074556,
0.858778201865884,0.607247890074556,0.858778201865884),(1.,0.707106781186548,
1.,0.707106781186548,1.,0.707106781186548,1.,0.707106781186548,1.)))
REPRESENTATION_ITEM('')
SURFACE()
);
#17=(
BOUNDED_SURFACE()
B_SPLINE_SURFACE(2,2,((#1338,#1339,#1340),(#1341,#1342,#1343),(#1344,#1345,
#1346)),.UNSPECIFIED.,.F.,.F.,.F.)
B_SPLINE_SURFACE_WITH_KNOTS((3,3),(3,3),(-1.5707963267949,0.),(-1.5707963267949,
0.),.UNSPECIFIED.)
GEOMETRIC_REPRESENTATION_ITEM()
RATIONAL_B_SPLINE_SURFACE(((1.,0.707106781186548,1.),(0.707106781186549,
0.500000000000001,0.707106781186549),(1.,0.707106781186548,1.)))
REPRESENTATION_ITEM('')
SURFACE()
);
#18=(
BOUNDED_SURFACE()
B_SPLINE_SURFACE(2,2,((#1356,#1357,#1358),(#1359,#1360,#1361),(#1362,#1363,
#1364)),.UNSPECIFIED.,.F.,.F.,.F.)
B_SPLINE_SURFACE_WITH_KNOTS((3,3),(3,3),(-1.5707963267949,0.),(0.,1.5707963267949),
 .UNSPECIFIED.)
GEOMETRIC_REPRESENTATION_ITEM()
RATIONAL_B_SPLINE_SURFACE(((1.,0.707106781186548,1.),(0.707106781186549,
0.500000000000001,0.707106781186549),(1.,0.707106781186548,1.)))
REPRESENTATION_ITEM('')
SURFACE()
);
#19=(
BOUNDED_SURFACE()
B_SPLINE_SURFACE(2,2,((#1372,#1373,#1374),(#1375,#1376,#1377),(#1378,#1379,
#1380)),.UNSPECIFIED.,.F.,.F.,.F.)
B_SPLINE_SURFACE_WITH_KNOTS((3,3),(3,3),(-1.5707963267949,0.),(1.5707963267949,
3.14159265358979),.UNSPECIFIED.)
GEOMETRIC_REPRESENTATION_ITEM()
RATIONAL_B_SPLINE_SURFACE(((1.,0.707106781186548,1.),(0.707106781186549,
0.500000000000001,0.707106781186549),(1.,0.707106781186548,1.)))
REPRESENTATION_ITEM('')
SURFACE()
);
#20=(
BOUNDED_SURFACE()
B_SPLINE_SURFACE(2,2,((#1388,#1389,#1390),(#1391,#1392,#1393),(#1394,#1395,
#1396)),.UNSPECIFIED.,.F.,.F.,.F.)
B_SPLINE_SURFACE_WITH_KNOTS((3,3),(3,3),(-1.5707963267949,0.),(-3.14159265358979,
-1.5707963267949),.UNSPECIFIED.)
GEOMETRIC_REPRESENTATION_ITEM()
RATIONAL_B_SPLINE_SURFACE(((1.,0.707106781186548,1.),(0.707106781186549,
0.500000000000001,0.707106781186549),(1.,0.707106781186548,1.)))
REPRESENTATION_ITEM('')
SURFACE()
);
#21=CYLINDRICAL_SURFACE('',#691,5.);
#22=CYLINDRICAL_SURFACE('',#692,5.);
#23=CYLINDRICAL_SURFACE('',#693,1.98);
#24=CYLINDRICAL_SURFACE('',#696,5.);
#25=CYLINDRICAL_SURFACE('',#706,1.98);
#26=CYLINDRICAL_SURFACE('',#710,15.);
#27=CYLINDRICAL_SURFACE('',#717,28.);
#28=CYLINDRICAL_SURFACE('',#731,5.);
#29=CYLINDRICAL_SURFACE('',#735,5.);
#30=CYLINDRICAL_SURFACE('',#739,5.);
#31=CYLINDRICAL_SURFACE('',#743,5.);
#32=CYLINDRICAL_SURFACE('',#744,10.);
#33=CYLINDRICAL_SURFACE('',#746,10.);
#34=CYLINDRICAL_SURFACE('',#748,10.);
#35=CYLINDRICAL_SURFACE('',#750,10.);
#36=CYLINDRICAL_SURFACE('',#752,1.75);
#37=CYLINDRICAL_SURFACE('',#753,20.65);
#38=FACE_BOUND('',#212,.T.);
#39=FACE_BOUND('',#230,.T.);
#40=FACE_BOUND('',#249,.T.);
#41=LINE('',#1081,#82);
#42=LINE('',#1085,#83);
#43=LINE('',#1095,#84);
#44=LINE('',#1098,#85);
#45=LINE('',#1110,#86);
#46=LINE('',#1113,#87);
#47=LINE('',#1151,#88);
#48=LINE('',#1155,#89);
#49=LINE('',#1162,#90);
#50=LINE('',#1163,#91);
#51=LINE('',#1170,#92);
#52=LINE('',#1172,#93);
#53=LINE('',#1176,#94);
#54=LINE('',#1180,#95);
#55=LINE('',#1184,#96);
#56=LINE('',#1187,#97);
#57=LINE('',#1190,#98);
#58=LINE('',#1192,#99);
#59=LINE('',#1227,#100);
#60=LINE('',#1229,#101);
#61=LINE('',#1231,#102);
#62=LINE('',#1271,#103);
#63=LINE('',#1292,#104);
#64=LINE('',#1324,#105);
#65=LINE('',#1328,#106);
#66=LINE('',#1332,#107);
#67=LINE('',#1336,#108);
#68=LINE('',#1354,#109);
#69=LINE('',#1371,#110);
#70=LINE('',#1387,#111);
#71=LINE('',#1401,#112);
#72=LINE('',#1403,#113);
#73=LINE('',#1404,#114);
#74=LINE('',#1406,#115);
#75=LINE('',#1408,#116);
#76=LINE('',#1410,#117);
#77=LINE('',#1412,#118);
#78=LINE('',#1414,#119);
#79=LINE('',#1416,#120);
#80=LINE('',#1420,#121);
#81=LINE('',#1459,#122);
#82=VECTOR('',#768,10.);
#83=VECTOR('',#771,10.);
#84=VECTOR('',#776,10.);
#85=VECTOR('',#779,10.);
#86=VECTOR('',#784,10.);
#87=VECTOR('',#787,10.);
#88=VECTOR('',#790,10.);
#89=VECTOR('',#793,10.);
#90=VECTOR('',#796,10.);
#91=VECTOR('',#797,10.);
#92=VECTOR('',#804,10.);
#93=VECTOR('',#805,10.);
#94=VECTOR('',#808,10.);
#95=VECTOR('',#811,10.);
#96=VECTOR('',#814,10.);
#97=VECTOR('',#817,10.);
#98=VECTOR('',#820,10.);
#99=VECTOR('',#823,10.);
#100=VECTOR('',#826,10.);
#101=VECTOR('',#829,10.);
#102=VECTOR('',#832,10.);
#103=VECTOR('',#847,35.);
#104=VECTOR('',#848,35.);
#105=VECTOR('',#861,10.);
#106=VECTOR('',#864,10.);
#107=VECTOR('',#867,10.);
#108=VECTOR('',#870,10.);
#109=VECTOR('',#881,10.);
#110=VECTOR('',#892,10.);
#111=VECTOR('',#901,10.);
#112=VECTOR('',#908,10.);
#113=VECTOR('',#911,10.);
#114=VECTOR('',#912,10.);
#115=VECTOR('',#915,10.);
#116=VECTOR('',#918,10.);
#117=VECTOR('',#921,10.);
#118=VECTOR('',#924,10.);
#119=VECTOR('',#927,10.);
#120=VECTOR('',#930,10.);
#121=VECTOR('',#935,1.75);
#122=VECTOR('',#938,20.75);
#123=CIRCLE('',#687,20.65);
#124=CIRCLE('',#688,5.);
#125=CIRCLE('',#689,15.);
#126=CIRCLE('',#690,5.);
#127=CIRCLE('',#694,1.98);
#128=CIRCLE('',#695,1.98);
#129=CIRCLE('',#697,5.);
#130=CIRCLE('',#700,15.);
#131=CIRCLE('',#701,1.98);
#132=CIRCLE('',#702,10.);
#133=CIRCLE('',#703,10.);
#134=CIRCLE('',#704,10.);
#135=CIRCLE('',#705,10.);
#136=CIRCLE('',#707,1.98);
#137=CIRCLE('',#712,28.);
#138=CIRCLE('',#713,28.);
#139=CIRCLE('',#714,14.);
#140=CIRCLE('',#715,20.65);
#141=CIRCLE('',#716,20.65);
#142=CIRCLE('',#718,28.);
#143=CIRCLE('',#719,28.);
#144=CIRCLE('',#721,33.);
#145=CIRCLE('',#722,5.);
#146=CIRCLE('',#724,5.);
#147=CIRCLE('',#725,5.);
#148=CIRCLE('',#726,5.);
#149=CIRCLE('',#727,5.);
#150=CIRCLE('',#728,5.);
#151=CIRCLE('',#729,5.);
#152=CIRCLE('',#730,10.);
#153=CIRCLE('',#732,5.);
#154=CIRCLE('',#733,5.);
#155=CIRCLE('',#734,10.);
#156=CIRCLE('',#736,5.);
#157=CIRCLE('',#737,5.);
#158=CIRCLE('',#738,10.);
#159=CIRCLE('',#740,5.);
#160=CIRCLE('',#741,5.);
#161=CIRCLE('',#742,10.);
#162=PLANE('',#686);
#163=PLANE('',#698);
#164=PLANE('',#699);
#165=PLANE('',#708);
#166=PLANE('',#709);
#167=PLANE('',#711);
#168=PLANE('',#723);
#169=PLANE('',#745);
#170=PLANE('',#747);
#171=PLANE('',#749);
#172=PLANE('',#751);
#173=FACE_OUTER_BOUND('',#210,.T.);
#174=FACE_OUTER_BOUND('',#211,.T.);
#175=FACE_OUTER_BOUND('',#213,.T.);
#176=FACE_OUTER_BOUND('',#214,.T.);
#177=FACE_OUTER_BOUND('',#215,.T.);
#178=FACE_OUTER_BOUND('',#216,.T.);
#179=FACE_OUTER_BOUND('',#217,.T.);
#180=FACE_OUTER_BOUND('',#218,.T.);
#181=FACE_OUTER_BOUND('',#219,.T.);
#182=FACE_OUTER_BOUND('',#220,.T.);
#183=FACE_OUTER_BOUND('',#221,.T.);
#184=FACE_OUTER_BOUND('',#222,.T.);
#185=FACE_OUTER_BOUND('',#223,.T.);
#186=FACE_OUTER_BOUND('',#224,.T.);
#187=FACE_OUTER_BOUND('',#225,.T.);
#188=FACE_OUTER_BOUND('',#226,.T.);
#189=FACE_OUTER_BOUND('',#227,.T.);
#190=FACE_OUTER_BOUND('',#228,.T.);
#191=FACE_OUTER_BOUND('',#229,.T.);
#192=FACE_OUTER_BOUND('',#231,.T.);
#193=FACE_OUTER_BOUND('',#232,.T.);
#194=FACE_OUTER_BOUND('',#233,.T.);
#195=FACE_OUTER_BOUND('',#234,.T.);
#196=FACE_OUTER_BOUND('',#235,.T.);
#197=FACE_OUTER_BOUND('',#236,.T.);
#198=FACE_OUTER_BOUND('',#237,.T.);
#199=FACE_OUTER_BOUND('',#238,.T.);
#200=FACE_OUTER_BOUND('',#239,.T.);
#201=FACE_OUTER_BOUND('',#240,.T.);
#202=FACE_OUTER_BOUND('',#241,.T.);
#203=FACE_OUTER_BOUND('',#242,.T.);
#204=FACE_OUTER_BOUND('',#243,.T.);
#205=FACE_OUTER_BOUND('',#244,.T.);
#206=FACE_OUTER_BOUND('',#245,.T.);
#207=FACE_OUTER_BOUND('',#246,.T.);
#208=FACE_OUTER_BOUND('',#247,.T.);
#209=FACE_OUTER_BOUND('',#248,.T.);
#210=EDGE_LOOP('',(#431,#432,#433,#434,#435,#436));
#211=EDGE_LOOP('',(#437));
#212=EDGE_LOOP('',(#438,#439,#440,#441,#442,#443));
#213=EDGE_LOOP('',(#444,#445,#446,#447));
#214=EDGE_LOOP('',(#448,#449,#450,#451));
#215=EDGE_LOOP('',(#452,#453,#454,#455));
#216=EDGE_LOOP('',(#456,#457,#458,#459,#460,#461));
#217=EDGE_LOOP('',(#462,#463,#464,#465,#466,#467));
#218=EDGE_LOOP('',(#468,#469,#470,#471));
#219=EDGE_LOOP('',(#472,#473,#474,#475,#476,#477,#478,#479,#480,#481,#482,
#483,#484,#485));
#220=EDGE_LOOP('',(#486,#487,#488,#489));
#221=EDGE_LOOP('',(#490,#491,#492,#493,#494,#495));
#222=EDGE_LOOP('',(#496,#497,#498,#499));
#223=EDGE_LOOP('',(#500,#501,#502,#503));
#224=EDGE_LOOP('',(#504,#505,#506,#507,#508,#509,#510,#511));
#225=EDGE_LOOP('',(#512,#513,#514,#515));
#226=EDGE_LOOP('',(#516,#517,#518,#519,#520,#521));
#227=EDGE_LOOP('',(#522,#523,#524,#525,#526,#527,#528,#529,#530,#531,#532));
#228=EDGE_LOOP('',(#533,#534,#535,#536,#537));
#229=EDGE_LOOP('',(#538,#539,#540,#541,#542,#543,#544,#545));
#230=EDGE_LOOP('',(#546));
#231=EDGE_LOOP('',(#547,#548,#549,#550));
#232=EDGE_LOOP('',(#551,#552,#553,#554));
#233=EDGE_LOOP('',(#555,#556,#557,#558));
#234=EDGE_LOOP('',(#559,#560,#561,#562));
#235=EDGE_LOOP('',(#563,#564,#565,#566));
#236=EDGE_LOOP('',(#567,#568,#569,#570));
#237=EDGE_LOOP('',(#571,#572,#573,#574));
#238=EDGE_LOOP('',(#575,#576,#577,#578));
#239=EDGE_LOOP('',(#579,#580,#581,#582));
#240=EDGE_LOOP('',(#583,#584,#585,#586));
#241=EDGE_LOOP('',(#587,#588,#589,#590));
#242=EDGE_LOOP('',(#591,#592,#593,#594));
#243=EDGE_LOOP('',(#595,#596,#597,#598));
#244=EDGE_LOOP('',(#599,#600,#601,#602,#603,#604,#605,#606));
#245=EDGE_LOOP('',(#607,#608,#609,#610));
#246=EDGE_LOOP('',(#611,#612,#613,#614));
#247=EDGE_LOOP('',(#615,#616,#617,#618,#619,#620,#621));
#248=EDGE_LOOP('',(#622,#623,#624,#625,#626));
#249=EDGE_LOOP('',(#627,#628));
#250=ELLIPSE('',#683,13.9283882771841,5.);
#251=ELLIPSE('',#684,13.9283882771841,5.);
#252=ELLIPSE('',#685,13.9283882771841,5.);
#253=B_SPLINE_CURVE_WITH_KNOTS('',3,(#1032,#1033,#1034,#1035,#1036,#1037,
#1038,#1039,#1040,#1041,#1042,#1043,#1044),.UNSPECIFIED.,.F.,.F.,(4,3,3,
3,4),(0.,0.00607579419514064,0.0105084933106537,0.0119648871404792,0.020508967990942),
 .UNSPECIFIED.);
#254=B_SPLINE_CURVE_WITH_KNOTS('',3,(#1048,#1049,#1050,#1051,#1052,#1053,
#1054,#1055,#1056,#1057,#1058,#1059,#1060),.UNSPECIFIED.,.F.,.F.,(4,3,3,
3,4),(-9.0903946597793E-5,0.00845312248280506,0.00990950634638206,0.014342175304151,
0.0204179281241902),.UNSPECIFIED.);
#255=B_SPLINE_CURVE_WITH_KNOTS('',3,(#1064,#1065,#1066,#1067,#1068,#1069,
#1070,#1071,#1072,#1073),.UNSPECIFIED.,.F.,.F.,(4,2,2,2,4),(0.,0.0808151534488467,
0.143702075799837,0.207712336131866,0.27868741154912),.UNSPECIFIED.);
#256=B_SPLINE_CURVE_WITH_KNOTS('',3,(#1089,#1090,#1091,#1092,#1093,#1094),
 .UNSPECIFIED.,.F.,.F.,(4,2,4),(0.42218501156744,0.468250108876185,0.479049339011831),
 .UNSPECIFIED.);
#257=B_SPLINE_CURVE_WITH_KNOTS('',3,(#1099,#1100,#1101,#1102,#1103,#1104),
 .UNSPECIFIED.,.F.,.F.,(4,2,4),(0.0211276149928807,0.0297676265367823,0.0310783296393998),
 .UNSPECIFIED.);
#258=B_SPLINE_CURVE_WITH_KNOTS('',3,(#1135,#1136,#1137,#1138,#1139,#1140),
 .UNSPECIFIED.,.F.,.F.,(4,2,4),(0.0415889555430728,0.196165463107041,0.380331596850027),
 .UNSPECIFIED.);
#259=B_SPLINE_CURVE_WITH_KNOTS('',3,(#1141,#1142,#1143,#1144),
 .UNSPECIFIED.,.F.,.F.,(4,4),(3.9709469846177,4.4089728302765),
 .UNSPECIFIED.);
#260=B_SPLINE_CURVE_WITH_KNOTS('',3,(#1145,#1146,#1147,#1148),
 .UNSPECIFIED.,.F.,.F.,(4,4),(-4.4089728302765,-4.39665861233477),
 .UNSPECIFIED.);
#261=B_SPLINE_CURVE_WITH_KNOTS('',3,(#1156,#1157,#1158,#1159),
 .UNSPECIFIED.,.F.,.F.,(4,4),(4.40465015989248,4.41696670255173),
 .UNSPECIFIED.);
#262=B_SPLINE_CURVE_WITH_KNOTS('',3,(#1214,#1215,#1216,#1217),
 .UNSPECIFIED.,.F.,.F.,(4,4),(-4.41696670255173,-3.97797017259308),
 .UNSPECIFIED.);
#263=B_SPLINE_CURVE_WITH_KNOTS('',3,(#1218,#1219,#1220,#1221,#1222,#1223,
#1224,#1225),.UNSPECIFIED.,.F.,.F.,(4,2,2,4),(0.,0.0901431841946497,0.26562173261912,
0.390866226635371),.UNSPECIFIED.);
#264=B_SPLINE_CURVE_WITH_KNOTS('',3,(#1273,#1274,#1275,#1276,#1277,#1278,
#1279,#1280,#1281,#1282,#1283,#1284,#1285,#1286,#1287,#1288,#1289,#1290),
 .UNSPECIFIED.,.F.,.F.,(4,2,2,2,2,2,2,2,4),(0.263754431122905,0.329693021877845,
0.395631612632785,0.461570237439298,0.527508862245811,0.593447487052323,
0.659386111858836,0.725324702613776,0.791263293368716),.UNSPECIFIED.);
#265=B_SPLINE_CURVE_WITH_KNOTS('',3,(#1297,#1298,#1299,#1300,#1301,#1302,
#1303,#1304,#1305,#1306),.UNSPECIFIED.,.F.,.F.,(4,2,2,2,4),(0.,0.0659386248065128,
0.131877249613026,0.197815840367965,0.263754431122905),.UNSPECIFIED.);
#266=B_SPLINE_CURVE_WITH_KNOTS('',3,(#1307,#1308,#1309,#1310,#1311,#1312,
#1313,#1314,#1315,#1316),.UNSPECIFIED.,.F.,.F.,(4,2,2,2,4),(0.791263293368716,
0.857201884123655,0.923140474878595,0.989079099685108,1.05501772449162),
 .UNSPECIFIED.);
#267=B_SPLINE_CURVE_WITH_KNOTS('',3,(#1422,#1423,#1424,#1425,#1426,#1427,
#1428,#1429,#1430,#1431,#1432,#1433,#1434,#1435,#1436,#1437,#1438,#1439,
#1440,#1441,#1442,#1443,#1444,#1445,#1446,#1447),.UNSPECIFIED.,.F.,.F.,
(4,2,2,2,2,2,2,2,2,2,2,2,4),(0.,0.0659541784242438,0.131908356848488,0.197862419788155,
0.263816482727822,0.32977054566749,0.395724608607157,0.461678787031401,
0.527632965455644,0.593587143879888,0.659541322304132,0.7254953852438,0.791449448183467),
 .UNSPECIFIED.);
#268=B_SPLINE_CURVE_WITH_KNOTS('',3,(#1448,#1449,#1450,#1451,#1452,#1453,
#1454,#1455,#1456,#1457),.UNSPECIFIED.,.F.,.F.,(4,2,2,2,4),(0.791449448183467,
0.857403511123134,0.923357574062802,0.989311752487046,1.05526593091129),
 .UNSPECIFIED.);
#269=VERTEX_POINT('',#1030);
#270=VERTEX_POINT('',#1031);
#271=VERTEX_POINT('',#1045);
#272=VERTEX_POINT('',#1047);
#273=VERTEX_POINT('',#1061);
#274=VERTEX_POINT('',#1063);
#275=VERTEX_POINT('',#1076);
#276=VERTEX_POINT('',#1078);
#277=VERTEX_POINT('',#1080);
#278=VERTEX_POINT('',#1082);
#279=VERTEX_POINT('',#1084);
#280=VERTEX_POINT('',#1088);
#281=VERTEX_POINT('',#1097);
#282=VERTEX_POINT('',#1106);
#283=VERTEX_POINT('',#1107);
#284=VERTEX_POINT('',#1109);
#285=VERTEX_POINT('',#1111);
#286=VERTEX_POINT('',#1134);
#287=VERTEX_POINT('',#1150);
#288=VERTEX_POINT('',#1152);
#289=VERTEX_POINT('',#1154);
#290=VERTEX_POINT('',#1161);
#291=VERTEX_POINT('',#1165);
#292=VERTEX_POINT('',#1167);
#293=VERTEX_POINT('',#1169);
#294=VERTEX_POINT('',#1171);
#295=VERTEX_POINT('',#1173);
#296=VERTEX_POINT('',#1175);
#297=VERTEX_POINT('',#1177);
#298=VERTEX_POINT('',#1179);
#299=VERTEX_POINT('',#1181);
#300=VERTEX_POINT('',#1183);
#301=VERTEX_POINT('',#1185);
#302=VERTEX_POINT('',#1189);
#303=VERTEX_POINT('',#1213);
#304=VERTEX_POINT('',#1260);
#305=VERTEX_POINT('',#1261);
#306=VERTEX_POINT('',#1264);
#307=VERTEX_POINT('',#1266);
#308=VERTEX_POINT('',#1270);
#309=VERTEX_POINT('',#1272);
#310=VERTEX_POINT('',#1291);
#311=VERTEX_POINT('',#1293);
#312=VERTEX_POINT('',#1296);
#313=VERTEX_POINT('',#1318);
#314=VERTEX_POINT('',#1322);
#315=VERTEX_POINT('',#1323);
#316=VERTEX_POINT('',#1325);
#317=VERTEX_POINT('',#1327);
#318=VERTEX_POINT('',#1329);
#319=VERTEX_POINT('',#1331);
#320=VERTEX_POINT('',#1333);
#321=VERTEX_POINT('',#1335);
#322=VERTEX_POINT('',#1347);
#323=VERTEX_POINT('',#1349);
#324=VERTEX_POINT('',#1353);
#325=VERTEX_POINT('',#1365);
#326=VERTEX_POINT('',#1369);
#327=VERTEX_POINT('',#1381);
#328=VERTEX_POINT('',#1385);
#329=VERTEX_POINT('',#1397);
#330=VERTEX_POINT('',#1419);
#331=VERTEX_POINT('',#1421);
#332=EDGE_CURVE('',#269,#270,#253,.T.);
#333=EDGE_CURVE('',#270,#271,#250,.T.);
#334=EDGE_CURVE('',#271,#272,#254,.T.);
#335=EDGE_CURVE('',#272,#273,#251,.T.);
#336=EDGE_CURVE('',#273,#274,#255,.T.);
#337=EDGE_CURVE('',#274,#269,#252,.T.);
#338=EDGE_CURVE('',#275,#275,#123,.T.);
#339=EDGE_CURVE('',#273,#276,#124,.F.);
#340=EDGE_CURVE('',#276,#277,#41,.T.);
#341=EDGE_CURVE('',#277,#278,#125,.T.);
#342=EDGE_CURVE('',#278,#279,#42,.T.);
#343=EDGE_CURVE('',#279,#274,#126,.F.);
#344=EDGE_CURVE('',#280,#272,#256,.T.);
#345=EDGE_CURVE('',#276,#280,#43,.T.);
#346=EDGE_CURVE('',#281,#279,#44,.T.);
#347=EDGE_CURVE('',#269,#281,#257,.T.);
#348=EDGE_CURVE('',#282,#283,#127,.T.);
#349=EDGE_CURVE('',#283,#284,#45,.T.);
#350=EDGE_CURVE('',#284,#285,#128,.T.);
#351=EDGE_CURVE('',#285,#282,#46,.T.);
#352=EDGE_CURVE('',#281,#286,#258,.T.);
#353=EDGE_CURVE('',#286,#285,#259,.T.);
#354=EDGE_CURVE('',#284,#270,#260,.T.);
#355=EDGE_CURVE('',#287,#284,#47,.T.);
#356=EDGE_CURVE('',#288,#287,#129,.F.);
#357=EDGE_CURVE('',#289,#288,#48,.T.);
#358=EDGE_CURVE('',#271,#289,#261,.T.);
#359=EDGE_CURVE('',#290,#283,#49,.F.);
#360=EDGE_CURVE('',#287,#290,#50,.T.);
#361=EDGE_CURVE('',#282,#291,#130,.T.);
#362=EDGE_CURVE('',#292,#291,#131,.T.);
#363=EDGE_CURVE('',#292,#293,#51,.F.);
#364=EDGE_CURVE('',#294,#293,#52,.T.);
#365=EDGE_CURVE('',#295,#294,#132,.T.);
#366=EDGE_CURVE('',#296,#295,#53,.T.);
#367=EDGE_CURVE('',#297,#296,#133,.T.);
#368=EDGE_CURVE('',#298,#297,#54,.T.);
#369=EDGE_CURVE('',#299,#298,#134,.T.);
#370=EDGE_CURVE('',#300,#299,#55,.T.);
#371=EDGE_CURVE('',#301,#300,#135,.T.);
#372=EDGE_CURVE('',#290,#301,#56,.T.);
#373=EDGE_CURVE('',#291,#302,#57,.T.);
#374=EDGE_CURVE('',#302,#289,#136,.T.);
#375=EDGE_CURVE('',#289,#292,#58,.T.);
#376=EDGE_CURVE('',#302,#303,#262,.T.);
#377=EDGE_CURVE('',#303,#280,#263,.T.);
#378=EDGE_CURVE('',#303,#277,#59,.F.);
#379=EDGE_CURVE('',#293,#288,#60,.T.);
#380=EDGE_CURVE('',#286,#278,#61,.T.);
#381=EDGE_CURVE('',#304,#305,#137,.T.);
#382=EDGE_CURVE('',#305,#304,#138,.T.);
#383=EDGE_CURVE('',#304,#306,#139,.T.);
#384=EDGE_CURVE('',#306,#307,#140,.T.);
#385=EDGE_CURVE('',#307,#306,#141,.T.);
#386=EDGE_CURVE('',#305,#308,#62,.T.);
#387=EDGE_CURVE('',#308,#309,#264,.F.);
#388=EDGE_CURVE('',#309,#310,#63,.T.);
#389=EDGE_CURVE('',#311,#310,#142,.T.);
#390=EDGE_CURVE('',#310,#311,#143,.T.);
#391=EDGE_CURVE('',#309,#312,#265,.F.);
#392=EDGE_CURVE('',#312,#308,#266,.F.);
#393=EDGE_CURVE('',#313,#313,#144,.T.);
#394=EDGE_CURVE('',#313,#311,#145,.T.);
#395=EDGE_CURVE('',#314,#315,#64,.T.);
#396=EDGE_CURVE('',#316,#314,#146,.T.);
#397=EDGE_CURVE('',#317,#316,#65,.T.);
#398=EDGE_CURVE('',#318,#317,#147,.T.);
#399=EDGE_CURVE('',#319,#318,#66,.T.);
#400=EDGE_CURVE('',#320,#319,#148,.T.);
#401=EDGE_CURVE('',#321,#320,#67,.T.);
#402=EDGE_CURVE('',#315,#321,#149,.T.);
#403=EDGE_CURVE('',#322,#316,#150,.T.);
#404=EDGE_CURVE('',#314,#323,#151,.T.);
#405=EDGE_CURVE('',#323,#322,#152,.T.);
#406=EDGE_CURVE('',#324,#323,#68,.T.);
#407=EDGE_CURVE('',#315,#324,#153,.T.);
#408=EDGE_CURVE('',#321,#325,#154,.T.);
#409=EDGE_CURVE('',#325,#324,#155,.T.);
#410=EDGE_CURVE('',#320,#326,#156,.T.);
#411=EDGE_CURVE('',#326,#325,#69,.T.);
#412=EDGE_CURVE('',#319,#327,#157,.T.);
#413=EDGE_CURVE('',#327,#326,#158,.T.);
#414=EDGE_CURVE('',#318,#328,#159,.T.);
#415=EDGE_CURVE('',#328,#327,#70,.T.);
#416=EDGE_CURVE('',#317,#329,#160,.T.);
#417=EDGE_CURVE('',#329,#328,#161,.T.);
#418=EDGE_CURVE('',#322,#329,#71,.T.);
#419=EDGE_CURVE('',#327,#297,#72,.T.);
#420=EDGE_CURVE('',#296,#326,#73,.T.);
#421=EDGE_CURVE('',#298,#328,#74,.T.);
#422=EDGE_CURVE('',#329,#299,#75,.T.);
#423=EDGE_CURVE('',#300,#322,#76,.T.);
#424=EDGE_CURVE('',#323,#301,#77,.T.);
#425=EDGE_CURVE('',#294,#324,#78,.T.);
#426=EDGE_CURVE('',#325,#295,#79,.T.);
#427=EDGE_CURVE('',#309,#330,#80,.T.);
#428=EDGE_CURVE('',#331,#330,#267,.T.);
#429=EDGE_CURVE('',#330,#331,#268,.T.);
#430=EDGE_CURVE('',#307,#275,#81,.T.);
#431=ORIENTED_EDGE('',*,*,#332,.T.);
#432=ORIENTED_EDGE('',*,*,#333,.T.);
#433=ORIENTED_EDGE('',*,*,#334,.T.);
#434=ORIENTED_EDGE('',*,*,#335,.T.);
#435=ORIENTED_EDGE('',*,*,#336,.T.);
#436=ORIENTED_EDGE('',*,*,#337,.T.);
#437=ORIENTED_EDGE('',*,*,#338,.F.);
#438=ORIENTED_EDGE('',*,*,#336,.F.);
#439=ORIENTED_EDGE('',*,*,#339,.T.);
#440=ORIENTED_EDGE('',*,*,#340,.T.);
#441=ORIENTED_EDGE('',*,*,#341,.T.);
#442=ORIENTED_EDGE('',*,*,#342,.T.);
#443=ORIENTED_EDGE('',*,*,#343,.T.);
#444=ORIENTED_EDGE('',*,*,#335,.F.);
#445=ORIENTED_EDGE('',*,*,#344,.F.);
#446=ORIENTED_EDGE('',*,*,#345,.F.);
#447=ORIENTED_EDGE('',*,*,#339,.F.);
#448=ORIENTED_EDGE('',*,*,#337,.F.);
#449=ORIENTED_EDGE('',*,*,#343,.F.);
#450=ORIENTED_EDGE('',*,*,#346,.F.);
#451=ORIENTED_EDGE('',*,*,#347,.F.);
#452=ORIENTED_EDGE('',*,*,#348,.T.);
#453=ORIENTED_EDGE('',*,*,#349,.T.);
#454=ORIENTED_EDGE('',*,*,#350,.T.);
#455=ORIENTED_EDGE('',*,*,#351,.T.);
#456=ORIENTED_EDGE('',*,*,#332,.F.);
#457=ORIENTED_EDGE('',*,*,#347,.T.);
#458=ORIENTED_EDGE('',*,*,#352,.T.);
#459=ORIENTED_EDGE('',*,*,#353,.T.);
#460=ORIENTED_EDGE('',*,*,#350,.F.);
#461=ORIENTED_EDGE('',*,*,#354,.T.);
#462=ORIENTED_EDGE('',*,*,#333,.F.);
#463=ORIENTED_EDGE('',*,*,#354,.F.);
#464=ORIENTED_EDGE('',*,*,#355,.F.);
#465=ORIENTED_EDGE('',*,*,#356,.F.);
#466=ORIENTED_EDGE('',*,*,#357,.F.);
#467=ORIENTED_EDGE('',*,*,#358,.F.);
#468=ORIENTED_EDGE('',*,*,#349,.F.);
#469=ORIENTED_EDGE('',*,*,#359,.F.);
#470=ORIENTED_EDGE('',*,*,#360,.F.);
#471=ORIENTED_EDGE('',*,*,#355,.T.);
#472=ORIENTED_EDGE('',*,*,#348,.F.);
#473=ORIENTED_EDGE('',*,*,#361,.T.);
#474=ORIENTED_EDGE('',*,*,#362,.F.);
#475=ORIENTED_EDGE('',*,*,#363,.T.);
#476=ORIENTED_EDGE('',*,*,#364,.F.);
#477=ORIENTED_EDGE('',*,*,#365,.F.);
#478=ORIENTED_EDGE('',*,*,#366,.F.);
#479=ORIENTED_EDGE('',*,*,#367,.F.);
#480=ORIENTED_EDGE('',*,*,#368,.F.);
#481=ORIENTED_EDGE('',*,*,#369,.F.);
#482=ORIENTED_EDGE('',*,*,#370,.F.);
#483=ORIENTED_EDGE('',*,*,#371,.F.);
#484=ORIENTED_EDGE('',*,*,#372,.F.);
#485=ORIENTED_EDGE('',*,*,#359,.T.);
#486=ORIENTED_EDGE('',*,*,#362,.T.);
#487=ORIENTED_EDGE('',*,*,#373,.T.);
#488=ORIENTED_EDGE('',*,*,#374,.T.);
#489=ORIENTED_EDGE('',*,*,#375,.T.);
#490=ORIENTED_EDGE('',*,*,#334,.F.);
#491=ORIENTED_EDGE('',*,*,#358,.T.);
#492=ORIENTED_EDGE('',*,*,#374,.F.);
#493=ORIENTED_EDGE('',*,*,#376,.T.);
#494=ORIENTED_EDGE('',*,*,#377,.T.);
#495=ORIENTED_EDGE('',*,*,#344,.T.);
#496=ORIENTED_EDGE('',*,*,#377,.F.);
#497=ORIENTED_EDGE('',*,*,#378,.T.);
#498=ORIENTED_EDGE('',*,*,#340,.F.);
#499=ORIENTED_EDGE('',*,*,#345,.T.);
#500=ORIENTED_EDGE('',*,*,#375,.F.);
#501=ORIENTED_EDGE('',*,*,#357,.T.);
#502=ORIENTED_EDGE('',*,*,#379,.F.);
#503=ORIENTED_EDGE('',*,*,#363,.F.);
#504=ORIENTED_EDGE('',*,*,#353,.F.);
#505=ORIENTED_EDGE('',*,*,#380,.T.);
#506=ORIENTED_EDGE('',*,*,#341,.F.);
#507=ORIENTED_EDGE('',*,*,#378,.F.);
#508=ORIENTED_EDGE('',*,*,#376,.F.);
#509=ORIENTED_EDGE('',*,*,#373,.F.);
#510=ORIENTED_EDGE('',*,*,#361,.F.);
#511=ORIENTED_EDGE('',*,*,#351,.F.);
#512=ORIENTED_EDGE('',*,*,#352,.F.);
#513=ORIENTED_EDGE('',*,*,#346,.T.);
#514=ORIENTED_EDGE('',*,*,#342,.F.);
#515=ORIENTED_EDGE('',*,*,#380,.F.);
#516=ORIENTED_EDGE('',*,*,#381,.T.);
#517=ORIENTED_EDGE('',*,*,#382,.T.);
#518=ORIENTED_EDGE('',*,*,#383,.T.);
#519=ORIENTED_EDGE('',*,*,#384,.T.);
#520=ORIENTED_EDGE('',*,*,#385,.T.);
#521=ORIENTED_EDGE('',*,*,#383,.F.);
#522=ORIENTED_EDGE('',*,*,#381,.F.);
#523=ORIENTED_EDGE('',*,*,#382,.F.);
#524=ORIENTED_EDGE('',*,*,#386,.T.);
#525=ORIENTED_EDGE('',*,*,#387,.T.);
#526=ORIENTED_EDGE('',*,*,#388,.T.);
#527=ORIENTED_EDGE('',*,*,#389,.F.);
#528=ORIENTED_EDGE('',*,*,#390,.F.);
#529=ORIENTED_EDGE('',*,*,#388,.F.);
#530=ORIENTED_EDGE('',*,*,#391,.T.);
#531=ORIENTED_EDGE('',*,*,#392,.T.);
#532=ORIENTED_EDGE('',*,*,#386,.F.);
#533=ORIENTED_EDGE('',*,*,#393,.T.);
#534=ORIENTED_EDGE('',*,*,#394,.T.);
#535=ORIENTED_EDGE('',*,*,#389,.T.);
#536=ORIENTED_EDGE('',*,*,#390,.T.);
#537=ORIENTED_EDGE('',*,*,#394,.F.);
#538=ORIENTED_EDGE('',*,*,#395,.F.);
#539=ORIENTED_EDGE('',*,*,#396,.F.);
#540=ORIENTED_EDGE('',*,*,#397,.F.);
#541=ORIENTED_EDGE('',*,*,#398,.F.);
#542=ORIENTED_EDGE('',*,*,#399,.F.);
#543=ORIENTED_EDGE('',*,*,#400,.F.);
#544=ORIENTED_EDGE('',*,*,#401,.F.);
#545=ORIENTED_EDGE('',*,*,#402,.F.);
#546=ORIENTED_EDGE('',*,*,#393,.F.);
#547=ORIENTED_EDGE('',*,*,#403,.T.);
#548=ORIENTED_EDGE('',*,*,#396,.T.);
#549=ORIENTED_EDGE('',*,*,#404,.T.);
#550=ORIENTED_EDGE('',*,*,#405,.T.);
#551=ORIENTED_EDGE('',*,*,#406,.T.);
#552=ORIENTED_EDGE('',*,*,#404,.F.);
#553=ORIENTED_EDGE('',*,*,#395,.T.);
#554=ORIENTED_EDGE('',*,*,#407,.T.);
#555=ORIENTED_EDGE('',*,*,#408,.T.);
#556=ORIENTED_EDGE('',*,*,#409,.T.);
#557=ORIENTED_EDGE('',*,*,#407,.F.);
#558=ORIENTED_EDGE('',*,*,#402,.T.);
#559=ORIENTED_EDGE('',*,*,#410,.T.);
#560=ORIENTED_EDGE('',*,*,#411,.T.);
#561=ORIENTED_EDGE('',*,*,#408,.F.);
#562=ORIENTED_EDGE('',*,*,#401,.T.);
#563=ORIENTED_EDGE('',*,*,#412,.T.);
#564=ORIENTED_EDGE('',*,*,#413,.T.);
#565=ORIENTED_EDGE('',*,*,#410,.F.);
#566=ORIENTED_EDGE('',*,*,#400,.T.);
#567=ORIENTED_EDGE('',*,*,#414,.T.);
#568=ORIENTED_EDGE('',*,*,#415,.T.);
#569=ORIENTED_EDGE('',*,*,#412,.F.);
#570=ORIENTED_EDGE('',*,*,#399,.T.);
#571=ORIENTED_EDGE('',*,*,#416,.T.);
#572=ORIENTED_EDGE('',*,*,#417,.T.);
#573=ORIENTED_EDGE('',*,*,#414,.F.);
#574=ORIENTED_EDGE('',*,*,#398,.T.);
#575=ORIENTED_EDGE('',*,*,#416,.F.);
#576=ORIENTED_EDGE('',*,*,#397,.T.);
#577=ORIENTED_EDGE('',*,*,#403,.F.);
#578=ORIENTED_EDGE('',*,*,#418,.T.);
#579=ORIENTED_EDGE('',*,*,#413,.F.);
#580=ORIENTED_EDGE('',*,*,#419,.T.);
#581=ORIENTED_EDGE('',*,*,#367,.T.);
#582=ORIENTED_EDGE('',*,*,#420,.T.);
#583=ORIENTED_EDGE('',*,*,#415,.F.);
#584=ORIENTED_EDGE('',*,*,#421,.F.);
#585=ORIENTED_EDGE('',*,*,#368,.T.);
#586=ORIENTED_EDGE('',*,*,#419,.F.);
#587=ORIENTED_EDGE('',*,*,#417,.F.);
#588=ORIENTED_EDGE('',*,*,#422,.T.);
#589=ORIENTED_EDGE('',*,*,#369,.T.);
#590=ORIENTED_EDGE('',*,*,#421,.T.);
#591=ORIENTED_EDGE('',*,*,#418,.F.);
#592=ORIENTED_EDGE('',*,*,#423,.F.);
#593=ORIENTED_EDGE('',*,*,#370,.T.);
#594=ORIENTED_EDGE('',*,*,#422,.F.);
#595=ORIENTED_EDGE('',*,*,#405,.F.);
#596=ORIENTED_EDGE('',*,*,#424,.T.);
#597=ORIENTED_EDGE('',*,*,#371,.T.);
#598=ORIENTED_EDGE('',*,*,#423,.T.);
#599=ORIENTED_EDGE('',*,*,#406,.F.);
#600=ORIENTED_EDGE('',*,*,#425,.F.);
#601=ORIENTED_EDGE('',*,*,#364,.T.);
#602=ORIENTED_EDGE('',*,*,#379,.T.);
#603=ORIENTED_EDGE('',*,*,#356,.T.);
#604=ORIENTED_EDGE('',*,*,#360,.T.);
#605=ORIENTED_EDGE('',*,*,#372,.T.);
#606=ORIENTED_EDGE('',*,*,#424,.F.);
#607=ORIENTED_EDGE('',*,*,#409,.F.);
#608=ORIENTED_EDGE('',*,*,#426,.T.);
#609=ORIENTED_EDGE('',*,*,#365,.T.);
#610=ORIENTED_EDGE('',*,*,#425,.T.);
#611=ORIENTED_EDGE('',*,*,#411,.F.);
#612=ORIENTED_EDGE('',*,*,#420,.F.);
#613=ORIENTED_EDGE('',*,*,#366,.T.);
#614=ORIENTED_EDGE('',*,*,#426,.F.);
#615=ORIENTED_EDGE('',*,*,#392,.F.);
#616=ORIENTED_EDGE('',*,*,#391,.F.);
#617=ORIENTED_EDGE('',*,*,#427,.T.);
#618=ORIENTED_EDGE('',*,*,#428,.F.);
#619=ORIENTED_EDGE('',*,*,#429,.F.);
#620=ORIENTED_EDGE('',*,*,#427,.F.);
#621=ORIENTED_EDGE('',*,*,#387,.F.);
#622=ORIENTED_EDGE('',*,*,#385,.F.);
#623=ORIENTED_EDGE('',*,*,#430,.T.);
#624=ORIENTED_EDGE('',*,*,#338,.T.);
#625=ORIENTED_EDGE('',*,*,#430,.F.);
#626=ORIENTED_EDGE('',*,*,#384,.F.);
#627=ORIENTED_EDGE('',*,*,#428,.T.);
#628=ORIENTED_EDGE('',*,*,#429,.T.);
#629=B_SPLINE_SURFACE_WITH_KNOTS('',3,3,((#940,#941,#942,#943,#944,#945,
#946,#947,#948,#949,#950,#951,#952,#953,#954),(#955,#956,#957,#958,#959,
#960,#961,#962,#963,#964,#965,#966,#967,#968,#969),(#970,#971,#972,#973,
#974,#975,#976,#977,#978,#979,#980,#981,#982,#983,#984),(#985,#986,#987,
#988,#989,#990,#991,#992,#993,#994,#995,#996,#997,#998,#999),(#1000,#1001,
#1002,#1003,#1004,#1005,#1006,#1007,#1008,#1009,#1010,#1011,#1012,#1013,
#1014),(#1015,#1016,#1017,#1018,#1019,#1020,#1021,#1022,#1023,#1024,#1025,
#1026,#1027,#1028,#1029)),.UNSPECIFIED.,.F.,.F.,.F.,(4,1,1,4),(4,1,1,1,
1,1,1,1,1,1,1,1,4),(0.,0.285714285714286,0.571428571428571,1.),(-1.55314093601848,
-1.10938638451596,-0.665631833013432,-0.554693195137801,-0.44375455726217,
-0.221877281510908,-5.75964542726126E-9,0.110938632115986,0.221877269991617,
0.443754545742879,0.665631821494141,1.10938637299667,1.55314092449919),
 .UNSPECIFIED.);
#630=B_SPLINE_SURFACE_WITH_KNOTS('',3,3,((#1114,#1115,#1116,#1117),(#1118,
#1119,#1120,#1121),(#1122,#1123,#1124,#1125),(#1126,#1127,#1128,#1129),
(#1130,#1131,#1132,#1133)),.UNSPECIFIED.,.F.,.F.,.F.,(4,1,4),(4,4),(0.,
0.571428571428571,1.),(3.9709469846177,4.4089728302765),.UNSPECIFIED.);
#631=B_SPLINE_SURFACE_WITH_KNOTS('',3,3,((#1193,#1194,#1195,#1196),(#1197,
#1198,#1199,#1200),(#1201,#1202,#1203,#1204),(#1205,#1206,#1207,#1208),
(#1209,#1210,#1211,#1212)),.UNSPECIFIED.,.F.,.F.,.F.,(4,1,4),(4,4),(0.,
0.571428571428571,1.),(3.97797017259308,4.41696670255173),.UNSPECIFIED.);
#632=ADVANCED_FACE('',(#173),#629,.F.);
#633=ADVANCED_FACE('',(#174,#38),#162,.F.);
#634=ADVANCED_FACE('',(#175),#21,.F.);
#635=ADVANCED_FACE('',(#176),#22,.F.);
#636=ADVANCED_FACE('',(#177),#23,.T.);
#637=ADVANCED_FACE('',(#178),#630,.F.);
#638=ADVANCED_FACE('',(#179),#24,.F.);
#639=ADVANCED_FACE('',(#180),#163,.T.);
#640=ADVANCED_FACE('',(#181),#164,.T.);
#641=ADVANCED_FACE('',(#182),#25,.T.);
#642=ADVANCED_FACE('',(#183),#631,.F.);
#643=ADVANCED_FACE('',(#184),#165,.T.);
#644=ADVANCED_FACE('',(#185),#166,.T.);
#645=ADVANCED_FACE('',(#186),#26,.F.);
#646=ADVANCED_FACE('',(#187),#167,.T.);
#647=ADVANCED_FACE('',(#188),#16,.T.);
#648=ADVANCED_FACE('',(#189),#27,.T.);
#649=ADVANCED_FACE('',(#190),#15,.F.);
#650=ADVANCED_FACE('',(#191,#39),#168,.F.);
#651=ADVANCED_FACE('',(#192),#17,.F.);
#652=ADVANCED_FACE('',(#193),#28,.T.);
#653=ADVANCED_FACE('',(#194),#18,.F.);
#654=ADVANCED_FACE('',(#195),#29,.T.);
#655=ADVANCED_FACE('',(#196),#19,.F.);
#656=ADVANCED_FACE('',(#197),#30,.T.);
#657=ADVANCED_FACE('',(#198),#20,.F.);
#658=ADVANCED_FACE('',(#199),#31,.T.);
#659=ADVANCED_FACE('',(#200),#32,.T.);
#660=ADVANCED_FACE('',(#201),#169,.F.);
#661=ADVANCED_FACE('',(#202),#33,.T.);
#662=ADVANCED_FACE('',(#203),#170,.F.);
#663=ADVANCED_FACE('',(#204),#34,.T.);
#664=ADVANCED_FACE('',(#205),#171,.F.);
#665=ADVANCED_FACE('',(#206),#35,.T.);
#666=ADVANCED_FACE('',(#207),#172,.F.);
#667=ADVANCED_FACE('',(#208),#36,.F.);
#668=ADVANCED_FACE('',(#209,#40),#37,.F.);
#669=CLOSED_SHELL('',(#632,#633,#634,#635,#636,#637,#638,#639,#640,#641,
#642,#643,#644,#645,#646,#647,#648,#649,#650,#651,#652,#653,#654,#655,#656,
#657,#658,#659,#660,#661,#662,#663,#664,#665,#666,#667,#668));
#670=DERIVED_UNIT_ELEMENT(#672,1.);
#671=DERIVED_UNIT_ELEMENT(#1465,-3.);
#672=(
MASS_UNIT()
NAMED_UNIT(*)
SI_UNIT(.KILO.,.GRAM.)
);
#673=DERIVED_UNIT((#670,#671));
#674=MEASURE_REPRESENTATION_ITEM('density measure',
POSITIVE_RATIO_MEASURE(7850.),#673);
#675=PROPERTY_DEFINITION_REPRESENTATION(#680,#677);
#676=PROPERTY_DEFINITION_REPRESENTATION(#681,#678);
#677=REPRESENTATION('material name',(#679),#1462);
#678=REPRESENTATION('density',(#674),#1462);
#679=DESCRIPTIVE_REPRESENTATION_ITEM('Steel','Steel');
#680=PROPERTY_DEFINITION('material property','material name',#1472);
#681=PROPERTY_DEFINITION('material property','density of part',#1472);
#682=AXIS2_PLACEMENT_3D('',#939,#754,#755);
#683=AXIS2_PLACEMENT_3D('',#1046,#756,#757);
#684=AXIS2_PLACEMENT_3D('',#1062,#758,#759);
#685=AXIS2_PLACEMENT_3D('',#1074,#760,#761);
#686=AXIS2_PLACEMENT_3D('',#1075,#762,#763);
#687=AXIS2_PLACEMENT_3D('',#1077,#764,#765);
#688=AXIS2_PLACEMENT_3D('',#1079,#766,#767);
#689=AXIS2_PLACEMENT_3D('',#1083,#769,#770);
#690=AXIS2_PLACEMENT_3D('',#1086,#772,#773);
#691=AXIS2_PLACEMENT_3D('',#1087,#774,#775);
#692=AXIS2_PLACEMENT_3D('',#1096,#777,#778);
#693=AXIS2_PLACEMENT_3D('',#1105,#780,#781);
#694=AXIS2_PLACEMENT_3D('',#1108,#782,#783);
#695=AXIS2_PLACEMENT_3D('',#1112,#785,#786);
#696=AXIS2_PLACEMENT_3D('',#1149,#788,#789);
#697=AXIS2_PLACEMENT_3D('',#1153,#791,#792);
#698=AXIS2_PLACEMENT_3D('',#1160,#794,#795);
#699=AXIS2_PLACEMENT_3D('',#1164,#798,#799);
#700=AXIS2_PLACEMENT_3D('',#1166,#800,#801);
#701=AXIS2_PLACEMENT_3D('',#1168,#802,#803);
#702=AXIS2_PLACEMENT_3D('',#1174,#806,#807);
#703=AXIS2_PLACEMENT_3D('',#1178,#809,#810);
#704=AXIS2_PLACEMENT_3D('',#1182,#812,#813);
#705=AXIS2_PLACEMENT_3D('',#1186,#815,#816);
#706=AXIS2_PLACEMENT_3D('',#1188,#818,#819);
#707=AXIS2_PLACEMENT_3D('',#1191,#821,#822);
#708=AXIS2_PLACEMENT_3D('',#1226,#824,#825);
#709=AXIS2_PLACEMENT_3D('',#1228,#827,#828);
#710=AXIS2_PLACEMENT_3D('',#1230,#830,#831);
#711=AXIS2_PLACEMENT_3D('',#1232,#833,#834);
#712=AXIS2_PLACEMENT_3D('',#1262,#835,#836);
#713=AXIS2_PLACEMENT_3D('',#1263,#837,#838);
#714=AXIS2_PLACEMENT_3D('',#1265,#839,#840);
#715=AXIS2_PLACEMENT_3D('',#1267,#841,#842);
#716=AXIS2_PLACEMENT_3D('',#1268,#843,#844);
#717=AXIS2_PLACEMENT_3D('',#1269,#845,#846);
#718=AXIS2_PLACEMENT_3D('',#1294,#849,#850);
#719=AXIS2_PLACEMENT_3D('',#1295,#851,#852);
#720=AXIS2_PLACEMENT_3D('',#1317,#853,#854);
#721=AXIS2_PLACEMENT_3D('',#1319,#855,#856);
#722=AXIS2_PLACEMENT_3D('',#1320,#857,#858);
#723=AXIS2_PLACEMENT_3D('',#1321,#859,#860);
#724=AXIS2_PLACEMENT_3D('',#1326,#862,#863);
#725=AXIS2_PLACEMENT_3D('',#1330,#865,#866);
#726=AXIS2_PLACEMENT_3D('',#1334,#868,#869);
#727=AXIS2_PLACEMENT_3D('',#1337,#871,#872);
#728=AXIS2_PLACEMENT_3D('',#1348,#873,#874);
#729=AXIS2_PLACEMENT_3D('',#1350,#875,#876);
#730=AXIS2_PLACEMENT_3D('',#1351,#877,#878);
#731=AXIS2_PLACEMENT_3D('',#1352,#879,#880);
#732=AXIS2_PLACEMENT_3D('',#1355,#882,#883);
#733=AXIS2_PLACEMENT_3D('',#1366,#884,#885);
#734=AXIS2_PLACEMENT_3D('',#1367,#886,#887);
#735=AXIS2_PLACEMENT_3D('',#1368,#888,#889);
#736=AXIS2_PLACEMENT_3D('',#1370,#890,#891);
#737=AXIS2_PLACEMENT_3D('',#1382,#893,#894);
#738=AXIS2_PLACEMENT_3D('',#1383,#895,#896);
#739=AXIS2_PLACEMENT_3D('',#1384,#897,#898);
#740=AXIS2_PLACEMENT_3D('',#1386,#899,#900);
#741=AXIS2_PLACEMENT_3D('',#1398,#902,#903);
#742=AXIS2_PLACEMENT_3D('',#1399,#904,#905);
#743=AXIS2_PLACEMENT_3D('',#1400,#906,#907);
#744=AXIS2_PLACEMENT_3D('',#1402,#909,#910);
#745=AXIS2_PLACEMENT_3D('',#1405,#913,#914);
#746=AXIS2_PLACEMENT_3D('',#1407,#916,#917);
#747=AXIS2_PLACEMENT_3D('',#1409,#919,#920);
#748=AXIS2_PLACEMENT_3D('',#1411,#922,#923);
#749=AXIS2_PLACEMENT_3D('',#1413,#925,#926);
#750=AXIS2_PLACEMENT_3D('',#1415,#928,#929);
#751=AXIS2_PLACEMENT_3D('',#1417,#931,#932);
#752=AXIS2_PLACEMENT_3D('',#1418,#933,#934);
#753=AXIS2_PLACEMENT_3D('',#1458,#936,#937);
#754=DIRECTION('axis',(0.,0.,1.));
#755=DIRECTION('refdir',(1.,0.,0.));
#756=DIRECTION('center_axis',(0.358979079308869,0.,0.93334560620306));
#757=DIRECTION('ref_axis',(0.93334560620306,0.,-0.358979079308869));
#758=DIRECTION('center_axis',(-0.93334560620306,1.59418735682979E-16,-0.358979079308869));
#759=DIRECTION('ref_axis',(0.358979079308869,0.,-0.93334560620306));
#760=DIRECTION('center_axis',(-0.93334560620306,1.59418735682979E-16,-0.358979079308869));
#761=DIRECTION('ref_axis',(0.358979079308869,0.,-0.93334560620306));
#762=DIRECTION('center_axis',(0.,0.,1.));
#763=DIRECTION('ref_axis',(-1.,0.,0.));
#764=DIRECTION('center_axis',(0.,0.,1.));
#765=DIRECTION('ref_axis',(-1.,0.,0.));
#766=DIRECTION('center_axis',(0.,0.,-1.));
#767=DIRECTION('ref_axis',(0.707106781186547,0.707106781186548,0.));
#768=DIRECTION('',(-1.,0.,0.));
#769=DIRECTION('center_axis',(0.,0.,1.));
#770=DIRECTION('ref_axis',(1.,0.,0.));
#771=DIRECTION('',(1.,0.,0.));
#772=DIRECTION('center_axis',(0.,0.,-1.));
#773=DIRECTION('ref_axis',(0.707106781186547,0.707106781186548,0.));
#774=DIRECTION('center_axis',(0.,0.,1.));
#775=DIRECTION('ref_axis',(0.707106781186547,0.707106781186548,0.));
#776=DIRECTION('',(0.,0.,1.));
#777=DIRECTION('center_axis',(0.,0.,1.));
#778=DIRECTION('ref_axis',(0.707106781186547,0.707106781186548,0.));
#779=DIRECTION('',(0.,0.,-1.));
#780=DIRECTION('center_axis',(0.,0.,-1.));
#781=DIRECTION('ref_axis',(-0.542645446133519,0.839961856152143,0.));
#782=DIRECTION('center_axis',(0.,0.,-1.));
#783=DIRECTION('ref_axis',(-0.542645446133519,0.839961856152143,0.));
#784=DIRECTION('',(0.,0.,-1.));
#785=DIRECTION('center_axis',(0.,0.,1.));
#786=DIRECTION('ref_axis',(0.,1.,0.));
#787=DIRECTION('',(0.,0.,1.));
#788=DIRECTION('center_axis',(1.,0.,0.));
#789=DIRECTION('ref_axis',(0.,0.707106781186548,-0.707106781186548));
#790=DIRECTION('',(-1.,0.,0.));
#791=DIRECTION('center_axis',(1.,0.,0.));
#792=DIRECTION('ref_axis',(0.,0.707106781186548,-0.707106781186548));
#793=DIRECTION('',(1.,0.,0.));
#794=DIRECTION('center_axis',(0.,1.,0.));
#795=DIRECTION('ref_axis',(1.,0.,0.));
#796=DIRECTION('',(1.,0.,0.));
#797=DIRECTION('',(0.,0.,1.));
#798=DIRECTION('center_axis',(0.,0.,1.));
#799=DIRECTION('ref_axis',(0.,-1.,0.));
#800=DIRECTION('center_axis',(0.,0.,-1.));
#801=DIRECTION('ref_axis',(1.,0.,0.));
#802=DIRECTION('center_axis',(0.,0.,-1.));
#803=DIRECTION('ref_axis',(-0.542645437238866,-0.839961861898408,0.));
#804=DIRECTION('',(-1.,0.,0.));
#805=DIRECTION('',(0.,-1.,0.));
#806=DIRECTION('center_axis',(0.,0.,-1.));
#807=DIRECTION('ref_axis',(0.707106781186547,0.707106781186547,0.));
#808=DIRECTION('',(1.,0.,0.));
#809=DIRECTION('center_axis',(0.,0.,-1.));
#810=DIRECTION('ref_axis',(-0.707106781186547,0.707106781186547,0.));
#811=DIRECTION('',(0.,1.,0.));
#812=DIRECTION('center_axis',(0.,0.,-1.));
#813=DIRECTION('ref_axis',(-0.707106781186547,-0.707106781186547,0.));
#814=DIRECTION('',(-1.,0.,0.));
#815=DIRECTION('center_axis',(0.,0.,-1.));
#816=DIRECTION('ref_axis',(0.707106781186547,-0.707106781186547,0.));
#817=DIRECTION('',(0.,-1.,0.));
#818=DIRECTION('center_axis',(0.,0.,-1.));
#819=DIRECTION('ref_axis',(-0.542645437238866,-0.839961861898408,0.));
#820=DIRECTION('',(0.,0.,-1.));
#821=DIRECTION('center_axis',(0.,0.,1.));
#822=DIRECTION('ref_axis',(-0.911602943627668,-0.411071858887678,0.));
#823=DIRECTION('',(0.,0.,1.));
#824=DIRECTION('center_axis',(0.,-1.,0.));
#825=DIRECTION('ref_axis',(-1.,0.,0.));
#826=DIRECTION('',(0.,0.,1.));
#827=DIRECTION('center_axis',(0.,-1.,0.));
#828=DIRECTION('ref_axis',(-1.,0.,0.));
#829=DIRECTION('',(0.,0.,-1.));
#830=DIRECTION('center_axis',(0.,0.,-1.));
#831=DIRECTION('ref_axis',(-1.,-1.15972264128698E-8,0.));
#832=DIRECTION('',(0.,0.,-1.));
#833=DIRECTION('center_axis',(0.,1.,0.));
#834=DIRECTION('ref_axis',(1.,0.,0.));
#835=DIRECTION('center_axis',(0.,0.,-1.));
#836=DIRECTION('ref_axis',(0.00542641217271324,-0.999985276917081,0.));
#837=DIRECTION('center_axis',(0.,0.,-1.));
#838=DIRECTION('ref_axis',(0.00542641217271324,-0.999985276917081,0.));
#839=DIRECTION('center_axis',(-0.999985276917081,-0.00542641217271312,0.));
#840=DIRECTION('ref_axis',(-0.00542641217271312,0.999985276917081,0.));
#841=DIRECTION('center_axis',(0.,0.,1.));
#842=DIRECTION('ref_axis',(-1.,0.,0.));
#843=DIRECTION('center_axis',(0.,0.,1.));
#844=DIRECTION('ref_axis',(-1.,0.,0.));
#845=DIRECTION('center_axis',(0.,0.,-1.));
#846=DIRECTION('ref_axis',(0.,1.,0.));
#847=DIRECTION('',(0.,0.,1.));
#848=DIRECTION('',(0.,0.,1.));
#849=DIRECTION('center_axis',(0.,0.,1.));
#850=DIRECTION('ref_axis',(0.,1.,0.));
#851=DIRECTION('center_axis',(0.,0.,1.));
#852=DIRECTION('ref_axis',(0.,1.,0.));
#853=DIRECTION('center_axis',(0.,0.,-1.));
#854=DIRECTION('ref_axis',(-1.,0.,0.));
#855=DIRECTION('center_axis',(0.,0.,-1.));
#856=DIRECTION('ref_axis',(0.,1.,0.));
#857=DIRECTION('center_axis',(-1.22464679914735E-16,-1.,0.));
#858=DIRECTION('ref_axis',(1.,-1.22464679914735E-16,0.));
#859=DIRECTION('center_axis',(0.,0.,1.));
#860=DIRECTION('ref_axis',(0.,-1.,0.));
#861=DIRECTION('',(0.,1.,0.));
#862=DIRECTION('center_axis',(0.,0.,1.));
#863=DIRECTION('ref_axis',(0.707106781186547,-0.707106781186547,0.));
#864=DIRECTION('',(1.,0.,0.));
#865=DIRECTION('center_axis',(0.,0.,1.));
#866=DIRECTION('ref_axis',(-0.707106781186547,-0.707106781186547,0.));
#867=DIRECTION('',(0.,-1.,0.));
#868=DIRECTION('center_axis',(0.,0.,1.));
#869=DIRECTION('ref_axis',(-0.707106781186547,0.707106781186547,0.));
#870=DIRECTION('',(-1.,0.,0.));
#871=DIRECTION('center_axis',(0.,0.,1.));
#872=DIRECTION('ref_axis',(0.707106781186547,0.707106781186547,0.));
#873=DIRECTION('center_axis',(1.,0.,0.));
#874=DIRECTION('ref_axis',(0.,-1.,0.));
#875=DIRECTION('center_axis',(0.,-1.,0.));
#876=DIRECTION('ref_axis',(0.,0.,-1.));
#877=DIRECTION('center_axis',(0.,0.,-1.));
#878=DIRECTION('ref_axis',(0.707106781186547,-0.707106781186547,0.));
#879=DIRECTION('center_axis',(0.,-1.,0.));
#880=DIRECTION('ref_axis',(0.707106781186547,0.,-0.707106781186548));
#881=DIRECTION('',(0.,-1.,0.));
#882=DIRECTION('center_axis',(0.,-1.,0.));
#883=DIRECTION('ref_axis',(0.,0.,-1.));
#884=DIRECTION('center_axis',(1.,0.,0.));
#885=DIRECTION('ref_axis',(0.,0.,-1.));
#886=DIRECTION('center_axis',(0.,0.,-1.));
#887=DIRECTION('ref_axis',(0.707106781186547,0.707106781186547,0.));
#888=DIRECTION('center_axis',(1.,0.,0.));
#889=DIRECTION('ref_axis',(0.,0.707106781186547,-0.707106781186548));
#890=DIRECTION('center_axis',(1.,0.,0.));
#891=DIRECTION('ref_axis',(0.,0.,-1.));
#892=DIRECTION('',(1.,0.,0.));
#893=DIRECTION('center_axis',(0.,1.,0.));
#894=DIRECTION('ref_axis',(0.,0.,-1.));
#895=DIRECTION('center_axis',(0.,0.,-1.));
#896=DIRECTION('ref_axis',(-0.707106781186547,0.707106781186547,0.));
#897=DIRECTION('center_axis',(0.,1.,0.));
#898=DIRECTION('ref_axis',(-0.707106781186547,0.,-0.707106781186548));
#899=DIRECTION('center_axis',(0.,1.,0.));
#900=DIRECTION('ref_axis',(0.,0.,-1.));
#901=DIRECTION('',(0.,1.,0.));
#902=DIRECTION('center_axis',(-1.,0.,0.));
#903=DIRECTION('ref_axis',(0.,0.,-1.));
#904=DIRECTION('center_axis',(0.,0.,-1.));
#905=DIRECTION('ref_axis',(-0.707106781186547,-0.707106781186547,0.));
#906=DIRECTION('center_axis',(-1.,0.,0.));
#907=DIRECTION('ref_axis',(0.,-0.707106781186547,-0.707106781186548));
#908=DIRECTION('',(-1.,0.,0.));
#909=DIRECTION('center_axis',(0.,0.,1.));
#910=DIRECTION('ref_axis',(-0.707106781186547,0.707106781186547,0.));
#911=DIRECTION('',(0.,0.,1.));
#912=DIRECTION('',(0.,0.,-1.));
#913=DIRECTION('center_axis',(1.,0.,0.));
#914=DIRECTION('ref_axis',(0.,0.,1.));
#915=DIRECTION('',(0.,0.,-1.));
#916=DIRECTION('center_axis',(0.,0.,1.));
#917=DIRECTION('ref_axis',(-0.707106781186547,-0.707106781186547,0.));
#918=DIRECTION('',(0.,0.,1.));
#919=DIRECTION('center_axis',(0.,1.,0.));
#920=DIRECTION('ref_axis',(0.,0.,-1.));
#921=DIRECTION('',(0.,0.,-1.));
#922=DIRECTION('center_axis',(0.,0.,1.));
#923=DIRECTION('ref_axis',(0.707106781186547,-0.707106781186547,0.));
#924=DIRECTION('',(0.,0.,1.));
#925=DIRECTION('center_axis',(-1.,0.,0.));
#926=DIRECTION('ref_axis',(0.,0.,-1.));
#927=DIRECTION('',(0.,0.,-1.));
#928=DIRECTION('center_axis',(0.,0.,1.));
#929=DIRECTION('ref_axis',(0.707106781186547,0.707106781186547,0.));
#930=DIRECTION('',(0.,0.,1.));
#931=DIRECTION('center_axis',(0.,-1.,0.));
#932=DIRECTION('ref_axis',(0.,0.,1.));
#933=DIRECTION('center_axis',(1.22464679914735E-16,1.,0.));
#934=DIRECTION('ref_axis',(0.,0.,-1.));
#935=DIRECTION('',(1.22464679914735E-16,1.,0.));
#936=DIRECTION('center_axis',(0.,0.,1.));
#937=DIRECTION('ref_axis',(-1.,0.,0.));
#938=DIRECTION('',(0.,0.,1.));
#939=CARTESIAN_POINT('',(0.,0.,0.));
#940=CARTESIAN_POINT('Ctrl Pts',(15.3382726956027,4.99922090209658,7.27049194808758));
#941=CARTESIAN_POINT('Ctrl Pts',(16.077748347781,4.98616381377224,5.34785525242402));
#942=CARTESIAN_POINT('Ctrl Pts',(17.5505651012159,4.62673984201513,1.51853169349307));
#943=CARTESIAN_POINT('Ctrl Pts',(18.8729889240126,3.54995140995635,-1.91977024577816));
#944=CARTESIAN_POINT('Ctrl Pts',(19.5089672966135,2.6387625346001,-3.5733140145405));
#945=CARTESIAN_POINT('Ctrl Pts',(19.8637959972092,1.98859314295397,-4.49586863608927));
#946=CARTESIAN_POINT('Ctrl Pts',(20.1676346133638,1.10936447854764,-5.28584903809134));
#947=CARTESIAN_POINT('Ctrl Pts',(20.2706217359642,0.184889699024381,-5.55361555685235));
#948=CARTESIAN_POINT('Ctrl Pts',(20.2294213951105,-0.55468097155952,-5.44649467063282));
#949=CARTESIAN_POINT('Ctrl Pts',(20.1069175049094,-1.28527723536505,-5.12798455610978));
#950=CARTESIAN_POINT('Ctrl Pts',(19.8027819912526,-2.16420451463848,-4.33723222060228));
#951=CARTESIAN_POINT('Ctrl Pts',(19.0196861302052,-3.43008057610011,-2.30118298187909));
#952=CARTESIAN_POINT('Ctrl Pts',(17.5507420267477,-4.62690709634685,1.51807168711055));
#953=CARTESIAN_POINT('Ctrl Pts',(16.077748405218,-4.98616347641163,5.34785510308765));
#954=CARTESIAN_POINT('Ctrl Pts',(15.3382727531902,-4.9992205732542,7.27049179836014));
#955=CARTESIAN_POINT('Ctrl Pts',(15.351720927864,4.99898344362729,7.28394437320667));
#956=CARTESIAN_POINT('Ctrl Pts',(16.2038083316181,4.9819480808256,5.47402480980733));
#957=CARTESIAN_POINT('Ctrl Pts',(17.8977212305532,4.50460556171054,1.87000856991421));
#958=CARTESIAN_POINT('Ctrl Pts',(19.2219580887924,3.19400338647442,-1.26218076949529));
#959=CARTESIAN_POINT('Ctrl Pts',(19.7519606034476,2.24422756028396,-2.70310605119663));
#960=CARTESIAN_POINT('Ctrl Pts',(20.0224574776852,1.61002497377704,-3.49075475874203));
#961=CARTESIAN_POINT('Ctrl Pts',(20.2092548777747,0.844407054764354,-4.13543159508424));
#962=CARTESIAN_POINT('Ctrl Pts',(20.2600492143947,0.140511545693153,-4.34506832097773));
#963=CARTESIAN_POINT('Ctrl Pts',(20.2394218935473,-0.42188887123071,-4.26099510069377));
#964=CARTESIAN_POINT('Ctrl Pts',(20.1727181903551,-0.997962305032691,-4.00709661908645));
#965=CARTESIAN_POINT('Ctrl Pts',(19.9835993763334,-1.7625593419503,-3.36054585385897));
#966=CARTESIAN_POINT('Ctrl Pts',(19.36799673349,-3.04787831297921,-1.60922117742093));
#967=CARTESIAN_POINT('Ctrl Pts',(17.8985377038431,-4.50497094013479,1.86927867480648));
#968=CARTESIAN_POINT('Ctrl Pts',(16.2038083977103,-4.98194774056115,5.47402466927184));
#969=CARTESIAN_POINT('Ctrl Pts',(15.3517209942213,-4.9989831144751,7.2839442322572));
#970=CARTESIAN_POINT('Ctrl Pts',(15.3786197881915,4.99864421102922,7.31084922344058));
#971=CARTESIAN_POINT('Ctrl Pts',(16.4559909079661,4.97592539859003,5.7263639243256));
#972=CARTESIAN_POINT('Ctrl Pts',(18.5965095600997,4.33213984647405,2.57307518121375));
#973=CARTESIAN_POINT('Ctrl Pts',(20.0854532133905,2.66988335456369,0.0528012701258826));
#974=CARTESIAN_POINT('Ctrl Pts',(20.5495108064816,1.65193881931385,-0.96425696073448));
#975=CARTESIAN_POINT('Ctrl Pts',(20.7475101023542,1.03573283550073,-1.48323722610075));
#976=CARTESIAN_POINT('Ctrl Pts',(20.8066023451157,0.437222690660952,-1.83875130248188));
#977=CARTESIAN_POINT('Ctrl Pts',(20.7950780749928,0.0722693808920638,-1.93290277169493));
#978=CARTESIAN_POINT('Ctrl Pts',(20.7989146594475,-0.217697542888747,-1.89461337916745));
#979=CARTESIAN_POINT('Ctrl Pts',(20.7966870179313,-0.558073742998824,-1.76918246113481));
#980=CARTESIAN_POINT('Ctrl Pts',(20.7324787955832,-1.15393542030116,-1.40955217499949));
#981=CARTESIAN_POINT('Ctrl Pts',(20.2487119055423,-2.48403564897649,-0.225495515908826));
#982=CARTESIAN_POINT('Ctrl Pts',(18.598138044938,-4.33298896737433,2.57177898581939));
#983=CARTESIAN_POINT('Ctrl Pts',(16.455990991452,-4.97592505417684,5.72636380139188));
#984=CARTESIAN_POINT('Ctrl Pts',(15.3786198720929,-4.99864388143442,7.31084910004705));
#985=CARTESIAN_POINT('Ctrl Pts',(15.4256987835772,4.99852547743694,7.35793031533217));
#986=CARTESIAN_POINT('Ctrl Pts',(16.8974669506851,4.97381739107268,6.16789475691166));
#987=CARTESIAN_POINT('Ctrl Pts',(19.8253499010163,4.27236648895417,3.80276280136078));
#988=CARTESIAN_POINT('Ctrl Pts',(22.0394459509676,2.48086729481966,2.16900071711103));
#989=CARTESIAN_POINT('Ctrl Pts',(22.845563859735,1.43456973738955,1.67749813430399));
#990=CARTESIAN_POINT('Ctrl Pts',(23.2312014728685,0.823064293540307,1.47517192435924));
#991=CARTESIAN_POINT('Ctrl Pts',(23.4433836364755,0.284831136901573,1.43357878623834));
#992=CARTESIAN_POINT('Ctrl Pts',(23.4806653416208,0.0467315599807789,1.45738201426773));
#993=CARTESIAN_POINT('Ctrl Pts',(23.4649124287439,-0.141218213227945,1.44879441611618));
#994=CARTESIAN_POINT('Ctrl Pts',(23.4029450345462,-0.393950577291127,1.43966522680729));
#995=CARTESIAN_POINT('Ctrl Pts',(23.1854370159813,-0.928716684846616,1.48723978971525));
#996=CARTESIAN_POINT('Ctrl Pts',(22.2832675574227,-2.2803571848567,1.98995914744774));
#997=CARTESIAN_POINT('Ctrl Pts',(19.8269903312191,-4.27344881503497,3.80089915638518));
#998=CARTESIAN_POINT('Ctrl Pts',(16.8974670648179,-4.9738170452073,6.16789466469777));
#999=CARTESIAN_POINT('Ctrl Pts',(15.4256988981928,-4.99852514768723,7.35793022265684));
#1000=CARTESIAN_POINT('Ctrl Pts',(15.4593298463675,4.99886471439264,7.39155538813896));
#1001=CARTESIAN_POINT('Ctrl Pts',(17.2128908436429,4.97984020441109,6.48316210882472));
#1002=CARTESIAN_POINT('Ctrl Pts',(20.7042342897557,4.44383989096188,4.67861450731802));
#1003=CARTESIAN_POINT('Ctrl Pts',(23.6834615106702,3.01613488287286,3.35267049946401));
#1004=CARTESIAN_POINT('Ctrl Pts',(25.0180524666994,2.04676718468275,2.87616280121743));
#1005=CARTESIAN_POINT('Ctrl Pts',(25.7381995272437,1.42029611783798,2.64849918363086));
#1006=CARTESIAN_POINT('Ctrl Pts',(26.310192547244,0.711277416118921,2.52030756147241));
#1007=CARTESIAN_POINT('Ctrl Pts',(26.4906880063687,0.118177750190956,2.49611440624206));
#1008=CARTESIAN_POINT('Ctrl Pts',(26.4181710283262,-0.355209052331407,2.50622655332682));
#1009=CARTESIAN_POINT('Ctrl Pts',(26.196630681566,-0.853687619296891,2.54474764471044));
#1010=CARTESIAN_POINT('Ctrl Pts',(25.622225063022,-1.56140489606064,2.67604169018814));
#1011=CARTESIAN_POINT('Ctrl Pts',(24.0133437948218,-2.85682434138838,3.20670248611748));
#1012=CARTESIAN_POINT('Ctrl Pts',(20.7050863131906,-4.4443203821126,4.67761109716256));
#1013=CARTESIAN_POINT('Ctrl Pts',(17.212890979778,-4.9798398626947,6.48316203840488));
#1014=CARTESIAN_POINT('Ctrl Pts',(15.4593299829279,-4.99886438508555,7.39155531739684));
#1015=CARTESIAN_POINT('Ctrl Pts',(15.4795084840461,4.99922090209658,7.411727736531));
#1016=CARTESIAN_POINT('Ctrl Pts',(17.4021451797096,4.98616381377224,6.67225208435271));
#1017=CARTESIAN_POINT('Ctrl Pts',(21.2314687386406,4.62673984201513,5.19943533091772));
#1018=CARTESIAN_POINT('Ctrl Pts',(24.6697706779118,3.54995140995635,3.87701150812109));
#1019=CARTESIAN_POINT('Ctrl Pts',(26.3233144466742,2.6387625346001,3.24103313552019));
#1020=CARTESIAN_POINT('Ctrl Pts',(27.2458690682229,1.98859314295397,2.88620443492451));
#1021=CARTESIAN_POINT('Ctrl Pts',(28.035849470225,1.10936447854764,2.58236581876987));
#1022=CARTESIAN_POINT('Ctrl Pts',(28.303615988986,0.184889699024381,2.47937869616948));
#1023=CARTESIAN_POINT('Ctrl Pts',(28.1964951027665,-0.55468097155952,2.52057903702315));
#1024=CARTESIAN_POINT('Ctrl Pts',(27.8779849882435,-1.28527723536505,2.64308292722431));
#1025=CARTESIAN_POINT('Ctrl Pts',(27.0872326527359,-2.16420451463848,2.94721844088105));
#1026=CARTESIAN_POINT('Ctrl Pts',(25.0511834140128,-3.43008057610011,3.73031430192843));
#1027=CARTESIAN_POINT('Ctrl Pts',(21.2319287450231,-4.62690709634685,5.19925840538598));
#1028=CARTESIAN_POINT('Ctrl Pts',(17.402145329046,-4.98616347641163,6.67225202691563));
#1029=CARTESIAN_POINT('Ctrl Pts',(15.4795086337735,-4.9992205732542,7.41172767894352));
#1030=CARTESIAN_POINT('',(15.3427169431279,-4.99914012504734,7.25893691325676));
#1031=CARTESIAN_POINT('',(15.4795086482504,-4.99922057169798,7.41172762924905));
#1032=CARTESIAN_POINT('Ctrl Pts',(15.3427169404039,-4.99914009518177,7.25893691160428));
#1033=CARTESIAN_POINT('Ctrl Pts',(15.3561018094892,-4.99889180140578,7.27413405884709));
#1034=CARTESIAN_POINT('Ctrl Pts',(15.3695257511201,-4.99871931677962,7.28929728179157));
#1035=CARTESIAN_POINT('Ctrl Pts',(15.3829865350422,-4.998622721817,7.30442806704602));
#1036=CARTESIAN_POINT('Ctrl Pts',(15.3928070791669,-4.99855224931717,7.31546698907996));
#1037=CARTESIAN_POINT('Ctrl Pts',(15.4026472580255,-4.99852217094287,7.32648866952395));
#1038=CARTESIAN_POINT('Ctrl Pts',(15.4125064711948,-4.99853253061529,7.33749394559297));
#1039=CARTESIAN_POINT('Ctrl Pts',(15.4157457835984,-4.99853593435703,7.34110980485721));
#1040=CARTESIAN_POINT('Ctrl Pts',(15.4189870924323,-4.99854370342879,7.34472382877566));
#1041=CARTESIAN_POINT('Ctrl Pts',(15.4222303669223,-4.99855583917844,7.3483360384323));
#1042=CARTESIAN_POINT('Ctrl Pts',(15.4412573628459,-4.99862703477404,7.36952742960901));
#1043=CARTESIAN_POINT('Ctrl Pts',(15.4603519587877,-4.99884851154889,7.39065633003153));
#1044=CARTESIAN_POINT('Ctrl Pts',(15.4795086146232,-4.99922057291616,7.41172765979916));
#1045=CARTESIAN_POINT('',(15.4795084840467,4.99922090209657,7.41172773653076));
#1046=CARTESIAN_POINT('Origin',(15.2500003278255,1.63912772244146E-7,7.50000010430813));
#1047=CARTESIAN_POINT('',(15.3427168760961,4.99914045431025,7.25893705629407));
#1048=CARTESIAN_POINT('Ctrl Pts',(15.4795084840461,4.99922090209658,7.411727736531));
#1049=CARTESIAN_POINT('Ctrl Pts',(15.4603518447515,4.99884884120197,7.39065642523582));
#1050=CARTESIAN_POINT('Ctrl Pts',(15.4412572482621,4.99862736424847,7.3695275251929));
#1051=CARTESIAN_POINT('Ctrl Pts',(15.4222302537778,4.99855616806222,7.34833613828456));
#1052=CARTESIAN_POINT('Ctrl Pts',(15.4189869810693,4.99854403221764,7.34472393106644));
#1053=CARTESIAN_POINT('Ctrl Pts',(15.4157456740664,4.99853626303826,7.34110990967601));
#1054=CARTESIAN_POINT('Ctrl Pts',(15.4125063636512,4.99853285918132,7.33749405313085));
#1055=CARTESIAN_POINT('Ctrl Pts',(15.4026471561436,4.99852249915785,7.32648878490157));
#1056=CARTESIAN_POINT('Ctrl Pts',(15.3928069827678,4.99855257710206,7.31546711231407));
#1057=CARTESIAN_POINT('Ctrl Pts',(15.3829864444559,4.99862304935529,7.3044281979096));
#1058=CARTESIAN_POINT('Ctrl Pts',(15.3695256685867,4.9987196439793,7.28929742320883));
#1059=CARTESIAN_POINT('Ctrl Pts',(15.3561017355316,4.99889212872987,7.27413421036808));
#1060=CARTESIAN_POINT('Ctrl Pts',(15.3427168785696,4.99914042312711,7.25893707237346));
#1061=CARTESIAN_POINT('',(20.0576926756364,1.3733516443435,-5.));
#1062=CARTESIAN_POINT('Origin',(15.2500003278255,1.63912772244146E-7,7.50000010430813));
#1063=CARTESIAN_POINT('',(20.0576926756364,-1.37335131651796,-5.));
#1064=CARTESIAN_POINT('Ctrl Pts',(20.0576926756364,1.37335164434352,-5.));
#1065=CARTESIAN_POINT('Ctrl Pts',(20.1316844160565,1.1143287144614,-5.));
#1066=CARTESIAN_POINT('Ctrl Pts',(20.1904350590528,0.850521622635246,-4.99999999999999));
#1067=CARTESIAN_POINT('Ctrl Pts',(20.2540434294182,0.374405910771759,-4.99999999999999));
#1068=CARTESIAN_POINT('Ctrl Pts',(20.2675668994066,0.167022940178339,-4.99999999999993));
#1069=CARTESIAN_POINT('Ctrl Pts',(20.2632330834196,-0.257548365040245,-4.99999999999993));
#1070=CARTESIAN_POINT('Ctrl Pts',(20.2448693615467,-0.468498852980026,-4.99999999999984));
#1071=CARTESIAN_POINT('Ctrl Pts',(20.1760017618235,-0.914284780007527,-4.99999999999984));
#1072=CARTESIAN_POINT('Ctrl Pts',(20.1227180353196,-1.14571700103682,-5.));
#1073=CARTESIAN_POINT('Ctrl Pts',(20.0576926756364,-1.37335131651797,-5.));
#1074=CARTESIAN_POINT('Origin',(15.2500003278255,1.63912772244146E-7,7.50000010430813));
#1075=CARTESIAN_POINT('Origin',(0.,-1.36436014138178E-15,-5.));
#1076=CARTESIAN_POINT('',(20.65,1.1645354988575E-15,-5.));
#1077=CARTESIAN_POINT('Origin',(0.,-1.36436014138178E-15,-5.));
#1078=CARTESIAN_POINT('',(15.2500003278255,5.00000016391277,-5.));
#1079=CARTESIAN_POINT('Origin',(15.2500003278255,1.63912772244146E-7,-5.));
#1080=CARTESIAN_POINT('',(14.142135565779,5.00000016391277,-5.));
#1081=CARTESIAN_POINT('',(27.125,5.00000016391277,-5.));
#1082=CARTESIAN_POINT('',(14.1421356816829,-4.99999983608723,-5.));
#1083=CARTESIAN_POINT('Origin',(0.,0.,-5.));
#1084=CARTESIAN_POINT('',(15.2500003278255,-4.99999983608723,-5.));
#1085=CARTESIAN_POINT('',(27.125,-4.99999983608723,-5.));
#1086=CARTESIAN_POINT('Origin',(15.2500003278255,1.63912772244146E-7,-5.));
#1087=CARTESIAN_POINT('Origin',(15.2500003278255,1.63912772244146E-7,6.50000010430813));
#1088=CARTESIAN_POINT('',(15.2500003278255,5.00000016391277,7.12113421585942));
#1089=CARTESIAN_POINT('Ctrl Pts',(15.2500003278255,5.00000016391277,7.12113421585942));
#1090=CARTESIAN_POINT('Ctrl Pts',(15.2874424257351,5.00000016391277,7.18581848533724));
#1091=CARTESIAN_POINT('Ctrl Pts',(15.3124754769771,4.99964212967438,7.2216206299104));
#1092=CARTESIAN_POINT('Ctrl Pts',(15.3346557016158,4.99928523437192,7.24952841875575));
#1093=CARTESIAN_POINT('Ctrl Pts',(15.3387425429453,4.99921416413225,7.25442460941425));
#1094=CARTESIAN_POINT('Ctrl Pts',(15.3427168732868,4.99914045422247,7.25893705876693));
#1095=CARTESIAN_POINT('',(15.2500003278255,5.00000016391277,6.50000010430813));
#1096=CARTESIAN_POINT('Origin',(15.2500003278255,1.63912772244146E-7,6.50000010430813));
#1097=CARTESIAN_POINT('',(15.2500003278255,-4.99999983608723,7.12113396131718));
#1098=CARTESIAN_POINT('',(15.2500003278255,-4.99999983608723,6.50000010430813));
#1099=CARTESIAN_POINT('Ctrl Pts',(15.342716944218,-4.9991401250814,7.25893691229719));
#1100=CARTESIAN_POINT('Ctrl Pts',(15.3226676789206,-4.99951196902497,7.23617300479491));
#1101=CARTESIAN_POINT('Ctrl Pts',(15.2979521765497,-4.99987677369143,7.20161266106198));
#1102=CARTESIAN_POINT('Ctrl Pts',(15.2603008524423,-4.99999168560086,7.13878343699421));
#1103=CARTESIAN_POINT('Ctrl Pts',(15.2552115620361,-4.99999983608723,7.13013679278166));
#1104=CARTESIAN_POINT('Ctrl Pts',(15.2500003278255,-4.99999983608723,7.12113396131718));
#1105=CARTESIAN_POINT('Origin',(15.4790181306252,-6.97999983608723,3.));
#1106=CARTESIAN_POINT('',(13.6740442850046,-6.16607759371663,13.));
#1107=CARTESIAN_POINT('',(15.4790181306252,-4.99999983608723,13.));
#1108=CARTESIAN_POINT('Origin',(15.4790181306252,-6.97999983608723,13.));
#1109=CARTESIAN_POINT('',(15.4790181306252,-4.99999983608723,7.50000010430813));
#1110=CARTESIAN_POINT('',(15.4790181306252,-4.99999983608723,3.));
#1111=CARTESIAN_POINT('',(13.6740442850046,-6.16607759371663,7.50000010430813));
#1112=CARTESIAN_POINT('Origin',(15.4790181306252,-6.97999983608723,7.50000010430813));
#1113=CARTESIAN_POINT('',(13.6740442850046,-6.16607759371663,3.));
#1114=CARTESIAN_POINT('Ctrl Pts',(14.1421356817602,-4.99999983586855,3.41529690239405));
#1115=CARTESIAN_POINT('Ctrl Pts',(13.8799200301899,-5.74165772469211,4.57863505436542));
#1116=CARTESIAN_POINT('Ctrl Pts',(13.6740442850046,-6.16607759371663,6.03991395211213));
#1117=CARTESIAN_POINT('Ctrl Pts',(13.6740442850046,-6.16607759371663,7.50000010430813));
#1118=CARTESIAN_POINT('Ctrl Pts',(14.2716195290626,-4.63376419641705,3.71263954690971));
#1119=CARTESIAN_POINT('Ctrl Pts',(14.0408886065858,-5.34987203067248,4.77880474018912));
#1120=CARTESIAN_POINT('Ctrl Pts',(13.8518927755331,-5.771676436977,6.13931341740448));
#1121=CARTESIAN_POINT('Ctrl Pts',(13.8518927755331,-5.771676436977,7.50000010430813));
#1122=CARTESIAN_POINT('Ctrl Pts',(14.8104398665356,-4.1067909179638,4.23042621796285));
#1123=CARTESIAN_POINT('Ctrl Pts',(14.5847036910915,-4.77843028459399,5.12915442073296));
#1124=CARTESIAN_POINT('Ctrl Pts',(14.3968921999235,-5.18938913725988,6.31234318019231));
#1125=CARTESIAN_POINT('Ctrl Pts',(14.3968921999235,-5.18938913725988,7.50000010430813));
#1126=CARTESIAN_POINT('Ctrl Pts',(15.6496142178125,-4.01093977699232,4.51371703323048));
#1127=CARTESIAN_POINT('Ctrl Pts',(15.3740069658437,-4.63249489857486,5.34856459879651));
#1128=CARTESIAN_POINT('Ctrl Pts',(15.1545338068332,-4.99999983608723,6.42357913083737));
#1129=CARTESIAN_POINT('Ctrl Pts',(15.1545338068332,-4.99999983608723,7.50000010430813));
#1130=CARTESIAN_POINT('Ctrl Pts',(16.0088975917525,-4.05444108115598,4.57399494534389));
#1131=CARTESIAN_POINT('Ctrl Pts',(15.7120694741749,-4.65584275031663,5.40733173042367));
#1132=CARTESIAN_POINT('Ctrl Pts',(15.4790181306252,-4.99999983608723,6.45409311849447));
#1133=CARTESIAN_POINT('Ctrl Pts',(15.4790181306252,-4.99999983608723,7.50000010430813));
#1134=CARTESIAN_POINT('',(14.1421356817287,-4.99999983595755,3.41529690233022));
#1135=CARTESIAN_POINT('Ctrl Pts',(15.2500003278255,-4.99999983608723,7.12113396131719));
#1136=CARTESIAN_POINT('Ctrl Pts',(14.973529175033,-4.99999983608723,6.64350753102891));
#1137=CARTESIAN_POINT('Ctrl Pts',(14.7009848208353,-4.99999983608723,6.09010535465179));
#1138=CARTESIAN_POINT('Ctrl Pts',(14.2474847207559,-4.99999983608723,4.7282754492437));
#1139=CARTESIAN_POINT('Ctrl Pts',(14.1421356816829,-4.99999983608723,4.03747382218559));
#1140=CARTESIAN_POINT('Ctrl Pts',(14.1421356816829,-4.99999983608723,3.41529690273705));
#1141=CARTESIAN_POINT('Ctrl Pts',(14.1421356817602,-4.99999983586855,3.41529690239405));
#1142=CARTESIAN_POINT('Ctrl Pts',(13.8799200301899,-5.74165772469211,4.57863505436542));
#1143=CARTESIAN_POINT('Ctrl Pts',(13.6740442850046,-6.16607759371663,6.03991395211213));
#1144=CARTESIAN_POINT('Ctrl Pts',(13.6740442850046,-6.16607759371663,7.50000010430813));
#1145=CARTESIAN_POINT('Ctrl Pts',(15.4790181306252,-4.99999983608723,7.50000010430813));
#1146=CARTESIAN_POINT('Ctrl Pts',(15.4790181306252,-4.99999983608723,7.47059652756093));
#1147=CARTESIAN_POINT('Ctrl Pts',(15.4792023205237,-4.99972783482879,7.44119227554508));
#1148=CARTESIAN_POINT('Ctrl Pts',(15.4795669392371,-4.99918576340653,7.41179210929059));
#1149=CARTESIAN_POINT('Origin',(54.25,1.63912772244146E-7,7.50000010430813));
#1150=CARTESIAN_POINT('',(45.,-4.99999983608723,7.50000010430813));
#1151=CARTESIAN_POINT('',(54.25,-4.99999983608723,7.50000010430813));
#1152=CARTESIAN_POINT('',(45.,5.00000016391277,7.50000010430813));
#1153=CARTESIAN_POINT('Origin',(45.,1.63912772244146E-7,7.50000010430813));
#1154=CARTESIAN_POINT('',(15.4790179827978,5.00000016391277,7.50000010430813));
#1155=CARTESIAN_POINT('',(54.25,5.00000016391277,7.50000010430813));
#1156=CARTESIAN_POINT('Ctrl Pts',(15.479560826746,4.99919698389911,7.41179676901526));
#1157=CARTESIAN_POINT('Ctrl Pts',(15.4792001407592,4.99973187063124,7.4411884400988));
#1158=CARTESIAN_POINT('Ctrl Pts',(15.4790179827978,5.00000016391277,7.4705909766595));
#1159=CARTESIAN_POINT('Ctrl Pts',(15.4790179827978,5.00000016391277,7.50000010430813));
#1160=CARTESIAN_POINT('Origin',(54.25,-4.99999983608723,10.0000001043081));
#1161=CARTESIAN_POINT('',(45.,-4.99999983608723,13.));
#1162=CARTESIAN_POINT('',(27.125,-4.99999983608723,13.));
#1163=CARTESIAN_POINT('',(45.,-4.99999983608723,-30.9999999478459));
#1164=CARTESIAN_POINT('Origin',(0.,0.,13.));
#1165=CARTESIAN_POINT('',(13.674044154415,6.16607788331517,13.));
#1166=CARTESIAN_POINT('Origin',(0.,0.,13.));
#1167=CARTESIAN_POINT('',(15.4790179827978,5.00000016391277,13.));
#1168=CARTESIAN_POINT('Origin',(15.4790179827978,6.98000016391277,13.));
#1169=CARTESIAN_POINT('',(45.,5.00000016391277,13.));
#1170=CARTESIAN_POINT('',(27.125,5.00000016391277,13.));
#1171=CARTESIAN_POINT('',(45.,35.,13.));
#1172=CARTESIAN_POINT('',(45.,0.,13.));
#1173=CARTESIAN_POINT('',(35.,45.,13.));
#1174=CARTESIAN_POINT('Origin',(35.,35.,13.));
#1175=CARTESIAN_POINT('',(-35.,45.,13.));
#1176=CARTESIAN_POINT('',(0.,45.,13.));
#1177=CARTESIAN_POINT('',(-45.,35.,13.));
#1178=CARTESIAN_POINT('Origin',(-35.,35.,13.));
#1179=CARTESIAN_POINT('',(-45.,-35.,13.));
#1180=CARTESIAN_POINT('',(-45.,0.,13.));
#1181=CARTESIAN_POINT('',(-35.,-45.,13.));
#1182=CARTESIAN_POINT('Origin',(-35.,-35.,13.));
#1183=CARTESIAN_POINT('',(35.,-45.,13.));
#1184=CARTESIAN_POINT('',(0.,-45.,13.));
#1185=CARTESIAN_POINT('',(45.,-35.,13.));
#1186=CARTESIAN_POINT('Origin',(35.,-35.,13.));
#1187=CARTESIAN_POINT('',(45.,0.,13.));
#1188=CARTESIAN_POINT('Origin',(15.4790179827978,6.98000016391277,3.));
#1189=CARTESIAN_POINT('',(13.674044154415,6.16607788331517,7.50000010430813));
#1190=CARTESIAN_POINT('',(13.674044154415,6.16607788331517,3.));
#1191=CARTESIAN_POINT('Origin',(15.4790179827978,6.98000016391277,7.50000010430813));
#1192=CARTESIAN_POINT('',(15.4790179827978,5.00000016391277,3.));
#1193=CARTESIAN_POINT('Ctrl Pts',(16.0088974604719,4.05444144013631,4.57399498851375));
#1194=CARTESIAN_POINT('Ctrl Pts',(15.7104336197215,4.6591571935786,5.41192397842033));
#1195=CARTESIAN_POINT('Ctrl Pts',(15.4790179827978,5.00000016391277,6.45177534318433));
#1196=CARTESIAN_POINT('Ctrl Pts',(15.4790179827978,5.00000016391277,7.50000010430813));
#1197=CARTESIAN_POINT('Ctrl Pts',(15.5298529706454,3.99643969974281,4.49362443513542));
#1198=CARTESIAN_POINT('Ctrl Pts',(15.2602933164564,4.62844208529951,5.33299286384708));
#1199=CARTESIAN_POINT('Ctrl Pts',(15.0463722257293,5.00000016391277,6.41121402809655));
#1200=CARTESIAN_POINT('Ctrl Pts',(15.0463722257293,5.00000016391277,7.50000010430813));
#1201=CARTESIAN_POINT('Ctrl Pts',(14.6956542563802,4.16493281913788,4.15917896431646));
#1202=CARTESIAN_POINT('Ctrl Pts',(14.4743787430337,4.84716679808992,5.08552890761778));
#1203=CARTESIAN_POINT('Ctrl Pts',(14.2915235020139,5.25746132690866,6.28543605378207));
#1204=CARTESIAN_POINT('Ctrl Pts',(14.2915235020139,5.25746132690866,7.50000010430813));
#1205=CARTESIAN_POINT('Ctrl Pts',(14.239248456606,4.72532343946377,3.63830394050643));
#1206=CARTESIAN_POINT('Ctrl Pts',(13.9989544457931,5.45160732455226,4.73516675032396));
#1207=CARTESIAN_POINT('Ctrl Pts',(13.8074305261135,5.8702770240464,6.11124988284281));
#1208=CARTESIAN_POINT('Ctrl Pts',(13.8074305261135,5.8702770240464,7.50000010430813));
#1209=CARTESIAN_POINT('Ctrl Pts',(14.1421355657879,5.00000016388765,3.41529696265918));
#1210=CARTESIAN_POINT('Ctrl Pts',(13.8784749290826,5.74574503297377,4.5850458325688));
#1211=CARTESIAN_POINT('Ctrl Pts',(13.674044154415,6.16607788331517,6.0366783377793));
#1212=CARTESIAN_POINT('Ctrl Pts',(13.674044154415,6.16607788331517,7.50000010430813));
#1213=CARTESIAN_POINT('',(14.1421355657843,5.00000016389787,3.41529696265183));
#1214=CARTESIAN_POINT('Ctrl Pts',(13.674044154415,6.16607788331517,7.50000010430813));
#1215=CARTESIAN_POINT('Ctrl Pts',(13.674044154415,6.16607788331517,6.0366783377793));
#1216=CARTESIAN_POINT('Ctrl Pts',(13.8784749290826,5.74574503297377,4.5850458325688));
#1217=CARTESIAN_POINT('Ctrl Pts',(14.1421355657879,5.00000016388765,3.41529696265918));
#1218=CARTESIAN_POINT('Ctrl Pts',(14.142135565779,5.00000016391277,3.41529696269857));
#1219=CARTESIAN_POINT('Ctrl Pts',(14.142135565779,5.00000016391277,3.7157742433474));
#1220=CARTESIAN_POINT('Ctrl Pts',(14.1668600995009,5.00000016404852,4.01669607707202));
#1221=CARTESIAN_POINT('Ctrl Pts',(14.3009895880229,5.00000016404852,4.89241118547715));
#1222=CARTESIAN_POINT('Ctrl Pts',(14.4680997407747,5.00000016391277,5.45794159260624));
#1223=CARTESIAN_POINT('Ctrl Pts',(14.8534166434862,5.00000016391277,6.38895329084595));
#1224=CARTESIAN_POINT('Ctrl Pts',(15.0402278631594,5.00000016391277,6.75873522138345));
#1225=CARTESIAN_POINT('Ctrl Pts',(15.2500003278255,5.00000016391277,7.12113421585942));
#1226=CARTESIAN_POINT('Origin',(54.25,5.00000016391277,10.0000001043081));
#1227=CARTESIAN_POINT('',(14.142135565779,5.00000016391277,3.));
#1228=CARTESIAN_POINT('Origin',(54.25,5.00000016391277,10.0000001043081));
#1229=CARTESIAN_POINT('',(45.,5.00000016391277,-30.9999999478459));
#1230=CARTESIAN_POINT('Origin',(0.,0.,3.));
#1231=CARTESIAN_POINT('',(14.1421356816829,-4.99999983608723,3.));
#1232=CARTESIAN_POINT('Origin',(54.25,-4.99999983608723,10.0000001043081));
#1233=CARTESIAN_POINT('Ctrl Pts',(-0.112055411366528,20.6496959683377,-60.0271203856299));
#1234=CARTESIAN_POINT('Ctrl Pts',(20.5376405569712,20.7617513797042,-60.0271203856299));
#1235=CARTESIAN_POINT('Ctrl Pts',(20.6496959683377,0.112055411366527,-60.0271203856299));
#1236=CARTESIAN_POINT('Ctrl Pts',(20.7617513797042,-20.5376405569712,-60.0271203856299));
#1237=CARTESIAN_POINT('Ctrl Pts',(0.112055411366528,-20.6496959683377,-60.0271203856299));
#1238=CARTESIAN_POINT('Ctrl Pts',(-20.5376405569712,-20.7617513797043,-60.0271203856299));
#1239=CARTESIAN_POINT('Ctrl Pts',(-20.6496959683377,-0.11205541136653,-60.0271203856299));
#1240=CARTESIAN_POINT('Ctrl Pts',(-20.7617513797042,20.5376405569712,-60.0271203856299));
#1241=CARTESIAN_POINT('Ctrl Pts',(-0.112055411366528,20.6496959683377,-60.0271203856299));
#1242=CARTESIAN_POINT('Ctrl Pts',(-0.151939540835971,27.9995877536783,-56.0597267998602));
#1243=CARTESIAN_POINT('Ctrl Pts',(27.8476482128423,28.1515272945142,-56.0597267998602));
#1244=CARTESIAN_POINT('Ctrl Pts',(27.9995877536783,0.151939540835969,-56.0597267998602));
#1245=CARTESIAN_POINT('Ctrl Pts',(28.1515272945142,-27.8476482128423,-56.0597267998602));
#1246=CARTESIAN_POINT('Ctrl Pts',(0.151939540835971,-27.9995877536783,-56.0597267998602));
#1247=CARTESIAN_POINT('Ctrl Pts',(-27.8476482128423,-28.1515272945142,-56.0597267998602));
#1248=CARTESIAN_POINT('Ctrl Pts',(-27.9995877536783,-0.151939540835972,
-56.0597267998602));
#1249=CARTESIAN_POINT('Ctrl Pts',(-28.1515272945142,27.8476482128423,-56.0597267998602));
#1250=CARTESIAN_POINT('Ctrl Pts',(-0.151939540835971,27.9995877536783,-56.0597267998602));
#1251=CARTESIAN_POINT('Ctrl Pts',(-0.151939540835971,27.9995877536783,-47.7073192508713));
#1252=CARTESIAN_POINT('Ctrl Pts',(27.8476482128423,28.1515272945142,-47.7073192508713));
#1253=CARTESIAN_POINT('Ctrl Pts',(27.9995877536783,0.151939540835969,-47.7073192508713));
#1254=CARTESIAN_POINT('Ctrl Pts',(28.1515272945142,-27.8476482128423,-47.7073192508713));
#1255=CARTESIAN_POINT('Ctrl Pts',(0.151939540835971,-27.9995877536783,-47.7073192508713));
#1256=CARTESIAN_POINT('Ctrl Pts',(-27.8476482128423,-28.1515272945142,-47.7073192508713));
#1257=CARTESIAN_POINT('Ctrl Pts',(-27.9995877536783,-0.151939540835972,
-47.7073192508713));
#1258=CARTESIAN_POINT('Ctrl Pts',(-28.1515272945142,27.8476482128423,-47.7073192508713));
#1259=CARTESIAN_POINT('Ctrl Pts',(-0.151939540835971,27.9995877536783,-47.7073192508713));
#1260=CARTESIAN_POINT('',(-0.151939540835967,27.9995877536783,-47.7073192508713));
#1261=CARTESIAN_POINT('',(-3.42901103761259E-15,-28.,-47.7073192508713));
#1262=CARTESIAN_POINT('Origin',(0.,-1.36436014138178E-15,-47.7073192508713));
#1263=CARTESIAN_POINT('Origin',(0.,-1.36436014138178E-15,-47.7073192508713));
#1264=CARTESIAN_POINT('',(-0.112055411366526,20.6496959683377,-60.0271203856299));
#1265=CARTESIAN_POINT('Origin',(-0.0759697704179837,13.9997938768391,-47.7073192508713));
#1266=CARTESIAN_POINT('',(20.65,1.1645354988575E-15,-60.0271203856299));
#1267=CARTESIAN_POINT('Origin',(0.,-1.36436014138178E-15,-60.0271203856299));
#1268=CARTESIAN_POINT('Origin',(0.,-1.36436014138178E-15,-60.0271203856299));
#1269=CARTESIAN_POINT('Origin',(0.,0.,-20.));
#1270=CARTESIAN_POINT('',(-1.59307487548792E-15,-28.,-23.2679810523987));
#1271=CARTESIAN_POINT('',(-3.42901103761259E-15,-28.,-20.));
#1272=CARTESIAN_POINT('',(-1.29817188457186E-15,-28.,-19.7679810523987));
#1273=CARTESIAN_POINT('Ctrl Pts',(9.0205620750794E-16,-28.,-19.7679810523987));
#1274=CARTESIAN_POINT('Ctrl Pts',(-0.219795302516465,-28.,-19.7679810523987));
#1275=CARTESIAN_POINT('Ctrl Pts',(-0.454202009092249,-27.9971462665709,
-19.8119189175486));
#1276=CARTESIAN_POINT('Ctrl Pts',(-0.885348995099975,-27.9868300401115,
-19.9905306842317));
#1277=CARTESIAN_POINT('Ctrl Pts',(-1.08209409900965,-27.9795148449773,-20.1252014172554));
#1278=CARTESIAN_POINT('Ctrl Pts',(-1.39277971536436,-27.9657709224841,-20.4358870336101));
#1279=CARTESIAN_POINT('Ctrl Pts',(-1.52745038716401,-27.9584494835498,-20.6326321015339));
#1280=CARTESIAN_POINT('Ctrl Pts',(-1.70606210421155,-27.9481189764095,-21.0637789709701));
#1281=CARTESIAN_POINT('Ctrl Pts',(-1.75,-27.9452589896748,-21.298185636377));
#1282=CARTESIAN_POINT('Ctrl Pts',(-1.75,-27.9452589896748,-21.7377764684204));
#1283=CARTESIAN_POINT('Ctrl Pts',(-1.70606210421155,-27.9481189764095,-21.9721831338273));
#1284=CARTESIAN_POINT('Ctrl Pts',(-1.52745038716402,-27.9584494835498,-22.4033300032635));
#1285=CARTESIAN_POINT('Ctrl Pts',(-1.39277971536436,-27.9657709224841,-22.6000750711872));
#1286=CARTESIAN_POINT('Ctrl Pts',(-1.08209409900965,-27.9795148449773,-22.910760687542));
#1287=CARTESIAN_POINT('Ctrl Pts',(-0.885348995099977,-27.9868300401115,
-23.0454314205657));
#1288=CARTESIAN_POINT('Ctrl Pts',(-0.454202009092251,-27.9971462665709,
-23.2240431872488));
#1289=CARTESIAN_POINT('Ctrl Pts',(-0.219795302516466,-28.,-23.2679810523987));
#1290=CARTESIAN_POINT('Ctrl Pts',(3.46944695195361E-16,-28.,-23.2679810523987));
#1291=CARTESIAN_POINT('',(3.42901103761259E-15,-28.,-8.));
#1292=CARTESIAN_POINT('',(-3.42901103761259E-15,-28.,-20.));
#1293=CARTESIAN_POINT('',(28.,-3.42901103761259E-15,-8.));
#1294=CARTESIAN_POINT('Origin',(0.,0.,-8.));
#1295=CARTESIAN_POINT('Origin',(0.,0.,-8.));
#1296=CARTESIAN_POINT('',(1.75,-27.9452589896748,-21.5179810523987));
#1297=CARTESIAN_POINT('Ctrl Pts',(1.75,-27.9452589896748,-21.5179810523987));
#1298=CARTESIAN_POINT('Ctrl Pts',(1.75,-27.9452589896748,-21.298185636377));
#1299=CARTESIAN_POINT('Ctrl Pts',(1.70606210421156,-27.9481189764095,-21.0637789709701));
#1300=CARTESIAN_POINT('Ctrl Pts',(1.52745038716402,-27.9584494835498,-20.6326321015339));
#1301=CARTESIAN_POINT('Ctrl Pts',(1.39277971536436,-27.9657709224841,-20.4358870336101));
#1302=CARTESIAN_POINT('Ctrl Pts',(1.08209409900965,-27.9795148449773,-20.1252014172554));
#1303=CARTESIAN_POINT('Ctrl Pts',(0.885348995099977,-27.9868300401115,-19.9905306842317));
#1304=CARTESIAN_POINT('Ctrl Pts',(0.454202009092251,-27.9971462665709,-19.8119189175486));
#1305=CARTESIAN_POINT('Ctrl Pts',(0.219795302516468,-28.,-19.7679810523987));
#1306=CARTESIAN_POINT('Ctrl Pts',(1.38777878078145E-15,-28.,-19.7679810523987));
#1307=CARTESIAN_POINT('Ctrl Pts',(2.77555756156289E-16,-28.,-23.2679810523987));
#1308=CARTESIAN_POINT('Ctrl Pts',(0.219795302516466,-28.,-23.2679810523987));
#1309=CARTESIAN_POINT('Ctrl Pts',(0.45420200909225,-27.9971462665709,-23.2240431872488));
#1310=CARTESIAN_POINT('Ctrl Pts',(0.885348995099976,-27.9868300401115,-23.0454314205657));
#1311=CARTESIAN_POINT('Ctrl Pts',(1.08209409900965,-27.9795148449773,-22.910760687542));
#1312=CARTESIAN_POINT('Ctrl Pts',(1.39277971536436,-27.9657709224841,-22.6000750711873));
#1313=CARTESIAN_POINT('Ctrl Pts',(1.52745038716401,-27.9584494835498,-22.4033300032635));
#1314=CARTESIAN_POINT('Ctrl Pts',(1.70606210421156,-27.9481189764095,-21.9721831338273));
#1315=CARTESIAN_POINT('Ctrl Pts',(1.75,-27.9452589896748,-21.7377764684204));
#1316=CARTESIAN_POINT('Ctrl Pts',(1.75,-27.9452589896748,-21.5179810523987));
#1317=CARTESIAN_POINT('Origin',(0.,0.,-8.));
#1318=CARTESIAN_POINT('',(33.,-4.04133443718627E-15,-3.));
#1319=CARTESIAN_POINT('Origin',(0.,0.,-3.));
#1320=CARTESIAN_POINT('Origin',(33.,-4.04133443718627E-15,-8.));
#1321=CARTESIAN_POINT('Origin',(0.,0.,-3.));
#1322=CARTESIAN_POINT('',(40.,-35.,-3.));
#1323=CARTESIAN_POINT('',(40.,35.,-3.));
#1324=CARTESIAN_POINT('',(40.,0.,-3.));
#1325=CARTESIAN_POINT('',(35.,-40.,-3.));
#1326=CARTESIAN_POINT('Origin',(35.,-35.,-3.));
#1327=CARTESIAN_POINT('',(-35.,-40.,-3.));
#1328=CARTESIAN_POINT('',(0.,-40.,-3.));
#1329=CARTESIAN_POINT('',(-40.,-35.,-3.));
#1330=CARTESIAN_POINT('Origin',(-35.,-35.,-3.));
#1331=CARTESIAN_POINT('',(-40.,35.,-3.));
#1332=CARTESIAN_POINT('',(-40.,0.,-3.));
#1333=CARTESIAN_POINT('',(-35.,40.,-3.));
#1334=CARTESIAN_POINT('Origin',(-35.,35.,-3.));
#1335=CARTESIAN_POINT('',(35.,40.,-3.));
#1336=CARTESIAN_POINT('',(0.,40.,-3.));
#1337=CARTESIAN_POINT('Origin',(35.,35.,-3.));
#1338=CARTESIAN_POINT('Ctrl Pts',(35.,-40.,-3.));
#1339=CARTESIAN_POINT('Ctrl Pts',(40.,-40.,-3.));
#1340=CARTESIAN_POINT('Ctrl Pts',(40.,-35.,-3.));
#1341=CARTESIAN_POINT('Ctrl Pts',(35.,-45.,-3.));
#1342=CARTESIAN_POINT('Ctrl Pts',(45.,-45.,-3.));
#1343=CARTESIAN_POINT('Ctrl Pts',(45.,-35.,-3.));
#1344=CARTESIAN_POINT('Ctrl Pts',(35.,-45.,2.));
#1345=CARTESIAN_POINT('Ctrl Pts',(45.,-45.,2.));
#1346=CARTESIAN_POINT('Ctrl Pts',(45.,-35.,2.));
#1347=CARTESIAN_POINT('',(35.,-45.,2.));
#1348=CARTESIAN_POINT('Origin',(35.,-40.,2.));
#1349=CARTESIAN_POINT('',(45.,-35.,2.));
#1350=CARTESIAN_POINT('Origin',(40.,-35.,2.));
#1351=CARTESIAN_POINT('Origin',(35.,-35.,2.));
#1352=CARTESIAN_POINT('Origin',(40.,0.,2.));
#1353=CARTESIAN_POINT('',(45.,35.,2.));
#1354=CARTESIAN_POINT('',(45.,0.,2.));
#1355=CARTESIAN_POINT('Origin',(40.,35.,2.));
#1356=CARTESIAN_POINT('Ctrl Pts',(40.,35.,-3.));
#1357=CARTESIAN_POINT('Ctrl Pts',(40.,40.,-3.));
#1358=CARTESIAN_POINT('Ctrl Pts',(35.,40.,-3.));
#1359=CARTESIAN_POINT('Ctrl Pts',(45.,35.,-3.));
#1360=CARTESIAN_POINT('Ctrl Pts',(45.,45.,-3.));
#1361=CARTESIAN_POINT('Ctrl Pts',(35.,45.,-3.));
#1362=CARTESIAN_POINT('Ctrl Pts',(45.,35.,2.));
#1363=CARTESIAN_POINT('Ctrl Pts',(45.,45.,2.));
#1364=CARTESIAN_POINT('Ctrl Pts',(35.,45.,2.));
#1365=CARTESIAN_POINT('',(35.,45.,2.));
#1366=CARTESIAN_POINT('Origin',(35.,40.,2.));
#1367=CARTESIAN_POINT('Origin',(35.,35.,2.));
#1368=CARTESIAN_POINT('Origin',(0.,40.,2.));
#1369=CARTESIAN_POINT('',(-35.,45.,2.));
#1370=CARTESIAN_POINT('Origin',(-35.,40.,2.));
#1371=CARTESIAN_POINT('',(0.,45.,2.));
#1372=CARTESIAN_POINT('Ctrl Pts',(-35.,40.,-3.));
#1373=CARTESIAN_POINT('Ctrl Pts',(-40.,40.,-3.));
#1374=CARTESIAN_POINT('Ctrl Pts',(-40.,35.,-3.));
#1375=CARTESIAN_POINT('Ctrl Pts',(-35.,45.,-3.));
#1376=CARTESIAN_POINT('Ctrl Pts',(-45.,45.,-3.));
#1377=CARTESIAN_POINT('Ctrl Pts',(-45.,35.,-3.));
#1378=CARTESIAN_POINT('Ctrl Pts',(-35.,45.,2.));
#1379=CARTESIAN_POINT('Ctrl Pts',(-45.,45.,2.));
#1380=CARTESIAN_POINT('Ctrl Pts',(-45.,35.,2.));
#1381=CARTESIAN_POINT('',(-45.,35.,2.));
#1382=CARTESIAN_POINT('Origin',(-40.,35.,2.));
#1383=CARTESIAN_POINT('Origin',(-35.,35.,2.));
#1384=CARTESIAN_POINT('Origin',(-40.,0.,2.));
#1385=CARTESIAN_POINT('',(-45.,-35.,2.));
#1386=CARTESIAN_POINT('Origin',(-40.,-35.,2.));
#1387=CARTESIAN_POINT('',(-45.,0.,2.));
#1388=CARTESIAN_POINT('Ctrl Pts',(-40.,-35.,-3.));
#1389=CARTESIAN_POINT('Ctrl Pts',(-40.,-40.,-3.));
#1390=CARTESIAN_POINT('Ctrl Pts',(-35.,-40.,-3.));
#1391=CARTESIAN_POINT('Ctrl Pts',(-45.,-35.,-3.));
#1392=CARTESIAN_POINT('Ctrl Pts',(-45.,-45.,-3.));
#1393=CARTESIAN_POINT('Ctrl Pts',(-35.,-45.,-3.));
#1394=CARTESIAN_POINT('Ctrl Pts',(-45.,-35.,2.));
#1395=CARTESIAN_POINT('Ctrl Pts',(-45.,-45.,2.));
#1396=CARTESIAN_POINT('Ctrl Pts',(-35.,-45.,2.));
#1397=CARTESIAN_POINT('',(-35.,-45.,2.));
#1398=CARTESIAN_POINT('Origin',(-35.,-40.,2.));
#1399=CARTESIAN_POINT('Origin',(-35.,-35.,2.));
#1400=CARTESIAN_POINT('Origin',(0.,-40.,2.));
#1401=CARTESIAN_POINT('',(0.,-45.,2.));
#1402=CARTESIAN_POINT('Origin',(-35.,35.,-72.));
#1403=CARTESIAN_POINT('',(-45.,35.,-72.));
#1404=CARTESIAN_POINT('',(-35.,45.,-72.));
#1405=CARTESIAN_POINT('Origin',(-45.,0.,-72.));
#1406=CARTESIAN_POINT('',(-45.,-35.,-72.));
#1407=CARTESIAN_POINT('Origin',(-35.,-35.,-72.));
#1408=CARTESIAN_POINT('',(-35.,-45.,-72.));
#1409=CARTESIAN_POINT('Origin',(0.,-45.,-72.));
#1410=CARTESIAN_POINT('',(35.,-45.,-72.));
#1411=CARTESIAN_POINT('Origin',(35.,-35.,-72.));
#1412=CARTESIAN_POINT('',(45.,-35.,-72.));
#1413=CARTESIAN_POINT('Origin',(45.,0.,-72.));
#1414=CARTESIAN_POINT('',(45.,35.,-72.));
#1415=CARTESIAN_POINT('Origin',(35.,35.,-72.));
#1416=CARTESIAN_POINT('',(35.,45.,-72.));
#1417=CARTESIAN_POINT('Origin',(0.,45.,-72.));
#1418=CARTESIAN_POINT('Origin',(1.22464679914735E-15,-25.,-21.5179810523987));
#1419=CARTESIAN_POINT('',(1.85320241130202E-15,-20.65,-19.7679810523987));
#1420=CARTESIAN_POINT('',(1.43895998899814E-15,-25.,-19.7679810523987));
#1421=CARTESIAN_POINT('',(-1.75,-20.5757138393787,-21.5179810523987));
#1422=CARTESIAN_POINT('Ctrl Pts',(-1.75,-20.5757138393787,-21.5179810523987));
#1423=CARTESIAN_POINT('Ctrl Pts',(-1.75,-20.5757138393787,-21.7378283138128));
#1424=CARTESIAN_POINT('Ctrl Pts',(-1.70604187304228,-20.5796002683796,-21.9722571688557));
#1425=CARTESIAN_POINT('Ctrl Pts',(-1.52741522781883,-20.5936283538318,-22.4033896663506));
#1426=CARTESIAN_POINT('Ctrl Pts',(-1.39275248536309,-20.6035664483502,-22.6001023011885));
#1427=CARTESIAN_POINT('Ctrl Pts',(-1.08212152074467,-20.6222143041582,-22.9107332658069));
#1428=CARTESIAN_POINT('Ctrl Pts',(-0.885408765866403,-20.6321368054296,
-23.0453962193649));
#1429=CARTESIAN_POINT('Ctrl Pts',(-0.454275870063593,-20.6461292080097,
-23.2240230254381));
#1430=CARTESIAN_POINT('Ctrl Pts',(-0.219846876465556,-20.65,-23.2679810523987));
#1431=CARTESIAN_POINT('Ctrl Pts',(0.21984687646556,-20.65,-23.2679810523987));
#1432=CARTESIAN_POINT('Ctrl Pts',(0.454275870063596,-20.6461292080097,-23.2240230254381));
#1433=CARTESIAN_POINT('Ctrl Pts',(0.885408765866406,-20.6321368054296,-23.0453962193649));
#1434=CARTESIAN_POINT('Ctrl Pts',(1.08212152074467,-20.6222143041582,-22.9107332658069));
#1435=CARTESIAN_POINT('Ctrl Pts',(1.39275248536309,-20.6035664483502,-22.6001023011885));
#1436=CARTESIAN_POINT('Ctrl Pts',(1.52741522781884,-20.5936283538318,-22.4033896663506));
#1437=CARTESIAN_POINT('Ctrl Pts',(1.70604187304228,-20.5796002683796,-21.9722571688557));
#1438=CARTESIAN_POINT('Ctrl Pts',(1.75,-20.5757138393787,-21.7378283138128));
#1439=CARTESIAN_POINT('Ctrl Pts',(1.75,-20.5757138393787,-21.2981337909845));
#1440=CARTESIAN_POINT('Ctrl Pts',(1.70604187304228,-20.5796002683796,-21.0637049359416));
#1441=CARTESIAN_POINT('Ctrl Pts',(1.52741522781884,-20.5936283538318,-20.6325724384468));
#1442=CARTESIAN_POINT('Ctrl Pts',(1.39275248536309,-20.6035664483502,-20.4358598036089));
#1443=CARTESIAN_POINT('Ctrl Pts',(1.08212152074467,-20.6222143041582,-20.1252288389904));
#1444=CARTESIAN_POINT('Ctrl Pts',(0.885408765866404,-20.6321368054296,-19.9905658854325));
#1445=CARTESIAN_POINT('Ctrl Pts',(0.454275870063595,-20.6461292080097,-19.8119390793593));
#1446=CARTESIAN_POINT('Ctrl Pts',(0.219846876465559,-20.65,-19.7679810523987));
#1447=CARTESIAN_POINT('Ctrl Pts',(2.0122792321331E-15,-20.65,-19.7679810523987));
#1448=CARTESIAN_POINT('Ctrl Pts',(1.87350135405495E-15,-20.65,-19.7679810523987));
#1449=CARTESIAN_POINT('Ctrl Pts',(-0.219846876465555,-20.65,-19.7679810523987));
#1450=CARTESIAN_POINT('Ctrl Pts',(-0.454275870063591,-20.6461292080097,
-19.8119390793593));
#1451=CARTESIAN_POINT('Ctrl Pts',(-0.885408765866401,-20.6321368054296,
-19.9905658854325));
#1452=CARTESIAN_POINT('Ctrl Pts',(-1.08212152074467,-20.6222143041582,-20.1252288389904));
#1453=CARTESIAN_POINT('Ctrl Pts',(-1.39275248536309,-20.6035664483502,-20.4358598036089));
#1454=CARTESIAN_POINT('Ctrl Pts',(-1.52741522781883,-20.5936283538318,-20.6325724384468));
#1455=CARTESIAN_POINT('Ctrl Pts',(-1.70604187304228,-20.5796002683796,-21.0637049359416));
#1456=CARTESIAN_POINT('Ctrl Pts',(-1.75,-20.5757138393787,-21.2981337909845));
#1457=CARTESIAN_POINT('Ctrl Pts',(-1.75,-20.5757138393787,-21.5179810523987));
#1458=CARTESIAN_POINT('Origin',(0.,-1.36436014138178E-15,-20.));
#1459=CARTESIAN_POINT('',(20.65,1.1645354988575E-15,-20.));
#1460=UNCERTAINTY_MEASURE_WITH_UNIT(LENGTH_MEASURE(0.01),#1464,
'DISTANCE_ACCURACY_VALUE',
'Maximum model space distance between geometric entities at asserted c
onnectivities');
#1461=UNCERTAINTY_MEASURE_WITH_UNIT(LENGTH_MEASURE(0.01),#1464,
'DISTANCE_ACCURACY_VALUE',
'Maximum model space distance between geometric entities at asserted c
onnectivities');
#1462=(
GEOMETRIC_REPRESENTATION_CONTEXT(3)
GLOBAL_UNCERTAINTY_ASSIGNED_CONTEXT((#1460))
GLOBAL_UNIT_ASSIGNED_CONTEXT((#1464,#1466,#1467))
REPRESENTATION_CONTEXT('','3D')
);
#1463=(
GEOMETRIC_REPRESENTATION_CONTEXT(3)
GLOBAL_UNCERTAINTY_ASSIGNED_CONTEXT((#1461))
GLOBAL_UNIT_ASSIGNED_CONTEXT((#1464,#1466,#1467))
REPRESENTATION_CONTEXT('','3D')
);
#1464=(
LENGTH_UNIT()
NAMED_UNIT(*)
SI_UNIT(.MILLI.,.METRE.)
);
#1465=(
LENGTH_UNIT()
NAMED_UNIT(*)
SI_UNIT($,.METRE.)
);
#1466=(
NAMED_UNIT(*)
PLANE_ANGLE_UNIT()
SI_UNIT($,.RADIAN.)
);
#1467=(
NAMED_UNIT(*)
SI_UNIT($,.STERADIAN.)
SOLID_ANGLE_UNIT()
);
#1468=SHAPE_DEFINITION_REPRESENTATION(#1469,#1470);
#1469=PRODUCT_DEFINITION_SHAPE('',$,#1472);
#1470=SHAPE_REPRESENTATION('',(#682),#1462);
#1471=PRODUCT_DEFINITION_CONTEXT('part definition',#1476,'design');
#1472=PRODUCT_DEFINITION('DUT-STOOL V1.0','DUT-STOOL V1.0 v37',#1473,#1471);
#1473=PRODUCT_DEFINITION_FORMATION('',$,#1478);
#1474=PRODUCT_RELATED_PRODUCT_CATEGORY('DUT-STOOL V1.0 v37',
'DUT-STOOL V1.0 v37',(#1478));
#1475=APPLICATION_PROTOCOL_DEFINITION('international standard',
'automotive_design',2009,#1476);
#1476=APPLICATION_CONTEXT(
'Core Data for Automotive Mechanical Design Process');
#1477=PRODUCT_CONTEXT('part definition',#1476,'mechanical');
#1478=PRODUCT('DUT-STOOL V1.0','DUT-STOOL V1.0 v37',$,(#1477));
#1479=PRESENTATION_STYLE_ASSIGNMENT((#1481));
#1480=PRESENTATION_STYLE_ASSIGNMENT((#1482));
#1481=SURFACE_STYLE_USAGE(.BOTH.,#1483);
#1482=SURFACE_STYLE_USAGE(.BOTH.,#1484);
#1483=SURFACE_SIDE_STYLE('',(#1485));
#1484=SURFACE_SIDE_STYLE('',(#1486));
#1485=SURFACE_STYLE_FILL_AREA(#1487);
#1486=SURFACE_STYLE_FILL_AREA(#1488);
#1487=FILL_AREA_STYLE('Steel - Satin',(#1489));
#1488=FILL_AREA_STYLE('Plastic - Translucent Matte (Red)',(#1490));
#1489=FILL_AREA_STYLE_COLOUR('Steel - Satin',#1491);
#1490=FILL_AREA_STYLE_COLOUR('Plastic - Translucent Matte (Red)',#1492);
#1491=COLOUR_RGB('Steel - Satin',0.627450980392157,0.627450980392157,0.627450980392157);
#1492=COLOUR_RGB('Plastic - Translucent Matte (Red)',0.768627450980392,
0.207843137254902,0.152941176470588);
ENDSEC;
END-ISO-10303-21;
