ISO-10303-21;
HEADER;
/* Generated by software containing ST-Developer
 * from STEP Tools, Inc. (www.steptools.com) 
 */

FILE_DESCRIPTION(
/* description */ (''),
/* implementation_level */ '2;1');

FILE_NAME(
/* name */ 'DUT-STOOL-Calib-Part1-V1.0.step',
/* time_stamp */ '2026-04-06T13:15:57+02:00',
/* author */ (''),
/* organization */ (''),
/* preprocessor_version */ 'ST-DEVELOPER v20.1',
/* originating_system */ 'Autodesk Translation Framework v14.24.0.0',
/* authorisation */ '');

FILE_SCHEMA (('AUTOMOTIVE_DESIGN { 1 0 10303 214 3 1 1 }'));
ENDSEC;

DATA;
#10=MECHANICAL_DESIGN_GEOMETRIC_PRESENTATION_REPRESENTATION('',(#17,#18),
#186);
#11=SHAPE_REPRESENTATION_RELATIONSHIP('SRR','None',#193,#12);
#12=ADVANCED_BREP_SHAPE_REPRESENTATION('',(#13),#185);
#13=MANIFOLD_SOLID_BREP('CALIB-TOOL-P1',#106);
#14=CYLINDRICAL_SURFACE('',#125,15.);
#15=CIRCLE('',#124,15.);
#16=CIRCLE('',#126,15.);
#17=STYLED_ITEM('',(#203),#103);
#18=STYLED_ITEM('',(#202),#13);
#19=FACE_OUTER_BOUND('',#25,.T.);
#20=FACE_OUTER_BOUND('',#26,.T.);
#21=FACE_OUTER_BOUND('',#27,.T.);
#22=FACE_OUTER_BOUND('',#28,.T.);
#23=FACE_OUTER_BOUND('',#29,.T.);
#24=FACE_OUTER_BOUND('',#30,.T.);
#25=EDGE_LOOP('',(#71,#72,#73,#74));
#26=EDGE_LOOP('',(#75,#76,#77,#78));
#27=EDGE_LOOP('',(#79,#80,#81,#82));
#28=EDGE_LOOP('',(#83,#84,#85,#86));
#29=EDGE_LOOP('',(#87,#88,#89,#90));
#30=EDGE_LOOP('',(#91,#92,#93,#94));
#31=LINE('',#160,#41);
#32=LINE('',#162,#42);
#33=LINE('',#164,#43);
#34=LINE('',#165,#44);
#35=LINE('',#169,#45);
#36=LINE('',#170,#46);
#37=LINE('',#171,#47);
#38=LINE('',#175,#48);
#39=LINE('',#176,#49);
#40=LINE('',#177,#50);
#41=VECTOR('',#132,10.);
#42=VECTOR('',#133,10.);
#43=VECTOR('',#134,10.);
#44=VECTOR('',#135,10.);
#45=VECTOR('',#138,10.);
#46=VECTOR('',#139,10.);
#47=VECTOR('',#140,10.);
#48=VECTOR('',#143,10.);
#49=VECTOR('',#144,10.);
#50=VECTOR('',#145,10.);
#51=VERTEX_POINT('',#158);
#52=VERTEX_POINT('',#159);
#53=VERTEX_POINT('',#161);
#54=VERTEX_POINT('',#163);
#55=VERTEX_POINT('',#167);
#56=VERTEX_POINT('',#168);
#57=VERTEX_POINT('',#173);
#58=VERTEX_POINT('',#174);
#59=EDGE_CURVE('',#51,#52,#31,.F.);
#60=EDGE_CURVE('',#53,#51,#32,.T.);
#61=EDGE_CURVE('',#53,#54,#33,.T.);
#62=EDGE_CURVE('',#52,#54,#34,.T.);
#63=EDGE_CURVE('',#55,#56,#35,.F.);
#64=EDGE_CURVE('',#54,#56,#36,.T.);
#65=EDGE_CURVE('',#55,#53,#37,.F.);
#66=EDGE_CURVE('',#57,#58,#38,.F.);
#67=EDGE_CURVE('',#56,#57,#39,.T.);
#68=EDGE_CURVE('',#58,#55,#40,.T.);
#69=EDGE_CURVE('',#57,#52,#15,.T.);
#70=EDGE_CURVE('',#51,#58,#16,.T.);
#71=ORIENTED_EDGE('',*,*,#59,.F.);
#72=ORIENTED_EDGE('',*,*,#60,.F.);
#73=ORIENTED_EDGE('',*,*,#61,.T.);
#74=ORIENTED_EDGE('',*,*,#62,.F.);
#75=ORIENTED_EDGE('',*,*,#63,.T.);
#76=ORIENTED_EDGE('',*,*,#64,.F.);
#77=ORIENTED_EDGE('',*,*,#61,.F.);
#78=ORIENTED_EDGE('',*,*,#65,.F.);
#79=ORIENTED_EDGE('',*,*,#66,.F.);
#80=ORIENTED_EDGE('',*,*,#67,.F.);
#81=ORIENTED_EDGE('',*,*,#63,.F.);
#82=ORIENTED_EDGE('',*,*,#68,.F.);
#83=ORIENTED_EDGE('',*,*,#69,.T.);
#84=ORIENTED_EDGE('',*,*,#62,.T.);
#85=ORIENTED_EDGE('',*,*,#64,.T.);
#86=ORIENTED_EDGE('',*,*,#67,.T.);
#87=ORIENTED_EDGE('',*,*,#59,.T.);
#88=ORIENTED_EDGE('',*,*,#69,.F.);
#89=ORIENTED_EDGE('',*,*,#66,.T.);
#90=ORIENTED_EDGE('',*,*,#70,.F.);
#91=ORIENTED_EDGE('',*,*,#70,.T.);
#92=ORIENTED_EDGE('',*,*,#68,.T.);
#93=ORIENTED_EDGE('',*,*,#65,.T.);
#94=ORIENTED_EDGE('',*,*,#60,.T.);
#95=PLANE('',#120);
#96=PLANE('',#121);
#97=PLANE('',#122);
#98=PLANE('',#123);
#99=PLANE('',#127);
#100=ADVANCED_FACE('',(#19),#95,.F.);
#101=ADVANCED_FACE('',(#20),#96,.F.);
#102=ADVANCED_FACE('',(#21),#97,.F.);
#103=ADVANCED_FACE('',(#22),#98,.T.);
#104=ADVANCED_FACE('',(#23),#14,.T.);
#105=ADVANCED_FACE('',(#24),#99,.T.);
#106=CLOSED_SHELL('',(#100,#101,#102,#103,#104,#105));
#107=DERIVED_UNIT_ELEMENT(#109,1.);
#108=DERIVED_UNIT_ELEMENT(#188,-3.);
#109=(
MASS_UNIT()
NAMED_UNIT(*)
SI_UNIT(.KILO.,.GRAM.)
);
#110=DERIVED_UNIT((#107,#108));
#111=MEASURE_REPRESENTATION_ITEM('density measure',
POSITIVE_RATIO_MEASURE(7850.),#110);
#112=PROPERTY_DEFINITION_REPRESENTATION(#117,#114);
#113=PROPERTY_DEFINITION_REPRESENTATION(#118,#115);
#114=REPRESENTATION('material name',(#116),#185);
#115=REPRESENTATION('density',(#111),#185);
#116=DESCRIPTIVE_REPRESENTATION_ITEM('Steel','Steel');
#117=PROPERTY_DEFINITION('material property','material name',#195);
#118=PROPERTY_DEFINITION('material property','density of part',#195);
#119=AXIS2_PLACEMENT_3D('',#156,#128,#129);
#120=AXIS2_PLACEMENT_3D('',#157,#130,#131);
#121=AXIS2_PLACEMENT_3D('',#166,#136,#137);
#122=AXIS2_PLACEMENT_3D('',#172,#141,#142);
#123=AXIS2_PLACEMENT_3D('',#178,#146,#147);
#124=AXIS2_PLACEMENT_3D('',#179,#148,#149);
#125=AXIS2_PLACEMENT_3D('',#180,#150,#151);
#126=AXIS2_PLACEMENT_3D('',#181,#152,#153);
#127=AXIS2_PLACEMENT_3D('',#182,#154,#155);
#128=DIRECTION('axis',(0.,0.,1.));
#129=DIRECTION('refdir',(1.,0.,0.));
#130=DIRECTION('center_axis',(0.,1.,0.));
#131=DIRECTION('ref_axis',(0.,0.,1.));
#132=DIRECTION('',(0.,0.,-1.));
#133=DIRECTION('',(-1.,0.,0.));
#134=DIRECTION('',(0.,0.,1.));
#135=DIRECTION('',(1.,0.,0.));
#136=DIRECTION('center_axis',(-1.,0.,0.));
#137=DIRECTION('ref_axis',(0.,0.,1.));
#138=DIRECTION('',(0.,0.,-1.));
#139=DIRECTION('',(0.,1.,0.));
#140=DIRECTION('',(0.,1.,0.));
#141=DIRECTION('center_axis',(0.,-1.,0.));
#142=DIRECTION('ref_axis',(0.,0.,-1.));
#143=DIRECTION('',(0.,0.,1.));
#144=DIRECTION('',(-1.,0.,0.));
#145=DIRECTION('',(1.,0.,0.));
#146=DIRECTION('center_axis',(0.,0.,1.));
#147=DIRECTION('ref_axis',(0.,-1.,0.));
#148=DIRECTION('center_axis',(0.,0.,1.));
#149=DIRECTION('ref_axis',(0.,1.,0.));
#150=DIRECTION('center_axis',(0.,0.,-1.));
#151=DIRECTION('ref_axis',(-1.,-5.79519206562691E-9,0.));
#152=DIRECTION('center_axis',(0.,0.,-1.));
#153=DIRECTION('ref_axis',(0.,1.,0.));
#154=DIRECTION('center_axis',(0.,0.,-1.));
#155=DIRECTION('ref_axis',(0.,1.,0.));
#156=CARTESIAN_POINT('',(0.,0.,0.));
#157=CARTESIAN_POINT('Origin',(14.7500001788139,-4.99999991804361,12.5));
#158=CARTESIAN_POINT('',(14.1421356527069,-4.99999991804362,11.8));
#159=CARTESIAN_POINT('',(14.1421356527069,-4.99999991804362,13.));
#160=CARTESIAN_POINT('',(14.1421356527069,-4.99999991804361,12.5));
#161=CARTESIAN_POINT('',(17.5000001788139,-4.99999991804361,11.8));
#162=CARTESIAN_POINT('',(7.37500008940697,-4.99999991804361,11.8));
#163=CARTESIAN_POINT('',(17.5000001788139,-4.99999991804361,13.));
#164=CARTESIAN_POINT('',(17.5000001788139,-4.99999991804361,12.5));
#165=CARTESIAN_POINT('',(7.37500008940697,-4.99999991804361,13.));
#166=CARTESIAN_POINT('Origin',(17.5000001788139,8.19563861220729E-8,12.5));
#167=CARTESIAN_POINT('',(17.5000001788139,5.00000008195639,11.8));
#168=CARTESIAN_POINT('',(17.5000001788139,5.00000008195639,13.));
#169=CARTESIAN_POINT('',(17.5000001788139,5.00000008195639,12.5));
#170=CARTESIAN_POINT('',(17.5000001788139,8.19563861220729E-8,13.));
#171=CARTESIAN_POINT('',(17.5000001788139,4.09781925059249E-8,11.8));
#172=CARTESIAN_POINT('Origin',(14.7500001788139,5.00000008195639,12.5));
#173=CARTESIAN_POINT('',(14.142135594755,5.00000008195639,13.));
#174=CARTESIAN_POINT('',(14.142135594755,5.00000008195639,11.8));
#175=CARTESIAN_POINT('',(14.142135594755,5.00000008195639,12.5));
#176=CARTESIAN_POINT('',(7.37500008940697,5.00000008195639,13.));
#177=CARTESIAN_POINT('',(7.37500008940697,5.00000008195639,11.8));
#178=CARTESIAN_POINT('Origin',(1.38777878078145E-16,-1.11022302462516E-15,
13.));
#179=CARTESIAN_POINT('Origin',(1.38777878078145E-16,-1.11022302462516E-15,
13.));
#180=CARTESIAN_POINT('Origin',(1.38777878078145E-16,-1.11022302462516E-15,
12.5));
#181=CARTESIAN_POINT('Origin',(1.38777878078145E-16,-1.11022302462516E-15,
11.8));
#182=CARTESIAN_POINT('Origin',(1.38777878078145E-16,-1.11022302462516E-15,
11.8));
#183=UNCERTAINTY_MEASURE_WITH_UNIT(LENGTH_MEASURE(0.01),#187,
'DISTANCE_ACCURACY_VALUE',
'Maximum model space distance between geometric entities at asserted c
onnectivities');
#184=UNCERTAINTY_MEASURE_WITH_UNIT(LENGTH_MEASURE(0.01),#187,
'DISTANCE_ACCURACY_VALUE',
'Maximum model space distance between geometric entities at asserted c
onnectivities');
#185=(
GEOMETRIC_REPRESENTATION_CONTEXT(3)
GLOBAL_UNCERTAINTY_ASSIGNED_CONTEXT((#183))
GLOBAL_UNIT_ASSIGNED_CONTEXT((#187,#189,#190))
REPRESENTATION_CONTEXT('','3D')
);
#186=(
GEOMETRIC_REPRESENTATION_CONTEXT(3)
GLOBAL_UNCERTAINTY_ASSIGNED_CONTEXT((#184))
GLOBAL_UNIT_ASSIGNED_CONTEXT((#187,#189,#190))
REPRESENTATION_CONTEXT('','3D')
);
#187=(
LENGTH_UNIT()
NAMED_UNIT(*)
SI_UNIT(.MILLI.,.METRE.)
);
#188=(
LENGTH_UNIT()
NAMED_UNIT(*)
SI_UNIT($,.METRE.)
);
#189=(
NAMED_UNIT(*)
PLANE_ANGLE_UNIT()
SI_UNIT($,.RADIAN.)
);
#190=(
NAMED_UNIT(*)
SI_UNIT($,.STERADIAN.)
SOLID_ANGLE_UNIT()
);
#191=SHAPE_DEFINITION_REPRESENTATION(#192,#193);
#192=PRODUCT_DEFINITION_SHAPE('',$,#195);
#193=SHAPE_REPRESENTATION('',(#119),#185);
#194=PRODUCT_DEFINITION_CONTEXT('part definition',#199,'design');
#195=PRODUCT_DEFINITION('DUT-STOOL V1.0','DUT-STOOL V1.0 v37',#196,#194);
#196=PRODUCT_DEFINITION_FORMATION('',$,#201);
#197=PRODUCT_RELATED_PRODUCT_CATEGORY('DUT-STOOL V1.0 v37',
'DUT-STOOL V1.0 v37',(#201));
#198=APPLICATION_PROTOCOL_DEFINITION('international standard',
'automotive_design',2009,#199);
#199=APPLICATION_CONTEXT(
'Core Data for Automotive Mechanical Design Process');
#200=PRODUCT_CONTEXT('part definition',#199,'mechanical');
#201=PRODUCT('DUT-STOOL V1.0','DUT-STOOL V1.0 v37',$,(#200));
#202=PRESENTATION_STYLE_ASSIGNMENT((#204));
#203=PRESENTATION_STYLE_ASSIGNMENT((#205));
#204=SURFACE_STYLE_USAGE(.BOTH.,#206);
#205=SURFACE_STYLE_USAGE(.BOTH.,#207);
#206=SURFACE_SIDE_STYLE('',(#208));
#207=SURFACE_SIDE_STYLE('',(#209));
#208=SURFACE_STYLE_FILL_AREA(#210);
#209=SURFACE_STYLE_FILL_AREA(#211);
#210=FILL_AREA_STYLE('Steel - Satin',(#212));
#211=FILL_AREA_STYLE('Plastic - Translucent Matte (Red)',(#213));
#212=FILL_AREA_STYLE_COLOUR('Steel - Satin',#214);
#213=FILL_AREA_STYLE_COLOUR('Plastic - Translucent Matte (Red)',#215);
#214=COLOUR_RGB('Steel - Satin',0.627450980392157,0.627450980392157,0.627450980392157);
#215=COLOUR_RGB('Plastic - Translucent Matte (Red)',0.768627450980392,0.207843137254902,
0.152941176470588);
ENDSEC;
END-ISO-10303-21;
