ISO-10303-21;
HEADER;
/* Generated by software containing ST-Developer
 * from STEP Tools, Inc. (www.steptools.com) 
 */

FILE_DESCRIPTION(
/* description */ (''),
/* implementation_level */ '2;1');

FILE_NAME(
/* name */ 'TripodLeg-Endcaps-WeightBrackets-Mass-Carrier.step',
/* time_stamp */ '2026-04-06T13:26:09+02:00',
/* author */ (''),
/* organization */ (''),
/* preprocessor_version */ 'ST-DEVELOPER v20.1',
/* originating_system */ 'Autodesk Translation Framework v14.24.0.0',
/* authorisation */ '');

FILE_SCHEMA (('AUTOMOTIVE_DESIGN { 1 0 10303 214 3 1 1 }'));
ENDSEC;

DATA;
#10=MECHANICAL_DESIGN_GEOMETRIC_PRESENTATION_REPRESENTATION('',(#13),#591);
#11=SHAPE_REPRESENTATION_RELATIONSHIP('SRR','None',#598,#12);
#12=ADVANCED_BREP_SHAPE_REPRESENTATION('',(#14),#590);
#13=STYLED_ITEM('',(#607),#14);
#14=MANIFOLD_SOLID_BREP('Tile-Carrier-01',#355);
#15=FACE_BOUND('',#56,.T.);
#16=FACE_BOUND('',#60,.T.);
#17=PLANE('',#372);
#18=PLANE('',#376);
#19=PLANE('',#380);
#20=PLANE('',#381);
#21=PLANE('',#385);
#22=PLANE('',#386);
#23=PLANE('',#387);
#24=PLANE('',#388);
#25=PLANE('',#389);
#26=PLANE('',#390);
#27=PLANE('',#391);
#28=PLANE('',#392);
#29=PLANE('',#393);
#30=PLANE('',#394);
#31=FACE_OUTER_BOUND('',#49,.T.);
#32=FACE_OUTER_BOUND('',#50,.T.);
#33=FACE_OUTER_BOUND('',#51,.T.);
#34=FACE_OUTER_BOUND('',#52,.T.);
#35=FACE_OUTER_BOUND('',#53,.T.);
#36=FACE_OUTER_BOUND('',#54,.T.);
#37=FACE_OUTER_BOUND('',#55,.T.);
#38=FACE_OUTER_BOUND('',#57,.T.);
#39=FACE_OUTER_BOUND('',#58,.T.);
#40=FACE_OUTER_BOUND('',#59,.T.);
#41=FACE_OUTER_BOUND('',#61,.T.);
#42=FACE_OUTER_BOUND('',#62,.T.);
#43=FACE_OUTER_BOUND('',#63,.T.);
#44=FACE_OUTER_BOUND('',#64,.T.);
#45=FACE_OUTER_BOUND('',#65,.T.);
#46=FACE_OUTER_BOUND('',#66,.T.);
#47=FACE_OUTER_BOUND('',#67,.T.);
#48=FACE_OUTER_BOUND('',#68,.T.);
#49=EDGE_LOOP('',(#237,#238,#239,#240));
#50=EDGE_LOOP('',(#241,#242,#243,#244));
#51=EDGE_LOOP('',(#245,#246,#247,#248));
#52=EDGE_LOOP('',(#249,#250,#251,#252));
#53=EDGE_LOOP('',(#253,#254,#255,#256));
#54=EDGE_LOOP('',(#257,#258,#259,#260));
#55=EDGE_LOOP('',(#261,#262,#263,#264,#265,#266,#267,#268));
#56=EDGE_LOOP('',(#269,#270,#271,#272,#273,#274));
#57=EDGE_LOOP('',(#275,#276,#277,#278));
#58=EDGE_LOOP('',(#279,#280,#281,#282));
#59=EDGE_LOOP('',(#283,#284,#285,#286,#287,#288,#289,#290));
#60=EDGE_LOOP('',(#291,#292,#293,#294,#295,#296));
#61=EDGE_LOOP('',(#297,#298,#299,#300));
#62=EDGE_LOOP('',(#301,#302,#303,#304));
#63=EDGE_LOOP('',(#305,#306,#307,#308));
#64=EDGE_LOOP('',(#309,#310,#311,#312));
#65=EDGE_LOOP('',(#313,#314,#315,#316,#317,#318));
#66=EDGE_LOOP('',(#319,#320,#321,#322));
#67=EDGE_LOOP('',(#323,#324,#325,#326));
#68=EDGE_LOOP('',(#327,#328,#329,#330,#331,#332));
#69=LINE('',#495,#109);
#70=LINE('',#498,#110);
#71=LINE('',#501,#111);
#72=LINE('',#503,#112);
#73=LINE('',#504,#113);
#74=LINE('',#509,#114);
#75=LINE('',#513,#115);
#76=LINE('',#515,#116);
#77=LINE('',#516,#117);
#78=LINE('',#522,#118);
#79=LINE('',#525,#119);
#80=LINE('',#528,#120);
#81=LINE('',#530,#121);
#82=LINE('',#531,#122);
#83=LINE('',#534,#123);
#84=LINE('',#536,#124);
#85=LINE('',#538,#125);
#86=LINE('',#540,#126);
#87=LINE('',#542,#127);
#88=LINE('',#545,#128);
#89=LINE('',#546,#129);
#90=LINE('',#549,#130);
#91=LINE('',#553,#131);
#92=LINE('',#554,#132);
#93=LINE('',#557,#133);
#94=LINE('',#559,#134);
#95=LINE('',#561,#135);
#96=LINE('',#562,#136);
#97=LINE('',#564,#137);
#98=LINE('',#565,#138);
#99=LINE('',#567,#139);
#100=LINE('',#571,#140);
#101=LINE('',#572,#141);
#102=LINE('',#573,#142);
#103=LINE('',#576,#143);
#104=LINE('',#578,#144);
#105=LINE('',#579,#145);
#106=LINE('',#581,#146);
#107=LINE('',#582,#147);
#108=LINE('',#585,#148);
#109=VECTOR('',#401,10.);
#110=VECTOR('',#404,10.);
#111=VECTOR('',#407,10.);
#112=VECTOR('',#408,10.);
#113=VECTOR('',#409,10.);
#114=VECTOR('',#414,10.);
#115=VECTOR('',#419,10.);
#116=VECTOR('',#420,10.);
#117=VECTOR('',#421,10.);
#118=VECTOR('',#426,10.);
#119=VECTOR('',#429,10.);
#120=VECTOR('',#432,10.);
#121=VECTOR('',#433,10.);
#122=VECTOR('',#434,10.);
#123=VECTOR('',#437,10.);
#124=VECTOR('',#438,10.);
#125=VECTOR('',#439,10.);
#126=VECTOR('',#440,10.);
#127=VECTOR('',#441,10.);
#128=VECTOR('',#444,10.);
#129=VECTOR('',#445,10.);
#130=VECTOR('',#448,10.);
#131=VECTOR('',#453,10.);
#132=VECTOR('',#454,10.);
#133=VECTOR('',#457,10.);
#134=VECTOR('',#458,10.);
#135=VECTOR('',#459,10.);
#136=VECTOR('',#460,10.);
#137=VECTOR('',#461,10.);
#138=VECTOR('',#462,10.);
#139=VECTOR('',#465,10.);
#140=VECTOR('',#468,10.);
#141=VECTOR('',#469,10.);
#142=VECTOR('',#470,10.);
#143=VECTOR('',#473,10.);
#144=VECTOR('',#474,10.);
#145=VECTOR('',#475,10.);
#146=VECTOR('',#478,10.);
#147=VECTOR('',#479,10.);
#148=VECTOR('',#484,10.);
#149=CIRCLE('',#370,20.);
#150=CIRCLE('',#371,20.);
#151=CIRCLE('',#374,20.);
#152=CIRCLE('',#375,20.);
#153=CIRCLE('',#378,40.);
#154=CIRCLE('',#379,40.);
#155=CIRCLE('',#382,40.);
#156=CIRCLE('',#384,40.);
#157=VERTEX_POINT('',#491);
#158=VERTEX_POINT('',#492);
#159=VERTEX_POINT('',#494);
#160=VERTEX_POINT('',#496);
#161=VERTEX_POINT('',#500);
#162=VERTEX_POINT('',#502);
#163=VERTEX_POINT('',#506);
#164=VERTEX_POINT('',#508);
#165=VERTEX_POINT('',#512);
#166=VERTEX_POINT('',#514);
#167=VERTEX_POINT('',#518);
#168=VERTEX_POINT('',#519);
#169=VERTEX_POINT('',#521);
#170=VERTEX_POINT('',#523);
#171=VERTEX_POINT('',#527);
#172=VERTEX_POINT('',#529);
#173=VERTEX_POINT('',#533);
#174=VERTEX_POINT('',#535);
#175=VERTEX_POINT('',#537);
#176=VERTEX_POINT('',#539);
#177=VERTEX_POINT('',#541);
#178=VERTEX_POINT('',#544);
#179=VERTEX_POINT('',#548);
#180=VERTEX_POINT('',#552);
#181=VERTEX_POINT('',#556);
#182=VERTEX_POINT('',#558);
#183=VERTEX_POINT('',#560);
#184=VERTEX_POINT('',#563);
#185=VERTEX_POINT('',#569);
#186=VERTEX_POINT('',#570);
#187=VERTEX_POINT('',#575);
#188=VERTEX_POINT('',#577);
#189=EDGE_CURVE('',#157,#158,#149,.T.);
#190=EDGE_CURVE('',#158,#159,#69,.T.);
#191=EDGE_CURVE('',#159,#160,#150,.T.);
#192=EDGE_CURVE('',#160,#157,#70,.T.);
#193=EDGE_CURVE('',#161,#158,#71,.F.);
#194=EDGE_CURVE('',#162,#161,#72,.T.);
#195=EDGE_CURVE('',#159,#162,#73,.T.);
#196=EDGE_CURVE('',#161,#163,#151,.T.);
#197=EDGE_CURVE('',#163,#164,#74,.T.);
#198=EDGE_CURVE('',#164,#162,#152,.T.);
#199=EDGE_CURVE('',#165,#163,#75,.F.);
#200=EDGE_CURVE('',#165,#166,#76,.T.);
#201=EDGE_CURVE('',#164,#166,#77,.T.);
#202=EDGE_CURVE('',#167,#168,#153,.T.);
#203=EDGE_CURVE('',#168,#169,#78,.T.);
#204=EDGE_CURVE('',#169,#170,#154,.T.);
#205=EDGE_CURVE('',#170,#167,#79,.T.);
#206=EDGE_CURVE('',#171,#168,#80,.F.);
#207=EDGE_CURVE('',#172,#171,#81,.T.);
#208=EDGE_CURVE('',#172,#169,#82,.F.);
#209=EDGE_CURVE('',#173,#167,#83,.T.);
#210=EDGE_CURVE('',#173,#174,#84,.T.);
#211=EDGE_CURVE('',#174,#175,#85,.T.);
#212=EDGE_CURVE('',#175,#176,#86,.T.);
#213=EDGE_CURVE('',#177,#176,#87,.T.);
#214=EDGE_CURVE('',#171,#177,#155,.T.);
#215=EDGE_CURVE('',#178,#160,#88,.T.);
#216=EDGE_CURVE('',#166,#178,#89,.T.);
#217=EDGE_CURVE('',#177,#179,#90,.T.);
#218=EDGE_CURVE('',#179,#172,#156,.T.);
#219=EDGE_CURVE('',#170,#180,#91,.T.);
#220=EDGE_CURVE('',#180,#173,#92,.T.);
#221=EDGE_CURVE('',#181,#179,#93,.T.);
#222=EDGE_CURVE('',#182,#181,#94,.T.);
#223=EDGE_CURVE('',#183,#182,#95,.T.);
#224=EDGE_CURVE('',#183,#180,#96,.T.);
#225=EDGE_CURVE('',#157,#184,#97,.F.);
#226=EDGE_CURVE('',#184,#165,#98,.F.);
#227=EDGE_CURVE('',#176,#181,#99,.T.);
#228=EDGE_CURVE('',#185,#186,#100,.T.);
#229=EDGE_CURVE('',#186,#183,#101,.T.);
#230=EDGE_CURVE('',#182,#185,#102,.T.);
#231=EDGE_CURVE('',#185,#187,#103,.T.);
#232=EDGE_CURVE('',#188,#187,#104,.T.);
#233=EDGE_CURVE('',#186,#188,#105,.T.);
#234=EDGE_CURVE('',#174,#188,#106,.T.);
#235=EDGE_CURVE('',#187,#175,#107,.T.);
#236=EDGE_CURVE('',#184,#178,#108,.F.);
#237=ORIENTED_EDGE('',*,*,#189,.T.);
#238=ORIENTED_EDGE('',*,*,#190,.T.);
#239=ORIENTED_EDGE('',*,*,#191,.T.);
#240=ORIENTED_EDGE('',*,*,#192,.T.);
#241=ORIENTED_EDGE('',*,*,#190,.F.);
#242=ORIENTED_EDGE('',*,*,#193,.F.);
#243=ORIENTED_EDGE('',*,*,#194,.F.);
#244=ORIENTED_EDGE('',*,*,#195,.F.);
#245=ORIENTED_EDGE('',*,*,#196,.T.);
#246=ORIENTED_EDGE('',*,*,#197,.T.);
#247=ORIENTED_EDGE('',*,*,#198,.T.);
#248=ORIENTED_EDGE('',*,*,#194,.T.);
#249=ORIENTED_EDGE('',*,*,#197,.F.);
#250=ORIENTED_EDGE('',*,*,#199,.F.);
#251=ORIENTED_EDGE('',*,*,#200,.T.);
#252=ORIENTED_EDGE('',*,*,#201,.F.);
#253=ORIENTED_EDGE('',*,*,#202,.T.);
#254=ORIENTED_EDGE('',*,*,#203,.T.);
#255=ORIENTED_EDGE('',*,*,#204,.T.);
#256=ORIENTED_EDGE('',*,*,#205,.T.);
#257=ORIENTED_EDGE('',*,*,#203,.F.);
#258=ORIENTED_EDGE('',*,*,#206,.F.);
#259=ORIENTED_EDGE('',*,*,#207,.F.);
#260=ORIENTED_EDGE('',*,*,#208,.T.);
#261=ORIENTED_EDGE('',*,*,#202,.F.);
#262=ORIENTED_EDGE('',*,*,#209,.F.);
#263=ORIENTED_EDGE('',*,*,#210,.T.);
#264=ORIENTED_EDGE('',*,*,#211,.T.);
#265=ORIENTED_EDGE('',*,*,#212,.T.);
#266=ORIENTED_EDGE('',*,*,#213,.F.);
#267=ORIENTED_EDGE('',*,*,#214,.F.);
#268=ORIENTED_EDGE('',*,*,#206,.T.);
#269=ORIENTED_EDGE('',*,*,#215,.T.);
#270=ORIENTED_EDGE('',*,*,#191,.F.);
#271=ORIENTED_EDGE('',*,*,#195,.T.);
#272=ORIENTED_EDGE('',*,*,#198,.F.);
#273=ORIENTED_EDGE('',*,*,#201,.T.);
#274=ORIENTED_EDGE('',*,*,#216,.T.);
#275=ORIENTED_EDGE('',*,*,#214,.T.);
#276=ORIENTED_EDGE('',*,*,#217,.T.);
#277=ORIENTED_EDGE('',*,*,#218,.T.);
#278=ORIENTED_EDGE('',*,*,#207,.T.);
#279=ORIENTED_EDGE('',*,*,#205,.F.);
#280=ORIENTED_EDGE('',*,*,#219,.T.);
#281=ORIENTED_EDGE('',*,*,#220,.T.);
#282=ORIENTED_EDGE('',*,*,#209,.T.);
#283=ORIENTED_EDGE('',*,*,#204,.F.);
#284=ORIENTED_EDGE('',*,*,#208,.F.);
#285=ORIENTED_EDGE('',*,*,#218,.F.);
#286=ORIENTED_EDGE('',*,*,#221,.F.);
#287=ORIENTED_EDGE('',*,*,#222,.F.);
#288=ORIENTED_EDGE('',*,*,#223,.F.);
#289=ORIENTED_EDGE('',*,*,#224,.T.);
#290=ORIENTED_EDGE('',*,*,#219,.F.);
#291=ORIENTED_EDGE('',*,*,#225,.T.);
#292=ORIENTED_EDGE('',*,*,#226,.T.);
#293=ORIENTED_EDGE('',*,*,#199,.T.);
#294=ORIENTED_EDGE('',*,*,#196,.F.);
#295=ORIENTED_EDGE('',*,*,#193,.T.);
#296=ORIENTED_EDGE('',*,*,#189,.F.);
#297=ORIENTED_EDGE('',*,*,#217,.F.);
#298=ORIENTED_EDGE('',*,*,#213,.T.);
#299=ORIENTED_EDGE('',*,*,#227,.T.);
#300=ORIENTED_EDGE('',*,*,#221,.T.);
#301=ORIENTED_EDGE('',*,*,#228,.T.);
#302=ORIENTED_EDGE('',*,*,#229,.T.);
#303=ORIENTED_EDGE('',*,*,#223,.T.);
#304=ORIENTED_EDGE('',*,*,#230,.T.);
#305=ORIENTED_EDGE('',*,*,#231,.T.);
#306=ORIENTED_EDGE('',*,*,#232,.F.);
#307=ORIENTED_EDGE('',*,*,#233,.F.);
#308=ORIENTED_EDGE('',*,*,#228,.F.);
#309=ORIENTED_EDGE('',*,*,#211,.F.);
#310=ORIENTED_EDGE('',*,*,#234,.T.);
#311=ORIENTED_EDGE('',*,*,#232,.T.);
#312=ORIENTED_EDGE('',*,*,#235,.T.);
#313=ORIENTED_EDGE('',*,*,#220,.F.);
#314=ORIENTED_EDGE('',*,*,#224,.F.);
#315=ORIENTED_EDGE('',*,*,#229,.F.);
#316=ORIENTED_EDGE('',*,*,#233,.T.);
#317=ORIENTED_EDGE('',*,*,#234,.F.);
#318=ORIENTED_EDGE('',*,*,#210,.F.);
#319=ORIENTED_EDGE('',*,*,#216,.F.);
#320=ORIENTED_EDGE('',*,*,#200,.F.);
#321=ORIENTED_EDGE('',*,*,#226,.F.);
#322=ORIENTED_EDGE('',*,*,#236,.T.);
#323=ORIENTED_EDGE('',*,*,#192,.F.);
#324=ORIENTED_EDGE('',*,*,#215,.F.);
#325=ORIENTED_EDGE('',*,*,#236,.F.);
#326=ORIENTED_EDGE('',*,*,#225,.F.);
#327=ORIENTED_EDGE('',*,*,#227,.F.);
#328=ORIENTED_EDGE('',*,*,#212,.F.);
#329=ORIENTED_EDGE('',*,*,#235,.F.);
#330=ORIENTED_EDGE('',*,*,#231,.F.);
#331=ORIENTED_EDGE('',*,*,#230,.F.);
#332=ORIENTED_EDGE('',*,*,#222,.T.);
#333=CYLINDRICAL_SURFACE('',#369,20.);
#334=CYLINDRICAL_SURFACE('',#373,20.);
#335=CYLINDRICAL_SURFACE('',#377,40.);
#336=CYLINDRICAL_SURFACE('',#383,40.);
#337=ADVANCED_FACE('',(#31),#333,.F.);
#338=ADVANCED_FACE('',(#32),#17,.F.);
#339=ADVANCED_FACE('',(#33),#334,.F.);
#340=ADVANCED_FACE('',(#34),#18,.F.);
#341=ADVANCED_FACE('',(#35),#335,.T.);
#342=ADVANCED_FACE('',(#36),#19,.T.);
#343=ADVANCED_FACE('',(#37,#15),#20,.T.);
#344=ADVANCED_FACE('',(#38),#336,.T.);
#345=ADVANCED_FACE('',(#39),#21,.T.);
#346=ADVANCED_FACE('',(#40,#16),#22,.F.);
#347=ADVANCED_FACE('',(#41),#23,.T.);
#348=ADVANCED_FACE('',(#42),#24,.T.);
#349=ADVANCED_FACE('',(#43),#25,.F.);
#350=ADVANCED_FACE('',(#44),#26,.F.);
#351=ADVANCED_FACE('',(#45),#27,.F.);
#352=ADVANCED_FACE('',(#46),#28,.F.);
#353=ADVANCED_FACE('',(#47),#29,.F.);
#354=ADVANCED_FACE('',(#48),#30,.F.);
#355=CLOSED_SHELL('',(#337,#338,#339,#340,#341,#342,#343,#344,#345,#346,
#347,#348,#349,#350,#351,#352,#353,#354));
#356=DERIVED_UNIT_ELEMENT(#358,1.);
#357=DERIVED_UNIT_ELEMENT(#593,-3.);
#358=(
MASS_UNIT()
NAMED_UNIT(*)
SI_UNIT(.KILO.,.GRAM.)
);
#359=DERIVED_UNIT((#356,#357));
#360=MEASURE_REPRESENTATION_ITEM('density measure',
POSITIVE_RATIO_MEASURE(7850.),#359);
#361=PROPERTY_DEFINITION_REPRESENTATION(#366,#363);
#362=PROPERTY_DEFINITION_REPRESENTATION(#367,#364);
#363=REPRESENTATION('material name',(#365),#590);
#364=REPRESENTATION('density',(#360),#590);
#365=DESCRIPTIVE_REPRESENTATION_ITEM('Steel','Steel');
#366=PROPERTY_DEFINITION('material property','material name',#600);
#367=PROPERTY_DEFINITION('material property','density of part',#600);
#368=AXIS2_PLACEMENT_3D('',#489,#395,#396);
#369=AXIS2_PLACEMENT_3D('',#490,#397,#398);
#370=AXIS2_PLACEMENT_3D('',#493,#399,#400);
#371=AXIS2_PLACEMENT_3D('',#497,#402,#403);
#372=AXIS2_PLACEMENT_3D('',#499,#405,#406);
#373=AXIS2_PLACEMENT_3D('',#505,#410,#411);
#374=AXIS2_PLACEMENT_3D('',#507,#412,#413);
#375=AXIS2_PLACEMENT_3D('',#510,#415,#416);
#376=AXIS2_PLACEMENT_3D('',#511,#417,#418);
#377=AXIS2_PLACEMENT_3D('',#517,#422,#423);
#378=AXIS2_PLACEMENT_3D('',#520,#424,#425);
#379=AXIS2_PLACEMENT_3D('',#524,#427,#428);
#380=AXIS2_PLACEMENT_3D('',#526,#430,#431);
#381=AXIS2_PLACEMENT_3D('',#532,#435,#436);
#382=AXIS2_PLACEMENT_3D('',#543,#442,#443);
#383=AXIS2_PLACEMENT_3D('',#547,#446,#447);
#384=AXIS2_PLACEMENT_3D('',#550,#449,#450);
#385=AXIS2_PLACEMENT_3D('',#551,#451,#452);
#386=AXIS2_PLACEMENT_3D('',#555,#455,#456);
#387=AXIS2_PLACEMENT_3D('',#566,#463,#464);
#388=AXIS2_PLACEMENT_3D('',#568,#466,#467);
#389=AXIS2_PLACEMENT_3D('',#574,#471,#472);
#390=AXIS2_PLACEMENT_3D('',#580,#476,#477);
#391=AXIS2_PLACEMENT_3D('',#583,#480,#481);
#392=AXIS2_PLACEMENT_3D('',#584,#482,#483);
#393=AXIS2_PLACEMENT_3D('',#586,#485,#486);
#394=AXIS2_PLACEMENT_3D('',#587,#487,#488);
#395=DIRECTION('axis',(0.,0.,1.));
#396=DIRECTION('refdir',(1.,0.,0.));
#397=DIRECTION('center_axis',(-0.438371146789074,-4.6539870598707E-15,0.898794046299169));
#398=DIRECTION('ref_axis',(-0.63554336502824,-0.707106781186545,-0.30997521057108));
#399=DIRECTION('center_axis',(0.438371146789077,-5.82867087928207E-16,-0.898794046299167));
#400=DIRECTION('ref_axis',(-0.63554336502824,-0.707106781186545,-0.30997521057108));
#401=DIRECTION('',(-0.438371146789074,-4.6539870598707E-15,0.898794046299169));
#402=DIRECTION('center_axis',(-0.438371146789077,5.82867087928207E-16,0.898794046299167));
#403=DIRECTION('ref_axis',(-0.63554336502824,-0.707106781186545,-0.30997521057108));
#404=DIRECTION('',(0.438371146789074,4.6539870598707E-15,-0.898794046299169));
#405=DIRECTION('center_axis',(-0.898794046299169,1.16573417585641E-15,-0.438371146789074));
#406=DIRECTION('ref_axis',(-1.27675647831893E-15,-1.,-2.86001036704466E-17));
#407=DIRECTION('',(1.30326705058791E-15,1.,-1.28532408922109E-17));
#408=DIRECTION('',(0.438371146789074,4.6539870598707E-15,-0.898794046299169));
#409=DIRECTION('',(1.30326705058791E-15,1.,-1.28532408922109E-17));
#410=DIRECTION('center_axis',(-0.438371146789074,-4.6539870598707E-15,0.898794046299169));
#411=DIRECTION('ref_axis',(-0.635543365028234,0.707106781186552,-0.309975210571074));
#412=DIRECTION('center_axis',(0.438371146789077,-5.82867087928207E-16,-0.898794046299167));
#413=DIRECTION('ref_axis',(-0.635543365028234,0.707106781186552,-0.309975210571074));
#414=DIRECTION('',(-0.438371146789074,-4.6539870598707E-15,0.898794046299169));
#415=DIRECTION('center_axis',(-0.438371146789077,5.82867087928207E-16,0.898794046299167));
#416=DIRECTION('ref_axis',(-0.635543365028234,0.707106781186552,-0.309975210571074));
#417=DIRECTION('center_axis',(-9.99200722162641E-16,1.,4.69069227904129E-15));
#418=DIRECTION('ref_axis',(-0.898794046299167,1.16573417585641E-15,-0.438371146789077));
#419=DIRECTION('',(0.898794046299167,-1.11022302462516E-15,0.438371146789077));
#420=DIRECTION('',(-0.438371146789073,-4.66293670342566E-15,0.898794046299169));
#421=DIRECTION('',(0.898794046299167,-1.11022302462516E-15,0.438371146789077));
#422=DIRECTION('center_axis',(-0.438371146789077,6.10622663543836E-16,0.898794046299167));
#423=DIRECTION('ref_axis',(0.653254899790986,0.686835747459806,0.318613703268389));
#424=DIRECTION('center_axis',(0.438371146789077,-5.82867087928207E-16,-0.898794046299167));
#425=DIRECTION('ref_axis',(0.653254899790986,0.686835747459806,0.318613703268389));
#426=DIRECTION('',(0.438371146789077,-6.10622663543836E-16,-0.898794046299167));
#427=DIRECTION('center_axis',(-0.438371146789077,5.82867087928207E-16,0.898794046299167));
#428=DIRECTION('ref_axis',(0.653254899790986,0.686835747459806,0.318613703268389));
#429=DIRECTION('',(-0.438371146789077,6.10622663543836E-16,0.898794046299167));
#430=DIRECTION('center_axis',(0.898794046299167,-1.33226762955019E-15,0.438371146789077));
#431=DIRECTION('ref_axis',(-0.438371146789077,6.10622663543836E-16,0.898794046299167));
#432=DIRECTION('',(-1.49880108324396E-15,-1.,-5.55111512312578E-17));
#433=DIRECTION('',(-0.438371146789077,6.10622663543836E-16,0.898794046299167));
#434=DIRECTION('',(-1.49880108324396E-15,-1.,-5.55111512312578E-17));
#435=DIRECTION('center_axis',(-0.438371146789077,5.82867087928207E-16,0.898794046299167));
#436=DIRECTION('ref_axis',(-0.898794046299167,1.27675647831893E-15,-0.438371146789077));
#437=DIRECTION('',(0.897357634759446,-0.0565133120226569,0.437670562070563));
#438=DIRECTION('',(-0.898794046299167,1.27675647831893E-15,-0.438371146789077));
#439=DIRECTION('',(-1.4432899320127E-15,-1.,-3.93162932078273E-17));
#440=DIRECTION('',(0.898794046299167,-1.27675647831893E-15,0.438371146789077));
#441=DIRECTION('',(-0.897357634759446,-0.0565133120226546,-0.437670562070563));
#442=DIRECTION('center_axis',(0.438371146789077,-5.82867087928207E-16,-0.898794046299167));
#443=DIRECTION('ref_axis',(0.653254899790985,-0.686835747459808,0.318613703268389));
#444=DIRECTION('',(-0.898794046299167,1.11022302462516E-15,-0.438371146789077));
#445=DIRECTION('',(-1.33226762955019E-15,-1.,2.77555756156289E-17));
#446=DIRECTION('center_axis',(-0.438371146789077,6.10622663543836E-16,0.898794046299167));
#447=DIRECTION('ref_axis',(0.653254899790985,-0.686835747459808,0.318613703268389));
#448=DIRECTION('',(0.438371146789077,-6.10622663543836E-16,-0.898794046299167));
#449=DIRECTION('center_axis',(-0.438371146789077,5.82867087928207E-16,0.898794046299167));
#450=DIRECTION('ref_axis',(0.653254899790985,-0.686835747459808,0.318613703268389));
#451=DIRECTION('center_axis',(0.0507938283826114,0.998401845733585,0.0247738054002205));
#452=DIRECTION('ref_axis',(-0.0139118815171395,-0.024096085616564,0.999612844160484));
#453=DIRECTION('',(-0.897357634759446,0.0565133120226569,-0.437670562070563));
#454=DIRECTION('',(-0.438371146789077,6.10622663543836E-16,0.898794046299167));
#455=DIRECTION('center_axis',(-0.438371146789077,5.82867087928207E-16,0.898794046299167));
#456=DIRECTION('ref_axis',(-0.898794046299167,1.27675647831893E-15,-0.438371146789077));
#457=DIRECTION('',(0.897357634759446,0.0565133120226546,0.437670562070563));
#458=DIRECTION('',(0.898794046299167,-1.27675647831893E-15,0.438371146789077));
#459=DIRECTION('',(-1.38777878078145E-15,-1.,-1.14040180925395E-18));
#460=DIRECTION('',(0.898794046299167,-1.27675647831893E-15,0.438371146789077));
#461=DIRECTION('',(-0.898794046299167,1.11022302462516E-15,-0.438371146789077));
#462=DIRECTION('',(-1.33226762955019E-15,-1.,2.77555756156289E-17));
#463=DIRECTION('center_axis',(0.0507938283826088,-0.998401845733585,0.0247738054002206));
#464=DIRECTION('ref_axis',(-0.014753162087766,-0.0255532263083096,-0.99956459362747));
#465=DIRECTION('',(0.438371146789077,-6.10622663543836E-16,-0.898794046299167));
#466=DIRECTION('center_axis',(-0.898794046299167,1.27675647831893E-15,-0.438371146789077));
#467=DIRECTION('ref_axis',(-0.438371146789077,6.10622663543836E-16,0.898794046299167));
#468=DIRECTION('',(1.38777878078145E-15,1.,1.14040180925395E-18));
#469=DIRECTION('',(0.438371146789077,-6.10622663543836E-16,-0.898794046299167));
#470=DIRECTION('',(-0.438371146789077,6.10622663543836E-16,0.898794046299167));
#471=DIRECTION('center_axis',(0.438371146789077,-6.10622663543836E-16,-0.898794046299167));
#472=DIRECTION('ref_axis',(-0.898794046299167,1.27675647831893E-15,-0.438371146789077));
#473=DIRECTION('',(0.898794046299167,-1.27675647831893E-15,0.438371146789077));
#474=DIRECTION('',(-1.38777878078145E-15,-1.,-1.14040180925395E-18));
#475=DIRECTION('',(0.898794046299167,-1.27675647831893E-15,0.438371146789077));
#476=DIRECTION('center_axis',(-0.898794046299167,1.27675647831893E-15,-0.438371146789077));
#477=DIRECTION('ref_axis',(-0.438371146789077,6.10622663543836E-16,0.898794046299167));
#478=DIRECTION('',(-0.438371146789077,6.10622663543836E-16,0.898794046299167));
#479=DIRECTION('',(0.438371146789077,-6.10622663543836E-16,-0.898794046299167));
#480=DIRECTION('center_axis',(-1.4432899320127E-15,-1.,-3.93162932078273E-17));
#481=DIRECTION('ref_axis',(-0.438371146789077,5.82867087928207E-16,0.898794046299167));
#482=DIRECTION('center_axis',(0.898794046299169,-1.16573417585641E-15,0.438371146789074));
#483=DIRECTION('ref_axis',(1.27675647831893E-15,1.,2.86001036704466E-17));
#484=DIRECTION('',(0.438371146789073,4.66293670342566E-15,-0.898794046299169));
#485=DIRECTION('center_axis',(9.99200722162641E-16,-1.,-4.69069227904129E-15));
#486=DIRECTION('ref_axis',(0.898794046299167,-1.16573417585641E-15,0.438371146789077));
#487=DIRECTION('center_axis',(1.4432899320127E-15,1.,3.93162932078273E-17));
#488=DIRECTION('ref_axis',(0.438371146789077,-5.82867087928207E-16,-0.898794046299167));
#489=CARTESIAN_POINT('',(0.,0.,0.));
#490=CARTESIAN_POINT('Origin',(-674.235600518854,-30.5258834451825,34.4778044361304));
#491=CARTESIAN_POINT('',(-674.235600518854,-50.5258834451826,34.4778044361304));
#492=CARTESIAN_POINT('',(-692.211481444837,-30.5258834451825,25.7103815003489));
#493=CARTESIAN_POINT('Origin',(-674.235600518854,-30.5258834451825,34.4778044361305));
#494=CARTESIAN_POINT('',(-693.964966031993,-30.5258834451825,29.3055576855456));
#495=CARTESIAN_POINT('',(-692.211481444837,-30.5258834451825,25.710381500349));
#496=CARTESIAN_POINT('',(-675.98908510601,-50.5258834451826,38.0729806213271));
#497=CARTESIAN_POINT('Origin',(-675.98908510601,-30.5258834451826,38.0729806213272));
#498=CARTESIAN_POINT('',(-674.235600518854,-50.5258834451825,34.4778044361303));
#499=CARTESIAN_POINT('Origin',(-692.211481444837,50.9241165548176,25.7103815003491));
#500=CARTESIAN_POINT('',(-692.211481444837,30.4741165548175,25.7103815003489));
#501=CARTESIAN_POINT('',(-692.211481444837,25.4620582774093,25.7103815003489));
#502=CARTESIAN_POINT('',(-693.964966031993,30.4741165548175,29.3055576855456));
#503=CARTESIAN_POINT('',(-692.211481444837,30.4741165548175,25.7103815003492));
#504=CARTESIAN_POINT('',(-693.964966031993,25.4620582774093,29.3055576855456));
#505=CARTESIAN_POINT('Origin',(-674.235600518854,30.4741165548175,34.4778044361307));
#506=CARTESIAN_POINT('',(-674.235600518854,50.4741165548175,34.4778044361304));
#507=CARTESIAN_POINT('Origin',(-674.235600518854,30.4741165548175,34.4778044361308));
#508=CARTESIAN_POINT('',(-675.98908510601,50.4741165548175,38.072980621327));
#509=CARTESIAN_POINT('',(-674.235600518854,50.4741165548175,34.4778044361308));
#510=CARTESIAN_POINT('Origin',(-675.98908510601,30.4741165548175,38.0729806213274));
#511=CARTESIAN_POINT('Origin',(-536.180835007302,50.4741165548173,101.811612582933));
#512=CARTESIAN_POINT('',(-535.821317388782,50.4741165548173,101.986961041648));
#513=CARTESIAN_POINT('',(-575.983849202646,50.4741165548173,82.3983854367135));
#514=CARTESIAN_POINT('',(-537.574801975938,50.4741165548172,105.582137226845));
#515=CARTESIAN_POINT('',(-535.821317388782,50.4741165548173,101.986961041649));
#516=CARTESIAN_POINT('',(-577.737333789802,50.4741165548173,85.9935616219102));
#517=CARTESIAN_POINT('Origin',(-541.252446836415,48.8982356528702,104.066580464337));
#518=CARTESIAN_POINT('',(-539.111100914413,88.8343094822137,104.832834168771));
#519=CARTESIAN_POINT('',(-505.191092197751,48.8982356528702,121.376727824326));
#520=CARTESIAN_POINT('Origin',(-541.142854049718,48.8982356528702,103.841881952763));
#521=CARTESIAN_POINT('',(-503.437607610595,48.8982356528702,117.781551639129));
#522=CARTESIAN_POINT('',(-505.300684984448,48.8982356528702,121.601426335901));
#523=CARTESIAN_POINT('',(-537.357616327257,88.8343094822137,101.237657983575));
#524=CARTESIAN_POINT('Origin',(-539.389369462562,48.8982356528702,100.246705767566));
#525=CARTESIAN_POINT('',(-539.220693701111,88.8343094822137,105.057532680346));
#526=CARTESIAN_POINT('Origin',(-505.62946334454,7.46069872548105E-13,122.275521870625));
#527=CARTESIAN_POINT('',(-505.191092197751,-48.8982356528686,121.376727824326));
#528=CARTESIAN_POINT('',(-505.191092197751,7.46069872548105E-13,121.376727824326));
#529=CARTESIAN_POINT('',(-503.437607610595,-48.8982356528686,117.781551639129));
#530=CARTESIAN_POINT('',(-505.300684984449,-48.8982356528686,121.601426335901));
#531=CARTESIAN_POINT('',(-503.437607610595,7.46069872548105E-13,117.781551639129));
#532=CARTESIAN_POINT('Origin',(-617.540347985147,9.2370555648813E-13,66.580334475691));
#533=CARTESIAN_POINT('',(-716.407693078056,100.000000000001,18.3595083288925));
#534=CARTESIAN_POINT('',(-605.051161374799,92.9870475514559,72.6717177902379));
#535=CARTESIAN_POINT('',(-752.359454930022,100.000000000001,0.824662457329456));
#536=CARTESIAN_POINT('',(-617.540347985147,100.000000000001,66.580334475691));
#537=CARTESIAN_POINT('',(-752.359454930022,-99.9999999999989,0.824662457329456));
#538=CARTESIAN_POINT('',(-752.359454930022,1.13686837721616E-12,0.824662457329456));
#539=CARTESIAN_POINT('',(-716.407693078056,-99.9999999999989,18.3595083288925));
#540=CARTESIAN_POINT('',(-617.540347985147,-99.999999999999,66.580334475691));
#541=CARTESIAN_POINT('',(-539.111100914414,-88.834309482212,104.832834168771));
#542=CARTESIAN_POINT('',(-605.0511613748,-92.987047551454,72.6717177902379));
#543=CARTESIAN_POINT('Origin',(-541.142854049718,-48.8982356528685,103.841881952763));
#544=CARTESIAN_POINT('',(-537.574801975938,-50.5258834451828,105.582137226845));
#545=CARTESIAN_POINT('',(-622.677036104761,-50.5258834451827,64.0750042824563));
#546=CARTESIAN_POINT('',(-537.574801975938,-24.5379417225909,105.582137226845));
#547=CARTESIAN_POINT('Origin',(-541.252446836415,-48.8982356528686,104.066580464337));
#548=CARTESIAN_POINT('',(-537.357616327258,-88.834309482212,101.237657983575));
#549=CARTESIAN_POINT('',(-539.220693701111,-88.834309482212,105.057532680346));
#550=CARTESIAN_POINT('Origin',(-539.389369462562,-48.8982356528686,100.246705767566));
#551=CARTESIAN_POINT('Origin',(-597.098296370021,92.5000000000009,75.9942882552957));
#552=CARTESIAN_POINT('',(-714.654208490899,100.000000000001,14.7643321436959));
#553=CARTESIAN_POINT('',(-603.297676787643,92.9870475514559,69.0765416050413));
#554=CARTESIAN_POINT('',(-716.188507504661,100.000000000001,17.910111305743));
#555=CARTESIAN_POINT('Origin',(-615.786863397991,9.59232693276135E-13,62.9851582904943));
#556=CARTESIAN_POINT('',(-714.6542084909,-99.9999999999989,14.7643321436959));
#557=CARTESIAN_POINT('',(-603.297676787644,-92.9870475514539,69.0765416050413));
#558=CARTESIAN_POINT('',(-755.099940574362,-99.9999999999989,-4.96236946181256));
#559=CARTESIAN_POINT('',(-752.852955458614,-99.9999999999988,-3.86644159483987));
#560=CARTESIAN_POINT('',(-755.099940574362,100.000000000001,-4.96236946181256));
#561=CARTESIAN_POINT('',(-755.099940574362,1.06581410364015E-12,-4.96236946181256));
#562=CARTESIAN_POINT('',(-752.852955458614,100.000000000001,-3.86644159483987));
#563=CARTESIAN_POINT('',(-535.821317388782,-50.5258834451827,101.986961041648));
#564=CARTESIAN_POINT('',(-620.923551517605,-50.5258834451826,60.4798280972597));
#565=CARTESIAN_POINT('',(-535.821317388782,-24.5379417225909,101.986961041648));
#566=CARTESIAN_POINT('Origin',(-597.098296370022,-92.4999999999991,75.9942882552957));
#567=CARTESIAN_POINT('',(-716.188507504661,-99.9999999999989,17.9101113057429));
#568=CARTESIAN_POINT('Origin',(-757.291796308307,1.13686837721616E-12,-0.468399230316722));
#569=CARTESIAN_POINT('',(-759.483652042253,-99.9999999999989,4.02557100117912));
#570=CARTESIAN_POINT('',(-759.483652042253,100.000000000001,4.02557100117912));
#571=CARTESIAN_POINT('',(-759.483652042253,1.13686837721616E-12,4.02557100117912));
#572=CARTESIAN_POINT('',(-757.291796308307,100.000000000001,-0.468399230316722));
#573=CARTESIAN_POINT('',(-757.291796308308,-99.9999999999988,-0.468399230316722));
#574=CARTESIAN_POINT('Origin',(-757.236666926505,1.06581410364015E-12,5.12149886815181));
#575=CARTESIAN_POINT('',(-754.989681810757,-99.9999999999988,6.2174267351245));
#576=CARTESIAN_POINT('',(-757.236666926505,-99.9999999999989,5.12149886815181));
#577=CARTESIAN_POINT('',(-754.989681810757,100.000000000001,6.2174267351245));
#578=CARTESIAN_POINT('',(-754.989681810757,1.13686837721616E-12,6.2174267351245));
#579=CARTESIAN_POINT('',(-757.236666926505,100.000000000001,5.12149886815181));
#580=CARTESIAN_POINT('Origin',(-752.797826076812,1.06581410364015E-12,1.72345650362866));
#581=CARTESIAN_POINT('',(-752.797826076811,100.000000000001,1.72345650362866));
#582=CARTESIAN_POINT('',(-752.797826076812,-99.9999999999989,1.72345650362866));
#583=CARTESIAN_POINT('Origin',(-616.663605691569,100.000000000001,64.7827463830927));
#584=CARTESIAN_POINT('Origin',(-535.821317388782,-49.0758834451827,101.986961041648));
#585=CARTESIAN_POINT('',(-535.821317388782,-50.5258834451827,101.986961041648));
#586=CARTESIAN_POINT('Origin',(-626.060239637218,-50.5258834451826,57.9744979040249));
#587=CARTESIAN_POINT('Origin',(-616.663605691569,-99.9999999999991,64.7827463830927));
#588=UNCERTAINTY_MEASURE_WITH_UNIT(LENGTH_MEASURE(0.01),#592,
'DISTANCE_ACCURACY_VALUE',
'Maximum model space distance between geometric entities at asserted c
onnectivities');
#589=UNCERTAINTY_MEASURE_WITH_UNIT(LENGTH_MEASURE(0.01),#592,
'DISTANCE_ACCURACY_VALUE',
'Maximum model space distance between geometric entities at asserted c
onnectivities');
#590=(
GEOMETRIC_REPRESENTATION_CONTEXT(3)
GLOBAL_UNCERTAINTY_ASSIGNED_CONTEXT((#588))
GLOBAL_UNIT_ASSIGNED_CONTEXT((#592,#594,#595))
REPRESENTATION_CONTEXT('','3D')
);
#591=(
GEOMETRIC_REPRESENTATION_CONTEXT(3)
GLOBAL_UNCERTAINTY_ASSIGNED_CONTEXT((#589))
GLOBAL_UNIT_ASSIGNED_CONTEXT((#592,#594,#595))
REPRESENTATION_CONTEXT('','3D')
);
#592=(
LENGTH_UNIT()
NAMED_UNIT(*)
SI_UNIT(.MILLI.,.METRE.)
);
#593=(
LENGTH_UNIT()
NAMED_UNIT(*)
SI_UNIT($,.METRE.)
);
#594=(
NAMED_UNIT(*)
PLANE_ANGLE_UNIT()
SI_UNIT($,.RADIAN.)
);
#595=(
NAMED_UNIT(*)
SI_UNIT($,.STERADIAN.)
SOLID_ANGLE_UNIT()
);
#596=SHAPE_DEFINITION_REPRESENTATION(#597,#598);
#597=PRODUCT_DEFINITION_SHAPE('',$,#600);
#598=SHAPE_REPRESENTATION('',(#368),#590);
#599=PRODUCT_DEFINITION_CONTEXT('part definition',#604,'design');
#600=PRODUCT_DEFINITION('TripodLeg-Endcaps-WeightBrackets',
'TripodLeg-Endcaps-WeightBrackets v62',#601,#599);
#601=PRODUCT_DEFINITION_FORMATION('',$,#606);
#602=PRODUCT_RELATED_PRODUCT_CATEGORY(
'TripodLeg-Endcaps-WeightBrackets v62',
'TripodLeg-Endcaps-WeightBrackets v62',(#606));
#603=APPLICATION_PROTOCOL_DEFINITION('international standard',
'automotive_design',2009,#604);
#604=APPLICATION_CONTEXT(
'Core Data for Automotive Mechanical Design Process');
#605=PRODUCT_CONTEXT('part definition',#604,'mechanical');
#606=PRODUCT('TripodLeg-Endcaps-WeightBrackets',
'TripodLeg-Endcaps-WeightBrackets v62',$,(#605));
#607=PRESENTATION_STYLE_ASSIGNMENT((#610));
#608=PRESENTATION_STYLE_ASSIGNMENT((#611));
#609=PRESENTATION_STYLE_ASSIGNMENT((#612));
#610=SURFACE_STYLE_USAGE(.BOTH.,#613);
#611=SURFACE_STYLE_USAGE(.BOTH.,#614);
#612=SURFACE_STYLE_USAGE(.BOTH.,#615);
#613=SURFACE_SIDE_STYLE('',(#616));
#614=SURFACE_SIDE_STYLE('',(#617));
#615=SURFACE_SIDE_STYLE('',(#618));
#616=SURFACE_STYLE_FILL_AREA(#619);
#617=SURFACE_STYLE_FILL_AREA(#620);
#618=SURFACE_STYLE_FILL_AREA(#621);
#619=FILL_AREA_STYLE('Steel - Satin',(#622));
#620=FILL_AREA_STYLE('Plastic - Translucent Matte (Red)',(#623));
#621=FILL_AREA_STYLE('Concrete',(#624));
#622=FILL_AREA_STYLE_COLOUR('Steel - Satin',#625);
#623=FILL_AREA_STYLE_COLOUR('Plastic - Translucent Matte (Red)',#626);
#624=FILL_AREA_STYLE_COLOUR('Concrete',#627);
#625=COLOUR_RGB('Steel - Satin',0.627450980392157,0.627450980392157,0.627450980392157);
#626=COLOUR_RGB('Plastic - Translucent Matte (Red)',0.768627450980392,0.207843137254902,
0.152941176470588);
#627=COLOUR_RGB('Concrete',0.,0.,0.);
ENDSEC;
END-ISO-10303-21;
