ISO-10303-21;
HEADER;
/* Generated by software containing ST-Developer
 * from STEP Tools, Inc. (www.steptools.com) 
 */

FILE_DESCRIPTION(
/* description */ (''),
/* implementation_level */ '2;1');

FILE_NAME(
/* name */ 'TripodLeg-Endcaps-WeightBrackets-ALTMASS.step',
/* time_stamp */ '2026-04-06T13:25:25+02:00',
/* author */ (''),
/* organization */ (''),
/* preprocessor_version */ 'ST-DEVELOPER v20.1',
/* originating_system */ 'Autodesk Translation Framework v14.24.0.0',
/* authorisation */ '');

FILE_SCHEMA (('AUTOMOTIVE_DESIGN { 1 0 10303 214 3 1 1 }'));
ENDSEC;

DATA;
#10=MECHANICAL_DESIGN_GEOMETRIC_PRESENTATION_REPRESENTATION('',(#13),#216);
#11=SHAPE_REPRESENTATION_RELATIONSHIP('SRR','None',#223,#12);
#12=ADVANCED_BREP_SHAPE_REPRESENTATION('',(#14),#215);
#13=STYLED_ITEM('',(#232),#14);
#14=MANIFOLD_SOLID_BREP('Alt-Mass-3.4L',#128);
#15=FACE_OUTER_BOUND('',#22,.T.);
#16=FACE_OUTER_BOUND('',#23,.T.);
#17=FACE_OUTER_BOUND('',#24,.T.);
#18=FACE_OUTER_BOUND('',#25,.T.);
#19=FACE_OUTER_BOUND('',#26,.T.);
#20=FACE_OUTER_BOUND('',#27,.T.);
#21=FACE_OUTER_BOUND('',#28,.T.);
#22=EDGE_LOOP('',(#84,#85,#86,#87));
#23=EDGE_LOOP('',(#88,#89,#90,#91,#92));
#24=EDGE_LOOP('',(#93,#94,#95,#96));
#25=EDGE_LOOP('',(#97,#98,#99,#100));
#26=EDGE_LOOP('',(#101,#102,#103,#104,#105));
#27=EDGE_LOOP('',(#106,#107,#108,#109));
#28=EDGE_LOOP('',(#110,#111,#112,#113));
#29=LINE('',#184,#44);
#30=LINE('',#186,#45);
#31=LINE('',#188,#46);
#32=LINE('',#189,#47);
#33=LINE('',#192,#48);
#34=LINE('',#194,#49);
#35=LINE('',#196,#50);
#36=LINE('',#197,#51);
#37=LINE('',#200,#52);
#38=LINE('',#201,#53);
#39=LINE('',#204,#54);
#40=LINE('',#205,#55);
#41=LINE('',#208,#56);
#42=LINE('',#209,#57);
#43=LINE('',#211,#58);
#44=VECTOR('',#153,10.);
#45=VECTOR('',#154,10.);
#46=VECTOR('',#155,10.);
#47=VECTOR('',#156,10.);
#48=VECTOR('',#159,10.);
#49=VECTOR('',#160,10.);
#50=VECTOR('',#161,10.);
#51=VECTOR('',#162,10.);
#52=VECTOR('',#165,10.);
#53=VECTOR('',#166,10.);
#54=VECTOR('',#169,10.);
#55=VECTOR('',#170,10.);
#56=VECTOR('',#173,10.);
#57=VECTOR('',#174,10.);
#58=VECTOR('',#177,10.);
#59=VERTEX_POINT('',#182);
#60=VERTEX_POINT('',#183);
#61=VERTEX_POINT('',#185);
#62=VERTEX_POINT('',#187);
#63=VERTEX_POINT('',#191);
#64=VERTEX_POINT('',#193);
#65=VERTEX_POINT('',#195);
#66=VERTEX_POINT('',#199);
#67=VERTEX_POINT('',#203);
#68=VERTEX_POINT('',#207);
#69=EDGE_CURVE('',#59,#60,#29,.T.);
#70=EDGE_CURVE('',#60,#61,#30,.F.);
#71=EDGE_CURVE('',#61,#62,#31,.T.);
#72=EDGE_CURVE('',#62,#59,#32,.T.);
#73=EDGE_CURVE('',#63,#61,#33,.F.);
#74=EDGE_CURVE('',#63,#64,#34,.F.);
#75=EDGE_CURVE('',#64,#65,#35,.T.);
#76=EDGE_CURVE('',#65,#62,#36,.T.);
#77=EDGE_CURVE('',#60,#66,#37,.T.);
#78=EDGE_CURVE('',#66,#63,#38,.T.);
#79=EDGE_CURVE('',#67,#65,#39,.T.);
#80=EDGE_CURVE('',#59,#67,#40,.F.);
#81=EDGE_CURVE('',#67,#68,#41,.F.);
#82=EDGE_CURVE('',#68,#66,#42,.T.);
#83=EDGE_CURVE('',#68,#64,#43,.T.);
#84=ORIENTED_EDGE('',*,*,#69,.T.);
#85=ORIENTED_EDGE('',*,*,#70,.T.);
#86=ORIENTED_EDGE('',*,*,#71,.T.);
#87=ORIENTED_EDGE('',*,*,#72,.T.);
#88=ORIENTED_EDGE('',*,*,#71,.F.);
#89=ORIENTED_EDGE('',*,*,#73,.F.);
#90=ORIENTED_EDGE('',*,*,#74,.T.);
#91=ORIENTED_EDGE('',*,*,#75,.T.);
#92=ORIENTED_EDGE('',*,*,#76,.T.);
#93=ORIENTED_EDGE('',*,*,#70,.F.);
#94=ORIENTED_EDGE('',*,*,#77,.T.);
#95=ORIENTED_EDGE('',*,*,#78,.T.);
#96=ORIENTED_EDGE('',*,*,#73,.T.);
#97=ORIENTED_EDGE('',*,*,#72,.F.);
#98=ORIENTED_EDGE('',*,*,#76,.F.);
#99=ORIENTED_EDGE('',*,*,#79,.F.);
#100=ORIENTED_EDGE('',*,*,#80,.F.);
#101=ORIENTED_EDGE('',*,*,#69,.F.);
#102=ORIENTED_EDGE('',*,*,#80,.T.);
#103=ORIENTED_EDGE('',*,*,#81,.T.);
#104=ORIENTED_EDGE('',*,*,#82,.T.);
#105=ORIENTED_EDGE('',*,*,#77,.F.);
#106=ORIENTED_EDGE('',*,*,#78,.F.);
#107=ORIENTED_EDGE('',*,*,#82,.F.);
#108=ORIENTED_EDGE('',*,*,#83,.T.);
#109=ORIENTED_EDGE('',*,*,#74,.F.);
#110=ORIENTED_EDGE('',*,*,#79,.T.);
#111=ORIENTED_EDGE('',*,*,#75,.F.);
#112=ORIENTED_EDGE('',*,*,#83,.F.);
#113=ORIENTED_EDGE('',*,*,#81,.F.);
#114=PLANE('',#142);
#115=PLANE('',#143);
#116=PLANE('',#144);
#117=PLANE('',#145);
#118=PLANE('',#146);
#119=PLANE('',#147);
#120=PLANE('',#148);
#121=ADVANCED_FACE('',(#15),#114,.T.);
#122=ADVANCED_FACE('',(#16),#115,.F.);
#123=ADVANCED_FACE('',(#17),#116,.T.);
#124=ADVANCED_FACE('',(#18),#117,.F.);
#125=ADVANCED_FACE('',(#19),#118,.T.);
#126=ADVANCED_FACE('',(#20),#119,.F.);
#127=ADVANCED_FACE('',(#21),#120,.F.);
#128=CLOSED_SHELL('',(#121,#122,#123,#124,#125,#126,#127));
#129=DERIVED_UNIT_ELEMENT(#131,1.);
#130=DERIVED_UNIT_ELEMENT(#218,-3.);
#131=(
MASS_UNIT()
NAMED_UNIT(*)
SI_UNIT(.KILO.,.GRAM.)
);
#132=DERIVED_UNIT((#129,#130));
#133=MEASURE_REPRESENTATION_ITEM('density measure',
POSITIVE_RATIO_MEASURE(7850.),#132);
#134=PROPERTY_DEFINITION_REPRESENTATION(#139,#136);
#135=PROPERTY_DEFINITION_REPRESENTATION(#140,#137);
#136=REPRESENTATION('material name',(#138),#215);
#137=REPRESENTATION('density',(#133),#215);
#138=DESCRIPTIVE_REPRESENTATION_ITEM('Steel','Steel');
#139=PROPERTY_DEFINITION('material property','material name',#225);
#140=PROPERTY_DEFINITION('material property','density of part',#225);
#141=AXIS2_PLACEMENT_3D('',#180,#149,#150);
#142=AXIS2_PLACEMENT_3D('',#181,#151,#152);
#143=AXIS2_PLACEMENT_3D('',#190,#157,#158);
#144=AXIS2_PLACEMENT_3D('',#198,#163,#164);
#145=AXIS2_PLACEMENT_3D('',#202,#167,#168);
#146=AXIS2_PLACEMENT_3D('',#206,#171,#172);
#147=AXIS2_PLACEMENT_3D('',#210,#175,#176);
#148=AXIS2_PLACEMENT_3D('',#212,#178,#179);
#149=DIRECTION('axis',(0.,0.,1.));
#150=DIRECTION('refdir',(1.,0.,0.));
#151=DIRECTION('center_axis',(-0.999998369157827,5.56528522017577E-15,0.00180601264839359));
#152=DIRECTION('ref_axis',(0.00180601264839359,0.,0.999998369157827));
#153=DIRECTION('',(0.00180601264839359,4.80636823967197E-17,0.999998369157827));
#154=DIRECTION('',(-5.56518934045559E-15,-1.,5.81145795119959E-17));
#155=DIRECTION('',(-0.00180601264839359,-4.80636823967197E-17,-0.999998369157827));
#156=DIRECTION('',(-5.56518934045559E-15,-1.,5.8114579511996E-17));
#157=DIRECTION('center_axis',(-5.56518934045559E-15,-1.,5.81145795119949E-17));
#158=DIRECTION('ref_axis',(-0.438371146789078,2.49185147134243E-15,0.898794046299167));
#159=DIRECTION('',(0.999993663173735,-5.56494718681354E-15,0.00356000173808752));
#160=DIRECTION('',(-0.438371146789078,2.49185147134243E-15,0.898794046299167));
#161=DIRECTION('',(-0.898794046299167,4.97648329086324E-15,-0.438371146789078));
#162=DIRECTION('',(-0.438371146789078,2.49185147134243E-15,0.898794046299167));
#163=DIRECTION('center_axis',(-0.00356000173808752,7.79262949748101E-17,
0.999993663173735));
#164=DIRECTION('ref_axis',(0.999993663173735,0.,0.00356000173808752));
#165=DIRECTION('',(0.999993663173735,-5.56494718681354E-15,0.00356000173808752));
#166=DIRECTION('',(5.56518934045559E-15,1.,-5.81145795119959E-17));
#167=DIRECTION('center_axis',(0.898794046299167,-4.97648329086324E-15,0.438371146789077));
#168=DIRECTION('ref_axis',(5.56518934045559E-15,1.,-5.81145795119949E-17));
#169=DIRECTION('',(5.56518934045559E-15,1.,-5.81145795119949E-17));
#170=DIRECTION('',(-0.438371146789078,2.49185147134243E-15,0.898794046299167));
#171=DIRECTION('center_axis',(-5.56518934045559E-15,-1.,5.81145795119949E-17));
#172=DIRECTION('ref_axis',(-0.438371146789078,2.49185147134243E-15,0.898794046299167));
#173=DIRECTION('',(-0.898794046299167,4.97648329086324E-15,-0.438371146789078));
#174=DIRECTION('',(-0.438371146789078,2.49185147134243E-15,0.898794046299167));
#175=DIRECTION('center_axis',(-0.898794046299167,4.97648329086324E-15,-0.438371146789077));
#176=DIRECTION('ref_axis',(-5.56518934045559E-15,-1.,5.81145795119949E-17));
#177=DIRECTION('',(5.56518934045559E-15,1.,-5.81145795119957E-17));
#178=DIRECTION('center_axis',(-0.438371146789077,2.49185147134243E-15,0.898794046299167));
#179=DIRECTION('ref_axis',(5.56518934045559E-15,1.,-5.81145795119949E-17));
#180=CARTESIAN_POINT('',(0.,0.,0.));
#181=CARTESIAN_POINT('Origin',(-765.290145242123,-155.,83.8174075511897));
#182=CARTESIAN_POINT('',(-765.391774305083,-99.9999999999999,27.5448796096944));
#183=CARTESIAN_POINT('',(-765.215606758914,-99.9999999999999,125.089743996567));
#184=CARTESIAN_POINT('',(-765.236571198916,-99.9999999999999,113.481627169819));
#185=CARTESIAN_POINT('',(-765.215606758912,100.,125.089743996567));
#186=CARTESIAN_POINT('',(-765.215606758914,-155.,125.089743996567));
#187=CARTESIAN_POINT('',(-765.391774305082,100.,27.5448796096944));
#188=CARTESIAN_POINT('',(-765.236571198915,100.,113.481627169819));
#189=CARTESIAN_POINT('',(-765.391774305084,-155.,27.5448796096944));
#190=CARTESIAN_POINT('Origin',(-631.201218113785,99.9999999999994,142.903873606224));
#191=CARTESIAN_POINT('',(-507.44911396464,99.9999999999987,126.007398973955));
#192=CARTESIAN_POINT('',(-641.128047269457,99.9999999999994,125.531498723347));
#193=CARTESIAN_POINT('',(-505.19068449017,99.9999999999987,121.376932346513));
#194=CARTESIAN_POINT('',(-537.88776638579,99.9999999999989,188.415884965535));
#195=CARTESIAN_POINT('',(-752.359456110826,100.,0.824667551326416));
#196=CARTESIAN_POINT('',(-598.504136218165,99.9999999999992,75.8649209872025));
#197=CARTESIAN_POINT('',(-785.056538006445,100.,67.8636201703479));
#198=CARTESIAN_POINT('Origin',(-651.116595909217,-155.000000000001,125.495939247494));
#199=CARTESIAN_POINT('',(-507.449113964641,-100.000000000001,126.007398973955));
#200=CARTESIAN_POINT('',(-641.128047269458,-100.000000000001,125.531498723347));
#201=CARTESIAN_POINT('',(-507.449113964642,-155.000000000001,126.007398973955));
#202=CARTESIAN_POINT('Origin',(-785.056538006447,-155.,67.8636201703479));
#203=CARTESIAN_POINT('',(-752.359456110827,-100.,0.824667551326426));
#204=CARTESIAN_POINT('',(-752.359456110827,-155.,0.824667551326428));
#205=CARTESIAN_POINT('',(-785.056538006446,-99.9999999999998,67.8636201703479));
#206=CARTESIAN_POINT('Origin',(-631.201218113786,-100.000000000001,142.903873606224));
#207=CARTESIAN_POINT('',(-505.190684490171,-100.000000000001,121.376932346513));
#208=CARTESIAN_POINT('',(-598.504136218166,-100.000000000001,75.8649209872026));
#209=CARTESIAN_POINT('',(-537.887766385791,-100.000000000001,188.415884965535));
#210=CARTESIAN_POINT('Origin',(-537.887766385791,-155.000000000001,188.415884965535));
#211=CARTESIAN_POINT('',(-505.190684490172,-155.000000000001,121.376932346513));
#212=CARTESIAN_POINT('Origin',(-598.504136218167,-155.000000000001,75.8649209872026));
#213=UNCERTAINTY_MEASURE_WITH_UNIT(LENGTH_MEASURE(0.01),#217,
'DISTANCE_ACCURACY_VALUE',
'Maximum model space distance between geometric entities at asserted c
onnectivities');
#214=UNCERTAINTY_MEASURE_WITH_UNIT(LENGTH_MEASURE(0.01),#217,
'DISTANCE_ACCURACY_VALUE',
'Maximum model space distance between geometric entities at asserted c
onnectivities');
#215=(
GEOMETRIC_REPRESENTATION_CONTEXT(3)
GLOBAL_UNCERTAINTY_ASSIGNED_CONTEXT((#213))
GLOBAL_UNIT_ASSIGNED_CONTEXT((#217,#219,#220))
REPRESENTATION_CONTEXT('','3D')
);
#216=(
GEOMETRIC_REPRESENTATION_CONTEXT(3)
GLOBAL_UNCERTAINTY_ASSIGNED_CONTEXT((#214))
GLOBAL_UNIT_ASSIGNED_CONTEXT((#217,#219,#220))
REPRESENTATION_CONTEXT('','3D')
);
#217=(
LENGTH_UNIT()
NAMED_UNIT(*)
SI_UNIT(.MILLI.,.METRE.)
);
#218=(
LENGTH_UNIT()
NAMED_UNIT(*)
SI_UNIT($,.METRE.)
);
#219=(
NAMED_UNIT(*)
PLANE_ANGLE_UNIT()
SI_UNIT($,.RADIAN.)
);
#220=(
NAMED_UNIT(*)
SI_UNIT($,.STERADIAN.)
SOLID_ANGLE_UNIT()
);
#221=SHAPE_DEFINITION_REPRESENTATION(#222,#223);
#222=PRODUCT_DEFINITION_SHAPE('',$,#225);
#223=SHAPE_REPRESENTATION('',(#141),#215);
#224=PRODUCT_DEFINITION_CONTEXT('part definition',#229,'design');
#225=PRODUCT_DEFINITION('TripodLeg-Endcaps-WeightBrackets',
'TripodLeg-Endcaps-WeightBrackets v62',#226,#224);
#226=PRODUCT_DEFINITION_FORMATION('',$,#231);
#227=PRODUCT_RELATED_PRODUCT_CATEGORY(
'TripodLeg-Endcaps-WeightBrackets v62',
'TripodLeg-Endcaps-WeightBrackets v62',(#231));
#228=APPLICATION_PROTOCOL_DEFINITION('international standard',
'automotive_design',2009,#229);
#229=APPLICATION_CONTEXT(
'Core Data for Automotive Mechanical Design Process');
#230=PRODUCT_CONTEXT('part definition',#229,'mechanical');
#231=PRODUCT('TripodLeg-Endcaps-WeightBrackets',
'TripodLeg-Endcaps-WeightBrackets v62',$,(#230));
#232=PRESENTATION_STYLE_ASSIGNMENT((#235));
#233=PRESENTATION_STYLE_ASSIGNMENT((#236));
#234=PRESENTATION_STYLE_ASSIGNMENT((#237));
#235=SURFACE_STYLE_USAGE(.BOTH.,#238);
#236=SURFACE_STYLE_USAGE(.BOTH.,#239);
#237=SURFACE_STYLE_USAGE(.BOTH.,#240);
#238=SURFACE_SIDE_STYLE('',(#241));
#239=SURFACE_SIDE_STYLE('',(#242));
#240=SURFACE_SIDE_STYLE('',(#243));
#241=SURFACE_STYLE_FILL_AREA(#244);
#242=SURFACE_STYLE_FILL_AREA(#245);
#243=SURFACE_STYLE_FILL_AREA(#246);
#244=FILL_AREA_STYLE('Steel - Satin',(#247));
#245=FILL_AREA_STYLE('Plastic - Translucent Matte (Red)',(#248));
#246=FILL_AREA_STYLE('Concrete',(#249));
#247=FILL_AREA_STYLE_COLOUR('Steel - Satin',#250);
#248=FILL_AREA_STYLE_COLOUR('Plastic - Translucent Matte (Red)',#251);
#249=FILL_AREA_STYLE_COLOUR('Concrete',#252);
#250=COLOUR_RGB('Steel - Satin',0.627450980392157,0.627450980392157,0.627450980392157);
#251=COLOUR_RGB('Plastic - Translucent Matte (Red)',0.768627450980392,0.207843137254902,
0.152941176470588);
#252=COLOUR_RGB('Concrete',0.,0.,0.);
ENDSEC;
END-ISO-10303-21;
