ISO-10303-21;
HEADER;
/* Generated by software containing ST-Developer
 * from STEP Tools, Inc. (www.steptools.com) 
 */

FILE_DESCRIPTION(
/* description */ (''),
/* implementation_level */ '2;1');

FILE_NAME(
/* name */ 'TripodLeg-Mass-Plateau.step',
/* time_stamp */ '2026-04-06T13:27:57+02:00',
/* author */ (''),
/* organization */ (''),
/* preprocessor_version */ 'ST-DEVELOPER v20.1',
/* originating_system */ 'Autodesk Translation Framework v14.24.0.0',
/* authorisation */ '');

FILE_SCHEMA (('AUTOMOTIVE_DESIGN { 1 0 10303 214 3 1 1 }'));
ENDSEC;

DATA;
#10=MECHANICAL_DESIGN_GEOMETRIC_PRESENTATION_REPRESENTATION('',(#13),#455);
#11=SHAPE_REPRESENTATION_RELATIONSHIP('SRR','None',#462,#12);
#12=ADVANCED_BREP_SHAPE_REPRESENTATION('',(#14),#454);
#13=STYLED_ITEM('',(#472),#14);
#14=MANIFOLD_SOLID_BREP('Tile-plateau-Glued-02',#267);
#15=CIRCLE('',#284,17.55);
#16=CIRCLE('',#285,17.55);
#17=CIRCLE('',#287,17.55);
#18=CIRCLE('',#288,8.);
#19=CIRCLE('',#289,8.);
#20=CIRCLE('',#291,17.55);
#21=CIRCLE('',#293,8.);
#22=CIRCLE('',#296,8.);
#23=CYLINDRICAL_SURFACE('',#283,17.55);
#24=CYLINDRICAL_SURFACE('',#290,17.55);
#25=CYLINDRICAL_SURFACE('',#292,8.);
#26=CYLINDRICAL_SURFACE('',#295,8.);
#27=FACE_OUTER_BOUND('',#41,.T.);
#28=FACE_OUTER_BOUND('',#42,.T.);
#29=FACE_OUTER_BOUND('',#43,.T.);
#30=FACE_OUTER_BOUND('',#44,.T.);
#31=FACE_OUTER_BOUND('',#45,.T.);
#32=FACE_OUTER_BOUND('',#46,.T.);
#33=FACE_OUTER_BOUND('',#47,.T.);
#34=FACE_OUTER_BOUND('',#48,.T.);
#35=FACE_OUTER_BOUND('',#49,.T.);
#36=FACE_OUTER_BOUND('',#50,.T.);
#37=FACE_OUTER_BOUND('',#51,.T.);
#38=FACE_OUTER_BOUND('',#52,.T.);
#39=FACE_OUTER_BOUND('',#53,.T.);
#40=FACE_OUTER_BOUND('',#54,.T.);
#41=EDGE_LOOP('',(#171,#172,#173,#174));
#42=EDGE_LOOP('',(#175,#176,#177,#178));
#43=EDGE_LOOP('',(#179,#180,#181,#182));
#44=EDGE_LOOP('',(#183,#184,#185,#186,#187,#188,#189,#190,#191,#192,#193,
#194));
#45=EDGE_LOOP('',(#195,#196,#197,#198));
#46=EDGE_LOOP('',(#199,#200,#201,#202));
#47=EDGE_LOOP('',(#203,#204,#205,#206));
#48=EDGE_LOOP('',(#207,#208,#209,#210));
#49=EDGE_LOOP('',(#211,#212,#213,#214));
#50=EDGE_LOOP('',(#215,#216,#217,#218));
#51=EDGE_LOOP('',(#219,#220,#221,#222));
#52=EDGE_LOOP('',(#223,#224,#225,#226));
#53=EDGE_LOOP('',(#227,#228,#229,#230));
#54=EDGE_LOOP('',(#231,#232,#233,#234,#235,#236,#237,#238,#239,#240,#241,
#242));
#55=LINE('',#381,#83);
#56=LINE('',#383,#84);
#57=LINE('',#385,#85);
#58=LINE('',#386,#86);
#59=LINE('',#390,#87);
#60=LINE('',#392,#88);
#61=LINE('',#394,#89);
#62=LINE('',#395,#90);
#63=LINE('',#400,#91);
#64=LINE('',#404,#92);
#65=LINE('',#409,#93);
#66=LINE('',#411,#94);
#67=LINE('',#413,#95);
#68=LINE('',#415,#96);
#69=LINE('',#417,#97);
#70=LINE('',#421,#98);
#71=LINE('',#426,#99);
#72=LINE('',#429,#100);
#73=LINE('',#430,#101);
#74=LINE('',#433,#102);
#75=LINE('',#437,#103);
#76=LINE('',#438,#104);
#77=LINE('',#442,#105);
#78=LINE('',#443,#106);
#79=LINE('',#444,#107);
#80=LINE('',#446,#108);
#81=LINE('',#448,#109);
#82=LINE('',#450,#110);
#83=VECTOR('',#307,10.);
#84=VECTOR('',#308,10.);
#85=VECTOR('',#309,10.);
#86=VECTOR('',#310,10.);
#87=VECTOR('',#313,10.);
#88=VECTOR('',#314,10.);
#89=VECTOR('',#315,10.);
#90=VECTOR('',#316,10.);
#91=VECTOR('',#321,10.);
#92=VECTOR('',#326,10.);
#93=VECTOR('',#331,10.);
#94=VECTOR('',#332,10.);
#95=VECTOR('',#333,10.);
#96=VECTOR('',#334,10.);
#97=VECTOR('',#335,10.);
#98=VECTOR('',#340,10.);
#99=VECTOR('',#347,10.);
#100=VECTOR('',#350,10.);
#101=VECTOR('',#351,10.);
#102=VECTOR('',#354,10.);
#103=VECTOR('',#359,10.);
#104=VECTOR('',#360,10.);
#105=VECTOR('',#363,10.);
#106=VECTOR('',#364,10.);
#107=VECTOR('',#365,10.);
#108=VECTOR('',#368,10.);
#109=VECTOR('',#371,10.);
#110=VECTOR('',#374,10.);
#111=VERTEX_POINT('',#379);
#112=VERTEX_POINT('',#380);
#113=VERTEX_POINT('',#382);
#114=VERTEX_POINT('',#384);
#115=VERTEX_POINT('',#388);
#116=VERTEX_POINT('',#389);
#117=VERTEX_POINT('',#391);
#118=VERTEX_POINT('',#393);
#119=VERTEX_POINT('',#397);
#120=VERTEX_POINT('',#399);
#121=VERTEX_POINT('',#403);
#122=VERTEX_POINT('',#406);
#123=VERTEX_POINT('',#408);
#124=VERTEX_POINT('',#410);
#125=VERTEX_POINT('',#412);
#126=VERTEX_POINT('',#414);
#127=VERTEX_POINT('',#416);
#128=VERTEX_POINT('',#420);
#129=VERTEX_POINT('',#424);
#130=VERTEX_POINT('',#428);
#131=VERTEX_POINT('',#432);
#132=VERTEX_POINT('',#436);
#133=VERTEX_POINT('',#440);
#134=VERTEX_POINT('',#441);
#135=EDGE_CURVE('',#111,#112,#55,.T.);
#136=EDGE_CURVE('',#112,#113,#56,.T.);
#137=EDGE_CURVE('',#114,#113,#57,.T.);
#138=EDGE_CURVE('',#114,#111,#58,.T.);
#139=EDGE_CURVE('',#115,#116,#59,.T.);
#140=EDGE_CURVE('',#116,#117,#60,.T.);
#141=EDGE_CURVE('',#118,#117,#61,.T.);
#142=EDGE_CURVE('',#118,#115,#62,.T.);
#143=EDGE_CURVE('',#119,#115,#15,.T.);
#144=EDGE_CURVE('',#119,#120,#63,.T.);
#145=EDGE_CURVE('',#120,#116,#16,.T.);
#146=EDGE_CURVE('',#120,#121,#64,.T.);
#147=EDGE_CURVE('',#111,#121,#17,.T.);
#148=EDGE_CURVE('',#122,#114,#18,.T.);
#149=EDGE_CURVE('',#122,#123,#65,.T.);
#150=EDGE_CURVE('',#123,#124,#66,.T.);
#151=EDGE_CURVE('',#124,#125,#67,.T.);
#152=EDGE_CURVE('',#125,#126,#68,.T.);
#153=EDGE_CURVE('',#126,#127,#69,.T.);
#154=EDGE_CURVE('',#117,#127,#19,.T.);
#155=EDGE_CURVE('',#121,#128,#70,.T.);
#156=EDGE_CURVE('',#112,#128,#20,.T.);
#157=EDGE_CURVE('',#113,#129,#21,.T.);
#158=EDGE_CURVE('',#129,#122,#71,.T.);
#159=EDGE_CURVE('',#130,#129,#72,.T.);
#160=EDGE_CURVE('',#123,#130,#73,.T.);
#161=EDGE_CURVE('',#127,#131,#74,.T.);
#162=EDGE_CURVE('',#131,#118,#22,.T.);
#163=EDGE_CURVE('',#126,#132,#75,.T.);
#164=EDGE_CURVE('',#131,#132,#76,.T.);
#165=EDGE_CURVE('',#133,#134,#77,.T.);
#166=EDGE_CURVE('',#125,#133,#78,.T.);
#167=EDGE_CURVE('',#124,#134,#79,.T.);
#168=EDGE_CURVE('',#134,#130,#80,.T.);
#169=EDGE_CURVE('',#128,#119,#81,.T.);
#170=EDGE_CURVE('',#132,#133,#82,.T.);
#171=ORIENTED_EDGE('',*,*,#135,.T.);
#172=ORIENTED_EDGE('',*,*,#136,.T.);
#173=ORIENTED_EDGE('',*,*,#137,.F.);
#174=ORIENTED_EDGE('',*,*,#138,.T.);
#175=ORIENTED_EDGE('',*,*,#139,.T.);
#176=ORIENTED_EDGE('',*,*,#140,.T.);
#177=ORIENTED_EDGE('',*,*,#141,.F.);
#178=ORIENTED_EDGE('',*,*,#142,.T.);
#179=ORIENTED_EDGE('',*,*,#139,.F.);
#180=ORIENTED_EDGE('',*,*,#143,.F.);
#181=ORIENTED_EDGE('',*,*,#144,.T.);
#182=ORIENTED_EDGE('',*,*,#145,.T.);
#183=ORIENTED_EDGE('',*,*,#140,.F.);
#184=ORIENTED_EDGE('',*,*,#145,.F.);
#185=ORIENTED_EDGE('',*,*,#146,.T.);
#186=ORIENTED_EDGE('',*,*,#147,.F.);
#187=ORIENTED_EDGE('',*,*,#138,.F.);
#188=ORIENTED_EDGE('',*,*,#148,.F.);
#189=ORIENTED_EDGE('',*,*,#149,.T.);
#190=ORIENTED_EDGE('',*,*,#150,.T.);
#191=ORIENTED_EDGE('',*,*,#151,.T.);
#192=ORIENTED_EDGE('',*,*,#152,.T.);
#193=ORIENTED_EDGE('',*,*,#153,.T.);
#194=ORIENTED_EDGE('',*,*,#154,.F.);
#195=ORIENTED_EDGE('',*,*,#135,.F.);
#196=ORIENTED_EDGE('',*,*,#147,.T.);
#197=ORIENTED_EDGE('',*,*,#155,.T.);
#198=ORIENTED_EDGE('',*,*,#156,.F.);
#199=ORIENTED_EDGE('',*,*,#157,.T.);
#200=ORIENTED_EDGE('',*,*,#158,.T.);
#201=ORIENTED_EDGE('',*,*,#148,.T.);
#202=ORIENTED_EDGE('',*,*,#137,.T.);
#203=ORIENTED_EDGE('',*,*,#158,.F.);
#204=ORIENTED_EDGE('',*,*,#159,.F.);
#205=ORIENTED_EDGE('',*,*,#160,.F.);
#206=ORIENTED_EDGE('',*,*,#149,.F.);
#207=ORIENTED_EDGE('',*,*,#154,.T.);
#208=ORIENTED_EDGE('',*,*,#161,.T.);
#209=ORIENTED_EDGE('',*,*,#162,.T.);
#210=ORIENTED_EDGE('',*,*,#141,.T.);
#211=ORIENTED_EDGE('',*,*,#161,.F.);
#212=ORIENTED_EDGE('',*,*,#153,.F.);
#213=ORIENTED_EDGE('',*,*,#163,.T.);
#214=ORIENTED_EDGE('',*,*,#164,.F.);
#215=ORIENTED_EDGE('',*,*,#165,.F.);
#216=ORIENTED_EDGE('',*,*,#166,.F.);
#217=ORIENTED_EDGE('',*,*,#151,.F.);
#218=ORIENTED_EDGE('',*,*,#167,.T.);
#219=ORIENTED_EDGE('',*,*,#160,.T.);
#220=ORIENTED_EDGE('',*,*,#168,.F.);
#221=ORIENTED_EDGE('',*,*,#167,.F.);
#222=ORIENTED_EDGE('',*,*,#150,.F.);
#223=ORIENTED_EDGE('',*,*,#155,.F.);
#224=ORIENTED_EDGE('',*,*,#146,.F.);
#225=ORIENTED_EDGE('',*,*,#144,.F.);
#226=ORIENTED_EDGE('',*,*,#169,.F.);
#227=ORIENTED_EDGE('',*,*,#166,.T.);
#228=ORIENTED_EDGE('',*,*,#170,.F.);
#229=ORIENTED_EDGE('',*,*,#163,.F.);
#230=ORIENTED_EDGE('',*,*,#152,.F.);
#231=ORIENTED_EDGE('',*,*,#142,.F.);
#232=ORIENTED_EDGE('',*,*,#162,.F.);
#233=ORIENTED_EDGE('',*,*,#164,.T.);
#234=ORIENTED_EDGE('',*,*,#170,.T.);
#235=ORIENTED_EDGE('',*,*,#165,.T.);
#236=ORIENTED_EDGE('',*,*,#168,.T.);
#237=ORIENTED_EDGE('',*,*,#159,.T.);
#238=ORIENTED_EDGE('',*,*,#157,.F.);
#239=ORIENTED_EDGE('',*,*,#136,.F.);
#240=ORIENTED_EDGE('',*,*,#156,.T.);
#241=ORIENTED_EDGE('',*,*,#169,.T.);
#242=ORIENTED_EDGE('',*,*,#143,.T.);
#243=PLANE('',#281);
#244=PLANE('',#282);
#245=PLANE('',#286);
#246=PLANE('',#294);
#247=PLANE('',#297);
#248=PLANE('',#298);
#249=PLANE('',#299);
#250=PLANE('',#300);
#251=PLANE('',#301);
#252=PLANE('',#302);
#253=ADVANCED_FACE('',(#27),#243,.T.);
#254=ADVANCED_FACE('',(#28),#244,.T.);
#255=ADVANCED_FACE('',(#29),#23,.F.);
#256=ADVANCED_FACE('',(#30),#245,.F.);
#257=ADVANCED_FACE('',(#31),#24,.F.);
#258=ADVANCED_FACE('',(#32),#25,.F.);
#259=ADVANCED_FACE('',(#33),#246,.F.);
#260=ADVANCED_FACE('',(#34),#26,.F.);
#261=ADVANCED_FACE('',(#35),#247,.F.);
#262=ADVANCED_FACE('',(#36),#248,.F.);
#263=ADVANCED_FACE('',(#37),#249,.F.);
#264=ADVANCED_FACE('',(#38),#250,.F.);
#265=ADVANCED_FACE('',(#39),#251,.F.);
#266=ADVANCED_FACE('',(#40),#252,.T.);
#267=CLOSED_SHELL('',(#253,#254,#255,#256,#257,#258,#259,#260,#261,#262,
#263,#264,#265,#266));
#268=DERIVED_UNIT_ELEMENT(#270,1.);
#269=DERIVED_UNIT_ELEMENT(#457,-3.);
#270=(
MASS_UNIT()
NAMED_UNIT(*)
SI_UNIT(.KILO.,.GRAM.)
);
#271=DERIVED_UNIT((#268,#269));
#272=MEASURE_REPRESENTATION_ITEM('density measure',
POSITIVE_RATIO_MEASURE(7850.),#271);
#273=PROPERTY_DEFINITION_REPRESENTATION(#278,#275);
#274=PROPERTY_DEFINITION_REPRESENTATION(#279,#276);
#275=REPRESENTATION('material name',(#277),#454);
#276=REPRESENTATION('density',(#272),#454);
#277=DESCRIPTIVE_REPRESENTATION_ITEM('Steel','Steel');
#278=PROPERTY_DEFINITION('material property','material name',#464);
#279=PROPERTY_DEFINITION('material property','density of part',#464);
#280=AXIS2_PLACEMENT_3D('',#377,#303,#304);
#281=AXIS2_PLACEMENT_3D('',#378,#305,#306);
#282=AXIS2_PLACEMENT_3D('',#387,#311,#312);
#283=AXIS2_PLACEMENT_3D('',#396,#317,#318);
#284=AXIS2_PLACEMENT_3D('',#398,#319,#320);
#285=AXIS2_PLACEMENT_3D('',#401,#322,#323);
#286=AXIS2_PLACEMENT_3D('',#402,#324,#325);
#287=AXIS2_PLACEMENT_3D('',#405,#327,#328);
#288=AXIS2_PLACEMENT_3D('',#407,#329,#330);
#289=AXIS2_PLACEMENT_3D('',#418,#336,#337);
#290=AXIS2_PLACEMENT_3D('',#419,#338,#339);
#291=AXIS2_PLACEMENT_3D('',#422,#341,#342);
#292=AXIS2_PLACEMENT_3D('',#423,#343,#344);
#293=AXIS2_PLACEMENT_3D('',#425,#345,#346);
#294=AXIS2_PLACEMENT_3D('',#427,#348,#349);
#295=AXIS2_PLACEMENT_3D('',#431,#352,#353);
#296=AXIS2_PLACEMENT_3D('',#434,#355,#356);
#297=AXIS2_PLACEMENT_3D('',#435,#357,#358);
#298=AXIS2_PLACEMENT_3D('',#439,#361,#362);
#299=AXIS2_PLACEMENT_3D('',#445,#366,#367);
#300=AXIS2_PLACEMENT_3D('',#447,#369,#370);
#301=AXIS2_PLACEMENT_3D('',#449,#372,#373);
#302=AXIS2_PLACEMENT_3D('',#451,#375,#376);
#303=DIRECTION('axis',(0.,0.,1.));
#304=DIRECTION('refdir',(1.,0.,0.));
#305=DIRECTION('center_axis',(0.438371146789077,-3.33066907387547E-16,-0.898794046299167));
#306=DIRECTION('ref_axis',(0.485764211055512,-0.841368294046759,0.236923036090758));
#307=DIRECTION('',(0.898794046299167,-2.77555756156289E-16,0.438371146789077));
#308=DIRECTION('',(-6.10622663543836E-16,-1.,1.38777878078145E-16));
#309=DIRECTION('',(0.898794046299167,-2.22044604925031E-16,0.438371146789077));
#310=DIRECTION('',(4.44089209850063E-16,1.,-1.66533453693774E-16));
#311=DIRECTION('center_axis',(0.438371146789077,-3.33066907387547E-16,-0.898794046299167));
#312=DIRECTION('ref_axis',(0.485764211055512,-0.841368294046759,0.236923036090758));
#313=DIRECTION('',(-0.898794046299167,2.77555756156289E-16,-0.438371146789077));
#314=DIRECTION('',(4.44089209850063E-16,1.,-1.66533453693774E-16));
#315=DIRECTION('',(-0.898794046299167,2.22044604925031E-16,-0.438371146789077));
#316=DIRECTION('',(-6.10622663543836E-16,-1.,1.38777878078145E-16));
#317=DIRECTION('center_axis',(0.898794046299167,-2.22044604925031E-16,0.438371146789077));
#318=DIRECTION('ref_axis',(-2.53042284814851E-16,-1.,5.54632182902072E-17));
#319=DIRECTION('center_axis',(-0.898794046299167,3.88578058618805E-16,-0.438371146789077));
#320=DIRECTION('ref_axis',(-3.16302856018563E-16,-1.,-2.77555756156289E-17));
#321=DIRECTION('',(-0.898794046299167,2.77555756156289E-16,-0.438371146789077));
#322=DIRECTION('center_axis',(-0.898794046299167,3.33066907387547E-16,-0.438371146789077));
#323=DIRECTION('ref_axis',(-3.79563427222276E-16,-1.,0.));
#324=DIRECTION('center_axis',(0.898794046299167,-3.33066907387547E-16,0.438371146789077));
#325=DIRECTION('ref_axis',(-0.438371146789077,1.38777878078145E-16,0.898794046299167));
#326=DIRECTION('',(-4.9960036108132E-16,-1.,-2.86001036704467E-17));
#327=DIRECTION('center_axis',(-0.898794046299167,3.33066907387547E-16,-0.438371146789077));
#328=DIRECTION('ref_axis',(-3.79563427222276E-16,-1.,0.));
#329=DIRECTION('center_axis',(-0.898794046299167,3.33066907387547E-16,-0.438371146789077));
#330=DIRECTION('ref_axis',(-0.257209314171168,0.809776330178916,0.527357244935124));
#331=DIRECTION('',(-4.9960036108132E-16,-1.,-2.86001036704467E-17));
#332=DIRECTION('',(-0.438371146789077,2.22044604925031E-16,0.898794046299167));
#333=DIRECTION('',(4.9960036108132E-16,1.,2.86001036704467E-17));
#334=DIRECTION('',(0.438371146789077,-2.22044604925031E-16,-0.898794046299167));
#335=DIRECTION('',(-4.9960036108132E-16,-1.,-2.86001036704467E-17));
#336=DIRECTION('center_axis',(-0.898794046299167,3.33066907387547E-16,-0.438371146789077));
#337=DIRECTION('ref_axis',(-0.25720931417117,-0.809776330178916,0.527357244935123));
#338=DIRECTION('center_axis',(0.898794046299167,-2.22044604925031E-16,0.438371146789077));
#339=DIRECTION('ref_axis',(-2.53042284814851E-16,-1.,5.54632182902072E-17));
#340=DIRECTION('',(0.898794046299167,-2.77555756156289E-16,0.438371146789077));
#341=DIRECTION('center_axis',(-0.898794046299167,3.88578058618805E-16,-0.438371146789077));
#342=DIRECTION('ref_axis',(-3.16302856018563E-16,-1.,-2.77555756156289E-17));
#343=DIRECTION('center_axis',(-0.898794046299167,2.22044604925031E-16,-0.438371146789077));
#344=DIRECTION('ref_axis',(-0.257209314171168,0.809776330178916,0.527357244935124));
#345=DIRECTION('center_axis',(0.898794046299167,-3.88578058618805E-16,0.438371146789077));
#346=DIRECTION('ref_axis',(-0.257209314171168,0.809776330178916,0.527357244935124));
#347=DIRECTION('',(-0.898794046299167,2.22044604925031E-16,-0.438371146789077));
#348=DIRECTION('center_axis',(-0.438371146789077,2.22044604925031E-16,0.898794046299167));
#349=DIRECTION('ref_axis',(0.898794046299167,-4.44089209850063E-16,0.438371146789077));
#350=DIRECTION('',(4.9960036108132E-16,1.,2.86001036704467E-17));
#351=DIRECTION('',(0.898794046299167,-4.44089209850063E-16,0.438371146789077));
#352=DIRECTION('center_axis',(0.898794046299167,-2.22044604925031E-16,0.438371146789077));
#353=DIRECTION('ref_axis',(-0.25720931417117,-0.809776330178916,0.527357244935123));
#354=DIRECTION('',(0.898794046299167,-2.22044604925031E-16,0.438371146789077));
#355=DIRECTION('center_axis',(0.898794046299167,-3.88578058618805E-16,0.438371146789077));
#356=DIRECTION('ref_axis',(-0.25720931417117,-0.809776330178916,0.527357244935123));
#357=DIRECTION('center_axis',(-0.438371146789077,2.22044604925031E-16,0.898794046299167));
#358=DIRECTION('ref_axis',(0.898794046299167,-4.44089209850063E-16,0.438371146789077));
#359=DIRECTION('',(0.898794046299167,-4.44089209850063E-16,0.438371146789077));
#360=DIRECTION('',(4.9960036108132E-16,1.,2.86001036704467E-17));
#361=DIRECTION('center_axis',(0.438371146789077,-2.22044604925031E-16,-0.898794046299167));
#362=DIRECTION('ref_axis',(-0.898794046299167,4.44089209850063E-16,-0.438371146789077));
#363=DIRECTION('',(-4.9960036108132E-16,-1.,-2.86001036704467E-17));
#364=DIRECTION('',(0.898794046299167,-4.44089209850063E-16,0.438371146789077));
#365=DIRECTION('',(0.898794046299167,-4.44089209850063E-16,0.438371146789077));
#366=DIRECTION('center_axis',(5.55111512312578E-16,1.,2.86001036704467E-17));
#367=DIRECTION('ref_axis',(-0.898794046299167,4.44089209850063E-16,-0.438371146789077));
#368=DIRECTION('',(0.438371146789077,-2.22044604925031E-16,-0.898794046299167));
#369=DIRECTION('center_axis',(-0.438371146789077,2.22044604925031E-16,0.898794046299167));
#370=DIRECTION('ref_axis',(0.898794046299167,-4.44089209850063E-16,0.438371146789077));
#371=DIRECTION('',(4.9960036108132E-16,1.,2.86001036704467E-17));
#372=DIRECTION('center_axis',(-5.55111512312578E-16,-1.,-2.86001036704467E-17));
#373=DIRECTION('ref_axis',(0.898794046299167,-4.44089209850063E-16,0.438371146789077));
#374=DIRECTION('',(-0.438371146789077,2.22044604925031E-16,0.898794046299167));
#375=DIRECTION('center_axis',(0.898794046299167,-3.88578058618805E-16,0.438371146789077));
#376=DIRECTION('ref_axis',(-0.438371146789077,1.94289029309402E-16,0.898794046299167));
#377=CARTESIAN_POINT('',(0.,0.,0.));
#378=CARTESIAN_POINT('Origin',(-584.767739053794,0.924116554816941,65.3657183011727));
#379=CARTESIAN_POINT('',(-620.269080068109,-16.0899869084903,48.0505573507018));
#380=CARTESIAN_POINT('',(-530.389675438192,-16.0899869084903,91.8876720296096));
#381=CARTESIAN_POINT('',(-620.269080068109,-16.0899869084903,48.0505573507018));
#382=CARTESIAN_POINT('',(-530.389675438192,-21.3807197894596,91.8876720296095));
#383=CARTESIAN_POINT('',(-530.389675438192,0.462058277408595,91.8876720296095));
#384=CARTESIAN_POINT('',(-620.269080068109,-21.3807197894596,48.0505573507018));
#385=CARTESIAN_POINT('',(-620.269080068109,-21.3807197894596,48.0505573507018));
#386=CARTESIAN_POINT('',(-620.269080068109,0.462058277408595,48.0505573507018));
#387=CARTESIAN_POINT('Origin',(-584.767739053794,0.924116554816941,65.3657183011727));
#388=CARTESIAN_POINT('',(-530.389675438192,16.0899869084908,91.8876720296096));
#389=CARTESIAN_POINT('',(-620.269080068109,16.0899869084908,48.0505573507018));
#390=CARTESIAN_POINT('',(-620.269080068109,16.0899869084908,48.0505573507018));
#391=CARTESIAN_POINT('',(-620.269080068109,21.38071978946,48.0505573507018));
#392=CARTESIAN_POINT('',(-620.269080068109,0.462058277408595,48.0505573507018));
#393=CARTESIAN_POINT('',(-530.389675438192,21.3807197894601,91.8876720296096));
#394=CARTESIAN_POINT('',(-620.269080068109,21.3807197894601,48.0505573507018));
#395=CARTESIAN_POINT('',(-530.389675438192,0.462058277408595,91.8876720296095));
#396=CARTESIAN_POINT('Origin',(-617.196888834464,2.48689957516035E-13,41.7516318622937));
#397=CARTESIAN_POINT('',(-534.988979273356,1.32382022948772,101.317642351437));
#398=CARTESIAN_POINT('Origin',(-527.317484204547,2.48689957516035E-13,85.5887465412014));
#399=CARTESIAN_POINT('',(-624.868383903273,1.32382022948804,57.4805276725291));
#400=CARTESIAN_POINT('',(-624.868383903273,1.32382022948779,57.4805276725291));
#401=CARTESIAN_POINT('Origin',(-617.196888834464,2.48689957516035E-13,41.7516318622937));
#402=CARTESIAN_POINT('Origin',(-617.196888834464,2.48689957516035E-13,41.7516318622937));
#403=CARTESIAN_POINT('',(-624.868383903273,-1.3238202294875,57.4805276725291));
#404=CARTESIAN_POINT('',(-624.868383903273,0.924116554816976,57.4805276725291));
#405=CARTESIAN_POINT('Origin',(-617.196888834464,2.48689957516035E-13,41.7516318622937));
#406=CARTESIAN_POINT('',(-624.868383903273,-28.9827534923786,57.4805276725291));
#407=CARTESIAN_POINT('Origin',(-621.36141472896,-28.9827534923786,50.2901753021358));
#408=CARTESIAN_POINT('',(-624.868383903273,-49.075883445183,57.4805276725291));
#409=CARTESIAN_POINT('',(-624.868383903273,0.924116554816976,57.4805276725291));
#410=CARTESIAN_POINT('',(-627.060239637218,-49.075883445183,61.974497904025));
#411=CARTESIAN_POINT('',(-625.964311770246,-49.075883445183,59.727512788277));
#412=CARTESIAN_POINT('',(-627.060239637218,50.924116554817,61.974497904025));
#413=CARTESIAN_POINT('',(-627.060239637218,0.924116554816976,61.974497904025));
#414=CARTESIAN_POINT('',(-624.868383903273,50.924116554817,57.4805276725291));
#415=CARTESIAN_POINT('',(-625.964311770245,50.9241165548169,59.727512788277));
#416=CARTESIAN_POINT('',(-624.868383903273,28.9827534923792,57.4805276725291));
#417=CARTESIAN_POINT('',(-624.868383903273,0.924116554816976,57.4805276725291));
#418=CARTESIAN_POINT('Origin',(-621.36141472896,28.9827534923791,50.2901753021358));
#419=CARTESIAN_POINT('Origin',(-617.196888834464,2.48689957516035E-13,41.7516318622937));
#420=CARTESIAN_POINT('',(-534.988979273356,-1.32382022948729,101.317642351437));
#421=CARTESIAN_POINT('',(-624.868383903273,-1.32382022948725,57.4805276725291));
#422=CARTESIAN_POINT('Origin',(-527.317484204547,2.48689957516035E-13,85.5887465412014));
#423=CARTESIAN_POINT('Origin',(-621.36141472896,-28.9827534923786,50.2901753021358));
#424=CARTESIAN_POINT('',(-534.988979273356,-28.9827534923787,101.317642351437));
#425=CARTESIAN_POINT('Origin',(-531.482010099043,-28.9827534923787,94.1272899810436));
#426=CARTESIAN_POINT('',(-624.868383903273,-28.9827534923786,57.4805276725291));
#427=CARTESIAN_POINT('Origin',(-579.928681588314,0.924116554816905,79.399085011983));
#428=CARTESIAN_POINT('',(-534.988979273356,-49.0758834451831,101.317642351437));
#429=CARTESIAN_POINT('',(-534.988979273356,0.924116554816941,101.317642351437));
#430=CARTESIAN_POINT('',(-579.928681588314,-49.0758834451831,79.399085011983));
#431=CARTESIAN_POINT('Origin',(-621.36141472896,28.9827534923791,50.2901753021358));
#432=CARTESIAN_POINT('',(-534.988979273356,28.9827534923791,101.317642351437));
#433=CARTESIAN_POINT('',(-624.868383903273,28.9827534923791,57.4805276725291));
#434=CARTESIAN_POINT('Origin',(-531.482010099043,28.9827534923791,94.1272899810436));
#435=CARTESIAN_POINT('Origin',(-579.928681588314,0.924116554816905,79.399085011983));
#436=CARTESIAN_POINT('',(-534.988979273356,50.9241165548169,101.317642351437));
#437=CARTESIAN_POINT('',(-579.928681588314,50.9241165548169,79.399085011983));
#438=CARTESIAN_POINT('',(-534.988979273356,0.924116554816941,101.317642351437));
#439=CARTESIAN_POINT('Origin',(-582.12053732226,0.924116554816941,83.8930552434788));
#440=CARTESIAN_POINT('',(-537.180835007301,50.9241165548169,105.811612582933));
#441=CARTESIAN_POINT('',(-537.180835007301,-49.0758834451831,105.811612582933));
#442=CARTESIAN_POINT('',(-537.180835007301,0.924116554816905,105.811612582933));
#443=CARTESIAN_POINT('',(-582.12053732226,50.9241165548169,83.8930552434788));
#444=CARTESIAN_POINT('',(-582.12053732226,-49.0758834451831,83.8930552434788));
#445=CARTESIAN_POINT('Origin',(-581.024609455287,-49.0758834451831,81.6460701277309));
#446=CARTESIAN_POINT('',(-536.084907140329,-49.0758834451831,103.564627467185));
#447=CARTESIAN_POINT('Origin',(-579.928681588314,0.924116554816905,79.399085011983));
#448=CARTESIAN_POINT('',(-534.988979273356,0.924116554816941,101.317642351437));
#449=CARTESIAN_POINT('Origin',(-581.024609455287,50.9241165548169,81.6460701277309));
#450=CARTESIAN_POINT('',(-536.084907140329,50.9241165548169,103.564627467185));
#451=CARTESIAN_POINT('Origin',(-527.317484204547,2.48689957516035E-13,85.5887465412014));
#452=UNCERTAINTY_MEASURE_WITH_UNIT(LENGTH_MEASURE(0.01),#456,
'DISTANCE_ACCURACY_VALUE',
'Maximum model space distance between geometric entities at asserted c
onnectivities');
#453=UNCERTAINTY_MEASURE_WITH_UNIT(LENGTH_MEASURE(0.01),#456,
'DISTANCE_ACCURACY_VALUE',
'Maximum model space distance between geometric entities at asserted c
onnectivities');
#454=(
GEOMETRIC_REPRESENTATION_CONTEXT(3)
GLOBAL_UNCERTAINTY_ASSIGNED_CONTEXT((#452))
GLOBAL_UNIT_ASSIGNED_CONTEXT((#456,#458,#459))
REPRESENTATION_CONTEXT('','3D')
);
#455=(
GEOMETRIC_REPRESENTATION_CONTEXT(3)
GLOBAL_UNCERTAINTY_ASSIGNED_CONTEXT((#453))
GLOBAL_UNIT_ASSIGNED_CONTEXT((#456,#458,#459))
REPRESENTATION_CONTEXT('','3D')
);
#456=(
LENGTH_UNIT()
NAMED_UNIT(*)
SI_UNIT(.MILLI.,.METRE.)
);
#457=(
LENGTH_UNIT()
NAMED_UNIT(*)
SI_UNIT($,.METRE.)
);
#458=(
NAMED_UNIT(*)
PLANE_ANGLE_UNIT()
SI_UNIT($,.RADIAN.)
);
#459=(
NAMED_UNIT(*)
SI_UNIT($,.STERADIAN.)
SOLID_ANGLE_UNIT()
);
#460=SHAPE_DEFINITION_REPRESENTATION(#461,#462);
#461=PRODUCT_DEFINITION_SHAPE('',$,#464);
#462=SHAPE_REPRESENTATION('',(#280),#454);
#463=PRODUCT_DEFINITION_CONTEXT('part definition',#468,'design');
#464=PRODUCT_DEFINITION('TripodLeg-Endcaps-WeightBrackets',
'TripodLeg-Endcaps-WeightBrackets v62',#465,#463);
#465=PRODUCT_DEFINITION_FORMATION('',$,#470);
#466=PRODUCT_RELATED_PRODUCT_CATEGORY(
'TripodLeg-Endcaps-WeightBrackets v62',
'TripodLeg-Endcaps-WeightBrackets v62',(#470));
#467=APPLICATION_PROTOCOL_DEFINITION('international standard',
'automotive_design',2009,#468);
#468=APPLICATION_CONTEXT(
'Core Data for Automotive Mechanical Design Process');
#469=PRODUCT_CONTEXT('part definition',#468,'mechanical');
#470=PRODUCT('TripodLeg-Endcaps-WeightBrackets',
'TripodLeg-Endcaps-WeightBrackets v62',$,(#469));
#471=PRESENTATION_STYLE_ASSIGNMENT((#474));
#472=PRESENTATION_STYLE_ASSIGNMENT((#475));
#473=PRESENTATION_STYLE_ASSIGNMENT((#476));
#474=SURFACE_STYLE_USAGE(.BOTH.,#477);
#475=SURFACE_STYLE_USAGE(.BOTH.,#478);
#476=SURFACE_STYLE_USAGE(.BOTH.,#479);
#477=SURFACE_SIDE_STYLE('',(#480));
#478=SURFACE_SIDE_STYLE('',(#481));
#479=SURFACE_SIDE_STYLE('',(#482));
#480=SURFACE_STYLE_FILL_AREA(#483);
#481=SURFACE_STYLE_FILL_AREA(#484);
#482=SURFACE_STYLE_FILL_AREA(#485);
#483=FILL_AREA_STYLE('Steel - Satin',(#486));
#484=FILL_AREA_STYLE('Plastic - Translucent Matte (Red)',(#487));
#485=FILL_AREA_STYLE('Concrete',(#488));
#486=FILL_AREA_STYLE_COLOUR('Steel - Satin',#489);
#487=FILL_AREA_STYLE_COLOUR('Plastic - Translucent Matte (Red)',#490);
#488=FILL_AREA_STYLE_COLOUR('Concrete',#491);
#489=COLOUR_RGB('Steel - Satin',0.627450980392157,0.627450980392157,0.627450980392157);
#490=COLOUR_RGB('Plastic - Translucent Matte (Red)',0.768627450980392,0.207843137254902,
0.152941176470588);
#491=COLOUR_RGB('Concrete',0.,0.,0.);
ENDSEC;
END-ISO-10303-21;
