ISO-10303-21;
HEADER;
/* Generated by software containing ST-Developer
 * from STEP Tools, Inc. (www.steptools.com) 
 */

FILE_DESCRIPTION(
/* description */ (''),
/* implementation_level */ '2;1');

FILE_NAME(
/* name */ 'TripodLeg-Endcaps.step',
/* time_stamp */ '2026-04-06T13:27:28+02:00',
/* author */ (''),
/* organization */ (''),
/* preprocessor_version */ 'ST-DEVELOPER v20.1',
/* originating_system */ 'Autodesk Translation Framework v14.24.0.0',
/* authorisation */ '');

FILE_SCHEMA (('AUTOMOTIVE_DESIGN { 1 0 10303 214 3 1 1 }'));
ENDSEC;

DATA;
#10=MECHANICAL_DESIGN_GEOMETRIC_PRESENTATION_REPRESENTATION('',(#13),#719);
#11=SHAPE_REPRESENTATION_RELATIONSHIP('SRR','None',#726,#12);
#12=ADVANCED_BREP_SHAPE_REPRESENTATION('',(#14),#718);
#13=STYLED_ITEM('',(#736),#14);
#14=MANIFOLD_SOLID_BREP('Endcap-GRAFITY-02',#376);
#15=TOROIDAL_SURFACE('',#423,13.5,9.);
#16=FACE_BOUND('',#58,.T.);
#17=FACE_BOUND('',#63,.T.);
#18=FACE_BOUND('',#66,.T.);
#19=FACE_BOUND('',#69,.T.);
#20=FACE_BOUND('',#74,.T.);
#21=FACE_BOUND('',#76,.T.);
#22=ELLIPSE('',#393,51.3263707358594,22.5);
#23=ELLIPSE('',#394,51.3263707358594,22.5);
#24=PLANE('',#392);
#25=PLANE('',#395);
#26=PLANE('',#403);
#27=PLANE('',#404);
#28=PLANE('',#408);
#29=PLANE('',#409);
#30=PLANE('',#417);
#31=PLANE('',#418);
#32=PLANE('',#419);
#33=PLANE('',#420);
#34=PLANE('',#421);
#35=PLANE('',#422);
#36=PLANE('',#426);
#37=FACE_OUTER_BOUND('',#56,.T.);
#38=FACE_OUTER_BOUND('',#57,.T.);
#39=FACE_OUTER_BOUND('',#59,.T.);
#40=FACE_OUTER_BOUND('',#60,.T.);
#41=FACE_OUTER_BOUND('',#61,.T.);
#42=FACE_OUTER_BOUND('',#62,.T.);
#43=FACE_OUTER_BOUND('',#64,.T.);
#44=FACE_OUTER_BOUND('',#65,.T.);
#45=FACE_OUTER_BOUND('',#67,.T.);
#46=FACE_OUTER_BOUND('',#68,.T.);
#47=FACE_OUTER_BOUND('',#70,.T.);
#48=FACE_OUTER_BOUND('',#71,.T.);
#49=FACE_OUTER_BOUND('',#72,.T.);
#50=FACE_OUTER_BOUND('',#73,.T.);
#51=FACE_OUTER_BOUND('',#75,.T.);
#52=FACE_OUTER_BOUND('',#77,.T.);
#53=FACE_OUTER_BOUND('',#78,.T.);
#54=FACE_OUTER_BOUND('',#79,.T.);
#55=FACE_OUTER_BOUND('',#80,.T.);
#56=EDGE_LOOP('',(#248,#249,#250,#251,#252));
#57=EDGE_LOOP('',(#253,#254,#255,#256,#257));
#58=EDGE_LOOP('',(#258));
#59=EDGE_LOOP('',(#259,#260));
#60=EDGE_LOOP('',(#261,#262,#263,#264));
#61=EDGE_LOOP('',(#265,#266,#267,#268));
#62=EDGE_LOOP('',(#269,#270,#271,#272,#273,#274));
#63=EDGE_LOOP('',(#275));
#64=EDGE_LOOP('',(#276,#277,#278,#279,#280));
#65=EDGE_LOOP('',(#281,#282,#283,#284,#285,#286));
#66=EDGE_LOOP('',(#287));
#67=EDGE_LOOP('',(#288,#289,#290,#291,#292,#293,#294,#295,#296));
#68=EDGE_LOOP('',(#297,#298,#299,#300,#301,#302,#303,#304,#305,#306,#307,
#308,#309,#310));
#69=EDGE_LOOP('',(#311,#312));
#70=EDGE_LOOP('',(#313,#314,#315,#316));
#71=EDGE_LOOP('',(#317,#318,#319,#320));
#72=EDGE_LOOP('',(#321,#322,#323,#324));
#73=EDGE_LOOP('',(#325,#326,#327,#328));
#74=EDGE_LOOP('',(#329));
#75=EDGE_LOOP('',(#330,#331,#332,#333));
#76=EDGE_LOOP('',(#334));
#77=EDGE_LOOP('',(#335,#336,#337,#338));
#78=EDGE_LOOP('',(#339,#340,#341,#342));
#79=EDGE_LOOP('',(#343,#344,#345,#346,#347,#348,#349,#350));
#80=EDGE_LOOP('',(#351));
#81=B_SPLINE_CURVE_WITH_KNOTS('',3,(#540,#541,#542,#543,#544,#545,#546,
#547,#548,#549,#550,#551,#552,#553,#554,#555,#556,#557,#558,#559,#560,#561,
#562,#563,#564,#565),.UNSPECIFIED.,.F.,.F.,(4,2,2,2,2,2,2,2,2,2,2,2,4),
(0.,0.133782806096194,0.267565612192387,0.389146657428885,0.510727702665383,
0.632308747901881,0.753889793138379,0.887672599234572,1.02145540533077,
1.1621130461833,1.30277068703583,1.42518583140977,1.54760097578372),
 .UNSPECIFIED.);
#82=B_SPLINE_CURVE_WITH_KNOTS('',3,(#566,#567,#568,#569,#570,#571,#572,
#573,#574,#575),.UNSPECIFIED.,.F.,.F.,(4,2,2,2,4),(1.54760097578372,1.67001612015766,
1.7924312645316,1.93308890538414,2.07374654623667),.UNSPECIFIED.);
#83=B_SPLINE_CURVE_WITH_KNOTS('',3,(#581,#582,#583,#584,#585,#586,#587,
#588,#589,#590,#591,#592,#593,#594,#595,#596,#597,#598,#599,#600,#601,#602),
 .UNSPECIFIED.,.F.,.F.,(4,2,2,2,2,2,2,2,2,2,4),(5.28360987733721,5.47234941658645,
5.6610889558357,5.80437856491746,5.94766817399922,6.08274795366631,6.21782773333341,
6.36095495868449,6.50408218403558,6.64157314023951,6.73200464483062),
 .UNSPECIFIED.);
#84=B_SPLINE_CURVE_WITH_KNOTS('',3,(#606,#607,#608,#609,#610,#611,#612,
#613,#614,#615,#616,#617,#618,#619,#620,#621,#622,#623,#624,#625,#626,#627),
 .UNSPECIFIED.,.F.,.F.,(4,2,2,2,2,2,2,2,2,2,4),(2.00408770763882,2.09451921222993,
2.23201016843387,2.37513739378496,2.51826461913604,2.65334439880314,2.78842417847023,
2.93171378755199,3.07500339663375,3.263742935883,3.45248247513224),
 .UNSPECIFIED.);
#85=LINE('',#538,#115);
#86=LINE('',#604,#116);
#87=LINE('',#635,#117);
#88=LINE('',#641,#118);
#89=LINE('',#646,#119);
#90=LINE('',#648,#120);
#91=LINE('',#650,#121);
#92=LINE('',#652,#122);
#93=LINE('',#654,#123);
#94=LINE('',#655,#124);
#95=LINE('',#660,#125);
#96=LINE('',#666,#126);
#97=LINE('',#668,#127);
#98=LINE('',#670,#128);
#99=LINE('',#672,#129);
#100=LINE('',#673,#130);
#101=LINE('',#676,#131);
#102=LINE('',#678,#132);
#103=LINE('',#682,#133);
#104=LINE('',#683,#134);
#105=LINE('',#688,#135);
#106=LINE('',#692,#136);
#107=LINE('',#694,#137);
#108=LINE('',#698,#138);
#109=LINE('',#699,#139);
#110=LINE('',#701,#140);
#111=LINE('',#704,#141);
#112=LINE('',#705,#142);
#113=LINE('',#707,#143);
#114=LINE('',#713,#144);
#115=VECTOR('',#433,3.25);
#116=VECTOR('',#438,10.);
#117=VECTOR('',#449,2.1);
#118=VECTOR('',#456,2.1);
#119=VECTOR('',#461,10.);
#120=VECTOR('',#462,10.);
#121=VECTOR('',#463,10.);
#122=VECTOR('',#464,10.);
#123=VECTOR('',#465,10.);
#124=VECTOR('',#466,10.);
#125=VECTOR('',#471,10.);
#126=VECTOR('',#478,10.);
#127=VECTOR('',#479,10.);
#128=VECTOR('',#480,10.);
#129=VECTOR('',#481,10.);
#130=VECTOR('',#482,10.);
#131=VECTOR('',#485,10.);
#132=VECTOR('',#486,10.);
#133=VECTOR('',#489,10.);
#134=VECTOR('',#490,10.);
#135=VECTOR('',#497,22.5);
#136=VECTOR('',#502,10.);
#137=VECTOR('',#503,10.);
#138=VECTOR('',#508,10.);
#139=VECTOR('',#509,10.);
#140=VECTOR('',#512,10.);
#141=VECTOR('',#515,10.);
#142=VECTOR('',#516,10.);
#143=VECTOR('',#519,10.);
#144=VECTOR('',#528,17.55);
#145=CIRCLE('',#391,3.25);
#146=CIRCLE('',#396,13.5);
#147=CIRCLE('',#398,2.1);
#148=CIRCLE('',#399,2.1);
#149=CIRCLE('',#401,2.1);
#150=CIRCLE('',#402,2.1);
#151=CIRCLE('',#405,17.55);
#152=CIRCLE('',#406,22.5);
#153=CIRCLE('',#407,22.5);
#154=CIRCLE('',#410,22.5);
#155=CIRCLE('',#411,17.55);
#156=CIRCLE('',#412,17.55);
#157=CIRCLE('',#414,22.5);
#158=CIRCLE('',#415,22.5);
#159=CIRCLE('',#416,22.5);
#160=CIRCLE('',#425,17.55);
#161=VERTEX_POINT('',#535);
#162=VERTEX_POINT('',#537);
#163=VERTEX_POINT('',#539);
#164=VERTEX_POINT('',#577);
#165=VERTEX_POINT('',#578);
#166=VERTEX_POINT('',#580);
#167=VERTEX_POINT('',#603);
#168=VERTEX_POINT('',#605);
#169=VERTEX_POINT('',#632);
#170=VERTEX_POINT('',#634);
#171=VERTEX_POINT('',#638);
#172=VERTEX_POINT('',#640);
#173=VERTEX_POINT('',#644);
#174=VERTEX_POINT('',#645);
#175=VERTEX_POINT('',#647);
#176=VERTEX_POINT('',#649);
#177=VERTEX_POINT('',#651);
#178=VERTEX_POINT('',#653);
#179=VERTEX_POINT('',#657);
#180=VERTEX_POINT('',#659);
#181=VERTEX_POINT('',#661);
#182=VERTEX_POINT('',#665);
#183=VERTEX_POINT('',#667);
#184=VERTEX_POINT('',#669);
#185=VERTEX_POINT('',#671);
#186=VERTEX_POINT('',#675);
#187=VERTEX_POINT('',#677);
#188=VERTEX_POINT('',#679);
#189=VERTEX_POINT('',#681);
#190=VERTEX_POINT('',#684);
#191=VERTEX_POINT('',#690);
#192=VERTEX_POINT('',#693);
#193=VERTEX_POINT('',#697);
#194=VERTEX_POINT('',#703);
#195=VERTEX_POINT('',#712);
#196=EDGE_CURVE('',#161,#161,#145,.T.);
#197=EDGE_CURVE('',#161,#162,#85,.T.);
#198=EDGE_CURVE('',#163,#162,#81,.T.);
#199=EDGE_CURVE('',#162,#163,#82,.T.);
#200=EDGE_CURVE('',#164,#165,#22,.T.);
#201=EDGE_CURVE('',#166,#164,#83,.T.);
#202=EDGE_CURVE('',#167,#166,#86,.T.);
#203=EDGE_CURVE('',#168,#167,#84,.T.);
#204=EDGE_CURVE('',#165,#168,#23,.T.);
#205=EDGE_CURVE('',#167,#166,#146,.T.);
#206=EDGE_CURVE('',#169,#169,#147,.T.);
#207=EDGE_CURVE('',#169,#170,#87,.T.);
#208=EDGE_CURVE('',#170,#170,#148,.T.);
#209=EDGE_CURVE('',#171,#171,#149,.T.);
#210=EDGE_CURVE('',#171,#172,#88,.T.);
#211=EDGE_CURVE('',#172,#172,#150,.T.);
#212=EDGE_CURVE('',#173,#174,#89,.T.);
#213=EDGE_CURVE('',#173,#175,#90,.T.);
#214=EDGE_CURVE('',#176,#175,#91,.T.);
#215=EDGE_CURVE('',#177,#176,#92,.T.);
#216=EDGE_CURVE('',#178,#177,#93,.F.);
#217=EDGE_CURVE('',#174,#178,#94,.T.);
#218=EDGE_CURVE('',#179,#173,#151,.T.);
#219=EDGE_CURVE('',#180,#179,#95,.T.);
#220=EDGE_CURVE('',#181,#180,#152,.T.);
#221=EDGE_CURVE('',#175,#181,#153,.T.);
#222=EDGE_CURVE('',#182,#179,#96,.T.);
#223=EDGE_CURVE('',#183,#182,#97,.T.);
#224=EDGE_CURVE('',#184,#183,#98,.F.);
#225=EDGE_CURVE('',#185,#184,#99,.T.);
#226=EDGE_CURVE('',#180,#185,#100,.T.);
#227=EDGE_CURVE('',#178,#186,#101,.T.);
#228=EDGE_CURVE('',#186,#187,#102,.T.);
#229=EDGE_CURVE('',#187,#188,#154,.T.);
#230=EDGE_CURVE('',#188,#189,#103,.T.);
#231=EDGE_CURVE('',#189,#183,#104,.T.);
#232=EDGE_CURVE('',#182,#190,#155,.T.);
#233=EDGE_CURVE('',#190,#174,#156,.T.);
#234=EDGE_CURVE('',#181,#165,#105,.T.);
#235=EDGE_CURVE('',#164,#168,#157,.T.);
#236=EDGE_CURVE('',#185,#191,#158,.T.);
#237=EDGE_CURVE('',#191,#188,#106,.T.);
#238=EDGE_CURVE('',#187,#192,#107,.T.);
#239=EDGE_CURVE('',#192,#176,#159,.T.);
#240=EDGE_CURVE('',#193,#189,#108,.F.);
#241=EDGE_CURVE('',#184,#193,#109,.T.);
#242=EDGE_CURVE('',#193,#191,#110,.T.);
#243=EDGE_CURVE('',#192,#194,#111,.T.);
#244=EDGE_CURVE('',#194,#177,#112,.T.);
#245=EDGE_CURVE('',#194,#186,#113,.T.);
#246=EDGE_CURVE('',#190,#195,#114,.T.);
#247=EDGE_CURVE('',#195,#195,#160,.T.);
#248=ORIENTED_EDGE('',*,*,#196,.F.);
#249=ORIENTED_EDGE('',*,*,#197,.T.);
#250=ORIENTED_EDGE('',*,*,#198,.F.);
#251=ORIENTED_EDGE('',*,*,#199,.F.);
#252=ORIENTED_EDGE('',*,*,#197,.F.);
#253=ORIENTED_EDGE('',*,*,#200,.F.);
#254=ORIENTED_EDGE('',*,*,#201,.F.);
#255=ORIENTED_EDGE('',*,*,#202,.F.);
#256=ORIENTED_EDGE('',*,*,#203,.F.);
#257=ORIENTED_EDGE('',*,*,#204,.F.);
#258=ORIENTED_EDGE('',*,*,#196,.T.);
#259=ORIENTED_EDGE('',*,*,#202,.T.);
#260=ORIENTED_EDGE('',*,*,#205,.F.);
#261=ORIENTED_EDGE('',*,*,#206,.F.);
#262=ORIENTED_EDGE('',*,*,#207,.T.);
#263=ORIENTED_EDGE('',*,*,#208,.F.);
#264=ORIENTED_EDGE('',*,*,#207,.F.);
#265=ORIENTED_EDGE('',*,*,#209,.F.);
#266=ORIENTED_EDGE('',*,*,#210,.T.);
#267=ORIENTED_EDGE('',*,*,#211,.F.);
#268=ORIENTED_EDGE('',*,*,#210,.F.);
#269=ORIENTED_EDGE('',*,*,#212,.F.);
#270=ORIENTED_EDGE('',*,*,#213,.T.);
#271=ORIENTED_EDGE('',*,*,#214,.F.);
#272=ORIENTED_EDGE('',*,*,#215,.F.);
#273=ORIENTED_EDGE('',*,*,#216,.F.);
#274=ORIENTED_EDGE('',*,*,#217,.F.);
#275=ORIENTED_EDGE('',*,*,#211,.T.);
#276=ORIENTED_EDGE('',*,*,#218,.F.);
#277=ORIENTED_EDGE('',*,*,#219,.F.);
#278=ORIENTED_EDGE('',*,*,#220,.F.);
#279=ORIENTED_EDGE('',*,*,#221,.F.);
#280=ORIENTED_EDGE('',*,*,#213,.F.);
#281=ORIENTED_EDGE('',*,*,#222,.F.);
#282=ORIENTED_EDGE('',*,*,#223,.F.);
#283=ORIENTED_EDGE('',*,*,#224,.F.);
#284=ORIENTED_EDGE('',*,*,#225,.F.);
#285=ORIENTED_EDGE('',*,*,#226,.F.);
#286=ORIENTED_EDGE('',*,*,#219,.T.);
#287=ORIENTED_EDGE('',*,*,#206,.T.);
#288=ORIENTED_EDGE('',*,*,#217,.T.);
#289=ORIENTED_EDGE('',*,*,#227,.T.);
#290=ORIENTED_EDGE('',*,*,#228,.T.);
#291=ORIENTED_EDGE('',*,*,#229,.T.);
#292=ORIENTED_EDGE('',*,*,#230,.T.);
#293=ORIENTED_EDGE('',*,*,#231,.T.);
#294=ORIENTED_EDGE('',*,*,#223,.T.);
#295=ORIENTED_EDGE('',*,*,#232,.T.);
#296=ORIENTED_EDGE('',*,*,#233,.T.);
#297=ORIENTED_EDGE('',*,*,#214,.T.);
#298=ORIENTED_EDGE('',*,*,#221,.T.);
#299=ORIENTED_EDGE('',*,*,#234,.T.);
#300=ORIENTED_EDGE('',*,*,#204,.T.);
#301=ORIENTED_EDGE('',*,*,#235,.F.);
#302=ORIENTED_EDGE('',*,*,#200,.T.);
#303=ORIENTED_EDGE('',*,*,#234,.F.);
#304=ORIENTED_EDGE('',*,*,#220,.T.);
#305=ORIENTED_EDGE('',*,*,#226,.T.);
#306=ORIENTED_EDGE('',*,*,#236,.T.);
#307=ORIENTED_EDGE('',*,*,#237,.T.);
#308=ORIENTED_EDGE('',*,*,#229,.F.);
#309=ORIENTED_EDGE('',*,*,#238,.T.);
#310=ORIENTED_EDGE('',*,*,#239,.T.);
#311=ORIENTED_EDGE('',*,*,#198,.T.);
#312=ORIENTED_EDGE('',*,*,#199,.T.);
#313=ORIENTED_EDGE('',*,*,#224,.T.);
#314=ORIENTED_EDGE('',*,*,#231,.F.);
#315=ORIENTED_EDGE('',*,*,#240,.F.);
#316=ORIENTED_EDGE('',*,*,#241,.F.);
#317=ORIENTED_EDGE('',*,*,#225,.T.);
#318=ORIENTED_EDGE('',*,*,#241,.T.);
#319=ORIENTED_EDGE('',*,*,#242,.T.);
#320=ORIENTED_EDGE('',*,*,#236,.F.);
#321=ORIENTED_EDGE('',*,*,#215,.T.);
#322=ORIENTED_EDGE('',*,*,#239,.F.);
#323=ORIENTED_EDGE('',*,*,#243,.T.);
#324=ORIENTED_EDGE('',*,*,#244,.T.);
#325=ORIENTED_EDGE('',*,*,#238,.F.);
#326=ORIENTED_EDGE('',*,*,#228,.F.);
#327=ORIENTED_EDGE('',*,*,#245,.F.);
#328=ORIENTED_EDGE('',*,*,#243,.F.);
#329=ORIENTED_EDGE('',*,*,#209,.T.);
#330=ORIENTED_EDGE('',*,*,#237,.F.);
#331=ORIENTED_EDGE('',*,*,#242,.F.);
#332=ORIENTED_EDGE('',*,*,#240,.T.);
#333=ORIENTED_EDGE('',*,*,#230,.F.);
#334=ORIENTED_EDGE('',*,*,#208,.T.);
#335=ORIENTED_EDGE('',*,*,#216,.T.);
#336=ORIENTED_EDGE('',*,*,#244,.F.);
#337=ORIENTED_EDGE('',*,*,#245,.T.);
#338=ORIENTED_EDGE('',*,*,#227,.F.);
#339=ORIENTED_EDGE('',*,*,#203,.T.);
#340=ORIENTED_EDGE('',*,*,#205,.T.);
#341=ORIENTED_EDGE('',*,*,#201,.T.);
#342=ORIENTED_EDGE('',*,*,#235,.T.);
#343=ORIENTED_EDGE('',*,*,#212,.T.);
#344=ORIENTED_EDGE('',*,*,#233,.F.);
#345=ORIENTED_EDGE('',*,*,#246,.T.);
#346=ORIENTED_EDGE('',*,*,#247,.T.);
#347=ORIENTED_EDGE('',*,*,#246,.F.);
#348=ORIENTED_EDGE('',*,*,#232,.F.);
#349=ORIENTED_EDGE('',*,*,#222,.T.);
#350=ORIENTED_EDGE('',*,*,#218,.T.);
#351=ORIENTED_EDGE('',*,*,#247,.F.);
#352=CYLINDRICAL_SURFACE('',#390,3.25);
#353=CYLINDRICAL_SURFACE('',#397,2.1);
#354=CYLINDRICAL_SURFACE('',#400,2.1);
#355=CYLINDRICAL_SURFACE('',#413,22.5);
#356=CYLINDRICAL_SURFACE('',#424,17.55);
#357=ADVANCED_FACE('',(#37),#352,.F.);
#358=ADVANCED_FACE('',(#38,#16),#24,.F.);
#359=ADVANCED_FACE('',(#39),#25,.T.);
#360=ADVANCED_FACE('',(#40),#353,.F.);
#361=ADVANCED_FACE('',(#41),#354,.F.);
#362=ADVANCED_FACE('',(#42,#17),#26,.T.);
#363=ADVANCED_FACE('',(#43),#27,.F.);
#364=ADVANCED_FACE('',(#44,#18),#28,.T.);
#365=ADVANCED_FACE('',(#45),#29,.T.);
#366=ADVANCED_FACE('',(#46,#19),#355,.T.);
#367=ADVANCED_FACE('',(#47),#30,.F.);
#368=ADVANCED_FACE('',(#48),#31,.T.);
#369=ADVANCED_FACE('',(#49),#32,.T.);
#370=ADVANCED_FACE('',(#50,#20),#33,.F.);
#371=ADVANCED_FACE('',(#51,#21),#34,.F.);
#372=ADVANCED_FACE('',(#52),#35,.F.);
#373=ADVANCED_FACE('',(#53),#15,.T.);
#374=ADVANCED_FACE('',(#54),#356,.F.);
#375=ADVANCED_FACE('',(#55),#36,.F.);
#376=CLOSED_SHELL('',(#357,#358,#359,#360,#361,#362,#363,#364,#365,#366,
#367,#368,#369,#370,#371,#372,#373,#374,#375));
#377=DERIVED_UNIT_ELEMENT(#379,1.);
#378=DERIVED_UNIT_ELEMENT(#721,-3.);
#379=(
MASS_UNIT()
NAMED_UNIT(*)
SI_UNIT(.KILO.,.GRAM.)
);
#380=DERIVED_UNIT((#377,#378));
#381=MEASURE_REPRESENTATION_ITEM('density measure',
POSITIVE_RATIO_MEASURE(7850.),#380);
#382=PROPERTY_DEFINITION_REPRESENTATION(#387,#384);
#383=PROPERTY_DEFINITION_REPRESENTATION(#388,#385);
#384=REPRESENTATION('material name',(#386),#718);
#385=REPRESENTATION('density',(#381),#718);
#386=DESCRIPTIVE_REPRESENTATION_ITEM('Steel','Steel');
#387=PROPERTY_DEFINITION('material property','material name',#728);
#388=PROPERTY_DEFINITION('material property','density of part',#728);
#389=AXIS2_PLACEMENT_3D('',#533,#427,#428);
#390=AXIS2_PLACEMENT_3D('',#534,#429,#430);
#391=AXIS2_PLACEMENT_3D('',#536,#431,#432);
#392=AXIS2_PLACEMENT_3D('',#576,#434,#435);
#393=AXIS2_PLACEMENT_3D('',#579,#436,#437);
#394=AXIS2_PLACEMENT_3D('',#628,#439,#440);
#395=AXIS2_PLACEMENT_3D('',#629,#441,#442);
#396=AXIS2_PLACEMENT_3D('',#630,#443,#444);
#397=AXIS2_PLACEMENT_3D('',#631,#445,#446);
#398=AXIS2_PLACEMENT_3D('',#633,#447,#448);
#399=AXIS2_PLACEMENT_3D('',#636,#450,#451);
#400=AXIS2_PLACEMENT_3D('',#637,#452,#453);
#401=AXIS2_PLACEMENT_3D('',#639,#454,#455);
#402=AXIS2_PLACEMENT_3D('',#642,#457,#458);
#403=AXIS2_PLACEMENT_3D('',#643,#459,#460);
#404=AXIS2_PLACEMENT_3D('',#656,#467,#468);
#405=AXIS2_PLACEMENT_3D('',#658,#469,#470);
#406=AXIS2_PLACEMENT_3D('',#662,#472,#473);
#407=AXIS2_PLACEMENT_3D('',#663,#474,#475);
#408=AXIS2_PLACEMENT_3D('',#664,#476,#477);
#409=AXIS2_PLACEMENT_3D('',#674,#483,#484);
#410=AXIS2_PLACEMENT_3D('',#680,#487,#488);
#411=AXIS2_PLACEMENT_3D('',#685,#491,#492);
#412=AXIS2_PLACEMENT_3D('',#686,#493,#494);
#413=AXIS2_PLACEMENT_3D('',#687,#495,#496);
#414=AXIS2_PLACEMENT_3D('',#689,#498,#499);
#415=AXIS2_PLACEMENT_3D('',#691,#500,#501);
#416=AXIS2_PLACEMENT_3D('',#695,#504,#505);
#417=AXIS2_PLACEMENT_3D('',#696,#506,#507);
#418=AXIS2_PLACEMENT_3D('',#700,#510,#511);
#419=AXIS2_PLACEMENT_3D('',#702,#513,#514);
#420=AXIS2_PLACEMENT_3D('',#706,#517,#518);
#421=AXIS2_PLACEMENT_3D('',#708,#520,#521);
#422=AXIS2_PLACEMENT_3D('',#709,#522,#523);
#423=AXIS2_PLACEMENT_3D('',#710,#524,#525);
#424=AXIS2_PLACEMENT_3D('',#711,#526,#527);
#425=AXIS2_PLACEMENT_3D('',#714,#529,#530);
#426=AXIS2_PLACEMENT_3D('',#715,#531,#532);
#427=DIRECTION('axis',(0.,0.,1.));
#428=DIRECTION('refdir',(1.,0.,0.));
#429=DIRECTION('center_axis',(0.,0.,1.));
#430=DIRECTION('ref_axis',(-1.,4.2700885562506E-16,0.));
#431=DIRECTION('center_axis',(0.,0.,1.));
#432=DIRECTION('ref_axis',(-1.,4.2700885562506E-16,0.));
#433=DIRECTION('',(0.,0.,1.));
#434=DIRECTION('center_axis',(0.,0.,1.));
#435=DIRECTION('ref_axis',(-1.,3.88578058618805E-16,0.));
#436=DIRECTION('center_axis',(0.,0.,1.));
#437=DIRECTION('ref_axis',(-1.,3.46090482130892E-16,0.));
#438=DIRECTION('',(-3.88578058618805E-16,-1.,0.));
#439=DIRECTION('center_axis',(0.,0.,1.));
#440=DIRECTION('ref_axis',(-1.,3.46090482130892E-16,0.));
#441=DIRECTION('center_axis',(-0.898794046299167,3.33066907387547E-16,-0.438371146789077));
#442=DIRECTION('ref_axis',(0.438371146789077,-1.38777878078145E-16,-0.898794046299167));
#443=DIRECTION('center_axis',(0.898794046299167,-3.33066907387547E-16,0.438371146789077));
#444=DIRECTION('ref_axis',(-0.438371146789077,1.64477485129653E-16,0.898794046299167));
#445=DIRECTION('center_axis',(-3.88578058618805E-16,-1.,0.));
#446=DIRECTION('ref_axis',(0.104528463267653,-3.30423519233677E-17,-0.994521895368273));
#447=DIRECTION('center_axis',(-3.88578058618805E-16,-1.,0.));
#448=DIRECTION('ref_axis',(0.104528463267653,-3.30423519233677E-17,-0.994521895368273));
#449=DIRECTION('',(-3.88578058618805E-16,-1.,0.));
#450=DIRECTION('center_axis',(3.88578058618805E-16,1.,0.));
#451=DIRECTION('ref_axis',(0.104528463267653,-3.30423519233677E-17,-0.994521895368273));
#452=DIRECTION('center_axis',(-3.88578058618805E-16,-1.,0.));
#453=DIRECTION('ref_axis',(0.104528463267653,-3.30423519233677E-17,-0.994521895368273));
#454=DIRECTION('center_axis',(-3.88578058618805E-16,-1.,0.));
#455=DIRECTION('ref_axis',(0.104528463267653,-3.30423519233677E-17,-0.994521895368273));
#456=DIRECTION('',(-3.88578058618805E-16,-1.,0.));
#457=DIRECTION('center_axis',(3.88578058618805E-16,1.,0.));
#458=DIRECTION('ref_axis',(0.104528463267653,-3.30423519233677E-17,-0.994521895368273));
#459=DIRECTION('center_axis',(-3.88578058618805E-16,-1.,0.));
#460=DIRECTION('ref_axis',(-0.898794046299167,3.33066907387547E-16,-0.438371146789077));
#461=DIRECTION('',(0.898794046299167,-3.33066907387547E-16,0.438371146789077));
#462=DIRECTION('',(0.438371146789077,-1.38777878078145E-16,-0.898794046299167));
#463=DIRECTION('',(-0.898794046299167,3.33066907387547E-16,-0.438371146789077));
#464=DIRECTION('',(-0.438371146789077,1.38777878078145E-16,0.898794046299167));
#465=DIRECTION('',(0.898794046299167,-3.33066907387547E-16,0.438371146789077));
#466=DIRECTION('',(0.438371146789077,-1.38777878078145E-16,-0.898794046299167));
#467=DIRECTION('center_axis',(-0.898794046299167,3.33066907387547E-16,-0.438371146789077));
#468=DIRECTION('ref_axis',(0.438371146789077,-1.38777878078145E-16,-0.898794046299167));
#469=DIRECTION('center_axis',(0.898794046299167,-3.33066907387547E-16,0.438371146789077));
#470=DIRECTION('ref_axis',(-3.79563427222276E-16,-1.,0.));
#471=DIRECTION('',(-0.438371146789077,1.38777878078145E-16,0.898794046299167));
#472=DIRECTION('center_axis',(-0.898794046299167,3.33066907387547E-16,-0.438371146789077));
#473=DIRECTION('ref_axis',(-0.438371146789077,1.72701359386135E-16,0.898794046299167));
#474=DIRECTION('center_axis',(-0.898794046299167,3.33066907387547E-16,-0.438371146789077));
#475=DIRECTION('ref_axis',(-0.438371146789077,1.72701359386135E-16,0.898794046299167));
#476=DIRECTION('center_axis',(3.88578058618805E-16,1.,0.));
#477=DIRECTION('ref_axis',(0.898794046299167,-3.33066907387547E-16,0.438371146789077));
#478=DIRECTION('',(-0.898794046299167,3.33066907387547E-16,-0.438371146789077));
#479=DIRECTION('',(-0.438371146789077,1.38777878078145E-16,0.898794046299167));
#480=DIRECTION('',(-0.898794046299167,3.33066907387547E-16,-0.438371146789077));
#481=DIRECTION('',(0.438371146789077,-1.38777878078145E-16,-0.898794046299167));
#482=DIRECTION('',(0.898794046299167,-3.33066907387547E-16,0.438371146789077));
#483=DIRECTION('center_axis',(0.898794046299167,-3.33066907387547E-16,0.438371146789077));
#484=DIRECTION('ref_axis',(-0.438371146789077,1.38777878078145E-16,0.898794046299167));
#485=DIRECTION('',(3.88578058618805E-16,1.,0.));
#486=DIRECTION('',(-0.438371146789077,1.38777878078145E-16,0.898794046299167));
#487=DIRECTION('center_axis',(0.898794046299167,-3.33066907387547E-16,0.438371146789077));
#488=DIRECTION('ref_axis',(-0.438371146789077,1.72701359386135E-16,0.898794046299167));
#489=DIRECTION('',(0.438371146789077,-1.38777878078145E-16,-0.898794046299167));
#490=DIRECTION('',(3.88578058618805E-16,1.,0.));
#491=DIRECTION('center_axis',(-0.898794046299167,3.33066907387547E-16,-0.438371146789077));
#492=DIRECTION('ref_axis',(-3.79563427222276E-16,-1.,0.));
#493=DIRECTION('center_axis',(-0.898794046299167,3.33066907387547E-16,-0.438371146789077));
#494=DIRECTION('ref_axis',(-3.79563427222276E-16,-1.,0.));
#495=DIRECTION('center_axis',(0.898794046299167,-3.33066907387547E-16,0.438371146789077));
#496=DIRECTION('ref_axis',(-0.438371146789077,1.72701359386135E-16,0.898794046299167));
#497=DIRECTION('',(-0.898794046299167,3.33066907387547E-16,-0.438371146789077));
#498=DIRECTION('center_axis',(-0.898794046299167,3.33066907387547E-16,-0.438371146789077));
#499=DIRECTION('ref_axis',(-0.438371146789077,1.72701359386135E-16,0.898794046299167));
#500=DIRECTION('center_axis',(-0.898794046299167,3.33066907387547E-16,-0.438371146789077));
#501=DIRECTION('ref_axis',(-0.438371146789077,1.72701359386135E-16,0.898794046299167));
#502=DIRECTION('',(0.898794046299167,-3.33066907387547E-16,0.438371146789077));
#503=DIRECTION('',(-0.898794046299167,3.33066907387547E-16,-0.438371146789077));
#504=DIRECTION('center_axis',(-0.898794046299167,3.33066907387547E-16,-0.438371146789077));
#505=DIRECTION('ref_axis',(-0.438371146789077,1.72701359386135E-16,0.898794046299167));
#506=DIRECTION('center_axis',(-0.438371146789077,1.38777878078145E-16,0.898794046299167));
#507=DIRECTION('ref_axis',(-0.898794046299167,3.33066907387547E-16,-0.438371146789077));
#508=DIRECTION('',(-0.898794046299167,3.33066907387547E-16,-0.438371146789077));
#509=DIRECTION('',(-3.88578058618805E-16,-1.,0.));
#510=DIRECTION('center_axis',(-0.898794046299167,3.33066907387547E-16,-0.438371146789077));
#511=DIRECTION('ref_axis',(0.438371146789077,-1.38777878078145E-16,-0.898794046299167));
#512=DIRECTION('',(-0.438371146789077,1.38777878078145E-16,0.898794046299167));
#513=DIRECTION('center_axis',(-0.898794046299167,3.33066907387547E-16,-0.438371146789077));
#514=DIRECTION('ref_axis',(0.438371146789077,-1.38777878078145E-16,-0.898794046299167));
#515=DIRECTION('',(0.438371146789077,-1.38777878078145E-16,-0.898794046299167));
#516=DIRECTION('',(-3.88578058618805E-16,-1.,0.));
#517=DIRECTION('center_axis',(-3.88578058618805E-16,-1.,0.));
#518=DIRECTION('ref_axis',(-0.898794046299167,3.33066907387547E-16,-0.438371146789077));
#519=DIRECTION('',(0.898794046299167,-3.33066907387547E-16,0.438371146789077));
#520=DIRECTION('center_axis',(3.88578058618805E-16,1.,0.));
#521=DIRECTION('ref_axis',(0.898794046299167,-3.33066907387547E-16,0.438371146789077));
#522=DIRECTION('center_axis',(-0.438371146789077,1.38777878078145E-16,0.898794046299167));
#523=DIRECTION('ref_axis',(-0.898794046299167,3.33066907387547E-16,-0.438371146789077));
#524=DIRECTION('center_axis',(-0.898794046299167,3.33066907387547E-16,-0.438371146789077));
#525=DIRECTION('ref_axis',(-0.438371146789076,2.6124255799288E-16,0.898794046299168));
#526=DIRECTION('center_axis',(-0.898794046299167,3.33066907387547E-16,-0.438371146789077));
#527=DIRECTION('ref_axis',(-3.79563427222276E-16,-1.,0.));
#528=DIRECTION('',(-0.898794046299167,3.33066907387547E-16,-0.438371146789077));
#529=DIRECTION('center_axis',(-0.898794046299167,3.33066907387547E-16,-0.438371146789077));
#530=DIRECTION('ref_axis',(-3.79563427222276E-16,-1.,0.));
#531=DIRECTION('center_axis',(-0.898794046299167,3.33066907387547E-16,-0.438371146789077));
#532=DIRECTION('ref_axis',(-3.88578058618805E-16,-1.,0.));
#533=CARTESIAN_POINT('',(0.,0.,0.));
#534=CARTESIAN_POINT('Origin',(-675.,2.48689957516035E-13,25.));
#535=CARTESIAN_POINT('',(-671.75,2.47700188944977E-13,0.));
#536=CARTESIAN_POINT('Origin',(-675.,2.48689957516035E-13,0.));
#537=CARTESIAN_POINT('',(-671.75,2.47700188944977E-13,40.1778453998974));
#538=CARTESIAN_POINT('',(-671.75,2.47700188944977E-13,25.));
#539=CARTESIAN_POINT('',(-675.,-3.24999999999971,38.3301855048355));
#540=CARTESIAN_POINT('Ctrl Pts',(-675.,-3.24999999999975,38.3301855048356));
#541=CARTESIAN_POINT('Ctrl Pts',(-675.400810632055,-3.24999999999975,38.1346970977387));
#542=CARTESIAN_POINT('Ctrl Pts',(-675.836603098422,-3.17130904291062,37.9354944780796));
#543=CARTESIAN_POINT('Ctrl Pts',(-676.65167636033,-2.83356109183444,37.5885537200806));
#544=CARTESIAN_POINT('Ctrl Pts',(-677.03057832535,-2.57402551689079,37.4403918872922));
#545=CARTESIAN_POINT('Ctrl Pts',(-677.604684580902,-1.98293487218759,37.2269038260946));
#546=CARTESIAN_POINT('Ctrl Pts',(-677.846638236195,-1.62504154505569,37.1428071942902));
#547=CARTESIAN_POINT('Ctrl Pts',(-678.169367591149,-0.836192674875953,37.0334771549285));
#548=CARTESIAN_POINT('Ctrl Pts',(-678.25,-0.405270150788084,37.0075835742193));
#549=CARTESIAN_POINT('Ctrl Pts',(-678.25,0.405270150788581,37.0075835742193));
#550=CARTESIAN_POINT('Ctrl Pts',(-678.169367591149,0.836192674876415,37.0334771549285));
#551=CARTESIAN_POINT('Ctrl Pts',(-677.846638236195,1.62504154505619,37.1428071942902));
#552=CARTESIAN_POINT('Ctrl Pts',(-677.604684580902,1.98293487218805,37.2269038260946));
#553=CARTESIAN_POINT('Ctrl Pts',(-677.03057832535,2.57402551689129,37.4403918872922));
#554=CARTESIAN_POINT('Ctrl Pts',(-676.65167636033,2.8335610918349,37.5885537200806));
#555=CARTESIAN_POINT('Ctrl Pts',(-675.836603098422,3.17130904291112,37.9354944780796));
#556=CARTESIAN_POINT('Ctrl Pts',(-675.400810632055,3.25000000000021,38.1346970977387));
#557=CARTESIAN_POINT('Ctrl Pts',(-674.578592499451,3.25000000000021,38.5357196759194));
#558=CARTESIAN_POINT('Ctrl Pts',(-674.132973488466,3.16378453713568,38.7676555731456));
#559=CARTESIAN_POINT('Ctrl Pts',(-673.313020141968,2.81342647337965,39.2198135628053));
#560=CARTESIAN_POINT('Ctrl Pts',(-672.938346999464,2.54940698497528,39.4395164288522));
#561=CARTESIAN_POINT('Ctrl Pts',(-672.381535503077,1.96165189398894,39.7763766417467));
#562=CARTESIAN_POINT('Ctrl Pts',(-672.147719092228,1.6132961350737,39.9231788959994));
#563=CARTESIAN_POINT('Ctrl Pts',(-671.831701359184,0.836728742174699,40.1244219777714));
#564=CARTESIAN_POINT('Ctrl Pts',(-671.75,0.408050481246711,40.1778453998974));
#565=CARTESIAN_POINT('Ctrl Pts',(-671.75,2.48204234942762E-13,40.1778453998974));
#566=CARTESIAN_POINT('Ctrl Pts',(-671.75,2.52020626589911E-13,40.1778453998974));
#567=CARTESIAN_POINT('Ctrl Pts',(-671.75,-0.40805048124621,40.1778453998974));
#568=CARTESIAN_POINT('Ctrl Pts',(-671.831701359184,-0.836728742174202,40.1244219777714));
#569=CARTESIAN_POINT('Ctrl Pts',(-672.147719092229,-1.6132961350732,39.9231788959994));
#570=CARTESIAN_POINT('Ctrl Pts',(-672.381535503077,-1.9616518939884,39.7763766417467));
#571=CARTESIAN_POINT('Ctrl Pts',(-672.938346999464,-2.54940698497478,39.4395164288522));
#572=CARTESIAN_POINT('Ctrl Pts',(-673.313020141968,-2.81342647337922,39.2198135628053));
#573=CARTESIAN_POINT('Ctrl Pts',(-674.132973488466,-3.16378453713519,38.7676555731456));
#574=CARTESIAN_POINT('Ctrl Pts',(-674.578592499451,-3.24999999999974,38.5357196759193));
#575=CARTESIAN_POINT('Ctrl Pts',(-675.,-3.24999999999974,38.3301855048356));
#576=CARTESIAN_POINT('Origin',(-646.917654423079,2.1316282072803E-13,0.));
#577=CARTESIAN_POINT('',(-671.377587361256,-17.7905352360277,0.));
#578=CARTESIAN_POINT('',(-651.47404929807,2.20063011188477E-13,0.));
#579=CARTESIAN_POINT('Origin',(-702.800420033929,2.48689957516035E-13,0.));
#580=CARTESIAN_POINT('',(-681.391004825533,-9.70395326455566,0.));
#581=CARTESIAN_POINT('Ctrl Pts',(-681.391004825533,-9.70395326455567,1.43300931092775E-18));
#582=CARTESIAN_POINT('Ctrl Pts',(-681.391004825533,-10.3330850620532,-3.35180989199411E-17));
#583=CARTESIAN_POINT('Ctrl Pts',(-681.350872637266,-11.0234028232153,0.));
#584=CARTESIAN_POINT('Ctrl Pts',(-681.135471809626,-12.3792761687041,0.));
#585=CARTESIAN_POINT('Ctrl Pts',(-680.958253796349,-13.0445213473012,0.));
#586=CARTESIAN_POINT('Ctrl Pts',(-680.556956104234,-14.075970004658,0.));
#587=CARTESIAN_POINT('Ctrl Pts',(-680.326871431304,-14.5468755434127,0.));
#588=CARTESIAN_POINT('Ctrl Pts',(-679.769477558337,-15.4259693810112,0.));
#589=CARTESIAN_POINT('Ctrl Pts',(-679.441772955406,-15.8339069103146,0.));
#590=CARTESIAN_POINT('Ctrl Pts',(-678.790642690525,-16.4949848232413,0.));
#591=CARTESIAN_POINT('Ctrl Pts',(-678.412456599443,-16.8121704434353,-3.30872245021211E-23));
#592=CARTESIAN_POINT('Ctrl Pts',(-677.594304326021,-17.3531551234344,-3.30872245021211E-23));
#593=CARTESIAN_POINT('Ctrl Pts',(-677.154361654982,-17.576989739459,0.));
#594=CARTESIAN_POINT('Ctrl Pts',(-676.291794833825,-17.9175318033442,0.));
#595=CARTESIAN_POINT('Ctrl Pts',(-675.788815463191,-18.0598124301925,0.));
#596=CARTESIAN_POINT('Ctrl Pts',(-674.763186225938,-18.2287369638455,0.));
#597=CARTESIAN_POINT('Ctrl Pts',(-674.240590181484,-18.2557074910176,0.));
#598=CARTESIAN_POINT('Ctrl Pts',(-673.305836179124,-18.2211130509206,0.));
#599=CARTESIAN_POINT('Ctrl Pts',(-672.806909433268,-18.1598444316414,0.));
#600=CARTESIAN_POINT('Ctrl Pts',(-671.996012745506,-17.9822351500913,0.));
#601=CARTESIAN_POINT('Ctrl Pts',(-671.678290361716,-17.8926005094201,1.01612152962775E-18));
#602=CARTESIAN_POINT('Ctrl Pts',(-671.377587361256,-17.7905352360277,4.88216155256924E-19));
#603=CARTESIAN_POINT('',(-681.391004825533,9.70395326455616,0.));
#604=CARTESIAN_POINT('',(-681.391004825533,2.48689957516035E-13,0.));
#605=CARTESIAN_POINT('',(-671.377587361256,17.7905352360282,0.));
#606=CARTESIAN_POINT('Ctrl Pts',(-671.377587361256,17.7905352360282,4.94548954757297E-18));
#607=CARTESIAN_POINT('Ctrl Pts',(-671.678290361716,17.8926005094206,7.93491116733001E-18));
#608=CARTESIAN_POINT('Ctrl Pts',(-671.996012745506,17.9822351500918,0.));
#609=CARTESIAN_POINT('Ctrl Pts',(-672.806909433268,18.1598444316419,0.));
#610=CARTESIAN_POINT('Ctrl Pts',(-673.305836179124,18.2211130509211,0.));
#611=CARTESIAN_POINT('Ctrl Pts',(-674.240590181484,18.2557074910182,0.));
#612=CARTESIAN_POINT('Ctrl Pts',(-674.763186225937,18.228736963846,0.));
#613=CARTESIAN_POINT('Ctrl Pts',(-675.788815463191,18.059812430193,0.));
#614=CARTESIAN_POINT('Ctrl Pts',(-676.291794833825,17.9175318033446,0.));
#615=CARTESIAN_POINT('Ctrl Pts',(-677.154361654982,17.5769897394596,0.));
#616=CARTESIAN_POINT('Ctrl Pts',(-677.594304326021,17.3531551234348,-3.30872245021211E-23));
#617=CARTESIAN_POINT('Ctrl Pts',(-678.412456599443,16.8121704434358,-3.30872245021211E-23));
#618=CARTESIAN_POINT('Ctrl Pts',(-678.790642690525,16.4949848232418,0.));
#619=CARTESIAN_POINT('Ctrl Pts',(-679.441772955406,15.8339069103151,0.));
#620=CARTESIAN_POINT('Ctrl Pts',(-679.769477558337,15.4259693810117,0.));
#621=CARTESIAN_POINT('Ctrl Pts',(-680.326871431304,14.5468755434132,0.));
#622=CARTESIAN_POINT('Ctrl Pts',(-680.556956104234,14.0759700046585,0.));
#623=CARTESIAN_POINT('Ctrl Pts',(-680.958253796349,13.0445213473017,0.));
#624=CARTESIAN_POINT('Ctrl Pts',(-681.135471809626,12.3792761687046,0.));
#625=CARTESIAN_POINT('Ctrl Pts',(-681.350872637266,11.0234028232158,0.));
#626=CARTESIAN_POINT('Ctrl Pts',(-681.391004825533,10.3330850620537,-3.80470365387738E-17));
#627=CARTESIAN_POINT('Ctrl Pts',(-681.391004825533,9.70395326455616,-1.64476767261085E-18));
#628=CARTESIAN_POINT('Origin',(-702.800420033929,2.48689957516035E-13,0.));
#629=CARTESIAN_POINT('Origin',(-685.505236353201,2.48689957516035E-13,8.43542470632387));
#630=CARTESIAN_POINT('Origin',(-685.505236353201,2.48689957516035E-13,8.43542470632387));
#631=CARTESIAN_POINT('Origin',(-611.079848137535,-14.9999999105928,11.7072469630115));
#632=CARTESIAN_POINT('',(-611.299357910397,-0.999999985098654,13.7957429432849));
#633=CARTESIAN_POINT('Origin',(-611.079848137535,-0.999999985098654,11.7072469630115));
#634=CARTESIAN_POINT('',(-611.299357910397,-5.99999991059288,13.7957429432849));
#635=CARTESIAN_POINT('',(-611.299357910397,-14.9999999105928,13.7957429432849));
#636=CARTESIAN_POINT('Origin',(-611.079848137535,-5.99999991059285,11.7072469630115));
#637=CARTESIAN_POINT('Origin',(-611.079848137535,-14.9999999105928,11.7072469630115));
#638=CARTESIAN_POINT('',(-611.299357910397,6.00000008940718,13.7957429432849));
#639=CARTESIAN_POINT('Origin',(-611.079848137535,6.00000008940718,11.7072469630115));
#640=CARTESIAN_POINT('',(-611.299357910397,1.00000001490137,13.7957429432849));
#641=CARTESIAN_POINT('',(-611.299357910397,-14.9999999105928,13.7957429432849));
#642=CARTESIAN_POINT('Origin',(-611.079848137535,1.00000001490137,11.7072469630115));
#643=CARTESIAN_POINT('Origin',(-620.07951668583,1.00000001490141,7.7413842474583));
#644=CARTESIAN_POINT('',(-640.973766189371,1.00000001490141,10.6604336991495));
#645=CARTESIAN_POINT('',(-609.5159745689,1.00000001490137,26.0034238367672));
#646=CARTESIAN_POINT('',(-629.738840610632,1.00000001490141,16.140073034013));
#647=CARTESIAN_POINT('',(-638.801076048925,1.00000001490141,6.2057587576322));
#648=CARTESIAN_POINT('',(-635.808412496066,1.00000001490145,0.069889178649456));
#649=CARTESIAN_POINT('',(-620.825195122942,1.00000001490141,14.9731816934137));
#650=CARTESIAN_POINT('',(-629.813135585934,1.00000001490145,10.589470225523));
#651=CARTESIAN_POINT('',(-614.983119122486,1.00000001490137,2.99515082687948));
#652=CARTESIAN_POINT('',(-617.503753213257,1.00000001490141,8.16321658640315));
#653=CARTESIAN_POINT('',(-601.501208427998,1.00000001490137,9.57071802871565));
#654=CARTESIAN_POINT('',(-612.736134006738,1.00000001490137,4.09107869385218));
#655=CARTESIAN_POINT('',(-610.773754855029,1.00000001490137,28.5822555892804));
#656=CARTESIAN_POINT('Origin',(-635.808412496066,1.49014312000872E-8,0.069889178649456));
#657=CARTESIAN_POINT('',(-640.973766188625,-0.999999985098619,10.6604336976208));
#658=CARTESIAN_POINT('Origin',(-648.654680454935,2.48689957516035E-13,26.408641724676));
#659=CARTESIAN_POINT('',(-638.801076048344,-0.999999985098619,6.20575875644051));
#660=CARTESIAN_POINT('',(-635.808412496066,-0.999999985098583,0.069889178649456));
#661=CARTESIAN_POINT('',(-638.791329652181,2.15363164513799E-13,6.18577568294472));
#662=CARTESIAN_POINT('Origin',(-648.654680454935,2.48689957516035E-13,26.408641724676));
#663=CARTESIAN_POINT('Origin',(-648.654680454935,2.48689957516035E-13,26.408641724676));
#664=CARTESIAN_POINT('Origin',(-620.07951668583,-0.999999985098619,7.7413842474583));
#665=CARTESIAN_POINT('',(-609.515974568154,-0.999999985098654,26.0034238352385));
#666=CARTESIAN_POINT('',(-629.738840609886,-0.999999985098619,16.1400730324842));
#667=CARTESIAN_POINT('',(-601.501208427998,-0.999999985098654,9.57071802871565));
#668=CARTESIAN_POINT('',(-610.773754855029,-0.999999985098654,28.5822555892804));
#669=CARTESIAN_POINT('',(-614.983119122486,-0.999999985098654,2.99515082687948));
#670=CARTESIAN_POINT('',(-612.736134006738,-0.999999985098654,4.09107869385218));
#671=CARTESIAN_POINT('',(-620.825195122361,-0.999999985098619,14.9731816922221));
#672=CARTESIAN_POINT('',(-617.503753213257,-0.999999985098619,8.16321658640315));
#673=CARTESIAN_POINT('',(-629.813135585352,-0.999999985098619,10.5894702243313));
#674=CARTESIAN_POINT('Origin',(-617.196888834464,2.48689957516035E-13,41.7516318622937));
#675=CARTESIAN_POINT('',(-601.501208427998,6.00000008940714,9.57071802871565));
#676=CARTESIAN_POINT('',(-601.501208427998,4.47036896389363E-8,9.57071802871564));
#677=CARTESIAN_POINT('',(-607.690701617294,6.00000008940714,22.2610596921588));
#678=CARTESIAN_POINT('',(-603.693064161943,6.00000008940718,14.0646882602115));
#679=CARTESIAN_POINT('',(-607.690701595606,-5.99999991059285,22.2610596476907));
#680=CARTESIAN_POINT('Origin',(-617.196888834464,2.48689957516035E-13,41.7516318622937));
#681=CARTESIAN_POINT('',(-601.501208427998,-5.99999991059285,9.57071802871565));
#682=CARTESIAN_POINT('',(-603.693064161943,-5.99999991059285,14.0646882602115));
#683=CARTESIAN_POINT('',(-601.501208427998,4.47036896389363E-8,9.57071802871564));
#684=CARTESIAN_POINT('',(-617.196888834464,17.5500000000002,41.7516318622937));
#685=CARTESIAN_POINT('Origin',(-617.196888834464,2.48689957516035E-13,41.7516318622937));
#686=CARTESIAN_POINT('Origin',(-617.196888834464,2.48689957516035E-13,41.7516318622937));
#687=CARTESIAN_POINT('Origin',(-639.666739991943,2.1316282072803E-13,30.7923531925668));
#688=CARTESIAN_POINT('',(-629.803389189189,2.12032495439924E-13,10.5694871508355));
#689=CARTESIAN_POINT('Origin',(-677.416089936508,2.48689957516035E-13,12.3807650274256));
#690=CARTESIAN_POINT('',(-621.172612290093,-5.99999991059281,15.6854924458546));
#691=CARTESIAN_POINT('Origin',(-630.678799528951,2.48689957516035E-13,35.1760646604576));
#692=CARTESIAN_POINT('',(-630.160552753085,-5.99999991059281,11.3017809779638));
#693=CARTESIAN_POINT('',(-621.172612311782,6.00000008940722,15.6854924903227));
#694=CARTESIAN_POINT('',(-630.160552774773,6.00000008940722,11.3017810224319));
#695=CARTESIAN_POINT('Origin',(-630.678799528951,2.48689957516035E-13,35.1760646604576));
#696=CARTESIAN_POINT('Origin',(-608.242163775242,8.9407166115052E-8,6.28293442779756));
#697=CARTESIAN_POINT('',(-614.983119122486,-5.99999991059281,2.99515082687948));
#698=CARTESIAN_POINT('',(-608.242163775242,-5.99999991059285,6.28293442779756));
#699=CARTESIAN_POINT('',(-614.983119122486,8.9407166115052E-8,2.99515082687948));
#700=CARTESIAN_POINT('Origin',(-617.174974856431,8.94072371693255E-8,7.48912105837531));
#701=CARTESIAN_POINT('',(-617.174974856431,-5.99999991059281,7.48912105837531));
#702=CARTESIAN_POINT('Origin',(-617.174974856431,8.94072371693255E-8,7.48912105837531));
#703=CARTESIAN_POINT('',(-614.983119122486,6.00000008940714,2.99515082687948));
#704=CARTESIAN_POINT('',(-617.174974856431,6.00000008940718,7.48912105837531));
#705=CARTESIAN_POINT('',(-614.983119122486,8.9407166115052E-8,2.99515082687948));
#706=CARTESIAN_POINT('Origin',(-610.434019509187,6.00000008940718,10.7769046592934));
#707=CARTESIAN_POINT('',(-608.242163775242,6.00000008940714,6.28293442779756));
#708=CARTESIAN_POINT('Origin',(-610.434019509187,-5.99999991059285,10.7769046592934));
#709=CARTESIAN_POINT('Origin',(-608.242163775242,8.9407166115052E-8,6.28293442779756));
#710=CARTESIAN_POINT('Origin',(-677.416089936508,2.48689957516035E-13,12.3807650274256));
#711=CARTESIAN_POINT('Origin',(-637.419754876195,2.48689957516035E-13,31.8882810595395));
#712=CARTESIAN_POINT('',(-662.136591149422,17.5500000000002,19.8330745228399));
#713=CARTESIAN_POINT('',(-637.419754876195,17.5500000000002,31.8882810595395));
#714=CARTESIAN_POINT('Origin',(-662.136591149422,2.48689957516035E-13,19.8330745228399));
#715=CARTESIAN_POINT('Origin',(-662.136591149422,2.48689957516035E-13,19.8330745228399));
#716=UNCERTAINTY_MEASURE_WITH_UNIT(LENGTH_MEASURE(0.01),#720,
'DISTANCE_ACCURACY_VALUE',
'Maximum model space distance between geometric entities at asserted c
onnectivities');
#717=UNCERTAINTY_MEASURE_WITH_UNIT(LENGTH_MEASURE(0.01),#720,
'DISTANCE_ACCURACY_VALUE',
'Maximum model space distance between geometric entities at asserted c
onnectivities');
#718=(
GEOMETRIC_REPRESENTATION_CONTEXT(3)
GLOBAL_UNCERTAINTY_ASSIGNED_CONTEXT((#716))
GLOBAL_UNIT_ASSIGNED_CONTEXT((#720,#722,#723))
REPRESENTATION_CONTEXT('','3D')
);
#719=(
GEOMETRIC_REPRESENTATION_CONTEXT(3)
GLOBAL_UNCERTAINTY_ASSIGNED_CONTEXT((#717))
GLOBAL_UNIT_ASSIGNED_CONTEXT((#720,#722,#723))
REPRESENTATION_CONTEXT('','3D')
);
#720=(
LENGTH_UNIT()
NAMED_UNIT(*)
SI_UNIT(.MILLI.,.METRE.)
);
#721=(
LENGTH_UNIT()
NAMED_UNIT(*)
SI_UNIT($,.METRE.)
);
#722=(
NAMED_UNIT(*)
PLANE_ANGLE_UNIT()
SI_UNIT($,.RADIAN.)
);
#723=(
NAMED_UNIT(*)
SI_UNIT($,.STERADIAN.)
SOLID_ANGLE_UNIT()
);
#724=SHAPE_DEFINITION_REPRESENTATION(#725,#726);
#725=PRODUCT_DEFINITION_SHAPE('',$,#728);
#726=SHAPE_REPRESENTATION('',(#389),#718);
#727=PRODUCT_DEFINITION_CONTEXT('part definition',#732,'design');
#728=PRODUCT_DEFINITION('TripodLeg-Endcaps-WeightBrackets',
'TripodLeg-Endcaps-WeightBrackets v62',#729,#727);
#729=PRODUCT_DEFINITION_FORMATION('',$,#734);
#730=PRODUCT_RELATED_PRODUCT_CATEGORY(
'TripodLeg-Endcaps-WeightBrackets v62',
'TripodLeg-Endcaps-WeightBrackets v62',(#734));
#731=APPLICATION_PROTOCOL_DEFINITION('international standard',
'automotive_design',2009,#732);
#732=APPLICATION_CONTEXT(
'Core Data for Automotive Mechanical Design Process');
#733=PRODUCT_CONTEXT('part definition',#732,'mechanical');
#734=PRODUCT('TripodLeg-Endcaps-WeightBrackets',
'TripodLeg-Endcaps-WeightBrackets v62',$,(#733));
#735=PRESENTATION_STYLE_ASSIGNMENT((#738));
#736=PRESENTATION_STYLE_ASSIGNMENT((#739));
#737=PRESENTATION_STYLE_ASSIGNMENT((#740));
#738=SURFACE_STYLE_USAGE(.BOTH.,#741);
#739=SURFACE_STYLE_USAGE(.BOTH.,#742);
#740=SURFACE_STYLE_USAGE(.BOTH.,#743);
#741=SURFACE_SIDE_STYLE('',(#744));
#742=SURFACE_SIDE_STYLE('',(#745));
#743=SURFACE_SIDE_STYLE('',(#746));
#744=SURFACE_STYLE_FILL_AREA(#747);
#745=SURFACE_STYLE_FILL_AREA(#748);
#746=SURFACE_STYLE_FILL_AREA(#749);
#747=FILL_AREA_STYLE('Steel - Satin',(#750));
#748=FILL_AREA_STYLE('Plastic - Translucent Matte (Red)',(#751));
#749=FILL_AREA_STYLE('Concrete',(#752));
#750=FILL_AREA_STYLE_COLOUR('Steel - Satin',#753);
#751=FILL_AREA_STYLE_COLOUR('Plastic - Translucent Matte (Red)',#754);
#752=FILL_AREA_STYLE_COLOUR('Concrete',#755);
#753=COLOUR_RGB('Steel - Satin',0.627450980392157,0.627450980392157,0.627450980392157);
#754=COLOUR_RGB('Plastic - Translucent Matte (Red)',0.768627450980392,0.207843137254902,
0.152941176470588);
#755=COLOUR_RGB('Concrete',0.,0.,0.);
ENDSEC;
END-ISO-10303-21;
